<?xml version="1.0" encoding="utf-8" standalone="no"?>
<!DOCTYPE svg PUBLIC "-//W3C//DTD SVG 1.1//EN"
  "http://www.w3.org/Graphics/SVG/1.1/DTD/svg11.dtd">
<!-- Created with matplotlib (https://matplotlib.org/) -->
<svg height="170.07874pt" version="1.1" viewBox="0 0 226.771654 170.07874" width="226.771654pt" xmlns="http://www.w3.org/2000/svg" xmlns:xlink="http://www.w3.org/1999/xlink">
 <defs>
  <style type="text/css">
*{stroke-linecap:butt;stroke-linejoin:round;}
  </style>
 </defs>
 <g id="figure_1">
  <g id="patch_1">
   <path d="M 0 170.07874 
L 226.771654 170.07874 
L 226.771654 0 
L 0 0 
z
" style="fill:#ffffff;"/>
  </g>
  <g id="axes_1">
   <g id="patch_2">
    <path d="M 54.978125 128.92249 
L 215.971654 128.92249 
L 215.971654 10.8 
L 54.978125 10.8 
z
" style="fill:#ffffff;"/>
   </g>
   <g id="matplotlib.axis_1">
    <g id="xtick_1">
     <g id="line2d_1">
      <path clip-path="url(#pae9e1d0352)" d="M 62.751261 128.92249 
L 62.751261 10.8 
" style="fill:none;stroke:#b0b0b0;stroke-linecap:square;stroke-width:0.8;"/>
     </g>
     <g id="line2d_2">
      <defs>
       <path d="M 0 0 
L 0 3.5 
" id="maaaaa4e62e" style="stroke:#000000;stroke-width:0.8;"/>
      </defs>
      <g>
       <use style="stroke:#000000;stroke-width:0.8;" x="62.751261" xlink:href="#maaaaa4e62e" y="128.92249"/>
      </g>
     </g>
     <g id="text_1">
      <!-- $\mathdefault{10^{-3}}$ -->
      <defs>
       <path d="M 12.40625 8.296875 
L 28.515625 8.296875 
L 28.515625 63.921875 
L 10.984375 60.40625 
L 10.984375 69.390625 
L 28.421875 72.90625 
L 38.28125 72.90625 
L 38.28125 8.296875 
L 54.390625 8.296875 
L 54.390625 0 
L 12.40625 0 
z
" id="DejaVuSans-49"/>
       <path d="M 31.78125 66.40625 
Q 24.171875 66.40625 20.328125 58.90625 
Q 16.5 51.421875 16.5 36.375 
Q 16.5 21.390625 20.328125 13.890625 
Q 24.171875 6.390625 31.78125 6.390625 
Q 39.453125 6.390625 43.28125 13.890625 
Q 47.125 21.390625 47.125 36.375 
Q 47.125 51.421875 43.28125 58.90625 
Q 39.453125 66.40625 31.78125 66.40625 
z
M 31.78125 74.21875 
Q 44.046875 74.21875 50.515625 64.515625 
Q 56.984375 54.828125 56.984375 36.375 
Q 56.984375 17.96875 50.515625 8.265625 
Q 44.046875 -1.421875 31.78125 -1.421875 
Q 19.53125 -1.421875 13.0625 8.265625 
Q 6.59375 17.96875 6.59375 36.375 
Q 6.59375 54.828125 13.0625 64.515625 
Q 19.53125 74.21875 31.78125 74.21875 
z
" id="DejaVuSans-48"/>
       <path d="M 10.59375 35.5 
L 73.1875 35.5 
L 73.1875 27.203125 
L 10.59375 27.203125 
z
" id="DejaVuSans-8722"/>
       <path d="M 40.578125 39.3125 
Q 47.65625 37.796875 51.625 33 
Q 55.609375 28.21875 55.609375 21.1875 
Q 55.609375 10.40625 48.1875 4.484375 
Q 40.765625 -1.421875 27.09375 -1.421875 
Q 22.515625 -1.421875 17.65625 -0.515625 
Q 12.796875 0.390625 7.625 2.203125 
L 7.625 11.71875 
Q 11.71875 9.328125 16.59375 8.109375 
Q 21.484375 6.890625 26.8125 6.890625 
Q 36.078125 6.890625 40.9375 10.546875 
Q 45.796875 14.203125 45.796875 21.1875 
Q 45.796875 27.640625 41.28125 31.265625 
Q 36.765625 34.90625 28.71875 34.90625 
L 20.21875 34.90625 
L 20.21875 43.015625 
L 29.109375 43.015625 
Q 36.375 43.015625 40.234375 45.921875 
Q 44.09375 48.828125 44.09375 54.296875 
Q 44.09375 59.90625 40.109375 62.90625 
Q 36.140625 65.921875 28.71875 65.921875 
Q 24.65625 65.921875 20.015625 65.03125 
Q 15.375 64.15625 9.8125 62.3125 
L 9.8125 71.09375 
Q 15.4375 72.65625 20.34375 73.4375 
Q 25.25 74.21875 29.59375 74.21875 
Q 40.828125 74.21875 47.359375 69.109375 
Q 53.90625 64.015625 53.90625 55.328125 
Q 53.90625 49.265625 50.4375 45.09375 
Q 46.96875 40.921875 40.578125 39.3125 
z
" id="DejaVuSans-51"/>
      </defs>
      <g transform="translate(51.001261 143.520928)scale(0.1 -0.1)">
       <use transform="translate(0 0.765625)" xlink:href="#DejaVuSans-49"/>
       <use transform="translate(63.623047 0.765625)" xlink:href="#DejaVuSans-48"/>
       <use transform="translate(128.203125 39.046875)scale(0.7)" xlink:href="#DejaVuSans-8722"/>
       <use transform="translate(186.855469 39.046875)scale(0.7)" xlink:href="#DejaVuSans-51"/>
      </g>
     </g>
    </g>
    <g id="xtick_2">
     <g id="line2d_3">
      <path clip-path="url(#pae9e1d0352)" d="M 106.950346 128.92249 
L 106.950346 10.8 
" style="fill:none;stroke:#b0b0b0;stroke-linecap:square;stroke-width:0.8;"/>
     </g>
     <g id="line2d_4">
      <g>
       <use style="stroke:#000000;stroke-width:0.8;" x="106.950346" xlink:href="#maaaaa4e62e" y="128.92249"/>
      </g>
     </g>
     <g id="text_2">
      <!-- $\mathdefault{10^{-2}}$ -->
      <defs>
       <path d="M 19.1875 8.296875 
L 53.609375 8.296875 
L 53.609375 0 
L 7.328125 0 
L 7.328125 8.296875 
Q 12.9375 14.109375 22.625 23.890625 
Q 32.328125 33.6875 34.8125 36.53125 
Q 39.546875 41.84375 41.421875 45.53125 
Q 43.3125 49.21875 43.3125 52.78125 
Q 43.3125 58.59375 39.234375 62.25 
Q 35.15625 65.921875 28.609375 65.921875 
Q 23.96875 65.921875 18.8125 64.3125 
Q 13.671875 62.703125 7.8125 59.421875 
L 7.8125 69.390625 
Q 13.765625 71.78125 18.9375 73 
Q 24.125 74.21875 28.421875 74.21875 
Q 39.75 74.21875 46.484375 68.546875 
Q 53.21875 62.890625 53.21875 53.421875 
Q 53.21875 48.921875 51.53125 44.890625 
Q 49.859375 40.875 45.40625 35.40625 
Q 44.1875 33.984375 37.640625 27.21875 
Q 31.109375 20.453125 19.1875 8.296875 
z
" id="DejaVuSans-50"/>
      </defs>
      <g transform="translate(95.200346 143.520928)scale(0.1 -0.1)">
       <use transform="translate(0 0.765625)" xlink:href="#DejaVuSans-49"/>
       <use transform="translate(63.623047 0.765625)" xlink:href="#DejaVuSans-48"/>
       <use transform="translate(128.203125 39.046875)scale(0.7)" xlink:href="#DejaVuSans-8722"/>
       <use transform="translate(186.855469 39.046875)scale(0.7)" xlink:href="#DejaVuSans-50"/>
      </g>
     </g>
    </g>
    <g id="xtick_3">
     <g id="line2d_5">
      <path clip-path="url(#pae9e1d0352)" d="M 151.149431 128.92249 
L 151.149431 10.8 
" style="fill:none;stroke:#b0b0b0;stroke-linecap:square;stroke-width:0.8;"/>
     </g>
     <g id="line2d_6">
      <g>
       <use style="stroke:#000000;stroke-width:0.8;" x="151.149431" xlink:href="#maaaaa4e62e" y="128.92249"/>
      </g>
     </g>
     <g id="text_3">
      <!-- $\mathdefault{10^{-1}}$ -->
      <g transform="translate(139.399431 143.520928)scale(0.1 -0.1)">
       <use transform="translate(0 0.684375)" xlink:href="#DejaVuSans-49"/>
       <use transform="translate(63.623047 0.684375)" xlink:href="#DejaVuSans-48"/>
       <use transform="translate(128.203125 38.965625)scale(0.7)" xlink:href="#DejaVuSans-8722"/>
       <use transform="translate(186.855469 38.965625)scale(0.7)" xlink:href="#DejaVuSans-49"/>
      </g>
     </g>
    </g>
    <g id="xtick_4">
     <g id="line2d_7">
      <path clip-path="url(#pae9e1d0352)" d="M 195.348516 128.92249 
L 195.348516 10.8 
" style="fill:none;stroke:#b0b0b0;stroke-linecap:square;stroke-width:0.8;"/>
     </g>
     <g id="line2d_8">
      <g>
       <use style="stroke:#000000;stroke-width:0.8;" x="195.348516" xlink:href="#maaaaa4e62e" y="128.92249"/>
      </g>
     </g>
     <g id="text_4">
      <!-- $\mathdefault{10^{0}}$ -->
      <g transform="translate(186.548516 143.520928)scale(0.1 -0.1)">
       <use transform="translate(0 0.765625)" xlink:href="#DejaVuSans-49"/>
       <use transform="translate(63.623047 0.765625)" xlink:href="#DejaVuSans-48"/>
       <use transform="translate(128.203125 39.046875)scale(0.7)" xlink:href="#DejaVuSans-48"/>
      </g>
     </g>
    </g>
    <g id="xtick_5">
     <g id="line2d_9">
      <defs>
       <path d="M 0 0 
L 0 2 
" id="m148c6f390c" style="stroke:#000000;stroke-width:0.6;"/>
      </defs>
      <g>
       <use style="stroke:#000000;stroke-width:0.6;" x="55.904736" xlink:href="#m148c6f390c" y="128.92249"/>
      </g>
     </g>
    </g>
    <g id="xtick_6">
     <g id="line2d_10">
      <g>
       <use style="stroke:#000000;stroke-width:0.6;" x="58.467927" xlink:href="#m148c6f390c" y="128.92249"/>
      </g>
     </g>
    </g>
    <g id="xtick_7">
     <g id="line2d_11">
      <g>
       <use style="stroke:#000000;stroke-width:0.6;" x="60.728822" xlink:href="#m148c6f390c" y="128.92249"/>
      </g>
     </g>
    </g>
    <g id="xtick_8">
     <g id="line2d_12">
      <g>
       <use style="stroke:#000000;stroke-width:0.6;" x="76.056512" xlink:href="#m148c6f390c" y="128.92249"/>
      </g>
     </g>
    </g>
    <g id="xtick_9">
     <g id="line2d_13">
      <g>
       <use style="stroke:#000000;stroke-width:0.6;" x="83.839584" xlink:href="#m148c6f390c" y="128.92249"/>
      </g>
     </g>
    </g>
    <g id="xtick_10">
     <g id="line2d_14">
      <g>
       <use style="stroke:#000000;stroke-width:0.6;" x="89.361762" xlink:href="#m148c6f390c" y="128.92249"/>
      </g>
     </g>
    </g>
    <g id="xtick_11">
     <g id="line2d_15">
      <g>
       <use style="stroke:#000000;stroke-width:0.6;" x="93.645096" xlink:href="#m148c6f390c" y="128.92249"/>
      </g>
     </g>
    </g>
    <g id="xtick_12">
     <g id="line2d_16">
      <g>
       <use style="stroke:#000000;stroke-width:0.6;" x="97.144834" xlink:href="#m148c6f390c" y="128.92249"/>
      </g>
     </g>
    </g>
    <g id="xtick_13">
     <g id="line2d_17">
      <g>
       <use style="stroke:#000000;stroke-width:0.6;" x="100.103821" xlink:href="#m148c6f390c" y="128.92249"/>
      </g>
     </g>
    </g>
    <g id="xtick_14">
     <g id="line2d_18">
      <g>
       <use style="stroke:#000000;stroke-width:0.6;" x="102.667012" xlink:href="#m148c6f390c" y="128.92249"/>
      </g>
     </g>
    </g>
    <g id="xtick_15">
     <g id="line2d_19">
      <g>
       <use style="stroke:#000000;stroke-width:0.6;" x="104.927907" xlink:href="#m148c6f390c" y="128.92249"/>
      </g>
     </g>
    </g>
    <g id="xtick_16">
     <g id="line2d_20">
      <g>
       <use style="stroke:#000000;stroke-width:0.6;" x="120.255596" xlink:href="#m148c6f390c" y="128.92249"/>
      </g>
     </g>
    </g>
    <g id="xtick_17">
     <g id="line2d_21">
      <g>
       <use style="stroke:#000000;stroke-width:0.6;" x="128.038669" xlink:href="#m148c6f390c" y="128.92249"/>
      </g>
     </g>
    </g>
    <g id="xtick_18">
     <g id="line2d_22">
      <g>
       <use style="stroke:#000000;stroke-width:0.6;" x="133.560847" xlink:href="#m148c6f390c" y="128.92249"/>
      </g>
     </g>
    </g>
    <g id="xtick_19">
     <g id="line2d_23">
      <g>
       <use style="stroke:#000000;stroke-width:0.6;" x="137.844181" xlink:href="#m148c6f390c" y="128.92249"/>
      </g>
     </g>
    </g>
    <g id="xtick_20">
     <g id="line2d_24">
      <g>
       <use style="stroke:#000000;stroke-width:0.6;" x="141.343919" xlink:href="#m148c6f390c" y="128.92249"/>
      </g>
     </g>
    </g>
    <g id="xtick_21">
     <g id="line2d_25">
      <g>
       <use style="stroke:#000000;stroke-width:0.6;" x="144.302906" xlink:href="#m148c6f390c" y="128.92249"/>
      </g>
     </g>
    </g>
    <g id="xtick_22">
     <g id="line2d_26">
      <g>
       <use style="stroke:#000000;stroke-width:0.6;" x="146.866097" xlink:href="#m148c6f390c" y="128.92249"/>
      </g>
     </g>
    </g>
    <g id="xtick_23">
     <g id="line2d_27">
      <g>
       <use style="stroke:#000000;stroke-width:0.6;" x="149.126992" xlink:href="#m148c6f390c" y="128.92249"/>
      </g>
     </g>
    </g>
    <g id="xtick_24">
     <g id="line2d_28">
      <g>
       <use style="stroke:#000000;stroke-width:0.6;" x="164.454681" xlink:href="#m148c6f390c" y="128.92249"/>
      </g>
     </g>
    </g>
    <g id="xtick_25">
     <g id="line2d_29">
      <g>
       <use style="stroke:#000000;stroke-width:0.6;" x="172.237754" xlink:href="#m148c6f390c" y="128.92249"/>
      </g>
     </g>
    </g>
    <g id="xtick_26">
     <g id="line2d_30">
      <g>
       <use style="stroke:#000000;stroke-width:0.6;" x="177.759931" xlink:href="#m148c6f390c" y="128.92249"/>
      </g>
     </g>
    </g>
    <g id="xtick_27">
     <g id="line2d_31">
      <g>
       <use style="stroke:#000000;stroke-width:0.6;" x="182.043265" xlink:href="#m148c6f390c" y="128.92249"/>
      </g>
     </g>
    </g>
    <g id="xtick_28">
     <g id="line2d_32">
      <g>
       <use style="stroke:#000000;stroke-width:0.6;" x="185.543004" xlink:href="#m148c6f390c" y="128.92249"/>
      </g>
     </g>
    </g>
    <g id="xtick_29">
     <g id="line2d_33">
      <g>
       <use style="stroke:#000000;stroke-width:0.6;" x="188.501991" xlink:href="#m148c6f390c" y="128.92249"/>
      </g>
     </g>
    </g>
    <g id="xtick_30">
     <g id="line2d_34">
      <g>
       <use style="stroke:#000000;stroke-width:0.6;" x="191.065182" xlink:href="#m148c6f390c" y="128.92249"/>
      </g>
     </g>
    </g>
    <g id="xtick_31">
     <g id="line2d_35">
      <g>
       <use style="stroke:#000000;stroke-width:0.6;" x="193.326076" xlink:href="#m148c6f390c" y="128.92249"/>
      </g>
     </g>
    </g>
    <g id="xtick_32">
     <g id="line2d_36">
      <g>
       <use style="stroke:#000000;stroke-width:0.6;" x="208.653766" xlink:href="#m148c6f390c" y="128.92249"/>
      </g>
     </g>
    </g>
    <g id="text_5">
     <!-- f (Hz) -->
     <defs>
      <path d="M 37.109375 75.984375 
L 37.109375 68.5 
L 28.515625 68.5 
Q 23.6875 68.5 21.796875 66.546875 
Q 19.921875 64.59375 19.921875 59.515625 
L 19.921875 54.6875 
L 34.71875 54.6875 
L 34.71875 47.703125 
L 19.921875 47.703125 
L 19.921875 0 
L 10.890625 0 
L 10.890625 47.703125 
L 2.296875 47.703125 
L 2.296875 54.6875 
L 10.890625 54.6875 
L 10.890625 58.5 
Q 10.890625 67.625 15.140625 71.796875 
Q 19.390625 75.984375 28.609375 75.984375 
z
" id="DejaVuSans-102"/>
      <path id="DejaVuSans-32"/>
      <path d="M 31 75.875 
Q 24.46875 64.65625 21.28125 53.65625 
Q 18.109375 42.671875 18.109375 31.390625 
Q 18.109375 20.125 21.3125 9.0625 
Q 24.515625 -2 31 -13.1875 
L 23.1875 -13.1875 
Q 15.875 -1.703125 12.234375 9.375 
Q 8.59375 20.453125 8.59375 31.390625 
Q 8.59375 42.28125 12.203125 53.3125 
Q 15.828125 64.359375 23.1875 75.875 
z
" id="DejaVuSans-40"/>
      <path d="M 9.8125 72.90625 
L 19.671875 72.90625 
L 19.671875 43.015625 
L 55.515625 43.015625 
L 55.515625 72.90625 
L 65.375 72.90625 
L 65.375 0 
L 55.515625 0 
L 55.515625 34.71875 
L 19.671875 34.71875 
L 19.671875 0 
L 9.8125 0 
z
" id="DejaVuSans-72"/>
      <path d="M 5.515625 54.6875 
L 48.1875 54.6875 
L 48.1875 46.484375 
L 14.40625 7.171875 
L 48.1875 7.171875 
L 48.1875 0 
L 4.296875 0 
L 4.296875 8.203125 
L 38.09375 47.515625 
L 5.515625 47.515625 
z
" id="DejaVuSans-122"/>
      <path d="M 8.015625 75.875 
L 15.828125 75.875 
Q 23.140625 64.359375 26.78125 53.3125 
Q 30.421875 42.28125 30.421875 31.390625 
Q 30.421875 20.453125 26.78125 9.375 
Q 23.140625 -1.703125 15.828125 -13.1875 
L 8.015625 -13.1875 
Q 14.5 -2 17.703125 9.0625 
Q 20.90625 20.125 20.90625 31.390625 
Q 20.90625 42.671875 17.703125 53.65625 
Q 14.5 64.65625 8.015625 75.875 
z
" id="DejaVuSans-41"/>
     </defs>
     <g transform="translate(121.839733 157.199053)scale(0.1 -0.1)">
      <use xlink:href="#DejaVuSans-102"/>
      <use x="35.205078" xlink:href="#DejaVuSans-32"/>
      <use x="66.992188" xlink:href="#DejaVuSans-40"/>
      <use x="106.005859" xlink:href="#DejaVuSans-72"/>
      <use x="181.201172" xlink:href="#DejaVuSans-122"/>
      <use x="233.691406" xlink:href="#DejaVuSans-41"/>
     </g>
    </g>
   </g>
   <g id="matplotlib.axis_2">
    <g id="ytick_1">
     <g id="line2d_37">
      <path clip-path="url(#pae9e1d0352)" d="M 54.978125 103.188502 
L 215.971654 103.188502 
" style="fill:none;stroke:#b0b0b0;stroke-linecap:square;stroke-width:0.8;"/>
     </g>
     <g id="line2d_38">
      <defs>
       <path d="M 0 0 
L -3.5 0 
" id="md4559e90e9" style="stroke:#000000;stroke-width:0.8;"/>
      </defs>
      <g>
       <use style="stroke:#000000;stroke-width:0.8;" x="54.978125" xlink:href="#md4559e90e9" y="103.188502"/>
      </g>
     </g>
     <g id="text_6">
      <!-- $\mathdefault{10^{-3}}$ -->
      <g transform="translate(24.478125 106.987721)scale(0.1 -0.1)">
       <use transform="translate(0 0.765625)" xlink:href="#DejaVuSans-49"/>
       <use transform="translate(63.623047 0.765625)" xlink:href="#DejaVuSans-48"/>
       <use transform="translate(128.203125 39.046875)scale(0.7)" xlink:href="#DejaVuSans-8722"/>
       <use transform="translate(186.855469 39.046875)scale(0.7)" xlink:href="#DejaVuSans-51"/>
      </g>
     </g>
    </g>
    <g id="ytick_2">
     <g id="line2d_39">
      <path clip-path="url(#pae9e1d0352)" d="M 54.978125 74.751832 
L 215.971654 74.751832 
" style="fill:none;stroke:#b0b0b0;stroke-linecap:square;stroke-width:0.8;"/>
     </g>
     <g id="line2d_40">
      <g>
       <use style="stroke:#000000;stroke-width:0.8;" x="54.978125" xlink:href="#md4559e90e9" y="74.751832"/>
      </g>
     </g>
     <g id="text_7">
      <!-- $\mathdefault{10^{-1}}$ -->
      <g transform="translate(24.478125 78.551051)scale(0.1 -0.1)">
       <use transform="translate(0 0.684375)" xlink:href="#DejaVuSans-49"/>
       <use transform="translate(63.623047 0.684375)" xlink:href="#DejaVuSans-48"/>
       <use transform="translate(128.203125 38.965625)scale(0.7)" xlink:href="#DejaVuSans-8722"/>
       <use transform="translate(186.855469 38.965625)scale(0.7)" xlink:href="#DejaVuSans-49"/>
      </g>
     </g>
    </g>
    <g id="ytick_3">
     <g id="line2d_41">
      <path clip-path="url(#pae9e1d0352)" d="M 54.978125 46.315162 
L 215.971654 46.315162 
" style="fill:none;stroke:#b0b0b0;stroke-linecap:square;stroke-width:0.8;"/>
     </g>
     <g id="line2d_42">
      <g>
       <use style="stroke:#000000;stroke-width:0.8;" x="54.978125" xlink:href="#md4559e90e9" y="46.315162"/>
      </g>
     </g>
     <g id="text_8">
      <!-- $\mathdefault{10^{1}}$ -->
      <g transform="translate(30.378125 50.114381)scale(0.1 -0.1)">
       <use transform="translate(0 0.684375)" xlink:href="#DejaVuSans-49"/>
       <use transform="translate(63.623047 0.684375)" xlink:href="#DejaVuSans-48"/>
       <use transform="translate(128.203125 38.965625)scale(0.7)" xlink:href="#DejaVuSans-49"/>
      </g>
     </g>
    </g>
    <g id="ytick_4">
     <g id="line2d_43">
      <path clip-path="url(#pae9e1d0352)" d="M 54.978125 17.878492 
L 215.971654 17.878492 
" style="fill:none;stroke:#b0b0b0;stroke-linecap:square;stroke-width:0.8;"/>
     </g>
     <g id="line2d_44">
      <g>
       <use style="stroke:#000000;stroke-width:0.8;" x="54.978125" xlink:href="#md4559e90e9" y="17.878492"/>
      </g>
     </g>
     <g id="text_9">
      <!-- $\mathdefault{10^{3}}$ -->
      <g transform="translate(30.378125 21.677711)scale(0.1 -0.1)">
       <use transform="translate(0 0.765625)" xlink:href="#DejaVuSans-49"/>
       <use transform="translate(63.623047 0.765625)" xlink:href="#DejaVuSans-48"/>
       <use transform="translate(128.203125 39.046875)scale(0.7)" xlink:href="#DejaVuSans-51"/>
      </g>
     </g>
    </g>
    <g id="text_10">
     <!-- S(f) (m^2/s) -->
     <defs>
      <path d="M 53.515625 70.515625 
L 53.515625 60.890625 
Q 47.90625 63.578125 42.921875 64.890625 
Q 37.9375 66.21875 33.296875 66.21875 
Q 25.25 66.21875 20.875 63.09375 
Q 16.5 59.96875 16.5 54.203125 
Q 16.5 49.359375 19.40625 46.890625 
Q 22.3125 44.4375 30.421875 42.921875 
L 36.375 41.703125 
Q 47.40625 39.59375 52.65625 34.296875 
Q 57.90625 29 57.90625 20.125 
Q 57.90625 9.515625 50.796875 4.046875 
Q 43.703125 -1.421875 29.984375 -1.421875 
Q 24.8125 -1.421875 18.96875 -0.25 
Q 13.140625 0.921875 6.890625 3.21875 
L 6.890625 13.375 
Q 12.890625 10.015625 18.65625 8.296875 
Q 24.421875 6.59375 29.984375 6.59375 
Q 38.421875 6.59375 43.015625 9.90625 
Q 47.609375 13.234375 47.609375 19.390625 
Q 47.609375 24.75 44.3125 27.78125 
Q 41.015625 30.8125 33.5 32.328125 
L 27.484375 33.5 
Q 16.453125 35.6875 11.515625 40.375 
Q 6.59375 45.0625 6.59375 53.421875 
Q 6.59375 63.09375 13.40625 68.65625 
Q 20.21875 74.21875 32.171875 74.21875 
Q 37.3125 74.21875 42.625 73.28125 
Q 47.953125 72.359375 53.515625 70.515625 
z
" id="DejaVuSans-83"/>
      <path d="M 52 44.1875 
Q 55.375 50.25 60.0625 53.125 
Q 64.75 56 71.09375 56 
Q 79.640625 56 84.28125 50.015625 
Q 88.921875 44.046875 88.921875 33.015625 
L 88.921875 0 
L 79.890625 0 
L 79.890625 32.71875 
Q 79.890625 40.578125 77.09375 44.375 
Q 74.3125 48.1875 68.609375 48.1875 
Q 61.625 48.1875 57.5625 43.546875 
Q 53.515625 38.921875 53.515625 30.90625 
L 53.515625 0 
L 44.484375 0 
L 44.484375 32.71875 
Q 44.484375 40.625 41.703125 44.40625 
Q 38.921875 48.1875 33.109375 48.1875 
Q 26.21875 48.1875 22.15625 43.53125 
Q 18.109375 38.875 18.109375 30.90625 
L 18.109375 0 
L 9.078125 0 
L 9.078125 54.6875 
L 18.109375 54.6875 
L 18.109375 46.1875 
Q 21.1875 51.21875 25.484375 53.609375 
Q 29.78125 56 35.6875 56 
Q 41.65625 56 45.828125 52.96875 
Q 50 49.953125 52 44.1875 
z
" id="DejaVuSans-109"/>
      <path d="M 46.6875 72.90625 
L 73.1875 45.703125 
L 63.375 45.703125 
L 41.890625 64.984375 
L 20.40625 45.703125 
L 10.59375 45.703125 
L 37.109375 72.90625 
z
" id="DejaVuSans-94"/>
      <path d="M 25.390625 72.90625 
L 33.6875 72.90625 
L 8.296875 -9.28125 
L 0 -9.28125 
z
" id="DejaVuSans-47"/>
      <path d="M 44.28125 53.078125 
L 44.28125 44.578125 
Q 40.484375 46.53125 36.375 47.5 
Q 32.28125 48.484375 27.875 48.484375 
Q 21.1875 48.484375 17.84375 46.4375 
Q 14.5 44.390625 14.5 40.28125 
Q 14.5 37.15625 16.890625 35.375 
Q 19.28125 33.59375 26.515625 31.984375 
L 29.59375 31.296875 
Q 39.15625 29.25 43.1875 25.515625 
Q 47.21875 21.78125 47.21875 15.09375 
Q 47.21875 7.46875 41.1875 3.015625 
Q 35.15625 -1.421875 24.609375 -1.421875 
Q 20.21875 -1.421875 15.453125 -0.5625 
Q 10.6875 0.296875 5.421875 2 
L 5.421875 11.28125 
Q 10.40625 8.6875 15.234375 7.390625 
Q 20.0625 6.109375 24.8125 6.109375 
Q 31.15625 6.109375 34.5625 8.28125 
Q 37.984375 10.453125 37.984375 14.40625 
Q 37.984375 18.0625 35.515625 20.015625 
Q 33.0625 21.96875 24.703125 23.78125 
L 21.578125 24.515625 
Q 13.234375 26.265625 9.515625 29.90625 
Q 5.8125 33.546875 5.8125 39.890625 
Q 5.8125 47.609375 11.28125 51.796875 
Q 16.75 56 26.8125 56 
Q 31.78125 56 36.171875 55.265625 
Q 40.578125 54.546875 44.28125 53.078125 
z
" id="DejaVuSans-115"/>
     </defs>
     <g transform="translate(18.398437 100.718276)rotate(-90)scale(0.1 -0.1)">
      <use xlink:href="#DejaVuSans-83"/>
      <use x="63.476562" xlink:href="#DejaVuSans-40"/>
      <use x="102.490234" xlink:href="#DejaVuSans-102"/>
      <use x="137.695312" xlink:href="#DejaVuSans-41"/>
      <use x="176.708984" xlink:href="#DejaVuSans-32"/>
      <use x="208.496094" xlink:href="#DejaVuSans-40"/>
      <use x="247.509766" xlink:href="#DejaVuSans-109"/>
      <use x="344.921875" xlink:href="#DejaVuSans-94"/>
      <use x="428.710938" xlink:href="#DejaVuSans-50"/>
      <use x="492.333984" xlink:href="#DejaVuSans-47"/>
      <use x="526.025391" xlink:href="#DejaVuSans-115"/>
      <use x="578.125" xlink:href="#DejaVuSans-41"/>
     </g>
    </g>
   </g>
   <g id="line2d_45">
    <path clip-path="url(#pae9e1d0352)" d="M 62.296013 25.144557 
L 75.601263 29.872238 
L 83.384335 34.891819 
L 88.906513 26.910025 
L 93.189847 18.483061 
L 96.689586 22.680914 
L 99.648573 24.864004 
L 102.211764 32.638915 
L 104.472658 18.145318 
L 106.495097 16.169204 
L 108.324616 20.536385 
L 109.994836 22.123338 
L 111.531289 23.385955 
L 112.953823 33.535583 
L 114.27817 32.772394 
L 115.517014 33.250994 
L 116.680729 34.093203 
L 117.777909 35.924287 
L 118.815751 34.213876 
L 119.800348 35.591327 
L 120.736895 27.578878 
L 121.629867 23.655365 
L 122.483137 27.18007 
L 123.300086 27.130044 
L 124.083682 24.478197 
L 124.83654 25.142367 
L 125.560981 36.397068 
L 126.259073 41.401236 
L 126.932666 35.10157 
L 127.58342 34.319418 
L 128.212835 41.738494 
L 128.822264 28.233679 
L 129.412939 37.569575 
L 129.985979 40.271392 
L 130.542407 33.087251 
L 131.083159 34.025843 
L 131.609094 40.402568 
L 132.121002 43.029405 
L 133.105598 39.221392 
L 133.579583 60.109617 
L 134.042146 43.838294 
L 134.935117 37.932155 
L 135.366493 42.340823 
L 135.788387 35.451013 
L 136.201208 38.76235 
L 136.605337 35.643357 
L 137.001132 34.745125 
L 137.388932 36.200182 
L 137.769052 36.642702 
L 138.14179 64.085825 
L 138.507428 42.880348 
L 138.866231 58.276139 
L 139.218451 39.007462 
L 139.564323 39.892296 
L 139.904074 45.672992 
L 140.237916 37.952455 
L 140.566051 38.789163 
L 141.518085 44.468857 
L 141.825218 43.250685 
L 142.127514 38.815727 
L 142.425124 54.36693 
L 142.718189 47.359851 
L 143.006848 63.159497 
L 143.571459 48.103926 
L 143.847657 44.176347 
L 144.119937 33.523923 
L 144.388409 38.243967 
L 144.653178 60.424759 
L 144.914344 47.703511 
L 145.172004 45.221985 
L 145.426252 38.962268 
L 145.677176 36.845857 
L 145.924862 50.379842 
L 146.169393 42.751651 
L 146.410848 51.005589 
L 146.649304 40.178155 
L 146.884833 44.780448 
L 147.117508 46.498406 
L 147.347396 44.678545 
L 147.574563 47.544776 
L 147.799074 59.286985 
L 148.020988 58.302507 
L 148.240367 43.652669 
L 148.457267 40.071301 
L 148.671743 46.953532 
L 149.093637 35.995286 
L 149.301157 36.490418 
L 149.506458 35.404962 
L 149.709586 46.028554 
L 149.910587 46.894348 
L 150.109505 44.694951 
L 150.306383 63.309084 
L 150.501262 49.912418 
L 150.694182 51.643877 
L 150.885183 45.797079 
L 151.074302 67.884194 
L 151.261576 46.982041 
L 151.63073 57.891898 
L 151.812678 57.951354 
L 151.992918 43.917581 
L 152.171482 40.482404 
L 152.348399 41.420764 
L 152.523701 44.072718 
L 152.697416 42.94267 
L 153.040201 47.161387 
L 153.209325 43.405126 
L 153.376971 44.772051 
L 153.543166 42.888402 
L 153.707935 46.219913 
L 153.871301 72.418555 
L 154.033289 53.101979 
L 154.193921 54.165273 
L 154.35322 53.630256 
L 154.511208 47.440508 
L 154.667906 47.008504 
L 154.823335 47.925292 
L 154.977516 60.054971 
L 155.130468 47.374919 
L 155.282212 47.514424 
L 155.432765 50.814296 
L 155.582146 64.805147 
L 155.730374 53.979065 
L 155.877466 64.845586 
L 156.168311 45.384735 
L 156.312098 45.6506 
L 156.454815 45.156796 
L 156.87671 64.248329 
L 157.015305 43.682391 
L 157.152908 45.201393 
L 157.425188 41.7363 
L 157.693659 48.815303 
L 157.8265 47.485967 
L 157.958428 51.764104 
L 158.089455 66.123942 
L 158.477255 49.485243 
L 158.604799 53.826555 
L 158.857374 39.936427 
L 158.982426 39.348346 
L 159.106669 42.042751 
L 159.352768 62.148574 
L 159.716099 42.552607 
L 159.835697 41.780905 
L 160.07268 51.0854 
L 160.306773 61.368251 
L 160.538046 49.938409 
L 160.766566 57.620719 
L 160.992397 43.346152 
L 161.104324 52.72401 
L 161.215602 50.493961 
L 161.326239 66.146688 
L 161.545617 47.174849 
L 161.654374 44.876454 
L 161.762517 44.92196 
L 161.976993 54.156662 
L 162.083339 55.236786 
L 162.29428 46.999289 
L 162.502928 64.897426 
L 162.606408 56.148181 
L 162.811708 60.53317 
L 162.913541 60.566742 
L 163.215837 44.396589 
L 163.414755 49.791721 
L 163.513447 51.745107 
L 163.806512 44.40651 
L 163.903215 48.306528 
L 163.999432 64.50242 
L 164.190433 53.106559 
L 164.285226 58.646112 
L 164.473418 45.153461 
L 164.566826 65.058642 
L 164.75229 46.853949 
L 164.844355 45.612768 
L 164.93598 48.906079 
L 165.02717 79.015544 
L 165.117929 52.367031 
L 165.20826 85.046075 
L 165.298169 49.913446 
L 165.387658 57.431228 
L 165.565394 49.887628 
L 165.653649 65.489635 
L 165.7415 55.844637 
L 165.828951 61.019457 
L 165.916005 54.383534 
L 166.002667 76.124668 
L 166.260327 46.054841 
L 166.345451 48.270763 
L 166.430199 60.258385 
L 166.598581 46.261069 
L 166.682221 46.090185 
L 166.848417 57.26081 
L 167.013185 47.137146 
L 167.176551 49.073819 
L 167.257716 48.445886 
L 167.338539 58.520957 
L 167.499171 49.891628 
L 167.65847 44.9314 
L 167.894967 49.465373 
L 167.973156 48.595252 
L 168.051028 45.545889 
L 168.128585 46.899149 
L 168.282766 60.818327 
L 168.359395 54.857496 
L 168.435719 68.03149 
L 168.662886 50.396348 
L 168.738015 64.00323 
L 168.887396 51.88466 
L 168.961653 51.788719 
L 169.035624 52.509006 
L 169.109311 61.573659 
L 169.182716 59.401856 
L 169.255842 61.362499 
L 169.32869 66.744312 
L 169.401262 62.792315 
L 169.54559 51.537987 
L 169.617348 50.598592 
L 169.68884 58.242691 
L 169.831029 50.849343 
L 169.90173 54.561175 
L 170.042356 49.989954 
L 170.112285 55.831934 
L 170.18196 53.452839 
L 170.320556 48.535454 
L 170.38948 49.506284 
L 170.526591 70.774607 
L 170.594781 56.416879 
L 170.662729 75.227787 
L 170.730438 61.73529 
L 170.797909 73.478075 
L 170.865143 57.721568 
L 170.932143 58.487075 
L 170.99891 66.419665 
L 171.065445 64.622373 
L 171.197828 52.493139 
L 171.263678 64.484859 
L 171.329304 59.72878 
L 171.394706 54.095253 
L 171.524844 80.341669 
L 171.654107 51.031881 
L 171.718413 51.478395 
L 171.846383 80.763573 
L 171.973506 51.489498 
L 172.099792 55.48754 
L 172.162625 50.406487 
L 172.225253 51.996677 
L 172.349899 72.225311 
L 172.411919 53.51934 
L 172.47374 69.726215 
L 172.535363 54.578267 
L 172.596788 63.740936 
L 172.719053 53.333416 
L 172.779894 53.914815 
L 172.840543 69.720537 
L 172.961269 52.562845 
L 173.021349 56.094168 
L 173.081241 52.222405 
L 173.140947 53.105527 
L 173.318958 75.360856 
L 173.436722 53.21141 
L 173.495334 74.210057 
L 173.670104 52.327673 
L 173.843297 62.184014 
L 173.900682 58.11931 
L 174.071816 53.292032 
L 174.128524 57.313396 
L 174.185064 52.337802 
L 174.241438 52.80309 
L 174.297647 52.872638 
L 174.409574 57.036958 
L 174.465294 53.706157 
L 174.520852 68.724622 
L 174.57625 66.817711 
L 174.686569 53.233856 
L 174.850868 67.087354 
L 175.067767 52.027228 
L 175.228849 56.878932 
L 175.33549 62.58477 
L 175.441543 58.402411 
L 175.49435 65.621426 
L 175.547012 59.381273 
L 175.651905 52.07156 
L 175.756229 61.508867 
L 175.808178 59.673626 
L 175.911658 53.914098 
L 175.963189 55.835892 
L 176.014583 65.122307 
L 176.065839 54.44802 
L 176.116958 54.590516 
L 176.167942 76.504626 
L 176.218791 59.62162 
L 176.370534 55.2057 
L 176.42085 54.399387 
L 176.521087 64.956429 
L 176.620804 55.174932 
L 176.670469 56.888917 
L 176.720006 56.840309 
L 176.867853 70.996026 
L 176.916883 67.032952 
L 176.965789 83.959835 
L 177.111762 55.834429 
L 177.256634 71.263415 
L 177.400421 56.406051 
L 177.448111 60.897945 
L 177.495684 80.163185 
L 177.543138 58.406783 
L 177.590476 54.094192 
L 177.637697 56.553481 
L 177.684802 92.258794 
L 177.731793 56.53479 
L 177.825429 69.303683 
L 177.872076 56.591315 
L 177.965033 56.682823 
L 178.011342 69.540745 
L 178.057541 56.854788 
L 178.149605 52.798926 
L 178.195473 52.840845 
L 178.33242 60.621744 
L 178.423179 53.912846 
L 178.51351 61.881556 
L 178.603419 55.598476 
L 178.692908 102.117927 
L 178.737497 64.807851 
L 178.781982 58.20464 
L 178.826365 67.547127 
L 178.914823 59.06918 
L 178.9589 70.958145 
L 179.002875 59.651268 
L 179.090526 63.268041 
L 179.177778 55.34886 
L 179.221256 62.724765 
L 179.264635 56.124561 
L 179.307917 58.531485 
L 179.351101 77.181245 
L 179.394189 56.59219 
L 179.43718 53.483185 
L 179.480074 53.677048 
L 179.565577 64.198702 
L 179.608187 91.820792 
L 179.650701 56.611302 
L 179.693122 56.408295 
L 179.819825 58.964813 
L 179.861874 77.249624 
L 179.903831 70.179128 
L 180.029156 58.22866 
L 180.070749 69.598401 
L 180.112253 58.96682 
L 180.153667 60.686583 
L 180.194992 59.577814 
L 180.236228 70.212129 
L 180.277376 62.35831 
L 180.318435 59.421797 
L 180.359408 63.874036 
L 180.44109 61.518741 
L 180.481802 76.993078 
L 180.522427 59.42687 
L 180.562966 66.903349 
L 180.643789 70.494155 
L 180.684074 64.348361 
L 180.724273 74.624874 
L 180.764389 72.720038 
L 180.924019 54.072026 
L 181.003339 59.430599 
L 181.082333 57.921793 
L 181.121708 67.380669 
L 181.200217 61.022022 
L 181.239352 75.797595 
L 181.278406 73.080895 
L 181.317382 57.724456 
L 181.395096 59.791367 
L 181.472497 55.728746 
L 181.588017 75.351074 
L 181.664645 55.486563 
L 181.702845 57.710665 
L 181.854889 84.207717 
L 181.892712 81.744147 
L 181.968136 60.661667 
L 182.043265 66.645507 
L 182.08072 59.634589 
L 182.118101 71.797687 
L 182.15541 85.461339 
L 182.192647 59.917061 
L 182.229811 61.422668 
L 182.377753 54.987854 
L 182.414562 58.888512 
L 182.487967 82.883013 
L 182.561092 80.222454 
L 182.63394 60.329989 
L 182.670261 73.795133 
L 182.706513 78.174026 
L 182.81486 59.002333 
L 182.85084 61.163601 
L 182.886753 90.072727 
L 182.922599 59.885336 
L 182.958377 64.86881 
L 183.029736 65.822713 
L 183.10083 58.613267 
L 183.136279 57.627874 
L 183.242234 68.447183 
L 183.312547 57.936854 
L 183.347607 64.537874 
L 183.382603 66.924799 
L 183.417535 59.931184 
L 183.452405 68.456525 
L 183.48721 63.303274 
L 183.521953 79.364147 
L 183.591251 71.623616 
L 183.660299 57.554781 
L 183.7291 60.446785 
L 183.763408 57.668812 
L 183.900031 85.767725 
L 183.934035 81.716296 
L 184.069453 58.975592 
L 184.203923 78.585117 
L 184.337456 57.611285 
L 184.370695 58.252978 
L 184.403877 58.144765 
L 184.437001 56.613878 
L 184.470068 58.904874 
L 184.503078 60.226388 
L 184.536032 56.98619 
L 184.568929 58.114378 
L 184.601769 80.947261 
L 184.667283 56.647634 
L 184.699956 58.787128 
L 184.732573 74.069528 
L 184.797643 58.425558 
L 184.830095 56.525196 
L 184.894835 58.436111 
L 184.927123 68.968271 
L 184.991537 56.177562 
L 185.055736 62.561294 
L 185.087755 70.198655 
L 185.119721 61.223941 
L 185.151634 63.18288 
L 185.2153 57.281649 
L 185.278756 59.744647 
L 185.310406 61.325854 
L 185.342003 58.379167 
L 185.373548 58.129339 
L 185.467875 61.566621 
L 185.499214 57.759284 
L 185.530503 59.825943 
L 185.56174 73.322438 
L 185.655149 68.005203 
L 185.686184 71.599973 
L 185.748105 76.910238 
L 185.809827 57.673455 
L 185.840613 57.830086 
L 185.902039 61.275781 
L 185.963268 59.755337 
L 185.99381 59.375747 
L 186.054748 64.733964 
L 186.085144 63.89986 
L 186.115493 59.70722 
L 186.206251 61.049919 
L 186.236409 75.285781 
L 186.296583 57.991965 
L 186.356569 64.674365 
L 186.386491 73.994836 
L 186.416367 61.795847 
L 186.446197 62.789211 
L 186.475981 63.926561 
L 186.535409 70.973302 
L 186.565055 63.310677 
L 186.594654 68.197142 
L 186.624209 71.720467 
L 186.653717 63.450475 
L 186.683181 68.181248 
L 186.712599 60.949159 
L 186.771301 72.437563 
L 186.829823 61.786631 
L 186.859018 63.566329 
L 186.888168 85.413733 
L 186.946336 60.154732 
L 186.975354 58.367764 
L 187.004328 59.290004 
L 187.090989 64.379637 
L 187.148547 63.688463 
L 187.177261 61.649247 
L 187.205932 63.966487 
L 187.263147 68.847143 
L 187.29169 96.758821 
L 187.320191 64.989595 
L 187.34865 68.086978 
L 187.377067 66.632292 
L 187.433774 100.411187 
L 187.462065 80.517763 
L 187.546688 62.385921 
L 187.574814 74.053542 
L 187.658943 69.152856 
L 187.686904 96.657437 
L 187.742705 60.013399 
L 187.826103 64.193075 
L 187.853822 62.720459 
L 187.881501 65.130179 
L 187.936739 62.441387 
L 187.964299 77.189514 
L 187.99182 62.326205 
L 188.0193 70.527244 
L 188.046742 93.144749 
L 188.074145 64.939111 
L 188.101508 76.938887 
L 188.210573 59.884208 
L 188.346039 86.062148 
L 188.453727 59.06946 
L 188.480555 65.353112 
L 188.507346 62.447625 
L 188.534099 66.427692 
L 188.587494 64.161069 
L 188.69384 69.981694 
L 188.720335 64.922272 
L 188.746793 80.137276 
L 188.7996 67.344765 
L 188.825949 69.52601 
L 188.852262 63.137095 
L 188.87854 67.674414 
L 189.009388 59.226778 
L 189.035451 61.291636 
L 189.061479 82.413693 
L 189.139351 70.308665 
L 189.165238 68.791509 
L 189.191091 73.377857 
L 189.216908 77.336679 
L 189.26844 58.718537 
L 189.345478 61.391903 
L 189.422209 88.82725 
L 189.447718 72.376558 
L 189.549415 60.214533 
L 189.574756 61.034005 
L 189.625337 59.447598 
L 189.675785 60.132989 
L 189.700959 62.549225 
L 189.751209 98.742569 
L 189.851316 84.374157 
L 189.876261 63.196946 
L 189.975719 67.316439 
L 190.025256 85.925665 
L 190.074665 62.562685 
L 190.099322 61.957455 
L 190.173103 90.52756 
L 190.197634 86.212343 
L 190.31982 60.960322 
L 190.344165 61.198858 
L 190.368478 60.824674 
L 190.465425 85.732167 
L 190.489585 63.01855 
L 190.513715 60.086577 
L 190.537815 64.665672 
L 190.561884 70.09326 
L 190.633912 68.082713 
L 190.657862 66.43465 
L 190.681781 77.786454 
L 190.753362 64.54928 
L 190.777162 75.549471 
L 190.895726 63.237655 
L 190.824676 76.128117 
L 190.919351 65.661433 
L 190.942947 78.183306 
L 191.013562 60.258292 
L 191.037043 61.131429 
L 191.083918 86.857727 
L 191.130679 70.502659 
L 191.270283 60.429591 
L 191.316593 67.652204 
L 191.362791 61.215274 
L 191.385849 61.445139 
L 191.523615 76.900563 
L 191.546481 84.949981 
L 191.569319 65.863684 
L 191.59213 61.611618 
L 191.6604 69.501087 
L 191.683103 69.01179 
L 191.751052 62.271621 
L 191.796218 89.244255 
L 191.908669 61.509176 
L 191.931081 62.073604 
L 191.953466 63.08121 
L 192.065003 90.831571 
L 192.087232 71.045873 
L 192.131615 73.239919 
L 192.26415 62.2756 
L 192.373901 79.905686 
L 192.439452 62.964586 
L 192.504779 63.47513 
L 192.526506 71.802525 
L 192.591539 61.287466 
L 192.656352 65.773386 
L 192.677907 63.706732 
L 192.763889 113.020914 
L 192.806736 78.359497 
L 192.849488 62.001859 
L 192.892144 84.554273 
L 192.934706 62.334018 
L 192.955952 62.18417 
L 192.977174 78.395434 
L 193.061828 63.622527 
L 193.082934 63.500813 
L 193.146111 89.487729 
L 193.188115 81.967359 
L 193.250947 85.062433 
L 193.313575 64.582609 
L 193.458917 95.443083 
L 193.500242 62.136339 
L 193.562063 64.95607 
L 193.644183 93.665886 
L 193.664658 82.307754 
L 193.766707 61.022028 
L 193.725952 85.937192 
L 193.787052 61.437371 
L 193.807375 61.088254 
L 193.827677 63.556985 
L 193.868217 91.827481 
L 193.928866 65.228199 
L 193.94904 70.502523 
L 193.989324 61.920294 
L 194.029524 65.373314 
L 194.049592 65.642649 
L 194.069639 63.825181 
L 194.089666 64.99666 
L 194.189486 83.761511 
L 194.24913 63.813641 
L 194.30859 65.39205 
L 194.348127 106.154685 
L 194.407281 64.566369 
L 194.426959 72.081283 
L 194.505468 75.9676 
L 194.544602 63.835952 
L 194.564139 65.076371 
L 194.583657 83.757955 
L 194.680947 74.257796 
L 194.739086 62.004452 
L 194.758427 63.800032 
L 194.777748 79.9142 
L 194.874062 72.753662 
L 194.893267 73.86242 
L 194.912453 85.453987 
L 194.969895 64.024776 
L 194.989005 62.694284 
L 195.008095 66.988793 
L 195.027167 70.097525 
L 195.084268 66.999792 
L 195.160139 63.305435 
L 195.197963 64.345592 
L 195.292196 77.815454 
L 195.310988 70.576713 
L 195.423352 62.959378 
L 195.442015 75.333569 
L 195.535061 75.050917 
L 195.664573 62.797872 
L 195.683004 64.297701 
L 195.774892 92.022697 
L 195.793217 73.580187 
L 195.848087 63.227643 
L 195.866342 63.975868 
L 195.88458 91.208026 
L 195.93919 63.172111 
L 195.975511 73.933847 
L 195.993646 75.29109 
L 196.011763 67.564684 
L 196.066013 81.403243 
L 196.084062 92.086552 
L 196.12011 66.688994 
L 196.138108 67.872421 
L 196.15609 67.058762 
L 196.174055 68.0218 
L 196.245747 83.260817 
L 196.263628 68.109655 
L 196.29934 63.097296 
L 196.334986 73.378743 
L 196.370566 66.305069 
L 196.406081 70.174517 
L 196.441529 64.576793 
L 196.529865 100.196891 
L 196.565086 77.710347 
L 196.652857 65.055841 
L 196.600243 80.447589 
L 196.670363 68.358621 
L 196.687853 93.980565 
L 196.775066 67.136852 
L 196.792461 64.475123 
L 196.80984 65.597567 
L 196.827203 79.555218 
L 196.913786 69.074323 
L 196.948311 64.34756 
L 196.982773 75.138395 
L 197.017173 68.094336 
L 197.068658 82.780898 
L 197.120006 69.719183 
L 197.205281 63.55365 
L 197.154162 84.12447 
L 197.239286 65.100607 
L 197.27323 89.719181 
L 197.340938 81.570503 
L 197.475644 62.955854 
L 197.626066 81.433955 
L 197.642707 76.333893 
L 197.659333 65.882439 
L 197.692543 83.973709 
L 197.758792 66.409567 
L 197.775318 65.068313 
L 197.808328 68.228351 
L 197.874179 93.404178 
L 197.841282 67.054784 
L 197.90702 68.079452 
L 197.939804 75.663683 
L 198.021522 65.497909 
L 198.054112 123.553286 
L 198.167742 64.496456 
L 198.183921 89.025824 
L 198.264608 65.738655 
L 198.393006 82.793318 
L 198.408995 69.043019 
L 198.456884 70.57117 
L 198.47282 66.43388 
L 198.488743 90.685726 
L 198.584006 66.7002 
L 198.599838 75.421963 
L 198.631461 65.280355 
L 198.678799 66.77002 
L 198.694552 64.424502 
L 198.741735 66.965794 
L 198.757436 74.981623 
L 198.788801 66.41579 
L 198.851378 72.472523 
L 198.866991 71.272437 
L 198.88259 72.815675 
L 198.929313 68.521209 
L 198.975923 84.611452 
L 199.037894 66.768034 
L 199.006933 84.806438 
L 199.084241 69.759167 
L 199.115077 86.221519 
L 199.176601 64.107542 
L 199.191951 64.919826 
L 199.222615 79.311697 
L 199.268518 64.296809 
L 199.29906 75.55052 
L 199.390394 65.523751 
L 199.359998 87.510994 
L 199.405575 66.9497 
L 199.420743 88.898864 
L 199.511502 80.040178 
L 199.541659 68.911639 
L 199.631849 73.593242 
L 199.64684 99.80114 
L 199.691742 68.349416 
L 199.736538 68.647374 
L 199.766345 65.708188 
L 199.796105 66.512057 
L 199.810968 83.613285 
L 199.855488 65.051995 
L 199.899905 68.050654 
L 199.958968 81.301494 
L 199.988431 67.631891 
L 200.003146 70.256536 
L 200.017849 66.91434 
L 200.047222 81.031492 
L 200.076551 67.679073 
L 200.105835 87.674942 
L 200.135074 66.584891 
L 200.178849 67.24518 
L 200.207977 65.493033 
L 200.222524 68.080303 
L 200.309579 89.886619 
L 200.324049 69.878074 
L 200.338509 67.68847 
L 200.367396 70.791412 
L 200.381823 68.459608 
L 200.42504 93.674576 
L 200.482511 81.799844 
L 200.582674 86.675844 
L 200.611196 65.478581 
L 200.625441 65.689427 
L 200.724863 83.172406 
L 200.739024 69.575773 
L 200.837861 65.298982 
L 200.781445 75.201696 
L 200.866006 66.39011 
L 200.894111 69.406861 
L 200.908148 66.058426 
L 200.922174 67.117169 
L 200.936191 87.208624 
L 201.03402 71.384762 
L 201.131353 83.870414 
L 201.117478 68.948529 
L 201.145217 77.20431 
L 201.200576 68.808137 
L 201.21439 90.331106 
L 201.228195 70.060641 
L 201.24199 87.481622 
L 201.338276 83.062442 
L 201.393081 66.986304 
L 201.461368 68.263358 
L 201.474997 80.814063 
L 201.502224 65.379169 
L 201.583676 78.888502 
L 201.637786 67.278551 
L 201.651289 69.355281 
L 201.664783 88.000401 
L 201.691743 69.067901 
L 201.758978 73.091387 
L 201.772396 69.979898 
L 201.799206 74.449135 
L 201.812596 93.15366 
L 201.879409 69.904379 
L 201.90607 80.431536 
L 201.959279 68.077001 
L 202.012342 69.27371 
L 202.10485 96.439894 
L 202.065259 66.844475 
L 202.11803 85.277589 
L 202.157513 69.450592 
L 202.170656 85.76554 
L 202.236236 69.591766 
L 202.301594 74.387122 
L 202.327674 67.782795 
L 202.340701 67.653635 
L 202.418679 107.574751 
L 202.457549 86.460506 
L 202.483419 68.308907 
L 202.547941 93.615177 
L 202.57369 69.027859 
L 202.650728 66.389705 
L 202.599404 78.182698 
L 202.663538 68.606317 
L 202.727459 95.660861 
L 202.791168 77.701868 
L 202.880006 68.924279 
L 202.829292 112.497556 
L 202.892664 72.130563 
L 202.981035 68.355837 
L 203.006209 90.737191 
L 203.106578 66.053341 
L 203.119087 67.352907 
L 203.156566 88.142102 
L 203.243733 75.989396 
L 203.318134 71.326296 
L 203.305754 94.079703 
L 203.34287 73.258472 
L 203.367575 93.944815 
L 203.453791 73.290036 
L 203.515138 66.714869 
L 203.478353 84.718688 
L 203.551852 70.642682 
L 203.649415 83.5141 
L 203.588496 69.091641 
L 203.661576 72.048977 
L 203.685874 67.978033 
L 203.698011 68.049106 
L 203.722263 97.145183 
L 203.806904 83.248633 
L 203.903182 69.673127 
L 203.855104 87.722127 
L 203.915183 81.273475 
L 203.927177 90.995356 
L 203.951141 69.812242 
L 204.010921 70.097715 
L 204.022855 68.44244 
L 204.034781 75.793043 
L 204.0467 70.901784 
L 204.082413 88.137184 
L 204.141786 67.132954 
L 204.153639 68.044315 
L 204.177322 98.688654 
L 204.224602 67.04752 
L 204.295303 90.503234 
L 204.400869 68.179783 
L 204.330556 90.893993 
L 204.42425 68.979395 
L 204.435929 67.836416 
L 204.459267 75.632116 
L 204.505858 121.038812 
L 204.552336 68.883477 
L 204.563938 68.994016 
L 204.587121 100.054336 
L 204.610276 68.460792 
L 204.679574 86.734389 
L 204.748622 70.602802 
L 204.760106 86.876064 
L 204.771583 78.773325 
L 204.783053 115.890818 
L 204.828866 68.689451 
L 204.874569 70.084798 
L 204.965651 81.280923 
L 204.920164 68.552101 
L 204.988354 74.289936 
L 205.01103 69.021804 
L 205.056302 80.564522 
L 205.078898 78.839487 
L 205.090186 78.994769 
L 205.146528 95.299642 
L 205.180253 67.881995 
L 205.202704 86.176303 
L 205.325716 69.835494 
L 205.347997 67.760007 
L 205.370253 72.848443 
L 205.403588 71.836855 
L 205.447945 86.299806 
L 205.481145 70.036724 
L 205.514289 71.937375 
L 205.525324 70.012196 
L 205.580404 106.796613 
L 205.602392 68.687631 
L 205.635326 78.208528 
L 205.722877 90.900583 
L 205.701027 71.389684 
L 205.733793 86.251751 
L 205.853458 70.204121 
L 205.8643 69.25616 
L 205.875136 76.805721 
L 205.885965 75.396478 
L 205.907606 95.461968 
L 205.950815 71.082823 
L 205.993926 82.397159 
L 206.069139 68.476679 
L 206.111986 72.878996 
L 206.122683 73.528561 
L 206.144059 71.845629 
L 206.154738 68.08 
L 206.176078 80.698209 
L 206.208044 77.492949 
L 206.229325 96.958989 
L 206.303623 69.363511 
L 206.377634 80.593667 
L 206.398728 73.342768 
L 206.493365 67.765598 
L 206.524807 103.016701 
L 206.650063 69.138526 
L 206.660464 70.916639 
L 206.691634 89.379321 
L 206.722753 69.479996 
L 206.774507 76.795933 
L 206.784841 76.358797 
L 206.836428 97.043877 
L 206.877598 70.773754 
L 206.898149 91.045633 
L 206.969908 69.974139 
L 206.949433 95.602674 
L 207.031203 73.087463 
L 207.132928 105.063884 
L 207.051591 70.591666 
L 207.153208 78.49121 
L 207.173467 72.198263 
L 207.213921 87.069648 
L 207.234116 76.52236 
L 207.324732 102.424953 
L 207.294574 73.274295 
L 207.344811 81.366615 
L 207.404922 69.635889 
L 207.384906 97.64676 
L 207.454871 72.598982 
L 207.544453 96.651741 
L 207.494737 71.666635 
L 207.564303 90.45832 
L 207.682977 71.232926 
L 207.692834 69.684253 
L 207.722373 79.813336 
L 207.732209 72.3069 
L 207.74204 88.207292 
L 207.781315 70.025071 
L 207.840076 79.696273 
L 207.908405 68.776072 
L 207.927882 87.158592 
L 207.937614 76.771565 
L 207.947341 87.797105 
L 208.024976 71.502798 
L 208.044336 76.086919 
L 208.054009 76.77892 
L 208.131215 99.660918 
L 208.092651 70.614441 
L 208.169702 87.089944 
L 208.208113 71.075894 
L 208.284703 72.980601 
L 208.313346 93.103001 
L 208.370503 72.091786 
L 208.389518 73.498492 
L 208.399018 69.927405 
L 208.418005 95.233723 
L 208.465389 74.475676 
L 208.522097 103.416678 
L 208.493764 70.37737 
L 208.578637 84.43391 
L 208.644391 71.082867 
L 208.625627 93.755373 
L 208.644391 71.082867 
" style="fill:none;stroke:#000000;stroke-linecap:square;stroke-width:0.8;"/>
   </g>
   <g id="line2d_46">
    <path clip-path="url(#pae9e1d0352)" d="M 62.296013 24.622458 
L 75.601263 21.638132 
L 83.384335 20.923469 
L 88.906513 21.137159 
L 93.189847 21.766404 
L 96.689586 22.572213 
L 99.648573 23.438721 
L 104.472658 25.157938 
L 109.994836 27.481989 
L 116.680729 30.628155 
L 125.560981 35.114817 
L 139.904074 42.661408 
L 178.870645 63.512 
L 208.653766 79.47945 
L 208.653766 79.47945 
" style="fill:none;stroke:#ff0000;stroke-linecap:square;stroke-width:2;"/>
   </g>
   <g id="patch_3">
    <path d="M 54.978125 128.92249 
L 54.978125 10.8 
" style="fill:none;stroke:#000000;stroke-linecap:square;stroke-linejoin:miter;stroke-width:0.8;"/>
   </g>
   <g id="patch_4">
    <path d="M 215.971654 128.92249 
L 215.971654 10.8 
" style="fill:none;stroke:#000000;stroke-linecap:square;stroke-linejoin:miter;stroke-width:0.8;"/>
   </g>
   <g id="patch_5">
    <path d="M 54.978125 128.92249 
L 215.971654 128.92249 
" style="fill:none;stroke:#000000;stroke-linecap:square;stroke-linejoin:miter;stroke-width:0.8;"/>
   </g>
   <g id="patch_6">
    <path d="M 54.978125 10.8 
L 215.971654 10.8 
" style="fill:none;stroke:#000000;stroke-linecap:square;stroke-linejoin:miter;stroke-width:0.8;"/>
   </g>
   <g id="legend_1">
    <g id="patch_7">
     <path d="M 61.978125 123.92249 
L 143.371875 123.92249 
Q 145.371875 123.92249 145.371875 121.92249 
L 145.371875 93.56624 
Q 145.371875 91.56624 143.371875 91.56624 
L 61.978125 91.56624 
Q 59.978125 91.56624 59.978125 93.56624 
L 59.978125 121.92249 
Q 59.978125 123.92249 61.978125 123.92249 
z
" style="fill:#ffffff;opacity:0.8;stroke:#cccccc;stroke-linejoin:miter;"/>
    </g>
    <g id="line2d_47">
     <path d="M 63.978125 99.664678 
L 83.978125 99.664678 
" style="fill:none;stroke:#000000;stroke-linecap:square;stroke-width:0.8;"/>
    </g>
    <g id="line2d_48"/>
    <g id="text_11">
     <!-- simulated -->
     <defs>
      <path d="M 9.421875 54.6875 
L 18.40625 54.6875 
L 18.40625 0 
L 9.421875 0 
z
M 9.421875 75.984375 
L 18.40625 75.984375 
L 18.40625 64.59375 
L 9.421875 64.59375 
z
" id="DejaVuSans-105"/>
      <path d="M 8.5 21.578125 
L 8.5 54.6875 
L 17.484375 54.6875 
L 17.484375 21.921875 
Q 17.484375 14.15625 20.5 10.265625 
Q 23.53125 6.390625 29.59375 6.390625 
Q 36.859375 6.390625 41.078125 11.03125 
Q 45.3125 15.671875 45.3125 23.6875 
L 45.3125 54.6875 
L 54.296875 54.6875 
L 54.296875 0 
L 45.3125 0 
L 45.3125 8.40625 
Q 42.046875 3.421875 37.71875 1 
Q 33.40625 -1.421875 27.6875 -1.421875 
Q 18.265625 -1.421875 13.375 4.4375 
Q 8.5 10.296875 8.5 21.578125 
z
M 31.109375 56 
z
" id="DejaVuSans-117"/>
      <path d="M 9.421875 75.984375 
L 18.40625 75.984375 
L 18.40625 0 
L 9.421875 0 
z
" id="DejaVuSans-108"/>
      <path d="M 34.28125 27.484375 
Q 23.390625 27.484375 19.1875 25 
Q 14.984375 22.515625 14.984375 16.5 
Q 14.984375 11.71875 18.140625 8.90625 
Q 21.296875 6.109375 26.703125 6.109375 
Q 34.1875 6.109375 38.703125 11.40625 
Q 43.21875 16.703125 43.21875 25.484375 
L 43.21875 27.484375 
z
M 52.203125 31.203125 
L 52.203125 0 
L 43.21875 0 
L 43.21875 8.296875 
Q 40.140625 3.328125 35.546875 0.953125 
Q 30.953125 -1.421875 24.3125 -1.421875 
Q 15.921875 -1.421875 10.953125 3.296875 
Q 6 8.015625 6 15.921875 
Q 6 25.140625 12.171875 29.828125 
Q 18.359375 34.515625 30.609375 34.515625 
L 43.21875 34.515625 
L 43.21875 35.40625 
Q 43.21875 41.609375 39.140625 45 
Q 35.0625 48.390625 27.6875 48.390625 
Q 23 48.390625 18.546875 47.265625 
Q 14.109375 46.140625 10.015625 43.890625 
L 10.015625 52.203125 
Q 14.9375 54.109375 19.578125 55.046875 
Q 24.21875 56 28.609375 56 
Q 40.484375 56 46.34375 49.84375 
Q 52.203125 43.703125 52.203125 31.203125 
z
" id="DejaVuSans-97"/>
      <path d="M 18.3125 70.21875 
L 18.3125 54.6875 
L 36.8125 54.6875 
L 36.8125 47.703125 
L 18.3125 47.703125 
L 18.3125 18.015625 
Q 18.3125 11.328125 20.140625 9.421875 
Q 21.96875 7.515625 27.59375 7.515625 
L 36.8125 7.515625 
L 36.8125 0 
L 27.59375 0 
Q 17.1875 0 13.234375 3.875 
Q 9.28125 7.765625 9.28125 18.015625 
L 9.28125 47.703125 
L 2.6875 47.703125 
L 2.6875 54.6875 
L 9.28125 54.6875 
L 9.28125 70.21875 
z
" id="DejaVuSans-116"/>
      <path d="M 56.203125 29.59375 
L 56.203125 25.203125 
L 14.890625 25.203125 
Q 15.484375 15.921875 20.484375 11.0625 
Q 25.484375 6.203125 34.421875 6.203125 
Q 39.59375 6.203125 44.453125 7.46875 
Q 49.3125 8.734375 54.109375 11.28125 
L 54.109375 2.78125 
Q 49.265625 0.734375 44.1875 -0.34375 
Q 39.109375 -1.421875 33.890625 -1.421875 
Q 20.796875 -1.421875 13.15625 6.1875 
Q 5.515625 13.8125 5.515625 26.8125 
Q 5.515625 40.234375 12.765625 48.109375 
Q 20.015625 56 32.328125 56 
Q 43.359375 56 49.78125 48.890625 
Q 56.203125 41.796875 56.203125 29.59375 
z
M 47.21875 32.234375 
Q 47.125 39.59375 43.09375 43.984375 
Q 39.0625 48.390625 32.421875 48.390625 
Q 24.90625 48.390625 20.390625 44.140625 
Q 15.875 39.890625 15.1875 32.171875 
z
" id="DejaVuSans-101"/>
      <path d="M 45.40625 46.390625 
L 45.40625 75.984375 
L 54.390625 75.984375 
L 54.390625 0 
L 45.40625 0 
L 45.40625 8.203125 
Q 42.578125 3.328125 38.25 0.953125 
Q 33.9375 -1.421875 27.875 -1.421875 
Q 17.96875 -1.421875 11.734375 6.484375 
Q 5.515625 14.40625 5.515625 27.296875 
Q 5.515625 40.1875 11.734375 48.09375 
Q 17.96875 56 27.875 56 
Q 33.9375 56 38.25 53.625 
Q 42.578125 51.265625 45.40625 46.390625 
z
M 14.796875 27.296875 
Q 14.796875 17.390625 18.875 11.75 
Q 22.953125 6.109375 30.078125 6.109375 
Q 37.203125 6.109375 41.296875 11.75 
Q 45.40625 17.390625 45.40625 27.296875 
Q 45.40625 37.203125 41.296875 42.84375 
Q 37.203125 48.484375 30.078125 48.484375 
Q 22.953125 48.484375 18.875 42.84375 
Q 14.796875 37.203125 14.796875 27.296875 
z
" id="DejaVuSans-100"/>
     </defs>
     <g transform="translate(91.978125 103.164678)scale(0.1 -0.1)">
      <use xlink:href="#DejaVuSans-115"/>
      <use x="52.099609" xlink:href="#DejaVuSans-105"/>
      <use x="79.882812" xlink:href="#DejaVuSans-109"/>
      <use x="177.294922" xlink:href="#DejaVuSans-117"/>
      <use x="240.673828" xlink:href="#DejaVuSans-108"/>
      <use x="268.457031" xlink:href="#DejaVuSans-97"/>
      <use x="329.736328" xlink:href="#DejaVuSans-116"/>
      <use x="368.945312" xlink:href="#DejaVuSans-101"/>
      <use x="430.46875" xlink:href="#DejaVuSans-100"/>
     </g>
    </g>
    <g id="line2d_49">
     <path d="M 63.978125 114.342803 
L 83.978125 114.342803 
" style="fill:none;stroke:#ff0000;stroke-linecap:square;stroke-width:2;"/>
    </g>
    <g id="line2d_50"/>
    <g id="text_12">
     <!-- target -->
     <defs>
      <path d="M 41.109375 46.296875 
Q 39.59375 47.171875 37.8125 47.578125 
Q 36.03125 48 33.890625 48 
Q 26.265625 48 22.1875 43.046875 
Q 18.109375 38.09375 18.109375 28.8125 
L 18.109375 0 
L 9.078125 0 
L 9.078125 54.6875 
L 18.109375 54.6875 
L 18.109375 46.1875 
Q 20.953125 51.171875 25.484375 53.578125 
Q 30.03125 56 36.53125 56 
Q 37.453125 56 38.578125 55.875 
Q 39.703125 55.765625 41.0625 55.515625 
z
" id="DejaVuSans-114"/>
      <path d="M 45.40625 27.984375 
Q 45.40625 37.75 41.375 43.109375 
Q 37.359375 48.484375 30.078125 48.484375 
Q 22.859375 48.484375 18.828125 43.109375 
Q 14.796875 37.75 14.796875 27.984375 
Q 14.796875 18.265625 18.828125 12.890625 
Q 22.859375 7.515625 30.078125 7.515625 
Q 37.359375 7.515625 41.375 12.890625 
Q 45.40625 18.265625 45.40625 27.984375 
z
M 54.390625 6.78125 
Q 54.390625 -7.171875 48.1875 -13.984375 
Q 42 -20.796875 29.203125 -20.796875 
Q 24.46875 -20.796875 20.265625 -20.09375 
Q 16.0625 -19.390625 12.109375 -17.921875 
L 12.109375 -9.1875 
Q 16.0625 -11.328125 19.921875 -12.34375 
Q 23.78125 -13.375 27.78125 -13.375 
Q 36.625 -13.375 41.015625 -8.765625 
Q 45.40625 -4.15625 45.40625 5.171875 
L 45.40625 9.625 
Q 42.625 4.78125 38.28125 2.390625 
Q 33.9375 0 27.875 0 
Q 17.828125 0 11.671875 7.65625 
Q 5.515625 15.328125 5.515625 27.984375 
Q 5.515625 40.671875 11.671875 48.328125 
Q 17.828125 56 27.875 56 
Q 33.9375 56 38.28125 53.609375 
Q 42.625 51.21875 45.40625 46.390625 
L 45.40625 54.6875 
L 54.390625 54.6875 
z
" id="DejaVuSans-103"/>
     </defs>
     <g transform="translate(91.978125 117.842803)scale(0.1 -0.1)">
      <use xlink:href="#DejaVuSans-116"/>
      <use x="39.208984" xlink:href="#DejaVuSans-97"/>
      <use x="100.488281" xlink:href="#DejaVuSans-114"/>
      <use x="141.585938" xlink:href="#DejaVuSans-103"/>
      <use x="205.0625" xlink:href="#DejaVuSans-101"/>
      <use x="266.585938" xlink:href="#DejaVuSans-116"/>
     </g>
    </g>
   </g>
  </g>
 </g>
 <defs>
  <clipPath id="pae9e1d0352">
   <rect height="118.12249" width="160.993529" x="54.978125" y="10.8"/>
  </clipPath>
 </defs>
</svg>
