<?xml version="1.0" encoding="utf-8" standalone="no"?>
<!DOCTYPE svg PUBLIC "-//W3C//DTD SVG 1.1//EN"
  "http://www.w3.org/Graphics/SVG/1.1/DTD/svg11.dtd">
<!-- Created with matplotlib (https://matplotlib.org/) -->
<svg height="170.07874pt" version="1.1" viewBox="0 0 226.771654 170.07874" width="226.771654pt" xmlns="http://www.w3.org/2000/svg" xmlns:xlink="http://www.w3.org/1999/xlink">
 <defs>
  <style type="text/css">
*{stroke-linecap:butt;stroke-linejoin:round;}
  </style>
 </defs>
 <g id="figure_1">
  <g id="patch_1">
   <path d="M 0 170.07874 
L 226.771654 170.07874 
L 226.771654 0 
L 0 0 
z
" style="fill:#ffffff;"/>
  </g>
  <g id="axes_1">
   <g id="patch_2">
    <path d="M 54.978125 128.92249 
L 215.971654 128.92249 
L 215.971654 11.549244 
L 54.978125 11.549244 
z
" style="fill:#ffffff;"/>
   </g>
   <g id="matplotlib.axis_1">
    <g id="xtick_1">
     <g id="line2d_1">
      <path clip-path="url(#pf31783bcd8)" d="M 62.751261 128.92249 
L 62.751261 11.549244 
" style="fill:none;stroke:#b0b0b0;stroke-linecap:square;stroke-width:0.8;"/>
     </g>
     <g id="line2d_2">
      <defs>
       <path d="M 0 0 
L 0 3.5 
" id="mc697bfe1ae" style="stroke:#000000;stroke-width:0.8;"/>
      </defs>
      <g>
       <use style="stroke:#000000;stroke-width:0.8;" x="62.751261" xlink:href="#mc697bfe1ae" y="128.92249"/>
      </g>
     </g>
     <g id="text_1">
      <!-- $\mathdefault{10^{-3}}$ -->
      <defs>
       <path d="M 12.40625 8.296875 
L 28.515625 8.296875 
L 28.515625 63.921875 
L 10.984375 60.40625 
L 10.984375 69.390625 
L 28.421875 72.90625 
L 38.28125 72.90625 
L 38.28125 8.296875 
L 54.390625 8.296875 
L 54.390625 0 
L 12.40625 0 
z
" id="DejaVuSans-49"/>
       <path d="M 31.78125 66.40625 
Q 24.171875 66.40625 20.328125 58.90625 
Q 16.5 51.421875 16.5 36.375 
Q 16.5 21.390625 20.328125 13.890625 
Q 24.171875 6.390625 31.78125 6.390625 
Q 39.453125 6.390625 43.28125 13.890625 
Q 47.125 21.390625 47.125 36.375 
Q 47.125 51.421875 43.28125 58.90625 
Q 39.453125 66.40625 31.78125 66.40625 
z
M 31.78125 74.21875 
Q 44.046875 74.21875 50.515625 64.515625 
Q 56.984375 54.828125 56.984375 36.375 
Q 56.984375 17.96875 50.515625 8.265625 
Q 44.046875 -1.421875 31.78125 -1.421875 
Q 19.53125 -1.421875 13.0625 8.265625 
Q 6.59375 17.96875 6.59375 36.375 
Q 6.59375 54.828125 13.0625 64.515625 
Q 19.53125 74.21875 31.78125 74.21875 
z
" id="DejaVuSans-48"/>
       <path d="M 10.59375 35.5 
L 73.1875 35.5 
L 73.1875 27.203125 
L 10.59375 27.203125 
z
" id="DejaVuSans-8722"/>
       <path d="M 40.578125 39.3125 
Q 47.65625 37.796875 51.625 33 
Q 55.609375 28.21875 55.609375 21.1875 
Q 55.609375 10.40625 48.1875 4.484375 
Q 40.765625 -1.421875 27.09375 -1.421875 
Q 22.515625 -1.421875 17.65625 -0.515625 
Q 12.796875 0.390625 7.625 2.203125 
L 7.625 11.71875 
Q 11.71875 9.328125 16.59375 8.109375 
Q 21.484375 6.890625 26.8125 6.890625 
Q 36.078125 6.890625 40.9375 10.546875 
Q 45.796875 14.203125 45.796875 21.1875 
Q 45.796875 27.640625 41.28125 31.265625 
Q 36.765625 34.90625 28.71875 34.90625 
L 20.21875 34.90625 
L 20.21875 43.015625 
L 29.109375 43.015625 
Q 36.375 43.015625 40.234375 45.921875 
Q 44.09375 48.828125 44.09375 54.296875 
Q 44.09375 59.90625 40.109375 62.90625 
Q 36.140625 65.921875 28.71875 65.921875 
Q 24.65625 65.921875 20.015625 65.03125 
Q 15.375 64.15625 9.8125 62.3125 
L 9.8125 71.09375 
Q 15.4375 72.65625 20.34375 73.4375 
Q 25.25 74.21875 29.59375 74.21875 
Q 40.828125 74.21875 47.359375 69.109375 
Q 53.90625 64.015625 53.90625 55.328125 
Q 53.90625 49.265625 50.4375 45.09375 
Q 46.96875 40.921875 40.578125 39.3125 
z
" id="DejaVuSans-51"/>
      </defs>
      <g transform="translate(51.001261 143.520928)scale(0.1 -0.1)">
       <use transform="translate(0 0.765625)" xlink:href="#DejaVuSans-49"/>
       <use transform="translate(63.623047 0.765625)" xlink:href="#DejaVuSans-48"/>
       <use transform="translate(128.203125 39.046875)scale(0.7)" xlink:href="#DejaVuSans-8722"/>
       <use transform="translate(186.855469 39.046875)scale(0.7)" xlink:href="#DejaVuSans-51"/>
      </g>
     </g>
    </g>
    <g id="xtick_2">
     <g id="line2d_3">
      <path clip-path="url(#pf31783bcd8)" d="M 106.950346 128.92249 
L 106.950346 11.549244 
" style="fill:none;stroke:#b0b0b0;stroke-linecap:square;stroke-width:0.8;"/>
     </g>
     <g id="line2d_4">
      <g>
       <use style="stroke:#000000;stroke-width:0.8;" x="106.950346" xlink:href="#mc697bfe1ae" y="128.92249"/>
      </g>
     </g>
     <g id="text_2">
      <!-- $\mathdefault{10^{-2}}$ -->
      <defs>
       <path d="M 19.1875 8.296875 
L 53.609375 8.296875 
L 53.609375 0 
L 7.328125 0 
L 7.328125 8.296875 
Q 12.9375 14.109375 22.625 23.890625 
Q 32.328125 33.6875 34.8125 36.53125 
Q 39.546875 41.84375 41.421875 45.53125 
Q 43.3125 49.21875 43.3125 52.78125 
Q 43.3125 58.59375 39.234375 62.25 
Q 35.15625 65.921875 28.609375 65.921875 
Q 23.96875 65.921875 18.8125 64.3125 
Q 13.671875 62.703125 7.8125 59.421875 
L 7.8125 69.390625 
Q 13.765625 71.78125 18.9375 73 
Q 24.125 74.21875 28.421875 74.21875 
Q 39.75 74.21875 46.484375 68.546875 
Q 53.21875 62.890625 53.21875 53.421875 
Q 53.21875 48.921875 51.53125 44.890625 
Q 49.859375 40.875 45.40625 35.40625 
Q 44.1875 33.984375 37.640625 27.21875 
Q 31.109375 20.453125 19.1875 8.296875 
z
" id="DejaVuSans-50"/>
      </defs>
      <g transform="translate(95.200346 143.520928)scale(0.1 -0.1)">
       <use transform="translate(0 0.765625)" xlink:href="#DejaVuSans-49"/>
       <use transform="translate(63.623047 0.765625)" xlink:href="#DejaVuSans-48"/>
       <use transform="translate(128.203125 39.046875)scale(0.7)" xlink:href="#DejaVuSans-8722"/>
       <use transform="translate(186.855469 39.046875)scale(0.7)" xlink:href="#DejaVuSans-50"/>
      </g>
     </g>
    </g>
    <g id="xtick_3">
     <g id="line2d_5">
      <path clip-path="url(#pf31783bcd8)" d="M 151.149431 128.92249 
L 151.149431 11.549244 
" style="fill:none;stroke:#b0b0b0;stroke-linecap:square;stroke-width:0.8;"/>
     </g>
     <g id="line2d_6">
      <g>
       <use style="stroke:#000000;stroke-width:0.8;" x="151.149431" xlink:href="#mc697bfe1ae" y="128.92249"/>
      </g>
     </g>
     <g id="text_3">
      <!-- $\mathdefault{10^{-1}}$ -->
      <g transform="translate(139.399431 143.520928)scale(0.1 -0.1)">
       <use transform="translate(0 0.684375)" xlink:href="#DejaVuSans-49"/>
       <use transform="translate(63.623047 0.684375)" xlink:href="#DejaVuSans-48"/>
       <use transform="translate(128.203125 38.965625)scale(0.7)" xlink:href="#DejaVuSans-8722"/>
       <use transform="translate(186.855469 38.965625)scale(0.7)" xlink:href="#DejaVuSans-49"/>
      </g>
     </g>
    </g>
    <g id="xtick_4">
     <g id="line2d_7">
      <path clip-path="url(#pf31783bcd8)" d="M 195.348516 128.92249 
L 195.348516 11.549244 
" style="fill:none;stroke:#b0b0b0;stroke-linecap:square;stroke-width:0.8;"/>
     </g>
     <g id="line2d_8">
      <g>
       <use style="stroke:#000000;stroke-width:0.8;" x="195.348516" xlink:href="#mc697bfe1ae" y="128.92249"/>
      </g>
     </g>
     <g id="text_4">
      <!-- $\mathdefault{10^{0}}$ -->
      <g transform="translate(186.548516 143.520928)scale(0.1 -0.1)">
       <use transform="translate(0 0.765625)" xlink:href="#DejaVuSans-49"/>
       <use transform="translate(63.623047 0.765625)" xlink:href="#DejaVuSans-48"/>
       <use transform="translate(128.203125 39.046875)scale(0.7)" xlink:href="#DejaVuSans-48"/>
      </g>
     </g>
    </g>
    <g id="xtick_5">
     <g id="line2d_9">
      <defs>
       <path d="M 0 0 
L 0 2 
" id="m6af916266c" style="stroke:#000000;stroke-width:0.6;"/>
      </defs>
      <g>
       <use style="stroke:#000000;stroke-width:0.6;" x="55.904736" xlink:href="#m6af916266c" y="128.92249"/>
      </g>
     </g>
    </g>
    <g id="xtick_6">
     <g id="line2d_10">
      <g>
       <use style="stroke:#000000;stroke-width:0.6;" x="58.467927" xlink:href="#m6af916266c" y="128.92249"/>
      </g>
     </g>
    </g>
    <g id="xtick_7">
     <g id="line2d_11">
      <g>
       <use style="stroke:#000000;stroke-width:0.6;" x="60.728822" xlink:href="#m6af916266c" y="128.92249"/>
      </g>
     </g>
    </g>
    <g id="xtick_8">
     <g id="line2d_12">
      <g>
       <use style="stroke:#000000;stroke-width:0.6;" x="76.056512" xlink:href="#m6af916266c" y="128.92249"/>
      </g>
     </g>
    </g>
    <g id="xtick_9">
     <g id="line2d_13">
      <g>
       <use style="stroke:#000000;stroke-width:0.6;" x="83.839584" xlink:href="#m6af916266c" y="128.92249"/>
      </g>
     </g>
    </g>
    <g id="xtick_10">
     <g id="line2d_14">
      <g>
       <use style="stroke:#000000;stroke-width:0.6;" x="89.361762" xlink:href="#m6af916266c" y="128.92249"/>
      </g>
     </g>
    </g>
    <g id="xtick_11">
     <g id="line2d_15">
      <g>
       <use style="stroke:#000000;stroke-width:0.6;" x="93.645096" xlink:href="#m6af916266c" y="128.92249"/>
      </g>
     </g>
    </g>
    <g id="xtick_12">
     <g id="line2d_16">
      <g>
       <use style="stroke:#000000;stroke-width:0.6;" x="97.144834" xlink:href="#m6af916266c" y="128.92249"/>
      </g>
     </g>
    </g>
    <g id="xtick_13">
     <g id="line2d_17">
      <g>
       <use style="stroke:#000000;stroke-width:0.6;" x="100.103821" xlink:href="#m6af916266c" y="128.92249"/>
      </g>
     </g>
    </g>
    <g id="xtick_14">
     <g id="line2d_18">
      <g>
       <use style="stroke:#000000;stroke-width:0.6;" x="102.667012" xlink:href="#m6af916266c" y="128.92249"/>
      </g>
     </g>
    </g>
    <g id="xtick_15">
     <g id="line2d_19">
      <g>
       <use style="stroke:#000000;stroke-width:0.6;" x="104.927907" xlink:href="#m6af916266c" y="128.92249"/>
      </g>
     </g>
    </g>
    <g id="xtick_16">
     <g id="line2d_20">
      <g>
       <use style="stroke:#000000;stroke-width:0.6;" x="120.255596" xlink:href="#m6af916266c" y="128.92249"/>
      </g>
     </g>
    </g>
    <g id="xtick_17">
     <g id="line2d_21">
      <g>
       <use style="stroke:#000000;stroke-width:0.6;" x="128.038669" xlink:href="#m6af916266c" y="128.92249"/>
      </g>
     </g>
    </g>
    <g id="xtick_18">
     <g id="line2d_22">
      <g>
       <use style="stroke:#000000;stroke-width:0.6;" x="133.560847" xlink:href="#m6af916266c" y="128.92249"/>
      </g>
     </g>
    </g>
    <g id="xtick_19">
     <g id="line2d_23">
      <g>
       <use style="stroke:#000000;stroke-width:0.6;" x="137.844181" xlink:href="#m6af916266c" y="128.92249"/>
      </g>
     </g>
    </g>
    <g id="xtick_20">
     <g id="line2d_24">
      <g>
       <use style="stroke:#000000;stroke-width:0.6;" x="141.343919" xlink:href="#m6af916266c" y="128.92249"/>
      </g>
     </g>
    </g>
    <g id="xtick_21">
     <g id="line2d_25">
      <g>
       <use style="stroke:#000000;stroke-width:0.6;" x="144.302906" xlink:href="#m6af916266c" y="128.92249"/>
      </g>
     </g>
    </g>
    <g id="xtick_22">
     <g id="line2d_26">
      <g>
       <use style="stroke:#000000;stroke-width:0.6;" x="146.866097" xlink:href="#m6af916266c" y="128.92249"/>
      </g>
     </g>
    </g>
    <g id="xtick_23">
     <g id="line2d_27">
      <g>
       <use style="stroke:#000000;stroke-width:0.6;" x="149.126992" xlink:href="#m6af916266c" y="128.92249"/>
      </g>
     </g>
    </g>
    <g id="xtick_24">
     <g id="line2d_28">
      <g>
       <use style="stroke:#000000;stroke-width:0.6;" x="164.454681" xlink:href="#m6af916266c" y="128.92249"/>
      </g>
     </g>
    </g>
    <g id="xtick_25">
     <g id="line2d_29">
      <g>
       <use style="stroke:#000000;stroke-width:0.6;" x="172.237754" xlink:href="#m6af916266c" y="128.92249"/>
      </g>
     </g>
    </g>
    <g id="xtick_26">
     <g id="line2d_30">
      <g>
       <use style="stroke:#000000;stroke-width:0.6;" x="177.759931" xlink:href="#m6af916266c" y="128.92249"/>
      </g>
     </g>
    </g>
    <g id="xtick_27">
     <g id="line2d_31">
      <g>
       <use style="stroke:#000000;stroke-width:0.6;" x="182.043265" xlink:href="#m6af916266c" y="128.92249"/>
      </g>
     </g>
    </g>
    <g id="xtick_28">
     <g id="line2d_32">
      <g>
       <use style="stroke:#000000;stroke-width:0.6;" x="185.543004" xlink:href="#m6af916266c" y="128.92249"/>
      </g>
     </g>
    </g>
    <g id="xtick_29">
     <g id="line2d_33">
      <g>
       <use style="stroke:#000000;stroke-width:0.6;" x="188.501991" xlink:href="#m6af916266c" y="128.92249"/>
      </g>
     </g>
    </g>
    <g id="xtick_30">
     <g id="line2d_34">
      <g>
       <use style="stroke:#000000;stroke-width:0.6;" x="191.065182" xlink:href="#m6af916266c" y="128.92249"/>
      </g>
     </g>
    </g>
    <g id="xtick_31">
     <g id="line2d_35">
      <g>
       <use style="stroke:#000000;stroke-width:0.6;" x="193.326076" xlink:href="#m6af916266c" y="128.92249"/>
      </g>
     </g>
    </g>
    <g id="xtick_32">
     <g id="line2d_36">
      <g>
       <use style="stroke:#000000;stroke-width:0.6;" x="208.653766" xlink:href="#m6af916266c" y="128.92249"/>
      </g>
     </g>
    </g>
    <g id="text_5">
     <!-- f (Hz) -->
     <defs>
      <path d="M 37.109375 75.984375 
L 37.109375 68.5 
L 28.515625 68.5 
Q 23.6875 68.5 21.796875 66.546875 
Q 19.921875 64.59375 19.921875 59.515625 
L 19.921875 54.6875 
L 34.71875 54.6875 
L 34.71875 47.703125 
L 19.921875 47.703125 
L 19.921875 0 
L 10.890625 0 
L 10.890625 47.703125 
L 2.296875 47.703125 
L 2.296875 54.6875 
L 10.890625 54.6875 
L 10.890625 58.5 
Q 10.890625 67.625 15.140625 71.796875 
Q 19.390625 75.984375 28.609375 75.984375 
z
" id="DejaVuSans-102"/>
      <path id="DejaVuSans-32"/>
      <path d="M 31 75.875 
Q 24.46875 64.65625 21.28125 53.65625 
Q 18.109375 42.671875 18.109375 31.390625 
Q 18.109375 20.125 21.3125 9.0625 
Q 24.515625 -2 31 -13.1875 
L 23.1875 -13.1875 
Q 15.875 -1.703125 12.234375 9.375 
Q 8.59375 20.453125 8.59375 31.390625 
Q 8.59375 42.28125 12.203125 53.3125 
Q 15.828125 64.359375 23.1875 75.875 
z
" id="DejaVuSans-40"/>
      <path d="M 9.8125 72.90625 
L 19.671875 72.90625 
L 19.671875 43.015625 
L 55.515625 43.015625 
L 55.515625 72.90625 
L 65.375 72.90625 
L 65.375 0 
L 55.515625 0 
L 55.515625 34.71875 
L 19.671875 34.71875 
L 19.671875 0 
L 9.8125 0 
z
" id="DejaVuSans-72"/>
      <path d="M 5.515625 54.6875 
L 48.1875 54.6875 
L 48.1875 46.484375 
L 14.40625 7.171875 
L 48.1875 7.171875 
L 48.1875 0 
L 4.296875 0 
L 4.296875 8.203125 
L 38.09375 47.515625 
L 5.515625 47.515625 
z
" id="DejaVuSans-122"/>
      <path d="M 8.015625 75.875 
L 15.828125 75.875 
Q 23.140625 64.359375 26.78125 53.3125 
Q 30.421875 42.28125 30.421875 31.390625 
Q 30.421875 20.453125 26.78125 9.375 
Q 23.140625 -1.703125 15.828125 -13.1875 
L 8.015625 -13.1875 
Q 14.5 -2 17.703125 9.0625 
Q 20.90625 20.125 20.90625 31.390625 
Q 20.90625 42.671875 17.703125 53.65625 
Q 14.5 64.65625 8.015625 75.875 
z
" id="DejaVuSans-41"/>
     </defs>
     <g transform="translate(121.839733 157.199053)scale(0.1 -0.1)">
      <use xlink:href="#DejaVuSans-102"/>
      <use x="35.205078" xlink:href="#DejaVuSans-32"/>
      <use x="66.992188" xlink:href="#DejaVuSans-40"/>
      <use x="106.005859" xlink:href="#DejaVuSans-72"/>
      <use x="181.201172" xlink:href="#DejaVuSans-122"/>
      <use x="233.691406" xlink:href="#DejaVuSans-41"/>
     </g>
    </g>
   </g>
   <g id="matplotlib.axis_2">
    <g id="ytick_1">
     <g id="line2d_37">
      <path clip-path="url(#pf31783bcd8)" d="M 54.978125 109.892875 
L 215.971654 109.892875 
" style="fill:none;stroke:#b0b0b0;stroke-linecap:square;stroke-width:0.8;"/>
     </g>
     <g id="line2d_38">
      <defs>
       <path d="M 0 0 
L -3.5 0 
" id="m8904bcfa53" style="stroke:#000000;stroke-width:0.8;"/>
      </defs>
      <g>
       <use style="stroke:#000000;stroke-width:0.8;" x="54.978125" xlink:href="#m8904bcfa53" y="109.892875"/>
      </g>
     </g>
     <g id="text_6">
      <!-- $\mathdefault{10^{-3}}$ -->
      <g transform="translate(24.478125 113.692094)scale(0.1 -0.1)">
       <use transform="translate(0 0.765625)" xlink:href="#DejaVuSans-49"/>
       <use transform="translate(63.623047 0.765625)" xlink:href="#DejaVuSans-48"/>
       <use transform="translate(128.203125 39.046875)scale(0.7)" xlink:href="#DejaVuSans-8722"/>
       <use transform="translate(186.855469 39.046875)scale(0.7)" xlink:href="#DejaVuSans-51"/>
      </g>
     </g>
    </g>
    <g id="ytick_2">
     <g id="line2d_39">
      <path clip-path="url(#pf31783bcd8)" d="M 54.978125 78.022843 
L 215.971654 78.022843 
" style="fill:none;stroke:#b0b0b0;stroke-linecap:square;stroke-width:0.8;"/>
     </g>
     <g id="line2d_40">
      <g>
       <use style="stroke:#000000;stroke-width:0.8;" x="54.978125" xlink:href="#m8904bcfa53" y="78.022843"/>
      </g>
     </g>
     <g id="text_7">
      <!-- $\mathdefault{10^{-1}}$ -->
      <g transform="translate(24.478125 81.822062)scale(0.1 -0.1)">
       <use transform="translate(0 0.684375)" xlink:href="#DejaVuSans-49"/>
       <use transform="translate(63.623047 0.684375)" xlink:href="#DejaVuSans-48"/>
       <use transform="translate(128.203125 38.965625)scale(0.7)" xlink:href="#DejaVuSans-8722"/>
       <use transform="translate(186.855469 38.965625)scale(0.7)" xlink:href="#DejaVuSans-49"/>
      </g>
     </g>
    </g>
    <g id="ytick_3">
     <g id="line2d_41">
      <path clip-path="url(#pf31783bcd8)" d="M 54.978125 46.152811 
L 215.971654 46.152811 
" style="fill:none;stroke:#b0b0b0;stroke-linecap:square;stroke-width:0.8;"/>
     </g>
     <g id="line2d_42">
      <g>
       <use style="stroke:#000000;stroke-width:0.8;" x="54.978125" xlink:href="#m8904bcfa53" y="46.152811"/>
      </g>
     </g>
     <g id="text_8">
      <!-- $\mathdefault{10^{1}}$ -->
      <g transform="translate(30.378125 49.95203)scale(0.1 -0.1)">
       <use transform="translate(0 0.684375)" xlink:href="#DejaVuSans-49"/>
       <use transform="translate(63.623047 0.684375)" xlink:href="#DejaVuSans-48"/>
       <use transform="translate(128.203125 38.965625)scale(0.7)" xlink:href="#DejaVuSans-49"/>
      </g>
     </g>
    </g>
    <g id="ytick_4">
     <g id="line2d_43">
      <path clip-path="url(#pf31783bcd8)" d="M 54.978125 14.282779 
L 215.971654 14.282779 
" style="fill:none;stroke:#b0b0b0;stroke-linecap:square;stroke-width:0.8;"/>
     </g>
     <g id="line2d_44">
      <g>
       <use style="stroke:#000000;stroke-width:0.8;" x="54.978125" xlink:href="#m8904bcfa53" y="14.282779"/>
      </g>
     </g>
     <g id="text_9">
      <!-- $\mathdefault{10^{3}}$ -->
      <g transform="translate(30.378125 18.081998)scale(0.1 -0.1)">
       <use transform="translate(0 0.765625)" xlink:href="#DejaVuSans-49"/>
       <use transform="translate(63.623047 0.765625)" xlink:href="#DejaVuSans-48"/>
       <use transform="translate(128.203125 39.046875)scale(0.7)" xlink:href="#DejaVuSans-51"/>
      </g>
     </g>
    </g>
    <g id="text_10">
     <!-- S(f) (m^2/s) -->
     <defs>
      <path d="M 53.515625 70.515625 
L 53.515625 60.890625 
Q 47.90625 63.578125 42.921875 64.890625 
Q 37.9375 66.21875 33.296875 66.21875 
Q 25.25 66.21875 20.875 63.09375 
Q 16.5 59.96875 16.5 54.203125 
Q 16.5 49.359375 19.40625 46.890625 
Q 22.3125 44.4375 30.421875 42.921875 
L 36.375 41.703125 
Q 47.40625 39.59375 52.65625 34.296875 
Q 57.90625 29 57.90625 20.125 
Q 57.90625 9.515625 50.796875 4.046875 
Q 43.703125 -1.421875 29.984375 -1.421875 
Q 24.8125 -1.421875 18.96875 -0.25 
Q 13.140625 0.921875 6.890625 3.21875 
L 6.890625 13.375 
Q 12.890625 10.015625 18.65625 8.296875 
Q 24.421875 6.59375 29.984375 6.59375 
Q 38.421875 6.59375 43.015625 9.90625 
Q 47.609375 13.234375 47.609375 19.390625 
Q 47.609375 24.75 44.3125 27.78125 
Q 41.015625 30.8125 33.5 32.328125 
L 27.484375 33.5 
Q 16.453125 35.6875 11.515625 40.375 
Q 6.59375 45.0625 6.59375 53.421875 
Q 6.59375 63.09375 13.40625 68.65625 
Q 20.21875 74.21875 32.171875 74.21875 
Q 37.3125 74.21875 42.625 73.28125 
Q 47.953125 72.359375 53.515625 70.515625 
z
" id="DejaVuSans-83"/>
      <path d="M 52 44.1875 
Q 55.375 50.25 60.0625 53.125 
Q 64.75 56 71.09375 56 
Q 79.640625 56 84.28125 50.015625 
Q 88.921875 44.046875 88.921875 33.015625 
L 88.921875 0 
L 79.890625 0 
L 79.890625 32.71875 
Q 79.890625 40.578125 77.09375 44.375 
Q 74.3125 48.1875 68.609375 48.1875 
Q 61.625 48.1875 57.5625 43.546875 
Q 53.515625 38.921875 53.515625 30.90625 
L 53.515625 0 
L 44.484375 0 
L 44.484375 32.71875 
Q 44.484375 40.625 41.703125 44.40625 
Q 38.921875 48.1875 33.109375 48.1875 
Q 26.21875 48.1875 22.15625 43.53125 
Q 18.109375 38.875 18.109375 30.90625 
L 18.109375 0 
L 9.078125 0 
L 9.078125 54.6875 
L 18.109375 54.6875 
L 18.109375 46.1875 
Q 21.1875 51.21875 25.484375 53.609375 
Q 29.78125 56 35.6875 56 
Q 41.65625 56 45.828125 52.96875 
Q 50 49.953125 52 44.1875 
z
" id="DejaVuSans-109"/>
      <path d="M 46.6875 72.90625 
L 73.1875 45.703125 
L 63.375 45.703125 
L 41.890625 64.984375 
L 20.40625 45.703125 
L 10.59375 45.703125 
L 37.109375 72.90625 
z
" id="DejaVuSans-94"/>
      <path d="M 25.390625 72.90625 
L 33.6875 72.90625 
L 8.296875 -9.28125 
L 0 -9.28125 
z
" id="DejaVuSans-47"/>
      <path d="M 44.28125 53.078125 
L 44.28125 44.578125 
Q 40.484375 46.53125 36.375 47.5 
Q 32.28125 48.484375 27.875 48.484375 
Q 21.1875 48.484375 17.84375 46.4375 
Q 14.5 44.390625 14.5 40.28125 
Q 14.5 37.15625 16.890625 35.375 
Q 19.28125 33.59375 26.515625 31.984375 
L 29.59375 31.296875 
Q 39.15625 29.25 43.1875 25.515625 
Q 47.21875 21.78125 47.21875 15.09375 
Q 47.21875 7.46875 41.1875 3.015625 
Q 35.15625 -1.421875 24.609375 -1.421875 
Q 20.21875 -1.421875 15.453125 -0.5625 
Q 10.6875 0.296875 5.421875 2 
L 5.421875 11.28125 
Q 10.40625 8.6875 15.234375 7.390625 
Q 20.0625 6.109375 24.8125 6.109375 
Q 31.15625 6.109375 34.5625 8.28125 
Q 37.984375 10.453125 37.984375 14.40625 
Q 37.984375 18.0625 35.515625 20.015625 
Q 33.0625 21.96875 24.703125 23.78125 
L 21.578125 24.515625 
Q 13.234375 26.265625 9.515625 29.90625 
Q 5.8125 33.546875 5.8125 39.890625 
Q 5.8125 47.609375 11.28125 51.796875 
Q 16.75 56 26.8125 56 
Q 31.78125 56 36.171875 55.265625 
Q 40.578125 54.546875 44.28125 53.078125 
z
" id="DejaVuSans-115"/>
     </defs>
     <g transform="translate(18.398437 101.092899)rotate(-90)scale(0.1 -0.1)">
      <use xlink:href="#DejaVuSans-83"/>
      <use x="63.476562" xlink:href="#DejaVuSans-40"/>
      <use x="102.490234" xlink:href="#DejaVuSans-102"/>
      <use x="137.695312" xlink:href="#DejaVuSans-41"/>
      <use x="176.708984" xlink:href="#DejaVuSans-32"/>
      <use x="208.496094" xlink:href="#DejaVuSans-40"/>
      <use x="247.509766" xlink:href="#DejaVuSans-109"/>
      <use x="344.921875" xlink:href="#DejaVuSans-94"/>
      <use x="428.710938" xlink:href="#DejaVuSans-50"/>
      <use x="492.333984" xlink:href="#DejaVuSans-47"/>
      <use x="526.025391" xlink:href="#DejaVuSans-115"/>
      <use x="578.125" xlink:href="#DejaVuSans-41"/>
     </g>
    </g>
   </g>
   <g id="line2d_45">
    <path clip-path="url(#pf31783bcd8)" d="M 62.296013 25.739817 
L 75.601263 35.211588 
L 83.384335 40.25706 
L 88.906513 21.383341 
L 93.189847 17.836261 
L 96.689586 20.887204 
L 99.648573 17.067521 
L 102.211764 42.001701 
L 104.472658 19.800444 
L 106.495097 16.884392 
L 108.324616 20.335007 
L 109.994836 24.181465 
L 111.531289 23.935817 
L 112.953823 46.497864 
L 114.27817 55.830885 
L 115.517014 31.957003 
L 116.680729 26.891736 
L 117.777909 40.847933 
L 118.815751 34.428737 
L 119.800348 35.158431 
L 120.736895 30.14708 
L 121.629867 19.835828 
L 122.483137 23.926473 
L 123.300086 26.215121 
L 124.83654 25.854354 
L 125.560981 38.730626 
L 126.259073 33.470943 
L 126.932666 37.627841 
L 127.58342 34.391368 
L 128.212835 28.688329 
L 128.822264 27.089031 
L 129.412939 52.450039 
L 129.985979 25.572379 
L 130.542407 26.685318 
L 131.083159 43.051459 
L 131.609094 39.841104 
L 132.121002 26.95242 
L 132.619612 29.081391 
L 133.105598 38.659397 
L 133.579583 34.264602 
L 134.042146 33.615689 
L 134.493823 28.218943 
L 134.935117 31.075964 
L 135.366493 36.147161 
L 135.788387 34.428609 
L 136.201208 43.257138 
L 137.001132 34.389717 
L 137.388932 32.9618 
L 138.14179 51.33252 
L 138.507428 53.160965 
L 138.866231 61.884356 
L 139.218451 55.263194 
L 139.564323 52.171967 
L 139.904074 64.143291 
L 140.237916 43.573868 
L 140.566051 36.584208 
L 140.88867 41.174024 
L 141.205957 51.00307 
L 141.518085 43.870764 
L 141.825218 45.576539 
L 142.127514 73.589041 
L 142.425124 42.783407 
L 142.718189 31.623846 
L 143.006848 37.422613 
L 143.291229 40.212886 
L 143.571459 41.497314 
L 143.847657 55.300941 
L 144.119937 37.17917 
L 144.388409 31.10799 
L 144.653178 32.962871 
L 145.172004 46.593952 
L 145.426252 43.174089 
L 145.677176 47.243067 
L 145.924862 46.637831 
L 146.169393 35.914885 
L 146.410848 41.152152 
L 146.649304 40.284816 
L 146.884833 35.852351 
L 147.117508 38.641142 
L 147.347396 48.193509 
L 147.574563 37.930723 
L 147.799074 37.818548 
L 148.020988 38.122398 
L 148.240367 35.923017 
L 148.671743 48.213665 
L 149.093637 36.349265 
L 149.506458 35.334553 
L 149.709586 48.037938 
L 149.910587 48.276963 
L 150.109505 52.190284 
L 150.306383 47.233954 
L 150.501262 38.721545 
L 151.074302 44.704585 
L 151.44704 39.881055 
L 151.63073 44.222366 
L 151.992918 80.193016 
L 152.171482 52.936891 
L 152.348399 55.542515 
L 152.523701 51.217963 
L 152.697416 53.001158 
L 152.869574 53.413748 
L 153.040201 49.833298 
L 153.209325 48.951433 
L 153.543166 51.388532 
L 153.707935 61.567856 
L 154.033289 56.342738 
L 154.193921 42.234446 
L 154.35322 42.500846 
L 154.511208 38.871169 
L 154.667906 38.904174 
L 155.130468 52.377902 
L 155.282212 46.579271 
L 155.432765 48.056629 
L 155.582146 39.807262 
L 155.730374 46.25742 
L 155.877466 60.086183 
L 156.312098 41.666247 
L 156.454815 46.069579 
L 156.59648 45.798795 
L 156.87671 61.01608 
L 157.015305 41.336125 
L 157.152908 42.898337 
L 157.28953 68.366398 
L 157.425188 47.29992 
L 157.559893 44.245301 
L 157.693659 47.43682 
L 157.8265 70.784119 
L 157.958428 62.901231 
L 158.089455 70.111988 
L 158.348857 44.348228 
L 158.604799 59.250422 
L 158.982426 42.268854 
L 159.106669 45.764609 
L 159.230113 80.545508 
L 159.352768 49.654079 
L 159.474644 65.761149 
L 159.716099 54.261047 
L 159.835697 47.539851 
L 159.954554 57.053976 
L 160.07268 47.749588 
L 160.190084 58.444412 
L 160.306773 44.214891 
L 160.538046 47.485403 
L 160.652646 43.939553 
L 160.879814 53.770272 
L 160.992397 44.748343 
L 161.215602 59.124697 
L 161.326239 52.827786 
L 161.545617 89.150934 
L 161.762517 58.44034 
L 161.976993 45.655313 
L 162.083339 65.440071 
L 162.29428 47.533451 
L 162.398888 65.409098 
L 162.606408 46.31271 
L 162.709332 49.213743 
L 162.913541 68.092528 
L 163.215837 46.879094 
L 163.414755 52.041477 
L 163.513447 67.391161 
L 163.611633 57.266117 
L 163.70932 63.807091 
L 163.806512 46.931004 
L 163.903215 55.792499 
L 164.09517 47.125123 
L 164.190433 47.099666 
L 164.379552 60.320386 
L 164.473418 47.300918 
L 164.566826 47.788796 
L 164.659782 48.719105 
L 164.75229 47.472073 
L 164.844355 47.959876 
L 164.93598 64.837899 
L 165.02717 48.23668 
L 165.117929 52.638879 
L 165.20826 63.869064 
L 165.387658 51.768493 
L 165.476732 47.162101 
L 165.565394 49.321261 
L 165.7415 45.039151 
L 165.828951 48.956213 
L 165.916005 62.867829 
L 166.002667 61.328898 
L 166.088938 50.413744 
L 166.174824 50.702243 
L 166.345451 63.289666 
L 166.430199 58.299245 
L 166.514575 66.421896 
L 166.598581 63.018889 
L 166.682221 53.727126 
L 166.765499 60.118121 
L 166.848417 47.117639 
L 167.013185 59.978777 
L 167.095042 52.382129 
L 167.176551 52.95474 
L 167.257716 51.439296 
L 167.338539 65.49097 
L 167.419023 59.438722 
L 167.499171 64.84922 
L 167.737627 45.360121 
L 167.816458 49.642105 
L 167.894967 51.863255 
L 167.973156 51.605725 
L 168.051028 46.742389 
L 168.205831 63.016458 
L 168.282766 51.699777 
L 168.359395 55.226109 
L 168.435719 67.477637 
L 168.51174 65.217871 
L 168.587462 64.040211 
L 168.887396 48.69285 
L 168.961653 47.258696 
L 169.035624 48.312476 
L 169.109311 51.66434 
L 169.182716 67.279697 
L 169.32869 50.279974 
L 169.401262 53.19932 
L 169.473562 64.714818 
L 169.617348 49.794124 
L 169.68884 54.872561 
L 169.760066 74.199364 
L 169.90173 52.081669 
L 169.972172 54.03076 
L 170.042356 76.483188 
L 170.18196 58.673935 
L 170.251383 79.298692 
L 170.458158 52.616124 
L 170.526591 55.132282 
L 170.594781 54.394248 
L 170.662729 54.28475 
L 170.797909 63.52612 
L 170.932143 51.435668 
L 170.99891 60.90675 
L 171.065445 56.112037 
L 171.197828 50.971313 
L 171.263678 64.087039 
L 171.329304 64.063261 
L 171.394706 53.329938 
L 171.589585 91.204793 
L 171.654107 64.366407 
L 171.718413 77.206146 
L 171.846383 54.886699 
L 171.973506 73.555328 
L 172.099792 55.774557 
L 172.225253 50.508927 
L 172.287677 54.498377 
L 172.349899 66.106959 
L 172.411919 51.909186 
L 172.47374 55.831195 
L 172.535363 68.612046 
L 172.596788 51.539994 
L 172.658018 53.441752 
L 172.719053 81.985323 
L 172.779894 77.106955 
L 172.901001 53.627034 
L 172.961269 59.810072 
L 173.021349 70.734512 
L 173.081241 66.994782 
L 173.318958 52.169917 
L 173.37793 54.77482 
L 173.436722 68.098029 
L 173.495334 53.84317 
L 173.553768 61.062037 
L 173.785739 51.643048 
L 173.843297 54.591485 
L 173.900682 64.226118 
L 173.957897 63.278376 
L 174.014941 61.508493 
L 174.071816 73.203392 
L 174.128524 52.784494 
L 174.185064 55.02702 
L 174.353692 86.236218 
L 174.465294 54.810088 
L 174.520852 55.667492 
L 174.57625 56.182101 
L 174.631489 100.759878 
L 174.686569 62.607276 
L 174.850868 58.071616 
L 174.905323 68.004512 
L 174.959624 58.680655 
L 175.013772 55.04407 
L 175.067767 97.7489 
L 175.121612 57.909819 
L 175.175305 74.475541 
L 175.228849 53.637359 
L 175.282244 55.741182 
L 175.33549 63.209274 
L 175.38859 54.492758 
L 175.441543 63.427058 
L 175.49435 72.806406 
L 175.59953 53.856957 
L 175.651905 54.570906 
L 175.756229 77.330285 
L 175.808178 111.825171 
L 175.963189 57.0069 
L 176.014583 52.869448 
L 176.065839 53.454252 
L 176.116958 55.320708 
L 176.218791 55.301471 
L 176.269506 53.142844 
L 176.320087 54.227527 
L 176.521087 71.80416 
L 176.670469 52.317667 
L 176.720006 56.633738 
L 176.769415 67.359233 
L 176.818697 55.543448 
L 176.916883 52.98413 
L 176.965789 54.924935 
L 177.063228 70.212088 
L 177.111762 55.245662 
L 177.160175 57.430148 
L 177.208465 87.604312 
L 177.256634 68.195525 
L 177.304683 73.313019 
L 177.352611 54.821387 
L 177.448111 59.773787 
L 177.495684 53.440526 
L 177.543138 54.160947 
L 177.637697 62.253852 
L 177.684802 55.610479 
L 177.731793 56.095811 
L 177.778668 63.389597 
L 177.825429 59.027231 
L 177.872076 57.928075 
L 178.057541 80.463529 
L 178.195473 54.142117 
L 178.377853 57.51304 
L 178.51351 53.530487 
L 178.737497 65.378062 
L 178.781982 53.863502 
L 178.826365 56.471943 
L 178.870645 73.419433 
L 178.914823 57.971604 
L 178.9589 57.220128 
L 179.002875 73.610415 
L 179.090526 66.17906 
L 179.134202 56.935239 
L 179.177778 63.104314 
L 179.221256 77.96591 
L 179.264635 58.061757 
L 179.307917 59.745793 
L 179.351101 55.831898 
L 179.394189 57.33307 
L 179.480074 63.68333 
L 179.522873 77.142126 
L 179.565577 55.205637 
L 179.650701 64.650603 
L 179.693122 56.500826 
L 179.73545 56.620167 
L 179.777684 65.974927 
L 179.861874 61.260566 
L 179.987472 69.219444 
L 180.029156 60.375983 
L 180.070749 83.135373 
L 180.112253 71.410733 
L 180.153667 56.561153 
L 180.194992 58.164065 
L 180.359408 71.642204 
L 180.400292 68.550474 
L 180.44109 86.849253 
L 180.481802 77.112356 
L 180.562966 64.481997 
L 180.60342 84.664971 
L 180.643789 60.536814 
L 180.684074 75.805443 
L 180.724273 57.175608 
L 180.804421 57.906204 
L 180.84437 57.865072 
L 180.96372 75.330751 
L 181.161003 58.834574 
L 181.200217 57.783308 
L 181.239352 59.225739 
L 181.278406 57.910977 
L 181.317382 67.737513 
L 181.395096 62.342334 
L 181.472497 63.097773 
L 181.549587 56.726517 
L 181.626369 59.176488 
L 181.664645 56.305225 
L 181.702845 60.107971 
L 181.740969 80.036926 
L 181.779017 76.32775 
L 181.816991 57.352455 
L 181.892712 61.116968 
L 181.930461 59.283087 
L 181.968136 83.020799 
L 182.005738 58.652286 
L 182.043265 59.071921 
L 182.15541 89.79105 
L 182.229811 60.417581 
L 182.266904 98.093193 
L 182.340875 65.245847 
L 182.414562 76.535724 
L 182.487967 79.644693 
L 182.561092 61.358147 
L 182.597551 63.884786 
L 182.63394 58.434426 
L 182.670261 58.613736 
L 182.706513 65.186987 
L 182.742696 59.467042 
L 182.778812 57.775311 
L 182.81486 60.336822 
L 182.85084 69.954511 
L 182.886753 61.922346 
L 182.922599 58.190984 
L 182.99409 60.760585 
L 183.065316 86.874781 
L 183.10083 78.643397 
L 183.171662 56.63346 
L 183.20698 59.153629 
L 183.382603 72.420047 
L 183.48721 57.84815 
L 183.452405 78.994887 
L 183.521953 59.211477 
L 183.591251 78.644329 
L 183.625806 59.900879 
L 183.660299 60.717247 
L 183.69473 98.255075 
L 183.763408 62.266851 
L 183.797655 83.292168 
L 183.831841 60.699716 
L 183.865966 70.248721 
L 184.103159 57.987504 
L 184.136806 57.485744 
L 184.203923 57.602326 
L 184.237393 59.402989 
L 184.370695 76.64981 
L 184.403877 64.337479 
L 184.437001 80.489924 
L 184.470068 78.676903 
L 184.503078 84.226579 
L 184.601769 61.174906 
L 184.634554 67.024716 
L 184.667283 73.296294 
L 184.699956 64.950527 
L 184.830095 59.544147 
L 184.894835 68.299518 
L 184.959357 63.803246 
L 185.119721 58.266373 
L 185.278756 82.003752 
L 185.342003 77.954909 
L 185.405042 65.868087 
L 185.467875 73.79346 
L 185.499214 75.171309 
L 185.56174 61.920739 
L 185.624063 65.485141 
L 185.71717 59.258414 
L 185.748105 61.436487 
L 185.778991 79.831715 
L 185.840613 59.469096 
L 185.902039 68.932959 
L 185.932678 98.824861 
L 185.99381 62.891741 
L 186.054748 79.186101 
L 186.085144 77.906578 
L 186.145793 64.601832 
L 186.176046 89.112723 
L 186.206251 64.450411 
L 186.236409 72.561703 
L 186.26652 60.340883 
L 186.356569 62.877416 
L 186.386491 83.405209 
L 186.446197 69.638257 
L 186.535409 62.295793 
L 186.683181 77.603581 
L 186.829823 59.372226 
L 186.888168 62.573763 
L 186.946336 103.889945 
L 186.975354 76.764747 
L 187.004328 64.249446 
L 187.062146 78.229064 
L 187.090989 87.337947 
L 187.11979 78.729179 
L 187.205932 61.797289 
L 187.177261 88.484129 
L 187.234561 66.21864 
L 187.263147 95.812492 
L 187.320191 62.353692 
L 187.34865 60.766555 
L 187.377067 62.629962 
L 187.433774 62.094339 
L 187.546688 70.938283 
L 187.602898 59.956724 
L 187.658943 69.488966 
L 187.686904 63.571169 
L 187.714825 77.878933 
L 187.770544 64.178049 
L 187.798344 67.024043 
L 187.826103 62.878939 
L 187.853822 65.66313 
L 187.881501 62.228579 
L 187.90914 67.869954 
L 187.936739 64.40324 
L 187.964299 116.707202 
L 188.0193 63.288979 
L 188.046742 79.815451 
L 188.101508 64.0301 
L 188.156118 65.198258 
L 188.210573 63.451471 
L 188.291967 87.801355 
L 188.373018 61.74038 
L 188.399959 63.354781 
L 188.426862 89.966415 
L 188.480555 60.87613 
L 188.507346 67.697245 
L 188.560815 64.455618 
L 188.614136 87.549679 
L 188.640741 63.439876 
L 188.720335 77.906369 
L 188.773215 80.105578 
L 188.87854 60.913827 
L 188.904781 61.438439 
L 188.957156 60.689364 
L 189.035451 73.750391 
L 189.087471 61.588509 
L 189.165238 65.718833 
L 189.191091 81.297216 
L 189.26844 70.683202 
L 189.319833 62.491148 
L 189.396666 65.870393 
L 189.422209 90.40765 
L 189.498634 67.355807 
L 189.549415 74.826655 
L 189.574756 62.810203 
L 189.600063 62.128316 
L 189.625337 64.324703 
L 189.650577 88.825423 
L 189.7261 78.609586 
L 189.776285 61.680305 
L 189.851316 67.257541 
L 189.876261 71.717426 
L 189.901174 62.563876 
L 189.950903 66.300303 
L 190.000503 64.886957 
L 190.025256 68.560396 
L 190.049976 61.722581 
L 190.099322 64.076996 
L 190.123947 63.789189 
L 190.148541 69.174068 
L 190.222134 62.486834 
L 190.246602 64.453159 
L 190.271039 94.494804 
L 190.368478 93.03338 
L 190.441234 64.170215 
L 190.489585 73.059134 
L 190.609933 61.925182 
L 190.657862 84.238856 
L 190.729531 65.224737 
L 190.753362 68.553837 
L 190.777162 90.504398 
L 190.848389 73.441203 
L 190.872072 72.666953 
L 190.895726 64.28969 
L 190.990053 65.748685 
L 191.037043 61.733987 
L 191.060495 65.200363 
L 191.083918 79.230115 
L 191.154017 62.197599 
L 191.177327 64.896078 
L 191.293452 84.522681 
L 191.385849 63.577404 
L 191.408879 67.049832 
L 191.454856 64.97862 
L 191.523615 97.540325 
L 191.59213 62.567286 
L 191.63767 67.791228 
L 191.751052 87.02335 
L 191.796218 62.664535 
L 191.863768 65.209538 
L 192.020466 87.318749 
L 192.087232 64.329123 
L 192.131615 78.022365 
L 192.153768 83.132211 
L 192.197997 69.465508 
L 192.220073 63.293376 
L 192.26415 71.627487 
L 192.308126 96.9307 
L 192.352001 65.026696 
L 192.373901 64.251025 
L 192.395776 64.703233 
L 192.526506 100.425 
L 192.569886 65.221577 
L 192.634772 73.301027 
L 192.656352 74.268603 
L 192.763889 64.634588 
L 192.785325 65.471854 
L 192.849488 97.150795 
L 192.892144 64.286236 
L 192.998373 91.832634 
L 193.061828 63.447698 
L 193.104016 71.468535 
L 193.146111 65.699347 
L 193.188115 78.079002 
L 193.250947 91.998184 
L 193.313575 65.91638 
L 193.355214 62.265384 
L 193.375999 66.102138 
L 193.396763 89.299374 
L 193.479591 65.715979 
L 193.562063 62.854989 
L 193.582626 65.331556 
L 193.623686 63.067668 
L 193.725952 71.231581 
L 193.827677 63.49812 
L 193.787052 71.603445 
L 193.847958 64.963031 
L 193.888454 68.838655 
L 193.908671 66.608347 
L 194.009434 92.423744 
L 194.029524 80.682729 
L 194.149621 62.814555 
L 194.189486 67.966565 
L 194.22927 81.885264 
L 194.268971 63.912914 
L 194.28879 63.579962 
L 194.48587 88.583648 
L 194.544602 66.911734 
L 194.603154 76.658534 
L 194.622632 78.669219 
L 194.64209 64.90106 
L 194.719726 68.139606 
L 194.777748 63.800231 
L 194.816331 86.801739 
L 194.912453 65.849581 
L 194.874062 90.580228 
L 194.931619 69.19979 
L 194.950767 76.582058 
L 195.027167 67.731198 
L 195.046219 75.232271 
L 195.084268 70.046495 
L 195.103264 109.805134 
L 195.17906 64.887445 
L 195.197963 65.734021 
L 195.216846 72.666946 
L 195.273387 65.157103 
L 195.310988 66.452059 
L 195.329761 66.79835 
L 195.40467 64.531446 
L 195.460661 90.221412 
L 195.535061 64.514186 
L 195.572154 78.60758 
L 195.664573 65.115615 
L 195.609175 89.045256 
L 195.683004 68.194542 
L 195.701417 95.046901 
L 195.774892 65.050017 
L 195.793217 66.560525 
L 195.811524 86.877605 
L 195.902801 65.166742 
L 195.993646 86.426484 
L 196.047947 82.187122 
L 196.084062 64.660454 
L 196.174055 67.183242 
L 196.209934 65.403525 
L 196.29934 93.386122 
L 196.370566 69.126493 
L 196.423813 73.488779 
L 196.441529 71.011287 
L 196.476912 67.395534 
L 196.547484 116.351312 
L 196.600243 69.004916 
L 196.670363 86.097508 
L 196.687853 66.800694 
L 196.757655 101.25521 
L 196.792461 70.065027 
L 196.80984 66.329032 
L 196.827203 69.433059 
L 196.844551 84.338344 
L 196.931056 66.247593 
L 196.948311 68.97265 
L 196.965549 91.391214 
L 197.051512 86.403126 
L 197.154162 66.454375 
L 197.171217 67.424413 
L 197.188256 67.616583 
L 197.222291 85.591274 
L 197.307114 82.365616 
L 197.391564 64.508448 
L 197.340938 98.94318 
L 197.408409 68.257307 
L 197.525915 99.045955 
L 197.626066 65.833095 
L 197.642707 67.450802 
L 197.742251 84.84172 
L 197.758792 70.86702 
L 197.808328 67.259964 
L 197.874179 104.602119 
L 197.972533 65.809048 
L 197.988877 68.550476 
L 198.070386 67.767751 
L 198.102893 90.741177 
L 198.135345 71.723348 
L 198.216236 72.057242 
L 198.296788 106.022767 
L 198.328914 83.445211 
L 198.360986 68.184874 
L 198.393006 94.578539 
L 198.440934 73.048701 
L 198.488743 65.453893 
L 198.536434 87.541041 
L 198.568162 65.916043 
L 198.631461 96.196137 
L 198.647253 74.305216 
L 198.663032 73.477889 
L 198.694552 123.587343 
L 198.773125 98.775338 
L 198.788801 69.666941 
L 198.88259 87.724753 
L 198.991435 68.234894 
L 198.913752 98.246762 
L 199.006933 68.981386 
L 199.053355 67.087226 
L 199.115077 83.555366 
L 199.176601 67.647801 
L 199.145864 93.293929 
L 199.237928 67.720951 
L 199.283795 67.045254 
L 199.268518 69.455986 
L 199.29906 69.142099 
L 199.314313 82.154 
L 199.405575 67.023461 
L 199.420743 67.622231 
L 199.526586 89.89495 
L 199.586807 67.988285 
L 199.64684 71.953697 
L 199.661819 71.435994 
L 199.676786 94.712647 
L 199.736538 68.589238 
L 199.766345 75.361687 
L 199.781231 69.246129 
L 199.840659 82.651625 
L 199.929459 122.250634 
L 199.885111 71.428159 
L 199.944219 77.16731 
L 200.047222 69.385313 
L 200.017849 89.347434 
L 200.061892 70.394828 
L 200.076551 92.840861 
L 200.149676 68.006325 
L 200.164268 71.444942 
L 200.178849 68.061004 
L 200.207977 76.245512 
L 200.251586 70.128987 
L 200.352958 80.382385 
L 200.324049 69.779617 
L 200.367396 75.504654 
L 200.381823 70.122627 
L 200.39624 77.406646 
L 200.410645 76.559516 
L 200.42504 108.078412 
L 200.496852 68.460177 
L 200.511183 68.959842 
L 200.568397 75.783747 
L 200.59694 67.491288 
L 200.611196 69.402242 
L 200.625441 68.236781 
L 200.6539 74.888906 
L 200.668114 101.356579 
L 200.696509 67.160336 
L 200.753175 69.406512 
L 200.837861 94.218045 
L 200.809674 69.222528 
L 200.908148 80.139102 
L 200.922174 68.368711 
L 201.00612 83.154398 
L 201.020075 74.356912 
L 201.103594 88.868156 
L 201.047955 72.157848 
L 201.131353 80.404924 
L 201.159072 76.25553 
L 201.24199 67.966052 
L 201.21439 82.236214 
L 201.269549 72.012633 
L 201.283315 84.730211 
L 201.310815 69.153315 
L 201.379395 73.387815 
L 201.393081 68.291008 
L 201.461368 73.933447 
L 201.488615 68.478794 
L 201.583676 97.96348 
L 201.597218 74.520209 
L 201.61075 69.764359 
L 201.637786 98.531149 
L 201.691743 72.169931 
L 201.74555 104.787715 
L 201.758978 71.130977 
L 201.799206 76.780278 
L 201.812596 75.994248 
L 201.825977 90.034932 
L 201.919386 72.223952 
L 201.99909 89.52596 
L 201.959279 71.98388 
L 202.052043 87.978771 
L 202.144361 92.607673 
L 202.18379 68.837358 
L 202.196915 68.391703 
L 202.223138 99.350084 
L 202.314638 78.137137 
L 202.37973 69.525904 
L 202.35372 97.522648 
L 202.405705 81.796505 
L 202.418679 92.212022 
L 202.483419 72.749834 
L 202.496341 76.76364 
L 202.509254 70.741434 
L 202.547941 82.39705 
L 202.56082 72.69502 
L 202.63791 102.199407 
L 202.612248 69.084412 
L 202.689132 100.659133 
L 202.701916 100.520649 
L 202.803884 68.466585 
L 202.841983 71.347917 
L 202.854666 72.161665 
L 202.86734 113.798099 
L 202.905313 69.81676 
L 202.955828 78.515286 
L 202.968435 70.191568 
L 203.043909 90.69341 
L 203.069001 73.099774 
L 203.081535 70.404463 
L 203.119087 84.57662 
L 203.144081 73.2274 
L 203.181511 96.296102 
L 203.231305 68.484542 
L 203.293366 84.690863 
L 203.367575 96.701128 
L 203.318134 72.238089 
L 203.392248 91.213959 
L 203.404572 71.886767 
L 203.502884 88.22082 
L 203.515138 87.523912 
L 203.576289 69.179486 
L 203.551852 94.660936 
L 203.637247 72.610784 
L 203.661576 92.543496 
L 203.734377 69.143214 
L 203.758584 70.799631 
L 203.867135 81.22156 
L 203.794836 69.694743 
L 203.879158 79.148259 
L 203.915183 71.052733 
L 203.951141 91.800295 
L 203.975075 78.223824 
L 204.010921 92.394823 
L 204.034781 70.741891 
L 204.070516 72.219443 
L 204.082413 73.531509 
L 204.094302 99.208755 
L 204.189153 78.641553 
L 204.271765 72.403475 
L 204.212793 99.009503 
L 204.283538 72.659187 
L 204.307061 98.262823 
L 204.365745 70.160506 
L 204.389168 74.593308 
L 204.447602 89.657416 
L 204.494221 71.869025 
L 204.529111 74.211138 
L 204.540727 71.231635 
L 204.563938 72.612206 
L 204.633403 117.869568 
L 204.691099 99.133644 
L 204.725633 74.277699 
L 204.783053 112.733513 
L 204.805973 82.628726 
L 204.863153 70.118016 
L 204.89738 88.103088 
L 204.920164 77.895846 
L 204.931546 85.584425 
L 204.999695 71.018052 
L 205.022358 76.762176 
L 205.044994 69.751008 
L 205.067604 88.694237 
L 205.124011 72.168114 
L 205.180253 102.889349 
L 205.157776 69.342956 
L 205.225128 70.751379 
L 205.236331 70.085108 
L 205.247527 74.418586 
L 205.33686 91.154707 
L 205.347997 72.518444 
L 205.359128 73.150721 
L 205.370253 92.260778 
L 205.447945 71.657007 
L 205.459018 74.006542 
L 205.481145 70.156555 
L 205.525324 76.256873 
L 205.547375 75.324996 
L 205.558391 91.556632 
L 205.624354 70.964693 
L 205.657251 78.455912 
L 205.679151 73.456017 
L 205.690092 80.362385 
L 205.711955 78.305392 
L 205.722877 100.239507 
L 205.81003 75.032295 
L 205.820896 91.249061 
L 205.831756 72.350305 
L 205.8643 91.877327 
L 205.940022 76.927096 
L 206.004689 93.203265 
L 206.015446 74.321765 
L 206.026197 71.551875 
L 206.058413 88.06425 
L 206.07986 77.014613 
L 206.122683 102.036426 
L 206.154738 71.232942 
L 206.176078 90.776562 
L 206.261202 106.78931 
L 206.293026 69.95583 
L 206.314213 108.134069 
L 206.398728 72.726681 
L 206.409267 71.899591 
L 206.430326 76.545963 
L 206.482873 100.778764 
L 206.451362 75.246184 
L 206.54574 98.971377 
L 206.639656 72.281399 
L 206.68125 87.700997 
L 206.691634 89.688809 
L 206.702013 74.317657 
L 206.712386 72.353082 
L 206.733115 74.801045 
L 206.764167 99.438836 
L 206.805492 72.067237 
L 206.846729 89.317697 
L 206.898149 70.897075 
L 206.949433 74.077468 
L 206.959673 112.017174 
L 207.051591 81.266895 
L 207.102467 71.731577 
L 207.14307 83.621917 
L 207.153208 76.088666 
L 207.203815 103.166893 
L 207.244206 71.777841 
L 207.264369 83.034877 
L 207.364869 71.591718 
L 207.284511 84.323029 
L 207.394916 75.937742 
L 207.464845 100.460423 
L 207.444891 73.120153 
L 207.50469 81.055115 
L 207.584133 72.246473 
L 207.524582 108.942795 
L 207.594041 74.105461 
L 207.603943 111.854311 
L 207.623732 73.143396 
L 207.702685 77.210564 
L 207.751866 73.666245 
L 207.810718 96.992276 
L 207.888907 73.740552 
L 207.859623 109.575839 
L 207.927882 77.453975 
L 207.937614 73.210696 
L 207.957062 105.541867 
L 208.015289 75.326709 
L 208.044336 108.986702 
L 208.121582 75.993412 
L 208.131215 75.324432 
L 208.208113 89.166485 
L 208.179312 73.462773 
L 208.23687 80.891956 
L 208.341946 73.353014 
L 208.322884 95.765316 
L 208.35147 73.839241 
L 208.44645 93.395316 
L 208.465389 79.328859 
L 208.512657 74.92452 
L 208.503213 97.723343 
L 208.522097 79.117381 
L 208.531532 95.283039 
L 208.625627 72.513908 
L 208.644391 80.659885 
L 208.644391 80.659885 
" style="fill:none;stroke:#000000;stroke-linecap:square;stroke-width:0.8;"/>
   </g>
   <g id="line2d_46">
    <path clip-path="url(#pf31783bcd8)" d="M 62.296013 21.840992 
L 75.601263 18.496347 
L 83.384335 17.695398 
L 88.906513 17.934888 
L 93.189847 18.640106 
L 96.689586 19.543206 
L 99.648573 20.514334 
L 104.472658 22.441124 
L 109.994836 25.045774 
L 115.517014 27.936933 
L 123.300086 32.296051 
L 135.366493 39.359679 
L 161.436241 54.954143 
L 208.653766 83.32126 
L 208.653766 83.32126 
" style="fill:none;stroke:#ff0000;stroke-linecap:square;stroke-width:2;"/>
   </g>
   <g id="patch_3">
    <path d="M 54.978125 128.92249 
L 54.978125 11.549244 
" style="fill:none;stroke:#000000;stroke-linecap:square;stroke-linejoin:miter;stroke-width:0.8;"/>
   </g>
   <g id="patch_4">
    <path d="M 215.971654 128.92249 
L 215.971654 11.549244 
" style="fill:none;stroke:#000000;stroke-linecap:square;stroke-linejoin:miter;stroke-width:0.8;"/>
   </g>
   <g id="patch_5">
    <path d="M 54.978125 128.92249 
L 215.971654 128.92249 
" style="fill:none;stroke:#000000;stroke-linecap:square;stroke-linejoin:miter;stroke-width:0.8;"/>
   </g>
   <g id="patch_6">
    <path d="M 54.978125 11.549244 
L 215.971654 11.549244 
" style="fill:none;stroke:#000000;stroke-linecap:square;stroke-linejoin:miter;stroke-width:0.8;"/>
   </g>
   <g id="legend_1">
    <g id="patch_7">
     <path d="M 61.978125 123.92249 
L 143.371875 123.92249 
Q 145.371875 123.92249 145.371875 121.92249 
L 145.371875 93.56624 
Q 145.371875 91.56624 143.371875 91.56624 
L 61.978125 91.56624 
Q 59.978125 91.56624 59.978125 93.56624 
L 59.978125 121.92249 
Q 59.978125 123.92249 61.978125 123.92249 
z
" style="fill:#ffffff;opacity:0.8;stroke:#cccccc;stroke-linejoin:miter;"/>
    </g>
    <g id="line2d_47">
     <path d="M 63.978125 99.664678 
L 83.978125 99.664678 
" style="fill:none;stroke:#000000;stroke-linecap:square;stroke-width:0.8;"/>
    </g>
    <g id="line2d_48"/>
    <g id="text_11">
     <!-- simulated -->
     <defs>
      <path d="M 9.421875 54.6875 
L 18.40625 54.6875 
L 18.40625 0 
L 9.421875 0 
z
M 9.421875 75.984375 
L 18.40625 75.984375 
L 18.40625 64.59375 
L 9.421875 64.59375 
z
" id="DejaVuSans-105"/>
      <path d="M 8.5 21.578125 
L 8.5 54.6875 
L 17.484375 54.6875 
L 17.484375 21.921875 
Q 17.484375 14.15625 20.5 10.265625 
Q 23.53125 6.390625 29.59375 6.390625 
Q 36.859375 6.390625 41.078125 11.03125 
Q 45.3125 15.671875 45.3125 23.6875 
L 45.3125 54.6875 
L 54.296875 54.6875 
L 54.296875 0 
L 45.3125 0 
L 45.3125 8.40625 
Q 42.046875 3.421875 37.71875 1 
Q 33.40625 -1.421875 27.6875 -1.421875 
Q 18.265625 -1.421875 13.375 4.4375 
Q 8.5 10.296875 8.5 21.578125 
z
M 31.109375 56 
z
" id="DejaVuSans-117"/>
      <path d="M 9.421875 75.984375 
L 18.40625 75.984375 
L 18.40625 0 
L 9.421875 0 
z
" id="DejaVuSans-108"/>
      <path d="M 34.28125 27.484375 
Q 23.390625 27.484375 19.1875 25 
Q 14.984375 22.515625 14.984375 16.5 
Q 14.984375 11.71875 18.140625 8.90625 
Q 21.296875 6.109375 26.703125 6.109375 
Q 34.1875 6.109375 38.703125 11.40625 
Q 43.21875 16.703125 43.21875 25.484375 
L 43.21875 27.484375 
z
M 52.203125 31.203125 
L 52.203125 0 
L 43.21875 0 
L 43.21875 8.296875 
Q 40.140625 3.328125 35.546875 0.953125 
Q 30.953125 -1.421875 24.3125 -1.421875 
Q 15.921875 -1.421875 10.953125 3.296875 
Q 6 8.015625 6 15.921875 
Q 6 25.140625 12.171875 29.828125 
Q 18.359375 34.515625 30.609375 34.515625 
L 43.21875 34.515625 
L 43.21875 35.40625 
Q 43.21875 41.609375 39.140625 45 
Q 35.0625 48.390625 27.6875 48.390625 
Q 23 48.390625 18.546875 47.265625 
Q 14.109375 46.140625 10.015625 43.890625 
L 10.015625 52.203125 
Q 14.9375 54.109375 19.578125 55.046875 
Q 24.21875 56 28.609375 56 
Q 40.484375 56 46.34375 49.84375 
Q 52.203125 43.703125 52.203125 31.203125 
z
" id="DejaVuSans-97"/>
      <path d="M 18.3125 70.21875 
L 18.3125 54.6875 
L 36.8125 54.6875 
L 36.8125 47.703125 
L 18.3125 47.703125 
L 18.3125 18.015625 
Q 18.3125 11.328125 20.140625 9.421875 
Q 21.96875 7.515625 27.59375 7.515625 
L 36.8125 7.515625 
L 36.8125 0 
L 27.59375 0 
Q 17.1875 0 13.234375 3.875 
Q 9.28125 7.765625 9.28125 18.015625 
L 9.28125 47.703125 
L 2.6875 47.703125 
L 2.6875 54.6875 
L 9.28125 54.6875 
L 9.28125 70.21875 
z
" id="DejaVuSans-116"/>
      <path d="M 56.203125 29.59375 
L 56.203125 25.203125 
L 14.890625 25.203125 
Q 15.484375 15.921875 20.484375 11.0625 
Q 25.484375 6.203125 34.421875 6.203125 
Q 39.59375 6.203125 44.453125 7.46875 
Q 49.3125 8.734375 54.109375 11.28125 
L 54.109375 2.78125 
Q 49.265625 0.734375 44.1875 -0.34375 
Q 39.109375 -1.421875 33.890625 -1.421875 
Q 20.796875 -1.421875 13.15625 6.1875 
Q 5.515625 13.8125 5.515625 26.8125 
Q 5.515625 40.234375 12.765625 48.109375 
Q 20.015625 56 32.328125 56 
Q 43.359375 56 49.78125 48.890625 
Q 56.203125 41.796875 56.203125 29.59375 
z
M 47.21875 32.234375 
Q 47.125 39.59375 43.09375 43.984375 
Q 39.0625 48.390625 32.421875 48.390625 
Q 24.90625 48.390625 20.390625 44.140625 
Q 15.875 39.890625 15.1875 32.171875 
z
" id="DejaVuSans-101"/>
      <path d="M 45.40625 46.390625 
L 45.40625 75.984375 
L 54.390625 75.984375 
L 54.390625 0 
L 45.40625 0 
L 45.40625 8.203125 
Q 42.578125 3.328125 38.25 0.953125 
Q 33.9375 -1.421875 27.875 -1.421875 
Q 17.96875 -1.421875 11.734375 6.484375 
Q 5.515625 14.40625 5.515625 27.296875 
Q 5.515625 40.1875 11.734375 48.09375 
Q 17.96875 56 27.875 56 
Q 33.9375 56 38.25 53.625 
Q 42.578125 51.265625 45.40625 46.390625 
z
M 14.796875 27.296875 
Q 14.796875 17.390625 18.875 11.75 
Q 22.953125 6.109375 30.078125 6.109375 
Q 37.203125 6.109375 41.296875 11.75 
Q 45.40625 17.390625 45.40625 27.296875 
Q 45.40625 37.203125 41.296875 42.84375 
Q 37.203125 48.484375 30.078125 48.484375 
Q 22.953125 48.484375 18.875 42.84375 
Q 14.796875 37.203125 14.796875 27.296875 
z
" id="DejaVuSans-100"/>
     </defs>
     <g transform="translate(91.978125 103.164678)scale(0.1 -0.1)">
      <use xlink:href="#DejaVuSans-115"/>
      <use x="52.099609" xlink:href="#DejaVuSans-105"/>
      <use x="79.882812" xlink:href="#DejaVuSans-109"/>
      <use x="177.294922" xlink:href="#DejaVuSans-117"/>
      <use x="240.673828" xlink:href="#DejaVuSans-108"/>
      <use x="268.457031" xlink:href="#DejaVuSans-97"/>
      <use x="329.736328" xlink:href="#DejaVuSans-116"/>
      <use x="368.945312" xlink:href="#DejaVuSans-101"/>
      <use x="430.46875" xlink:href="#DejaVuSans-100"/>
     </g>
    </g>
    <g id="line2d_49">
     <path d="M 63.978125 114.342803 
L 83.978125 114.342803 
" style="fill:none;stroke:#ff0000;stroke-linecap:square;stroke-width:2;"/>
    </g>
    <g id="line2d_50"/>
    <g id="text_12">
     <!-- target -->
     <defs>
      <path d="M 41.109375 46.296875 
Q 39.59375 47.171875 37.8125 47.578125 
Q 36.03125 48 33.890625 48 
Q 26.265625 48 22.1875 43.046875 
Q 18.109375 38.09375 18.109375 28.8125 
L 18.109375 0 
L 9.078125 0 
L 9.078125 54.6875 
L 18.109375 54.6875 
L 18.109375 46.1875 
Q 20.953125 51.171875 25.484375 53.578125 
Q 30.03125 56 36.53125 56 
Q 37.453125 56 38.578125 55.875 
Q 39.703125 55.765625 41.0625 55.515625 
z
" id="DejaVuSans-114"/>
      <path d="M 45.40625 27.984375 
Q 45.40625 37.75 41.375 43.109375 
Q 37.359375 48.484375 30.078125 48.484375 
Q 22.859375 48.484375 18.828125 43.109375 
Q 14.796875 37.75 14.796875 27.984375 
Q 14.796875 18.265625 18.828125 12.890625 
Q 22.859375 7.515625 30.078125 7.515625 
Q 37.359375 7.515625 41.375 12.890625 
Q 45.40625 18.265625 45.40625 27.984375 
z
M 54.390625 6.78125 
Q 54.390625 -7.171875 48.1875 -13.984375 
Q 42 -20.796875 29.203125 -20.796875 
Q 24.46875 -20.796875 20.265625 -20.09375 
Q 16.0625 -19.390625 12.109375 -17.921875 
L 12.109375 -9.1875 
Q 16.0625 -11.328125 19.921875 -12.34375 
Q 23.78125 -13.375 27.78125 -13.375 
Q 36.625 -13.375 41.015625 -8.765625 
Q 45.40625 -4.15625 45.40625 5.171875 
L 45.40625 9.625 
Q 42.625 4.78125 38.28125 2.390625 
Q 33.9375 0 27.875 0 
Q 17.828125 0 11.671875 7.65625 
Q 5.515625 15.328125 5.515625 27.984375 
Q 5.515625 40.671875 11.671875 48.328125 
Q 17.828125 56 27.875 56 
Q 33.9375 56 38.28125 53.609375 
Q 42.625 51.21875 45.40625 46.390625 
L 45.40625 54.6875 
L 54.390625 54.6875 
z
" id="DejaVuSans-103"/>
     </defs>
     <g transform="translate(91.978125 117.842803)scale(0.1 -0.1)">
      <use xlink:href="#DejaVuSans-116"/>
      <use x="39.208984" xlink:href="#DejaVuSans-97"/>
      <use x="100.488281" xlink:href="#DejaVuSans-114"/>
      <use x="141.585938" xlink:href="#DejaVuSans-103"/>
      <use x="205.0625" xlink:href="#DejaVuSans-101"/>
      <use x="266.585938" xlink:href="#DejaVuSans-116"/>
     </g>
    </g>
   </g>
  </g>
 </g>
 <defs>
  <clipPath id="pf31783bcd8">
   <rect height="117.373246" width="160.993529" x="54.978125" y="11.549244"/>
  </clipPath>
 </defs>
</svg>
