<?xml version="1.0" encoding="utf-8" standalone="no"?>
<!DOCTYPE svg PUBLIC "-//W3C//DTD SVG 1.1//EN"
  "http://www.w3.org/Graphics/SVG/1.1/DTD/svg11.dtd">
<!-- Created with matplotlib (https://matplotlib.org/) -->
<svg height="170.07874pt" version="1.1" viewBox="0 0 226.771654 170.07874" width="226.771654pt" xmlns="http://www.w3.org/2000/svg" xmlns:xlink="http://www.w3.org/1999/xlink">
 <defs>
  <style type="text/css">
*{stroke-linecap:butt;stroke-linejoin:round;}
  </style>
 </defs>
 <g id="figure_1">
  <g id="patch_1">
   <path d="M 0 170.07874 
L 226.771654 170.07874 
L 226.771654 0 
L 0 0 
z
" style="fill:#ffffff;"/>
  </g>
  <g id="axes_1">
   <g id="patch_2">
    <path d="M 54.978125 128.92249 
L 215.971654 128.92249 
L 215.971654 10.8 
L 54.978125 10.8 
z
" style="fill:#ffffff;"/>
   </g>
   <g id="matplotlib.axis_1">
    <g id="xtick_1">
     <g id="line2d_1">
      <path clip-path="url(#pdeb9f04d21)" d="M 62.751261 128.92249 
L 62.751261 10.8 
" style="fill:none;stroke:#b0b0b0;stroke-linecap:square;stroke-width:0.8;"/>
     </g>
     <g id="line2d_2">
      <defs>
       <path d="M 0 0 
L 0 3.5 
" id="m3bd0edf029" style="stroke:#000000;stroke-width:0.8;"/>
      </defs>
      <g>
       <use style="stroke:#000000;stroke-width:0.8;" x="62.751261" xlink:href="#m3bd0edf029" y="128.92249"/>
      </g>
     </g>
     <g id="text_1">
      <!-- $\mathdefault{10^{-3}}$ -->
      <defs>
       <path d="M 12.40625 8.296875 
L 28.515625 8.296875 
L 28.515625 63.921875 
L 10.984375 60.40625 
L 10.984375 69.390625 
L 28.421875 72.90625 
L 38.28125 72.90625 
L 38.28125 8.296875 
L 54.390625 8.296875 
L 54.390625 0 
L 12.40625 0 
z
" id="DejaVuSans-49"/>
       <path d="M 31.78125 66.40625 
Q 24.171875 66.40625 20.328125 58.90625 
Q 16.5 51.421875 16.5 36.375 
Q 16.5 21.390625 20.328125 13.890625 
Q 24.171875 6.390625 31.78125 6.390625 
Q 39.453125 6.390625 43.28125 13.890625 
Q 47.125 21.390625 47.125 36.375 
Q 47.125 51.421875 43.28125 58.90625 
Q 39.453125 66.40625 31.78125 66.40625 
z
M 31.78125 74.21875 
Q 44.046875 74.21875 50.515625 64.515625 
Q 56.984375 54.828125 56.984375 36.375 
Q 56.984375 17.96875 50.515625 8.265625 
Q 44.046875 -1.421875 31.78125 -1.421875 
Q 19.53125 -1.421875 13.0625 8.265625 
Q 6.59375 17.96875 6.59375 36.375 
Q 6.59375 54.828125 13.0625 64.515625 
Q 19.53125 74.21875 31.78125 74.21875 
z
" id="DejaVuSans-48"/>
       <path d="M 10.59375 35.5 
L 73.1875 35.5 
L 73.1875 27.203125 
L 10.59375 27.203125 
z
" id="DejaVuSans-8722"/>
       <path d="M 40.578125 39.3125 
Q 47.65625 37.796875 51.625 33 
Q 55.609375 28.21875 55.609375 21.1875 
Q 55.609375 10.40625 48.1875 4.484375 
Q 40.765625 -1.421875 27.09375 -1.421875 
Q 22.515625 -1.421875 17.65625 -0.515625 
Q 12.796875 0.390625 7.625 2.203125 
L 7.625 11.71875 
Q 11.71875 9.328125 16.59375 8.109375 
Q 21.484375 6.890625 26.8125 6.890625 
Q 36.078125 6.890625 40.9375 10.546875 
Q 45.796875 14.203125 45.796875 21.1875 
Q 45.796875 27.640625 41.28125 31.265625 
Q 36.765625 34.90625 28.71875 34.90625 
L 20.21875 34.90625 
L 20.21875 43.015625 
L 29.109375 43.015625 
Q 36.375 43.015625 40.234375 45.921875 
Q 44.09375 48.828125 44.09375 54.296875 
Q 44.09375 59.90625 40.109375 62.90625 
Q 36.140625 65.921875 28.71875 65.921875 
Q 24.65625 65.921875 20.015625 65.03125 
Q 15.375 64.15625 9.8125 62.3125 
L 9.8125 71.09375 
Q 15.4375 72.65625 20.34375 73.4375 
Q 25.25 74.21875 29.59375 74.21875 
Q 40.828125 74.21875 47.359375 69.109375 
Q 53.90625 64.015625 53.90625 55.328125 
Q 53.90625 49.265625 50.4375 45.09375 
Q 46.96875 40.921875 40.578125 39.3125 
z
" id="DejaVuSans-51"/>
      </defs>
      <g transform="translate(51.001261 143.520928)scale(0.1 -0.1)">
       <use transform="translate(0 0.765625)" xlink:href="#DejaVuSans-49"/>
       <use transform="translate(63.623047 0.765625)" xlink:href="#DejaVuSans-48"/>
       <use transform="translate(128.203125 39.046875)scale(0.7)" xlink:href="#DejaVuSans-8722"/>
       <use transform="translate(186.855469 39.046875)scale(0.7)" xlink:href="#DejaVuSans-51"/>
      </g>
     </g>
    </g>
    <g id="xtick_2">
     <g id="line2d_3">
      <path clip-path="url(#pdeb9f04d21)" d="M 106.950346 128.92249 
L 106.950346 10.8 
" style="fill:none;stroke:#b0b0b0;stroke-linecap:square;stroke-width:0.8;"/>
     </g>
     <g id="line2d_4">
      <g>
       <use style="stroke:#000000;stroke-width:0.8;" x="106.950346" xlink:href="#m3bd0edf029" y="128.92249"/>
      </g>
     </g>
     <g id="text_2">
      <!-- $\mathdefault{10^{-2}}$ -->
      <defs>
       <path d="M 19.1875 8.296875 
L 53.609375 8.296875 
L 53.609375 0 
L 7.328125 0 
L 7.328125 8.296875 
Q 12.9375 14.109375 22.625 23.890625 
Q 32.328125 33.6875 34.8125 36.53125 
Q 39.546875 41.84375 41.421875 45.53125 
Q 43.3125 49.21875 43.3125 52.78125 
Q 43.3125 58.59375 39.234375 62.25 
Q 35.15625 65.921875 28.609375 65.921875 
Q 23.96875 65.921875 18.8125 64.3125 
Q 13.671875 62.703125 7.8125 59.421875 
L 7.8125 69.390625 
Q 13.765625 71.78125 18.9375 73 
Q 24.125 74.21875 28.421875 74.21875 
Q 39.75 74.21875 46.484375 68.546875 
Q 53.21875 62.890625 53.21875 53.421875 
Q 53.21875 48.921875 51.53125 44.890625 
Q 49.859375 40.875 45.40625 35.40625 
Q 44.1875 33.984375 37.640625 27.21875 
Q 31.109375 20.453125 19.1875 8.296875 
z
" id="DejaVuSans-50"/>
      </defs>
      <g transform="translate(95.200346 143.520928)scale(0.1 -0.1)">
       <use transform="translate(0 0.765625)" xlink:href="#DejaVuSans-49"/>
       <use transform="translate(63.623047 0.765625)" xlink:href="#DejaVuSans-48"/>
       <use transform="translate(128.203125 39.046875)scale(0.7)" xlink:href="#DejaVuSans-8722"/>
       <use transform="translate(186.855469 39.046875)scale(0.7)" xlink:href="#DejaVuSans-50"/>
      </g>
     </g>
    </g>
    <g id="xtick_3">
     <g id="line2d_5">
      <path clip-path="url(#pdeb9f04d21)" d="M 151.149431 128.92249 
L 151.149431 10.8 
" style="fill:none;stroke:#b0b0b0;stroke-linecap:square;stroke-width:0.8;"/>
     </g>
     <g id="line2d_6">
      <g>
       <use style="stroke:#000000;stroke-width:0.8;" x="151.149431" xlink:href="#m3bd0edf029" y="128.92249"/>
      </g>
     </g>
     <g id="text_3">
      <!-- $\mathdefault{10^{-1}}$ -->
      <g transform="translate(139.399431 143.520928)scale(0.1 -0.1)">
       <use transform="translate(0 0.684375)" xlink:href="#DejaVuSans-49"/>
       <use transform="translate(63.623047 0.684375)" xlink:href="#DejaVuSans-48"/>
       <use transform="translate(128.203125 38.965625)scale(0.7)" xlink:href="#DejaVuSans-8722"/>
       <use transform="translate(186.855469 38.965625)scale(0.7)" xlink:href="#DejaVuSans-49"/>
      </g>
     </g>
    </g>
    <g id="xtick_4">
     <g id="line2d_7">
      <path clip-path="url(#pdeb9f04d21)" d="M 195.348516 128.92249 
L 195.348516 10.8 
" style="fill:none;stroke:#b0b0b0;stroke-linecap:square;stroke-width:0.8;"/>
     </g>
     <g id="line2d_8">
      <g>
       <use style="stroke:#000000;stroke-width:0.8;" x="195.348516" xlink:href="#m3bd0edf029" y="128.92249"/>
      </g>
     </g>
     <g id="text_4">
      <!-- $\mathdefault{10^{0}}$ -->
      <g transform="translate(186.548516 143.520928)scale(0.1 -0.1)">
       <use transform="translate(0 0.765625)" xlink:href="#DejaVuSans-49"/>
       <use transform="translate(63.623047 0.765625)" xlink:href="#DejaVuSans-48"/>
       <use transform="translate(128.203125 39.046875)scale(0.7)" xlink:href="#DejaVuSans-48"/>
      </g>
     </g>
    </g>
    <g id="xtick_5">
     <g id="line2d_9">
      <defs>
       <path d="M 0 0 
L 0 2 
" id="m165acb435a" style="stroke:#000000;stroke-width:0.6;"/>
      </defs>
      <g>
       <use style="stroke:#000000;stroke-width:0.6;" x="55.904736" xlink:href="#m165acb435a" y="128.92249"/>
      </g>
     </g>
    </g>
    <g id="xtick_6">
     <g id="line2d_10">
      <g>
       <use style="stroke:#000000;stroke-width:0.6;" x="58.467927" xlink:href="#m165acb435a" y="128.92249"/>
      </g>
     </g>
    </g>
    <g id="xtick_7">
     <g id="line2d_11">
      <g>
       <use style="stroke:#000000;stroke-width:0.6;" x="60.728822" xlink:href="#m165acb435a" y="128.92249"/>
      </g>
     </g>
    </g>
    <g id="xtick_8">
     <g id="line2d_12">
      <g>
       <use style="stroke:#000000;stroke-width:0.6;" x="76.056512" xlink:href="#m165acb435a" y="128.92249"/>
      </g>
     </g>
    </g>
    <g id="xtick_9">
     <g id="line2d_13">
      <g>
       <use style="stroke:#000000;stroke-width:0.6;" x="83.839584" xlink:href="#m165acb435a" y="128.92249"/>
      </g>
     </g>
    </g>
    <g id="xtick_10">
     <g id="line2d_14">
      <g>
       <use style="stroke:#000000;stroke-width:0.6;" x="89.361762" xlink:href="#m165acb435a" y="128.92249"/>
      </g>
     </g>
    </g>
    <g id="xtick_11">
     <g id="line2d_15">
      <g>
       <use style="stroke:#000000;stroke-width:0.6;" x="93.645096" xlink:href="#m165acb435a" y="128.92249"/>
      </g>
     </g>
    </g>
    <g id="xtick_12">
     <g id="line2d_16">
      <g>
       <use style="stroke:#000000;stroke-width:0.6;" x="97.144834" xlink:href="#m165acb435a" y="128.92249"/>
      </g>
     </g>
    </g>
    <g id="xtick_13">
     <g id="line2d_17">
      <g>
       <use style="stroke:#000000;stroke-width:0.6;" x="100.103821" xlink:href="#m165acb435a" y="128.92249"/>
      </g>
     </g>
    </g>
    <g id="xtick_14">
     <g id="line2d_18">
      <g>
       <use style="stroke:#000000;stroke-width:0.6;" x="102.667012" xlink:href="#m165acb435a" y="128.92249"/>
      </g>
     </g>
    </g>
    <g id="xtick_15">
     <g id="line2d_19">
      <g>
       <use style="stroke:#000000;stroke-width:0.6;" x="104.927907" xlink:href="#m165acb435a" y="128.92249"/>
      </g>
     </g>
    </g>
    <g id="xtick_16">
     <g id="line2d_20">
      <g>
       <use style="stroke:#000000;stroke-width:0.6;" x="120.255596" xlink:href="#m165acb435a" y="128.92249"/>
      </g>
     </g>
    </g>
    <g id="xtick_17">
     <g id="line2d_21">
      <g>
       <use style="stroke:#000000;stroke-width:0.6;" x="128.038669" xlink:href="#m165acb435a" y="128.92249"/>
      </g>
     </g>
    </g>
    <g id="xtick_18">
     <g id="line2d_22">
      <g>
       <use style="stroke:#000000;stroke-width:0.6;" x="133.560847" xlink:href="#m165acb435a" y="128.92249"/>
      </g>
     </g>
    </g>
    <g id="xtick_19">
     <g id="line2d_23">
      <g>
       <use style="stroke:#000000;stroke-width:0.6;" x="137.844181" xlink:href="#m165acb435a" y="128.92249"/>
      </g>
     </g>
    </g>
    <g id="xtick_20">
     <g id="line2d_24">
      <g>
       <use style="stroke:#000000;stroke-width:0.6;" x="141.343919" xlink:href="#m165acb435a" y="128.92249"/>
      </g>
     </g>
    </g>
    <g id="xtick_21">
     <g id="line2d_25">
      <g>
       <use style="stroke:#000000;stroke-width:0.6;" x="144.302906" xlink:href="#m165acb435a" y="128.92249"/>
      </g>
     </g>
    </g>
    <g id="xtick_22">
     <g id="line2d_26">
      <g>
       <use style="stroke:#000000;stroke-width:0.6;" x="146.866097" xlink:href="#m165acb435a" y="128.92249"/>
      </g>
     </g>
    </g>
    <g id="xtick_23">
     <g id="line2d_27">
      <g>
       <use style="stroke:#000000;stroke-width:0.6;" x="149.126992" xlink:href="#m165acb435a" y="128.92249"/>
      </g>
     </g>
    </g>
    <g id="xtick_24">
     <g id="line2d_28">
      <g>
       <use style="stroke:#000000;stroke-width:0.6;" x="164.454681" xlink:href="#m165acb435a" y="128.92249"/>
      </g>
     </g>
    </g>
    <g id="xtick_25">
     <g id="line2d_29">
      <g>
       <use style="stroke:#000000;stroke-width:0.6;" x="172.237754" xlink:href="#m165acb435a" y="128.92249"/>
      </g>
     </g>
    </g>
    <g id="xtick_26">
     <g id="line2d_30">
      <g>
       <use style="stroke:#000000;stroke-width:0.6;" x="177.759931" xlink:href="#m165acb435a" y="128.92249"/>
      </g>
     </g>
    </g>
    <g id="xtick_27">
     <g id="line2d_31">
      <g>
       <use style="stroke:#000000;stroke-width:0.6;" x="182.043265" xlink:href="#m165acb435a" y="128.92249"/>
      </g>
     </g>
    </g>
    <g id="xtick_28">
     <g id="line2d_32">
      <g>
       <use style="stroke:#000000;stroke-width:0.6;" x="185.543004" xlink:href="#m165acb435a" y="128.92249"/>
      </g>
     </g>
    </g>
    <g id="xtick_29">
     <g id="line2d_33">
      <g>
       <use style="stroke:#000000;stroke-width:0.6;" x="188.501991" xlink:href="#m165acb435a" y="128.92249"/>
      </g>
     </g>
    </g>
    <g id="xtick_30">
     <g id="line2d_34">
      <g>
       <use style="stroke:#000000;stroke-width:0.6;" x="191.065182" xlink:href="#m165acb435a" y="128.92249"/>
      </g>
     </g>
    </g>
    <g id="xtick_31">
     <g id="line2d_35">
      <g>
       <use style="stroke:#000000;stroke-width:0.6;" x="193.326076" xlink:href="#m165acb435a" y="128.92249"/>
      </g>
     </g>
    </g>
    <g id="xtick_32">
     <g id="line2d_36">
      <g>
       <use style="stroke:#000000;stroke-width:0.6;" x="208.653766" xlink:href="#m165acb435a" y="128.92249"/>
      </g>
     </g>
    </g>
    <g id="text_5">
     <!-- f (Hz) -->
     <defs>
      <path d="M 37.109375 75.984375 
L 37.109375 68.5 
L 28.515625 68.5 
Q 23.6875 68.5 21.796875 66.546875 
Q 19.921875 64.59375 19.921875 59.515625 
L 19.921875 54.6875 
L 34.71875 54.6875 
L 34.71875 47.703125 
L 19.921875 47.703125 
L 19.921875 0 
L 10.890625 0 
L 10.890625 47.703125 
L 2.296875 47.703125 
L 2.296875 54.6875 
L 10.890625 54.6875 
L 10.890625 58.5 
Q 10.890625 67.625 15.140625 71.796875 
Q 19.390625 75.984375 28.609375 75.984375 
z
" id="DejaVuSans-102"/>
      <path id="DejaVuSans-32"/>
      <path d="M 31 75.875 
Q 24.46875 64.65625 21.28125 53.65625 
Q 18.109375 42.671875 18.109375 31.390625 
Q 18.109375 20.125 21.3125 9.0625 
Q 24.515625 -2 31 -13.1875 
L 23.1875 -13.1875 
Q 15.875 -1.703125 12.234375 9.375 
Q 8.59375 20.453125 8.59375 31.390625 
Q 8.59375 42.28125 12.203125 53.3125 
Q 15.828125 64.359375 23.1875 75.875 
z
" id="DejaVuSans-40"/>
      <path d="M 9.8125 72.90625 
L 19.671875 72.90625 
L 19.671875 43.015625 
L 55.515625 43.015625 
L 55.515625 72.90625 
L 65.375 72.90625 
L 65.375 0 
L 55.515625 0 
L 55.515625 34.71875 
L 19.671875 34.71875 
L 19.671875 0 
L 9.8125 0 
z
" id="DejaVuSans-72"/>
      <path d="M 5.515625 54.6875 
L 48.1875 54.6875 
L 48.1875 46.484375 
L 14.40625 7.171875 
L 48.1875 7.171875 
L 48.1875 0 
L 4.296875 0 
L 4.296875 8.203125 
L 38.09375 47.515625 
L 5.515625 47.515625 
z
" id="DejaVuSans-122"/>
      <path d="M 8.015625 75.875 
L 15.828125 75.875 
Q 23.140625 64.359375 26.78125 53.3125 
Q 30.421875 42.28125 30.421875 31.390625 
Q 30.421875 20.453125 26.78125 9.375 
Q 23.140625 -1.703125 15.828125 -13.1875 
L 8.015625 -13.1875 
Q 14.5 -2 17.703125 9.0625 
Q 20.90625 20.125 20.90625 31.390625 
Q 20.90625 42.671875 17.703125 53.65625 
Q 14.5 64.65625 8.015625 75.875 
z
" id="DejaVuSans-41"/>
     </defs>
     <g transform="translate(121.839733 157.199053)scale(0.1 -0.1)">
      <use xlink:href="#DejaVuSans-102"/>
      <use x="35.205078" xlink:href="#DejaVuSans-32"/>
      <use x="66.992188" xlink:href="#DejaVuSans-40"/>
      <use x="106.005859" xlink:href="#DejaVuSans-72"/>
      <use x="181.201172" xlink:href="#DejaVuSans-122"/>
      <use x="233.691406" xlink:href="#DejaVuSans-41"/>
     </g>
    </g>
   </g>
   <g id="matplotlib.axis_2">
    <g id="ytick_1">
     <g id="line2d_37">
      <path clip-path="url(#pdeb9f04d21)" d="M 54.978125 111.76282 
L 215.971654 111.76282 
" style="fill:none;stroke:#b0b0b0;stroke-linecap:square;stroke-width:0.8;"/>
     </g>
     <g id="line2d_38">
      <defs>
       <path d="M 0 0 
L -3.5 0 
" id="m63e522ae94" style="stroke:#000000;stroke-width:0.8;"/>
      </defs>
      <g>
       <use style="stroke:#000000;stroke-width:0.8;" x="54.978125" xlink:href="#m63e522ae94" y="111.76282"/>
      </g>
     </g>
     <g id="text_6">
      <!-- $\mathdefault{10^{-3}}$ -->
      <g transform="translate(24.478125 115.562039)scale(0.1 -0.1)">
       <use transform="translate(0 0.765625)" xlink:href="#DejaVuSans-49"/>
       <use transform="translate(63.623047 0.765625)" xlink:href="#DejaVuSans-48"/>
       <use transform="translate(128.203125 39.046875)scale(0.7)" xlink:href="#DejaVuSans-8722"/>
       <use transform="translate(186.855469 39.046875)scale(0.7)" xlink:href="#DejaVuSans-51"/>
      </g>
     </g>
    </g>
    <g id="ytick_2">
     <g id="line2d_39">
      <path clip-path="url(#pdeb9f04d21)" d="M 54.978125 80.288863 
L 215.971654 80.288863 
" style="fill:none;stroke:#b0b0b0;stroke-linecap:square;stroke-width:0.8;"/>
     </g>
     <g id="line2d_40">
      <g>
       <use style="stroke:#000000;stroke-width:0.8;" x="54.978125" xlink:href="#m63e522ae94" y="80.288863"/>
      </g>
     </g>
     <g id="text_7">
      <!-- $\mathdefault{10^{-1}}$ -->
      <g transform="translate(24.478125 84.088082)scale(0.1 -0.1)">
       <use transform="translate(0 0.684375)" xlink:href="#DejaVuSans-49"/>
       <use transform="translate(63.623047 0.684375)" xlink:href="#DejaVuSans-48"/>
       <use transform="translate(128.203125 38.965625)scale(0.7)" xlink:href="#DejaVuSans-8722"/>
       <use transform="translate(186.855469 38.965625)scale(0.7)" xlink:href="#DejaVuSans-49"/>
      </g>
     </g>
    </g>
    <g id="ytick_3">
     <g id="line2d_41">
      <path clip-path="url(#pdeb9f04d21)" d="M 54.978125 48.814907 
L 215.971654 48.814907 
" style="fill:none;stroke:#b0b0b0;stroke-linecap:square;stroke-width:0.8;"/>
     </g>
     <g id="line2d_42">
      <g>
       <use style="stroke:#000000;stroke-width:0.8;" x="54.978125" xlink:href="#m63e522ae94" y="48.814907"/>
      </g>
     </g>
     <g id="text_8">
      <!-- $\mathdefault{10^{1}}$ -->
      <g transform="translate(30.378125 52.614125)scale(0.1 -0.1)">
       <use transform="translate(0 0.684375)" xlink:href="#DejaVuSans-49"/>
       <use transform="translate(63.623047 0.684375)" xlink:href="#DejaVuSans-48"/>
       <use transform="translate(128.203125 38.965625)scale(0.7)" xlink:href="#DejaVuSans-49"/>
      </g>
     </g>
    </g>
    <g id="ytick_4">
     <g id="line2d_43">
      <path clip-path="url(#pdeb9f04d21)" d="M 54.978125 17.34095 
L 215.971654 17.34095 
" style="fill:none;stroke:#b0b0b0;stroke-linecap:square;stroke-width:0.8;"/>
     </g>
     <g id="line2d_44">
      <g>
       <use style="stroke:#000000;stroke-width:0.8;" x="54.978125" xlink:href="#m63e522ae94" y="17.34095"/>
      </g>
     </g>
     <g id="text_9">
      <!-- $\mathdefault{10^{3}}$ -->
      <g transform="translate(30.378125 21.140169)scale(0.1 -0.1)">
       <use transform="translate(0 0.765625)" xlink:href="#DejaVuSans-49"/>
       <use transform="translate(63.623047 0.765625)" xlink:href="#DejaVuSans-48"/>
       <use transform="translate(128.203125 39.046875)scale(0.7)" xlink:href="#DejaVuSans-51"/>
      </g>
     </g>
    </g>
    <g id="text_10">
     <!-- S(f) (m^2/s) -->
     <defs>
      <path d="M 53.515625 70.515625 
L 53.515625 60.890625 
Q 47.90625 63.578125 42.921875 64.890625 
Q 37.9375 66.21875 33.296875 66.21875 
Q 25.25 66.21875 20.875 63.09375 
Q 16.5 59.96875 16.5 54.203125 
Q 16.5 49.359375 19.40625 46.890625 
Q 22.3125 44.4375 30.421875 42.921875 
L 36.375 41.703125 
Q 47.40625 39.59375 52.65625 34.296875 
Q 57.90625 29 57.90625 20.125 
Q 57.90625 9.515625 50.796875 4.046875 
Q 43.703125 -1.421875 29.984375 -1.421875 
Q 24.8125 -1.421875 18.96875 -0.25 
Q 13.140625 0.921875 6.890625 3.21875 
L 6.890625 13.375 
Q 12.890625 10.015625 18.65625 8.296875 
Q 24.421875 6.59375 29.984375 6.59375 
Q 38.421875 6.59375 43.015625 9.90625 
Q 47.609375 13.234375 47.609375 19.390625 
Q 47.609375 24.75 44.3125 27.78125 
Q 41.015625 30.8125 33.5 32.328125 
L 27.484375 33.5 
Q 16.453125 35.6875 11.515625 40.375 
Q 6.59375 45.0625 6.59375 53.421875 
Q 6.59375 63.09375 13.40625 68.65625 
Q 20.21875 74.21875 32.171875 74.21875 
Q 37.3125 74.21875 42.625 73.28125 
Q 47.953125 72.359375 53.515625 70.515625 
z
" id="DejaVuSans-83"/>
      <path d="M 52 44.1875 
Q 55.375 50.25 60.0625 53.125 
Q 64.75 56 71.09375 56 
Q 79.640625 56 84.28125 50.015625 
Q 88.921875 44.046875 88.921875 33.015625 
L 88.921875 0 
L 79.890625 0 
L 79.890625 32.71875 
Q 79.890625 40.578125 77.09375 44.375 
Q 74.3125 48.1875 68.609375 48.1875 
Q 61.625 48.1875 57.5625 43.546875 
Q 53.515625 38.921875 53.515625 30.90625 
L 53.515625 0 
L 44.484375 0 
L 44.484375 32.71875 
Q 44.484375 40.625 41.703125 44.40625 
Q 38.921875 48.1875 33.109375 48.1875 
Q 26.21875 48.1875 22.15625 43.53125 
Q 18.109375 38.875 18.109375 30.90625 
L 18.109375 0 
L 9.078125 0 
L 9.078125 54.6875 
L 18.109375 54.6875 
L 18.109375 46.1875 
Q 21.1875 51.21875 25.484375 53.609375 
Q 29.78125 56 35.6875 56 
Q 41.65625 56 45.828125 52.96875 
Q 50 49.953125 52 44.1875 
z
" id="DejaVuSans-109"/>
      <path d="M 46.6875 72.90625 
L 73.1875 45.703125 
L 63.375 45.703125 
L 41.890625 64.984375 
L 20.40625 45.703125 
L 10.59375 45.703125 
L 37.109375 72.90625 
z
" id="DejaVuSans-94"/>
      <path d="M 25.390625 72.90625 
L 33.6875 72.90625 
L 8.296875 -9.28125 
L 0 -9.28125 
z
" id="DejaVuSans-47"/>
      <path d="M 44.28125 53.078125 
L 44.28125 44.578125 
Q 40.484375 46.53125 36.375 47.5 
Q 32.28125 48.484375 27.875 48.484375 
Q 21.1875 48.484375 17.84375 46.4375 
Q 14.5 44.390625 14.5 40.28125 
Q 14.5 37.15625 16.890625 35.375 
Q 19.28125 33.59375 26.515625 31.984375 
L 29.59375 31.296875 
Q 39.15625 29.25 43.1875 25.515625 
Q 47.21875 21.78125 47.21875 15.09375 
Q 47.21875 7.46875 41.1875 3.015625 
Q 35.15625 -1.421875 24.609375 -1.421875 
Q 20.21875 -1.421875 15.453125 -0.5625 
Q 10.6875 0.296875 5.421875 2 
L 5.421875 11.28125 
Q 10.40625 8.6875 15.234375 7.390625 
Q 20.0625 6.109375 24.8125 6.109375 
Q 31.15625 6.109375 34.5625 8.28125 
Q 37.984375 10.453125 37.984375 14.40625 
Q 37.984375 18.0625 35.515625 20.015625 
Q 33.0625 21.96875 24.703125 23.78125 
L 21.578125 24.515625 
Q 13.234375 26.265625 9.515625 29.90625 
Q 5.8125 33.546875 5.8125 39.890625 
Q 5.8125 47.609375 11.28125 51.796875 
Q 16.75 56 26.8125 56 
Q 31.78125 56 36.171875 55.265625 
Q 40.578125 54.546875 44.28125 53.078125 
z
" id="DejaVuSans-115"/>
     </defs>
     <g transform="translate(18.398437 100.718276)rotate(-90)scale(0.1 -0.1)">
      <use xlink:href="#DejaVuSans-83"/>
      <use x="63.476562" xlink:href="#DejaVuSans-40"/>
      <use x="102.490234" xlink:href="#DejaVuSans-102"/>
      <use x="137.695312" xlink:href="#DejaVuSans-41"/>
      <use x="176.708984" xlink:href="#DejaVuSans-32"/>
      <use x="208.496094" xlink:href="#DejaVuSans-40"/>
      <use x="247.509766" xlink:href="#DejaVuSans-109"/>
      <use x="344.921875" xlink:href="#DejaVuSans-94"/>
      <use x="428.710938" xlink:href="#DejaVuSans-50"/>
      <use x="492.333984" xlink:href="#DejaVuSans-47"/>
      <use x="526.025391" xlink:href="#DejaVuSans-115"/>
      <use x="578.125" xlink:href="#DejaVuSans-41"/>
     </g>
    </g>
   </g>
   <g id="line2d_45">
    <path clip-path="url(#pdeb9f04d21)" d="M 62.296013 25.760408 
L 75.601263 33.740636 
L 83.384335 46.589257 
L 88.906513 21.808899 
L 93.189847 17.418455 
L 96.689586 16.847534 
L 99.648573 18.408807 
L 102.211764 30.644653 
L 104.472658 16.169204 
L 106.495097 17.303455 
L 108.324616 24.596945 
L 109.994836 34.698794 
L 111.531289 25.457678 
L 112.953823 36.61012 
L 114.27817 51.318249 
L 115.517014 47.037454 
L 116.680729 37.222558 
L 117.777909 44.262882 
L 118.815751 50.133344 
L 119.800348 35.359801 
L 120.736895 32.87474 
L 121.629867 25.776352 
L 122.483137 27.377225 
L 123.300086 26.050369 
L 124.083682 24.405405 
L 124.83654 27.916616 
L 125.560981 32.345209 
L 126.259073 32.001953 
L 126.932666 53.556373 
L 127.58342 35.337502 
L 128.212835 28.576877 
L 128.822264 32.534456 
L 129.412939 39.116865 
L 129.985979 28.446455 
L 130.542407 34.409446 
L 131.083159 75.00904 
L 131.609094 45.880969 
L 132.121002 32.368983 
L 132.619612 35.457207 
L 133.105598 36.447986 
L 133.579583 51.199788 
L 134.042146 36.42793 
L 134.493823 31.736533 
L 134.935117 36.630474 
L 135.366493 45.988563 
L 135.788387 37.614371 
L 136.201208 45.410034 
L 136.605337 47.630329 
L 137.001132 57.437382 
L 137.388932 41.367339 
L 137.769052 41.833293 
L 138.14179 37.709958 
L 138.507428 58.812003 
L 139.218451 46.304298 
L 139.564323 34.198824 
L 139.904074 36.280129 
L 140.237916 39.577757 
L 140.566051 47.4573 
L 140.88867 65.743492 
L 141.518085 34.930291 
L 141.825218 39.906953 
L 142.127514 67.675797 
L 142.425124 42.996652 
L 142.718189 38.170109 
L 143.291229 39.732651 
L 143.847657 45.370316 
L 144.119937 36.487928 
L 144.388409 36.54288 
L 144.653178 40.60369 
L 144.914344 50.638067 
L 145.172004 44.353921 
L 145.426252 43.803966 
L 145.677176 45.921169 
L 145.924862 46.015175 
L 146.169393 44.973832 
L 146.410848 52.033353 
L 146.649304 49.075818 
L 146.884833 40.198668 
L 147.117508 44.627996 
L 147.347396 54.77081 
L 147.574563 41.975338 
L 147.799074 41.334822 
L 148.020988 38.703981 
L 148.240367 39.130814 
L 148.457267 40.809233 
L 148.671743 40.937173 
L 148.883849 40.530255 
L 149.093637 39.228264 
L 149.301157 39.560513 
L 149.709586 49.883829 
L 149.910587 40.536763 
L 150.109505 42.619058 
L 150.306383 47.731246 
L 150.501262 46.115493 
L 150.885183 40.524026 
L 151.074302 42.774299 
L 151.261576 49.169858 
L 151.44704 46.172907 
L 151.63073 49.062882 
L 151.812678 81.468929 
L 152.171482 45.765969 
L 152.348399 44.592705 
L 152.523701 41.285537 
L 152.697416 44.883714 
L 152.869574 51.651508 
L 153.040201 42.291407 
L 153.209325 41.63053 
L 153.376971 41.630349 
L 153.871301 46.083622 
L 154.193921 58.703911 
L 154.511208 43.315989 
L 154.667906 48.93372 
L 154.977516 49.939779 
L 155.130468 45.66336 
L 155.282212 47.792256 
L 155.432765 44.160576 
L 155.582146 44.115563 
L 155.730374 46.525619 
L 155.877466 53.985434 
L 156.02344 48.520446 
L 156.168311 56.33442 
L 156.312098 54.560403 
L 156.454815 85.301839 
L 156.59648 71.215201 
L 156.87671 64.545148 
L 157.152908 43.825818 
L 157.425188 57.601851 
L 157.559893 49.724052 
L 157.693659 74.709127 
L 157.958428 47.969496 
L 158.089455 58.923715 
L 158.219594 50.246301 
L 158.348857 53.777893 
L 158.477255 53.363298 
L 158.604799 47.932693 
L 158.731502 47.499243 
L 158.857374 44.985966 
L 158.982426 46.287265 
L 159.230113 67.053162 
L 159.352768 57.374948 
L 159.474644 57.309044 
L 159.595751 48.382374 
L 159.716099 50.004149 
L 159.835697 49.673485 
L 159.954554 55.636009 
L 160.07268 69.083308 
L 160.306773 57.457501 
L 160.422758 56.450658 
L 160.652646 47.104148 
L 160.766566 47.274062 
L 160.879814 46.857761 
L 161.215602 59.84676 
L 161.326239 51.036762 
L 161.436241 51.544876 
L 161.545617 55.776827 
L 161.654374 50.519656 
L 161.762517 51.078632 
L 161.976993 57.034518 
L 162.083339 52.57702 
L 162.189099 65.617034 
L 162.29428 51.050565 
L 162.398888 51.86319 
L 162.502928 56.181631 
L 162.709332 79.754007 
L 162.913541 53.055312 
L 163.215837 67.258985 
L 163.315554 58.3143 
L 163.414755 59.683827 
L 163.513447 56.931514 
L 163.611633 57.659438 
L 163.70932 66.322528 
L 163.903215 52.794983 
L 163.999432 56.321152 
L 164.09517 49.397528 
L 164.285226 64.154006 
L 164.379552 63.572216 
L 164.473418 60.623312 
L 164.566826 53.168758 
L 164.75229 62.892562 
L 164.844355 56.310261 
L 164.93598 72.571896 
L 165.117929 48.856106 
L 165.298169 57.559183 
L 165.387658 53.229201 
L 165.476732 54.026085 
L 165.565394 75.889402 
L 165.7415 55.251333 
L 165.916005 54.403005 
L 166.088938 49.2197 
L 166.174824 51.327974 
L 166.260327 58.161917 
L 166.430199 51.440915 
L 166.514575 57.783549 
L 166.598581 54.979222 
L 166.682221 55.47095 
L 166.765499 64.874498 
L 166.848417 51.857447 
L 166.930978 52.79256 
L 167.013185 64.41199 
L 167.095042 61.180793 
L 167.176551 70.337202 
L 167.419023 55.116843 
L 167.499171 57.87019 
L 167.65847 50.853446 
L 167.737627 51.004574 
L 168.051028 57.341153 
L 168.128585 65.402465 
L 168.205831 55.556731 
L 168.282766 60.244397 
L 168.359395 55.926801 
L 168.51174 73.464518 
L 168.738015 56.651936 
L 168.812851 67.900238 
L 168.887396 53.717599 
L 168.961653 57.484856 
L 169.035624 87.859051 
L 169.109311 73.385691 
L 169.182716 86.439494 
L 169.32869 58.967911 
L 169.401262 60.452152 
L 169.473562 52.90769 
L 169.54559 53.371316 
L 169.68884 51.136141 
L 169.831029 62.013208 
L 169.90173 52.062734 
L 169.972172 53.287339 
L 170.042356 54.576828 
L 170.18196 75.964217 
L 170.251383 72.345432 
L 170.458158 52.142084 
L 170.594781 55.884855 
L 170.662729 53.987462 
L 170.730438 55.370259 
L 170.797909 65.39842 
L 170.865143 59.410474 
L 170.932143 58.219635 
L 170.99891 84.086065 
L 171.13175 59.969451 
L 171.197828 61.10491 
L 171.263678 54.293832 
L 171.329304 55.074297 
L 171.394706 54.564117 
L 171.524844 72.836258 
L 171.589585 61.0869 
L 171.654107 70.695986 
L 171.718413 97.727494 
L 171.782505 83.74711 
L 171.973506 56.052194 
L 172.036753 56.652263 
L 172.162625 82.930699 
L 172.287677 55.755169 
L 172.349899 56.469851 
L 172.411919 56.160625 
L 172.47374 58.927378 
L 172.535363 77.013631 
L 172.596788 67.134521 
L 172.658018 54.137351 
L 172.719053 55.911592 
L 172.779894 69.970711 
L 172.840543 68.1898 
L 172.901001 59.286322 
L 172.961269 62.062497 
L 173.021349 58.581881 
L 173.081241 73.791285 
L 173.140947 66.389061 
L 173.200468 63.59941 
L 173.259804 69.207106 
L 173.318958 66.775232 
L 173.37793 65.945749 
L 173.436722 68.386599 
L 173.495334 59.15544 
L 173.553768 65.500115 
L 173.670104 56.022916 
L 173.728009 56.119755 
L 173.785739 59.537149 
L 173.843297 76.106309 
L 173.900682 67.160779 
L 173.957897 59.257953 
L 174.014941 77.152285 
L 174.071816 58.96954 
L 174.128524 60.244171 
L 174.185064 66.491391 
L 174.241438 61.360832 
L 174.297647 56.813674 
L 174.353692 57.403404 
L 174.409574 58.561874 
L 174.520852 57.021266 
L 174.57625 59.306004 
L 174.631489 58.906201 
L 174.796258 55.287166 
L 174.850868 61.117736 
L 174.959624 83.737291 
L 175.067767 60.219649 
L 175.121612 63.383619 
L 175.228849 57.098151 
L 175.441543 66.396819 
L 175.49435 55.162735 
L 175.547012 56.319088 
L 175.59953 57.982939 
L 175.651905 56.244036 
L 175.704138 57.742261 
L 175.808178 70.054086 
L 175.859988 55.983775 
L 175.911658 58.887766 
L 176.065839 71.71859 
L 176.116958 59.54822 
L 176.218791 59.758906 
L 176.269506 72.284149 
L 176.320087 58.636231 
L 176.370534 55.505758 
L 176.42085 55.667744 
L 176.471034 57.188765 
L 176.571011 74.223812 
L 176.620804 65.538318 
L 176.670469 57.244788 
L 176.720006 57.417542 
L 176.769415 63.234499 
L 176.818697 57.268249 
L 177.01457 66.528429 
L 177.063228 66.284307 
L 177.111762 62.590117 
L 177.160175 73.3275 
L 177.208465 60.140648 
L 177.256634 70.355902 
L 177.352611 59.720747 
L 177.448111 74.02639 
L 177.495684 69.204903 
L 177.543138 62.271827 
L 177.590476 79.241505 
L 177.637697 67.01574 
L 177.684802 57.270581 
L 177.731793 61.936085 
L 177.778668 71.423203 
L 177.825429 57.083833 
L 177.872076 59.375159 
L 177.965033 86.747725 
L 178.057541 80.576428 
L 178.195473 57.267023 
L 178.24123 63.062514 
L 178.286879 71.960289 
L 178.33242 59.03732 
L 178.423179 60.4752 
L 178.558517 69.435324 
L 178.603419 59.319539 
L 178.648216 62.157156 
L 178.692908 70.299185 
L 178.781982 56.565096 
L 178.826365 60.350021 
L 178.870645 76.608962 
L 178.914823 72.988135 
L 179.046751 58.121432 
L 179.221256 89.449398 
L 179.264635 79.51429 
L 179.394189 61.620759 
L 179.43718 70.970343 
L 179.480074 113.345134 
L 179.522873 68.851921 
L 179.565577 59.040127 
L 179.650701 63.227338 
L 179.693122 76.521792 
L 179.73545 65.666799 
L 179.861874 58.368096 
L 180.029156 78.641236 
L 180.070749 72.706056 
L 180.112253 58.485658 
L 180.153667 62.617244 
L 180.194992 70.762196 
L 180.277376 66.050283 
L 180.318435 58.085453 
L 180.400292 61.87616 
L 180.44109 58.933513 
L 180.481802 60.641564 
L 180.562966 73.029406 
L 180.643789 72.507928 
L 180.764389 58.592859 
L 180.724273 72.878425 
L 180.804421 60.209632 
L 180.884236 66.168748 
L 180.924019 61.89098 
L 180.96372 60.09283 
L 181.003339 60.644833 
L 181.121708 70.102641 
L 181.200217 61.153281 
L 181.239352 62.601514 
L 181.278406 60.283438 
L 181.317382 62.43937 
L 181.433836 69.450954 
L 181.472497 91.100209 
L 181.511081 66.780997 
L 181.549587 63.62288 
L 181.588017 68.685736 
L 181.626369 87.737182 
L 181.664645 74.907013 
L 181.740969 58.901628 
L 181.779017 64.85896 
L 181.816991 74.111902 
L 181.892712 73.104498 
L 181.968136 61.179916 
L 182.005738 63.696624 
L 182.043265 64.852306 
L 182.08072 93.498107 
L 182.15541 69.317002 
L 182.192647 63.425394 
L 182.229811 71.833755 
L 182.266904 65.608513 
L 182.340875 63.365095 
L 182.377753 67.309178 
L 182.414562 66.360671 
L 182.451299 61.389705 
L 182.524564 65.27824 
L 182.597551 64.583834 
L 182.63394 71.520491 
L 182.706513 59.971442 
L 182.778812 61.837947 
L 182.81486 66.7273 
L 182.85084 98.906465 
L 182.922599 64.63443 
L 182.958377 78.041219 
L 183.029736 69.707553 
L 183.065316 72.599567 
L 183.10083 67.363391 
L 183.136279 94.360941 
L 183.20698 66.933903 
L 183.242234 73.351399 
L 183.277422 65.446462 
L 183.312547 67.928613 
L 183.382603 66.558871 
L 183.417535 60.945076 
L 183.48721 67.524219 
L 183.521953 89.520842 
L 183.591251 65.769787 
L 183.625806 80.51299 
L 183.69473 71.188723 
L 183.763408 62.409215 
L 183.797655 63.91009 
L 183.831841 79.213342 
L 183.900031 60.934573 
L 183.934035 60.093024 
L 183.967979 60.149209 
L 184.136806 83.96132 
L 184.170393 79.142073 
L 184.237393 60.582414 
L 184.270806 64.105493 
L 184.30416 74.691481 
L 184.337456 64.216913 
L 184.370695 60.029189 
L 184.437001 63.750516 
L 184.470068 62.618747 
L 184.503078 67.246718 
L 184.536032 62.551851 
L 184.568929 60.868692 
L 184.601769 63.567321 
L 184.667283 95.797862 
L 184.732573 79.600162 
L 184.797643 67.839197 
L 184.830095 72.834234 
L 184.862492 78.714694 
L 184.894835 69.904711 
L 184.927123 62.414574 
L 184.959357 67.232365 
L 184.991537 76.071954 
L 185.055736 63.810172 
L 185.087755 74.533928 
L 185.183493 60.830459 
L 185.2153 64.971752 
L 185.247054 82.761804 
L 185.310406 75.924659 
L 185.342003 66.793152 
L 185.405042 75.810128 
L 185.467875 65.185753 
L 185.499214 73.983352 
L 185.530503 75.728991 
L 185.686184 61.813654 
L 185.748105 66.706338 
L 185.871351 90.023738 
L 185.902039 83.952928 
L 185.963268 67.495622 
L 186.024303 75.26525 
L 186.085144 78.204353 
L 186.115493 81.469112 
L 186.26652 65.666235 
L 186.326599 91.312417 
L 186.386491 75.105389 
L 186.475981 66.034871 
L 186.446197 85.537734 
L 186.505718 67.428383 
L 186.535409 79.756887 
L 186.594654 67.555656 
L 186.624209 67.908646 
L 186.712599 80.979138 
L 186.800584 62.506261 
L 186.859018 62.614304 
L 186.888168 61.413953 
L 186.917274 61.517049 
L 186.975354 72.220219 
L 187.004328 83.336984 
L 187.062146 78.691062 
L 187.11979 62.877334 
L 187.148547 67.099778 
L 187.234561 89.296289 
L 187.29169 63.758811 
L 187.34865 74.76717 
L 187.377067 75.583857 
L 187.433774 63.295922 
L 187.462065 70.149487 
L 187.490314 95.909509 
L 187.546688 68.455231 
L 187.602898 62.291354 
L 187.630941 66.965361 
L 187.658943 79.838214 
L 187.742705 71.506941 
L 187.826103 67.02737 
L 187.936739 79.478707 
L 187.99182 63.290832 
L 188.046742 66.215664 
L 188.128832 91.453101 
L 188.156118 75.017494 
L 188.210573 70.547617 
L 188.237743 75.541087 
L 188.264874 82.225562 
L 188.291967 68.047685 
L 188.319022 65.130839 
L 188.399959 67.000843 
L 188.426862 69.947118 
L 188.453727 86.09333 
L 188.534099 67.945487 
L 188.560815 68.926612 
L 188.614136 80.522723 
L 188.667309 71.196982 
L 188.69384 62.617317 
L 188.773215 66.270706 
L 188.87854 82.563143 
L 188.904781 94.106477 
L 188.957156 73.837665 
L 189.009388 65.124339 
L 189.061479 69.136669 
L 189.165238 89.566941 
L 189.216908 63.416258 
L 189.294153 71.570881 
L 189.422209 63.833094 
L 189.473193 68.582142 
L 189.524041 63.391665 
L 189.549415 65.061409 
L 189.625337 63.640186 
L 189.675785 95.913214 
L 189.751209 96.199488 
L 189.801327 64.122601 
L 189.851316 80.679739 
L 189.901174 70.251619 
L 189.926054 112.094436 
L 189.975719 67.21829 
L 190.000503 69.124075 
L 190.099322 83.041655 
L 190.148541 67.125979 
L 190.222134 74.24436 
L 190.246602 98.737733 
L 190.31982 65.371992 
L 190.417013 64.386274 
L 190.561884 84.707089 
L 190.609933 64.062288 
L 190.681781 77.486426 
L 190.777162 64.286561 
L 190.800934 68.136149 
L 190.824676 75.476358 
L 190.848389 66.102231 
L 190.895726 66.18397 
L 190.919351 65.837951 
L 190.966515 85.571992 
L 191.013562 72.11348 
L 191.083918 78.158088 
L 191.130679 64.137832 
L 191.270283 78.143102 
L 191.339706 64.019662 
L 191.362791 70.715847 
L 191.431881 65.449971 
L 191.477803 82.319384 
L 191.523615 65.434209 
L 191.569319 76.607703 
L 191.59213 83.65022 
L 191.63767 65.556681 
L 191.683103 76.712066 
L 191.70578 73.396424 
L 191.728429 85.95558 
L 191.773648 69.242343 
L 191.796218 71.99725 
L 191.908669 66.270411 
L 191.931081 66.446458 
L 191.998158 70.687051 
L 192.065003 86.924723 
L 192.087232 70.18215 
L 192.131615 81.183197 
L 192.197997 65.272685 
L 192.26415 68.022993 
L 192.352001 105.555359 
L 192.373901 76.665543 
L 192.461252 66.371515 
L 192.439452 79.650326 
L 192.483028 72.735186 
L 192.526506 79.770563 
L 192.548208 65.116673 
L 192.591539 78.857876 
L 192.613167 66.930567 
L 192.677907 91.271181 
L 192.785325 67.632574 
L 192.828124 76.695733 
L 192.913437 87.827984 
L 192.870828 65.701914 
L 192.934706 85.288985 
L 193.019548 72.945141 
L 192.977174 90.09288 
L 193.0407 82.838028 
L 193.061828 89.394421 
L 193.082934 73.300706 
L 193.125075 82.335884 
L 193.271846 65.644967 
L 193.313575 82.76264 
L 193.417503 74.936869 
L 193.479591 66.605959 
L 193.500242 69.934266 
L 193.520871 79.916287 
L 193.603167 66.856582 
L 193.725952 80.746196 
L 193.685111 66.757326 
L 193.746341 75.412294 
L 193.847958 65.878533 
L 193.807375 77.184716 
L 193.868217 71.65563 
L 193.94904 81.712145 
L 193.908671 68.379529 
L 193.989324 77.222152 
L 194.029524 88.06095 
L 194.069639 74.614415 
L 194.089666 84.176699 
L 194.129656 66.187983 
L 194.189486 82.604047 
L 194.209388 88.795525 
L 194.24913 73.402358 
L 194.28879 80.713426 
L 194.367865 66.175821 
L 194.544602 95.084648 
L 194.603154 66.141582 
L 194.661529 67.060464 
L 194.680947 67.765059 
L 194.739086 76.568969 
L 194.777748 73.645307 
L 194.816331 66.714303 
L 194.874062 71.225643 
L 194.893267 77.634269 
L 194.912453 66.785983 
L 194.989005 76.280647 
L 195.084268 67.555701 
L 195.103264 69.237739 
L 195.122241 82.442928 
L 195.160139 66.624649 
L 195.197963 80.255682 
L 195.273387 66.882679 
L 195.292196 72.919965 
L 195.310988 84.874262 
L 195.38597 70.005285 
L 195.40467 74.923686 
L 195.442015 79.18135 
L 195.460661 68.015268 
L 195.497897 85.12981 
L 195.553617 74.459919 
L 195.590674 90.631758 
L 195.627659 67.501214 
L 195.664573 77.405315 
L 195.683004 76.255675 
L 195.701417 85.219089 
L 195.719812 70.391285 
L 195.774892 72.457005 
L 195.902801 67.104303 
L 195.975511 103.057937 
L 196.011763 74.647443 
L 196.084062 67.008535 
L 196.066013 83.018927 
L 196.102095 73.013002 
L 196.12011 110.894336 
L 196.174055 72.544179 
L 196.209934 79.718821 
L 196.263628 67.315711 
L 196.317172 71.628144 
L 196.352785 92.979453 
L 196.388332 69.290833 
L 196.441529 87.811344 
L 196.476912 67.899934 
L 196.565086 74.477742 
L 196.582673 71.903095 
L 196.635335 69.731968 
L 196.705327 89.830123 
L 196.757655 68.18601 
L 196.827203 72.014724 
L 196.844551 67.361289 
L 196.861884 73.039667 
L 196.931056 94.410847 
L 196.965549 72.604954 
L 196.982773 74.086325 
L 196.999981 70.658731 
L 197.017173 72.005642 
L 197.102905 94.928717 
L 197.068658 71.300579 
L 197.120006 76.010995 
L 197.205281 67.418696 
L 197.171217 84.206571 
L 197.239286 71.811482 
L 197.307114 69.842611 
L 197.357828 74.654388 
L 197.458857 68.099741 
L 197.475644 69.923742 
L 197.509173 77.481797 
L 197.576056 69.736336 
L 197.59274 68.726276 
L 197.60941 73.599193 
L 197.626066 81.553175 
L 197.675946 69.07202 
L 197.709127 70.290562 
L 197.824812 80.095394 
L 197.857737 75.122549 
L 197.874179 74.572207 
L 197.923419 103.650843 
L 197.972533 69.996268 
L 198.021522 83.704808 
L 198.119126 79.264832 
L 198.135345 75.241059 
L 198.183921 80.902938 
L 198.200085 76.687546 
L 198.216236 99.574904 
L 198.264608 76.512506 
L 198.312858 85.310213 
L 198.360986 71.270699 
L 198.408995 76.54391 
L 198.424971 107.284743 
L 198.47282 72.540765 
L 198.504653 76.376723 
L 198.52055 71.738994 
L 198.568162 79.823993 
L 198.584006 88.437398 
L 198.599838 72.113173 
L 198.663032 84.841453 
L 198.694552 73.303743 
L 198.72602 107.679144 
L 198.773125 74.431129 
L 198.804465 78.715662 
L 198.820115 71.665483 
L 198.851378 69.163854 
L 198.866991 75.434767 
L 198.88259 92.130477 
L 198.929313 69.405632 
L 198.975923 74.725664 
L 199.068804 73.857366 
L 199.115077 111.062981 
L 199.145864 69.607139 
L 199.237928 69.858173 
L 199.253229 69.865924 
L 199.405575 94.424326 
L 199.435899 69.081688 
L 199.526586 72.632739 
L 199.556721 95.057363 
L 199.586807 69.254623 
L 199.64684 77.036917 
L 199.661819 77.759231 
L 199.676786 100.290084 
L 199.751447 72.251622 
L 199.766345 77.597089 
L 199.781231 84.844642 
L 199.82582 70.110888 
L 199.870305 76.349996 
L 199.929459 73.10367 
L 199.899905 80.622795 
L 199.944219 74.014537 
L 200.017849 70.712512 
L 200.061892 93.726137 
L 200.105835 72.223489 
L 200.193418 76.501403 
L 200.222524 69.877926 
L 200.251586 85.198882 
L 200.280604 75.154546 
L 200.295097 123.553286 
L 200.367396 73.246 
L 200.381823 74.531808 
L 200.39624 70.031238 
L 200.46816 77.32978 
L 200.482511 78.443888 
L 200.496852 101.134773 
L 200.554109 74.555616 
L 200.582674 82.577791 
L 200.639676 72.545384 
L 200.625441 90.670282 
L 200.6539 76.093222 
L 200.668114 119.770374 
L 200.696509 72.499409 
L 200.753175 73.584368 
L 200.767315 75.392723 
L 200.795564 119.215263 
L 200.823772 72.004462 
L 200.880064 79.1233 
L 200.894111 71.688111 
L 200.922174 91.392432 
L 200.964193 90.024367 
L 200.978179 102.984813 
L 201.03402 71.110965 
L 201.06188 84.023087 
L 201.075795 72.050157 
L 201.131353 102.858655 
L 201.145217 109.538904 
L 201.172916 76.881907 
L 201.228195 72.538848 
L 201.255775 77.522392 
L 201.324551 96.171967 
L 201.310815 75.741532 
L 201.365698 87.577669 
L 201.44773 96.562723 
L 201.488615 71.306158 
L 201.583676 89.967507 
L 201.597218 82.480012 
L 201.61075 71.041357 
L 201.637786 111.381251 
L 201.664783 84.687071 
L 201.678268 120.482568 
L 201.732112 70.519249 
L 201.758978 71.679173 
L 201.812596 85.154491 
L 201.852712 76.189725 
L 201.866065 100.901066 
L 201.932693 72.498217 
L 201.959279 86.023544 
L 201.99909 84.447812 
L 201.985829 87.068575 
L 202.025585 84.842683 
L 202.10485 92.521796 
L 202.144361 71.586614 
L 202.210031 115.041723 
L 202.18379 71.302896 
L 202.249326 80.446619 
L 202.327674 70.71937 
L 202.275477 87.60203 
L 202.340701 75.545742 
L 202.405705 90.785686 
L 202.37973 72.222036 
L 202.457549 90.201643 
L 202.483419 72.426784 
L 202.535054 106.157655 
L 202.57369 73.004545 
L 202.599404 100.669706 
L 202.676339 78.242847 
L 202.752968 80.053076 
L 202.791168 71.00467 
L 202.816592 88.7268 
L 202.905313 72.11277 
L 202.981035 99.330558 
L 203.031351 80.025732 
L 203.043909 75.018621 
L 203.069001 94.319004 
L 203.119087 83.393397 
L 203.131588 96.974832 
L 203.169043 74.739732 
L 203.218868 92.754993 
L 203.34287 73.782411 
L 203.392248 73.745233 
L 203.441498 88.643593 
L 203.453791 72.727315 
L 203.539622 101.195878 
L 203.625071 76.495377 
L 203.661576 89.112734 
L 203.673728 100.874639 
L 203.758584 77.949546 
L 203.770675 92.470665 
L 203.867135 74.625104 
L 203.879158 80.47819 
L 203.963112 99.083704 
L 203.915183 75.543846 
L 203.975075 77.713763 
L 203.99898 71.18324 
L 204.034781 86.383164 
L 204.0467 83.276363 
L 204.058612 108.214325 
L 204.082413 82.02477 
L 204.153639 98.601028 
L 204.271765 72.313162 
L 204.200976 99.912823 
L 204.283538 74.871536 
L 204.330556 88.039051 
L 204.354023 71.931393 
L 204.400869 85.41895 
L 204.482577 75.130178 
L 204.517488 90.848835 
L 204.575533 73.924024 
L 204.656502 82.5664 
L 204.679574 89.888076 
L 204.702617 75.718525 
L 204.748622 84.782888 
L 204.840302 75.893453 
L 204.794517 95.606958 
L 204.851731 84.51537 
L 204.931546 79.763624 
L 204.942921 95.618598 
L 205.033679 72.250913 
L 205.056302 79.622604 
L 205.090186 85.625238 
L 205.146528 96.864758 
L 205.180253 73.788023 
L 205.191482 79.346425 
L 205.247527 118.274116 
L 205.281075 73.391575 
L 205.314566 93.828176 
L 205.347997 72.352353 
L 205.470085 74.516562 
L 205.481145 74.271606 
L 205.503247 91.037324 
L 205.547375 72.910842 
L 205.613376 89.18889 
L 205.624354 89.04427 
L 205.711955 96.103327 
L 205.744702 72.805792 
L 205.8643 98.563636 
L 205.875136 86.535002 
L 205.885965 76.079041 
L 205.961602 97.608229 
L 205.983158 78.454327 
L 206.026197 86.447514 
L 206.04768 73.965213 
L 206.07986 79.346006 
L 206.090575 74.887618 
L 206.133374 89.847493 
L 206.197394 76.017202 
L 206.314213 100.841851 
L 206.250582 72.988153 
L 206.34595 83.907192 
L 206.367079 73.226243 
L 206.430326 90.452317 
L 206.461871 75.925505 
L 206.472375 73.227539 
L 206.493365 81.183315 
L 206.524807 79.419606 
L 206.535276 88.51119 
L 206.597972 74.707326 
L 206.629244 87.072811 
L 206.68125 75.665605 
L 206.722753 92.028103 
L 206.743472 75.769907 
L 206.836428 97.146613 
L 206.867313 85.349229 
L 206.898149 74.336915 
L 206.949433 86.232839 
L 206.969908 78.512557 
L 207.0414 101.626014 
L 207.010793 73.870079 
L 207.071957 90.44766 
L 207.153208 73.952272 
L 207.173467 92.72346 
L 207.25429 99.556767 
L 207.193705 78.474699 
L 207.264369 90.968806 
L 207.314685 75.063705 
L 207.344811 110.618385 
L 207.37489 84.730493 
L 207.394916 79.241914 
L 207.404922 95.031022 
L 207.424917 74.218163 
L 207.494737 82.689605 
L 207.50469 74.044145 
L 207.524582 95.298664 
L 207.61384 74.222279 
L 207.682977 88.166826 
L 207.74204 84.068312 
L 207.840076 75.408375 
L 207.800922 109.95909 
L 207.849852 77.816174 
L 207.879151 93.691536 
L 207.957062 74.55533 
L 207.966779 74.275283 
L 208.063677 105.157935 
L 208.082998 81.508915 
L 208.092651 81.666026 
L 208.160088 98.006032 
L 208.198517 76.213884 
L 208.322884 99.744166 
L 208.23687 75.773921 
L 208.332417 92.11836 
L 208.370503 77.112396 
L 208.389518 98.185043 
L 208.436973 79.173923 
L 208.503213 105.660051 
L 208.474852 77.157962 
L 208.540962 96.120226 
L 208.559809 74.581514 
L 208.644391 77.660992 
" style="fill:none;stroke:#000000;stroke-linecap:square;stroke-width:0.8;"/>
   </g>
   <g id="line2d_46">
    <path clip-path="url(#pdeb9f04d21)" d="M 62.296013 24.805231 
L 75.601263 21.502153 
L 83.384335 20.711157 
L 88.906513 20.947671 
L 93.189847 21.644125 
L 96.689586 22.536002 
L 99.648573 23.49506 
L 104.472658 25.397905 
L 109.994836 27.970185 
L 115.517014 30.825413 
L 123.300086 35.130356 
L 135.366493 42.106198 
L 161.545617 57.571706 
L 208.653766 85.521433 
L 208.653766 85.521433 
" style="fill:none;stroke:#ff0000;stroke-linecap:square;stroke-width:2;"/>
   </g>
   <g id="patch_3">
    <path d="M 54.978125 128.92249 
L 54.978125 10.8 
" style="fill:none;stroke:#000000;stroke-linecap:square;stroke-linejoin:miter;stroke-width:0.8;"/>
   </g>
   <g id="patch_4">
    <path d="M 215.971654 128.92249 
L 215.971654 10.8 
" style="fill:none;stroke:#000000;stroke-linecap:square;stroke-linejoin:miter;stroke-width:0.8;"/>
   </g>
   <g id="patch_5">
    <path d="M 54.978125 128.92249 
L 215.971654 128.92249 
" style="fill:none;stroke:#000000;stroke-linecap:square;stroke-linejoin:miter;stroke-width:0.8;"/>
   </g>
   <g id="patch_6">
    <path d="M 54.978125 10.8 
L 215.971654 10.8 
" style="fill:none;stroke:#000000;stroke-linecap:square;stroke-linejoin:miter;stroke-width:0.8;"/>
   </g>
   <g id="legend_1">
    <g id="patch_7">
     <path d="M 61.978125 123.92249 
L 143.371875 123.92249 
Q 145.371875 123.92249 145.371875 121.92249 
L 145.371875 93.56624 
Q 145.371875 91.56624 143.371875 91.56624 
L 61.978125 91.56624 
Q 59.978125 91.56624 59.978125 93.56624 
L 59.978125 121.92249 
Q 59.978125 123.92249 61.978125 123.92249 
z
" style="fill:#ffffff;opacity:0.8;stroke:#cccccc;stroke-linejoin:miter;"/>
    </g>
    <g id="line2d_47">
     <path d="M 63.978125 99.664678 
L 83.978125 99.664678 
" style="fill:none;stroke:#000000;stroke-linecap:square;stroke-width:0.8;"/>
    </g>
    <g id="line2d_48"/>
    <g id="text_11">
     <!-- simulated -->
     <defs>
      <path d="M 9.421875 54.6875 
L 18.40625 54.6875 
L 18.40625 0 
L 9.421875 0 
z
M 9.421875 75.984375 
L 18.40625 75.984375 
L 18.40625 64.59375 
L 9.421875 64.59375 
z
" id="DejaVuSans-105"/>
      <path d="M 8.5 21.578125 
L 8.5 54.6875 
L 17.484375 54.6875 
L 17.484375 21.921875 
Q 17.484375 14.15625 20.5 10.265625 
Q 23.53125 6.390625 29.59375 6.390625 
Q 36.859375 6.390625 41.078125 11.03125 
Q 45.3125 15.671875 45.3125 23.6875 
L 45.3125 54.6875 
L 54.296875 54.6875 
L 54.296875 0 
L 45.3125 0 
L 45.3125 8.40625 
Q 42.046875 3.421875 37.71875 1 
Q 33.40625 -1.421875 27.6875 -1.421875 
Q 18.265625 -1.421875 13.375 4.4375 
Q 8.5 10.296875 8.5 21.578125 
z
M 31.109375 56 
z
" id="DejaVuSans-117"/>
      <path d="M 9.421875 75.984375 
L 18.40625 75.984375 
L 18.40625 0 
L 9.421875 0 
z
" id="DejaVuSans-108"/>
      <path d="M 34.28125 27.484375 
Q 23.390625 27.484375 19.1875 25 
Q 14.984375 22.515625 14.984375 16.5 
Q 14.984375 11.71875 18.140625 8.90625 
Q 21.296875 6.109375 26.703125 6.109375 
Q 34.1875 6.109375 38.703125 11.40625 
Q 43.21875 16.703125 43.21875 25.484375 
L 43.21875 27.484375 
z
M 52.203125 31.203125 
L 52.203125 0 
L 43.21875 0 
L 43.21875 8.296875 
Q 40.140625 3.328125 35.546875 0.953125 
Q 30.953125 -1.421875 24.3125 -1.421875 
Q 15.921875 -1.421875 10.953125 3.296875 
Q 6 8.015625 6 15.921875 
Q 6 25.140625 12.171875 29.828125 
Q 18.359375 34.515625 30.609375 34.515625 
L 43.21875 34.515625 
L 43.21875 35.40625 
Q 43.21875 41.609375 39.140625 45 
Q 35.0625 48.390625 27.6875 48.390625 
Q 23 48.390625 18.546875 47.265625 
Q 14.109375 46.140625 10.015625 43.890625 
L 10.015625 52.203125 
Q 14.9375 54.109375 19.578125 55.046875 
Q 24.21875 56 28.609375 56 
Q 40.484375 56 46.34375 49.84375 
Q 52.203125 43.703125 52.203125 31.203125 
z
" id="DejaVuSans-97"/>
      <path d="M 18.3125 70.21875 
L 18.3125 54.6875 
L 36.8125 54.6875 
L 36.8125 47.703125 
L 18.3125 47.703125 
L 18.3125 18.015625 
Q 18.3125 11.328125 20.140625 9.421875 
Q 21.96875 7.515625 27.59375 7.515625 
L 36.8125 7.515625 
L 36.8125 0 
L 27.59375 0 
Q 17.1875 0 13.234375 3.875 
Q 9.28125 7.765625 9.28125 18.015625 
L 9.28125 47.703125 
L 2.6875 47.703125 
L 2.6875 54.6875 
L 9.28125 54.6875 
L 9.28125 70.21875 
z
" id="DejaVuSans-116"/>
      <path d="M 56.203125 29.59375 
L 56.203125 25.203125 
L 14.890625 25.203125 
Q 15.484375 15.921875 20.484375 11.0625 
Q 25.484375 6.203125 34.421875 6.203125 
Q 39.59375 6.203125 44.453125 7.46875 
Q 49.3125 8.734375 54.109375 11.28125 
L 54.109375 2.78125 
Q 49.265625 0.734375 44.1875 -0.34375 
Q 39.109375 -1.421875 33.890625 -1.421875 
Q 20.796875 -1.421875 13.15625 6.1875 
Q 5.515625 13.8125 5.515625 26.8125 
Q 5.515625 40.234375 12.765625 48.109375 
Q 20.015625 56 32.328125 56 
Q 43.359375 56 49.78125 48.890625 
Q 56.203125 41.796875 56.203125 29.59375 
z
M 47.21875 32.234375 
Q 47.125 39.59375 43.09375 43.984375 
Q 39.0625 48.390625 32.421875 48.390625 
Q 24.90625 48.390625 20.390625 44.140625 
Q 15.875 39.890625 15.1875 32.171875 
z
" id="DejaVuSans-101"/>
      <path d="M 45.40625 46.390625 
L 45.40625 75.984375 
L 54.390625 75.984375 
L 54.390625 0 
L 45.40625 0 
L 45.40625 8.203125 
Q 42.578125 3.328125 38.25 0.953125 
Q 33.9375 -1.421875 27.875 -1.421875 
Q 17.96875 -1.421875 11.734375 6.484375 
Q 5.515625 14.40625 5.515625 27.296875 
Q 5.515625 40.1875 11.734375 48.09375 
Q 17.96875 56 27.875 56 
Q 33.9375 56 38.25 53.625 
Q 42.578125 51.265625 45.40625 46.390625 
z
M 14.796875 27.296875 
Q 14.796875 17.390625 18.875 11.75 
Q 22.953125 6.109375 30.078125 6.109375 
Q 37.203125 6.109375 41.296875 11.75 
Q 45.40625 17.390625 45.40625 27.296875 
Q 45.40625 37.203125 41.296875 42.84375 
Q 37.203125 48.484375 30.078125 48.484375 
Q 22.953125 48.484375 18.875 42.84375 
Q 14.796875 37.203125 14.796875 27.296875 
z
" id="DejaVuSans-100"/>
     </defs>
     <g transform="translate(91.978125 103.164678)scale(0.1 -0.1)">
      <use xlink:href="#DejaVuSans-115"/>
      <use x="52.099609" xlink:href="#DejaVuSans-105"/>
      <use x="79.882812" xlink:href="#DejaVuSans-109"/>
      <use x="177.294922" xlink:href="#DejaVuSans-117"/>
      <use x="240.673828" xlink:href="#DejaVuSans-108"/>
      <use x="268.457031" xlink:href="#DejaVuSans-97"/>
      <use x="329.736328" xlink:href="#DejaVuSans-116"/>
      <use x="368.945312" xlink:href="#DejaVuSans-101"/>
      <use x="430.46875" xlink:href="#DejaVuSans-100"/>
     </g>
    </g>
    <g id="line2d_49">
     <path d="M 63.978125 114.342803 
L 83.978125 114.342803 
" style="fill:none;stroke:#ff0000;stroke-linecap:square;stroke-width:2;"/>
    </g>
    <g id="line2d_50"/>
    <g id="text_12">
     <!-- target -->
     <defs>
      <path d="M 41.109375 46.296875 
Q 39.59375 47.171875 37.8125 47.578125 
Q 36.03125 48 33.890625 48 
Q 26.265625 48 22.1875 43.046875 
Q 18.109375 38.09375 18.109375 28.8125 
L 18.109375 0 
L 9.078125 0 
L 9.078125 54.6875 
L 18.109375 54.6875 
L 18.109375 46.1875 
Q 20.953125 51.171875 25.484375 53.578125 
Q 30.03125 56 36.53125 56 
Q 37.453125 56 38.578125 55.875 
Q 39.703125 55.765625 41.0625 55.515625 
z
" id="DejaVuSans-114"/>
      <path d="M 45.40625 27.984375 
Q 45.40625 37.75 41.375 43.109375 
Q 37.359375 48.484375 30.078125 48.484375 
Q 22.859375 48.484375 18.828125 43.109375 
Q 14.796875 37.75 14.796875 27.984375 
Q 14.796875 18.265625 18.828125 12.890625 
Q 22.859375 7.515625 30.078125 7.515625 
Q 37.359375 7.515625 41.375 12.890625 
Q 45.40625 18.265625 45.40625 27.984375 
z
M 54.390625 6.78125 
Q 54.390625 -7.171875 48.1875 -13.984375 
Q 42 -20.796875 29.203125 -20.796875 
Q 24.46875 -20.796875 20.265625 -20.09375 
Q 16.0625 -19.390625 12.109375 -17.921875 
L 12.109375 -9.1875 
Q 16.0625 -11.328125 19.921875 -12.34375 
Q 23.78125 -13.375 27.78125 -13.375 
Q 36.625 -13.375 41.015625 -8.765625 
Q 45.40625 -4.15625 45.40625 5.171875 
L 45.40625 9.625 
Q 42.625 4.78125 38.28125 2.390625 
Q 33.9375 0 27.875 0 
Q 17.828125 0 11.671875 7.65625 
Q 5.515625 15.328125 5.515625 27.984375 
Q 5.515625 40.671875 11.671875 48.328125 
Q 17.828125 56 27.875 56 
Q 33.9375 56 38.28125 53.609375 
Q 42.625 51.21875 45.40625 46.390625 
L 45.40625 54.6875 
L 54.390625 54.6875 
z
" id="DejaVuSans-103"/>
     </defs>
     <g transform="translate(91.978125 117.842803)scale(0.1 -0.1)">
      <use xlink:href="#DejaVuSans-116"/>
      <use x="39.208984" xlink:href="#DejaVuSans-97"/>
      <use x="100.488281" xlink:href="#DejaVuSans-114"/>
      <use x="141.585938" xlink:href="#DejaVuSans-103"/>
      <use x="205.0625" xlink:href="#DejaVuSans-101"/>
      <use x="266.585938" xlink:href="#DejaVuSans-116"/>
     </g>
    </g>
   </g>
  </g>
 </g>
 <defs>
  <clipPath id="pdeb9f04d21">
   <rect height="118.12249" width="160.993529" x="54.978125" y="10.8"/>
  </clipPath>
 </defs>
</svg>
