<?xml version="1.0" encoding="utf-8" standalone="no"?>
<!DOCTYPE svg PUBLIC "-//W3C//DTD SVG 1.1//EN"
  "http://www.w3.org/Graphics/SVG/1.1/DTD/svg11.dtd">
<!-- Created with matplotlib (https://matplotlib.org/) -->
<svg height="170.07874pt" version="1.1" viewBox="0 0 226.771654 170.07874" width="226.771654pt" xmlns="http://www.w3.org/2000/svg" xmlns:xlink="http://www.w3.org/1999/xlink">
 <defs>
  <style type="text/css">
*{stroke-linecap:butt;stroke-linejoin:round;}
  </style>
 </defs>
 <g id="figure_1">
  <g id="patch_1">
   <path d="M 0 170.07874 
L 226.771654 170.07874 
L 226.771654 0 
L 0 0 
z
" style="fill:#ffffff;"/>
  </g>
  <g id="axes_1">
   <g id="patch_2">
    <path d="M 54.978125 128.92249 
L 215.971654 128.92249 
L 215.971654 10.8 
L 54.978125 10.8 
z
" style="fill:#ffffff;"/>
   </g>
   <g id="matplotlib.axis_1">
    <g id="xtick_1">
     <g id="line2d_1">
      <path clip-path="url(#pae246ab8a5)" d="M 74.909803 128.92249 
L 74.909803 10.8 
" style="fill:none;stroke:#b0b0b0;stroke-linecap:square;stroke-width:0.8;"/>
     </g>
     <g id="line2d_2">
      <defs>
       <path d="M 0 0 
L 0 3.5 
" id="m322e050fd4" style="stroke:#000000;stroke-width:0.8;"/>
      </defs>
      <g>
       <use style="stroke:#000000;stroke-width:0.8;" x="74.909803" xlink:href="#m322e050fd4" y="128.92249"/>
      </g>
     </g>
     <g id="text_1">
      <!-- $\mathdefault{10^{-3}}$ -->
      <defs>
       <path d="M 12.40625 8.296875 
L 28.515625 8.296875 
L 28.515625 63.921875 
L 10.984375 60.40625 
L 10.984375 69.390625 
L 28.421875 72.90625 
L 38.28125 72.90625 
L 38.28125 8.296875 
L 54.390625 8.296875 
L 54.390625 0 
L 12.40625 0 
z
" id="DejaVuSans-49"/>
       <path d="M 31.78125 66.40625 
Q 24.171875 66.40625 20.328125 58.90625 
Q 16.5 51.421875 16.5 36.375 
Q 16.5 21.390625 20.328125 13.890625 
Q 24.171875 6.390625 31.78125 6.390625 
Q 39.453125 6.390625 43.28125 13.890625 
Q 47.125 21.390625 47.125 36.375 
Q 47.125 51.421875 43.28125 58.90625 
Q 39.453125 66.40625 31.78125 66.40625 
z
M 31.78125 74.21875 
Q 44.046875 74.21875 50.515625 64.515625 
Q 56.984375 54.828125 56.984375 36.375 
Q 56.984375 17.96875 50.515625 8.265625 
Q 44.046875 -1.421875 31.78125 -1.421875 
Q 19.53125 -1.421875 13.0625 8.265625 
Q 6.59375 17.96875 6.59375 36.375 
Q 6.59375 54.828125 13.0625 64.515625 
Q 19.53125 74.21875 31.78125 74.21875 
z
" id="DejaVuSans-48"/>
       <path d="M 10.59375 35.5 
L 73.1875 35.5 
L 73.1875 27.203125 
L 10.59375 27.203125 
z
" id="DejaVuSans-8722"/>
       <path d="M 40.578125 39.3125 
Q 47.65625 37.796875 51.625 33 
Q 55.609375 28.21875 55.609375 21.1875 
Q 55.609375 10.40625 48.1875 4.484375 
Q 40.765625 -1.421875 27.09375 -1.421875 
Q 22.515625 -1.421875 17.65625 -0.515625 
Q 12.796875 0.390625 7.625 2.203125 
L 7.625 11.71875 
Q 11.71875 9.328125 16.59375 8.109375 
Q 21.484375 6.890625 26.8125 6.890625 
Q 36.078125 6.890625 40.9375 10.546875 
Q 45.796875 14.203125 45.796875 21.1875 
Q 45.796875 27.640625 41.28125 31.265625 
Q 36.765625 34.90625 28.71875 34.90625 
L 20.21875 34.90625 
L 20.21875 43.015625 
L 29.109375 43.015625 
Q 36.375 43.015625 40.234375 45.921875 
Q 44.09375 48.828125 44.09375 54.296875 
Q 44.09375 59.90625 40.109375 62.90625 
Q 36.140625 65.921875 28.71875 65.921875 
Q 24.65625 65.921875 20.015625 65.03125 
Q 15.375 64.15625 9.8125 62.3125 
L 9.8125 71.09375 
Q 15.4375 72.65625 20.34375 73.4375 
Q 25.25 74.21875 29.59375 74.21875 
Q 40.828125 74.21875 47.359375 69.109375 
Q 53.90625 64.015625 53.90625 55.328125 
Q 53.90625 49.265625 50.4375 45.09375 
Q 46.96875 40.921875 40.578125 39.3125 
z
" id="DejaVuSans-51"/>
      </defs>
      <g transform="translate(63.159803 143.520928)scale(0.1 -0.1)">
       <use transform="translate(0 0.765625)" xlink:href="#DejaVuSans-49"/>
       <use transform="translate(63.623047 0.765625)" xlink:href="#DejaVuSans-48"/>
       <use transform="translate(128.203125 39.046875)scale(0.7)" xlink:href="#DejaVuSans-8722"/>
       <use transform="translate(186.855469 39.046875)scale(0.7)" xlink:href="#DejaVuSans-51"/>
      </g>
     </g>
    </g>
    <g id="xtick_2">
     <g id="line2d_3">
      <path clip-path="url(#pae246ab8a5)" d="M 115.425631 128.92249 
L 115.425631 10.8 
" style="fill:none;stroke:#b0b0b0;stroke-linecap:square;stroke-width:0.8;"/>
     </g>
     <g id="line2d_4">
      <g>
       <use style="stroke:#000000;stroke-width:0.8;" x="115.425631" xlink:href="#m322e050fd4" y="128.92249"/>
      </g>
     </g>
     <g id="text_2">
      <!-- $\mathdefault{10^{-2}}$ -->
      <defs>
       <path d="M 19.1875 8.296875 
L 53.609375 8.296875 
L 53.609375 0 
L 7.328125 0 
L 7.328125 8.296875 
Q 12.9375 14.109375 22.625 23.890625 
Q 32.328125 33.6875 34.8125 36.53125 
Q 39.546875 41.84375 41.421875 45.53125 
Q 43.3125 49.21875 43.3125 52.78125 
Q 43.3125 58.59375 39.234375 62.25 
Q 35.15625 65.921875 28.609375 65.921875 
Q 23.96875 65.921875 18.8125 64.3125 
Q 13.671875 62.703125 7.8125 59.421875 
L 7.8125 69.390625 
Q 13.765625 71.78125 18.9375 73 
Q 24.125 74.21875 28.421875 74.21875 
Q 39.75 74.21875 46.484375 68.546875 
Q 53.21875 62.890625 53.21875 53.421875 
Q 53.21875 48.921875 51.53125 44.890625 
Q 49.859375 40.875 45.40625 35.40625 
Q 44.1875 33.984375 37.640625 27.21875 
Q 31.109375 20.453125 19.1875 8.296875 
z
" id="DejaVuSans-50"/>
      </defs>
      <g transform="translate(103.675631 143.520928)scale(0.1 -0.1)">
       <use transform="translate(0 0.765625)" xlink:href="#DejaVuSans-49"/>
       <use transform="translate(63.623047 0.765625)" xlink:href="#DejaVuSans-48"/>
       <use transform="translate(128.203125 39.046875)scale(0.7)" xlink:href="#DejaVuSans-8722"/>
       <use transform="translate(186.855469 39.046875)scale(0.7)" xlink:href="#DejaVuSans-50"/>
      </g>
     </g>
    </g>
    <g id="xtick_3">
     <g id="line2d_5">
      <path clip-path="url(#pae246ab8a5)" d="M 155.941459 128.92249 
L 155.941459 10.8 
" style="fill:none;stroke:#b0b0b0;stroke-linecap:square;stroke-width:0.8;"/>
     </g>
     <g id="line2d_6">
      <g>
       <use style="stroke:#000000;stroke-width:0.8;" x="155.941459" xlink:href="#m322e050fd4" y="128.92249"/>
      </g>
     </g>
     <g id="text_3">
      <!-- $\mathdefault{10^{-1}}$ -->
      <g transform="translate(144.191459 143.520928)scale(0.1 -0.1)">
       <use transform="translate(0 0.684375)" xlink:href="#DejaVuSans-49"/>
       <use transform="translate(63.623047 0.684375)" xlink:href="#DejaVuSans-48"/>
       <use transform="translate(128.203125 38.965625)scale(0.7)" xlink:href="#DejaVuSans-8722"/>
       <use transform="translate(186.855469 38.965625)scale(0.7)" xlink:href="#DejaVuSans-49"/>
      </g>
     </g>
    </g>
    <g id="xtick_4">
     <g id="line2d_7">
      <path clip-path="url(#pae246ab8a5)" d="M 196.457286 128.92249 
L 196.457286 10.8 
" style="fill:none;stroke:#b0b0b0;stroke-linecap:square;stroke-width:0.8;"/>
     </g>
     <g id="line2d_8">
      <g>
       <use style="stroke:#000000;stroke-width:0.8;" x="196.457286" xlink:href="#m322e050fd4" y="128.92249"/>
      </g>
     </g>
     <g id="text_4">
      <!-- $\mathdefault{10^{0}}$ -->
      <g transform="translate(187.657286 143.520928)scale(0.1 -0.1)">
       <use transform="translate(0 0.765625)" xlink:href="#DejaVuSans-49"/>
       <use transform="translate(63.623047 0.765625)" xlink:href="#DejaVuSans-48"/>
       <use transform="translate(128.203125 39.046875)scale(0.7)" xlink:href="#DejaVuSans-48"/>
      </g>
     </g>
    </g>
    <g id="xtick_5">
     <g id="line2d_9">
      <defs>
       <path d="M 0 0 
L 0 2 
" id="m6ef2d508a3" style="stroke:#000000;stroke-width:0.6;"/>
      </defs>
      <g>
       <use style="stroke:#000000;stroke-width:0.6;" x="58.786935" xlink:href="#m6ef2d508a3" y="128.92249"/>
      </g>
     </g>
    </g>
    <g id="xtick_6">
     <g id="line2d_10">
      <g>
       <use style="stroke:#000000;stroke-width:0.6;" x="62.713324" xlink:href="#m6ef2d508a3" y="128.92249"/>
      </g>
     </g>
    </g>
    <g id="xtick_7">
     <g id="line2d_11">
      <g>
       <use style="stroke:#000000;stroke-width:0.6;" x="65.921418" xlink:href="#m6ef2d508a3" y="128.92249"/>
      </g>
     </g>
    </g>
    <g id="xtick_8">
     <g id="line2d_12">
      <g>
       <use style="stroke:#000000;stroke-width:0.6;" x="68.633822" xlink:href="#m6ef2d508a3" y="128.92249"/>
      </g>
     </g>
    </g>
    <g id="xtick_9">
     <g id="line2d_13">
      <g>
       <use style="stroke:#000000;stroke-width:0.6;" x="70.983414" xlink:href="#m6ef2d508a3" y="128.92249"/>
      </g>
     </g>
    </g>
    <g id="xtick_10">
     <g id="line2d_14">
      <g>
       <use style="stroke:#000000;stroke-width:0.6;" x="73.055901" xlink:href="#m6ef2d508a3" y="128.92249"/>
      </g>
     </g>
    </g>
    <g id="xtick_11">
     <g id="line2d_15">
      <g>
       <use style="stroke:#000000;stroke-width:0.6;" x="87.106283" xlink:href="#m6ef2d508a3" y="128.92249"/>
      </g>
     </g>
    </g>
    <g id="xtick_12">
     <g id="line2d_16">
      <g>
       <use style="stroke:#000000;stroke-width:0.6;" x="94.240766" xlink:href="#m6ef2d508a3" y="128.92249"/>
      </g>
     </g>
    </g>
    <g id="xtick_13">
     <g id="line2d_17">
      <g>
       <use style="stroke:#000000;stroke-width:0.6;" x="99.302762" xlink:href="#m6ef2d508a3" y="128.92249"/>
      </g>
     </g>
    </g>
    <g id="xtick_14">
     <g id="line2d_18">
      <g>
       <use style="stroke:#000000;stroke-width:0.6;" x="103.229152" xlink:href="#m6ef2d508a3" y="128.92249"/>
      </g>
     </g>
    </g>
    <g id="xtick_15">
     <g id="line2d_19">
      <g>
       <use style="stroke:#000000;stroke-width:0.6;" x="106.437245" xlink:href="#m6ef2d508a3" y="128.92249"/>
      </g>
     </g>
    </g>
    <g id="xtick_16">
     <g id="line2d_20">
      <g>
       <use style="stroke:#000000;stroke-width:0.6;" x="109.14965" xlink:href="#m6ef2d508a3" y="128.92249"/>
      </g>
     </g>
    </g>
    <g id="xtick_17">
     <g id="line2d_21">
      <g>
       <use style="stroke:#000000;stroke-width:0.6;" x="111.499242" xlink:href="#m6ef2d508a3" y="128.92249"/>
      </g>
     </g>
    </g>
    <g id="xtick_18">
     <g id="line2d_22">
      <g>
       <use style="stroke:#000000;stroke-width:0.6;" x="113.571728" xlink:href="#m6ef2d508a3" y="128.92249"/>
      </g>
     </g>
    </g>
    <g id="xtick_19">
     <g id="line2d_23">
      <g>
       <use style="stroke:#000000;stroke-width:0.6;" x="127.62211" xlink:href="#m6ef2d508a3" y="128.92249"/>
      </g>
     </g>
    </g>
    <g id="xtick_20">
     <g id="line2d_24">
      <g>
       <use style="stroke:#000000;stroke-width:0.6;" x="134.756594" xlink:href="#m6ef2d508a3" y="128.92249"/>
      </g>
     </g>
    </g>
    <g id="xtick_21">
     <g id="line2d_25">
      <g>
       <use style="stroke:#000000;stroke-width:0.6;" x="139.81859" xlink:href="#m6ef2d508a3" y="128.92249"/>
      </g>
     </g>
    </g>
    <g id="xtick_22">
     <g id="line2d_26">
      <g>
       <use style="stroke:#000000;stroke-width:0.6;" x="143.744979" xlink:href="#m6ef2d508a3" y="128.92249"/>
      </g>
     </g>
    </g>
    <g id="xtick_23">
     <g id="line2d_27">
      <g>
       <use style="stroke:#000000;stroke-width:0.6;" x="146.953073" xlink:href="#m6ef2d508a3" y="128.92249"/>
      </g>
     </g>
    </g>
    <g id="xtick_24">
     <g id="line2d_28">
      <g>
       <use style="stroke:#000000;stroke-width:0.6;" x="149.665478" xlink:href="#m6ef2d508a3" y="128.92249"/>
      </g>
     </g>
    </g>
    <g id="xtick_25">
     <g id="line2d_29">
      <g>
       <use style="stroke:#000000;stroke-width:0.6;" x="152.015069" xlink:href="#m6ef2d508a3" y="128.92249"/>
      </g>
     </g>
    </g>
    <g id="xtick_26">
     <g id="line2d_30">
      <g>
       <use style="stroke:#000000;stroke-width:0.6;" x="154.087556" xlink:href="#m6ef2d508a3" y="128.92249"/>
      </g>
     </g>
    </g>
    <g id="xtick_27">
     <g id="line2d_31">
      <g>
       <use style="stroke:#000000;stroke-width:0.6;" x="168.137938" xlink:href="#m6ef2d508a3" y="128.92249"/>
      </g>
     </g>
    </g>
    <g id="xtick_28">
     <g id="line2d_32">
      <g>
       <use style="stroke:#000000;stroke-width:0.6;" x="175.272421" xlink:href="#m6ef2d508a3" y="128.92249"/>
      </g>
     </g>
    </g>
    <g id="xtick_29">
     <g id="line2d_33">
      <g>
       <use style="stroke:#000000;stroke-width:0.6;" x="180.334418" xlink:href="#m6ef2d508a3" y="128.92249"/>
      </g>
     </g>
    </g>
    <g id="xtick_30">
     <g id="line2d_34">
      <g>
       <use style="stroke:#000000;stroke-width:0.6;" x="184.260807" xlink:href="#m6ef2d508a3" y="128.92249"/>
      </g>
     </g>
    </g>
    <g id="xtick_31">
     <g id="line2d_35">
      <g>
       <use style="stroke:#000000;stroke-width:0.6;" x="187.468901" xlink:href="#m6ef2d508a3" y="128.92249"/>
      </g>
     </g>
    </g>
    <g id="xtick_32">
     <g id="line2d_36">
      <g>
       <use style="stroke:#000000;stroke-width:0.6;" x="190.181305" xlink:href="#m6ef2d508a3" y="128.92249"/>
      </g>
     </g>
    </g>
    <g id="xtick_33">
     <g id="line2d_37">
      <g>
       <use style="stroke:#000000;stroke-width:0.6;" x="192.530897" xlink:href="#m6ef2d508a3" y="128.92249"/>
      </g>
     </g>
    </g>
    <g id="xtick_34">
     <g id="line2d_38">
      <g>
       <use style="stroke:#000000;stroke-width:0.6;" x="194.603384" xlink:href="#m6ef2d508a3" y="128.92249"/>
      </g>
     </g>
    </g>
    <g id="xtick_35">
     <g id="line2d_39">
      <g>
       <use style="stroke:#000000;stroke-width:0.6;" x="208.653766" xlink:href="#m6ef2d508a3" y="128.92249"/>
      </g>
     </g>
    </g>
    <g id="xtick_36">
     <g id="line2d_40">
      <g>
       <use style="stroke:#000000;stroke-width:0.6;" x="215.788249" xlink:href="#m6ef2d508a3" y="128.92249"/>
      </g>
     </g>
    </g>
    <g id="text_5">
     <!-- f (Hz) -->
     <defs>
      <path d="M 37.109375 75.984375 
L 37.109375 68.5 
L 28.515625 68.5 
Q 23.6875 68.5 21.796875 66.546875 
Q 19.921875 64.59375 19.921875 59.515625 
L 19.921875 54.6875 
L 34.71875 54.6875 
L 34.71875 47.703125 
L 19.921875 47.703125 
L 19.921875 0 
L 10.890625 0 
L 10.890625 47.703125 
L 2.296875 47.703125 
L 2.296875 54.6875 
L 10.890625 54.6875 
L 10.890625 58.5 
Q 10.890625 67.625 15.140625 71.796875 
Q 19.390625 75.984375 28.609375 75.984375 
z
" id="DejaVuSans-102"/>
      <path id="DejaVuSans-32"/>
      <path d="M 31 75.875 
Q 24.46875 64.65625 21.28125 53.65625 
Q 18.109375 42.671875 18.109375 31.390625 
Q 18.109375 20.125 21.3125 9.0625 
Q 24.515625 -2 31 -13.1875 
L 23.1875 -13.1875 
Q 15.875 -1.703125 12.234375 9.375 
Q 8.59375 20.453125 8.59375 31.390625 
Q 8.59375 42.28125 12.203125 53.3125 
Q 15.828125 64.359375 23.1875 75.875 
z
" id="DejaVuSans-40"/>
      <path d="M 9.8125 72.90625 
L 19.671875 72.90625 
L 19.671875 43.015625 
L 55.515625 43.015625 
L 55.515625 72.90625 
L 65.375 72.90625 
L 65.375 0 
L 55.515625 0 
L 55.515625 34.71875 
L 19.671875 34.71875 
L 19.671875 0 
L 9.8125 0 
z
" id="DejaVuSans-72"/>
      <path d="M 5.515625 54.6875 
L 48.1875 54.6875 
L 48.1875 46.484375 
L 14.40625 7.171875 
L 48.1875 7.171875 
L 48.1875 0 
L 4.296875 0 
L 4.296875 8.203125 
L 38.09375 47.515625 
L 5.515625 47.515625 
z
" id="DejaVuSans-122"/>
      <path d="M 8.015625 75.875 
L 15.828125 75.875 
Q 23.140625 64.359375 26.78125 53.3125 
Q 30.421875 42.28125 30.421875 31.390625 
Q 30.421875 20.453125 26.78125 9.375 
Q 23.140625 -1.703125 15.828125 -13.1875 
L 8.015625 -13.1875 
Q 14.5 -2 17.703125 9.0625 
Q 20.90625 20.125 20.90625 31.390625 
Q 20.90625 42.671875 17.703125 53.65625 
Q 14.5 64.65625 8.015625 75.875 
z
" id="DejaVuSans-41"/>
     </defs>
     <g transform="translate(121.839733 157.199053)scale(0.1 -0.1)">
      <use xlink:href="#DejaVuSans-102"/>
      <use x="35.205078" xlink:href="#DejaVuSans-32"/>
      <use x="66.992188" xlink:href="#DejaVuSans-40"/>
      <use x="106.005859" xlink:href="#DejaVuSans-72"/>
      <use x="181.201172" xlink:href="#DejaVuSans-122"/>
      <use x="233.691406" xlink:href="#DejaVuSans-41"/>
     </g>
    </g>
   </g>
   <g id="matplotlib.axis_2">
    <g id="ytick_1">
     <g id="line2d_41">
      <path clip-path="url(#pae246ab8a5)" d="M 54.978125 107.644353 
L 215.971654 107.644353 
" style="fill:none;stroke:#b0b0b0;stroke-linecap:square;stroke-width:0.8;"/>
     </g>
     <g id="line2d_42">
      <defs>
       <path d="M 0 0 
L -3.5 0 
" id="mcdc4bef9c5" style="stroke:#000000;stroke-width:0.8;"/>
      </defs>
      <g>
       <use style="stroke:#000000;stroke-width:0.8;" x="54.978125" xlink:href="#mcdc4bef9c5" y="107.644353"/>
      </g>
     </g>
     <g id="text_6">
      <!-- $\mathdefault{10^{-3}}$ -->
      <g transform="translate(24.478125 111.443571)scale(0.1 -0.1)">
       <use transform="translate(0 0.765625)" xlink:href="#DejaVuSans-49"/>
       <use transform="translate(63.623047 0.765625)" xlink:href="#DejaVuSans-48"/>
       <use transform="translate(128.203125 39.046875)scale(0.7)" xlink:href="#DejaVuSans-8722"/>
       <use transform="translate(186.855469 39.046875)scale(0.7)" xlink:href="#DejaVuSans-51"/>
      </g>
     </g>
    </g>
    <g id="ytick_2">
     <g id="line2d_43">
      <path clip-path="url(#pae246ab8a5)" d="M 54.978125 78.895307 
L 215.971654 78.895307 
" style="fill:none;stroke:#b0b0b0;stroke-linecap:square;stroke-width:0.8;"/>
     </g>
     <g id="line2d_44">
      <g>
       <use style="stroke:#000000;stroke-width:0.8;" x="54.978125" xlink:href="#mcdc4bef9c5" y="78.895307"/>
      </g>
     </g>
     <g id="text_7">
      <!-- $\mathdefault{10^{-1}}$ -->
      <g transform="translate(24.478125 82.694525)scale(0.1 -0.1)">
       <use transform="translate(0 0.684375)" xlink:href="#DejaVuSans-49"/>
       <use transform="translate(63.623047 0.684375)" xlink:href="#DejaVuSans-48"/>
       <use transform="translate(128.203125 38.965625)scale(0.7)" xlink:href="#DejaVuSans-8722"/>
       <use transform="translate(186.855469 38.965625)scale(0.7)" xlink:href="#DejaVuSans-49"/>
      </g>
     </g>
    </g>
    <g id="ytick_3">
     <g id="line2d_45">
      <path clip-path="url(#pae246ab8a5)" d="M 54.978125 50.14626 
L 215.971654 50.14626 
" style="fill:none;stroke:#b0b0b0;stroke-linecap:square;stroke-width:0.8;"/>
     </g>
     <g id="line2d_46">
      <g>
       <use style="stroke:#000000;stroke-width:0.8;" x="54.978125" xlink:href="#mcdc4bef9c5" y="50.14626"/>
      </g>
     </g>
     <g id="text_8">
      <!-- $\mathdefault{10^{1}}$ -->
      <g transform="translate(30.378125 53.945479)scale(0.1 -0.1)">
       <use transform="translate(0 0.684375)" xlink:href="#DejaVuSans-49"/>
       <use transform="translate(63.623047 0.684375)" xlink:href="#DejaVuSans-48"/>
       <use transform="translate(128.203125 38.965625)scale(0.7)" xlink:href="#DejaVuSans-49"/>
      </g>
     </g>
    </g>
    <g id="ytick_4">
     <g id="line2d_47">
      <path clip-path="url(#pae246ab8a5)" d="M 54.978125 21.397214 
L 215.971654 21.397214 
" style="fill:none;stroke:#b0b0b0;stroke-linecap:square;stroke-width:0.8;"/>
     </g>
     <g id="line2d_48">
      <g>
       <use style="stroke:#000000;stroke-width:0.8;" x="54.978125" xlink:href="#mcdc4bef9c5" y="21.397214"/>
      </g>
     </g>
     <g id="text_9">
      <!-- $\mathdefault{10^{3}}$ -->
      <g transform="translate(30.378125 25.196433)scale(0.1 -0.1)">
       <use transform="translate(0 0.765625)" xlink:href="#DejaVuSans-49"/>
       <use transform="translate(63.623047 0.765625)" xlink:href="#DejaVuSans-48"/>
       <use transform="translate(128.203125 39.046875)scale(0.7)" xlink:href="#DejaVuSans-51"/>
      </g>
     </g>
    </g>
    <g id="text_10">
     <!-- S(f) (m^2/s) -->
     <defs>
      <path d="M 53.515625 70.515625 
L 53.515625 60.890625 
Q 47.90625 63.578125 42.921875 64.890625 
Q 37.9375 66.21875 33.296875 66.21875 
Q 25.25 66.21875 20.875 63.09375 
Q 16.5 59.96875 16.5 54.203125 
Q 16.5 49.359375 19.40625 46.890625 
Q 22.3125 44.4375 30.421875 42.921875 
L 36.375 41.703125 
Q 47.40625 39.59375 52.65625 34.296875 
Q 57.90625 29 57.90625 20.125 
Q 57.90625 9.515625 50.796875 4.046875 
Q 43.703125 -1.421875 29.984375 -1.421875 
Q 24.8125 -1.421875 18.96875 -0.25 
Q 13.140625 0.921875 6.890625 3.21875 
L 6.890625 13.375 
Q 12.890625 10.015625 18.65625 8.296875 
Q 24.421875 6.59375 29.984375 6.59375 
Q 38.421875 6.59375 43.015625 9.90625 
Q 47.609375 13.234375 47.609375 19.390625 
Q 47.609375 24.75 44.3125 27.78125 
Q 41.015625 30.8125 33.5 32.328125 
L 27.484375 33.5 
Q 16.453125 35.6875 11.515625 40.375 
Q 6.59375 45.0625 6.59375 53.421875 
Q 6.59375 63.09375 13.40625 68.65625 
Q 20.21875 74.21875 32.171875 74.21875 
Q 37.3125 74.21875 42.625 73.28125 
Q 47.953125 72.359375 53.515625 70.515625 
z
" id="DejaVuSans-83"/>
      <path d="M 52 44.1875 
Q 55.375 50.25 60.0625 53.125 
Q 64.75 56 71.09375 56 
Q 79.640625 56 84.28125 50.015625 
Q 88.921875 44.046875 88.921875 33.015625 
L 88.921875 0 
L 79.890625 0 
L 79.890625 32.71875 
Q 79.890625 40.578125 77.09375 44.375 
Q 74.3125 48.1875 68.609375 48.1875 
Q 61.625 48.1875 57.5625 43.546875 
Q 53.515625 38.921875 53.515625 30.90625 
L 53.515625 0 
L 44.484375 0 
L 44.484375 32.71875 
Q 44.484375 40.625 41.703125 44.40625 
Q 38.921875 48.1875 33.109375 48.1875 
Q 26.21875 48.1875 22.15625 43.53125 
Q 18.109375 38.875 18.109375 30.90625 
L 18.109375 0 
L 9.078125 0 
L 9.078125 54.6875 
L 18.109375 54.6875 
L 18.109375 46.1875 
Q 21.1875 51.21875 25.484375 53.609375 
Q 29.78125 56 35.6875 56 
Q 41.65625 56 45.828125 52.96875 
Q 50 49.953125 52 44.1875 
z
" id="DejaVuSans-109"/>
      <path d="M 46.6875 72.90625 
L 73.1875 45.703125 
L 63.375 45.703125 
L 41.890625 64.984375 
L 20.40625 45.703125 
L 10.59375 45.703125 
L 37.109375 72.90625 
z
" id="DejaVuSans-94"/>
      <path d="M 25.390625 72.90625 
L 33.6875 72.90625 
L 8.296875 -9.28125 
L 0 -9.28125 
z
" id="DejaVuSans-47"/>
      <path d="M 44.28125 53.078125 
L 44.28125 44.578125 
Q 40.484375 46.53125 36.375 47.5 
Q 32.28125 48.484375 27.875 48.484375 
Q 21.1875 48.484375 17.84375 46.4375 
Q 14.5 44.390625 14.5 40.28125 
Q 14.5 37.15625 16.890625 35.375 
Q 19.28125 33.59375 26.515625 31.984375 
L 29.59375 31.296875 
Q 39.15625 29.25 43.1875 25.515625 
Q 47.21875 21.78125 47.21875 15.09375 
Q 47.21875 7.46875 41.1875 3.015625 
Q 35.15625 -1.421875 24.609375 -1.421875 
Q 20.21875 -1.421875 15.453125 -0.5625 
Q 10.6875 0.296875 5.421875 2 
L 5.421875 11.28125 
Q 10.40625 8.6875 15.234375 7.390625 
Q 20.0625 6.109375 24.8125 6.109375 
Q 31.15625 6.109375 34.5625 8.28125 
Q 37.984375 10.453125 37.984375 14.40625 
Q 37.984375 18.0625 35.515625 20.015625 
Q 33.0625 21.96875 24.703125 23.78125 
L 21.578125 24.515625 
Q 13.234375 26.265625 9.515625 29.90625 
Q 5.8125 33.546875 5.8125 39.890625 
Q 5.8125 47.609375 11.28125 51.796875 
Q 16.75 56 26.8125 56 
Q 31.78125 56 36.171875 55.265625 
Q 40.578125 54.546875 44.28125 53.078125 
z
" id="DejaVuSans-115"/>
     </defs>
     <g transform="translate(18.398437 100.718276)rotate(-90)scale(0.1 -0.1)">
      <use xlink:href="#DejaVuSans-83"/>
      <use x="63.476562" xlink:href="#DejaVuSans-40"/>
      <use x="102.490234" xlink:href="#DejaVuSans-102"/>
      <use x="137.695312" xlink:href="#DejaVuSans-41"/>
      <use x="176.708984" xlink:href="#DejaVuSans-32"/>
      <use x="208.496094" xlink:href="#DejaVuSans-40"/>
      <use x="247.509766" xlink:href="#DejaVuSans-109"/>
      <use x="344.921875" xlink:href="#DejaVuSans-94"/>
      <use x="428.710938" xlink:href="#DejaVuSans-50"/>
      <use x="492.333984" xlink:href="#DejaVuSans-47"/>
      <use x="526.025391" xlink:href="#DejaVuSans-115"/>
      <use x="578.125" xlink:href="#DejaVuSans-41"/>
     </g>
    </g>
   </g>
   <g id="line2d_49">
    <path clip-path="url(#pae246ab8a5)" d="M 62.296013 32.140068 
L 74.492492 39.764587 
L 81.626975 45.603704 
L 86.688972 24.588042 
L 90.615361 20.070437 
L 93.823455 18.436282 
L 96.535859 19.602301 
L 98.885451 28.918947 
L 100.957938 16.169204 
L 102.81184 16.864551 
L 104.488899 23.268741 
L 106.019934 31.606431 
L 107.42835 23.480574 
L 108.732339 33.497585 
L 109.946323 46.442533 
L 111.08193 42.282045 
L 112.148669 33.591921 
L 114.105773 45.160595 
L 115.00832 31.486131 
L 115.866822 29.165775 
L 116.685379 22.624086 
L 117.467543 24.04305 
L 118.216414 22.76777 
L 118.934709 21.226771 
L 119.624829 24.400541 
L 120.2889 28.390167 
L 120.928818 28.06857 
L 121.546278 47.709659 
L 122.142803 31.025332 
L 122.719766 24.844084 
L 123.27841 28.442004 
L 123.819862 34.413521 
L 124.345149 24.658472 
L 124.855207 30.101863 
L 125.350897 67.217571 
L 125.833004 40.515405 
L 126.302253 28.179222 
L 126.759312 30.989735 
L 127.204799 31.88428 
L 127.639286 45.327139 
L 128.063301 31.840397 
L 128.477339 27.54495 
L 128.881858 32.012818 
L 129.277286 40.532348 
L 129.664022 32.892809 
L 130.042441 39.99918 
L 130.412893 42.029255 
L 130.775706 50.958362 
L 131.131189 36.290135 
L 131.479632 36.706075 
L 131.821308 32.939036 
L 132.156477 52.214272 
L 132.808248 40.766645 
L 133.125298 29.710337 
L 133.436736 31.608313 
L 133.742757 34.615374 
L 134.043548 41.81153 
L 134.339282 58.510334 
L 134.916246 30.355549 
L 135.197784 34.900168 
L 135.474889 60.247808 
L 135.747698 37.713174 
L 136.016341 33.303512 
L 136.541628 34.725289 
L 137.051687 39.868671 
L 137.301277 31.754222 
L 137.547376 31.802494 
L 137.790081 35.510189 
L 138.029483 44.672054 
L 138.265672 38.931339 
L 138.498732 38.427262 
L 138.728746 40.359135 
L 138.955792 40.443372 
L 139.179945 39.490305 
L 139.401279 45.938319 
L 139.619863 43.23309 
L 139.835765 35.124006 
L 140.04905 39.169311 
L 140.259781 48.430838 
L 140.468017 36.742815 
L 140.673819 36.156511 
L 140.877241 33.752152 
L 141.078338 34.141082 
L 141.277162 35.67285 
L 141.473765 35.788672 
L 141.668196 35.41589 
L 141.860502 34.225527 
L 142.050729 34.528079 
L 142.425121 43.954895 
L 142.609372 35.416916 
L 142.791714 37.318222 
L 142.972185 41.986926 
L 143.150824 40.50979 
L 143.502752 35.400995 
L 143.676111 37.455989 
L 143.847779 43.296753 
L 144.017788 40.558539 
L 144.18617 43.198261 
L 144.352956 72.7982 
L 144.681859 40.184221 
L 144.844034 39.11184 
L 145.004727 36.090486 
L 145.163966 39.376708 
L 145.321777 45.557609 
L 145.478185 37.007432 
L 145.633215 36.403348 
L 145.786891 36.402574 
L 146.240027 40.468825 
L 146.535762 51.995121 
L 146.826608 37.938882 
L 146.970248 43.070028 
L 147.254057 43.987863 
L 147.394264 40.081328 
L 147.533362 42.025508 
L 147.671369 38.707891 
L 147.808302 38.666362 
L 147.944177 40.867496 
L 148.079012 47.680976 
L 148.212821 42.688796 
L 148.34562 49.825824 
L 148.477424 48.205444 
L 148.608249 76.285094 
L 148.867015 60.972544 
L 148.994985 57.323739 
L 149.248166 38.398023 
L 149.497756 50.980436 
L 149.621236 43.784879 
L 149.743855 66.607072 
L 149.98656 42.181315 
L 150.106668 52.187009 
L 150.225962 44.260445 
L 150.344453 47.486168 
L 150.462151 47.107006 
L 150.695212 41.750245 
L 150.810594 39.454383 
L 150.925225 40.642791 
L 151.152271 59.609923 
L 151.376424 50.709325 
L 151.487439 42.555408 
L 151.597758 44.036686 
L 151.70739 43.734345 
L 151.816342 49.180625 
L 151.924624 61.463498 
L 152.13921 50.843746 
L 152.245529 49.92376 
L 152.45626 41.38621 
L 152.560687 41.541232 
L 152.664497 41.160809 
L 152.972303 53.024773 
L 153.07372 44.977332 
L 153.174556 45.441386 
L 153.274817 49.306646 
L 153.37451 44.504607 
L 153.473642 45.015001 
L 153.670245 50.454829 
L 153.767729 46.383339 
L 153.864676 58.293922 
L 153.961091 44.988663 
L 154.056981 45.730813 
L 154.152352 49.675364 
L 154.341556 71.206403 
L 154.528747 46.819144 
L 154.805852 59.792489 
L 154.897259 51.622322 
L 154.988193 52.873159 
L 155.07866 50.359027 
L 155.168665 51.023854 
L 155.258211 58.936707 
L 155.435948 46.580237 
L 155.524147 49.800911 
L 155.611907 43.476675 
L 155.786125 56.955398 
L 155.872591 56.423907 
L 155.958634 53.730044 
L 156.044258 46.920945 
L 156.214267 55.802587 
L 156.29866 49.790203 
L 156.382649 64.643624 
L 156.549436 42.981107 
L 156.714656 50.93052 
L 156.796687 46.975329 
L 156.878339 47.703174 
L 156.959613 67.673256 
L 157.121043 48.822072 
L 157.281006 48.047028 
L 157.439528 43.312349 
L 157.518256 45.238015 
L 157.596634 51.480231 
L 157.75235 45.340962 
L 157.829695 51.134421 
L 157.9067 48.572782 
L 157.983371 49.021913 
L 158.059708 57.611142 
L 158.135716 45.72109 
L 158.211397 46.575191 
L 158.286754 57.188573 
L 158.36179 54.237103 
L 158.436507 62.600644 
L 158.658772 48.697876 
L 158.732241 51.212773 
L 158.878265 44.803405 
L 159.023088 46.01563 
L 159.309204 58.092384 
L 159.380013 49.099123 
L 159.450537 53.38083 
L 159.52078 49.437039 
L 159.66043 65.45624 
L 159.867848 50.099163 
L 159.936448 60.373459 
L 160.004781 47.418739 
L 160.07285 50.859816 
L 160.140657 78.60395 
L 160.208203 65.383922 
L 160.275491 77.30746 
L 160.4093 52.214237 
L 160.475825 53.569893 
L 160.542099 46.678583 
L 160.608125 47.102033 
L 160.739437 45.060286 
L 160.869777 54.995542 
L 160.934587 45.906529 
L 160.999159 47.02508 
L 161.063494 48.202878 
L 161.191464 67.73846 
L 161.255102 64.433044 
L 161.444646 45.978693 
L 161.569883 49.397355 
L 161.632169 47.664198 
L 161.694236 48.927249 
L 161.756084 58.087167 
L 161.817716 52.617578 
L 161.879132 51.529847 
L 161.940335 75.156674 
L 162.062106 53.128045 
L 162.122676 54.165151 
L 162.183039 47.943735 
L 162.243196 48.656595 
L 162.303148 48.190557 
L 162.422442 64.880641 
L 162.481787 54.148532 
L 162.540932 62.925655 
L 162.59988 87.616588 
L 162.658631 74.846714 
L 162.833715 49.549515 
L 162.891691 50.097614 
L 163.007074 74.100883 
L 163.121705 49.278068 
L 163.178741 49.930843 
L 163.235594 49.648362 
L 163.292263 52.17556 
L 163.34875 68.695958 
L 163.405057 59.672045 
L 163.461184 47.80015 
L 163.517133 49.420757 
L 163.572904 62.26268 
L 163.628499 60.635893 
L 163.794238 51.859737 
L 163.849139 65.75235 
L 163.903869 58.990923 
L 163.95843 56.442799 
L 164.012822 61.564934 
L 164.067046 59.343611 
L 164.121104 58.585929 
L 164.174996 60.815386 
L 164.228724 52.383445 
L 164.282288 58.178792 
L 164.388929 49.522056 
L 164.442009 49.610476 
L 164.494929 52.732003 
L 164.54769 67.866627 
L 164.600293 59.695519 
L 164.65274 52.476902 
L 164.70503 68.821969 
L 164.757166 52.213411 
L 164.809148 53.377671 
L 164.860976 59.084007 
L 164.912653 54.397601 
L 164.964178 50.24411 
L 165.015552 50.782762 
L 165.066777 51.840919 
L 165.117854 50.770381 
L 165.168782 50.433656 
L 165.219564 52.520555 
L 165.270199 52.155355 
L 165.421237 48.84958 
L 165.471296 54.175357 
L 165.57099 74.836493 
L 165.670121 53.35494 
L 165.719478 56.244953 
L 165.817779 50.503635 
L 165.866724 52.141177 
L 165.915534 52.223834 
L 166.012748 58.997163 
L 166.061155 48.73569 
L 166.157571 51.311698 
L 166.205581 49.723324 
L 166.253461 51.091826 
L 166.348831 62.337682 
L 166.396323 49.485528 
L 166.443687 52.138097 
L 166.58502 63.857978 
L 166.63188 52.741307 
L 166.725226 52.93372 
L 166.771715 64.37455 
L 166.81808 51.908203 
L 166.864324 49.048745 
L 166.910447 49.196692 
L 166.956449 50.586017 
L 167.048094 66.146181 
L 167.093738 58.212643 
L 167.139264 50.637124 
L 167.184673 50.794917 
L 167.229964 56.108239 
L 167.27514 50.658514 
L 167.45469 59.116927 
L 167.499293 58.893915 
L 167.543783 55.51956 
L 167.588161 65.327292 
L 167.632427 53.282126 
L 167.676582 62.61296 
L 167.764562 52.898543 
L 167.808387 57.350301 
L 167.852103 65.965634 
L 167.895711 61.561535 
L 167.939211 55.22871 
L 167.982604 70.729193 
L 168.02589 59.561866 
L 168.06907 50.660414 
L 168.112144 54.921985 
L 168.155113 63.587702 
L 168.197978 50.489797 
L 168.240738 52.582737 
L 168.325948 77.58545 
L 168.410747 71.94842 
L 168.537184 50.657036 
L 168.579129 55.950764 
L 168.620974 64.078162 
L 168.66272 52.274034 
L 168.745915 53.587409 
L 168.869975 61.771746 
L 168.911135 52.531753 
L 168.952199 55.123692 
L 168.993167 62.560777 
L 169.03404 50.744167 
L 169.074818 50.015737 
L 169.115502 53.472972 
L 169.156092 68.324263 
L 169.236992 58.481801 
L 169.317523 51.437275 
L 169.477486 80.052918 
L 169.51725 70.977944 
L 169.636007 54.633567 
L 169.675416 63.173682 
L 169.714736 101.879595 
L 169.753968 61.238641 
L 169.793114 52.276316 
L 169.871144 56.100996 
L 169.91003 68.244451 
L 169.94883 58.329236 
L 170.064719 51.662404 
L 170.21806 70.180344 
L 170.256188 64.758975 
L 170.294233 51.769739 
L 170.370077 62.983389 
L 170.483234 51.404142 
L 170.520791 53.514931 
L 170.558269 54.866646 
L 170.595667 52.178755 
L 170.632986 53.738924 
L 170.707387 65.054239 
L 170.781475 64.577899 
L 170.892024 51.867533 
L 170.855252 64.916294 
L 170.928721 53.344323 
L 171.001884 58.787501 
L 171.038352 54.880085 
L 171.074745 53.237602 
L 171.111062 53.741813 
L 171.219567 62.38076 
L 171.363207 53.411651 
L 171.505684 61.785455 
L 171.541124 81.560365 
L 171.576492 59.34663 
L 171.611789 56.461933 
L 171.647016 61.086453 
L 171.682173 78.488468 
L 171.717259 66.769103 
L 171.787223 52.149395 
L 171.8221 57.590959 
L 171.856909 66.042802 
L 171.926321 65.122602 
L 171.995459 54.230398 
L 172.064328 57.584837 
L 172.098661 83.750589 
L 172.167127 61.662969 
L 172.201261 56.281434 
L 172.235328 63.961817 
L 172.303265 57.01828 
L 172.337136 56.226334 
L 172.370942 59.828942 
L 172.404682 58.962548 
L 172.438359 54.421948 
L 172.505518 57.973816 
L 172.572423 57.339518 
L 172.60578 63.675609 
L 172.672304 53.126433 
L 172.738579 54.831332 
L 172.771622 59.297376 
L 172.804604 88.690541 
L 172.870383 57.385686 
L 172.90318 69.631754 
L 172.968592 62.019576 
L 173.001207 64.661193 
L 173.033762 59.878358 
L 173.066257 84.538536 
L 173.131066 59.486035 
L 173.163382 65.347908 
L 173.195638 58.127363 
L 173.227835 60.394606 
L 173.292054 59.14344 
L 173.324075 54.01567 
L 173.387944 60.025206 
L 173.419791 80.117419 
L 173.483314 58.422648 
L 173.51499 71.889424 
L 173.641125 55.352999 
L 173.672518 56.723928 
L 173.703855 70.702277 
L 173.766363 54.006007 
L 173.797533 53.237313 
L 173.828649 53.288629 
L 173.983406 75.039138 
L 174.014195 70.63712 
L 174.075612 53.684293 
L 174.10624 56.902352 
L 174.136814 66.57183 
L 174.197805 53.178947 
L 174.319156 59.771589 
L 174.379519 53.945744 
L 174.409623 56.41073 
L 174.469677 85.850846 
L 174.529527 71.055486 
L 174.589173 60.312734 
L 174.618921 64.87532 
L 174.648619 70.24666 
L 174.678266 62.199411 
L 174.707864 55.357743 
L 174.737412 59.758424 
L 174.76691 67.832708 
L 174.825759 56.6325 
L 174.85511 66.427825 
L 174.94287 53.910744 
L 174.972026 57.693498 
L 175.001134 73.94334 
L 175.059206 67.698117 
L 175.203553 57.88894 
L 175.260962 67.519367 
L 175.346726 66.876701 
L 175.40367 54.80876 
L 175.460431 59.277848 
L 175.573406 80.576493 
L 175.601536 75.031273 
L 175.657663 59.998772 
L 175.713612 67.095723 
L 175.769383 69.780368 
L 175.797203 72.762463 
L 175.824978 64.379662 
L 175.85271 70.164146 
L 175.908043 66.69402 
L 175.935644 58.327736 
L 175.963202 72.493414 
L 175.990717 81.753549 
L 176.045618 66.94966 
L 176.12765 58.664431 
L 176.100348 76.4788 
L 176.154909 59.9373 
L 176.182126 71.198435 
L 176.263526 60.37597 
L 176.34455 72.314842 
L 176.425203 55.441286 
L 176.478767 55.53997 
L 176.505488 54.443537 
L 176.558809 56.703803 
L 176.611969 74.468535 
L 176.664968 70.224829 
L 176.717808 55.7802 
L 176.744169 59.637079 
L 176.823015 79.91187 
L 176.849219 61.450671 
L 176.875384 56.585346 
L 176.927597 66.640634 
L 176.953645 67.386609 
L 177.005627 56.162519 
L 177.03156 62.422726 
L 177.057456 85.952528 
L 177.134914 57.387646 
L 177.160657 55.244907 
L 177.186363 59.514255 
L 177.212032 71.272614 
L 177.288814 63.662625 
L 177.365262 59.570877 
L 177.466679 70.944205 
L 177.517169 56.15782 
L 177.567515 58.829425 
L 177.642764 81.881875 
L 177.667776 66.869212 
L 177.717693 62.786317 
L 177.742599 67.347468 
L 177.767469 73.453214 
L 177.792304 60.502814 
L 177.817105 57.838496 
L 177.891296 59.546595 
L 177.940584 76.986103 
L 177.989735 68.936759 
L 178.014259 60.409441 
L 178.087625 71.897777 
L 178.160688 55.542555 
L 178.281788 59.994769 
L 178.35405 84.305474 
L 178.40206 65.791464 
L 178.44994 57.832502 
L 178.49769 61.497454 
L 178.592803 80.158927 
L 178.640167 56.272285 
L 178.710975 63.720902 
L 178.828359 56.653016 
L 178.921706 56.249798 
L 178.991392 67.721376 
L 179.01456 56.476795 
L 179.060804 85.955729 
L 179.106926 61.521538 
L 179.129942 86.217209 
L 179.175885 56.917431 
L 179.221707 72.041106 
L 179.26741 62.515812 
L 179.290218 100.736046 
L 179.335744 59.745093 
L 179.381152 73.300855 
L 179.403813 73.232155 
L 179.494164 59.660761 
L 179.449046 74.198512 
L 179.516679 61.827294 
L 179.584053 88.535656 
L 179.606454 65.137738 
L 179.740263 57.158232 
L 179.873062 75.719723 
L 179.917106 56.862282 
L 179.982967 69.124195 
L 180.0704 57.067128 
L 180.09219 60.58343 
L 180.113954 67.288146 
L 180.135691 58.725598 
L 180.179083 58.800257 
L 180.20074 58.484194 
L 180.243973 76.509725 
L 180.330121 67.798106 
L 180.351593 69.737683 
L 180.394457 56.931253 
L 180.479874 58.808841 
L 180.522427 69.723984 
L 180.564878 56.959933 
L 180.586065 56.823299 
L 180.712654 73.538681 
L 180.754648 58.115369 
L 180.817453 74.754289 
L 180.838339 62.046601 
L 180.859199 58.22723 
L 180.900846 68.416817 
L 180.921632 65.388231 
L 180.942394 76.860051 
L 180.983845 61.593792 
L 181.004534 64.110188 
L 181.107614 58.879152 
L 181.128158 59.039956 
L 181.189646 62.91341 
L 181.25092 77.745269 
L 181.271297 62.452216 
L 181.311981 72.500825 
L 181.372832 57.967789 
L 181.433472 60.479981 
L 181.514002 94.762916 
L 181.534077 68.374279 
L 181.614149 58.97147 
L 181.594165 71.100647 
L 181.63411 64.784196 
L 181.673965 71.210469 
L 181.693858 57.825264 
L 181.733578 70.376797 
L 181.753404 59.482114 
L 181.812749 81.715398 
L 181.832487 76.583025 
L 181.852202 78.815842 
L 181.871895 77.083539 
L 181.989593 58.359819 
L 182.009133 61.506584 
L 182.087077 80.639089 
L 182.106509 70.286268 
L 182.12592 64.975945 
L 182.164677 80.001094 
L 182.203349 68.965502 
L 182.222654 73.553664 
L 182.261199 65.011063 
L 182.318858 71.443517 
L 182.357193 58.307782 
L 182.395445 73.943462 
L 182.433614 59.209339 
L 182.452667 59.638187 
L 182.547626 59.185564 
L 182.585466 71.343525 
L 182.660904 59.414483 
L 182.698502 67.213657 
L 182.73602 59.323816 
L 182.773457 72.101574 
L 182.810816 61.588576 
L 182.885296 58.521098 
L 182.922418 71.67488 
L 182.940949 60.805563 
L 182.977954 72.983884 
L 183.014881 68.882617 
L 183.051731 78.783029 
L 183.088504 66.500647 
L 183.106862 75.235057 
L 183.143519 58.803744 
L 183.198364 73.798556 
L 183.216607 79.453993 
L 183.253037 65.393517 
L 183.361878 58.792624 
L 183.289392 72.071616 
L 183.379952 60.960907 
L 183.523886 85.198614 
L 183.577559 58.761339 
L 183.64887 60.244258 
L 183.702163 68.28595 
L 183.755296 60.566953 
L 183.772971 59.284466 
L 183.825891 63.405227 
L 183.843496 69.259014 
L 183.861083 59.349936 
L 183.931256 68.02258 
L 184.01858 60.053008 
L 184.035993 61.589419 
L 184.053388 73.651346 
L 184.088128 59.202559 
L 184.14011 62.267572 
L 184.226407 75.872175 
L 184.191939 59.438245 
L 184.277982 69.503229 
L 184.363607 60.472771 
L 184.346515 70.67213 
L 184.380682 64.273331 
L 184.482785 81.131194 
L 184.516688 60.003215 
L 184.601162 62.643069 
L 184.618008 62.93837 
L 184.634838 70.342054 
L 184.66845 59.921056 
L 184.718748 62.220375 
L 184.7522 64.370667 
L 184.768902 59.640656 
L 184.835553 92.481544 
L 184.885376 62.616692 
L 184.918513 74.177437 
L 184.935058 59.553173 
L 184.951588 65.037792 
L 184.968102 99.639481 
L 185.017551 64.609555 
L 185.050441 71.163039 
L 185.09966 59.833748 
L 185.165072 67.312028 
L 185.181387 83.275605 
L 185.213972 61.637866 
L 185.262736 78.55493 
L 185.295171 60.367382 
L 185.375997 66.375702 
L 185.440391 62.0408 
L 185.408224 77.699336 
L 185.456453 67.221041 
L 185.504551 80.398921 
L 185.552518 60.628681 
L 185.632173 59.875358 
L 185.711469 84.583051 
L 185.77465 62.887313 
L 185.837605 63.47359 
L 185.868998 85.056079 
L 185.900335 60.583002 
L 185.931616 75.262219 
L 185.962842 59.927783 
L 186.056189 62.14184 
L 186.071699 62.44559 
L 186.102677 66.537028 
L 186.118146 60.762205 
L 186.179886 66.086595 
L 186.195287 60.549858 
L 186.24141 69.119644 
L 186.287412 63.413342 
L 186.318013 61.122144 
L 186.333294 65.573179 
L 186.348561 72.838531 
L 186.394285 61.437952 
L 186.455065 71.184543 
L 186.485376 63.441298 
L 186.530746 71.506954 
L 186.560927 66.96464 
L 186.575998 66.461945 
L 186.621135 93.023052 
L 186.666156 62.282172 
L 186.681138 65.154121 
L 186.711063 74.80387 
L 186.755855 63.5043 
L 186.800533 70.748291 
L 186.815401 67.072882 
L 186.859928 72.244573 
L 186.874746 68.394134 
L 186.889551 89.299984 
L 186.933891 68.234247 
L 186.97812 76.270277 
L 187.022239 63.446256 
L 187.066247 68.262928 
L 187.080891 96.342327 
L 187.168506 63.874002 
L 187.183066 63.944004 
L 187.21215 71.259029 
L 187.226674 79.126713 
L 187.241186 64.215784 
L 187.299114 75.842088 
L 187.328007 65.303276 
L 187.356853 96.702572 
L 187.414402 67.199419 
L 187.500375 82.500049 
L 187.471764 61.5218 
L 187.514664 79.999567 
L 187.543205 61.742643 
L 187.628553 69.057218 
L 187.713488 99.793434 
L 187.671072 65.808956 
L 187.727604 72.625553 
L 187.741709 61.926698 
L 187.840128 62.163075 
L 187.979778 84.595287 
L 187.993682 70.168192 
L 188.007575 61.446731 
L 188.035329 70.319946 
L 188.104522 68.837375 
L 188.145908 61.60469 
L 188.228388 89.953198 
L 188.296828 64.342215 
L 188.337764 68.121689 
L 188.392198 75.362483 
L 188.365002 62.386816 
L 188.446465 71.77382 
L 188.54103 62.936348 
L 188.487055 73.150134 
L 188.554497 63.981045 
L 188.581402 83.957531 
L 188.675247 76.652035 
L 188.728648 62.174014 
L 188.781888 66.9938 
L 188.795173 111.202342 
L 188.887887 62.314048 
L 188.980116 90.724742 
L 189.019495 76.467352 
L 189.111037 64.610521 
L 189.097989 81.166226 
L 189.124076 67.8512 
L 189.137105 107.746922 
L 189.163135 64.568525 
L 189.22804 67.211344 
L 189.253935 107.239879 
L 189.279792 64.116427 
L 189.331393 70.618938 
L 189.344269 63.827463 
L 189.369994 81.825849 
L 189.408511 80.576224 
L 189.421332 92.414596 
L 189.472519 63.300281 
L 189.498058 75.094513 
L 189.510813 64.158159 
L 189.57445 98.401254 
L 189.612523 67.406009 
L 189.650513 64.604538 
L 189.713648 77.291117 
L 189.801659 64.491115 
L 189.738839 86.191579 
L 189.826724 74.998314 
L 189.889232 63.478564 
L 189.851754 86.5485 
L 189.951518 69.96878 
L 190.001188 63.236686 
L 190.06308 108.397433 
L 190.112437 62.759778 
L 190.173939 72.1144 
L 190.235228 90.511234 
L 190.210738 67.105113 
L 190.259683 70.58406 
L 190.296303 64.56741 
L 190.345011 77.876314 
L 190.357167 75.482446 
L 190.369315 76.873715 
L 190.381454 75.843131 
L 190.454114 82.85741 
L 190.490332 63.734726 
L 190.550529 103.427637 
L 190.526475 63.475571 
L 190.610522 78.363577 
L 190.658369 62.942561 
L 190.682244 79.057052 
L 190.717996 66.578201 
L 190.729897 81.2716 
L 190.801135 64.50215 
L 190.824817 64.965491 
L 190.848468 95.312711 
L 190.966244 75.147748 
L 191.083238 63.203152 
L 191.094895 66.788283 
L 191.106544 79.390958 
L 191.187872 64.215314 
L 191.199459 66.424325 
L 191.211039 66.21205 
L 191.222612 66.773777 
L 191.234176 66.771067 
L 191.257283 89.076676 
L 191.349408 74.91589 
L 191.429623 66.614838 
L 191.39529 86.924898 
L 191.46389 69.114738 
L 191.475297 83.070395 
L 191.509475 65.842693 
L 191.566291 71.454739 
L 191.577632 71.118611 
L 191.634228 65.706435 
L 191.656816 75.962522 
L 191.668099 70.371723 
L 191.769321 90.780492 
L 191.690643 64.776644 
L 191.780532 81.855985 
L 191.847649 68.218477 
L 191.836481 86.600982 
L 191.881112 79.743464 
L 191.892252 90.487063 
L 191.970036 69.546746 
L 191.98112 82.810675 
L 192.069541 66.510122 
L 192.102585 69.32764 
L 192.113586 67.349321 
L 192.135567 76.888093 
L 192.146547 69.944404 
L 192.245062 97.191293 
L 192.1904 63.36624 
L 192.255974 84.022688 
L 192.266879 73.269145 
L 192.28867 96.717508 
L 192.35388 83.341368 
L 192.375563 89.608509 
L 192.408037 67.836617 
L 192.429654 75.192026 
L 192.515855 64.049615 
L 192.494344 78.762727 
L 192.53734 74.443651 
L 192.633697 66.971458 
L 192.569517 80.858548 
L 192.64437 73.299758 
L 192.665699 81.329244 
L 192.718906 65.869727 
L 192.740145 68.516654 
L 192.814277 80.451663 
L 192.8354 67.508864 
L 192.856498 75.247263 
L 192.919641 85.675421 
L 192.961611 67.668645 
L 193.055678 85.68605 
L 193.066099 67.654447 
L 193.107722 75.70693 
L 193.118112 76.753533 
L 193.138874 64.341462 
L 193.201013 86.325214 
L 193.232001 72.969514 
L 193.334901 106.380131 
L 193.273233 65.745491 
L 193.345158 76.269091 
L 193.426999 64.434114 
L 193.386126 93.450954 
L 193.4474 78.973248 
L 193.457591 81.270986 
L 193.477957 66.691771 
L 193.508461 74.019848 
L 193.609761 64.944249 
L 193.569311 81.501401 
L 193.619859 68.378657 
L 193.670262 79.812996 
L 193.710481 66.214607 
L 193.730557 72.636544 
L 193.790645 64.84829 
L 193.760626 86.128801 
L 193.83059 68.426859 
L 193.900276 88.376105 
L 193.920136 67.838151 
L 193.939973 81.965219 
L 194.028966 66.711046 
L 193.989469 87.503412 
L 194.058531 73.257676 
L 194.068374 65.907329 
L 194.146927 80.414573 
L 194.176294 67.629342 
L 194.234882 71.784813 
L 194.244628 71.690136 
L 194.254368 65.014856 
L 194.312697 90.45707 
L 194.361157 65.232333 
L 194.419133 80.96703 
L 194.486531 71.398358 
L 194.572809 66.585185 
L 194.515338 79.193956 
L 194.582369 73.127904 
L 194.649147 67.460498 
L 194.687192 82.406382 
L 194.706183 67.555768 
L 194.791393 87.081754 
L 194.800836 71.852163 
L 194.810273 83.335214 
L 194.847971 66.24684 
L 194.904368 74.698698 
L 194.951228 65.820419 
L 194.979284 91.173334 
L 194.997963 78.525828 
L 195.007295 80.962766 
L 195.025945 66.086736 
L 195.063185 67.945158 
L 195.081775 65.895493 
L 195.091063 69.459647 
L 195.174433 89.283243 
L 195.192907 70.630936 
L 195.229795 66.9107 
L 195.248211 76.484422 
L 195.257411 99.387155 
L 195.330842 66.138363 
L 195.358299 79.213012 
L 195.403967 65.97941 
L 195.422201 85.393774 
L 195.467704 71.438733 
L 195.504021 66.142121 
L 195.540264 76.198236 
L 195.549313 70.309556 
L 195.567397 78.879387 
L 195.576432 66.330853 
L 195.657539 73.154559 
L 195.666528 72.691699 
L 195.675513 98.78492 
L 195.765104 67.090328 
L 195.774039 69.768319 
L 195.845349 79.597348 
L 195.827548 66.190527 
L 195.872016 72.041875 
L 195.880896 66.219469 
L 195.916371 94.399495 
L 195.987108 69.271196 
L 196.004748 87.866782 
L 196.075132 67.559423 
L 196.08391 68.774754 
L 196.092684 68.060601 
L 196.101453 71.926092 
L 196.153978 89.454612 
L 196.197629 68.781926 
L 196.215059 88.03046 
L 196.293282 68.823347 
L 196.267247 89.931623 
L 196.310618 72.570111 
L 196.319279 94.861393 
L 196.371159 66.472527 
L 196.414275 68.180458 
L 196.448693 66.793949 
L 196.431492 72.156719 
L 196.465876 71.642433 
L 196.551542 67.747224 
L 196.585692 91.504412 
L 196.670779 70.684694 
L 196.696224 73.165269 
L 196.772342 80.06013 
L 196.730095 69.239977 
L 196.789212 69.395139 
L 196.797641 66.972738 
L 196.814488 83.759863 
L 196.890096 68.49958 
L 196.998738 90.028576 
L 196.931961 68.151779 
L 197.007068 78.448661 
L 197.098432 66.323354 
L 197.032032 85.277887 
L 197.106714 71.022492 
L 197.197563 67.309135 
L 197.214031 86.322741 
L 197.24692 66.639333 
L 197.328876 66.842205 
L 197.386018 108.636314 
L 197.451098 80.999078 
L 197.47544 67.191073 
L 197.548267 82.525062 
L 197.556341 99.527948 
L 197.61275 67.342462 
L 197.652933 72.665795 
L 197.748997 90.608939 
L 197.733023 68.053601 
L 197.764957 84.780332 
L 197.820703 68.757306 
L 197.892118 73.430849 
L 197.900035 94.950911 
L 197.931668 67.388139 
L 198.002635 85.660872 
L 198.010503 87.183154 
L 198.026227 68.815658 
L 198.049788 72.436088 
L 198.073317 79.843856 
L 198.15152 68.760126 
L 198.167119 72.985048 
L 198.260425 91.303705 
L 198.244908 67.933727 
L 198.275928 74.337394 
L 198.345522 70.090044 
L 198.299157 83.683657 
L 198.384067 73.396409 
L 198.460905 67.410119 
L 198.499198 87.360627 
L 198.55267 67.379961 
L 198.62118 70.055557 
L 198.689425 94.674857 
L 198.651544 67.89896 
L 198.734775 74.34053 
L 198.787536 70.398849 
L 198.85514 90.952205 
L 198.915015 67.629007 
L 198.877617 97.386404 
L 198.96724 71.81001 
L 198.982132 94.280029 
L 199.048994 67.915793 
L 199.078629 79.354876 
L 199.152499 69.095106 
L 199.145126 81.279454 
L 199.1746 75.398178 
L 199.181961 102.173724 
L 199.196673 71.076747 
L 199.284689 75.259036 
L 199.379545 97.062458 
L 199.299315 69.024124 
L 199.394093 83.747605 
L 199.502821 67.932466 
L 199.481129 89.63993 
L 199.510046 73.715981 
L 199.58213 95.27245 
L 199.603698 68.32334 
L 199.618062 72.701379 
L 199.62524 68.122284 
L 199.668244 77.531593 
L 199.696855 73.349155 
L 199.704 99.625861 
L 199.775296 68.213982 
L 199.803734 74.373416 
L 199.860472 86.600002 
L 199.825032 68.225739 
L 199.89584 82.881932 
L 199.952282 68.610349 
L 200.008544 79.624521 
L 200.015564 80.862419 
L 200.029596 74.435023 
L 200.099587 116.869987 
L 200.050622 69.659702 
L 200.141449 81.018901 
L 200.162342 70.01769 
L 200.190162 89.218007 
L 200.252595 78.803075 
L 200.314808 69.028415 
L 200.328603 91.381781 
L 200.363044 73.722205 
L 200.404284 97.861042 
L 200.376801 70.381556 
L 200.472803 74.551613 
L 200.493307 69.692913 
L 200.534244 79.940242 
L 200.561482 74.339513 
L 200.568285 110.398341 
L 200.59547 68.69108 
L 200.670014 82.350557 
L 200.676776 82.889666 
L 200.784602 69.060133 
L 200.697043 102.266399 
L 200.791319 69.485539 
L 200.798033 69.200959 
L 200.804746 71.659465 
L 200.844965 94.768824 
L 200.905121 71.354569 
L 200.911793 71.889633 
L 200.978368 69.065806 
L 200.938453 77.209332 
L 200.998291 70.724373 
L 201.011561 93.818654 
L 201.097572 70.575361 
L 201.104171 71.062425 
L 201.110767 69.533237 
L 201.123953 86.382574 
L 201.150294 80.767412 
L 201.156873 100.740212 
L 201.229081 70.392451 
L 201.255265 99.388806 
L 201.35311 69.627447 
L 201.366115 74.414362 
L 201.450415 122.172358 
L 201.469811 71.039611 
L 201.476272 72.385628 
L 201.527872 69.942721 
L 201.50854 77.864 
L 201.547184 73.841297 
L 201.611402 91.536553 
L 201.617811 72.412974 
L 201.656216 75.905392 
L 201.681772 98.345479 
L 201.732775 70.764536 
L 201.764576 85.1256 
L 201.846992 69.403027 
L 201.78363 93.511007 
L 201.878588 71.692947 
L 201.960473 93.591875 
L 201.935319 71.488062 
L 201.991867 78.583808 
L 202.048233 70.297496 
L 202.016941 99.97147 
L 202.10442 74.541495 
L 202.141778 76.361381 
L 202.116882 70.106993 
L 202.154214 72.39576 
L 202.160428 70.634936 
L 202.17285 97.612908 
L 202.191467 79.914503 
L 202.197668 91.670231 
L 202.234829 70.591494 
L 202.302754 86.320742 
L 202.40109 69.899364 
L 202.407217 75.112117 
L 202.413343 92.371865 
L 202.511064 70.645152 
L 202.529326 75.470529 
L 202.632456 86.188145 
L 202.565794 70.52086 
L 202.638504 75.539772 
L 202.704892 102.742543 
L 202.686811 70.587013 
L 202.759024 82.342099 
L 202.836921 71.764992 
L 202.77103 91.920864 
L 202.854849 75.838685 
L 202.86082 94.690704 
L 202.920427 70.195523 
L 202.967967 86.221075 
L 202.973901 98.613477 
L 203.003538 69.776092 
L 203.068565 73.109639 
L 203.080363 70.040548 
L 203.092152 75.635452 
L 203.098044 72.467925 
L 203.192045 93.931197 
L 203.115708 70.520674 
L 203.20376 72.135568 
L 203.209615 72.550942 
L 203.256381 86.8339 
L 203.233013 69.905797 
L 203.320482 84.294332 
L 203.419091 70.2031 
L 203.407519 89.281471 
L 203.424874 75.546757 
L 203.442213 94.256062 
L 203.459535 72.68574 
L 203.534398 80.823692 
L 203.540144 70.568471 
L 203.59177 92.526204 
L 203.648955 70.937892 
L 203.700263 108.63973 
L 203.723018 70.586875 
L 203.757097 70.989578 
L 203.785445 92.966442 
L 203.813748 70.979734 
L 203.887122 85.766426 
L 203.943357 72.102416 
L 203.965801 100.567616 
L 203.999413 77.5483 
L 204.03296 106.903448 
L 204.010602 71.506983 
L 204.110991 81.566298 
L 204.160971 72.076512 
L 204.183139 92.013828 
L 204.216338 76.919699 
L 204.221866 101.16522 
L 204.238437 70.332842 
L 204.326554 81.502756 
L 204.430622 71.282704 
L 204.397825 97.314567 
L 204.436083 75.205503 
L 204.534079 123.553286 
L 204.463359 72.043761 
L 204.544934 90.685026 
L 204.604517 70.900602 
L 204.572042 101.28532 
L 204.658508 77.425805 
L 204.674673 107.407963 
L 204.706959 73.96184 
L 204.755277 75.009237 
L 204.798116 71.522766 
L 204.787416 88.867965 
L 204.867506 72.204539 
L 204.957837 87.594646 
L 204.920698 71.252092 
L 204.979024 77.604815 
L 204.984316 72.189171 
L 205.074051 88.745933 
L 205.105613 101.367591 
L 205.168567 72.429009 
L 205.283402 102.105001 
L 205.194732 71.922574 
L 205.299004 80.653932 
L 205.381978 71.282191 
L 205.371628 89.732387 
L 205.407828 78.953362 
L 205.43364 105.817365 
L 205.464564 71.825814 
L 205.515983 85.832132 
L 205.577489 71.910041 
L 205.53138 89.291485 
L 205.628581 77.262967 
L 205.638781 72.223454 
L 205.68461 79.347533 
L 205.73032 116.645854 
L 205.720173 73.35465 
L 205.796137 81.256567 
L 205.866742 89.735226 
L 205.851636 76.225047 
L 205.901939 82.894597 
L 205.972121 72.171036 
L 205.952098 100.773746 
L 206.0121 73.882721 
L 206.101723 72.659641 
L 206.136453 104.172707 
L 206.176061 71.820436 
L 206.250086 78.085967 
L 206.353201 95.316701 
L 206.343407 72.1599 
L 206.367883 87.31039 
L 206.475175 72.624085 
L 206.392325 93.455787 
L 206.489755 76.677791 
L 206.509176 95.517815 
L 206.538268 72.346592 
L 206.601136 79.867646 
L 206.65897 73.839911 
L 206.630077 87.437816 
L 206.683011 78.309011 
L 206.769288 98.300941 
L 206.759723 74.260754 
L 206.788404 85.854496 
L 206.797954 73.071449 
L 206.888421 97.127188 
L 206.89317 94.709723 
L 206.897917 94.457086 
L 206.902663 99.781462 
L 206.907408 107.341705 
L 206.987873 73.740682 
L 206.997315 77.026855 
L 207.077371 72.484666 
L 207.086765 90.006811 
L 207.105539 72.762845 
L 207.213102 93.15947 
L 207.124293 72.209346 
L 207.217764 76.941774 
L 207.255013 72.561161 
L 207.292184 84.970828 
L 207.329277 76.223109 
L 207.361669 92.536964 
L 207.40784 73.739463 
L 207.440088 79.469765 
L 207.495233 73.950138 
L 207.47687 94.195421 
L 207.527321 82.139665 
L 207.591322 113.102781 
L 207.605007 72.507584 
L 207.636896 81.339583 
L 207.650545 74.026151 
L 207.7141 100.028364 
L 207.754836 74.668608 
L 207.809005 105.914167 
L 207.827024 74.183529 
L 207.863008 74.854528 
L 207.8675 72.788919 
L 207.894433 105.206561 
L 207.966052 76.29471 
L 208.001752 103.256463 
L 208.019575 73.359654 
L 208.072936 73.413547 
L 208.090687 81.311877 
L 208.095122 97.349301 
L 208.170346 73.195452 
L 208.201228 88.049554 
L 208.306697 74.614188 
L 208.293548 94.228996 
L 208.311078 79.73376 
L 208.376661 110.385794 
L 208.328591 74.981359 
L 208.420247 85.113369 
L 208.511429 74.09088 
L 208.502765 105.015832 
L 208.528743 78.662347 
L 208.554683 90.552904 
L 208.610755 74.354895 
L 208.636574 74.627718 
L 208.640874 73.939923 
L 208.64947 82.115898 
L 208.64947 82.115898 
" style="fill:none;stroke:#000000;stroke-linecap:square;stroke-width:0.8;"/>
   </g>
   <g id="line2d_50">
    <path clip-path="url(#pae246ab8a5)" d="M 62.296013 32.179953 
L 74.492492 28.215263 
L 81.626975 26.255143 
L 86.688972 25.198154 
L 90.615361 24.667935 
L 93.823455 24.47564 
L 96.535859 24.508124 
L 98.885451 24.691678 
L 102.81184 25.327835 
L 106.019934 26.142496 
L 109.946323 27.460357 
L 114.105773 29.17279 
L 118.934709 31.463214 
L 124.855207 34.563029 
L 132.808248 39.007115 
L 146.240027 46.808365 
L 183.931256 69.056628 
L 208.653766 83.674857 
L 208.653766 83.674857 
" style="fill:none;stroke:#ff0000;stroke-linecap:square;stroke-width:2;"/>
   </g>
   <g id="patch_3">
    <path d="M 54.978125 128.92249 
L 54.978125 10.8 
" style="fill:none;stroke:#000000;stroke-linecap:square;stroke-linejoin:miter;stroke-width:0.8;"/>
   </g>
   <g id="patch_4">
    <path d="M 215.971654 128.92249 
L 215.971654 10.8 
" style="fill:none;stroke:#000000;stroke-linecap:square;stroke-linejoin:miter;stroke-width:0.8;"/>
   </g>
   <g id="patch_5">
    <path d="M 54.978125 128.92249 
L 215.971654 128.92249 
" style="fill:none;stroke:#000000;stroke-linecap:square;stroke-linejoin:miter;stroke-width:0.8;"/>
   </g>
   <g id="patch_6">
    <path d="M 54.978125 10.8 
L 215.971654 10.8 
" style="fill:none;stroke:#000000;stroke-linecap:square;stroke-linejoin:miter;stroke-width:0.8;"/>
   </g>
   <g id="legend_1">
    <g id="patch_7">
     <path d="M 61.978125 123.92249 
L 143.371875 123.92249 
Q 145.371875 123.92249 145.371875 121.92249 
L 145.371875 93.56624 
Q 145.371875 91.56624 143.371875 91.56624 
L 61.978125 91.56624 
Q 59.978125 91.56624 59.978125 93.56624 
L 59.978125 121.92249 
Q 59.978125 123.92249 61.978125 123.92249 
z
" style="fill:#ffffff;opacity:0.8;stroke:#cccccc;stroke-linejoin:miter;"/>
    </g>
    <g id="line2d_51">
     <path d="M 63.978125 99.664678 
L 83.978125 99.664678 
" style="fill:none;stroke:#000000;stroke-linecap:square;stroke-width:0.8;"/>
    </g>
    <g id="line2d_52"/>
    <g id="text_11">
     <!-- simulated -->
     <defs>
      <path d="M 9.421875 54.6875 
L 18.40625 54.6875 
L 18.40625 0 
L 9.421875 0 
z
M 9.421875 75.984375 
L 18.40625 75.984375 
L 18.40625 64.59375 
L 9.421875 64.59375 
z
" id="DejaVuSans-105"/>
      <path d="M 8.5 21.578125 
L 8.5 54.6875 
L 17.484375 54.6875 
L 17.484375 21.921875 
Q 17.484375 14.15625 20.5 10.265625 
Q 23.53125 6.390625 29.59375 6.390625 
Q 36.859375 6.390625 41.078125 11.03125 
Q 45.3125 15.671875 45.3125 23.6875 
L 45.3125 54.6875 
L 54.296875 54.6875 
L 54.296875 0 
L 45.3125 0 
L 45.3125 8.40625 
Q 42.046875 3.421875 37.71875 1 
Q 33.40625 -1.421875 27.6875 -1.421875 
Q 18.265625 -1.421875 13.375 4.4375 
Q 8.5 10.296875 8.5 21.578125 
z
M 31.109375 56 
z
" id="DejaVuSans-117"/>
      <path d="M 9.421875 75.984375 
L 18.40625 75.984375 
L 18.40625 0 
L 9.421875 0 
z
" id="DejaVuSans-108"/>
      <path d="M 34.28125 27.484375 
Q 23.390625 27.484375 19.1875 25 
Q 14.984375 22.515625 14.984375 16.5 
Q 14.984375 11.71875 18.140625 8.90625 
Q 21.296875 6.109375 26.703125 6.109375 
Q 34.1875 6.109375 38.703125 11.40625 
Q 43.21875 16.703125 43.21875 25.484375 
L 43.21875 27.484375 
z
M 52.203125 31.203125 
L 52.203125 0 
L 43.21875 0 
L 43.21875 8.296875 
Q 40.140625 3.328125 35.546875 0.953125 
Q 30.953125 -1.421875 24.3125 -1.421875 
Q 15.921875 -1.421875 10.953125 3.296875 
Q 6 8.015625 6 15.921875 
Q 6 25.140625 12.171875 29.828125 
Q 18.359375 34.515625 30.609375 34.515625 
L 43.21875 34.515625 
L 43.21875 35.40625 
Q 43.21875 41.609375 39.140625 45 
Q 35.0625 48.390625 27.6875 48.390625 
Q 23 48.390625 18.546875 47.265625 
Q 14.109375 46.140625 10.015625 43.890625 
L 10.015625 52.203125 
Q 14.9375 54.109375 19.578125 55.046875 
Q 24.21875 56 28.609375 56 
Q 40.484375 56 46.34375 49.84375 
Q 52.203125 43.703125 52.203125 31.203125 
z
" id="DejaVuSans-97"/>
      <path d="M 18.3125 70.21875 
L 18.3125 54.6875 
L 36.8125 54.6875 
L 36.8125 47.703125 
L 18.3125 47.703125 
L 18.3125 18.015625 
Q 18.3125 11.328125 20.140625 9.421875 
Q 21.96875 7.515625 27.59375 7.515625 
L 36.8125 7.515625 
L 36.8125 0 
L 27.59375 0 
Q 17.1875 0 13.234375 3.875 
Q 9.28125 7.765625 9.28125 18.015625 
L 9.28125 47.703125 
L 2.6875 47.703125 
L 2.6875 54.6875 
L 9.28125 54.6875 
L 9.28125 70.21875 
z
" id="DejaVuSans-116"/>
      <path d="M 56.203125 29.59375 
L 56.203125 25.203125 
L 14.890625 25.203125 
Q 15.484375 15.921875 20.484375 11.0625 
Q 25.484375 6.203125 34.421875 6.203125 
Q 39.59375 6.203125 44.453125 7.46875 
Q 49.3125 8.734375 54.109375 11.28125 
L 54.109375 2.78125 
Q 49.265625 0.734375 44.1875 -0.34375 
Q 39.109375 -1.421875 33.890625 -1.421875 
Q 20.796875 -1.421875 13.15625 6.1875 
Q 5.515625 13.8125 5.515625 26.8125 
Q 5.515625 40.234375 12.765625 48.109375 
Q 20.015625 56 32.328125 56 
Q 43.359375 56 49.78125 48.890625 
Q 56.203125 41.796875 56.203125 29.59375 
z
M 47.21875 32.234375 
Q 47.125 39.59375 43.09375 43.984375 
Q 39.0625 48.390625 32.421875 48.390625 
Q 24.90625 48.390625 20.390625 44.140625 
Q 15.875 39.890625 15.1875 32.171875 
z
" id="DejaVuSans-101"/>
      <path d="M 45.40625 46.390625 
L 45.40625 75.984375 
L 54.390625 75.984375 
L 54.390625 0 
L 45.40625 0 
L 45.40625 8.203125 
Q 42.578125 3.328125 38.25 0.953125 
Q 33.9375 -1.421875 27.875 -1.421875 
Q 17.96875 -1.421875 11.734375 6.484375 
Q 5.515625 14.40625 5.515625 27.296875 
Q 5.515625 40.1875 11.734375 48.09375 
Q 17.96875 56 27.875 56 
Q 33.9375 56 38.25 53.625 
Q 42.578125 51.265625 45.40625 46.390625 
z
M 14.796875 27.296875 
Q 14.796875 17.390625 18.875 11.75 
Q 22.953125 6.109375 30.078125 6.109375 
Q 37.203125 6.109375 41.296875 11.75 
Q 45.40625 17.390625 45.40625 27.296875 
Q 45.40625 37.203125 41.296875 42.84375 
Q 37.203125 48.484375 30.078125 48.484375 
Q 22.953125 48.484375 18.875 42.84375 
Q 14.796875 37.203125 14.796875 27.296875 
z
" id="DejaVuSans-100"/>
     </defs>
     <g transform="translate(91.978125 103.164678)scale(0.1 -0.1)">
      <use xlink:href="#DejaVuSans-115"/>
      <use x="52.099609" xlink:href="#DejaVuSans-105"/>
      <use x="79.882812" xlink:href="#DejaVuSans-109"/>
      <use x="177.294922" xlink:href="#DejaVuSans-117"/>
      <use x="240.673828" xlink:href="#DejaVuSans-108"/>
      <use x="268.457031" xlink:href="#DejaVuSans-97"/>
      <use x="329.736328" xlink:href="#DejaVuSans-116"/>
      <use x="368.945312" xlink:href="#DejaVuSans-101"/>
      <use x="430.46875" xlink:href="#DejaVuSans-100"/>
     </g>
    </g>
    <g id="line2d_53">
     <path d="M 63.978125 114.342803 
L 83.978125 114.342803 
" style="fill:none;stroke:#ff0000;stroke-linecap:square;stroke-width:2;"/>
    </g>
    <g id="line2d_54"/>
    <g id="text_12">
     <!-- target -->
     <defs>
      <path d="M 41.109375 46.296875 
Q 39.59375 47.171875 37.8125 47.578125 
Q 36.03125 48 33.890625 48 
Q 26.265625 48 22.1875 43.046875 
Q 18.109375 38.09375 18.109375 28.8125 
L 18.109375 0 
L 9.078125 0 
L 9.078125 54.6875 
L 18.109375 54.6875 
L 18.109375 46.1875 
Q 20.953125 51.171875 25.484375 53.578125 
Q 30.03125 56 36.53125 56 
Q 37.453125 56 38.578125 55.875 
Q 39.703125 55.765625 41.0625 55.515625 
z
" id="DejaVuSans-114"/>
      <path d="M 45.40625 27.984375 
Q 45.40625 37.75 41.375 43.109375 
Q 37.359375 48.484375 30.078125 48.484375 
Q 22.859375 48.484375 18.828125 43.109375 
Q 14.796875 37.75 14.796875 27.984375 
Q 14.796875 18.265625 18.828125 12.890625 
Q 22.859375 7.515625 30.078125 7.515625 
Q 37.359375 7.515625 41.375 12.890625 
Q 45.40625 18.265625 45.40625 27.984375 
z
M 54.390625 6.78125 
Q 54.390625 -7.171875 48.1875 -13.984375 
Q 42 -20.796875 29.203125 -20.796875 
Q 24.46875 -20.796875 20.265625 -20.09375 
Q 16.0625 -19.390625 12.109375 -17.921875 
L 12.109375 -9.1875 
Q 16.0625 -11.328125 19.921875 -12.34375 
Q 23.78125 -13.375 27.78125 -13.375 
Q 36.625 -13.375 41.015625 -8.765625 
Q 45.40625 -4.15625 45.40625 5.171875 
L 45.40625 9.625 
Q 42.625 4.78125 38.28125 2.390625 
Q 33.9375 0 27.875 0 
Q 17.828125 0 11.671875 7.65625 
Q 5.515625 15.328125 5.515625 27.984375 
Q 5.515625 40.671875 11.671875 48.328125 
Q 17.828125 56 27.875 56 
Q 33.9375 56 38.28125 53.609375 
Q 42.625 51.21875 45.40625 46.390625 
L 45.40625 54.6875 
L 54.390625 54.6875 
z
" id="DejaVuSans-103"/>
     </defs>
     <g transform="translate(91.978125 117.842803)scale(0.1 -0.1)">
      <use xlink:href="#DejaVuSans-116"/>
      <use x="39.208984" xlink:href="#DejaVuSans-97"/>
      <use x="100.488281" xlink:href="#DejaVuSans-114"/>
      <use x="141.585938" xlink:href="#DejaVuSans-103"/>
      <use x="205.0625" xlink:href="#DejaVuSans-101"/>
      <use x="266.585938" xlink:href="#DejaVuSans-116"/>
     </g>
    </g>
   </g>
  </g>
 </g>
 <defs>
  <clipPath id="pae246ab8a5">
   <rect height="118.12249" width="160.993529" x="54.978125" y="10.8"/>
  </clipPath>
 </defs>
</svg>
