<?xml version="1.0" encoding="utf-8" standalone="no"?>
<!DOCTYPE svg PUBLIC "-//W3C//DTD SVG 1.1//EN"
  "http://www.w3.org/Graphics/SVG/1.1/DTD/svg11.dtd">
<!-- Created with matplotlib (https://matplotlib.org/) -->
<svg height="170.07874pt" version="1.1" viewBox="0 0 226.771654 170.07874" width="226.771654pt" xmlns="http://www.w3.org/2000/svg" xmlns:xlink="http://www.w3.org/1999/xlink">
 <defs>
  <style type="text/css">
*{stroke-linecap:butt;stroke-linejoin:round;}
  </style>
 </defs>
 <g id="figure_1">
  <g id="patch_1">
   <path d="M 0 170.07874 
L 226.771654 170.07874 
L 226.771654 0 
L 0 0 
z
" style="fill:#ffffff;"/>
  </g>
  <g id="axes_1">
   <g id="patch_2">
    <path d="M 54.978125 128.92249 
L 215.971654 128.92249 
L 215.971654 11.572264 
L 54.978125 11.572264 
z
" style="fill:#ffffff;"/>
   </g>
   <g id="matplotlib.axis_1">
    <g id="xtick_1">
     <g id="line2d_1">
      <path clip-path="url(#pba9a02161d)" d="M 85.1978 128.92249 
L 85.1978 11.572264 
" style="fill:none;stroke:#b0b0b0;stroke-linecap:square;stroke-width:0.8;"/>
     </g>
     <g id="line2d_2">
      <defs>
       <path d="M 0 0 
L 0 3.5 
" id="m9a50dffb23" style="stroke:#000000;stroke-width:0.8;"/>
      </defs>
      <g>
       <use style="stroke:#000000;stroke-width:0.8;" x="85.1978" xlink:href="#m9a50dffb23" y="128.92249"/>
      </g>
     </g>
     <g id="text_1">
      <!-- $\mathdefault{10^{-3}}$ -->
      <defs>
       <path d="M 12.40625 8.296875 
L 28.515625 8.296875 
L 28.515625 63.921875 
L 10.984375 60.40625 
L 10.984375 69.390625 
L 28.421875 72.90625 
L 38.28125 72.90625 
L 38.28125 8.296875 
L 54.390625 8.296875 
L 54.390625 0 
L 12.40625 0 
z
" id="DejaVuSans-49"/>
       <path d="M 31.78125 66.40625 
Q 24.171875 66.40625 20.328125 58.90625 
Q 16.5 51.421875 16.5 36.375 
Q 16.5 21.390625 20.328125 13.890625 
Q 24.171875 6.390625 31.78125 6.390625 
Q 39.453125 6.390625 43.28125 13.890625 
Q 47.125 21.390625 47.125 36.375 
Q 47.125 51.421875 43.28125 58.90625 
Q 39.453125 66.40625 31.78125 66.40625 
z
M 31.78125 74.21875 
Q 44.046875 74.21875 50.515625 64.515625 
Q 56.984375 54.828125 56.984375 36.375 
Q 56.984375 17.96875 50.515625 8.265625 
Q 44.046875 -1.421875 31.78125 -1.421875 
Q 19.53125 -1.421875 13.0625 8.265625 
Q 6.59375 17.96875 6.59375 36.375 
Q 6.59375 54.828125 13.0625 64.515625 
Q 19.53125 74.21875 31.78125 74.21875 
z
" id="DejaVuSans-48"/>
       <path d="M 10.59375 35.5 
L 73.1875 35.5 
L 73.1875 27.203125 
L 10.59375 27.203125 
z
" id="DejaVuSans-8722"/>
       <path d="M 40.578125 39.3125 
Q 47.65625 37.796875 51.625 33 
Q 55.609375 28.21875 55.609375 21.1875 
Q 55.609375 10.40625 48.1875 4.484375 
Q 40.765625 -1.421875 27.09375 -1.421875 
Q 22.515625 -1.421875 17.65625 -0.515625 
Q 12.796875 0.390625 7.625 2.203125 
L 7.625 11.71875 
Q 11.71875 9.328125 16.59375 8.109375 
Q 21.484375 6.890625 26.8125 6.890625 
Q 36.078125 6.890625 40.9375 10.546875 
Q 45.796875 14.203125 45.796875 21.1875 
Q 45.796875 27.640625 41.28125 31.265625 
Q 36.765625 34.90625 28.71875 34.90625 
L 20.21875 34.90625 
L 20.21875 43.015625 
L 29.109375 43.015625 
Q 36.375 43.015625 40.234375 45.921875 
Q 44.09375 48.828125 44.09375 54.296875 
Q 44.09375 59.90625 40.109375 62.90625 
Q 36.140625 65.921875 28.71875 65.921875 
Q 24.65625 65.921875 20.015625 65.03125 
Q 15.375 64.15625 9.8125 62.3125 
L 9.8125 71.09375 
Q 15.4375 72.65625 20.34375 73.4375 
Q 25.25 74.21875 29.59375 74.21875 
Q 40.828125 74.21875 47.359375 69.109375 
Q 53.90625 64.015625 53.90625 55.328125 
Q 53.90625 49.265625 50.4375 45.09375 
Q 46.96875 40.921875 40.578125 39.3125 
z
" id="DejaVuSans-51"/>
      </defs>
      <g transform="translate(73.4478 143.520928)scale(0.1 -0.1)">
       <use transform="translate(0 0.765625)" xlink:href="#DejaVuSans-49"/>
       <use transform="translate(63.623047 0.765625)" xlink:href="#DejaVuSans-48"/>
       <use transform="translate(128.203125 39.046875)scale(0.7)" xlink:href="#DejaVuSans-8722"/>
       <use transform="translate(186.855469 39.046875)scale(0.7)" xlink:href="#DejaVuSans-51"/>
      </g>
     </g>
    </g>
    <g id="xtick_2">
     <g id="line2d_3">
      <path clip-path="url(#pba9a02161d)" d="M 122.597026 128.92249 
L 122.597026 11.572264 
" style="fill:none;stroke:#b0b0b0;stroke-linecap:square;stroke-width:0.8;"/>
     </g>
     <g id="line2d_4">
      <g>
       <use style="stroke:#000000;stroke-width:0.8;" x="122.597026" xlink:href="#m9a50dffb23" y="128.92249"/>
      </g>
     </g>
     <g id="text_2">
      <!-- $\mathdefault{10^{-2}}$ -->
      <defs>
       <path d="M 19.1875 8.296875 
L 53.609375 8.296875 
L 53.609375 0 
L 7.328125 0 
L 7.328125 8.296875 
Q 12.9375 14.109375 22.625 23.890625 
Q 32.328125 33.6875 34.8125 36.53125 
Q 39.546875 41.84375 41.421875 45.53125 
Q 43.3125 49.21875 43.3125 52.78125 
Q 43.3125 58.59375 39.234375 62.25 
Q 35.15625 65.921875 28.609375 65.921875 
Q 23.96875 65.921875 18.8125 64.3125 
Q 13.671875 62.703125 7.8125 59.421875 
L 7.8125 69.390625 
Q 13.765625 71.78125 18.9375 73 
Q 24.125 74.21875 28.421875 74.21875 
Q 39.75 74.21875 46.484375 68.546875 
Q 53.21875 62.890625 53.21875 53.421875 
Q 53.21875 48.921875 51.53125 44.890625 
Q 49.859375 40.875 45.40625 35.40625 
Q 44.1875 33.984375 37.640625 27.21875 
Q 31.109375 20.453125 19.1875 8.296875 
z
" id="DejaVuSans-50"/>
      </defs>
      <g transform="translate(110.847026 143.520928)scale(0.1 -0.1)">
       <use transform="translate(0 0.765625)" xlink:href="#DejaVuSans-49"/>
       <use transform="translate(63.623047 0.765625)" xlink:href="#DejaVuSans-48"/>
       <use transform="translate(128.203125 39.046875)scale(0.7)" xlink:href="#DejaVuSans-8722"/>
       <use transform="translate(186.855469 39.046875)scale(0.7)" xlink:href="#DejaVuSans-50"/>
      </g>
     </g>
    </g>
    <g id="xtick_3">
     <g id="line2d_5">
      <path clip-path="url(#pba9a02161d)" d="M 159.996252 128.92249 
L 159.996252 11.572264 
" style="fill:none;stroke:#b0b0b0;stroke-linecap:square;stroke-width:0.8;"/>
     </g>
     <g id="line2d_6">
      <g>
       <use style="stroke:#000000;stroke-width:0.8;" x="159.996252" xlink:href="#m9a50dffb23" y="128.92249"/>
      </g>
     </g>
     <g id="text_3">
      <!-- $\mathdefault{10^{-1}}$ -->
      <g transform="translate(148.246252 143.520928)scale(0.1 -0.1)">
       <use transform="translate(0 0.684375)" xlink:href="#DejaVuSans-49"/>
       <use transform="translate(63.623047 0.684375)" xlink:href="#DejaVuSans-48"/>
       <use transform="translate(128.203125 38.965625)scale(0.7)" xlink:href="#DejaVuSans-8722"/>
       <use transform="translate(186.855469 38.965625)scale(0.7)" xlink:href="#DejaVuSans-49"/>
      </g>
     </g>
    </g>
    <g id="xtick_4">
     <g id="line2d_7">
      <path clip-path="url(#pba9a02161d)" d="M 197.395477 128.92249 
L 197.395477 11.572264 
" style="fill:none;stroke:#b0b0b0;stroke-linecap:square;stroke-width:0.8;"/>
     </g>
     <g id="line2d_8">
      <g>
       <use style="stroke:#000000;stroke-width:0.8;" x="197.395477" xlink:href="#m9a50dffb23" y="128.92249"/>
      </g>
     </g>
     <g id="text_4">
      <!-- $\mathdefault{10^{0}}$ -->
      <g transform="translate(188.595477 143.520928)scale(0.1 -0.1)">
       <use transform="translate(0 0.765625)" xlink:href="#DejaVuSans-49"/>
       <use transform="translate(63.623047 0.765625)" xlink:href="#DejaVuSans-48"/>
       <use transform="translate(128.203125 39.046875)scale(0.7)" xlink:href="#DejaVuSans-48"/>
      </g>
     </g>
    </g>
    <g id="xtick_5">
     <g id="line2d_9">
      <defs>
       <path d="M 0 0 
L 0 2 
" id="md90a248816" style="stroke:#000000;stroke-width:0.6;"/>
      </defs>
      <g>
       <use style="stroke:#000000;stroke-width:0.6;" x="59.056864" xlink:href="#md90a248816" y="128.92249"/>
      </g>
     </g>
    </g>
    <g id="xtick_6">
     <g id="line2d_10">
      <g>
       <use style="stroke:#000000;stroke-width:0.6;" x="65.64254" xlink:href="#md90a248816" y="128.92249"/>
      </g>
     </g>
    </g>
    <g id="xtick_7">
     <g id="line2d_11">
      <g>
       <use style="stroke:#000000;stroke-width:0.6;" x="70.315152" xlink:href="#md90a248816" y="128.92249"/>
      </g>
     </g>
    </g>
    <g id="xtick_8">
     <g id="line2d_12">
      <g>
       <use style="stroke:#000000;stroke-width:0.6;" x="73.939512" xlink:href="#md90a248816" y="128.92249"/>
      </g>
     </g>
    </g>
    <g id="xtick_9">
     <g id="line2d_13">
      <g>
       <use style="stroke:#000000;stroke-width:0.6;" x="76.900829" xlink:href="#md90a248816" y="128.92249"/>
      </g>
     </g>
    </g>
    <g id="xtick_10">
     <g id="line2d_14">
      <g>
       <use style="stroke:#000000;stroke-width:0.6;" x="79.404587" xlink:href="#md90a248816" y="128.92249"/>
      </g>
     </g>
    </g>
    <g id="xtick_11">
     <g id="line2d_15">
      <g>
       <use style="stroke:#000000;stroke-width:0.6;" x="81.573441" xlink:href="#md90a248816" y="128.92249"/>
      </g>
     </g>
    </g>
    <g id="xtick_12">
     <g id="line2d_16">
      <g>
       <use style="stroke:#000000;stroke-width:0.6;" x="83.486506" xlink:href="#md90a248816" y="128.92249"/>
      </g>
     </g>
    </g>
    <g id="xtick_13">
     <g id="line2d_17">
      <g>
       <use style="stroke:#000000;stroke-width:0.6;" x="96.456089" xlink:href="#md90a248816" y="128.92249"/>
      </g>
     </g>
    </g>
    <g id="xtick_14">
     <g id="line2d_18">
      <g>
       <use style="stroke:#000000;stroke-width:0.6;" x="103.041766" xlink:href="#md90a248816" y="128.92249"/>
      </g>
     </g>
    </g>
    <g id="xtick_15">
     <g id="line2d_19">
      <g>
       <use style="stroke:#000000;stroke-width:0.6;" x="107.714378" xlink:href="#md90a248816" y="128.92249"/>
      </g>
     </g>
    </g>
    <g id="xtick_16">
     <g id="line2d_20">
      <g>
       <use style="stroke:#000000;stroke-width:0.6;" x="111.338737" xlink:href="#md90a248816" y="128.92249"/>
      </g>
     </g>
    </g>
    <g id="xtick_17">
     <g id="line2d_21">
      <g>
       <use style="stroke:#000000;stroke-width:0.6;" x="114.300055" xlink:href="#md90a248816" y="128.92249"/>
      </g>
     </g>
    </g>
    <g id="xtick_18">
     <g id="line2d_22">
      <g>
       <use style="stroke:#000000;stroke-width:0.6;" x="116.803813" xlink:href="#md90a248816" y="128.92249"/>
      </g>
     </g>
    </g>
    <g id="xtick_19">
     <g id="line2d_23">
      <g>
       <use style="stroke:#000000;stroke-width:0.6;" x="118.972667" xlink:href="#md90a248816" y="128.92249"/>
      </g>
     </g>
    </g>
    <g id="xtick_20">
     <g id="line2d_24">
      <g>
       <use style="stroke:#000000;stroke-width:0.6;" x="120.885731" xlink:href="#md90a248816" y="128.92249"/>
      </g>
     </g>
    </g>
    <g id="xtick_21">
     <g id="line2d_25">
      <g>
       <use style="stroke:#000000;stroke-width:0.6;" x="133.855315" xlink:href="#md90a248816" y="128.92249"/>
      </g>
     </g>
    </g>
    <g id="xtick_22">
     <g id="line2d_26">
      <g>
       <use style="stroke:#000000;stroke-width:0.6;" x="140.440991" xlink:href="#md90a248816" y="128.92249"/>
      </g>
     </g>
    </g>
    <g id="xtick_23">
     <g id="line2d_27">
      <g>
       <use style="stroke:#000000;stroke-width:0.6;" x="145.113603" xlink:href="#md90a248816" y="128.92249"/>
      </g>
     </g>
    </g>
    <g id="xtick_24">
     <g id="line2d_28">
      <g>
       <use style="stroke:#000000;stroke-width:0.6;" x="148.737963" xlink:href="#md90a248816" y="128.92249"/>
      </g>
     </g>
    </g>
    <g id="xtick_25">
     <g id="line2d_29">
      <g>
       <use style="stroke:#000000;stroke-width:0.6;" x="151.69928" xlink:href="#md90a248816" y="128.92249"/>
      </g>
     </g>
    </g>
    <g id="xtick_26">
     <g id="line2d_30">
      <g>
       <use style="stroke:#000000;stroke-width:0.6;" x="154.203038" xlink:href="#md90a248816" y="128.92249"/>
      </g>
     </g>
    </g>
    <g id="xtick_27">
     <g id="line2d_31">
      <g>
       <use style="stroke:#000000;stroke-width:0.6;" x="156.371892" xlink:href="#md90a248816" y="128.92249"/>
      </g>
     </g>
    </g>
    <g id="xtick_28">
     <g id="line2d_32">
      <g>
       <use style="stroke:#000000;stroke-width:0.6;" x="158.284957" xlink:href="#md90a248816" y="128.92249"/>
      </g>
     </g>
    </g>
    <g id="xtick_29">
     <g id="line2d_33">
      <g>
       <use style="stroke:#000000;stroke-width:0.6;" x="171.25454" xlink:href="#md90a248816" y="128.92249"/>
      </g>
     </g>
    </g>
    <g id="xtick_30">
     <g id="line2d_34">
      <g>
       <use style="stroke:#000000;stroke-width:0.6;" x="177.840217" xlink:href="#md90a248816" y="128.92249"/>
      </g>
     </g>
    </g>
    <g id="xtick_31">
     <g id="line2d_35">
      <g>
       <use style="stroke:#000000;stroke-width:0.6;" x="182.512829" xlink:href="#md90a248816" y="128.92249"/>
      </g>
     </g>
    </g>
    <g id="xtick_32">
     <g id="line2d_36">
      <g>
       <use style="stroke:#000000;stroke-width:0.6;" x="186.137188" xlink:href="#md90a248816" y="128.92249"/>
      </g>
     </g>
    </g>
    <g id="xtick_33">
     <g id="line2d_37">
      <g>
       <use style="stroke:#000000;stroke-width:0.6;" x="189.098506" xlink:href="#md90a248816" y="128.92249"/>
      </g>
     </g>
    </g>
    <g id="xtick_34">
     <g id="line2d_38">
      <g>
       <use style="stroke:#000000;stroke-width:0.6;" x="191.602264" xlink:href="#md90a248816" y="128.92249"/>
      </g>
     </g>
    </g>
    <g id="xtick_35">
     <g id="line2d_39">
      <g>
       <use style="stroke:#000000;stroke-width:0.6;" x="193.771118" xlink:href="#md90a248816" y="128.92249"/>
      </g>
     </g>
    </g>
    <g id="xtick_36">
     <g id="line2d_40">
      <g>
       <use style="stroke:#000000;stroke-width:0.6;" x="195.684182" xlink:href="#md90a248816" y="128.92249"/>
      </g>
     </g>
    </g>
    <g id="xtick_37">
     <g id="line2d_41">
      <g>
       <use style="stroke:#000000;stroke-width:0.6;" x="208.653766" xlink:href="#md90a248816" y="128.92249"/>
      </g>
     </g>
    </g>
    <g id="xtick_38">
     <g id="line2d_42">
      <g>
       <use style="stroke:#000000;stroke-width:0.6;" x="215.239443" xlink:href="#md90a248816" y="128.92249"/>
      </g>
     </g>
    </g>
    <g id="text_5">
     <!-- f (Hz) -->
     <defs>
      <path d="M 37.109375 75.984375 
L 37.109375 68.5 
L 28.515625 68.5 
Q 23.6875 68.5 21.796875 66.546875 
Q 19.921875 64.59375 19.921875 59.515625 
L 19.921875 54.6875 
L 34.71875 54.6875 
L 34.71875 47.703125 
L 19.921875 47.703125 
L 19.921875 0 
L 10.890625 0 
L 10.890625 47.703125 
L 2.296875 47.703125 
L 2.296875 54.6875 
L 10.890625 54.6875 
L 10.890625 58.5 
Q 10.890625 67.625 15.140625 71.796875 
Q 19.390625 75.984375 28.609375 75.984375 
z
" id="DejaVuSans-102"/>
      <path id="DejaVuSans-32"/>
      <path d="M 31 75.875 
Q 24.46875 64.65625 21.28125 53.65625 
Q 18.109375 42.671875 18.109375 31.390625 
Q 18.109375 20.125 21.3125 9.0625 
Q 24.515625 -2 31 -13.1875 
L 23.1875 -13.1875 
Q 15.875 -1.703125 12.234375 9.375 
Q 8.59375 20.453125 8.59375 31.390625 
Q 8.59375 42.28125 12.203125 53.3125 
Q 15.828125 64.359375 23.1875 75.875 
z
" id="DejaVuSans-40"/>
      <path d="M 9.8125 72.90625 
L 19.671875 72.90625 
L 19.671875 43.015625 
L 55.515625 43.015625 
L 55.515625 72.90625 
L 65.375 72.90625 
L 65.375 0 
L 55.515625 0 
L 55.515625 34.71875 
L 19.671875 34.71875 
L 19.671875 0 
L 9.8125 0 
z
" id="DejaVuSans-72"/>
      <path d="M 5.515625 54.6875 
L 48.1875 54.6875 
L 48.1875 46.484375 
L 14.40625 7.171875 
L 48.1875 7.171875 
L 48.1875 0 
L 4.296875 0 
L 4.296875 8.203125 
L 38.09375 47.515625 
L 5.515625 47.515625 
z
" id="DejaVuSans-122"/>
      <path d="M 8.015625 75.875 
L 15.828125 75.875 
Q 23.140625 64.359375 26.78125 53.3125 
Q 30.421875 42.28125 30.421875 31.390625 
Q 30.421875 20.453125 26.78125 9.375 
Q 23.140625 -1.703125 15.828125 -13.1875 
L 8.015625 -13.1875 
Q 14.5 -2 17.703125 9.0625 
Q 20.90625 20.125 20.90625 31.390625 
Q 20.90625 42.671875 17.703125 53.65625 
Q 14.5 64.65625 8.015625 75.875 
z
" id="DejaVuSans-41"/>
     </defs>
     <g transform="translate(121.839733 157.199053)scale(0.1 -0.1)">
      <use xlink:href="#DejaVuSans-102"/>
      <use x="35.205078" xlink:href="#DejaVuSans-32"/>
      <use x="66.992188" xlink:href="#DejaVuSans-40"/>
      <use x="106.005859" xlink:href="#DejaVuSans-72"/>
      <use x="181.201172" xlink:href="#DejaVuSans-122"/>
      <use x="233.691406" xlink:href="#DejaVuSans-41"/>
     </g>
    </g>
   </g>
   <g id="matplotlib.axis_2">
    <g id="ytick_1">
     <g id="line2d_43">
      <path clip-path="url(#pba9a02161d)" d="M 54.978125 101.111323 
L 215.971654 101.111323 
" style="fill:none;stroke:#b0b0b0;stroke-linecap:square;stroke-width:0.8;"/>
     </g>
     <g id="line2d_44">
      <defs>
       <path d="M 0 0 
L -3.5 0 
" id="m4604d10b7a" style="stroke:#000000;stroke-width:0.8;"/>
      </defs>
      <g>
       <use style="stroke:#000000;stroke-width:0.8;" x="54.978125" xlink:href="#m4604d10b7a" y="101.111323"/>
      </g>
     </g>
     <g id="text_6">
      <!-- $\mathdefault{10^{-3}}$ -->
      <g transform="translate(24.478125 104.910542)scale(0.1 -0.1)">
       <use transform="translate(0 0.765625)" xlink:href="#DejaVuSans-49"/>
       <use transform="translate(63.623047 0.765625)" xlink:href="#DejaVuSans-48"/>
       <use transform="translate(128.203125 39.046875)scale(0.7)" xlink:href="#DejaVuSans-8722"/>
       <use transform="translate(186.855469 39.046875)scale(0.7)" xlink:href="#DejaVuSans-51"/>
      </g>
     </g>
    </g>
    <g id="ytick_2">
     <g id="line2d_45">
      <path clip-path="url(#pba9a02161d)" d="M 54.978125 72.169094 
L 215.971654 72.169094 
" style="fill:none;stroke:#b0b0b0;stroke-linecap:square;stroke-width:0.8;"/>
     </g>
     <g id="line2d_46">
      <g>
       <use style="stroke:#000000;stroke-width:0.8;" x="54.978125" xlink:href="#m4604d10b7a" y="72.169094"/>
      </g>
     </g>
     <g id="text_7">
      <!-- $\mathdefault{10^{-1}}$ -->
      <g transform="translate(24.478125 75.968313)scale(0.1 -0.1)">
       <use transform="translate(0 0.684375)" xlink:href="#DejaVuSans-49"/>
       <use transform="translate(63.623047 0.684375)" xlink:href="#DejaVuSans-48"/>
       <use transform="translate(128.203125 38.965625)scale(0.7)" xlink:href="#DejaVuSans-8722"/>
       <use transform="translate(186.855469 38.965625)scale(0.7)" xlink:href="#DejaVuSans-49"/>
      </g>
     </g>
    </g>
    <g id="ytick_3">
     <g id="line2d_47">
      <path clip-path="url(#pba9a02161d)" d="M 54.978125 43.226864 
L 215.971654 43.226864 
" style="fill:none;stroke:#b0b0b0;stroke-linecap:square;stroke-width:0.8;"/>
     </g>
     <g id="line2d_48">
      <g>
       <use style="stroke:#000000;stroke-width:0.8;" x="54.978125" xlink:href="#m4604d10b7a" y="43.226864"/>
      </g>
     </g>
     <g id="text_8">
      <!-- $\mathdefault{10^{1}}$ -->
      <g transform="translate(30.378125 47.026083)scale(0.1 -0.1)">
       <use transform="translate(0 0.684375)" xlink:href="#DejaVuSans-49"/>
       <use transform="translate(63.623047 0.684375)" xlink:href="#DejaVuSans-48"/>
       <use transform="translate(128.203125 38.965625)scale(0.7)" xlink:href="#DejaVuSans-49"/>
      </g>
     </g>
    </g>
    <g id="ytick_4">
     <g id="line2d_49">
      <path clip-path="url(#pba9a02161d)" d="M 54.978125 14.284635 
L 215.971654 14.284635 
" style="fill:none;stroke:#b0b0b0;stroke-linecap:square;stroke-width:0.8;"/>
     </g>
     <g id="line2d_50">
      <g>
       <use style="stroke:#000000;stroke-width:0.8;" x="54.978125" xlink:href="#m4604d10b7a" y="14.284635"/>
      </g>
     </g>
     <g id="text_9">
      <!-- $\mathdefault{10^{3}}$ -->
      <g transform="translate(30.378125 18.083854)scale(0.1 -0.1)">
       <use transform="translate(0 0.765625)" xlink:href="#DejaVuSans-49"/>
       <use transform="translate(63.623047 0.765625)" xlink:href="#DejaVuSans-48"/>
       <use transform="translate(128.203125 39.046875)scale(0.7)" xlink:href="#DejaVuSans-51"/>
      </g>
     </g>
    </g>
    <g id="text_10">
     <!-- S(f) (m^2/s) -->
     <defs>
      <path d="M 53.515625 70.515625 
L 53.515625 60.890625 
Q 47.90625 63.578125 42.921875 64.890625 
Q 37.9375 66.21875 33.296875 66.21875 
Q 25.25 66.21875 20.875 63.09375 
Q 16.5 59.96875 16.5 54.203125 
Q 16.5 49.359375 19.40625 46.890625 
Q 22.3125 44.4375 30.421875 42.921875 
L 36.375 41.703125 
Q 47.40625 39.59375 52.65625 34.296875 
Q 57.90625 29 57.90625 20.125 
Q 57.90625 9.515625 50.796875 4.046875 
Q 43.703125 -1.421875 29.984375 -1.421875 
Q 24.8125 -1.421875 18.96875 -0.25 
Q 13.140625 0.921875 6.890625 3.21875 
L 6.890625 13.375 
Q 12.890625 10.015625 18.65625 8.296875 
Q 24.421875 6.59375 29.984375 6.59375 
Q 38.421875 6.59375 43.015625 9.90625 
Q 47.609375 13.234375 47.609375 19.390625 
Q 47.609375 24.75 44.3125 27.78125 
Q 41.015625 30.8125 33.5 32.328125 
L 27.484375 33.5 
Q 16.453125 35.6875 11.515625 40.375 
Q 6.59375 45.0625 6.59375 53.421875 
Q 6.59375 63.09375 13.40625 68.65625 
Q 20.21875 74.21875 32.171875 74.21875 
Q 37.3125 74.21875 42.625 73.28125 
Q 47.953125 72.359375 53.515625 70.515625 
z
" id="DejaVuSans-83"/>
      <path d="M 52 44.1875 
Q 55.375 50.25 60.0625 53.125 
Q 64.75 56 71.09375 56 
Q 79.640625 56 84.28125 50.015625 
Q 88.921875 44.046875 88.921875 33.015625 
L 88.921875 0 
L 79.890625 0 
L 79.890625 32.71875 
Q 79.890625 40.578125 77.09375 44.375 
Q 74.3125 48.1875 68.609375 48.1875 
Q 61.625 48.1875 57.5625 43.546875 
Q 53.515625 38.921875 53.515625 30.90625 
L 53.515625 0 
L 44.484375 0 
L 44.484375 32.71875 
Q 44.484375 40.625 41.703125 44.40625 
Q 38.921875 48.1875 33.109375 48.1875 
Q 26.21875 48.1875 22.15625 43.53125 
Q 18.109375 38.875 18.109375 30.90625 
L 18.109375 0 
L 9.078125 0 
L 9.078125 54.6875 
L 18.109375 54.6875 
L 18.109375 46.1875 
Q 21.1875 51.21875 25.484375 53.609375 
Q 29.78125 56 35.6875 56 
Q 41.65625 56 45.828125 52.96875 
Q 50 49.953125 52 44.1875 
z
" id="DejaVuSans-109"/>
      <path d="M 46.6875 72.90625 
L 73.1875 45.703125 
L 63.375 45.703125 
L 41.890625 64.984375 
L 20.40625 45.703125 
L 10.59375 45.703125 
L 37.109375 72.90625 
z
" id="DejaVuSans-94"/>
      <path d="M 25.390625 72.90625 
L 33.6875 72.90625 
L 8.296875 -9.28125 
L 0 -9.28125 
z
" id="DejaVuSans-47"/>
      <path d="M 44.28125 53.078125 
L 44.28125 44.578125 
Q 40.484375 46.53125 36.375 47.5 
Q 32.28125 48.484375 27.875 48.484375 
Q 21.1875 48.484375 17.84375 46.4375 
Q 14.5 44.390625 14.5 40.28125 
Q 14.5 37.15625 16.890625 35.375 
Q 19.28125 33.59375 26.515625 31.984375 
L 29.59375 31.296875 
Q 39.15625 29.25 43.1875 25.515625 
Q 47.21875 21.78125 47.21875 15.09375 
Q 47.21875 7.46875 41.1875 3.015625 
Q 35.15625 -1.421875 24.609375 -1.421875 
Q 20.21875 -1.421875 15.453125 -0.5625 
Q 10.6875 0.296875 5.421875 2 
L 5.421875 11.28125 
Q 10.40625 8.6875 15.234375 7.390625 
Q 20.0625 6.109375 24.8125 6.109375 
Q 31.15625 6.109375 34.5625 8.28125 
Q 37.984375 10.453125 37.984375 14.40625 
Q 37.984375 18.0625 35.515625 20.015625 
Q 33.0625 21.96875 24.703125 23.78125 
L 21.578125 24.515625 
Q 13.234375 26.265625 9.515625 29.90625 
Q 5.8125 33.546875 5.8125 39.890625 
Q 5.8125 47.609375 11.28125 51.796875 
Q 16.75 56 26.8125 56 
Q 31.78125 56 36.171875 55.265625 
Q 40.578125 54.546875 44.28125 53.078125 
z
" id="DejaVuSans-115"/>
     </defs>
     <g transform="translate(18.398437 101.104408)rotate(-90)scale(0.1 -0.1)">
      <use xlink:href="#DejaVuSans-83"/>
      <use x="63.476562" xlink:href="#DejaVuSans-40"/>
      <use x="102.490234" xlink:href="#DejaVuSans-102"/>
      <use x="137.695312" xlink:href="#DejaVuSans-41"/>
      <use x="176.708984" xlink:href="#DejaVuSans-32"/>
      <use x="208.496094" xlink:href="#DejaVuSans-40"/>
      <use x="247.509766" xlink:href="#DejaVuSans-109"/>
      <use x="344.921875" xlink:href="#DejaVuSans-94"/>
      <use x="428.710938" xlink:href="#DejaVuSans-50"/>
      <use x="492.333984" xlink:href="#DejaVuSans-47"/>
      <use x="526.025391" xlink:href="#DejaVuSans-115"/>
      <use x="578.125" xlink:href="#DejaVuSans-41"/>
     </g>
    </g>
   </g>
   <g id="line2d_51">
    <path clip-path="url(#pba9a02161d)" d="M 62.296013 32.778162 
L 73.554301 40.242758 
L 80.139978 47.339422 
L 84.81259 26.875566 
L 88.43695 22.900226 
L 91.398267 21.838708 
L 93.902025 22.223409 
L 96.070879 35.293049 
L 97.983944 20.91977 
L 99.695238 19.955451 
L 101.243293 24.859699 
L 102.656556 28.32548 
L 103.956631 22.167794 
L 105.160314 32.540039 
L 106.280915 47.883331 
L 107.329167 43.009524 
L 108.313849 29.714734 
L 109.242232 43.655807 
L 110.120407 47.779658 
L 110.953527 31.292833 
L 111.74599 28.855651 
L 112.501581 20.51247 
L 113.223579 20.213624 
L 114.577886 17.115143 
L 115.21492 21.018574 
L 115.827909 29.84653 
L 116.418602 29.103606 
L 116.988565 46.028385 
L 117.539204 22.973996 
L 118.071785 19.497245 
L 118.587456 26.343721 
L 119.087258 29.840138 
L 119.572138 18.425773 
L 120.042962 21.298635 
L 120.500521 44.175733 
L 121.378696 21.597353 
L 121.800597 23.857802 
L 122.211816 23.366679 
L 122.61288 37.612698 
L 123.004279 23.81302 
L 123.386468 19.310313 
L 123.75987 21.22249 
L 124.12488 38.393547 
L 124.481868 24.387435 
L 125.508037 41.188423 
L 125.836175 28.805637 
L 126.157815 28.716447 
L 126.473209 23.204801 
L 126.782595 44.893167 
L 127.086198 40.048355 
L 127.676891 21.644347 
L 127.964372 24.75751 
L 128.246854 25.305354 
L 128.524506 28.334431 
L 128.797492 50.080156 
L 129.330074 18.310491 
L 129.589956 20.907146 
L 129.845745 43.97487 
L 130.097568 25.099476 
L 130.345547 18.918576 
L 130.830427 28.81609 
L 131.067545 28.525306 
L 131.30125 38.464231 
L 131.531641 25.231445 
L 131.75881 21.419615 
L 131.982845 24.126399 
L 132.203831 34.040691 
L 132.421852 23.06007 
L 132.636984 20.013698 
L 132.849305 21.603888 
L 133.058885 22.203266 
L 133.265796 22.09831 
L 133.470104 25.0396 
L 133.671874 34.56858 
L 133.871169 20.423133 
L 134.068047 25.822382 
L 134.262568 54.968638 
L 134.454786 25.972061 
L 134.644757 22.798863 
L 134.832531 22.436249 
L 135.018159 25.900209 
L 135.201689 25.459929 
L 135.562644 18.806465 
L 135.740157 16.906365 
L 135.91575 18.408058 
L 136.089466 28.98517 
L 136.261344 27.894992 
L 136.431422 21.658856 
L 136.766326 25.493768 
L 136.931223 25.044888 
L 137.094464 25.253951 
L 137.25608 24.766095 
L 137.416104 25.850462 
L 137.574566 22.641349 
L 137.731497 31.027895 
L 137.886927 31.371562 
L 138.040884 43.020835 
L 138.193394 39.526356 
L 138.344486 24.49398 
L 138.494186 24.329227 
L 138.642518 22.799097 
L 138.789508 29.298691 
L 138.93518 29.816516 
L 139.222661 18.170445 
L 139.364516 18.085409 
L 139.644562 34.424332 
L 139.919862 27.374541 
L 140.055781 33.502103 
L 140.324255 19.600792 
L 140.588362 31.464655 
L 141.104034 22.04396 
L 141.355857 19.820574 
L 141.603835 39.449162 
L 141.726419 36.018175 
L 141.848085 28.857761 
L 141.968846 37.870853 
L 142.207707 32.158403 
L 142.325833 32.709191 
L 142.559539 23.375066 
L 142.675143 30.381788 
L 142.78993 27.642876 
L 142.903911 28.665894 
L 143.129502 36.543848 
L 143.46212 26.524648 
L 143.571496 26.607483 
L 143.788063 38.93549 
L 144.00178 19.407374 
L 144.420959 38.025038 
L 144.62656 26.560782 
L 144.728393 26.541492 
L 144.829591 23.543136 
L 145.030116 37.650857 
L 145.129457 30.843573 
L 145.228195 42.297332 
L 145.520856 24.44575 
L 145.61725 26.342345 
L 145.808338 24.606681 
L 145.903045 29.132992 
L 146.090819 24.606986 
L 146.276447 34.739382 
L 146.459978 28.029673 
L 146.550971 26.596999 
L 146.641458 36.2307 
L 146.909931 20.284868 
L 147.174039 46.165397 
L 147.347755 23.921775 
L 147.604894 27.594109 
L 147.68971 39.647721 
L 147.774086 32.697864 
L 147.858026 36.976838 
L 148.189512 22.587963 
L 148.352752 31.263651 
L 148.433762 21.515246 
L 148.514369 23.836981 
L 148.674392 31.393202 
L 148.753817 32.509591 
L 148.832855 35.43803 
L 148.989786 47.665437 
L 149.067687 33.060638 
L 149.145216 37.353516 
L 149.222376 34.133736 
L 149.299172 36.779806 
L 149.375607 36.276661 
L 149.451683 35.713968 
L 149.602775 22.845253 
L 149.677797 42.719775 
L 149.82681 29.107051 
L 149.974468 30.97639 
L 150.047797 48.389035 
L 150.265817 28.337017 
L 150.48095 35.918474 
L 150.552032 35.596274 
L 150.763431 23.542105 
L 150.833291 25.163201 
L 150.902851 48.697039 
L 150.972114 31.22283 
L 151.041084 35.501664 
L 151.109762 33.404406 
L 151.31407 23.499736 
L 151.381605 33.322633 
L 151.51584 23.107288 
L 151.648974 39.867904 
L 151.781026 26.274564 
L 151.912013 41.053076 
L 152.041951 24.7886 
L 152.106533 30.030658 
L 152.234931 50.754387 
L 152.425645 25.245307 
L 152.488722 21.034555 
L 152.551555 26.810416 
L 152.614146 49.560063 
L 152.676496 32.428933 
L 152.800484 46.868034 
L 152.984708 31.285704 
L 153.045655 31.478 
L 153.106374 23.464922 
L 153.166866 25.170402 
L 153.227135 36.520282 
L 153.28718 34.549451 
L 153.347004 27.246146 
L 153.406609 29.400284 
L 153.465996 29.90622 
L 153.525166 50.781998 
L 153.584122 29.46192 
L 153.642864 33.38607 
L 153.701395 49.148406 
L 153.759716 36.470714 
L 153.933432 22.82138 
L 153.990927 22.621459 
L 154.048219 25.466892 
L 154.105309 40.781988 
L 154.1622 36.464275 
L 154.218892 30.482027 
L 154.275387 45.831655 
L 154.331686 32.008066 
L 154.499422 22.516842 
L 154.610291 48.812079 
L 154.665443 38.656396 
L 154.720409 29.133951 
L 154.775189 31.418047 
L 154.829785 47.640696 
L 154.884198 37.353914 
L 154.938429 41.908377 
L 155.046352 24.952278 
L 155.153562 28.393744 
L 155.260069 35.547193 
L 155.313062 33.76704 
L 155.365882 26.592704 
L 155.471011 26.609897 
L 155.523321 28.77401 
L 155.627438 45.339873 
L 155.730893 25.703334 
L 155.884849 47.285064 
L 155.986682 31.377946 
L 156.03736 34.265041 
L 156.08788 32.79546 
L 156.188452 39.208285 
L 156.238505 32.554865 
L 156.288405 36.477109 
L 156.338151 36.094196 
L 156.387746 27.668446 
L 156.43719 33.722875 
L 156.486484 37.868157 
L 156.584625 26.729291 
L 156.633474 28.231666 
L 156.682176 37.092659 
L 156.730733 33.741404 
L 156.779145 27.056113 
L 156.827413 49.834213 
L 156.875539 29.964009 
L 156.923522 27.908278 
L 157.019065 36.478959 
L 157.066627 36.372253 
L 157.114049 39.527846 
L 157.161334 38.480659 
L 157.208481 36.671048 
L 157.255492 30.021929 
L 157.302368 36.47213 
L 157.395714 31.541053 
L 157.442187 39.246186 
L 157.488528 35.523931 
L 157.534736 29.880816 
L 157.626761 31.312233 
L 157.80926 49.508585 
L 157.944801 24.578615 
L 157.989732 38.435589 
L 158.034538 26.968853 
L 158.079221 24.400311 
L 158.123781 38.44519 
L 158.16822 32.587511 
L 158.212537 30.308433 
L 158.256734 31.853968 
L 158.344768 46.118406 
L 158.388607 40.71367 
L 158.475931 34.801529 
L 158.562789 51.250628 
L 158.649184 26.289816 
L 158.69221 29.146456 
L 158.777921 46.567954 
L 158.863183 29.76742 
L 158.905646 33.907356 
L 158.947999 41.294077 
L 159.032375 38.553389 
L 159.074399 34.493796 
L 159.116314 46.675011 
L 159.158122 41.922124 
L 159.241416 31.342271 
L 159.365561 55.913594 
L 159.406733 53.758749 
L 159.611041 30.174176 
L 159.732404 30.975763 
L 159.772657 56.092795 
L 159.812811 37.841566 
L 159.932681 31.133126 
L 159.972442 39.539534 
L 160.012105 29.982199 
L 160.051673 27.818797 
L 160.208984 47.400149 
L 160.248075 41.19165 
L 160.325976 46.064725 
L 160.364786 39.739957 
L 160.403505 50.979066 
L 160.442131 43.549579 
L 160.557461 33.210302 
L 160.595723 51.429585 
L 160.633895 32.861619 
L 160.671978 41.453425 
L 160.747877 28.292031 
L 160.785693 36.721404 
L 160.823422 47.308516 
L 160.898618 42.79978 
L 160.936086 40.16819 
L 160.973468 40.650739 
L 161.010763 44.959909 
L 161.085099 28.108429 
L 161.122139 28.762068 
L 161.195968 41.208014 
L 161.232757 38.511871 
L 161.269463 31.637998 
L 161.306086 55.743941 
L 161.342626 36.554698 
L 161.379085 29.018815 
L 161.415462 30.777865 
L 161.596134 46.822829 
L 161.667844 38.75235 
L 161.70358 51.321289 
L 161.774819 38.463882 
L 161.845746 38.829112 
L 161.916364 33.39286 
L 162.02172 47.586949 
L 162.091579 45.892147 
L 162.126397 48.136731 
L 162.230403 29.663123 
L 162.264925 29.745608 
L 162.436439 44.251859 
L 162.470526 38.255655 
L 162.538485 28.112241 
L 162.572358 32.302226 
L 162.606161 36.959116 
L 162.639894 33.718728 
L 162.673557 30.727887 
L 162.70715 32.797945 
L 162.774129 52.57765 
L 162.840832 48.078685 
L 162.874081 36.318082 
L 162.940376 37.42088 
L 162.973423 57.65302 
L 163.039314 39.426768 
L 163.07216 31.588251 
L 163.10494 33.13835 
L 163.235401 57.536412 
L 163.364822 30.690268 
L 163.397017 36.655552 
L 163.429148 35.721902 
L 163.525162 55.901855 
L 163.55704 41.554274 
L 163.588857 31.795835 
L 163.652303 44.168124 
L 163.683934 44.009832 
L 163.715503 49.847027 
L 163.747011 39.597643 
L 163.778458 35.738217 
L 163.809844 48.611963 
L 163.872434 45.796372 
L 163.903639 32.453862 
L 163.996897 38.805834 
L 164.027864 28.640548 
L 164.058772 33.696889 
L 164.089622 53.959087 
L 164.151146 32.245131 
L 164.212437 28.155547 
L 164.242997 28.375648 
L 164.364662 58.181876 
L 164.425155 37.098614 
L 164.485423 39.368361 
L 164.515474 39.935528 
L 164.545469 39.923026 
L 164.575408 46.341403 
L 164.635123 38.380374 
L 164.664898 42.065408 
L 164.724285 38.46774 
L 164.753897 48.745697 
L 164.81296 33.547065 
L 164.842411 35.70016 
L 164.959684 53.753975 
L 164.98887 34.541421 
L 165.047087 43.890849 
L 165.076117 56.606026 
L 165.105095 42.506665 
L 165.134021 46.940468 
L 165.220493 34.367842 
L 165.19172 56.295546 
L 165.249215 37.778491 
L 165.306507 54.243885 
L 165.335078 40.070568 
L 165.420489 34.138362 
L 165.44886 55.023146 
L 165.505453 40.378043 
L 165.533676 33.841741 
L 165.56185 44.885698 
L 165.618051 35.548655 
L 165.64608 43.561648 
L 165.729875 39.321644 
L 165.785499 35.312545 
L 165.840934 45.755259 
L 165.86858 36.180656 
L 165.951238 30.008539 
L 165.978698 31.126487 
L 166.142487 58.208989 
L 166.169625 34.435399 
L 166.250769 40.062494 
L 166.358334 62.462342 
L 166.438543 30.38032 
L 166.491796 48.032947 
L 166.544876 40.871609 
L 166.624171 45.21059 
L 166.650517 48.349693 
L 166.67682 44.052237 
L 166.781609 32.971526 
L 166.729299 50.638488 
L 166.807701 34.274439 
L 166.85976 55.409992 
L 166.911652 45.733301 
L 167.040662 33.241966 
L 167.117579 55.964546 
L 167.168656 38.658536 
L 167.295648 45.336077 
L 167.346169 46.774855 
L 167.396532 36.76738 
L 167.496794 54.48305 
L 167.471786 36.168333 
L 167.521763 49.931205 
L 167.571586 51.534984 
L 167.59644 37.125934 
L 167.695479 56.713734 
L 167.744772 36.412439 
L 167.793917 49.946004 
L 167.818434 49.351082 
L 167.842913 52.772772 
L 167.867356 41.916048 
L 167.891762 50.68219 
L 167.989022 39.503456 
L 167.940465 52.370909 
L 168.013246 42.439384 
L 168.085702 49.48715 
L 168.109783 42.037384 
L 168.133827 36.710736 
L 168.181811 46.120925 
L 168.205749 49.856016 
L 168.229652 43.9543 
L 168.324915 31.275142 
L 168.348644 39.919362 
L 168.372338 39.704357 
L 168.513781 57.339261 
L 168.607397 40.300714 
L 168.630717 56.755835 
L 168.700476 38.400889 
L 168.723663 51.875487 
L 168.769937 36.331171 
L 168.839102 36.54929 
L 168.907974 46.694033 
L 168.930867 39.221058 
L 168.953727 33.359366 
L 169.022116 40.845155 
L 169.067549 58.253366 
L 169.112855 45.97871 
L 169.225571 36.34042 
L 169.292827 32.520135 
L 169.359805 48.994518 
L 169.38207 37.368423 
L 169.470826 40.187427 
L 169.492939 46.669601 
L 169.559099 40.462803 
L 169.624991 42.582116 
L 169.646896 36.397883 
L 169.73422 49.104153 
L 169.755978 38.720531 
L 169.885917 46.909674 
L 169.929 59.532872 
L 170.03621 35.736486 
L 170.057567 36.37405 
L 170.142717 60.447591 
L 170.163935 48.08613 
L 170.185125 33.34921 
L 170.24853 48.971357 
L 170.269611 43.668143 
L 170.290663 53.848078 
L 170.374603 48.349624 
L 170.478921 37.773178 
L 170.62385 64.512311 
L 170.70609 30.715791 
L 170.726585 33.030501 
L 170.747054 65.661806 
L 170.828673 51.578029 
L 170.950339 34.979892 
L 170.970528 36.965766 
L 171.051035 50.184792 
L 171.030946 36.784145 
L 171.111155 48.471966 
L 171.210862 40.861819 
L 171.29019 36.307333 
L 171.329709 51.082502 
L 171.447692 34.929597 
L 171.428087 53.466631 
L 171.467273 36.3891 
L 171.525874 57.075566 
L 171.564824 52.0651 
L 171.623075 33.247822 
L 171.661793 59.862676 
L 171.681118 63.203426 
L 171.719698 40.799748 
L 171.758187 63.427412 
L 171.796585 42.954892 
L 171.81575 48.232293 
L 171.892184 43.571409 
L 171.930267 33.69504 
L 171.987224 38.187228 
L 172.043982 56.777585 
L 172.081711 35.720743 
L 172.119352 47.912395 
L 172.138141 48.985979 
L 172.213076 36.931441 
L 172.250415 40.83552 
L 172.269052 53.735562 
L 172.343387 44.323562 
L 172.380428 33.239233 
L 172.435831 44.75328 
L 172.454257 42.759922 
L 172.472662 40.30616 
L 172.491046 59.784461 
L 172.527751 38.011725 
L 172.582655 45.936824 
L 172.655572 38.444387 
L 172.691908 54.147488 
L 172.782395 37.672502 
L 172.800432 38.573078 
L 172.836446 52.379668 
L 172.890317 37.551764 
L 172.908235 34.96252 
L 172.926133 38.554464 
L 172.944011 86.059155 
L 173.033107 42.449755 
L 173.104034 52.682429 
L 173.121718 39.478518 
L 173.139382 37.208781 
L 173.157027 42.948726 
L 173.19226 51.535774 
L 173.244966 33.700984 
L 173.262497 33.890737 
L 173.384685 83.77322 
L 173.419428 38.917427 
L 173.505962 41.741437 
L 173.523213 54.246048 
L 173.574858 34.308218 
L 173.609197 50.134529 
L 173.643463 33.734588 
L 173.71178 51.31932 
L 173.728814 61.909679 
L 173.796774 41.121696 
L 173.813719 48.988239 
L 173.830647 46.429211 
L 173.847557 47.594396 
L 173.86445 93.39451 
L 173.915023 38.095429 
L 173.948651 44.169039 
L 173.965439 39.677711 
L 174.032417 47.038905 
L 174.049119 40.420817 
L 174.08247 52.333955 
L 174.165551 42.462184 
L 174.182117 42.427042 
L 174.248209 45.956442 
L 174.231711 36.028298 
L 174.264691 42.930685 
L 174.297603 35.481236 
L 174.330449 52.833901 
L 174.346847 61.421903 
L 174.395942 33.847891 
L 174.42859 53.945812 
L 174.444889 35.012692 
L 174.493689 57.967775 
L 174.542343 42.29278 
L 174.558529 38.930189 
L 174.606989 47.246832 
L 174.623111 41.132831 
L 174.639216 50.564194 
L 174.735514 47.139029 
L 174.767487 42.954084 
L 174.815329 45.914264 
L 174.86303 66.890995 
L 174.910592 40.375682 
L 174.926415 39.886533 
L 174.942223 41.474316 
L 174.973792 71.894935 
L 175.052447 41.308798 
L 175.068132 54.94446 
L 175.146333 36.278926 
L 175.099458 57.853705 
L 175.193074 41.198648 
L 175.301614 57.916468 
L 175.270677 40.617819 
L 175.317061 47.355423 
L 175.378702 35.014293 
L 175.409434 53.270281 
L 175.440109 41.542654 
L 175.470726 37.14686 
L 175.562232 69.907396 
L 175.622951 40.126619 
L 175.683444 43.747598 
L 175.698532 41.378418 
L 175.728666 46.175525 
L 175.743712 43.567389 
L 175.833697 41.31297 
L 175.848646 53.727754 
L 175.863582 37.71112 
L 175.952907 38.289138 
L 176.041744 68.521344 
L 176.071248 42.376111 
L 176.115405 69.275316 
L 176.144776 41.162446 
L 176.174094 45.567176 
L 176.188734 39.825518 
L 176.217973 53.581592 
L 176.261733 43.556285 
L 176.305375 41.688706 
L 176.406754 80.066828 
L 176.493149 39.169588 
L 176.536175 49.735528 
L 176.550492 60.393599 
L 176.607633 39.409011 
L 176.621887 40.067395 
L 176.650357 35.778047 
L 176.678777 44.367838 
L 176.73547 40.67376 
L 176.791964 52.922657 
L 176.820138 37.650512 
L 176.904368 42.828347 
L 176.94632 41.466957 
L 177.0299 64.04867 
L 177.140674 38.849749 
L 177.154468 44.419129 
L 177.16825 59.949769 
L 177.209527 38.65712 
L 177.250699 39.795822 
L 177.264399 41.813956 
L 177.278089 68.527681 
L 177.373592 42.772987 
L 177.482055 77.122769 
L 177.400775 40.117569 
L 177.495562 56.691366 
L 177.549478 43.522702 
L 177.562929 56.816515 
L 177.603216 51.470252 
L 177.616623 62.530669 
L 177.656777 39.414828 
L 177.696832 45.777734 
L 177.776646 50.257112 
L 177.736788 43.160038 
L 177.789911 44.998733 
L 177.816407 34.958745 
L 177.84286 59.04589 
L 177.908806 39.560863 
L 177.921963 40.260385 
L 177.987588 60.324526 
L 178.052949 54.723439 
L 178.06599 58.703981 
L 178.10505 39.912778 
L 178.131037 51.804642 
L 178.182888 42.210431 
L 178.208752 54.475979 
L 178.234574 49.089915 
L 178.35027 68.301278 
L 178.286096 46.191336 
L 178.363074 65.156998 
L 178.477861 41.004539 
L 178.490565 42.099635 
L 178.553937 69.619734 
L 178.579217 39.950847 
L 178.591842 37.047725 
L 178.604458 42.162345 
L 178.667388 76.036925 
L 178.717557 47.174232 
L 178.755082 64.214401 
L 178.842306 40.724771 
L 178.867142 62.195555 
L 178.953767 49.664495 
L 179.003061 61.967332 
L 179.039933 46.231854 
L 179.064469 55.169897 
L 179.150051 37.83394 
L 179.198753 39.917837 
L 179.235185 52.578212 
L 179.283633 45.461078 
L 179.295723 37.976096 
L 179.319875 53.284502 
L 179.368071 45.128586 
L 179.452073 60.778389 
L 179.475994 44.628487 
L 179.571327 66.111622 
L 179.535642 44.272809 
L 179.583204 52.71458 
L 179.606933 40.135075 
L 179.666103 61.905119 
L 179.689711 43.085415 
L 179.748581 52.434029 
L 179.77207 41.808475 
L 179.807239 49.145787 
L 179.900653 62.152141 
L 179.923922 51.4274 
L 179.947159 39.141883 
L 180.028226 49.273453 
L 180.051314 43.99178 
L 180.085884 55.228215 
L 180.120381 40.431154 
L 180.143338 57.064824 
L 180.189155 54.34092 
L 180.269026 43.99578 
L 180.280404 58.341918 
L 180.371144 37.94454 
L 180.405041 44.025536 
L 180.461379 42.008693 
L 180.517522 66.897081 
L 180.562298 40.881375 
L 180.640359 48.953611 
L 180.706971 50.880215 
L 180.762274 41.616294 
L 180.773311 42.016869 
L 180.80638 71.676939 
L 180.828389 40.623071 
L 180.88328 48.286775 
L 180.937986 61.020315 
L 180.981619 42.36766 
L 180.992509 48.694722 
L 181.025135 59.881178 
L 181.068534 45.513637 
L 181.079366 56.065454 
L 181.187289 38.305575 
L 181.198041 42.729564 
L 181.219526 72.442806 
L 181.283809 42.198945 
L 181.326524 61.383767 
L 181.337185 62.100484 
L 181.369127 42.347264 
L 181.401006 85.528889 
L 181.443414 54.47157 
L 181.464576 63.917324 
L 181.485712 47.754076 
L 181.496269 39.655019 
L 181.538429 65.317319 
L 181.590976 49.721481 
L 181.643354 41.488347 
L 181.653809 55.532823 
L 181.664258 66.363709 
L 181.726808 40.154132 
L 181.747605 45.075815 
L 181.861514 68.026257 
L 181.809836 40.979438 
L 181.871829 64.658927 
L 181.974629 44.826687 
L 181.954121 69.825834 
L 181.984873 54.780255 
L 182.066596 41.078103 
L 182.046204 58.744062 
L 182.086962 50.968493 
L 182.107303 63.433239 
L 182.127619 39.637584 
L 182.188413 47.432736 
L 182.198524 49.091142 
L 182.238902 43.945494 
L 182.26912 46.712059 
L 182.279181 41.286927 
L 182.319359 69.97499 
L 182.369444 50.993339 
L 182.379442 88.067968 
L 182.449258 40.876885 
L 182.479088 47.048953 
L 182.489019 77.232102 
L 182.548478 42.25263 
L 182.587997 55.066988 
L 182.676565 42.03027 
L 182.607721 71.002565 
L 182.705981 44.825563 
L 182.813384 65.149118 
L 182.803649 44.198754 
L 182.823113 57.059678 
L 182.910411 43.736891 
L 182.939407 44.060773 
L 182.94906 43.0648 
L 182.958708 43.166619 
L 182.96835 72.037572 
L 183.074038 64.422379 
L 183.121852 40.667562 
L 183.188556 49.66627 
L 183.245513 71.790754 
L 183.217059 44.948773 
L 183.292825 45.518861 
L 183.302271 44.710483 
L 183.387038 64.768872 
L 183.405815 52.111833 
L 183.452663 43.608808 
L 183.43394 68.118754 
L 183.508704 48.620966 
L 183.518025 68.153191 
L 183.527341 44.917291 
L 183.610944 51.545034 
L 183.638717 44.872848 
L 183.647964 48.989683 
L 183.657205 75.54513 
L 183.749334 45.158495 
L 183.758518 54.433985 
L 183.776871 46.952612 
L 183.831806 58.002723 
L 183.850076 55.038352 
L 183.859204 66.43936 
L 183.950197 44.259449 
L 183.959268 44.943165 
L 183.977396 72.202928 
L 184.05872 40.003292 
L 184.067731 41.882824 
L 184.121692 80.588841 
L 184.175475 47.644106 
L 184.246909 43.241987 
L 184.202299 64.894964 
L 184.255816 44.813399 
L 184.34462 70.798392 
L 184.309157 41.891017 
L 184.362323 50.939976 
L 184.397671 45.016799 
L 184.432942 60.203568 
L 184.441748 76.619219 
L 184.485705 42.194374 
L 184.529544 47.957523 
L 184.538298 47.63454 
L 184.634277 66.822232 
L 184.581995 43.188288 
L 184.651667 58.656245 
L 184.729692 79.31843 
L 184.772878 43.09386 
L 184.781502 42.487471 
L 184.893192 79.092901 
L 184.953016 42.48657 
L 185.012621 47.922792 
L 185.038099 55.548812 
L 185.063538 45.435821 
L 185.080474 65.611381 
L 185.122739 43.472758 
L 185.173312 52.054505 
L 185.265621 42.892715 
L 185.215336 60.471901 
L 185.299059 46.128002 
L 185.307407 46.34599 
L 185.357409 43.112414 
L 185.42384 67.828321 
L 185.448682 43.142379 
L 185.539444 51.736704 
L 185.588738 65.810646 
L 185.580532 48.571584 
L 185.605136 53.442232 
L 185.613329 44.24812 
L 185.686879 53.786799 
L 185.719461 46.094736 
L 185.792533 85.962646 
L 185.832987 67.289911 
L 185.873341 43.361664 
L 185.945725 46.337309 
L 186.097486 73.535367 
L 186.105434 63.841653 
L 186.208409 44.345759 
L 186.129256 74.598903 
L 186.216303 48.760582 
L 186.295035 79.56345 
L 186.326421 47.386475 
L 186.334258 46.92624 
L 186.342091 49.156517 
L 186.365568 44.678254 
L 186.451362 84.372073 
L 186.466913 44.686735 
L 186.567628 49.891289 
L 186.583068 63.631839 
L 186.621602 45.821731 
L 186.660045 51.384419 
L 186.73666 44.183376 
L 186.690735 85.785066 
L 186.75194 61.295887 
L 186.759574 74.340992 
L 186.774832 43.539929 
L 186.850909 52.394336 
L 186.903951 43.61845 
L 186.873662 58.44166 
L 186.911514 54.161304 
L 186.919074 73.35583 
L 186.979426 46.668066 
L 187.017033 56.352271 
L 187.062046 48.204763 
L 187.054553 74.907759 
L 187.12187 59.572744 
L 187.129333 60.303704 
L 187.211196 46.497829 
L 187.18891 74.679633 
L 187.226036 56.589824 
L 187.292648 81.929771 
L 187.255675 46.364882 
L 187.329537 47.33302 
L 187.395727 75.448036 
L 187.410399 46.279313 
L 187.447022 57.217749 
L 187.520021 47.627684 
L 187.476261 67.062771 
L 187.556398 56.595287 
L 187.563664 56.207942 
L 187.570926 48.026309 
L 187.650599 72.002581 
L 187.657822 79.544398 
L 187.67226 43.10484 
L 187.729882 44.782583 
L 187.737071 44.517362 
L 187.744256 45.848179 
L 187.765793 67.944927 
L 187.865922 51.698157 
L 187.87305 46.804144 
L 187.915755 75.422596 
L 187.979604 49.622651 
L 188.02203 73.965645 
L 188.064346 45.243929 
L 188.085463 47.2001 
L 188.176653 93.278291 
L 188.099526 44.834644 
L 188.204609 50.782499 
L 188.21159 50.838357 
L 188.267334 47.010544 
L 188.34367 84.234427 
L 188.385157 44.63727 
L 188.460943 57.100519 
L 188.55689 76.904677 
L 188.488414 45.931353 
L 188.563721 46.625583 
L 188.57055 44.938756 
L 188.577376 47.695733 
L 188.584199 110.405309 
L 188.679422 47.028037 
L 188.686202 48.022887 
L 188.713295 64.814146 
L 188.780831 47.97057 
L 188.794304 48.110228 
L 188.801037 48.563699 
L 188.814494 76.78541 
L 188.90838 51.171155 
L 188.915065 51.019676 
L 188.921748 84.375259 
L 188.961787 45.691298 
L 189.02166 58.69906 
L 189.061453 47.918798 
L 189.087928 73.480047 
L 189.140748 54.267296 
L 189.153927 54.608251 
L 189.167094 50.977269 
L 189.193398 90.047679 
L 189.226217 47.068144 
L 189.272053 48.242408 
L 189.285125 53.691699 
L 189.298187 46.409091 
L 189.304714 48.606644 
L 189.330795 75.211746 
L 189.356835 46.481636 
L 189.415272 64.340562 
L 189.492863 47.173367 
L 189.454114 76.32548 
L 189.518644 53.777165 
L 189.595744 80.20561 
L 189.563664 46.198171 
L 189.627761 49.158187 
L 189.729794 45.674481 
L 189.742503 84.315785 
L 189.843819 47.287616 
L 189.85644 51.516967 
L 189.900534 73.221495 
L 189.938233 48.645404 
L 189.969583 57.079492 
L 190.044576 46.942389 
L 190.013371 88.152639 
L 190.088163 48.130559 
L 190.150228 45.404078 
L 190.218226 74.818946 
L 190.292083 49.104427 
L 190.255196 77.731905 
L 190.328885 51.105956 
L 190.383934 74.855525 
L 190.414435 46.795907 
L 190.432709 51.094293 
L 190.499537 45.626568 
L 190.487407 66.893736 
L 190.505599 49.665299 
L 190.511659 82.283428 
L 190.547968 47.549277 
L 190.614324 63.553739 
L 190.662414 48.516897 
L 190.674414 65.957176 
L 190.722327 49.803989 
L 190.74623 80.750655 
L 190.787976 48.24838 
L 190.829615 49.383798 
L 190.930297 86.925211 
L 190.918485 48.943757 
L 190.948 52.480206 
L 190.953896 51.973721 
L 191.018619 74.342758 
L 191.000993 49.006557 
L 191.059671 53.719879 
L 191.158941 46.518468 
L 191.088932 73.785988 
L 191.176397 48.961088 
L 191.217053 84.987921 
L 191.303833 61.505885 
L 191.344173 48.929984 
L 191.321134 78.378476 
L 191.413093 58.140203 
L 191.476015 74.139274 
L 191.453162 47.48565 
L 191.521623 72.878202 
L 191.629432 48.858505 
L 191.578454 76.723239 
L 191.635087 54.409502 
L 191.680251 49.855795 
L 191.657685 69.996876 
L 191.697156 53.249006 
L 191.747763 79.556298 
L 191.714042 47.673176 
L 191.80381 62.994 
L 191.820586 49.769126 
L 191.876383 71.068121 
L 191.915326 61.209965 
L 191.920882 66.586659 
L 192.003991 51.106252 
L 192.01504 52.66175 
L 192.086677 71.145696 
L 192.064669 47.55715 
L 192.114146 51.22839 
L 192.136088 47.831447 
L 192.163473 62.907631 
L 192.190812 57.550559 
L 192.283423 72.921134 
L 192.218106 48.226902 
L 192.299712 58.952876 
L 192.353889 48.826083 
L 192.38091 80.907203 
L 192.397101 63.236105 
L 192.477815 79.71261 
L 192.45633 50.936685 
L 192.493909 51.287698 
L 192.499271 48.009008 
L 192.558129 69.575659 
L 192.595474 54.934658 
L 192.659295 72.126143 
L 192.669907 48.769334 
L 192.712287 66.321247 
L 192.786188 49.016648 
L 192.796718 100.494108 
L 192.823013 52.143549 
L 192.864996 82.502593 
L 192.838769 49.869187 
L 192.932988 60.543721 
L 192.979894 49.022201 
L 193.000697 75.23115 
L 193.042224 57.577243 
L 193.047407 70.806977 
L 193.114642 48.664325 
L 193.15073 53.105279 
L 193.155879 53.261461 
L 193.2534 69.995943 
L 193.222667 48.950411 
L 193.268744 59.910597 
L 193.365592 48.2061 
L 193.314691 69.340195 
L 193.375753 63.267055 
L 193.390982 50.304308 
L 193.406198 78.916309 
L 193.477014 62.70695 
L 193.527409 74.994761 
L 193.492149 50.904921 
L 193.567613 52.841721 
L 193.572631 50.694424 
L 193.607717 70.390508 
L 193.642727 55.077017 
L 193.732409 73.939755 
L 193.692612 51.039598 
L 193.747308 51.3357 
L 193.821598 49.112893 
L 193.762193 73.033564 
L 193.836415 56.183617 
L 193.841352 74.460956 
L 193.925037 48.712383 
L 193.944665 55.698153 
L 194.003407 48.411806 
L 194.037576 65.422299 
L 194.057069 53.672136 
L 194.110553 82.320683 
L 194.144497 50.602029 
L 194.1687 66.48737 
L 194.197695 48.763503 
L 194.245906 77.999989 
L 194.279569 64.481388 
L 194.384914 90.553576 
L 194.313162 50.440929 
L 194.389687 67.915332 
L 194.432574 51.497511 
L 194.480094 73.207678 
L 194.499063 64.938894 
L 194.551114 76.227345 
L 194.522743 50.896592 
L 194.602998 54.156167 
L 194.61712 50.866319 
L 194.612414 61.997772 
L 194.621825 53.393735 
L 194.626528 82.752215 
L 194.63593 48.600516 
L 194.729654 63.084306 
L 194.743666 50.249756 
L 194.827485 76.467219 
L 194.846053 52.679321 
L 194.947799 83.747555 
L 194.883125 49.707315 
L 194.957017 55.756006 
L 194.975437 82.11848 
L 195.007623 49.533137 
L 195.06265 55.375281 
L 195.163053 50.781106 
L 195.117492 89.868759 
L 195.167602 54.106936 
L 195.172149 81.526217 
L 195.190328 50.921531 
L 195.276398 68.798519 
L 195.339527 90.695464 
L 195.388957 50.977371 
L 195.46952 91.671213 
L 195.505198 68.820719 
L 195.602909 50.850352 
L 195.536351 71.540144 
L 195.616188 55.71673 
L 195.620612 73.133203 
L 195.68242 51.51473 
L 195.726425 54.151181 
L 195.770311 99.749945 
L 195.743994 49.606925 
L 195.844647 82.880959 
L 195.957682 49.942093 
L 196.061329 77.489016 
L 196.013907 49.609081 
L 196.069937 54.052163 
L 196.074239 53.389315 
L 196.07854 80.701181 
L 196.095732 50.519224 
L 196.185693 70.779449 
L 196.253902 49.648671 
L 196.304872 51.663361 
L 196.381027 70.109271 
L 196.347225 51.638636 
L 196.41476 64.430209 
L 196.423182 50.641878 
L 196.519725 74.293166 
L 196.528093 55.415867 
L 196.615698 81.707162 
L 196.540637 50.716256 
L 196.640641 57.996159 
L 196.665547 54.268871 
L 196.677985 54.561667 
L 196.731774 74.149586 
L 196.764787 51.973661 
L 196.789502 60.004335 
L 196.851127 51.718805 
L 196.892081 69.762091 
L 196.916604 52.570634 
L 196.949244 73.994835 
L 196.97368 66.970509 
L 196.97775 80.528801 
L 197.075106 52.404053 
L 197.083193 67.465017 
L 197.091276 50.779605 
L 197.183939 89.890007 
L 197.195987 54.380693 
L 197.200001 51.126626 
L 197.232077 70.885939 
L 197.304016 54.115987 
L 197.308003 53.719666 
L 197.31199 60.750609 
L 197.323943 56.373343 
L 197.359749 86.009782 
L 197.415292 52.217072 
L 197.431127 58.404283 
L 197.478538 50.443134 
L 197.498252 82.928379 
L 197.545468 54.053599 
L 197.549396 52.975732 
L 197.561176 59.710554 
L 197.623857 85.767939 
L 197.612123 52.454332 
L 197.67071 60.399586 
L 197.678506 53.324095 
L 197.705761 71.408574 
L 197.744618 64.132599 
L 197.748499 93.489435 
L 197.814328 52.010591 
L 197.856781 72.914162 
L 197.933686 52.790341 
L 197.895279 85.8064 
L 197.972002 53.026002 
L 197.98348 65.213148 
L 198.00641 83.687052 
L 198.082611 51.835051 
L 198.094011 79.368644 
L 198.196247 53.096424 
L 198.143316 90.161981 
L 198.203794 68.581473 
L 198.207567 68.184155 
L 198.211338 72.67477 
L 198.237715 92.543027 
L 198.301594 52.402227 
L 198.320335 91.883691 
L 198.395081 53.40989 
L 198.436045 53.630949 
L 198.521365 81.697582 
L 198.547243 70.981925 
L 198.580455 52.787522 
L 198.562012 80.034944 
L 198.654016 57.488507 
L 198.657685 87.854071 
L 198.73455 52.228534 
L 198.763737 53.000081 
L 198.774668 51.533077 
L 198.77831 54.01637 
L 198.876341 92.752341 
L 198.821953 52.833085 
L 198.890814 61.611177 
L 198.937763 52.815822 
L 198.984576 73.571975 
L 198.995359 62.424971 
L 199.052753 53.946434 
L 199.106375 84.770739 
L 199.17049 53.157019 
L 199.152706 85.258315 
L 199.216638 54.582533 
L 199.248509 86.729964 
L 199.294437 52.383397 
L 199.326156 56.265138 
L 199.361328 52.181041 
L 199.333197 72.737687 
L 199.375375 61.961693 
L 199.378885 86.776759 
L 199.417445 52.668315 
L 199.483833 53.296682 
L 199.539528 85.688592 
L 199.595034 55.88512 
L 199.60542 53.559959 
L 199.612341 68.743484 
L 199.626173 67.283821 
L 199.629629 90.08486 
L 199.646899 54.447619 
L 199.736407 62.094657 
L 199.746703 52.479429 
L 199.818594 72.894718 
L 199.842488 62.297636 
L 199.845898 85.67158 
L 199.917353 53.840206 
L 199.954656 73.052205 
L 200.015514 53.755589 
L 200.072782 54.874896 
L 200.163325 53.964028 
L 200.186717 73.694724 
L 200.193394 53.295332 
L 200.286588 90.164691 
L 200.299857 60.732016 
L 200.392444 77.793484 
L 200.37925 53.885396 
L 200.408922 58.071225 
L 200.422092 89.850595 
L 200.458255 52.919794 
L 200.523801 86.382172 
L 200.621627 54.923955 
L 200.576049 93.726282 
L 200.637874 57.087557 
L 200.641122 57.243758 
L 200.712403 88.43495 
L 200.68328 54.598342 
L 200.754377 72.829745 
L 200.757601 73.808599 
L 200.76727 55.627057 
L 200.812316 61.279933 
L 200.825163 54.807982 
L 200.895643 86.914478 
L 200.911618 55.674052 
L 200.956266 89.778979 
L 200.949895 53.835109 
L 201.019837 55.84665 
L 201.023009 54.556295 
L 201.05786 76.89094 
L 201.092637 66.991552 
L 201.124187 79.525981 
L 201.187105 53.992035 
L 201.19966 71.709182 
L 201.259161 54.54299 
L 201.265412 80.201981 
L 201.309099 61.092399 
L 201.349561 77.755769 
L 201.330899 53.877925 
L 201.417806 59.058287 
L 201.457998 90.445202 
L 201.501171 55.426761 
L 201.535012 65.306684 
L 201.55958 54.259986 
L 201.617779 83.451766 
L 201.642222 59.640529 
L 201.730521 54.998865 
L 201.760857 85.939361 
L 201.794162 54.779523 
L 201.872613 57.989273 
L 201.944694 87.202356 
L 201.896676 55.32509 
L 201.983605 65.910512 
L 201.989583 56.982691 
L 202.001533 83.229058 
L 202.087904 72.696264 
L 202.126474 55.336186 
L 202.173819 78.378692 
L 202.188586 74.337192 
L 202.232807 101.626996 
L 202.21808 56.370692 
L 202.259281 67.338538 
L 202.332597 55.121936 
L 202.312102 85.563329 
L 202.361831 72.15927 
L 202.364751 109.646796 
L 202.411408 56.004014 
L 202.472441 79.115666 
L 202.541915 55.681847 
L 202.527466 86.773089 
L 202.588066 58.884567 
L 202.590946 54.577172 
L 202.625467 100.408515 
L 202.691429 60.84469 
L 202.757124 100.274253 
L 202.777065 55.472563 
L 202.799825 57.562752 
L 202.870746 88.043523 
L 202.893376 55.226221 
L 202.91315 64.456986 
L 202.935721 55.980648 
L 202.95826 91.764516 
L 203.014472 63.803454 
L 203.053704 98.832828 
L 203.062099 55.422582 
L 203.123527 62.003673 
L 203.154155 58.309604 
L 203.145808 107.51102 
L 203.201375 65.927495 
L 203.256753 101.781811 
L 203.28713 56.154204 
L 203.311942 65.399299 
L 203.336716 56.969403 
L 203.36969 101.588128 
L 203.424498 58.171595 
L 203.479121 83.670179 
L 203.473667 55.430818 
L 203.536279 64.674279 
L 203.579693 55.154146 
L 203.555287 77.073467 
L 203.631097 58.979786 
L 203.652692 89.486202 
L 203.676953 55.798649 
L 203.74147 56.552904 
L 203.744153 56.960474 
L 203.754879 84.701817 
L 203.819088 55.350178 
L 203.853763 56.787542 
L 203.859091 55.641223 
L 203.875064 79.414484 
L 203.909619 63.904502 
L 203.912274 95.957021 
L 204.002289 55.732414 
L 204.02076 79.270839 
L 204.107554 91.072154 
L 204.044477 56.912257 
L 204.123285 67.467833 
L 204.136382 56.878883 
L 204.180835 84.210361 
L 204.23558 60.819051 
L 204.26678 94.918961 
L 204.271974 55.986401 
L 204.344519 61.081334 
L 204.390985 56.088721 
L 204.398716 78.101393 
L 204.447596 58.529695 
L 204.452733 83.618233 
L 204.550023 56.024587 
L 204.56023 68.359272 
L 204.661951 56.473251 
L 204.608627 96.217631 
L 204.672088 60.749381 
L 204.679687 89.994951 
L 204.730255 56.751268 
L 204.783182 64.558597 
L 204.795758 110.371033 
L 204.803299 56.37623 
L 204.89352 70.684423 
L 204.940936 57.153609 
L 204.970811 97.620139 
L 205.005597 64.627781 
L 205.013041 56.342575 
L 205.022961 95.280903 
L 205.082357 64.462981 
L 205.084827 95.107446 
L 205.166131 57.64141 
L 205.193142 63.429604 
L 205.239692 57.291344 
L 205.227455 77.48007 
L 205.244585 63.008084 
L 205.290988 89.490709 
L 205.295865 56.778398 
L 205.354273 60.901466 
L 205.366415 98.089097 
L 205.393095 57.003394 
L 205.46805 81.913708 
L 205.489747 56.867575 
L 205.51382 89.264041 
L 205.57864 64.343831 
L 205.583432 110.140661 
L 205.6599 57.921324 
L 205.688483 64.692423 
L 205.795223 86.512494 
L 205.778665 57.021095 
L 205.797587 73.378802 
L 205.865996 56.89344 
L 205.814126 123.588389 
L 205.910659 63.415509 
L 205.990279 57.248465 
L 205.9177 84.096806 
L 206.02295 57.981005 
L 206.083451 105.177212 
L 206.046246 57.908516 
L 206.139099 78.557917 
L 206.249827 57.133536 
L 206.215305 85.880809 
L 206.252126 59.733777 
L 206.314071 92.754686 
L 206.263615 57.313496 
L 206.362088 61.816904 
L 206.368936 58.168995 
L 206.416791 81.038414 
L 206.473578 61.011709 
L 206.507556 59.345728 
L 206.512081 89.222628 
L 206.550492 63.923461 
L 206.552748 86.630032 
L 206.597816 58.700725 
L 206.660701 63.304771 
L 206.712175 57.395483 
L 206.718877 87.28682 
L 206.772393 57.648113 
L 206.805752 93.778867 
L 206.883323 60.456074 
L 206.90321 59.0255 
L 206.894375 80.072538 
L 206.931893 66.793156 
L 206.991304 94.365825 
L 206.971525 58.225094 
L 207.041743 66.747157 
L 207.052687 100.597541 
L 207.155204 58.048146 
L 207.272195 87.9378 
L 207.274354 66.22178 
L 207.280828 58.515115 
L 207.306698 93.202374 
L 207.384063 66.061151 
L 207.386207 92.222829 
L 207.441846 59.269857 
L 207.493036 72.490793 
L 207.577997 58.492563 
L 207.57164 89.161431 
L 207.605513 60.548364 
L 207.618198 58.013793 
L 207.664622 89.949456 
L 207.689889 73.764484 
L 207.694096 95.273022 
L 207.790565 57.740934 
L 207.798926 67.96815 
L 207.815636 97.871822 
L 207.896853 59.028861 
L 207.90516 61.491234 
L 207.930056 59.553667 
L 207.915538 77.888818 
L 207.934201 74.064977 
L 207.983865 118.825535 
L 208.00245 58.469516 
L 208.043675 71.753492 
L 208.088901 58.802833 
L 208.064247 99.881615 
L 208.156504 62.583523 
L 208.168766 58.741655 
L 208.176935 84.226003 
L 208.24824 67.422924 
L 208.331373 86.926063 
L 208.274645 59.912335 
L 208.357643 64.218262 
L 208.397977 86.025081 
L 208.367736 58.84227 
L 208.470325 75.160833 
L 208.474335 58.873267 
L 208.54435 88.701129 
L 208.576256 72.629567 
L 208.578248 95.670624 
L 208.586214 59.457642 
L 208.651783 63.462435 
" style="fill:none;stroke:#000000;stroke-linecap:square;stroke-width:0.8;"/>
   </g>
   <g id="line2d_52">
    <path clip-path="url(#pba9a02161d)" d="M 62.296013 28.772725 
L 114.577886 28.881789 
L 124.12488 29.118521 
L 130.345547 29.490384 
L 135.018159 29.987746 
L 138.93518 30.620195 
L 142.559539 31.429992 
L 145.997204 32.427084 
L 149.451683 33.663626 
L 153.106374 35.215827 
L 157.114049 37.167514 
L 161.810321 39.711374 
L 167.793917 43.220564 
L 176.39231 48.544224 
L 192.33224 58.719519 
L 208.653766 69.230243 
L 208.653766 69.230243 
" style="fill:none;stroke:#ff0000;stroke-linecap:square;stroke-width:2;"/>
   </g>
   <g id="patch_3">
    <path d="M 54.978125 128.92249 
L 54.978125 11.572264 
" style="fill:none;stroke:#000000;stroke-linecap:square;stroke-linejoin:miter;stroke-width:0.8;"/>
   </g>
   <g id="patch_4">
    <path d="M 215.971654 128.92249 
L 215.971654 11.572264 
" style="fill:none;stroke:#000000;stroke-linecap:square;stroke-linejoin:miter;stroke-width:0.8;"/>
   </g>
   <g id="patch_5">
    <path d="M 54.978125 128.92249 
L 215.971654 128.92249 
" style="fill:none;stroke:#000000;stroke-linecap:square;stroke-linejoin:miter;stroke-width:0.8;"/>
   </g>
   <g id="patch_6">
    <path d="M 54.978125 11.572264 
L 215.971654 11.572264 
" style="fill:none;stroke:#000000;stroke-linecap:square;stroke-linejoin:miter;stroke-width:0.8;"/>
   </g>
   <g id="legend_1">
    <g id="patch_7">
     <path d="M 61.978125 123.92249 
L 143.371875 123.92249 
Q 145.371875 123.92249 145.371875 121.92249 
L 145.371875 93.56624 
Q 145.371875 91.56624 143.371875 91.56624 
L 61.978125 91.56624 
Q 59.978125 91.56624 59.978125 93.56624 
L 59.978125 121.92249 
Q 59.978125 123.92249 61.978125 123.92249 
z
" style="fill:#ffffff;opacity:0.8;stroke:#cccccc;stroke-linejoin:miter;"/>
    </g>
    <g id="line2d_53">
     <path d="M 63.978125 99.664678 
L 83.978125 99.664678 
" style="fill:none;stroke:#000000;stroke-linecap:square;stroke-width:0.8;"/>
    </g>
    <g id="line2d_54"/>
    <g id="text_11">
     <!-- simulated -->
     <defs>
      <path d="M 9.421875 54.6875 
L 18.40625 54.6875 
L 18.40625 0 
L 9.421875 0 
z
M 9.421875 75.984375 
L 18.40625 75.984375 
L 18.40625 64.59375 
L 9.421875 64.59375 
z
" id="DejaVuSans-105"/>
      <path d="M 8.5 21.578125 
L 8.5 54.6875 
L 17.484375 54.6875 
L 17.484375 21.921875 
Q 17.484375 14.15625 20.5 10.265625 
Q 23.53125 6.390625 29.59375 6.390625 
Q 36.859375 6.390625 41.078125 11.03125 
Q 45.3125 15.671875 45.3125 23.6875 
L 45.3125 54.6875 
L 54.296875 54.6875 
L 54.296875 0 
L 45.3125 0 
L 45.3125 8.40625 
Q 42.046875 3.421875 37.71875 1 
Q 33.40625 -1.421875 27.6875 -1.421875 
Q 18.265625 -1.421875 13.375 4.4375 
Q 8.5 10.296875 8.5 21.578125 
z
M 31.109375 56 
z
" id="DejaVuSans-117"/>
      <path d="M 9.421875 75.984375 
L 18.40625 75.984375 
L 18.40625 0 
L 9.421875 0 
z
" id="DejaVuSans-108"/>
      <path d="M 34.28125 27.484375 
Q 23.390625 27.484375 19.1875 25 
Q 14.984375 22.515625 14.984375 16.5 
Q 14.984375 11.71875 18.140625 8.90625 
Q 21.296875 6.109375 26.703125 6.109375 
Q 34.1875 6.109375 38.703125 11.40625 
Q 43.21875 16.703125 43.21875 25.484375 
L 43.21875 27.484375 
z
M 52.203125 31.203125 
L 52.203125 0 
L 43.21875 0 
L 43.21875 8.296875 
Q 40.140625 3.328125 35.546875 0.953125 
Q 30.953125 -1.421875 24.3125 -1.421875 
Q 15.921875 -1.421875 10.953125 3.296875 
Q 6 8.015625 6 15.921875 
Q 6 25.140625 12.171875 29.828125 
Q 18.359375 34.515625 30.609375 34.515625 
L 43.21875 34.515625 
L 43.21875 35.40625 
Q 43.21875 41.609375 39.140625 45 
Q 35.0625 48.390625 27.6875 48.390625 
Q 23 48.390625 18.546875 47.265625 
Q 14.109375 46.140625 10.015625 43.890625 
L 10.015625 52.203125 
Q 14.9375 54.109375 19.578125 55.046875 
Q 24.21875 56 28.609375 56 
Q 40.484375 56 46.34375 49.84375 
Q 52.203125 43.703125 52.203125 31.203125 
z
" id="DejaVuSans-97"/>
      <path d="M 18.3125 70.21875 
L 18.3125 54.6875 
L 36.8125 54.6875 
L 36.8125 47.703125 
L 18.3125 47.703125 
L 18.3125 18.015625 
Q 18.3125 11.328125 20.140625 9.421875 
Q 21.96875 7.515625 27.59375 7.515625 
L 36.8125 7.515625 
L 36.8125 0 
L 27.59375 0 
Q 17.1875 0 13.234375 3.875 
Q 9.28125 7.765625 9.28125 18.015625 
L 9.28125 47.703125 
L 2.6875 47.703125 
L 2.6875 54.6875 
L 9.28125 54.6875 
L 9.28125 70.21875 
z
" id="DejaVuSans-116"/>
      <path d="M 56.203125 29.59375 
L 56.203125 25.203125 
L 14.890625 25.203125 
Q 15.484375 15.921875 20.484375 11.0625 
Q 25.484375 6.203125 34.421875 6.203125 
Q 39.59375 6.203125 44.453125 7.46875 
Q 49.3125 8.734375 54.109375 11.28125 
L 54.109375 2.78125 
Q 49.265625 0.734375 44.1875 -0.34375 
Q 39.109375 -1.421875 33.890625 -1.421875 
Q 20.796875 -1.421875 13.15625 6.1875 
Q 5.515625 13.8125 5.515625 26.8125 
Q 5.515625 40.234375 12.765625 48.109375 
Q 20.015625 56 32.328125 56 
Q 43.359375 56 49.78125 48.890625 
Q 56.203125 41.796875 56.203125 29.59375 
z
M 47.21875 32.234375 
Q 47.125 39.59375 43.09375 43.984375 
Q 39.0625 48.390625 32.421875 48.390625 
Q 24.90625 48.390625 20.390625 44.140625 
Q 15.875 39.890625 15.1875 32.171875 
z
" id="DejaVuSans-101"/>
      <path d="M 45.40625 46.390625 
L 45.40625 75.984375 
L 54.390625 75.984375 
L 54.390625 0 
L 45.40625 0 
L 45.40625 8.203125 
Q 42.578125 3.328125 38.25 0.953125 
Q 33.9375 -1.421875 27.875 -1.421875 
Q 17.96875 -1.421875 11.734375 6.484375 
Q 5.515625 14.40625 5.515625 27.296875 
Q 5.515625 40.1875 11.734375 48.09375 
Q 17.96875 56 27.875 56 
Q 33.9375 56 38.25 53.625 
Q 42.578125 51.265625 45.40625 46.390625 
z
M 14.796875 27.296875 
Q 14.796875 17.390625 18.875 11.75 
Q 22.953125 6.109375 30.078125 6.109375 
Q 37.203125 6.109375 41.296875 11.75 
Q 45.40625 17.390625 45.40625 27.296875 
Q 45.40625 37.203125 41.296875 42.84375 
Q 37.203125 48.484375 30.078125 48.484375 
Q 22.953125 48.484375 18.875 42.84375 
Q 14.796875 37.203125 14.796875 27.296875 
z
" id="DejaVuSans-100"/>
     </defs>
     <g transform="translate(91.978125 103.164678)scale(0.1 -0.1)">
      <use xlink:href="#DejaVuSans-115"/>
      <use x="52.099609" xlink:href="#DejaVuSans-105"/>
      <use x="79.882812" xlink:href="#DejaVuSans-109"/>
      <use x="177.294922" xlink:href="#DejaVuSans-117"/>
      <use x="240.673828" xlink:href="#DejaVuSans-108"/>
      <use x="268.457031" xlink:href="#DejaVuSans-97"/>
      <use x="329.736328" xlink:href="#DejaVuSans-116"/>
      <use x="368.945312" xlink:href="#DejaVuSans-101"/>
      <use x="430.46875" xlink:href="#DejaVuSans-100"/>
     </g>
    </g>
    <g id="line2d_55">
     <path d="M 63.978125 114.342803 
L 83.978125 114.342803 
" style="fill:none;stroke:#ff0000;stroke-linecap:square;stroke-width:2;"/>
    </g>
    <g id="line2d_56"/>
    <g id="text_12">
     <!-- target -->
     <defs>
      <path d="M 41.109375 46.296875 
Q 39.59375 47.171875 37.8125 47.578125 
Q 36.03125 48 33.890625 48 
Q 26.265625 48 22.1875 43.046875 
Q 18.109375 38.09375 18.109375 28.8125 
L 18.109375 0 
L 9.078125 0 
L 9.078125 54.6875 
L 18.109375 54.6875 
L 18.109375 46.1875 
Q 20.953125 51.171875 25.484375 53.578125 
Q 30.03125 56 36.53125 56 
Q 37.453125 56 38.578125 55.875 
Q 39.703125 55.765625 41.0625 55.515625 
z
" id="DejaVuSans-114"/>
      <path d="M 45.40625 27.984375 
Q 45.40625 37.75 41.375 43.109375 
Q 37.359375 48.484375 30.078125 48.484375 
Q 22.859375 48.484375 18.828125 43.109375 
Q 14.796875 37.75 14.796875 27.984375 
Q 14.796875 18.265625 18.828125 12.890625 
Q 22.859375 7.515625 30.078125 7.515625 
Q 37.359375 7.515625 41.375 12.890625 
Q 45.40625 18.265625 45.40625 27.984375 
z
M 54.390625 6.78125 
Q 54.390625 -7.171875 48.1875 -13.984375 
Q 42 -20.796875 29.203125 -20.796875 
Q 24.46875 -20.796875 20.265625 -20.09375 
Q 16.0625 -19.390625 12.109375 -17.921875 
L 12.109375 -9.1875 
Q 16.0625 -11.328125 19.921875 -12.34375 
Q 23.78125 -13.375 27.78125 -13.375 
Q 36.625 -13.375 41.015625 -8.765625 
Q 45.40625 -4.15625 45.40625 5.171875 
L 45.40625 9.625 
Q 42.625 4.78125 38.28125 2.390625 
Q 33.9375 0 27.875 0 
Q 17.828125 0 11.671875 7.65625 
Q 5.515625 15.328125 5.515625 27.984375 
Q 5.515625 40.671875 11.671875 48.328125 
Q 17.828125 56 27.875 56 
Q 33.9375 56 38.28125 53.609375 
Q 42.625 51.21875 45.40625 46.390625 
L 45.40625 54.6875 
L 54.390625 54.6875 
z
" id="DejaVuSans-103"/>
     </defs>
     <g transform="translate(91.978125 117.842803)scale(0.1 -0.1)">
      <use xlink:href="#DejaVuSans-116"/>
      <use x="39.208984" xlink:href="#DejaVuSans-97"/>
      <use x="100.488281" xlink:href="#DejaVuSans-114"/>
      <use x="141.585938" xlink:href="#DejaVuSans-103"/>
      <use x="205.0625" xlink:href="#DejaVuSans-101"/>
      <use x="266.585938" xlink:href="#DejaVuSans-116"/>
     </g>
    </g>
   </g>
  </g>
 </g>
 <defs>
  <clipPath id="pba9a02161d">
   <rect height="117.350226" width="160.993529" x="54.978125" y="11.572264"/>
  </clipPath>
 </defs>
</svg>
