<?xml version="1.0" encoding="utf-8" standalone="no"?>
<!DOCTYPE svg PUBLIC "-//W3C//DTD SVG 1.1//EN"
  "http://www.w3.org/Graphics/SVG/1.1/DTD/svg11.dtd">
<!-- Created with matplotlib (https://matplotlib.org/) -->
<svg height="170.07874pt" version="1.1" viewBox="0 0 226.771654 170.07874" width="226.771654pt" xmlns="http://www.w3.org/2000/svg" xmlns:xlink="http://www.w3.org/1999/xlink">
 <defs>
  <style type="text/css">
*{stroke-linecap:butt;stroke-linejoin:round;}
  </style>
 </defs>
 <g id="figure_1">
  <g id="patch_1">
   <path d="M 0 170.07874 
L 226.771654 170.07874 
L 226.771654 0 
L 0 0 
z
" style="fill:#ffffff;"/>
  </g>
  <g id="axes_1">
   <g id="patch_2">
    <path d="M 54.978125 128.92249 
L 215.971654 128.92249 
L 215.971654 10.8 
L 54.978125 10.8 
z
" style="fill:#ffffff;"/>
   </g>
   <g id="matplotlib.axis_1">
    <g id="xtick_1">
     <g id="line2d_1">
      <path clip-path="url(#p745fbe3776)" d="M 85.1978 128.92249 
L 85.1978 10.8 
" style="fill:none;stroke:#b0b0b0;stroke-linecap:square;stroke-width:0.8;"/>
     </g>
     <g id="line2d_2">
      <defs>
       <path d="M 0 0 
L 0 3.5 
" id="m98233a51bc" style="stroke:#000000;stroke-width:0.8;"/>
      </defs>
      <g>
       <use style="stroke:#000000;stroke-width:0.8;" x="85.1978" xlink:href="#m98233a51bc" y="128.92249"/>
      </g>
     </g>
     <g id="text_1">
      <!-- $\mathdefault{10^{-3}}$ -->
      <defs>
       <path d="M 12.40625 8.296875 
L 28.515625 8.296875 
L 28.515625 63.921875 
L 10.984375 60.40625 
L 10.984375 69.390625 
L 28.421875 72.90625 
L 38.28125 72.90625 
L 38.28125 8.296875 
L 54.390625 8.296875 
L 54.390625 0 
L 12.40625 0 
z
" id="DejaVuSans-49"/>
       <path d="M 31.78125 66.40625 
Q 24.171875 66.40625 20.328125 58.90625 
Q 16.5 51.421875 16.5 36.375 
Q 16.5 21.390625 20.328125 13.890625 
Q 24.171875 6.390625 31.78125 6.390625 
Q 39.453125 6.390625 43.28125 13.890625 
Q 47.125 21.390625 47.125 36.375 
Q 47.125 51.421875 43.28125 58.90625 
Q 39.453125 66.40625 31.78125 66.40625 
z
M 31.78125 74.21875 
Q 44.046875 74.21875 50.515625 64.515625 
Q 56.984375 54.828125 56.984375 36.375 
Q 56.984375 17.96875 50.515625 8.265625 
Q 44.046875 -1.421875 31.78125 -1.421875 
Q 19.53125 -1.421875 13.0625 8.265625 
Q 6.59375 17.96875 6.59375 36.375 
Q 6.59375 54.828125 13.0625 64.515625 
Q 19.53125 74.21875 31.78125 74.21875 
z
" id="DejaVuSans-48"/>
       <path d="M 10.59375 35.5 
L 73.1875 35.5 
L 73.1875 27.203125 
L 10.59375 27.203125 
z
" id="DejaVuSans-8722"/>
       <path d="M 40.578125 39.3125 
Q 47.65625 37.796875 51.625 33 
Q 55.609375 28.21875 55.609375 21.1875 
Q 55.609375 10.40625 48.1875 4.484375 
Q 40.765625 -1.421875 27.09375 -1.421875 
Q 22.515625 -1.421875 17.65625 -0.515625 
Q 12.796875 0.390625 7.625 2.203125 
L 7.625 11.71875 
Q 11.71875 9.328125 16.59375 8.109375 
Q 21.484375 6.890625 26.8125 6.890625 
Q 36.078125 6.890625 40.9375 10.546875 
Q 45.796875 14.203125 45.796875 21.1875 
Q 45.796875 27.640625 41.28125 31.265625 
Q 36.765625 34.90625 28.71875 34.90625 
L 20.21875 34.90625 
L 20.21875 43.015625 
L 29.109375 43.015625 
Q 36.375 43.015625 40.234375 45.921875 
Q 44.09375 48.828125 44.09375 54.296875 
Q 44.09375 59.90625 40.109375 62.90625 
Q 36.140625 65.921875 28.71875 65.921875 
Q 24.65625 65.921875 20.015625 65.03125 
Q 15.375 64.15625 9.8125 62.3125 
L 9.8125 71.09375 
Q 15.4375 72.65625 20.34375 73.4375 
Q 25.25 74.21875 29.59375 74.21875 
Q 40.828125 74.21875 47.359375 69.109375 
Q 53.90625 64.015625 53.90625 55.328125 
Q 53.90625 49.265625 50.4375 45.09375 
Q 46.96875 40.921875 40.578125 39.3125 
z
" id="DejaVuSans-51"/>
      </defs>
      <g transform="translate(73.4478 143.520928)scale(0.1 -0.1)">
       <use transform="translate(0 0.765625)" xlink:href="#DejaVuSans-49"/>
       <use transform="translate(63.623047 0.765625)" xlink:href="#DejaVuSans-48"/>
       <use transform="translate(128.203125 39.046875)scale(0.7)" xlink:href="#DejaVuSans-8722"/>
       <use transform="translate(186.855469 39.046875)scale(0.7)" xlink:href="#DejaVuSans-51"/>
      </g>
     </g>
    </g>
    <g id="xtick_2">
     <g id="line2d_3">
      <path clip-path="url(#p745fbe3776)" d="M 122.597026 128.92249 
L 122.597026 10.8 
" style="fill:none;stroke:#b0b0b0;stroke-linecap:square;stroke-width:0.8;"/>
     </g>
     <g id="line2d_4">
      <g>
       <use style="stroke:#000000;stroke-width:0.8;" x="122.597026" xlink:href="#m98233a51bc" y="128.92249"/>
      </g>
     </g>
     <g id="text_2">
      <!-- $\mathdefault{10^{-2}}$ -->
      <defs>
       <path d="M 19.1875 8.296875 
L 53.609375 8.296875 
L 53.609375 0 
L 7.328125 0 
L 7.328125 8.296875 
Q 12.9375 14.109375 22.625 23.890625 
Q 32.328125 33.6875 34.8125 36.53125 
Q 39.546875 41.84375 41.421875 45.53125 
Q 43.3125 49.21875 43.3125 52.78125 
Q 43.3125 58.59375 39.234375 62.25 
Q 35.15625 65.921875 28.609375 65.921875 
Q 23.96875 65.921875 18.8125 64.3125 
Q 13.671875 62.703125 7.8125 59.421875 
L 7.8125 69.390625 
Q 13.765625 71.78125 18.9375 73 
Q 24.125 74.21875 28.421875 74.21875 
Q 39.75 74.21875 46.484375 68.546875 
Q 53.21875 62.890625 53.21875 53.421875 
Q 53.21875 48.921875 51.53125 44.890625 
Q 49.859375 40.875 45.40625 35.40625 
Q 44.1875 33.984375 37.640625 27.21875 
Q 31.109375 20.453125 19.1875 8.296875 
z
" id="DejaVuSans-50"/>
      </defs>
      <g transform="translate(110.847026 143.520928)scale(0.1 -0.1)">
       <use transform="translate(0 0.765625)" xlink:href="#DejaVuSans-49"/>
       <use transform="translate(63.623047 0.765625)" xlink:href="#DejaVuSans-48"/>
       <use transform="translate(128.203125 39.046875)scale(0.7)" xlink:href="#DejaVuSans-8722"/>
       <use transform="translate(186.855469 39.046875)scale(0.7)" xlink:href="#DejaVuSans-50"/>
      </g>
     </g>
    </g>
    <g id="xtick_3">
     <g id="line2d_5">
      <path clip-path="url(#p745fbe3776)" d="M 159.996252 128.92249 
L 159.996252 10.8 
" style="fill:none;stroke:#b0b0b0;stroke-linecap:square;stroke-width:0.8;"/>
     </g>
     <g id="line2d_6">
      <g>
       <use style="stroke:#000000;stroke-width:0.8;" x="159.996252" xlink:href="#m98233a51bc" y="128.92249"/>
      </g>
     </g>
     <g id="text_3">
      <!-- $\mathdefault{10^{-1}}$ -->
      <g transform="translate(148.246252 143.520928)scale(0.1 -0.1)">
       <use transform="translate(0 0.684375)" xlink:href="#DejaVuSans-49"/>
       <use transform="translate(63.623047 0.684375)" xlink:href="#DejaVuSans-48"/>
       <use transform="translate(128.203125 38.965625)scale(0.7)" xlink:href="#DejaVuSans-8722"/>
       <use transform="translate(186.855469 38.965625)scale(0.7)" xlink:href="#DejaVuSans-49"/>
      </g>
     </g>
    </g>
    <g id="xtick_4">
     <g id="line2d_7">
      <path clip-path="url(#p745fbe3776)" d="M 197.395477 128.92249 
L 197.395477 10.8 
" style="fill:none;stroke:#b0b0b0;stroke-linecap:square;stroke-width:0.8;"/>
     </g>
     <g id="line2d_8">
      <g>
       <use style="stroke:#000000;stroke-width:0.8;" x="197.395477" xlink:href="#m98233a51bc" y="128.92249"/>
      </g>
     </g>
     <g id="text_4">
      <!-- $\mathdefault{10^{0}}$ -->
      <g transform="translate(188.595477 143.520928)scale(0.1 -0.1)">
       <use transform="translate(0 0.765625)" xlink:href="#DejaVuSans-49"/>
       <use transform="translate(63.623047 0.765625)" xlink:href="#DejaVuSans-48"/>
       <use transform="translate(128.203125 39.046875)scale(0.7)" xlink:href="#DejaVuSans-48"/>
      </g>
     </g>
    </g>
    <g id="xtick_5">
     <g id="line2d_9">
      <defs>
       <path d="M 0 0 
L 0 2 
" id="m52347d5ee0" style="stroke:#000000;stroke-width:0.6;"/>
      </defs>
      <g>
       <use style="stroke:#000000;stroke-width:0.6;" x="59.056864" xlink:href="#m52347d5ee0" y="128.92249"/>
      </g>
     </g>
    </g>
    <g id="xtick_6">
     <g id="line2d_10">
      <g>
       <use style="stroke:#000000;stroke-width:0.6;" x="65.64254" xlink:href="#m52347d5ee0" y="128.92249"/>
      </g>
     </g>
    </g>
    <g id="xtick_7">
     <g id="line2d_11">
      <g>
       <use style="stroke:#000000;stroke-width:0.6;" x="70.315152" xlink:href="#m52347d5ee0" y="128.92249"/>
      </g>
     </g>
    </g>
    <g id="xtick_8">
     <g id="line2d_12">
      <g>
       <use style="stroke:#000000;stroke-width:0.6;" x="73.939512" xlink:href="#m52347d5ee0" y="128.92249"/>
      </g>
     </g>
    </g>
    <g id="xtick_9">
     <g id="line2d_13">
      <g>
       <use style="stroke:#000000;stroke-width:0.6;" x="76.900829" xlink:href="#m52347d5ee0" y="128.92249"/>
      </g>
     </g>
    </g>
    <g id="xtick_10">
     <g id="line2d_14">
      <g>
       <use style="stroke:#000000;stroke-width:0.6;" x="79.404587" xlink:href="#m52347d5ee0" y="128.92249"/>
      </g>
     </g>
    </g>
    <g id="xtick_11">
     <g id="line2d_15">
      <g>
       <use style="stroke:#000000;stroke-width:0.6;" x="81.573441" xlink:href="#m52347d5ee0" y="128.92249"/>
      </g>
     </g>
    </g>
    <g id="xtick_12">
     <g id="line2d_16">
      <g>
       <use style="stroke:#000000;stroke-width:0.6;" x="83.486506" xlink:href="#m52347d5ee0" y="128.92249"/>
      </g>
     </g>
    </g>
    <g id="xtick_13">
     <g id="line2d_17">
      <g>
       <use style="stroke:#000000;stroke-width:0.6;" x="96.456089" xlink:href="#m52347d5ee0" y="128.92249"/>
      </g>
     </g>
    </g>
    <g id="xtick_14">
     <g id="line2d_18">
      <g>
       <use style="stroke:#000000;stroke-width:0.6;" x="103.041766" xlink:href="#m52347d5ee0" y="128.92249"/>
      </g>
     </g>
    </g>
    <g id="xtick_15">
     <g id="line2d_19">
      <g>
       <use style="stroke:#000000;stroke-width:0.6;" x="107.714378" xlink:href="#m52347d5ee0" y="128.92249"/>
      </g>
     </g>
    </g>
    <g id="xtick_16">
     <g id="line2d_20">
      <g>
       <use style="stroke:#000000;stroke-width:0.6;" x="111.338737" xlink:href="#m52347d5ee0" y="128.92249"/>
      </g>
     </g>
    </g>
    <g id="xtick_17">
     <g id="line2d_21">
      <g>
       <use style="stroke:#000000;stroke-width:0.6;" x="114.300055" xlink:href="#m52347d5ee0" y="128.92249"/>
      </g>
     </g>
    </g>
    <g id="xtick_18">
     <g id="line2d_22">
      <g>
       <use style="stroke:#000000;stroke-width:0.6;" x="116.803813" xlink:href="#m52347d5ee0" y="128.92249"/>
      </g>
     </g>
    </g>
    <g id="xtick_19">
     <g id="line2d_23">
      <g>
       <use style="stroke:#000000;stroke-width:0.6;" x="118.972667" xlink:href="#m52347d5ee0" y="128.92249"/>
      </g>
     </g>
    </g>
    <g id="xtick_20">
     <g id="line2d_24">
      <g>
       <use style="stroke:#000000;stroke-width:0.6;" x="120.885731" xlink:href="#m52347d5ee0" y="128.92249"/>
      </g>
     </g>
    </g>
    <g id="xtick_21">
     <g id="line2d_25">
      <g>
       <use style="stroke:#000000;stroke-width:0.6;" x="133.855315" xlink:href="#m52347d5ee0" y="128.92249"/>
      </g>
     </g>
    </g>
    <g id="xtick_22">
     <g id="line2d_26">
      <g>
       <use style="stroke:#000000;stroke-width:0.6;" x="140.440991" xlink:href="#m52347d5ee0" y="128.92249"/>
      </g>
     </g>
    </g>
    <g id="xtick_23">
     <g id="line2d_27">
      <g>
       <use style="stroke:#000000;stroke-width:0.6;" x="145.113603" xlink:href="#m52347d5ee0" y="128.92249"/>
      </g>
     </g>
    </g>
    <g id="xtick_24">
     <g id="line2d_28">
      <g>
       <use style="stroke:#000000;stroke-width:0.6;" x="148.737963" xlink:href="#m52347d5ee0" y="128.92249"/>
      </g>
     </g>
    </g>
    <g id="xtick_25">
     <g id="line2d_29">
      <g>
       <use style="stroke:#000000;stroke-width:0.6;" x="151.69928" xlink:href="#m52347d5ee0" y="128.92249"/>
      </g>
     </g>
    </g>
    <g id="xtick_26">
     <g id="line2d_30">
      <g>
       <use style="stroke:#000000;stroke-width:0.6;" x="154.203038" xlink:href="#m52347d5ee0" y="128.92249"/>
      </g>
     </g>
    </g>
    <g id="xtick_27">
     <g id="line2d_31">
      <g>
       <use style="stroke:#000000;stroke-width:0.6;" x="156.371892" xlink:href="#m52347d5ee0" y="128.92249"/>
      </g>
     </g>
    </g>
    <g id="xtick_28">
     <g id="line2d_32">
      <g>
       <use style="stroke:#000000;stroke-width:0.6;" x="158.284957" xlink:href="#m52347d5ee0" y="128.92249"/>
      </g>
     </g>
    </g>
    <g id="xtick_29">
     <g id="line2d_33">
      <g>
       <use style="stroke:#000000;stroke-width:0.6;" x="171.25454" xlink:href="#m52347d5ee0" y="128.92249"/>
      </g>
     </g>
    </g>
    <g id="xtick_30">
     <g id="line2d_34">
      <g>
       <use style="stroke:#000000;stroke-width:0.6;" x="177.840217" xlink:href="#m52347d5ee0" y="128.92249"/>
      </g>
     </g>
    </g>
    <g id="xtick_31">
     <g id="line2d_35">
      <g>
       <use style="stroke:#000000;stroke-width:0.6;" x="182.512829" xlink:href="#m52347d5ee0" y="128.92249"/>
      </g>
     </g>
    </g>
    <g id="xtick_32">
     <g id="line2d_36">
      <g>
       <use style="stroke:#000000;stroke-width:0.6;" x="186.137188" xlink:href="#m52347d5ee0" y="128.92249"/>
      </g>
     </g>
    </g>
    <g id="xtick_33">
     <g id="line2d_37">
      <g>
       <use style="stroke:#000000;stroke-width:0.6;" x="189.098506" xlink:href="#m52347d5ee0" y="128.92249"/>
      </g>
     </g>
    </g>
    <g id="xtick_34">
     <g id="line2d_38">
      <g>
       <use style="stroke:#000000;stroke-width:0.6;" x="191.602264" xlink:href="#m52347d5ee0" y="128.92249"/>
      </g>
     </g>
    </g>
    <g id="xtick_35">
     <g id="line2d_39">
      <g>
       <use style="stroke:#000000;stroke-width:0.6;" x="193.771118" xlink:href="#m52347d5ee0" y="128.92249"/>
      </g>
     </g>
    </g>
    <g id="xtick_36">
     <g id="line2d_40">
      <g>
       <use style="stroke:#000000;stroke-width:0.6;" x="195.684182" xlink:href="#m52347d5ee0" y="128.92249"/>
      </g>
     </g>
    </g>
    <g id="xtick_37">
     <g id="line2d_41">
      <g>
       <use style="stroke:#000000;stroke-width:0.6;" x="208.653766" xlink:href="#m52347d5ee0" y="128.92249"/>
      </g>
     </g>
    </g>
    <g id="xtick_38">
     <g id="line2d_42">
      <g>
       <use style="stroke:#000000;stroke-width:0.6;" x="215.239443" xlink:href="#m52347d5ee0" y="128.92249"/>
      </g>
     </g>
    </g>
    <g id="text_5">
     <!-- f (Hz) -->
     <defs>
      <path d="M 37.109375 75.984375 
L 37.109375 68.5 
L 28.515625 68.5 
Q 23.6875 68.5 21.796875 66.546875 
Q 19.921875 64.59375 19.921875 59.515625 
L 19.921875 54.6875 
L 34.71875 54.6875 
L 34.71875 47.703125 
L 19.921875 47.703125 
L 19.921875 0 
L 10.890625 0 
L 10.890625 47.703125 
L 2.296875 47.703125 
L 2.296875 54.6875 
L 10.890625 54.6875 
L 10.890625 58.5 
Q 10.890625 67.625 15.140625 71.796875 
Q 19.390625 75.984375 28.609375 75.984375 
z
" id="DejaVuSans-102"/>
      <path id="DejaVuSans-32"/>
      <path d="M 31 75.875 
Q 24.46875 64.65625 21.28125 53.65625 
Q 18.109375 42.671875 18.109375 31.390625 
Q 18.109375 20.125 21.3125 9.0625 
Q 24.515625 -2 31 -13.1875 
L 23.1875 -13.1875 
Q 15.875 -1.703125 12.234375 9.375 
Q 8.59375 20.453125 8.59375 31.390625 
Q 8.59375 42.28125 12.203125 53.3125 
Q 15.828125 64.359375 23.1875 75.875 
z
" id="DejaVuSans-40"/>
      <path d="M 9.8125 72.90625 
L 19.671875 72.90625 
L 19.671875 43.015625 
L 55.515625 43.015625 
L 55.515625 72.90625 
L 65.375 72.90625 
L 65.375 0 
L 55.515625 0 
L 55.515625 34.71875 
L 19.671875 34.71875 
L 19.671875 0 
L 9.8125 0 
z
" id="DejaVuSans-72"/>
      <path d="M 5.515625 54.6875 
L 48.1875 54.6875 
L 48.1875 46.484375 
L 14.40625 7.171875 
L 48.1875 7.171875 
L 48.1875 0 
L 4.296875 0 
L 4.296875 8.203125 
L 38.09375 47.515625 
L 5.515625 47.515625 
z
" id="DejaVuSans-122"/>
      <path d="M 8.015625 75.875 
L 15.828125 75.875 
Q 23.140625 64.359375 26.78125 53.3125 
Q 30.421875 42.28125 30.421875 31.390625 
Q 30.421875 20.453125 26.78125 9.375 
Q 23.140625 -1.703125 15.828125 -13.1875 
L 8.015625 -13.1875 
Q 14.5 -2 17.703125 9.0625 
Q 20.90625 20.125 20.90625 31.390625 
Q 20.90625 42.671875 17.703125 53.65625 
Q 14.5 64.65625 8.015625 75.875 
z
" id="DejaVuSans-41"/>
     </defs>
     <g transform="translate(121.839733 157.199053)scale(0.1 -0.1)">
      <use xlink:href="#DejaVuSans-102"/>
      <use x="35.205078" xlink:href="#DejaVuSans-32"/>
      <use x="66.992188" xlink:href="#DejaVuSans-40"/>
      <use x="106.005859" xlink:href="#DejaVuSans-72"/>
      <use x="181.201172" xlink:href="#DejaVuSans-122"/>
      <use x="233.691406" xlink:href="#DejaVuSans-41"/>
     </g>
    </g>
   </g>
   <g id="matplotlib.axis_2">
    <g id="ytick_1">
     <g id="line2d_43">
      <path clip-path="url(#p745fbe3776)" d="M 54.978125 94.651457 
L 215.971654 94.651457 
" style="fill:none;stroke:#b0b0b0;stroke-linecap:square;stroke-width:0.8;"/>
     </g>
     <g id="line2d_44">
      <defs>
       <path d="M 0 0 
L -3.5 0 
" id="md7f1075e7b" style="stroke:#000000;stroke-width:0.8;"/>
      </defs>
      <g>
       <use style="stroke:#000000;stroke-width:0.8;" x="54.978125" xlink:href="#md7f1075e7b" y="94.651457"/>
      </g>
     </g>
     <g id="text_6">
      <!-- $\mathdefault{10^{-2}}$ -->
      <g transform="translate(24.478125 98.450676)scale(0.1 -0.1)">
       <use transform="translate(0 0.765625)" xlink:href="#DejaVuSans-49"/>
       <use transform="translate(63.623047 0.765625)" xlink:href="#DejaVuSans-48"/>
       <use transform="translate(128.203125 39.046875)scale(0.7)" xlink:href="#DejaVuSans-8722"/>
       <use transform="translate(186.855469 39.046875)scale(0.7)" xlink:href="#DejaVuSans-50"/>
      </g>
     </g>
    </g>
    <g id="ytick_2">
     <g id="line2d_45">
      <path clip-path="url(#p745fbe3776)" d="M 54.978125 60.226528 
L 215.971654 60.226528 
" style="fill:none;stroke:#b0b0b0;stroke-linecap:square;stroke-width:0.8;"/>
     </g>
     <g id="line2d_46">
      <g>
       <use style="stroke:#000000;stroke-width:0.8;" x="54.978125" xlink:href="#md7f1075e7b" y="60.226528"/>
      </g>
     </g>
     <g id="text_7">
      <!-- $\mathdefault{10^{0}}$ -->
      <g transform="translate(30.378125 64.025747)scale(0.1 -0.1)">
       <use transform="translate(0 0.765625)" xlink:href="#DejaVuSans-49"/>
       <use transform="translate(63.623047 0.765625)" xlink:href="#DejaVuSans-48"/>
       <use transform="translate(128.203125 39.046875)scale(0.7)" xlink:href="#DejaVuSans-48"/>
      </g>
     </g>
    </g>
    <g id="ytick_3">
     <g id="line2d_47">
      <path clip-path="url(#p745fbe3776)" d="M 54.978125 25.801599 
L 215.971654 25.801599 
" style="fill:none;stroke:#b0b0b0;stroke-linecap:square;stroke-width:0.8;"/>
     </g>
     <g id="line2d_48">
      <g>
       <use style="stroke:#000000;stroke-width:0.8;" x="54.978125" xlink:href="#md7f1075e7b" y="25.801599"/>
      </g>
     </g>
     <g id="text_8">
      <!-- $\mathdefault{10^{2}}$ -->
      <g transform="translate(30.378125 29.600818)scale(0.1 -0.1)">
       <use transform="translate(0 0.765625)" xlink:href="#DejaVuSans-49"/>
       <use transform="translate(63.623047 0.765625)" xlink:href="#DejaVuSans-48"/>
       <use transform="translate(128.203125 39.046875)scale(0.7)" xlink:href="#DejaVuSans-50"/>
      </g>
     </g>
    </g>
    <g id="text_9">
     <!-- S(f) (m^2/s) -->
     <defs>
      <path d="M 53.515625 70.515625 
L 53.515625 60.890625 
Q 47.90625 63.578125 42.921875 64.890625 
Q 37.9375 66.21875 33.296875 66.21875 
Q 25.25 66.21875 20.875 63.09375 
Q 16.5 59.96875 16.5 54.203125 
Q 16.5 49.359375 19.40625 46.890625 
Q 22.3125 44.4375 30.421875 42.921875 
L 36.375 41.703125 
Q 47.40625 39.59375 52.65625 34.296875 
Q 57.90625 29 57.90625 20.125 
Q 57.90625 9.515625 50.796875 4.046875 
Q 43.703125 -1.421875 29.984375 -1.421875 
Q 24.8125 -1.421875 18.96875 -0.25 
Q 13.140625 0.921875 6.890625 3.21875 
L 6.890625 13.375 
Q 12.890625 10.015625 18.65625 8.296875 
Q 24.421875 6.59375 29.984375 6.59375 
Q 38.421875 6.59375 43.015625 9.90625 
Q 47.609375 13.234375 47.609375 19.390625 
Q 47.609375 24.75 44.3125 27.78125 
Q 41.015625 30.8125 33.5 32.328125 
L 27.484375 33.5 
Q 16.453125 35.6875 11.515625 40.375 
Q 6.59375 45.0625 6.59375 53.421875 
Q 6.59375 63.09375 13.40625 68.65625 
Q 20.21875 74.21875 32.171875 74.21875 
Q 37.3125 74.21875 42.625 73.28125 
Q 47.953125 72.359375 53.515625 70.515625 
z
" id="DejaVuSans-83"/>
      <path d="M 52 44.1875 
Q 55.375 50.25 60.0625 53.125 
Q 64.75 56 71.09375 56 
Q 79.640625 56 84.28125 50.015625 
Q 88.921875 44.046875 88.921875 33.015625 
L 88.921875 0 
L 79.890625 0 
L 79.890625 32.71875 
Q 79.890625 40.578125 77.09375 44.375 
Q 74.3125 48.1875 68.609375 48.1875 
Q 61.625 48.1875 57.5625 43.546875 
Q 53.515625 38.921875 53.515625 30.90625 
L 53.515625 0 
L 44.484375 0 
L 44.484375 32.71875 
Q 44.484375 40.625 41.703125 44.40625 
Q 38.921875 48.1875 33.109375 48.1875 
Q 26.21875 48.1875 22.15625 43.53125 
Q 18.109375 38.875 18.109375 30.90625 
L 18.109375 0 
L 9.078125 0 
L 9.078125 54.6875 
L 18.109375 54.6875 
L 18.109375 46.1875 
Q 21.1875 51.21875 25.484375 53.609375 
Q 29.78125 56 35.6875 56 
Q 41.65625 56 45.828125 52.96875 
Q 50 49.953125 52 44.1875 
z
" id="DejaVuSans-109"/>
      <path d="M 46.6875 72.90625 
L 73.1875 45.703125 
L 63.375 45.703125 
L 41.890625 64.984375 
L 20.40625 45.703125 
L 10.59375 45.703125 
L 37.109375 72.90625 
z
" id="DejaVuSans-94"/>
      <path d="M 25.390625 72.90625 
L 33.6875 72.90625 
L 8.296875 -9.28125 
L 0 -9.28125 
z
" id="DejaVuSans-47"/>
      <path d="M 44.28125 53.078125 
L 44.28125 44.578125 
Q 40.484375 46.53125 36.375 47.5 
Q 32.28125 48.484375 27.875 48.484375 
Q 21.1875 48.484375 17.84375 46.4375 
Q 14.5 44.390625 14.5 40.28125 
Q 14.5 37.15625 16.890625 35.375 
Q 19.28125 33.59375 26.515625 31.984375 
L 29.59375 31.296875 
Q 39.15625 29.25 43.1875 25.515625 
Q 47.21875 21.78125 47.21875 15.09375 
Q 47.21875 7.46875 41.1875 3.015625 
Q 35.15625 -1.421875 24.609375 -1.421875 
Q 20.21875 -1.421875 15.453125 -0.5625 
Q 10.6875 0.296875 5.421875 2 
L 5.421875 11.28125 
Q 10.40625 8.6875 15.234375 7.390625 
Q 20.0625 6.109375 24.8125 6.109375 
Q 31.15625 6.109375 34.5625 8.28125 
Q 37.984375 10.453125 37.984375 14.40625 
Q 37.984375 18.0625 35.515625 20.015625 
Q 33.0625 21.96875 24.703125 23.78125 
L 21.578125 24.515625 
Q 13.234375 26.265625 9.515625 29.90625 
Q 5.8125 33.546875 5.8125 39.890625 
Q 5.8125 47.609375 11.28125 51.796875 
Q 16.75 56 26.8125 56 
Q 31.78125 56 36.171875 55.265625 
Q 40.578125 54.546875 44.28125 53.078125 
z
" id="DejaVuSans-115"/>
     </defs>
     <g transform="translate(18.398437 100.718276)rotate(-90)scale(0.1 -0.1)">
      <use xlink:href="#DejaVuSans-83"/>
      <use x="63.476562" xlink:href="#DejaVuSans-40"/>
      <use x="102.490234" xlink:href="#DejaVuSans-102"/>
      <use x="137.695312" xlink:href="#DejaVuSans-41"/>
      <use x="176.708984" xlink:href="#DejaVuSans-32"/>
      <use x="208.496094" xlink:href="#DejaVuSans-40"/>
      <use x="247.509766" xlink:href="#DejaVuSans-109"/>
      <use x="344.921875" xlink:href="#DejaVuSans-94"/>
      <use x="428.710938" xlink:href="#DejaVuSans-50"/>
      <use x="492.333984" xlink:href="#DejaVuSans-47"/>
      <use x="526.025391" xlink:href="#DejaVuSans-115"/>
      <use x="578.125" xlink:href="#DejaVuSans-41"/>
     </g>
    </g>
   </g>
   <g id="line2d_49">
    <path clip-path="url(#p745fbe3776)" d="M 62.296013 33.289042 
L 73.554301 42.801195 
L 80.139978 56.17862 
L 84.81259 28.695763 
L 88.43695 23.319139 
L 91.398267 21.372657 
L 93.902025 22.789536 
L 96.070879 32.944951 
L 97.983944 17.794157 
L 99.695238 18.255563 
L 101.243293 25.585723 
L 102.656556 33.888454 
L 103.956631 24.817762 
L 105.160314 36.392813 
L 106.280915 50.285313 
L 107.329167 44.478569 
L 108.313849 34.993681 
L 109.242232 41.196633 
L 110.120407 47.892152 
L 110.953527 30.449425 
L 111.74599 27.293222 
L 112.501581 19.073816 
L 113.223579 20.423271 
L 114.577886 16.169204 
L 115.21492 19.668453 
L 115.827909 23.8293 
L 116.418602 23.366531 
L 116.988565 46.351625 
L 117.539204 25.77181 
L 118.071785 18.256578 
L 118.587456 22.325533 
L 119.087258 28.794065 
L 119.572138 16.987353 
L 120.042962 23.438646 
L 120.500521 68.658955 
L 120.945543 34.627625 
L 121.378696 19.990896 
L 121.800597 23.102639 
L 122.211816 23.962593 
L 122.61288 39.252626 
L 123.004279 23.243292 
L 123.386468 17.844596 
L 123.75987 23.109979 
L 124.12488 32.463096 
L 124.481868 23.64145 
L 124.831178 31.67153 
L 125.173133 34.170108 
L 125.508037 43.912013 
L 125.836175 26.643094 
L 126.157815 26.792177 
L 126.473209 22.256175 
L 126.782595 45.391286 
L 127.384229 30.688237 
L 127.676891 17.464071 
L 127.964372 19.60947 
L 128.246854 22.945241 
L 128.524506 31.541289 
L 128.797492 51.342129 
L 129.330074 17.082907 
L 129.589956 22.479721 
L 129.845745 51.92446 
L 130.097568 25.292836 
L 130.345547 19.950126 
L 130.830427 21.297513 
L 131.30125 27.044131 
L 131.531641 17.249145 
L 131.75881 17.17494 
L 131.982845 21.491337 
L 132.203831 32.167821 
L 132.421852 25.268984 
L 132.636984 24.51386 
L 132.849305 26.666961 
L 133.058885 26.624037 
L 133.265796 25.33029 
L 133.470104 33.019452 
L 133.671874 29.435032 
L 133.871169 19.695628 
L 134.068047 24.472941 
L 134.262568 35.255421 
L 134.454786 21.249723 
L 134.644757 20.406724 
L 134.832531 17.410536 
L 135.018159 17.765849 
L 135.201689 19.466887 
L 135.383169 19.492871 
L 135.562644 18.916106 
L 135.740157 17.381096 
L 135.91575 17.623594 
L 136.261344 28.60538 
L 136.431422 18.343862 
L 136.599737 20.546905 
L 136.766326 26.00762 
L 136.931223 24.097283 
L 137.25608 17.788915 
L 137.416104 20.175698 
L 137.574566 27.035345 
L 137.731497 23.653304 
L 137.886927 26.790873 
L 138.040884 62.171908 
L 138.344486 22.828285 
L 138.494186 21.429818 
L 138.642518 17.734 
L 138.789508 21.603593 
L 138.93518 28.839737 
L 139.079556 18.547545 
L 139.222661 17.747685 
L 139.364516 17.650546 
L 139.782795 22.273387 
L 140.055781 35.827805 
L 140.324255 18.900954 
L 140.456845 24.992606 
L 140.718823 25.880323 
L 140.848244 21.149233 
L 140.976643 23.396994 
L 141.104034 19.346649 
L 141.230433 19.225692 
L 141.355857 21.795796 
L 141.480319 29.863439 
L 141.603835 23.820373 
L 141.726419 32.274527 
L 141.848085 30.328561 
L 141.968846 63.949684 
L 142.207707 45.378273 
L 142.325833 40.806467 
L 142.559539 18.11569 
L 142.78993 32.960525 
L 142.903911 24.400908 
L 143.017098 51.736403 
L 143.241133 22.269035 
L 143.352003 34.202924 
L 143.46212 24.608787 
L 143.571496 28.458531 
L 143.680141 27.886203 
L 143.895273 21.370652 
L 144.00178 18.565591 
L 144.107594 19.939725 
L 144.317174 42.403279 
L 144.62656 21.933588 
L 144.728393 23.671516 
L 144.829591 23.234569 
L 144.930163 29.738638 
L 145.030116 44.411948 
L 145.228195 31.535031 
L 145.326336 30.362601 
L 145.520856 20.059633 
L 145.61725 20.200462 
L 145.713075 19.686223 
L 145.997204 33.752251 
L 146.090819 24.048642 
L 146.183899 24.594851 
L 146.276447 29.119638 
L 146.368472 23.368393 
L 146.459978 23.913098 
L 146.641458 30.305946 
L 146.731443 25.445749 
L 146.820932 39.544146 
L 146.909931 23.663898 
L 146.998445 24.507129 
L 147.08648 29.219861 
L 147.261129 54.791013 
L 147.433921 25.618381 
L 147.68971 40.940678 
L 147.774086 31.188018 
L 147.858026 32.633382 
L 147.941534 29.592625 
L 148.024615 30.371728 
L 148.107273 39.75665 
L 148.271337 24.926232 
L 148.352752 28.715469 
L 148.433762 21.118413 
L 148.594577 37.20344 
L 148.674392 36.523459 
L 148.753817 33.210869 
L 148.832855 25.067171 
L 148.989786 35.579623 
L 149.067687 28.407654 
L 149.145216 46.072933 
L 149.299172 20.131967 
L 149.451683 29.585146 
L 149.527405 24.807198 
L 149.602775 25.668805 
L 149.677797 49.432036 
L 149.82681 26.895368 
L 149.974468 25.898736 
L 150.120796 20.172698 
L 150.193468 22.44997 
L 150.265817 29.893149 
L 150.409555 22.481617 
L 150.48095 29.393267 
L 150.552032 26.276923 
L 150.622805 26.813805 
L 150.69327 37.020094 
L 150.763431 22.780965 
L 150.833291 23.78662 
L 151.041084 42.884925 
L 151.246252 26.155575 
L 151.31407 29.13863 
L 151.448861 21.409431 
L 151.582543 22.810029 
L 151.846651 37.129235 
L 151.912013 26.37855 
L 151.977112 31.458552 
L 152.041951 26.734642 
L 152.170859 45.824473 
L 152.362322 27.410807 
L 152.425645 39.627774 
L 152.488722 24.141774 
L 152.551555 28.249335 
L 152.614146 61.315887 
L 152.676496 45.604902 
L 152.738608 59.829809 
L 152.862124 29.750021 
L 152.923532 31.333792 
L 153.106374 21.541734 
L 153.166866 21.069447 
L 153.28718 32.907146 
L 153.347004 22.018918 
L 153.406609 23.341421 
L 153.465996 24.726363 
L 153.584122 48.052186 
L 153.642864 44.101435 
L 153.817828 21.941012 
L 153.933432 25.992875 
L 153.990927 23.903602 
L 154.048219 25.397814 
L 154.105309 36.352879 
L 154.1622 29.765145 
L 154.218892 28.465891 
L 154.275387 56.68347 
L 154.331686 31.085539 
L 154.387791 30.315473 
L 154.443702 31.533244 
L 154.499422 24.066242 
L 154.554951 24.90605 
L 154.610291 24.327063 
L 154.720409 44.2617 
L 154.775189 31.411934 
L 154.829785 41.913328 
L 154.884198 71.3832 
L 154.938429 56.105429 
L 155.100045 25.798692 
L 155.153562 26.441173 
L 155.260069 55.161162 
L 155.313062 40.700528 
L 155.365882 25.390914 
L 155.471011 25.800344 
L 155.523321 28.821712 
L 155.575463 48.591705 
L 155.627438 37.736981 
L 155.679248 23.526107 
L 155.730893 25.4569 
L 155.782374 40.822888 
L 155.833692 38.838095 
L 155.986682 28.303485 
L 156.03736 44.933251 
L 156.08788 36.795879 
L 156.138244 33.748992 
L 156.188452 39.850567 
L 156.238505 37.185279 
L 156.288405 36.270921 
L 156.338151 38.894557 
L 156.387746 28.815073 
L 156.486484 31.076102 
L 156.535628 25.342137 
L 156.584625 25.432082 
L 156.633474 29.16354 
L 156.682176 47.275423 
L 156.730733 37.448477 
L 156.779145 28.81675 
L 156.827413 48.363348 
L 156.875539 28.466516 
L 156.923522 29.856119 
L 156.971364 36.668929 
L 157.019065 31.043594 
L 157.066627 26.057884 
L 157.114049 26.694574 
L 157.161334 27.945581 
L 157.208481 26.650598 
L 157.255492 26.238941 
L 157.302368 28.721874 
L 157.349108 28.272289 
L 157.488528 24.277768 
L 157.534736 30.651313 
L 157.626761 55.33378 
L 157.718267 29.618874 
L 157.763827 33.059563 
L 157.854566 26.166994 
L 157.899746 28.114133 
L 157.944801 28.201179 
L 158.034538 36.27975 
L 158.079221 23.991304 
L 158.16822 27.054239 
L 158.212537 25.140608 
L 158.256734 26.771825 
L 158.344768 40.199373 
L 158.388607 24.812763 
L 158.432328 27.984023 
L 158.562789 41.964122 
L 158.606044 28.662961 
L 158.69221 28.874022 
L 158.735122 42.554812 
L 158.777921 27.620921 
L 158.820608 24.188238 
L 158.905646 26.010632 
L 158.990242 44.620966 
L 159.032375 35.107085 
L 159.074399 26.030996 
L 159.116314 26.213116 
L 159.158122 32.563433 
L 159.199822 26.02872 
L 159.365561 36.124606 
L 159.406733 35.836303 
L 159.447801 31.799425 
L 159.488765 43.511438 
L 159.529626 29.099005 
L 159.570385 40.263456 
L 159.651596 28.61447 
L 159.69205 33.934364 
L 159.732404 44.246824 
L 159.772657 38.946995 
L 159.812811 31.370537 
L 159.852866 49.929296 
L 159.892823 36.53223 
L 159.932681 25.870587 
L 159.972442 30.971194 
L 160.012105 41.320495 
L 160.051673 25.641728 
L 160.091143 28.142105 
L 160.169799 58.067785 
L 160.248075 51.302117 
L 160.364786 25.777235 
L 160.403505 32.114004 
L 160.442131 41.819009 
L 160.480665 27.691238 
L 160.557461 29.250172 
L 160.671978 39.020289 
L 160.709972 27.952012 
L 160.747877 31.053894 
L 160.785693 39.938061 
L 160.823422 25.790386 
L 160.861064 24.911174 
L 160.898618 29.045889 
L 160.936086 46.828349 
L 161.010763 35.0176 
L 161.085099 26.570548 
L 161.122139 34.726414 
L 161.232757 60.811317 
L 161.195968 31.444938 
L 161.269463 49.929264 
L 161.379085 30.344314 
L 161.415462 40.566258 
L 161.451757 86.831009 
L 161.487972 38.224831 
L 161.524106 27.49287 
L 161.596134 32.060607 
L 161.632028 46.597912 
L 161.667844 34.712461 
L 161.774819 26.712859 
L 161.916364 48.865377 
L 161.951559 42.354487 
L 161.986677 26.802606 
L 162.056687 40.214027 
L 162.16114 26.335102 
L 162.195808 28.858109 
L 162.264925 27.245647 
L 162.333748 39.326244 
L 162.36805 42.641277 
L 162.436439 42.056708 
L 162.538485 26.82618 
L 162.504541 42.447568 
L 162.572358 28.590302 
L 162.639894 35.094568 
L 162.673557 30.411199 
L 162.70715 28.438632 
L 162.740674 29.038481 
L 162.840832 39.359881 
L 162.973423 28.603651 
L 163.10494 38.61303 
L 163.137653 62.273136 
L 163.202884 32.221425 
L 163.267853 58.577038 
L 163.30024 44.546364 
L 163.364822 27.031959 
L 163.397017 33.545883 
L 163.429148 43.655326 
L 163.49322 42.547825 
L 163.55704 29.494988 
L 163.620611 33.50409 
L 163.652303 64.842359 
L 163.715503 38.366703 
L 163.747011 31.923599 
L 163.778458 41.111092 
L 163.841169 32.789598 
L 163.872434 31.838517 
L 163.903639 36.14736 
L 163.965871 29.663637 
L 164.027864 33.909515 
L 164.089622 33.140856 
L 164.120413 40.720371 
L 164.18182 28.081664 
L 164.242997 30.113771 
L 164.273499 35.460745 
L 164.303943 70.645082 
L 164.364662 33.157878 
L 164.394937 47.818449 
L 164.515474 36.122768 
L 164.545469 65.647804 
L 164.605293 35.640259 
L 164.635123 42.648176 
L 164.664898 34.00447 
L 164.694618 36.712397 
L 164.753897 35.205919 
L 164.783455 29.064081 
L 164.842411 36.254372 
L 164.871809 60.296651 
L 164.930445 34.322811 
L 164.959684 50.442289 
L 165.076117 30.62619 
L 165.105095 32.265783 
L 165.134021 49.002369 
L 165.19172 28.998534 
L 165.220493 28.075098 
L 165.249215 28.132448 
L 165.392068 54.159354 
L 165.420489 48.882799 
L 165.477181 28.577941 
L 165.56185 32.541944 
L 165.589975 27.958629 
L 165.674059 30.781461 
L 165.840934 67.053057 
L 165.757711 28.856363 
L 165.86858 53.061758 
L 166.060798 30.510958 
L 166.088074 35.779684 
L 166.115303 45.442734 
L 166.169625 32.025507 
L 166.196718 43.753093 
L 166.277727 28.753529 
L 166.30464 33.281467 
L 166.331509 52.734491 
L 166.411851 35.260706 
L 166.465191 45.115951 
L 166.491796 41.993343 
L 166.518358 33.490578 
L 166.57135 45.013036 
L 166.597782 38.647263 
L 166.650517 44.235055 
L 166.703081 29.781436 
L 166.755475 35.128607 
L 166.85976 60.620229 
L 166.885727 53.978501 
L 166.937536 35.971566 
L 167.014942 45.228619 
L 167.066342 51.235774 
L 167.194134 33.943687 
L 167.24497 61.991145 
L 167.295648 44.252825 
L 167.37137 34.327207 
L 167.346169 55.654834 
L 167.396532 35.851083 
L 167.421656 49.328668 
L 167.496794 36.366098 
L 167.571586 50.648214 
L 167.59644 34.068023 
L 167.621256 36.791154 
L 167.646035 30.440901 
L 167.670775 30.548234 
L 167.695479 30.554122 
L 167.720144 29.238926 
L 167.769363 31.940916 
L 167.818434 53.20942 
L 167.867356 48.118625 
L 167.916132 30.820408 
L 167.964761 54.878584 
L 167.989022 40.96647 
L 168.013246 59.700523 
L 168.061586 31.770859 
L 168.085702 41.717335 
L 168.133827 44.696682 
L 168.181811 31.253155 
L 168.205749 38.748571 
L 168.229652 66.915535 
L 168.301152 32.708926 
L 168.324915 30.140998 
L 168.348644 35.252324 
L 168.372338 49.329568 
L 168.443214 40.209306 
L 168.513781 35.304841 
L 168.607397 48.91457 
L 168.630717 38.47585 
L 168.654003 31.204725 
L 168.700476 34.400311 
L 168.769937 61.992502 
L 168.81608 42.918967 
L 168.839102 39.125223 
L 168.862092 44.586535 
L 168.885049 51.892144 
L 168.930867 33.192837 
L 169.022116 38.453792 
L 169.044848 56.105988 
L 169.112855 36.25527 
L 169.135461 37.328289 
L 169.180578 50.008177 
L 169.225571 39.801918 
L 169.24802 30.416739 
L 169.33751 36.6375 
L 169.359805 35.7395 
L 169.426509 64.84131 
L 169.470826 42.671589 
L 169.515023 33.137409 
L 169.559099 37.523156 
L 169.646896 59.856863 
L 169.668771 39.376217 
L 169.690617 31.254691 
L 169.73422 46.668045 
L 169.777707 34.302095 
L 169.799407 34.622639 
L 169.821077 37.162848 
L 169.864332 31.697012 
L 169.907473 36.887898 
L 169.950499 31.207762 
L 169.993411 43.04854 
L 170.014825 44.937172 
L 170.03621 31.472796 
L 170.078897 66.764763 
L 170.121472 37.50794 
L 170.142717 67.080546 
L 170.185125 31.989116 
L 170.227423 50.096519 
L 170.269611 38.68764 
L 170.290663 84.460344 
L 170.332687 35.36386 
L 170.374603 51.594446 
L 170.39552 51.506512 
L 170.478921 35.252335 
L 170.437274 52.660306 
L 170.499705 37.84624 
L 170.561896 69.816166 
L 170.603225 35.700036 
L 170.70609 32.239602 
L 170.828673 54.45463 
L 170.86933 31.873896 
L 170.950339 37.548138 
L 171.010832 32.109367 
L 171.051035 44.344562 
L 171.131145 33.798282 
L 171.151111 45.255727 
L 171.171053 55.380362 
L 171.23073 35.433261 
L 171.250574 44.943875 
L 171.270394 47.262061 
L 171.309961 31.926725 
L 171.388807 34.169664 
L 171.48683 31.785859 
L 171.525874 47.688016 
L 171.603681 51.792923 
L 171.642446 33.323071 
L 171.700419 53.240794 
L 171.777397 45.649128 
L 171.892184 35.926154 
L 171.81575 55.756241 
L 171.911237 35.957457 
L 171.96826 34.217347 
L 172.062858 49.656466 
L 172.100543 56.797252 
L 172.194375 34.417159 
L 172.213076 33.111129 
L 172.250415 38.089785 
L 172.269052 36.116129 
L 172.343387 77.158552 
L 172.398917 47.861889 
L 172.417384 48.823038 
L 172.509409 32.923006 
L 172.491046 48.950269 
L 172.527751 38.429022 
L 172.619154 61.5243 
L 172.564374 34.90392 
L 172.655572 58.050498 
L 172.691908 41.964093 
L 172.782395 33.547581 
L 172.764338 50.43903 
L 172.800432 37.315131 
L 172.87238 60.217946 
L 172.908235 41.46298 
L 172.944011 59.450567 
L 173.015327 44.23376 
L 173.121718 33.466825 
L 173.086332 49.196275 
L 173.139382 37.988423 
L 173.157027 52.188195 
L 173.19226 34.54252 
L 173.244966 43.622849 
L 173.297502 34.508536 
L 173.332431 49.064529 
L 173.367286 37.109817 
L 173.402066 34.777039 
L 173.419428 37.545456 
L 173.505962 49.963308 
L 173.471404 34.664949 
L 173.523213 44.128315 
L 173.609197 33.696701 
L 173.574858 46.063871 
L 173.626339 40.015029 
L 173.660569 36.429686 
L 173.76283 57.951704 
L 173.847557 34.023159 
L 173.881325 38.552302 
L 173.915023 58.745704 
L 173.965439 37.768971 
L 173.982209 49.904402 
L 174.049119 33.999965 
L 174.099121 37.089351 
L 174.198665 65.610827 
L 174.215197 41.724553 
L 174.248209 33.953027 
L 174.281155 48.864418 
L 174.314034 35.72575 
L 174.363229 45.352314 
L 174.412274 36.10741 
L 174.42859 34.571004 
L 174.477439 39.503428 
L 174.493689 46.511162 
L 174.509924 34.645605 
L 174.574698 45.027315 
L 174.655305 35.480855 
L 174.671379 37.320148 
L 174.687437 51.762856 
L 174.719504 34.459648 
L 174.78345 41.285867 
L 174.847146 54.413346 
L 174.815329 34.737612 
L 174.894754 46.785676 
L 174.973792 35.969354 
L 174.958015 48.182775 
L 174.989553 40.520055 
L 175.083803 60.701018 
L 175.099458 43.275213 
L 175.115098 35.401079 
L 175.177508 54.776528 
L 175.208624 38.911917 
L 175.224159 47.776702 
L 175.255186 35.296759 
L 175.301614 38.048011 
L 175.332493 40.62155 
L 175.347911 34.95712 
L 175.409434 74.277606 
L 175.486013 52.357031 
L 175.501285 34.846016 
L 175.531787 82.843274 
L 175.59262 53.572394 
L 175.653225 35.175837 
L 175.713606 44.128488 
L 175.728666 63.243158 
L 175.758744 37.331984 
L 175.818734 39.5293 
L 175.833697 35.807727 
L 175.878503 40.737018 
L 175.938054 56.557354 
L 175.967747 37.806315 
L 175.997386 52.514905 
L 176.071248 36.111343 
L 176.026971 59.785071 
L 176.130097 40.29671 
L 176.144776 35.206516 
L 176.174094 62.417929 
L 176.20336 45.368785 
L 176.217973 64.788515 
L 176.276293 38.808074 
L 176.319897 57.976048 
L 176.39231 36.044618 
L 176.363383 65.350296 
L 176.435604 36.701247 
L 176.450009 35.257955 
L 176.478782 40.061722 
L 176.536175 37.905938 
L 176.579088 43.16721 
L 176.664573 35.995048 
L 176.678777 37.989654 
L 176.777859 36.676329 
L 176.806058 50.704143 
L 176.848264 37.051969 
L 176.918364 39.613531 
L 176.932348 39.447879 
L 176.94632 39.531317 
L 177.057664 74.866502 
L 177.071529 68.269507 
L 177.099222 38.054279 
L 177.19578 41.716189 
L 177.305432 70.400112 
L 177.33273 50.268645 
L 177.427914 39.437191 
L 177.359983 63.942811 
L 177.441466 41.533022 
L 177.482055 78.827573 
L 177.522542 40.823344 
L 177.549478 45.018095 
L 177.562929 39.945052 
L 177.616623 58.206676 
L 177.643403 41.902048 
L 177.736788 79.250255 
L 177.710161 41.651706 
L 177.763371 49.444731 
L 177.84286 37.119627 
L 177.856071 43.978388 
L 177.869271 62.238953 
L 177.908806 37.382032 
L 177.974484 58.269151 
L 178.026836 42.247474 
L 178.000681 59.881934 
L 178.052949 51.099914 
L 178.06599 82.939817 
L 178.09204 37.596844 
L 178.156984 38.308259 
L 178.169941 37.869088 
L 178.182888 37.87721 
L 178.311796 64.733946 
L 178.324631 47.458296 
L 178.337455 37.01481 
L 178.363074 47.639233 
L 178.426945 45.862215 
L 178.465147 37.200236 
L 178.541282 71.142334 
L 178.667388 38.131035 
L 178.692492 53.667898 
L 178.780051 51.015899 
L 178.829874 38.784507 
L 178.867142 63.955131 
L 178.904323 40.435154 
L 178.953767 55.205004 
L 179.003061 37.866929 
L 179.027652 54.623324 
L 179.064469 96.568435 
L 179.150051 38.030686 
L 179.235185 72.048629 
L 179.307803 51.749097 
L 179.356036 40.775076 
L 179.343991 60.599093 
L 179.368071 44.655512 
L 179.380098 92.426333 
L 179.404125 40.723646 
L 179.487941 91.815417 
L 179.571327 39.831919 
L 179.606933 53.184935 
L 179.618784 53.710896 
L 179.642461 74.061123 
L 179.689711 39.197747 
L 179.713285 53.319478 
L 179.725059 40.224105 
L 179.783801 81.225151 
L 179.830643 45.97276 
L 179.842332 45.522765 
L 179.854013 40.755449 
L 179.912292 55.944731 
L 179.923922 44.256786 
L 179.993532 40.616175 
L 180.039774 67.027309 
L 180.074369 39.401815 
L 180.154805 59.810989 
L 180.177713 39.109726 
L 180.20059 83.232341 
L 180.223434 54.033917 
L 180.234844 93.184993 
L 180.280404 38.536285 
L 180.325837 45.088054 
L 180.39375 71.762979 
L 180.371144 43.737339 
L 180.416324 47.902088 
L 180.450127 40.696856 
L 180.495088 56.632533 
L 180.506309 53.765463 
L 180.517522 55.431467 
L 180.528728 54.196662 
L 180.62923 39.695772 
L 180.595798 62.594694 
L 180.640359 47.353684 
L 180.684797 87.223389 
L 180.662593 39.384697 
L 180.740175 57.210413 
L 180.784342 38.743773 
L 180.80638 58.039447 
L 180.839382 43.096088 
L 180.916126 40.608397 
L 180.959817 77.501078 
L 181.090191 40.733555 
L 181.198041 58.430661 
L 181.176529 39.047427 
L 181.230258 46.732146 
L 181.273113 40.257412 
L 181.326524 54.899019 
L 181.337185 70.025333 
L 181.390386 43.433377 
L 181.422224 53.067457 
L 181.496269 43.126165 
L 181.464576 67.446196 
L 181.527899 46.119057 
L 181.538429 62.829108 
L 181.569978 42.200078 
L 181.632892 48.516255 
L 181.73721 40.920217 
L 181.726808 58.328672 
L 181.747605 45.59476 
L 181.809836 72.056107 
L 181.851191 56.824377 
L 181.882139 45.038716 
L 181.923311 71.702869 
L 181.954121 48.249249 
L 182.005342 62.509495 
L 182.046204 44.475826 
L 182.066596 55.794129 
L 182.086962 42.989266 
L 182.158044 47.100339 
L 182.248981 79.724854 
L 182.198524 39.222618 
L 182.26912 51.079285 
L 182.279181 51.6097 
L 182.289235 79.155905 
L 182.389434 51.761293 
L 182.498944 40.035449 
L 182.479088 57.653738 
L 182.508863 44.070762 
L 182.607721 43.532225 
L 182.637261 60.724175 
L 182.686376 42.211623 
L 182.764652 53.013488 
L 182.793909 44.172467 
L 182.87167 65.924143 
L 182.910411 44.361851 
L 182.987618 48.59365 
L 182.997243 65.934505 
L 183.074038 40.375015 
L 183.093181 48.437493 
L 183.121852 55.002539 
L 183.169525 67.294945 
L 183.198062 42.054177 
L 183.226549 48.266689 
L 183.245513 50.458033 
L 183.254986 90.710664 
L 183.34 40.481589 
L 183.349418 46.435987 
L 183.424571 41.74313 
L 183.471365 60.916146 
L 183.508704 41.089748 
L 183.583124 44.599871 
L 183.620207 50.299001 
L 183.601676 42.609454 
L 183.638717 46.891049 
L 183.647964 66.454292 
L 183.675673 40.972253 
L 183.749334 52.921917 
L 183.776871 69.143703 
L 183.795203 44.550533 
L 183.859204 68.097 
L 183.932039 42.236465 
L 183.968335 43.244819 
L 184.004549 59.606814 
L 184.076737 46.228991 
L 184.157567 71.629381 
L 184.103725 41.16524 
L 184.184421 53.106737 
L 184.202299 41.424218 
L 184.255816 60.264481 
L 184.300279 45.190603 
L 184.34462 58.139972 
L 184.397671 43.041368 
L 184.424131 56.565636 
L 184.468136 44.088495 
L 184.503255 61.984548 
L 184.529544 51.451076 
L 184.599441 67.581371 
L 184.59072 48.851927 
L 184.625575 54.677719 
L 184.695061 55.643418 
L 184.746981 42.120744 
L 184.772878 72.478494 
L 184.858908 45.247077 
L 184.867486 42.209011 
L 184.893192 68.127957 
L 184.918858 57.796217 
L 185.029611 82.310532 
L 185.00412 43.422834 
L 185.038099 67.801955 
L 185.164894 42.305582 
L 185.181725 65.5525 
L 185.290706 54.540189 
L 185.324092 42.724374 
L 185.315752 57.750292 
L 185.39896 50.894332 
L 185.407258 50.340023 
L 185.415551 81.584776 
L 185.498251 43.631607 
L 185.514741 54.623736 
L 185.555892 42.553454 
L 185.572323 58.606779 
L 185.621517 58.277494 
L 185.670563 46.042661 
L 185.637882 76.330799 
L 185.735728 52.981427 
L 185.78443 44.189831 
L 185.768212 57.764387 
L 185.808727 49.418368 
L 185.857211 70.406909 
L 185.897505 45.652325 
L 185.921633 65.301632 
L 185.9858 45.700919 
L 186.009797 76.879113 
L 186.025776 50.48618 
L 186.033759 73.034238 
L 186.057686 42.885121 
L 186.129256 43.269171 
L 186.145117 49.07474 
L 186.224194 44.409571 
L 186.255717 72.856628 
L 186.334258 47.925766 
L 186.365568 54.355542 
L 186.466913 63.580783 
L 186.451362 43.479629 
L 186.474682 55.648067 
L 186.49021 44.150269 
L 186.552174 59.391583 
L 186.583068 50.436277 
L 186.63699 71.085296 
L 186.652364 47.891117 
L 186.690735 59.733418 
L 186.729015 42.699014 
L 186.744302 61.667388 
L 186.805306 50.719559 
L 186.835722 66.64566 
L 186.866081 43.075923 
L 186.911514 47.228074 
L 186.941732 43.318054 
L 186.986955 71.156965 
L 186.994479 93.362802 
L 187.077023 43.734401 
L 187.084506 46.349422 
L 187.1517 82.454654 
L 187.129333 45.360539 
L 187.196342 58.253946 
L 187.203771 43.914384 
L 187.292648 69.6561 
L 187.307414 46.306635 
L 187.314791 44.76482 
L 187.322166 51.813232 
L 187.329537 71.772877 
L 187.395727 45.606654 
L 187.432383 58.617216 
L 187.498156 43.966162 
L 187.468957 76.970972 
L 187.54913 45.214815 
L 187.570926 67.668503 
L 187.657822 49.790546 
L 187.701097 45.607077 
L 187.722691 58.97189 
L 187.729882 49.036793 
L 187.801624 72.600421 
L 187.787301 44.616703 
L 187.837376 63.475552 
L 187.958349 44.788257 
L 188.02203 67.876909 
L 187.986683 43.987861 
L 188.064346 46.094913 
L 188.071388 43.95098 
L 188.092496 67.409895 
L 188.134629 47.154254 
L 188.197624 76.633551 
L 188.162657 44.57162 
L 188.253416 62.940746 
L 188.288188 47.563926 
L 188.350592 72.17453 
L 188.364427 50.341962 
L 188.37134 79.878722 
L 188.405861 44.246218 
L 188.474685 57.853987 
L 188.529534 44.588547 
L 188.502133 62.738456 
L 188.591019 50.101498 
L 188.652272 85.608849 
L 188.625077 45.999876 
L 188.699754 49.604627 
L 188.706526 49.029772 
L 188.713295 51.845237 
L 188.7606 45.91374 
L 188.834658 79.486897 
L 188.948451 44.605007 
L 188.95512 51.530326 
L 189.02166 77.341934 
L 189.041569 45.072288 
L 189.054828 50.314563 
L 189.061453 44.83138 
L 189.101149 56.09802 
L 189.127559 51.089681 
L 189.134155 82.554214 
L 189.199967 44.940078 
L 189.239326 55.405529 
L 189.245877 44.953788 
L 189.27859 66.955406 
L 189.34382 51.701551 
L 189.441177 102.127113 
L 189.363338 45.413413 
L 189.447647 59.525486 
L 189.454114 46.66924 
L 189.499312 103.200232 
L 189.563664 49.58404 
L 189.582919 70.087939 
L 189.627761 48.05533 
L 189.672479 49.091708 
L 189.697977 45.911475 
L 189.710711 72.677985 
L 189.742503 51.531648 
L 189.780571 80.435706 
L 189.755202 47.531342 
L 189.850131 51.069577 
L 189.931956 95.447497 
L 189.862746 46.705948 
L 189.944508 63.262859 
L 189.95705 45.505639 
L 189.988364 64.270774 
L 190.044576 52.067663 
L 190.05081 85.708804 
L 190.131633 45.946308 
L 190.156421 62.323793 
L 190.26135 48.009826 
L 190.187353 76.730249 
L 190.267501 51.675659 
L 190.341134 75.591442 
L 190.310494 45.951847 
L 190.390038 61.594381 
L 190.432709 46.510725 
L 190.475268 83.878416 
L 190.493473 63.872574 
L 190.566092 82.259738 
L 190.541922 47.538833 
L 190.584196 53.592893 
L 190.656411 46.622034 
L 190.638387 63.608889 
L 190.668415 52.353964 
L 190.74623 109.540511 
L 190.77606 47.907698 
L 190.817729 46.998492 
L 190.894834 72.854959 
L 190.959791 81.007881 
L 191.00687 47.981342 
L 191.053813 75.218357 
L 191.112302 46.350361 
L 191.118139 48.356683 
L 191.217053 75.314051 
L 191.135638 47.7584 
L 191.24024 61.959586 
L 191.36143 47.191773 
L 191.269177 82.952842 
L 191.367179 48.518351 
L 191.413093 80.12773 
L 191.470305 47.771266 
L 191.481723 56.292478 
L 191.533005 66.60548 
L 191.595465 47.145646 
L 191.635087 73.850753 
L 191.623776 46.941579 
L 191.714042 73.804338 
L 191.775811 47.684889 
L 191.826175 53.197366 
L 191.904209 86.267357 
L 191.887519 47.763462 
L 191.937538 58.937249 
L 192.026082 49.173225 
L 191.96526 73.308697 
L 192.042631 54.0511 
L 192.103164 47.293465 
L 192.152525 81.321621 
L 192.179882 46.790802 
L 192.267119 50.013606 
L 192.353889 75.713871 
L 192.283423 47.681819 
L 192.38091 59.224709 
L 192.391706 46.944965 
L 192.483181 69.240771 
L 192.488546 56.104906 
L 192.584813 76.101684 
L 192.56347 47.300049 
L 192.590144 68.039383 
L 192.675211 47.736972 
L 192.653986 74.020605 
L 192.701703 49.061308 
L 192.722865 74.029513 
L 192.775651 48.17881 
L 192.807241 51.330912 
L 192.844018 47.758143 
L 192.823013 93.323727 
L 192.896412 57.99877 
L 192.901642 74.555812 
L 192.927768 48.22814 
L 193.005894 70.69881 
L 193.10948 48.858579 
L 193.068125 83.656746 
L 193.114642 53.916778 
L 193.130118 91.24325 
L 193.181599 49.352801 
L 193.227793 64.558913 
L 193.319789 47.451613 
L 193.304492 84.371183 
L 193.340162 57.713426 
L 193.390982 48.318356 
L 193.360509 80.336032 
L 193.446702 50.005307 
L 193.466916 79.759542 
L 193.497191 48.588164 
L 193.562593 59.949828 
L 193.657709 48.12988 
L 193.59269 111.178353 
L 193.6627 54.316656 
L 193.722469 91.844461 
L 193.682647 48.759746 
L 193.777065 77.759097 
L 193.836415 48.874063 
L 193.900468 49.690152 
L 193.98385 68.118349 
L 193.949568 48.549444 
L 194.013177 52.264498 
L 194.057069 50.966134 
L 194.037576 65.087717 
L 194.086264 54.650726 
L 194.120259 84.609777 
L 194.178371 49.957717 
L 194.192866 50.361487 
L 194.284372 85.492088 
L 194.202523 49.351193 
L 194.303571 50.566459 
L 194.308367 50.432485 
L 194.322747 52.967743 
L 194.423053 89.9369 
L 194.375366 48.583646 
L 194.446844 59.335827 
L 194.451598 49.234275 
L 194.513275 70.147895 
L 194.56056 49.843383 
L 194.57 56.352625 
L 194.659412 77.88823 
L 194.612414 49.70976 
L 194.678173 72.657409 
L 194.687545 51.063977 
L 194.696912 102.902188 
L 194.790285 56.385252 
L 194.859965 51.779864 
L 194.82284 70.677988 
L 194.869233 57.744881 
L 194.90163 83.895504 
L 194.920113 49.645757 
L 194.98464 70.420173 
L 195.039745 50.230358 
L 195.071804 87.964895 
L 195.099232 58.852849 
L 195.108365 49.225205 
L 195.131174 79.992377 
L 195.208486 51.425305 
L 195.271879 77.359701 
L 195.262838 49.631101 
L 195.321515 64.855897 
L 195.38447 50.186472 
L 195.415856 77.599984 
L 195.433764 55.786641 
L 195.496285 63.334424 
L 195.44271 49.853979 
L 195.509652 57.854484 
L 195.554127 51.641714 
L 195.580753 69.619294 
L 195.607337 60.150425 
L 195.65596 80.931701 
L 195.68242 50.721071 
L 195.717634 58.198172 
L 195.783454 91.756851 
L 195.748383 51.924286 
L 195.827187 64.650312 
L 195.840284 90.853936 
L 195.940343 50.017529 
L 196.04841 73.305694 
L 195.983656 49.687704 
L 196.052717 65.297626 
L 196.104321 50.108562 
L 196.065634 74.773686 
L 196.164319 51.074933 
L 196.202772 74.027799 
L 196.296388 60.851959 
L 196.372583 51.336721 
L 196.359909 95.643691 
L 196.406334 52.684794 
L 196.41476 98.653087 
L 196.427392 50.043329 
L 196.532276 69.428007 
L 196.632331 52.049492 
L 196.615698 90.044712 
L 196.644795 57.668219 
L 196.694554 89.197097 
L 196.669694 50.379425 
L 196.752415 51.550357 
L 196.793618 86.861728 
L 196.81007 51.062397 
L 196.867521 54.688767 
L 196.879806 79.788083 
L 196.949244 50.865349 
L 196.981818 56.789476 
L 197.026501 53.735226 
L 197.054872 70.503581 
L 197.058921 63.881431 
L 197.139688 95.397698 
L 197.075106 52.563796 
L 197.167862 73.040546 
L 197.264089 51.9366 
L 197.256092 88.967163 
L 197.280072 57.410473 
L 197.304016 71.648062 
L 197.383577 51.759372 
L 197.391511 62.228743 
L 197.395477 62.006617 
L 197.431127 50.852001 
L 197.470646 99.50044 
L 197.498252 60.788883 
L 197.60038 74.799988 
L 197.553324 51.806205 
L 197.60821 67.724405 
L 197.694086 52.555965 
L 197.627767 74.756394 
L 197.721315 57.391448 
L 197.794994 92.044201 
L 197.818192 51.290639 
L 197.825917 59.542829 
L 197.829778 52.548191 
L 197.906811 114.109111 
L 197.937522 55.642337 
L 197.994949 51.19228 
L 198.00259 78.302166 
L 198.029308 67.402466 
L 198.048365 76.592195 
L 198.082611 51.631706 
L 198.131951 61.664933 
L 198.154673 51.749082 
L 198.192472 73.169819 
L 198.24148 57.624271 
L 198.252768 78.626868 
L 198.32408 51.760214 
L 198.342795 53.182212 
L 198.346535 51.930121 
L 198.365224 71.765848 
L 198.406263 65.853228 
L 198.458346 52.338192 
L 198.513964 95.027061 
L 198.565702 52.228803 
L 198.624631 59.249805 
L 198.712626 94.373823 
L 198.697993 53.556506 
L 198.73455 73.177155 
L 198.81832 52.136654 
L 198.847357 62.722876 
L 198.944973 94.521097 
L 198.930549 54.098501 
L 198.948578 64.922127 
L 198.991766 52.525001 
L 199.013317 82.354132 
L 199.063491 55.153242 
L 199.113512 83.51837 
L 199.077799 52.315098 
L 199.177598 70.089242 
L 199.202452 52.392577 
L 199.234352 84.719605 
L 199.287379 70.263126 
L 199.347268 102.698334 
L 199.336716 52.749301 
L 199.396424 63.723635 
L 199.410441 54.224808 
L 199.483833 90.661949 
L 199.487319 75.322517 
L 199.490805 122.285825 
L 199.584641 53.122415 
L 199.595034 57.902765 
L 199.667598 79.93181 
L 199.60542 52.864107 
L 199.705479 56.985539 
L 199.750134 54.422547 
L 199.743272 69.189899 
L 199.770702 62.295421 
L 199.828839 53.95798 
L 199.883366 106.036575 
L 199.974968 53.958871 
L 199.995253 66.594169 
L 200.005387 53.719691 
L 200.045858 96.222699 
L 200.099662 66.452105 
L 200.186717 107.937768 
L 200.156635 53.440205 
L 200.213409 73.77152 
L 200.266662 54.390311 
L 200.2334 112.942461 
L 200.326365 64.257847 
L 200.382549 53.526611 
L 200.422092 87.354819 
L 200.43854 59.004918 
L 200.491062 79.70232 
L 200.477947 54.883766 
L 200.553211 66.007401 
L 200.615124 53.92178 
L 200.602109 107.159723 
L 200.660593 74.374679 
L 200.760824 53.514317 
L 200.741473 87.529664 
L 200.770491 61.24263 
L 200.773713 95.763459 
L 200.793026 54.338543 
L 200.879651 71.144989 
L 200.918004 53.888877 
L 200.943522 76.743668 
L 200.994438 59.48677 
L 201.079999 78.696823 
L 201.073677 53.915536 
L 201.102108 55.672648 
L 201.105264 54.292051 
L 201.143088 83.61315 
L 201.146236 97.327055 
L 201.180824 53.883622 
L 201.249781 65.994815 
L 201.355777 96.320096 
L 201.346452 54.873204 
L 201.358884 70.298424 
L 201.396122 53.849006 
L 201.423996 83.091916 
L 201.467259 79.879559 
L 201.522714 54.558085 
L 201.565716 83.808226 
L 201.581046 59.252766 
L 201.5933 86.617918 
L 201.62695 54.497478 
L 201.690998 60.506991 
L 201.721408 54.118769 
L 201.70621 99.009413 
L 201.794162 62.329298 
L 201.803234 76.512539 
L 201.857556 54.720115 
L 201.908694 71.229072 
L 202.013473 54.474242 
L 201.983605 94.488451 
L 202.01944 64.4448 
L 202.061148 54.677065 
L 202.081962 81.586944 
L 202.120546 61.653139 
L 202.12351 95.162429 
L 202.203339 55.293155 
L 202.229862 57.143578 
L 202.232807 57.080271 
L 202.271034 108.434041 
L 202.323816 55.60834 
L 202.344297 67.272502 
L 202.455027 55.391504 
L 202.355988 80.338682 
L 202.45793 56.059029 
L 202.472441 92.944354 
L 202.562122 54.921943 
L 202.573658 87.309309 
L 202.657048 55.330333 
L 202.636958 97.524437 
L 202.685704 68.640339 
L 202.705733 99.199115 
L 202.697152 55.285545 
L 202.791294 72.011773 
L 202.865084 55.257665 
L 202.842415 90.469629 
L 202.904678 56.729255 
L 202.955444 86.559517 
L 202.918796 55.949013 
L 203.022886 62.996072 
L 203.02569 63.006803 
L 203.048105 99.091897 
L 203.059301 55.442521 
L 203.1291 64.829624 
L 203.165278 56.760041 
L 203.184725 93.797799 
L 203.237392 63.132311 
L 203.322958 87.246507 
L 203.306432 55.259769 
L 203.344966 56.976299 
L 203.402597 95.397793 
L 203.394377 55.294905 
L 203.462754 71.648042 
L 203.517249 57.264306 
L 203.484574 90.298983 
L 203.574273 62.131128 
L 203.595943 107.959821 
L 203.622991 56.454486 
L 203.687723 86.693912 
L 203.773633 55.94073 
L 203.800387 70.214544 
L 203.853763 57.177181 
L 203.832434 118.747066 
L 203.912274 67.454353 
L 203.999649 78.431347 
L 204.004929 56.315175 
L 204.023397 70.306145 
L 204.094433 56.503203 
L 204.107554 91.342981 
L 204.133763 62.154385 
L 204.217352 85.703153 
L 204.146853 56.29996 
L 204.243386 69.479124 
L 204.284953 58.161378 
L 204.269377 101.342275 
L 204.352273 73.83615 
L 204.452733 56.885899 
L 204.367769 98.935292 
L 204.473263 60.891721 
L 204.491206 94.835467 
L 204.552575 57.485333 
L 204.578077 58.734453 
L 204.580625 56.578572 
L 204.626421 107.122012 
L 204.672088 64.694675 
L 204.715101 107.210701 
L 204.752959 57.127837 
L 204.780665 59.05836 
L 204.840952 102.292449 
L 204.868509 57.302898 
L 204.891021 64.795856 
L 204.960859 107.565025 
L 205.003114 57.2327 
L 205.037831 100.491224 
L 205.052686 56.846993 
L 205.116905 73.866291 
L 205.131688 56.8405 
L 205.173502 80.347487 
L 205.229904 61.168803 
L 205.269024 107.701263 
L 205.234799 57.595855 
L 205.337259 57.897296 
L 205.344553 63.433715 
L 205.346983 110.1606 
L 205.412471 57.941371 
L 205.45357 66.669495 
L 205.455984 66.751843 
L 205.463225 57.607265 
L 205.484928 89.775729 
L 205.56186 71.967058 
L 205.590616 85.388616 
L 205.640816 58.097264 
L 205.671815 68.011539 
L 205.733636 57.487838 
L 205.690862 83.37316 
L 205.781032 66.847006 
L 205.804677 110.800297 
L 205.875409 57.785138 
L 205.889518 60.90827 
L 205.894219 69.444681 
L 205.976256 86.948678 
L 205.905964 57.699522 
L 206.004289 69.980972 
L 206.029942 59.915573 
L 206.071834 101.001109 
L 206.104342 70.062046 
L 206.183019 123.553286 
L 206.159918 57.617013 
L 206.213001 79.894911 
L 206.231425 57.533754 
L 206.286569 95.928537 
L 206.323228 68.066161 
L 206.380343 102.985398 
L 206.346098 58.685765 
L 206.437257 78.851914 
L 206.525648 58.166807 
L 206.496238 87.759881 
L 206.548235 73.515009 
L 206.552748 71.22339 
L 206.555005 97.969944 
L 206.647246 58.781123 
L 206.662942 61.744327 
L 206.683101 58.437109 
L 206.70547 89.498532 
L 206.727808 64.850214 
L 206.801308 121.229372 
L 206.745657 57.837361 
L 206.839042 67.05394 
L 206.889955 99.14934 
L 206.934098 60.413361 
L 206.949519 85.727736 
L 206.956124 58.388897 
L 206.964926 88.825993 
L 207.061437 66.604102 
L 207.063624 109.044386 
L 207.116018 58.661149 
L 207.170417 62.674314 
L 207.272195 58.575147 
L 207.215971 87.53541 
L 207.276512 61.618693 
L 207.280828 92.651277 
L 207.287299 58.565246 
L 207.38835 77.748248 
L 207.461061 58.680895 
L 207.482385 94.267255 
L 207.499424 75.411551 
L 207.516445 115.577643 
L 207.567401 58.725723 
L 207.601283 59.924388 
L 207.605513 60.580995 
L 207.668836 95.571531 
L 207.613971 59.5558 
L 207.719317 75.126281 
L 207.788474 59.118737 
L 207.769642 89.586929 
L 207.830244 65.404564 
L 207.927982 106.298195 
L 207.878147 58.966786 
L 207.938346 66.246346 
L 207.940418 60.908429 
L 207.996258 110.113151 
L 208.039557 66.114793 
L 208.041616 107.146134 
L 208.119664 59.022082 
L 208.15037 60.383815 
L 208.15446 92.839752 
L 208.254337 59.051806 
L 208.262463 76.700024 
L 208.290873 60.008359 
L 208.347544 95.365863 
L 208.373789 64.987825 
L 208.404018 118.450542 
L 208.428161 59.868251 
L 208.484356 66.673576 
L 208.486359 66.696009 
L 208.554327 117.383555 
L 208.51038 60.482627 
L 208.596166 62.867797 
L 208.600145 59.670716 
L 208.612076 89.706246 
L 208.651783 87.372504 
" style="fill:none;stroke:#000000;stroke-linecap:square;stroke-width:0.8;"/>
   </g>
   <g id="line2d_50">
    <path clip-path="url(#p745fbe3776)" d="M 62.296013 28.696029 
L 119.572138 28.807479 
L 129.065966 29.048078 
L 135.018159 29.407662 
L 139.644562 29.903708 
L 143.46212 30.530013 
L 146.909931 31.318253 
L 150.120796 32.278246 
L 153.28718 33.458127 
L 156.535628 34.91184 
L 159.972442 36.700498 
L 163.778458 38.939236 
L 168.253521 41.840104 
L 173.898183 45.779589 
L 181.840862 51.616563 
L 195.739603 62.147558 
L 208.653766 72.030367 
L 208.653766 72.030367 
" style="fill:none;stroke:#ff0000;stroke-linecap:square;stroke-width:2;"/>
   </g>
   <g id="patch_3">
    <path d="M 54.978125 128.92249 
L 54.978125 10.8 
" style="fill:none;stroke:#000000;stroke-linecap:square;stroke-linejoin:miter;stroke-width:0.8;"/>
   </g>
   <g id="patch_4">
    <path d="M 215.971654 128.92249 
L 215.971654 10.8 
" style="fill:none;stroke:#000000;stroke-linecap:square;stroke-linejoin:miter;stroke-width:0.8;"/>
   </g>
   <g id="patch_5">
    <path d="M 54.978125 128.92249 
L 215.971654 128.92249 
" style="fill:none;stroke:#000000;stroke-linecap:square;stroke-linejoin:miter;stroke-width:0.8;"/>
   </g>
   <g id="patch_6">
    <path d="M 54.978125 10.8 
L 215.971654 10.8 
" style="fill:none;stroke:#000000;stroke-linecap:square;stroke-linejoin:miter;stroke-width:0.8;"/>
   </g>
   <g id="legend_1">
    <g id="patch_7">
     <path d="M 61.978125 123.92249 
L 143.371875 123.92249 
Q 145.371875 123.92249 145.371875 121.92249 
L 145.371875 93.56624 
Q 145.371875 91.56624 143.371875 91.56624 
L 61.978125 91.56624 
Q 59.978125 91.56624 59.978125 93.56624 
L 59.978125 121.92249 
Q 59.978125 123.92249 61.978125 123.92249 
z
" style="fill:#ffffff;opacity:0.8;stroke:#cccccc;stroke-linejoin:miter;"/>
    </g>
    <g id="line2d_51">
     <path d="M 63.978125 99.664678 
L 83.978125 99.664678 
" style="fill:none;stroke:#000000;stroke-linecap:square;stroke-width:0.8;"/>
    </g>
    <g id="line2d_52"/>
    <g id="text_10">
     <!-- simulated -->
     <defs>
      <path d="M 9.421875 54.6875 
L 18.40625 54.6875 
L 18.40625 0 
L 9.421875 0 
z
M 9.421875 75.984375 
L 18.40625 75.984375 
L 18.40625 64.59375 
L 9.421875 64.59375 
z
" id="DejaVuSans-105"/>
      <path d="M 8.5 21.578125 
L 8.5 54.6875 
L 17.484375 54.6875 
L 17.484375 21.921875 
Q 17.484375 14.15625 20.5 10.265625 
Q 23.53125 6.390625 29.59375 6.390625 
Q 36.859375 6.390625 41.078125 11.03125 
Q 45.3125 15.671875 45.3125 23.6875 
L 45.3125 54.6875 
L 54.296875 54.6875 
L 54.296875 0 
L 45.3125 0 
L 45.3125 8.40625 
Q 42.046875 3.421875 37.71875 1 
Q 33.40625 -1.421875 27.6875 -1.421875 
Q 18.265625 -1.421875 13.375 4.4375 
Q 8.5 10.296875 8.5 21.578125 
z
M 31.109375 56 
z
" id="DejaVuSans-117"/>
      <path d="M 9.421875 75.984375 
L 18.40625 75.984375 
L 18.40625 0 
L 9.421875 0 
z
" id="DejaVuSans-108"/>
      <path d="M 34.28125 27.484375 
Q 23.390625 27.484375 19.1875 25 
Q 14.984375 22.515625 14.984375 16.5 
Q 14.984375 11.71875 18.140625 8.90625 
Q 21.296875 6.109375 26.703125 6.109375 
Q 34.1875 6.109375 38.703125 11.40625 
Q 43.21875 16.703125 43.21875 25.484375 
L 43.21875 27.484375 
z
M 52.203125 31.203125 
L 52.203125 0 
L 43.21875 0 
L 43.21875 8.296875 
Q 40.140625 3.328125 35.546875 0.953125 
Q 30.953125 -1.421875 24.3125 -1.421875 
Q 15.921875 -1.421875 10.953125 3.296875 
Q 6 8.015625 6 15.921875 
Q 6 25.140625 12.171875 29.828125 
Q 18.359375 34.515625 30.609375 34.515625 
L 43.21875 34.515625 
L 43.21875 35.40625 
Q 43.21875 41.609375 39.140625 45 
Q 35.0625 48.390625 27.6875 48.390625 
Q 23 48.390625 18.546875 47.265625 
Q 14.109375 46.140625 10.015625 43.890625 
L 10.015625 52.203125 
Q 14.9375 54.109375 19.578125 55.046875 
Q 24.21875 56 28.609375 56 
Q 40.484375 56 46.34375 49.84375 
Q 52.203125 43.703125 52.203125 31.203125 
z
" id="DejaVuSans-97"/>
      <path d="M 18.3125 70.21875 
L 18.3125 54.6875 
L 36.8125 54.6875 
L 36.8125 47.703125 
L 18.3125 47.703125 
L 18.3125 18.015625 
Q 18.3125 11.328125 20.140625 9.421875 
Q 21.96875 7.515625 27.59375 7.515625 
L 36.8125 7.515625 
L 36.8125 0 
L 27.59375 0 
Q 17.1875 0 13.234375 3.875 
Q 9.28125 7.765625 9.28125 18.015625 
L 9.28125 47.703125 
L 2.6875 47.703125 
L 2.6875 54.6875 
L 9.28125 54.6875 
L 9.28125 70.21875 
z
" id="DejaVuSans-116"/>
      <path d="M 56.203125 29.59375 
L 56.203125 25.203125 
L 14.890625 25.203125 
Q 15.484375 15.921875 20.484375 11.0625 
Q 25.484375 6.203125 34.421875 6.203125 
Q 39.59375 6.203125 44.453125 7.46875 
Q 49.3125 8.734375 54.109375 11.28125 
L 54.109375 2.78125 
Q 49.265625 0.734375 44.1875 -0.34375 
Q 39.109375 -1.421875 33.890625 -1.421875 
Q 20.796875 -1.421875 13.15625 6.1875 
Q 5.515625 13.8125 5.515625 26.8125 
Q 5.515625 40.234375 12.765625 48.109375 
Q 20.015625 56 32.328125 56 
Q 43.359375 56 49.78125 48.890625 
Q 56.203125 41.796875 56.203125 29.59375 
z
M 47.21875 32.234375 
Q 47.125 39.59375 43.09375 43.984375 
Q 39.0625 48.390625 32.421875 48.390625 
Q 24.90625 48.390625 20.390625 44.140625 
Q 15.875 39.890625 15.1875 32.171875 
z
" id="DejaVuSans-101"/>
      <path d="M 45.40625 46.390625 
L 45.40625 75.984375 
L 54.390625 75.984375 
L 54.390625 0 
L 45.40625 0 
L 45.40625 8.203125 
Q 42.578125 3.328125 38.25 0.953125 
Q 33.9375 -1.421875 27.875 -1.421875 
Q 17.96875 -1.421875 11.734375 6.484375 
Q 5.515625 14.40625 5.515625 27.296875 
Q 5.515625 40.1875 11.734375 48.09375 
Q 17.96875 56 27.875 56 
Q 33.9375 56 38.25 53.625 
Q 42.578125 51.265625 45.40625 46.390625 
z
M 14.796875 27.296875 
Q 14.796875 17.390625 18.875 11.75 
Q 22.953125 6.109375 30.078125 6.109375 
Q 37.203125 6.109375 41.296875 11.75 
Q 45.40625 17.390625 45.40625 27.296875 
Q 45.40625 37.203125 41.296875 42.84375 
Q 37.203125 48.484375 30.078125 48.484375 
Q 22.953125 48.484375 18.875 42.84375 
Q 14.796875 37.203125 14.796875 27.296875 
z
" id="DejaVuSans-100"/>
     </defs>
     <g transform="translate(91.978125 103.164678)scale(0.1 -0.1)">
      <use xlink:href="#DejaVuSans-115"/>
      <use x="52.099609" xlink:href="#DejaVuSans-105"/>
      <use x="79.882812" xlink:href="#DejaVuSans-109"/>
      <use x="177.294922" xlink:href="#DejaVuSans-117"/>
      <use x="240.673828" xlink:href="#DejaVuSans-108"/>
      <use x="268.457031" xlink:href="#DejaVuSans-97"/>
      <use x="329.736328" xlink:href="#DejaVuSans-116"/>
      <use x="368.945312" xlink:href="#DejaVuSans-101"/>
      <use x="430.46875" xlink:href="#DejaVuSans-100"/>
     </g>
    </g>
    <g id="line2d_53">
     <path d="M 63.978125 114.342803 
L 83.978125 114.342803 
" style="fill:none;stroke:#ff0000;stroke-linecap:square;stroke-width:2;"/>
    </g>
    <g id="line2d_54"/>
    <g id="text_11">
     <!-- target -->
     <defs>
      <path d="M 41.109375 46.296875 
Q 39.59375 47.171875 37.8125 47.578125 
Q 36.03125 48 33.890625 48 
Q 26.265625 48 22.1875 43.046875 
Q 18.109375 38.09375 18.109375 28.8125 
L 18.109375 0 
L 9.078125 0 
L 9.078125 54.6875 
L 18.109375 54.6875 
L 18.109375 46.1875 
Q 20.953125 51.171875 25.484375 53.578125 
Q 30.03125 56 36.53125 56 
Q 37.453125 56 38.578125 55.875 
Q 39.703125 55.765625 41.0625 55.515625 
z
" id="DejaVuSans-114"/>
      <path d="M 45.40625 27.984375 
Q 45.40625 37.75 41.375 43.109375 
Q 37.359375 48.484375 30.078125 48.484375 
Q 22.859375 48.484375 18.828125 43.109375 
Q 14.796875 37.75 14.796875 27.984375 
Q 14.796875 18.265625 18.828125 12.890625 
Q 22.859375 7.515625 30.078125 7.515625 
Q 37.359375 7.515625 41.375 12.890625 
Q 45.40625 18.265625 45.40625 27.984375 
z
M 54.390625 6.78125 
Q 54.390625 -7.171875 48.1875 -13.984375 
Q 42 -20.796875 29.203125 -20.796875 
Q 24.46875 -20.796875 20.265625 -20.09375 
Q 16.0625 -19.390625 12.109375 -17.921875 
L 12.109375 -9.1875 
Q 16.0625 -11.328125 19.921875 -12.34375 
Q 23.78125 -13.375 27.78125 -13.375 
Q 36.625 -13.375 41.015625 -8.765625 
Q 45.40625 -4.15625 45.40625 5.171875 
L 45.40625 9.625 
Q 42.625 4.78125 38.28125 2.390625 
Q 33.9375 0 27.875 0 
Q 17.828125 0 11.671875 7.65625 
Q 5.515625 15.328125 5.515625 27.984375 
Q 5.515625 40.671875 11.671875 48.328125 
Q 17.828125 56 27.875 56 
Q 33.9375 56 38.28125 53.609375 
Q 42.625 51.21875 45.40625 46.390625 
L 45.40625 54.6875 
L 54.390625 54.6875 
z
" id="DejaVuSans-103"/>
     </defs>
     <g transform="translate(91.978125 117.842803)scale(0.1 -0.1)">
      <use xlink:href="#DejaVuSans-116"/>
      <use x="39.208984" xlink:href="#DejaVuSans-97"/>
      <use x="100.488281" xlink:href="#DejaVuSans-114"/>
      <use x="141.585938" xlink:href="#DejaVuSans-103"/>
      <use x="205.0625" xlink:href="#DejaVuSans-101"/>
      <use x="266.585938" xlink:href="#DejaVuSans-116"/>
     </g>
    </g>
   </g>
  </g>
 </g>
 <defs>
  <clipPath id="p745fbe3776">
   <rect height="118.12249" width="160.993529" x="54.978125" y="10.8"/>
  </clipPath>
 </defs>
</svg>
