<?xml version="1.0" encoding="utf-8" standalone="no"?>
<!DOCTYPE svg PUBLIC "-//W3C//DTD SVG 1.1//EN"
  "http://www.w3.org/Graphics/SVG/1.1/DTD/svg11.dtd">
<!-- Created with matplotlib (https://matplotlib.org/) -->
<svg height="170.07874pt" version="1.1" viewBox="0 0 226.771654 170.07874" width="226.771654pt" xmlns="http://www.w3.org/2000/svg" xmlns:xlink="http://www.w3.org/1999/xlink">
 <defs>
  <style type="text/css">
*{stroke-linecap:butt;stroke-linejoin:round;}
  </style>
 </defs>
 <g id="figure_1">
  <g id="patch_1">
   <path d="M 0 170.07874 
L 226.771654 170.07874 
L 226.771654 0 
L 0 0 
z
" style="fill:#ffffff;"/>
  </g>
  <g id="axes_1">
   <g id="patch_2">
    <path d="M 54.978125 128.92249 
L 215.971654 128.92249 
L 215.971654 13.033517 
L 54.978125 13.033517 
z
" style="fill:#ffffff;"/>
   </g>
   <g id="matplotlib.axis_1">
    <g id="xtick_1">
     <g id="line2d_1">
      <path clip-path="url(#p040ada1df2)" d="M 85.1978 128.92249 
L 85.1978 13.033517 
" style="fill:none;stroke:#b0b0b0;stroke-linecap:square;stroke-width:0.8;"/>
     </g>
     <g id="line2d_2">
      <defs>
       <path d="M 0 0 
L 0 3.5 
" id="mb773779030" style="stroke:#000000;stroke-width:0.8;"/>
      </defs>
      <g>
       <use style="stroke:#000000;stroke-width:0.8;" x="85.1978" xlink:href="#mb773779030" y="128.92249"/>
      </g>
     </g>
     <g id="text_1">
      <!-- $\mathdefault{10^{-3}}$ -->
      <defs>
       <path d="M 12.40625 8.296875 
L 28.515625 8.296875 
L 28.515625 63.921875 
L 10.984375 60.40625 
L 10.984375 69.390625 
L 28.421875 72.90625 
L 38.28125 72.90625 
L 38.28125 8.296875 
L 54.390625 8.296875 
L 54.390625 0 
L 12.40625 0 
z
" id="DejaVuSans-49"/>
       <path d="M 31.78125 66.40625 
Q 24.171875 66.40625 20.328125 58.90625 
Q 16.5 51.421875 16.5 36.375 
Q 16.5 21.390625 20.328125 13.890625 
Q 24.171875 6.390625 31.78125 6.390625 
Q 39.453125 6.390625 43.28125 13.890625 
Q 47.125 21.390625 47.125 36.375 
Q 47.125 51.421875 43.28125 58.90625 
Q 39.453125 66.40625 31.78125 66.40625 
z
M 31.78125 74.21875 
Q 44.046875 74.21875 50.515625 64.515625 
Q 56.984375 54.828125 56.984375 36.375 
Q 56.984375 17.96875 50.515625 8.265625 
Q 44.046875 -1.421875 31.78125 -1.421875 
Q 19.53125 -1.421875 13.0625 8.265625 
Q 6.59375 17.96875 6.59375 36.375 
Q 6.59375 54.828125 13.0625 64.515625 
Q 19.53125 74.21875 31.78125 74.21875 
z
" id="DejaVuSans-48"/>
       <path d="M 10.59375 35.5 
L 73.1875 35.5 
L 73.1875 27.203125 
L 10.59375 27.203125 
z
" id="DejaVuSans-8722"/>
       <path d="M 40.578125 39.3125 
Q 47.65625 37.796875 51.625 33 
Q 55.609375 28.21875 55.609375 21.1875 
Q 55.609375 10.40625 48.1875 4.484375 
Q 40.765625 -1.421875 27.09375 -1.421875 
Q 22.515625 -1.421875 17.65625 -0.515625 
Q 12.796875 0.390625 7.625 2.203125 
L 7.625 11.71875 
Q 11.71875 9.328125 16.59375 8.109375 
Q 21.484375 6.890625 26.8125 6.890625 
Q 36.078125 6.890625 40.9375 10.546875 
Q 45.796875 14.203125 45.796875 21.1875 
Q 45.796875 27.640625 41.28125 31.265625 
Q 36.765625 34.90625 28.71875 34.90625 
L 20.21875 34.90625 
L 20.21875 43.015625 
L 29.109375 43.015625 
Q 36.375 43.015625 40.234375 45.921875 
Q 44.09375 48.828125 44.09375 54.296875 
Q 44.09375 59.90625 40.109375 62.90625 
Q 36.140625 65.921875 28.71875 65.921875 
Q 24.65625 65.921875 20.015625 65.03125 
Q 15.375 64.15625 9.8125 62.3125 
L 9.8125 71.09375 
Q 15.4375 72.65625 20.34375 73.4375 
Q 25.25 74.21875 29.59375 74.21875 
Q 40.828125 74.21875 47.359375 69.109375 
Q 53.90625 64.015625 53.90625 55.328125 
Q 53.90625 49.265625 50.4375 45.09375 
Q 46.96875 40.921875 40.578125 39.3125 
z
" id="DejaVuSans-51"/>
      </defs>
      <g transform="translate(73.4478 143.520928)scale(0.1 -0.1)">
       <use transform="translate(0 0.765625)" xlink:href="#DejaVuSans-49"/>
       <use transform="translate(63.623047 0.765625)" xlink:href="#DejaVuSans-48"/>
       <use transform="translate(128.203125 39.046875)scale(0.7)" xlink:href="#DejaVuSans-8722"/>
       <use transform="translate(186.855469 39.046875)scale(0.7)" xlink:href="#DejaVuSans-51"/>
      </g>
     </g>
    </g>
    <g id="xtick_2">
     <g id="line2d_3">
      <path clip-path="url(#p040ada1df2)" d="M 122.597026 128.92249 
L 122.597026 13.033517 
" style="fill:none;stroke:#b0b0b0;stroke-linecap:square;stroke-width:0.8;"/>
     </g>
     <g id="line2d_4">
      <g>
       <use style="stroke:#000000;stroke-width:0.8;" x="122.597026" xlink:href="#mb773779030" y="128.92249"/>
      </g>
     </g>
     <g id="text_2">
      <!-- $\mathdefault{10^{-2}}$ -->
      <defs>
       <path d="M 19.1875 8.296875 
L 53.609375 8.296875 
L 53.609375 0 
L 7.328125 0 
L 7.328125 8.296875 
Q 12.9375 14.109375 22.625 23.890625 
Q 32.328125 33.6875 34.8125 36.53125 
Q 39.546875 41.84375 41.421875 45.53125 
Q 43.3125 49.21875 43.3125 52.78125 
Q 43.3125 58.59375 39.234375 62.25 
Q 35.15625 65.921875 28.609375 65.921875 
Q 23.96875 65.921875 18.8125 64.3125 
Q 13.671875 62.703125 7.8125 59.421875 
L 7.8125 69.390625 
Q 13.765625 71.78125 18.9375 73 
Q 24.125 74.21875 28.421875 74.21875 
Q 39.75 74.21875 46.484375 68.546875 
Q 53.21875 62.890625 53.21875 53.421875 
Q 53.21875 48.921875 51.53125 44.890625 
Q 49.859375 40.875 45.40625 35.40625 
Q 44.1875 33.984375 37.640625 27.21875 
Q 31.109375 20.453125 19.1875 8.296875 
z
" id="DejaVuSans-50"/>
      </defs>
      <g transform="translate(110.847026 143.520928)scale(0.1 -0.1)">
       <use transform="translate(0 0.765625)" xlink:href="#DejaVuSans-49"/>
       <use transform="translate(63.623047 0.765625)" xlink:href="#DejaVuSans-48"/>
       <use transform="translate(128.203125 39.046875)scale(0.7)" xlink:href="#DejaVuSans-8722"/>
       <use transform="translate(186.855469 39.046875)scale(0.7)" xlink:href="#DejaVuSans-50"/>
      </g>
     </g>
    </g>
    <g id="xtick_3">
     <g id="line2d_5">
      <path clip-path="url(#p040ada1df2)" d="M 159.996252 128.92249 
L 159.996252 13.033517 
" style="fill:none;stroke:#b0b0b0;stroke-linecap:square;stroke-width:0.8;"/>
     </g>
     <g id="line2d_6">
      <g>
       <use style="stroke:#000000;stroke-width:0.8;" x="159.996252" xlink:href="#mb773779030" y="128.92249"/>
      </g>
     </g>
     <g id="text_3">
      <!-- $\mathdefault{10^{-1}}$ -->
      <g transform="translate(148.246252 143.520928)scale(0.1 -0.1)">
       <use transform="translate(0 0.684375)" xlink:href="#DejaVuSans-49"/>
       <use transform="translate(63.623047 0.684375)" xlink:href="#DejaVuSans-48"/>
       <use transform="translate(128.203125 38.965625)scale(0.7)" xlink:href="#DejaVuSans-8722"/>
       <use transform="translate(186.855469 38.965625)scale(0.7)" xlink:href="#DejaVuSans-49"/>
      </g>
     </g>
    </g>
    <g id="xtick_4">
     <g id="line2d_7">
      <path clip-path="url(#p040ada1df2)" d="M 197.395477 128.92249 
L 197.395477 13.033517 
" style="fill:none;stroke:#b0b0b0;stroke-linecap:square;stroke-width:0.8;"/>
     </g>
     <g id="line2d_8">
      <g>
       <use style="stroke:#000000;stroke-width:0.8;" x="197.395477" xlink:href="#mb773779030" y="128.92249"/>
      </g>
     </g>
     <g id="text_4">
      <!-- $\mathdefault{10^{0}}$ -->
      <g transform="translate(188.595477 143.520928)scale(0.1 -0.1)">
       <use transform="translate(0 0.765625)" xlink:href="#DejaVuSans-49"/>
       <use transform="translate(63.623047 0.765625)" xlink:href="#DejaVuSans-48"/>
       <use transform="translate(128.203125 39.046875)scale(0.7)" xlink:href="#DejaVuSans-48"/>
      </g>
     </g>
    </g>
    <g id="xtick_5">
     <g id="line2d_9">
      <defs>
       <path d="M 0 0 
L 0 2 
" id="maf11a64ce4" style="stroke:#000000;stroke-width:0.6;"/>
      </defs>
      <g>
       <use style="stroke:#000000;stroke-width:0.6;" x="59.056864" xlink:href="#maf11a64ce4" y="128.92249"/>
      </g>
     </g>
    </g>
    <g id="xtick_6">
     <g id="line2d_10">
      <g>
       <use style="stroke:#000000;stroke-width:0.6;" x="65.64254" xlink:href="#maf11a64ce4" y="128.92249"/>
      </g>
     </g>
    </g>
    <g id="xtick_7">
     <g id="line2d_11">
      <g>
       <use style="stroke:#000000;stroke-width:0.6;" x="70.315152" xlink:href="#maf11a64ce4" y="128.92249"/>
      </g>
     </g>
    </g>
    <g id="xtick_8">
     <g id="line2d_12">
      <g>
       <use style="stroke:#000000;stroke-width:0.6;" x="73.939512" xlink:href="#maf11a64ce4" y="128.92249"/>
      </g>
     </g>
    </g>
    <g id="xtick_9">
     <g id="line2d_13">
      <g>
       <use style="stroke:#000000;stroke-width:0.6;" x="76.900829" xlink:href="#maf11a64ce4" y="128.92249"/>
      </g>
     </g>
    </g>
    <g id="xtick_10">
     <g id="line2d_14">
      <g>
       <use style="stroke:#000000;stroke-width:0.6;" x="79.404587" xlink:href="#maf11a64ce4" y="128.92249"/>
      </g>
     </g>
    </g>
    <g id="xtick_11">
     <g id="line2d_15">
      <g>
       <use style="stroke:#000000;stroke-width:0.6;" x="81.573441" xlink:href="#maf11a64ce4" y="128.92249"/>
      </g>
     </g>
    </g>
    <g id="xtick_12">
     <g id="line2d_16">
      <g>
       <use style="stroke:#000000;stroke-width:0.6;" x="83.486506" xlink:href="#maf11a64ce4" y="128.92249"/>
      </g>
     </g>
    </g>
    <g id="xtick_13">
     <g id="line2d_17">
      <g>
       <use style="stroke:#000000;stroke-width:0.6;" x="96.456089" xlink:href="#maf11a64ce4" y="128.92249"/>
      </g>
     </g>
    </g>
    <g id="xtick_14">
     <g id="line2d_18">
      <g>
       <use style="stroke:#000000;stroke-width:0.6;" x="103.041766" xlink:href="#maf11a64ce4" y="128.92249"/>
      </g>
     </g>
    </g>
    <g id="xtick_15">
     <g id="line2d_19">
      <g>
       <use style="stroke:#000000;stroke-width:0.6;" x="107.714378" xlink:href="#maf11a64ce4" y="128.92249"/>
      </g>
     </g>
    </g>
    <g id="xtick_16">
     <g id="line2d_20">
      <g>
       <use style="stroke:#000000;stroke-width:0.6;" x="111.338737" xlink:href="#maf11a64ce4" y="128.92249"/>
      </g>
     </g>
    </g>
    <g id="xtick_17">
     <g id="line2d_21">
      <g>
       <use style="stroke:#000000;stroke-width:0.6;" x="114.300055" xlink:href="#maf11a64ce4" y="128.92249"/>
      </g>
     </g>
    </g>
    <g id="xtick_18">
     <g id="line2d_22">
      <g>
       <use style="stroke:#000000;stroke-width:0.6;" x="116.803813" xlink:href="#maf11a64ce4" y="128.92249"/>
      </g>
     </g>
    </g>
    <g id="xtick_19">
     <g id="line2d_23">
      <g>
       <use style="stroke:#000000;stroke-width:0.6;" x="118.972667" xlink:href="#maf11a64ce4" y="128.92249"/>
      </g>
     </g>
    </g>
    <g id="xtick_20">
     <g id="line2d_24">
      <g>
       <use style="stroke:#000000;stroke-width:0.6;" x="120.885731" xlink:href="#maf11a64ce4" y="128.92249"/>
      </g>
     </g>
    </g>
    <g id="xtick_21">
     <g id="line2d_25">
      <g>
       <use style="stroke:#000000;stroke-width:0.6;" x="133.855315" xlink:href="#maf11a64ce4" y="128.92249"/>
      </g>
     </g>
    </g>
    <g id="xtick_22">
     <g id="line2d_26">
      <g>
       <use style="stroke:#000000;stroke-width:0.6;" x="140.440991" xlink:href="#maf11a64ce4" y="128.92249"/>
      </g>
     </g>
    </g>
    <g id="xtick_23">
     <g id="line2d_27">
      <g>
       <use style="stroke:#000000;stroke-width:0.6;" x="145.113603" xlink:href="#maf11a64ce4" y="128.92249"/>
      </g>
     </g>
    </g>
    <g id="xtick_24">
     <g id="line2d_28">
      <g>
       <use style="stroke:#000000;stroke-width:0.6;" x="148.737963" xlink:href="#maf11a64ce4" y="128.92249"/>
      </g>
     </g>
    </g>
    <g id="xtick_25">
     <g id="line2d_29">
      <g>
       <use style="stroke:#000000;stroke-width:0.6;" x="151.69928" xlink:href="#maf11a64ce4" y="128.92249"/>
      </g>
     </g>
    </g>
    <g id="xtick_26">
     <g id="line2d_30">
      <g>
       <use style="stroke:#000000;stroke-width:0.6;" x="154.203038" xlink:href="#maf11a64ce4" y="128.92249"/>
      </g>
     </g>
    </g>
    <g id="xtick_27">
     <g id="line2d_31">
      <g>
       <use style="stroke:#000000;stroke-width:0.6;" x="156.371892" xlink:href="#maf11a64ce4" y="128.92249"/>
      </g>
     </g>
    </g>
    <g id="xtick_28">
     <g id="line2d_32">
      <g>
       <use style="stroke:#000000;stroke-width:0.6;" x="158.284957" xlink:href="#maf11a64ce4" y="128.92249"/>
      </g>
     </g>
    </g>
    <g id="xtick_29">
     <g id="line2d_33">
      <g>
       <use style="stroke:#000000;stroke-width:0.6;" x="171.25454" xlink:href="#maf11a64ce4" y="128.92249"/>
      </g>
     </g>
    </g>
    <g id="xtick_30">
     <g id="line2d_34">
      <g>
       <use style="stroke:#000000;stroke-width:0.6;" x="177.840217" xlink:href="#maf11a64ce4" y="128.92249"/>
      </g>
     </g>
    </g>
    <g id="xtick_31">
     <g id="line2d_35">
      <g>
       <use style="stroke:#000000;stroke-width:0.6;" x="182.512829" xlink:href="#maf11a64ce4" y="128.92249"/>
      </g>
     </g>
    </g>
    <g id="xtick_32">
     <g id="line2d_36">
      <g>
       <use style="stroke:#000000;stroke-width:0.6;" x="186.137188" xlink:href="#maf11a64ce4" y="128.92249"/>
      </g>
     </g>
    </g>
    <g id="xtick_33">
     <g id="line2d_37">
      <g>
       <use style="stroke:#000000;stroke-width:0.6;" x="189.098506" xlink:href="#maf11a64ce4" y="128.92249"/>
      </g>
     </g>
    </g>
    <g id="xtick_34">
     <g id="line2d_38">
      <g>
       <use style="stroke:#000000;stroke-width:0.6;" x="191.602264" xlink:href="#maf11a64ce4" y="128.92249"/>
      </g>
     </g>
    </g>
    <g id="xtick_35">
     <g id="line2d_39">
      <g>
       <use style="stroke:#000000;stroke-width:0.6;" x="193.771118" xlink:href="#maf11a64ce4" y="128.92249"/>
      </g>
     </g>
    </g>
    <g id="xtick_36">
     <g id="line2d_40">
      <g>
       <use style="stroke:#000000;stroke-width:0.6;" x="195.684182" xlink:href="#maf11a64ce4" y="128.92249"/>
      </g>
     </g>
    </g>
    <g id="xtick_37">
     <g id="line2d_41">
      <g>
       <use style="stroke:#000000;stroke-width:0.6;" x="208.653766" xlink:href="#maf11a64ce4" y="128.92249"/>
      </g>
     </g>
    </g>
    <g id="xtick_38">
     <g id="line2d_42">
      <g>
       <use style="stroke:#000000;stroke-width:0.6;" x="215.239443" xlink:href="#maf11a64ce4" y="128.92249"/>
      </g>
     </g>
    </g>
    <g id="text_5">
     <!-- f (Hz) -->
     <defs>
      <path d="M 37.109375 75.984375 
L 37.109375 68.5 
L 28.515625 68.5 
Q 23.6875 68.5 21.796875 66.546875 
Q 19.921875 64.59375 19.921875 59.515625 
L 19.921875 54.6875 
L 34.71875 54.6875 
L 34.71875 47.703125 
L 19.921875 47.703125 
L 19.921875 0 
L 10.890625 0 
L 10.890625 47.703125 
L 2.296875 47.703125 
L 2.296875 54.6875 
L 10.890625 54.6875 
L 10.890625 58.5 
Q 10.890625 67.625 15.140625 71.796875 
Q 19.390625 75.984375 28.609375 75.984375 
z
" id="DejaVuSans-102"/>
      <path id="DejaVuSans-32"/>
      <path d="M 31 75.875 
Q 24.46875 64.65625 21.28125 53.65625 
Q 18.109375 42.671875 18.109375 31.390625 
Q 18.109375 20.125 21.3125 9.0625 
Q 24.515625 -2 31 -13.1875 
L 23.1875 -13.1875 
Q 15.875 -1.703125 12.234375 9.375 
Q 8.59375 20.453125 8.59375 31.390625 
Q 8.59375 42.28125 12.203125 53.3125 
Q 15.828125 64.359375 23.1875 75.875 
z
" id="DejaVuSans-40"/>
      <path d="M 9.8125 72.90625 
L 19.671875 72.90625 
L 19.671875 43.015625 
L 55.515625 43.015625 
L 55.515625 72.90625 
L 65.375 72.90625 
L 65.375 0 
L 55.515625 0 
L 55.515625 34.71875 
L 19.671875 34.71875 
L 19.671875 0 
L 9.8125 0 
z
" id="DejaVuSans-72"/>
      <path d="M 5.515625 54.6875 
L 48.1875 54.6875 
L 48.1875 46.484375 
L 14.40625 7.171875 
L 48.1875 7.171875 
L 48.1875 0 
L 4.296875 0 
L 4.296875 8.203125 
L 38.09375 47.515625 
L 5.515625 47.515625 
z
" id="DejaVuSans-122"/>
      <path d="M 8.015625 75.875 
L 15.828125 75.875 
Q 23.140625 64.359375 26.78125 53.3125 
Q 30.421875 42.28125 30.421875 31.390625 
Q 30.421875 20.453125 26.78125 9.375 
Q 23.140625 -1.703125 15.828125 -13.1875 
L 8.015625 -13.1875 
Q 14.5 -2 17.703125 9.0625 
Q 20.90625 20.125 20.90625 31.390625 
Q 20.90625 42.671875 17.703125 53.65625 
Q 14.5 64.65625 8.015625 75.875 
z
" id="DejaVuSans-41"/>
     </defs>
     <g transform="translate(121.839733 157.199053)scale(0.1 -0.1)">
      <use xlink:href="#DejaVuSans-102"/>
      <use x="35.205078" xlink:href="#DejaVuSans-32"/>
      <use x="66.992188" xlink:href="#DejaVuSans-40"/>
      <use x="106.005859" xlink:href="#DejaVuSans-72"/>
      <use x="181.201172" xlink:href="#DejaVuSans-122"/>
      <use x="233.691406" xlink:href="#DejaVuSans-41"/>
     </g>
    </g>
   </g>
   <g id="matplotlib.axis_2">
    <g id="ytick_1">
     <g id="line2d_43">
      <path clip-path="url(#p040ada1df2)" d="M 54.978125 106.74446 
L 215.971654 106.74446 
" style="fill:none;stroke:#b0b0b0;stroke-linecap:square;stroke-width:0.8;"/>
     </g>
     <g id="line2d_44">
      <defs>
       <path d="M 0 0 
L -3.5 0 
" id="m6604eb73d3" style="stroke:#000000;stroke-width:0.8;"/>
      </defs>
      <g>
       <use style="stroke:#000000;stroke-width:0.8;" x="54.978125" xlink:href="#m6604eb73d3" y="106.74446"/>
      </g>
     </g>
     <g id="text_6">
      <!-- $\mathdefault{10^{-3}}$ -->
      <g transform="translate(24.478125 110.543679)scale(0.1 -0.1)">
       <use transform="translate(0 0.765625)" xlink:href="#DejaVuSans-49"/>
       <use transform="translate(63.623047 0.765625)" xlink:href="#DejaVuSans-48"/>
       <use transform="translate(128.203125 39.046875)scale(0.7)" xlink:href="#DejaVuSans-8722"/>
       <use transform="translate(186.855469 39.046875)scale(0.7)" xlink:href="#DejaVuSans-51"/>
      </g>
     </g>
    </g>
    <g id="ytick_2">
     <g id="line2d_45">
      <path clip-path="url(#p040ada1df2)" d="M 54.978125 75.969317 
L 215.971654 75.969317 
" style="fill:none;stroke:#b0b0b0;stroke-linecap:square;stroke-width:0.8;"/>
     </g>
     <g id="line2d_46">
      <g>
       <use style="stroke:#000000;stroke-width:0.8;" x="54.978125" xlink:href="#m6604eb73d3" y="75.969317"/>
      </g>
     </g>
     <g id="text_7">
      <!-- $\mathdefault{10^{-1}}$ -->
      <g transform="translate(24.478125 79.768535)scale(0.1 -0.1)">
       <use transform="translate(0 0.684375)" xlink:href="#DejaVuSans-49"/>
       <use transform="translate(63.623047 0.684375)" xlink:href="#DejaVuSans-48"/>
       <use transform="translate(128.203125 38.965625)scale(0.7)" xlink:href="#DejaVuSans-8722"/>
       <use transform="translate(186.855469 38.965625)scale(0.7)" xlink:href="#DejaVuSans-49"/>
      </g>
     </g>
    </g>
    <g id="ytick_3">
     <g id="line2d_47">
      <path clip-path="url(#p040ada1df2)" d="M 54.978125 45.194173 
L 215.971654 45.194173 
" style="fill:none;stroke:#b0b0b0;stroke-linecap:square;stroke-width:0.8;"/>
     </g>
     <g id="line2d_48">
      <g>
       <use style="stroke:#000000;stroke-width:0.8;" x="54.978125" xlink:href="#m6604eb73d3" y="45.194173"/>
      </g>
     </g>
     <g id="text_8">
      <!-- $\mathdefault{10^{1}}$ -->
      <g transform="translate(30.378125 48.993392)scale(0.1 -0.1)">
       <use transform="translate(0 0.684375)" xlink:href="#DejaVuSans-49"/>
       <use transform="translate(63.623047 0.684375)" xlink:href="#DejaVuSans-48"/>
       <use transform="translate(128.203125 38.965625)scale(0.7)" xlink:href="#DejaVuSans-49"/>
      </g>
     </g>
    </g>
    <g id="ytick_4">
     <g id="line2d_49">
      <path clip-path="url(#p040ada1df2)" d="M 54.978125 14.419029 
L 215.971654 14.419029 
" style="fill:none;stroke:#b0b0b0;stroke-linecap:square;stroke-width:0.8;"/>
     </g>
     <g id="line2d_50">
      <g>
       <use style="stroke:#000000;stroke-width:0.8;" x="54.978125" xlink:href="#m6604eb73d3" y="14.419029"/>
      </g>
     </g>
     <g id="text_9">
      <!-- $\mathdefault{10^{3}}$ -->
      <g transform="translate(30.378125 18.218248)scale(0.1 -0.1)">
       <use transform="translate(0 0.765625)" xlink:href="#DejaVuSans-49"/>
       <use transform="translate(63.623047 0.765625)" xlink:href="#DejaVuSans-48"/>
       <use transform="translate(128.203125 39.046875)scale(0.7)" xlink:href="#DejaVuSans-51"/>
      </g>
     </g>
    </g>
    <g id="text_10">
     <!-- S(f) (m^2/s) -->
     <defs>
      <path d="M 53.515625 70.515625 
L 53.515625 60.890625 
Q 47.90625 63.578125 42.921875 64.890625 
Q 37.9375 66.21875 33.296875 66.21875 
Q 25.25 66.21875 20.875 63.09375 
Q 16.5 59.96875 16.5 54.203125 
Q 16.5 49.359375 19.40625 46.890625 
Q 22.3125 44.4375 30.421875 42.921875 
L 36.375 41.703125 
Q 47.40625 39.59375 52.65625 34.296875 
Q 57.90625 29 57.90625 20.125 
Q 57.90625 9.515625 50.796875 4.046875 
Q 43.703125 -1.421875 29.984375 -1.421875 
Q 24.8125 -1.421875 18.96875 -0.25 
Q 13.140625 0.921875 6.890625 3.21875 
L 6.890625 13.375 
Q 12.890625 10.015625 18.65625 8.296875 
Q 24.421875 6.59375 29.984375 6.59375 
Q 38.421875 6.59375 43.015625 9.90625 
Q 47.609375 13.234375 47.609375 19.390625 
Q 47.609375 24.75 44.3125 27.78125 
Q 41.015625 30.8125 33.5 32.328125 
L 27.484375 33.5 
Q 16.453125 35.6875 11.515625 40.375 
Q 6.59375 45.0625 6.59375 53.421875 
Q 6.59375 63.09375 13.40625 68.65625 
Q 20.21875 74.21875 32.171875 74.21875 
Q 37.3125 74.21875 42.625 73.28125 
Q 47.953125 72.359375 53.515625 70.515625 
z
" id="DejaVuSans-83"/>
      <path d="M 52 44.1875 
Q 55.375 50.25 60.0625 53.125 
Q 64.75 56 71.09375 56 
Q 79.640625 56 84.28125 50.015625 
Q 88.921875 44.046875 88.921875 33.015625 
L 88.921875 0 
L 79.890625 0 
L 79.890625 32.71875 
Q 79.890625 40.578125 77.09375 44.375 
Q 74.3125 48.1875 68.609375 48.1875 
Q 61.625 48.1875 57.5625 43.546875 
Q 53.515625 38.921875 53.515625 30.90625 
L 53.515625 0 
L 44.484375 0 
L 44.484375 32.71875 
Q 44.484375 40.625 41.703125 44.40625 
Q 38.921875 48.1875 33.109375 48.1875 
Q 26.21875 48.1875 22.15625 43.53125 
Q 18.109375 38.875 18.109375 30.90625 
L 18.109375 0 
L 9.078125 0 
L 9.078125 54.6875 
L 18.109375 54.6875 
L 18.109375 46.1875 
Q 21.1875 51.21875 25.484375 53.609375 
Q 29.78125 56 35.6875 56 
Q 41.65625 56 45.828125 52.96875 
Q 50 49.953125 52 44.1875 
z
" id="DejaVuSans-109"/>
      <path d="M 46.6875 72.90625 
L 73.1875 45.703125 
L 63.375 45.703125 
L 41.890625 64.984375 
L 20.40625 45.703125 
L 10.59375 45.703125 
L 37.109375 72.90625 
z
" id="DejaVuSans-94"/>
      <path d="M 25.390625 72.90625 
L 33.6875 72.90625 
L 8.296875 -9.28125 
L 0 -9.28125 
z
" id="DejaVuSans-47"/>
      <path d="M 44.28125 53.078125 
L 44.28125 44.578125 
Q 40.484375 46.53125 36.375 47.5 
Q 32.28125 48.484375 27.875 48.484375 
Q 21.1875 48.484375 17.84375 46.4375 
Q 14.5 44.390625 14.5 40.28125 
Q 14.5 37.15625 16.890625 35.375 
Q 19.28125 33.59375 26.515625 31.984375 
L 29.59375 31.296875 
Q 39.15625 29.25 43.1875 25.515625 
Q 47.21875 21.78125 47.21875 15.09375 
Q 47.21875 7.46875 41.1875 3.015625 
Q 35.15625 -1.421875 24.609375 -1.421875 
Q 20.21875 -1.421875 15.453125 -0.5625 
Q 10.6875 0.296875 5.421875 2 
L 5.421875 11.28125 
Q 10.40625 8.6875 15.234375 7.390625 
Q 20.0625 6.109375 24.8125 6.109375 
Q 31.15625 6.109375 34.5625 8.28125 
Q 37.984375 10.453125 37.984375 14.40625 
Q 37.984375 18.0625 35.515625 20.015625 
Q 33.0625 21.96875 24.703125 23.78125 
L 21.578125 24.515625 
Q 13.234375 26.265625 9.515625 29.90625 
Q 5.8125 33.546875 5.8125 39.890625 
Q 5.8125 47.609375 11.28125 51.796875 
Q 16.75 56 26.8125 56 
Q 31.78125 56 36.171875 55.265625 
Q 40.578125 54.546875 44.28125 53.078125 
z
" id="DejaVuSans-115"/>
     </defs>
     <g transform="translate(18.398437 101.835035)rotate(-90)scale(0.1 -0.1)">
      <use xlink:href="#DejaVuSans-83"/>
      <use x="63.476562" xlink:href="#DejaVuSans-40"/>
      <use x="102.490234" xlink:href="#DejaVuSans-102"/>
      <use x="137.695312" xlink:href="#DejaVuSans-41"/>
      <use x="176.708984" xlink:href="#DejaVuSans-32"/>
      <use x="208.496094" xlink:href="#DejaVuSans-40"/>
      <use x="247.509766" xlink:href="#DejaVuSans-109"/>
      <use x="344.921875" xlink:href="#DejaVuSans-94"/>
      <use x="428.710938" xlink:href="#DejaVuSans-50"/>
      <use x="492.333984" xlink:href="#DejaVuSans-47"/>
      <use x="526.025391" xlink:href="#DejaVuSans-115"/>
      <use x="578.125" xlink:href="#DejaVuSans-41"/>
     </g>
    </g>
   </g>
   <g id="line2d_51">
    <path clip-path="url(#p040ada1df2)" d="M 62.296013 36.00208 
L 73.554301 44.394552 
L 80.139978 50.526513 
L 84.81259 30.10828 
L 88.43695 24.743443 
L 91.398267 22.944329 
L 93.902025 23.966426 
L 96.070879 36.695995 
L 97.983944 22.004636 
L 99.695238 21.452428 
L 102.656556 32.306427 
L 103.956631 25.540434 
L 105.160314 35.847851 
L 106.280915 50.289299 
L 107.329167 44.68469 
L 108.313849 31.67731 
L 109.242232 46.28703 
L 110.120407 44.617389 
L 110.953527 33.485271 
L 111.74599 29.5622 
L 112.501581 22.235839 
L 113.223579 23.057641 
L 113.914844 19.985798 
L 114.577886 19.414131 
L 115.827909 28.683799 
L 116.418602 28.827018 
L 116.988565 48.137242 
L 117.539204 26.621244 
L 118.071785 20.895061 
L 118.587456 25.560338 
L 119.087258 34.300237 
L 119.572138 20.319758 
L 120.042962 25.495664 
L 120.500521 51.502519 
L 120.945543 45.605587 
L 121.378696 23.870615 
L 121.800597 23.71642 
L 122.211816 26.15904 
L 122.61288 37.243513 
L 123.004279 24.178072 
L 123.386468 20.598443 
L 123.75987 24.045942 
L 124.12488 37.557824 
L 124.481868 29.299768 
L 124.831178 31.803896 
L 125.173133 39.370524 
L 125.508037 39.322065 
L 125.836175 29.642851 
L 126.157815 29.289151 
L 126.473209 22.176538 
L 126.782595 35.183567 
L 127.086198 56.981317 
L 127.384229 31.986981 
L 127.676891 20.361446 
L 127.964372 22.950104 
L 128.246854 26.722149 
L 128.524506 33.793934 
L 128.797492 52.51872 
L 129.065966 31.651514 
L 129.330074 20.265832 
L 129.589956 24.035716 
L 129.845745 53.969325 
L 130.097568 26.62383 
L 130.345547 20.866774 
L 130.830427 28.67818 
L 131.067545 30.715775 
L 131.30125 31.180097 
L 131.531641 22.693679 
L 131.75881 20.699121 
L 131.982845 25.097506 
L 132.203831 38.42544 
L 132.421852 25.290056 
L 132.636984 23.02739 
L 133.058885 24.732288 
L 133.265796 24.996588 
L 133.470104 31.97307 
L 133.671874 31.280113 
L 133.871169 20.266508 
L 134.068047 23.627412 
L 134.262568 65.115925 
L 134.454786 25.41902 
L 134.832531 20.72119 
L 135.018159 22.253523 
L 135.201689 25.587753 
L 135.383169 24.303356 
L 135.562644 19.734816 
L 135.740157 18.389858 
L 135.91575 21.436998 
L 136.089466 33.139985 
L 136.431422 22.995085 
L 136.766326 26.45318 
L 136.931223 25.126518 
L 137.094464 22.361721 
L 137.416104 24.733344 
L 137.574566 25.368769 
L 137.731497 33.128869 
L 137.886927 29.146862 
L 138.040884 68.040149 
L 138.344486 29.891732 
L 138.642518 19.506167 
L 138.93518 31.561784 
L 139.222661 18.786774 
L 139.364516 18.301198 
L 139.644562 28.322701 
L 139.782795 25.335738 
L 139.919862 27.693417 
L 140.055781 43.681122 
L 140.324255 21.729947 
L 140.588362 28.132188 
L 140.718823 27.200077 
L 140.848244 28.549466 
L 140.976643 26.310235 
L 141.104034 21.454361 
L 141.230433 21.234342 
L 141.355857 23.806149 
L 141.480319 32.137479 
L 141.603835 28.488834 
L 141.726419 36.423263 
L 141.848085 29.03491 
L 141.968846 36.090025 
L 142.207707 31.163356 
L 142.325833 36.378358 
L 142.559539 24.67839 
L 142.78993 33.235015 
L 142.903911 27.631338 
L 143.017098 40.655623 
L 143.241133 25.937595 
L 143.352003 29.624914 
L 143.46212 30.399519 
L 143.571496 28.725445 
L 143.680141 32.99336 
L 143.788063 31.763973 
L 144.00178 21.98144 
L 144.107594 24.897155 
L 144.317174 41.188893 
L 144.62656 27.614026 
L 144.728393 32.511454 
L 144.829591 25.92594 
L 144.930163 36.889173 
L 145.030116 34.544535 
L 145.129457 38.738125 
L 145.228195 50.187516 
L 145.423887 34.33671 
L 145.61725 25.001837 
L 145.808338 23.626785 
L 145.997204 32.602357 
L 146.090819 28.161029 
L 146.183899 29.476774 
L 146.276447 47.777821 
L 146.459978 22.912665 
L 146.550971 25.132153 
L 146.641458 32.025286 
L 146.731443 30.482637 
L 146.820932 30.892891 
L 146.909931 23.156641 
L 147.08648 30.824294 
L 147.174039 48.10665 
L 147.261129 43.651923 
L 147.433921 24.623766 
L 147.519633 28.230151 
L 147.68971 38.224568 
L 147.774086 31.527963 
L 147.858026 44.361501 
L 148.189512 24.760862 
L 148.271337 26.911176 
L 148.352752 32.424253 
L 148.433762 25.665364 
L 148.753817 36.780883 
L 148.832855 34.735646 
L 148.91151 49.81517 
L 149.067687 28.953503 
L 149.145216 41.409276 
L 149.222376 36.412752 
L 149.299172 29.015526 
L 149.451683 42.418724 
L 149.602775 27.992389 
L 149.677797 37.572414 
L 149.752475 30.39337 
L 149.82681 32.663551 
L 149.974468 39.872764 
L 150.193468 35.320902 
L 150.337845 34.218064 
L 150.409555 43.003765 
L 150.622805 29.743628 
L 150.69327 28.92649 
L 150.763431 22.16595 
L 150.833291 24.877616 
L 150.902851 48.778422 
L 150.972114 40.588939 
L 151.041084 40.4132 
L 151.109762 41.587984 
L 151.31407 26.656488 
L 151.381605 37.130208 
L 151.51584 22.905077 
L 151.648974 37.040834 
L 151.781026 29.333621 
L 151.846651 44.38507 
L 151.912013 42.005564 
L 152.041951 28.199805 
L 152.106533 30.91118 
L 152.234931 39.149336 
L 152.425645 30.931941 
L 152.488722 25.113621 
L 152.614146 40.178584 
L 152.676496 33.792888 
L 152.738608 35.133524 
L 152.862124 44.67417 
L 152.984708 30.852685 
L 153.045655 38.625282 
L 153.106374 28.853722 
L 153.166866 29.31909 
L 153.227135 42.146329 
L 153.28718 33.08236 
L 153.347004 23.857548 
L 153.406609 28.734796 
L 153.642864 52.911089 
L 153.817828 25.565975 
L 153.875733 26.964426 
L 153.933432 26.429949 
L 154.048219 25.587367 
L 154.1622 38.969004 
L 154.218892 29.640619 
L 154.275387 60.479341 
L 154.331686 44.0387 
L 154.499422 25.673489 
L 154.554951 29.762306 
L 154.665443 36.59482 
L 154.775189 35.747484 
L 154.884198 73.440135 
L 155.046352 24.928469 
L 155.153562 28.598893 
L 155.260069 42.40691 
L 155.365882 29.566853 
L 155.418531 36.806608 
L 155.471011 34.175874 
L 155.523321 32.522242 
L 155.575463 39.354249 
L 155.627438 38.229392 
L 155.679248 28.052299 
L 155.730893 29.710058 
L 155.833692 36.264296 
L 155.884849 56.839974 
L 155.935845 52.197261 
L 155.986682 51.444437 
L 156.03736 64.618242 
L 156.188452 39.965083 
L 156.338151 31.299417 
L 156.387746 28.879051 
L 156.486484 43.99299 
L 156.633474 26.114667 
L 156.682176 35.339058 
L 156.730733 31.508545 
L 156.779145 28.950951 
L 156.827413 42.338155 
L 156.875539 38.393579 
L 156.923522 37.130714 
L 156.971364 50.704559 
L 157.019065 49.796113 
L 157.255492 28.701771 
L 157.302368 33.091471 
L 157.349108 30.126837 
L 157.395714 27.165003 
L 157.442187 29.568442 
L 157.580814 36.477899 
L 157.626761 36.726361 
L 157.672578 53.903203 
L 157.718267 43.753192 
L 157.763827 44.295291 
L 157.899746 33.319994 
L 157.944801 29.726227 
L 157.989732 37.356436 
L 158.034538 30.978268 
L 158.079221 25.348782 
L 158.123781 30.029382 
L 158.300811 40.210381 
L 158.344768 48.432951 
L 158.388607 38.176003 
L 158.432328 34.356806 
L 158.519418 55.489427 
L 158.562789 38.293077 
L 158.649184 31.185058 
L 158.69221 33.639369 
L 158.735122 43.643051 
L 158.777921 41.803276 
L 158.863183 27.042176 
L 158.905646 33.145477 
L 159.032375 54.287471 
L 159.199822 33.185675 
L 159.282903 41.46507 
L 159.324285 32.708577 
L 159.406733 34.826453 
L 159.488765 44.720867 
L 159.651596 29.846499 
L 159.772657 41.910735 
L 159.812811 37.265051 
L 159.852866 34.214661 
L 159.892823 39.269244 
L 159.972442 54.093616 
L 160.051673 28.133824 
L 160.091143 33.893967 
L 160.208984 50.132319 
L 160.248075 38.110974 
L 160.325976 45.065924 
L 160.364786 48.3442 
L 160.403505 45.438894 
L 160.480665 29.064171 
L 160.519108 31.199255 
L 160.671978 43.971641 
L 160.709972 30.127157 
L 160.747877 32.293926 
L 160.785693 56.11115 
L 160.823422 39.671745 
L 160.898618 30.12985 
L 160.936086 35.775206 
L 160.973468 54.05476 
L 161.047974 36.410966 
L 161.085099 33.690287 
L 161.122139 34.812843 
L 161.159096 41.4114 
L 161.232757 40.157014 
L 161.269463 37.349318 
L 161.342626 50.871546 
L 161.379085 33.264949 
L 161.415462 37.935804 
L 161.451757 53.041689 
L 161.524106 38.105792 
L 161.596134 32.891806 
L 161.632028 48.136509 
L 161.70358 39.896815 
L 161.810321 28.03549 
L 161.845746 34.615735 
L 161.881093 91.924515 
L 161.951559 55.384605 
L 162.091579 38.411698 
L 162.126397 40.978954 
L 162.264925 28.258699 
L 162.333748 34.065324 
L 162.36805 43.527046 
L 162.436439 40.243314 
L 162.470526 35.211946 
L 162.504541 51.255473 
L 162.538485 35.187287 
L 162.572358 37.38381 
L 162.673557 29.319554 
L 162.70715 35.317691 
L 162.874081 50.12004 
L 163.006402 31.839568 
L 163.10494 49.12982 
L 163.137653 38.901806 
L 163.170301 39.267017 
L 163.267853 68.773335 
L 163.364822 33.451586 
L 163.397017 36.809661 
L 163.49322 51.951343 
L 163.525162 43.308728 
L 163.588857 33.698604 
L 163.620611 35.791357 
L 163.715503 46.011114 
L 163.841169 36.042679 
L 163.965871 49.349074 
L 164.027864 30.260553 
L 164.058772 39.939037 
L 164.089622 55.546543 
L 164.151146 33.02664 
L 164.273499 43.980388 
L 164.242997 32.473499 
L 164.303943 39.857951 
L 164.334331 49.205838 
L 164.394937 48.372374 
L 164.455317 33.51083 
L 164.515474 38.971876 
L 164.575408 52.357946 
L 164.605293 42.548366 
L 164.664898 39.088633 
L 164.724285 66.010878 
L 164.753897 38.606594 
L 164.81296 46.596343 
L 164.842411 35.058326 
L 164.930445 44.014473 
L 164.959684 44.213613 
L 164.98887 35.380141 
L 165.018005 53.674353 
L 165.047087 48.821878 
L 165.105095 60.678581 
L 165.134021 39.140774 
L 165.220493 40.408799 
L 165.277887 37.73441 
L 165.392068 52.072846 
L 165.477181 36.455348 
L 165.533676 38.481496 
L 165.56185 44.77026 
L 165.589975 34.816976 
L 165.64608 43.943976 
L 165.785499 32.369975 
L 165.81324 34.075227 
L 165.86858 94.104497 
L 165.896179 41.237922 
L 165.951238 32.337587 
L 165.978698 33.774604 
L 166.088074 59.816281 
L 166.115303 45.596641 
L 166.142487 53.61418 
L 166.169625 34.276948 
L 166.196718 36.949822 
L 166.223766 39.928651 
L 166.250769 39.54805 
L 166.277727 32.372753 
L 166.30464 33.117372 
L 166.358334 67.902367 
L 166.411851 31.190858 
L 166.544876 60.235839 
L 166.57135 44.845473 
L 166.650517 47.578385 
L 166.703081 31.24973 
L 166.85976 66.27261 
L 166.885727 53.569447 
L 166.937536 56.240776 
L 166.963379 41.74769 
L 166.989181 58.562236 
L 167.040662 36.268574 
L 167.066342 42.761501 
L 167.117579 48.728896 
L 167.143138 44.045227 
L 167.168656 84.082671 
L 167.24497 39.60913 
L 167.270329 47.58902 
L 167.346169 43.098165 
L 167.396532 34.58063 
L 167.421656 58.948271 
L 167.496794 37.86371 
L 167.521763 37.791315 
L 167.621256 66.437382 
L 167.646035 43.512273 
L 167.695479 38.658158 
L 167.818434 63.2468 
L 167.916132 66.803264 
L 167.940465 40.789003 
L 168.013246 52.403908 
L 168.037434 47.487815 
L 168.157837 33.729203 
L 168.085702 49.330072 
L 168.181811 37.302185 
L 168.205749 54.040051 
L 168.277354 36.172728 
L 168.301152 30.987716 
L 168.348644 39.881994 
L 168.419623 58.173385 
L 168.443214 34.767856 
L 168.46677 34.681762 
L 168.490293 63.910266 
L 168.584043 48.974072 
L 168.607397 51.374888 
L 168.630717 37.227388 
L 168.700476 44.049464 
L 168.723663 56.13916 
L 168.769937 39.323244 
L 168.793025 40.991115 
L 168.862092 46.300666 
L 168.885049 40.569577 
L 168.907974 33.170064 
L 168.976555 44.143632 
L 169.022116 35.717512 
L 169.067549 40.206726 
L 169.090218 60.241908 
L 169.180578 42.667501 
L 169.24802 49.305117 
L 169.270439 43.782921 
L 169.292827 38.364924 
L 169.315184 44.301857 
L 169.33751 57.036422 
L 169.38207 38.111085 
L 169.426509 54.944703 
L 169.559099 33.223551 
L 169.668771 49.274932 
L 169.712433 45.685754 
L 169.73422 46.596963 
L 169.799407 35.445141 
L 169.821077 44.282696 
L 169.842719 47.648689 
L 169.864332 36.27303 
L 169.929 44.678213 
L 169.950499 45.16541 
L 169.971969 44.177673 
L 169.993411 55.856586 
L 170.03621 37.499919 
L 170.078897 53.694375 
L 170.185125 35.103185 
L 170.142717 68.724904 
L 170.227423 39.365749 
L 170.290663 54.815195 
L 170.332687 42.51348 
L 170.374603 39.763718 
L 170.458111 70.054155 
L 170.478921 40.196691 
L 170.582574 41.647652 
L 170.603225 43.197344 
L 170.70609 32.267047 
L 170.665022 49.335906 
L 170.726585 35.205723 
L 170.747054 54.687737 
L 170.828673 50.050717 
L 170.849014 39.104518 
L 170.909885 39.823968 
L 170.930125 65.402003 
L 171.010832 37.74872 
L 171.0711 56.119557 
L 171.111155 46.64412 
L 171.131145 38.63413 
L 171.210862 44.612031 
L 171.250574 66.199442 
L 171.29019 41.420848 
L 171.309961 37.884643 
L 171.349432 45.569045 
L 171.408459 38.235273 
L 171.467273 36.187353 
L 171.525874 67.306827 
L 171.623075 35.864197 
L 171.642446 48.29289 
L 171.681118 63.344883 
L 171.719698 35.866291 
L 171.738954 42.569119 
L 171.81575 38.577593 
L 171.854012 56.159076 
L 171.987224 33.541139 
L 172.006165 36.377044 
L 172.100543 71.218569 
L 172.119352 49.290121 
L 172.138141 38.051725 
L 172.194375 51.084493 
L 172.231756 43.240222 
L 172.250415 52.872945 
L 172.343387 46.645227 
L 172.380428 39.008229 
L 172.454257 36.335752 
L 172.491046 63.972122 
L 172.527751 43.168484 
L 172.582655 45.584791 
L 172.600915 77.234817 
L 172.637373 42.404028 
L 172.691908 47.491887 
L 172.728163 50.680308 
L 172.782395 42.597885 
L 172.800432 60.475276 
L 172.818449 41.475903 
L 172.890317 55.652933 
L 172.908235 38.332865 
L 172.944011 64.55094 
L 172.979708 54.378524 
L 172.997527 61.456018 
L 173.050868 39.845358 
L 173.086332 49.01843 
L 173.121718 42.344081 
L 173.139382 36.624174 
L 173.174653 60.620135 
L 173.209848 48.643612 
L 173.262497 35.685275 
L 173.297502 51.495121 
L 173.332431 42.688102 
L 173.367286 36.580502 
L 173.419428 39.726379 
L 173.454097 62.754921 
L 173.523213 48.822525 
L 173.592037 36.481797 
L 173.643463 41.350343 
L 173.660569 39.79565 
L 173.694728 57.116251 
L 173.779811 50.37729 
L 173.796774 50.043902 
L 173.86445 34.949279 
L 173.931846 39.385225 
L 174.065803 59.853943 
L 174.099121 38.548721 
L 174.13237 86.913743 
L 174.182117 44.555687 
L 174.198665 51.391828 
L 174.248209 35.084466 
L 174.281155 40.193057 
L 174.297603 34.478357 
L 174.330449 45.39173 
L 174.379594 37.306408 
L 174.444889 35.630742 
L 174.493689 52.619496 
L 174.509924 39.317769 
L 174.558529 59.510145 
L 174.590852 49.953383 
L 174.606989 65.546783 
L 174.655305 40.368323 
L 174.687437 49.823644 
L 174.703478 47.309443 
L 174.719504 51.581803 
L 174.735514 63.33613 
L 174.78345 43.917059 
L 174.815329 47.356677 
L 174.831245 43.528332 
L 174.847146 77.742728 
L 174.942223 52.275684 
L 174.973792 45.338498 
L 174.989553 49.831231 
L 175.083803 74.667274 
L 175.036746 38.285723 
L 175.099458 59.230788 
L 175.146333 40.826748 
L 175.286153 41.535276 
L 175.347911 54.75461 
L 175.378702 40.943167 
L 175.394075 41.051028 
L 175.424779 64.511036 
L 175.516544 49.189998 
L 175.607792 43.228605 
L 175.562232 59.546273 
L 175.622951 44.986806 
L 175.638095 55.120252 
L 175.728666 51.087643 
L 175.803757 43.636038 
L 175.818734 59.604172 
L 175.833697 52.504448 
L 175.848646 60.182086 
L 175.878503 38.48678 
L 175.908306 45.332935 
L 175.923186 39.559094 
L 175.938054 69.062175 
L 175.982573 58.632493 
L 176.012185 70.624185 
L 176.026971 43.703641 
L 176.041744 38.916871 
L 176.085981 50.940148 
L 176.100699 49.01944 
L 176.130097 69.022754 
L 176.188734 39.678616 
L 176.20336 44.285768 
L 176.261733 54.821766 
L 176.232572 40.902479 
L 176.305375 48.341102 
L 176.319897 44.40609 
L 176.348901 64.129901 
L 176.421185 45.895293 
L 176.521846 55.535974 
L 176.478782 37.338192 
L 176.550492 54.022256 
L 176.593366 38.72747 
L 176.664573 42.580098 
L 176.692969 74.611296 
L 176.73547 39.688863 
L 176.777859 50.664673 
L 176.791964 51.198967 
L 176.820138 44.388157 
L 176.848264 57.229337 
L 176.904368 70.083765 
L 176.87634 45.811552 
L 176.932348 55.775194 
L 176.96028 43.312665 
L 177.043788 46.475143 
L 177.113051 78.93551 
L 177.099222 43.471394 
L 177.16825 54.70862 
L 177.19578 40.100478 
L 177.223262 68.969963 
L 177.291766 46.749573 
L 177.319087 41.892735 
L 177.33273 44.395335 
L 177.359983 60.156261 
L 177.41435 40.150823 
L 177.427914 41.357497 
L 177.441466 39.440879 
L 177.455007 42.583625 
L 177.468536 63.242923 
L 177.562929 48.410284 
L 177.576369 42.184674 
L 177.616623 61.975156 
L 177.670139 45.824111 
L 177.736788 60.980197 
L 177.763371 43.575626 
L 177.776646 43.35021 
L 177.88246 73.747353 
L 177.816407 38.497264 
L 177.908806 54.074419 
L 177.974484 62.844074 
L 178.026836 42.304841 
L 178.039898 42.496479 
L 178.131037 64.792041 
L 178.182888 63.877493 
L 178.234574 41.505617 
L 178.311796 50.468533 
L 178.375868 62.964854 
L 178.337455 37.610897 
L 178.41419 56.286181 
L 178.477861 62.138913 
L 178.541282 43.067961 
L 178.654821 67.254484 
L 178.591842 42.86054 
L 178.705029 53.404927 
L 178.742584 85.590402 
L 178.829874 39.224987 
L 178.867142 66.120642 
L 178.953767 44.23201 
L 179.003061 60.412385 
L 178.978433 40.057292 
L 179.064469 46.121804 
L 179.076722 46.066644 
L 179.101202 46.080259 
L 179.113428 42.882233 
L 179.125645 57.548584 
L 179.150051 39.975057 
L 179.22305 56.081652 
L 179.295723 40.33223 
L 179.331937 57.662371 
L 179.368071 41.39506 
L 179.392116 63.00865 
L 179.440099 47.733024 
L 179.52373 75.085449 
L 179.49988 42.304654 
L 179.535642 58.122057 
L 179.547546 43.5838 
L 179.630627 53.172839 
L 179.725059 45.978354 
L 179.748581 84.920922 
L 179.854013 39.899296 
L 179.87735 40.594791 
L 180.005105 71.036427 
L 180.01667 55.865504 
L 180.10889 41.32959 
L 180.074369 60.03307 
L 180.120381 46.754179 
L 180.177713 64.833481 
L 180.223434 46.802572 
L 180.314491 65.583068 
L 180.348506 52.855334 
L 180.359829 43.837382 
L 180.438867 60.966242 
L 180.483859 73.503566 
L 180.495088 49.384252 
L 180.528728 61.394205 
L 180.551115 42.340724 
L 180.62923 43.356381 
L 180.640359 64.127212 
L 180.740175 45.07024 
L 180.784342 76.103445 
L 180.762274 41.13497 
L 180.861346 51.597859 
L 180.916126 43.521492 
L 180.937986 56.719164 
L 180.959817 52.144266 
L 181.057695 86.906304 
L 180.992509 40.457807 
L 181.068534 54.236265 
L 181.154987 66.223498 
L 181.122621 40.448289 
L 181.165761 51.848629 
L 181.176529 41.055654 
L 181.198041 61.89566 
L 181.2517 45.231101 
L 181.294499 76.041375 
L 181.337185 43.739379 
L 181.358487 51.866457 
L 181.443414 41.980392 
L 181.411618 80.754895 
L 181.453999 48.092571 
L 181.475147 67.631551 
L 181.496269 43.464955 
L 181.569978 54.640451 
L 181.632892 42.136713 
L 181.601465 60.834669 
L 181.685135 42.213122 
L 181.747605 59.678339 
L 181.768375 45.819508 
L 181.77875 84.91728 
L 181.799481 44.860507 
L 181.882139 69.564887 
L 181.902738 44.687295 
L 181.995111 49.41986 
L 182.086962 44.380878 
L 182.046204 61.968611 
L 182.107303 48.522097 
L 182.147909 77.340107 
L 182.158044 43.92211 
L 182.208628 54.589172 
L 182.279181 42.064876 
L 182.228817 71.672781 
L 182.319359 44.37608 
L 182.339412 65.553188 
L 182.439303 60.490074 
L 182.449258 45.330681 
L 182.479088 69.52491 
L 182.558367 47.208248 
L 182.578127 42.012113 
L 182.607721 63.972207 
L 182.666748 46.66412 
L 182.676565 46.531775 
L 182.77441 77.881767 
L 182.725561 45.586489 
L 182.784163 55.176215 
L 182.852264 69.322508 
L 182.803649 47.500745 
L 182.86197 56.404019 
L 182.891052 42.735187 
L 182.958708 48.983449 
L 182.96835 69.133766 
L 183.045283 43.999823 
L 183.064459 65.355227 
L 183.121852 43.494578 
L 183.169525 65.864328 
L 183.179043 50.328752 
L 183.245513 61.171913 
L 183.217059 47.169692 
L 183.273917 52.501941 
L 183.34 45.014987 
L 183.321146 69.605344 
L 183.377641 49.314559 
L 183.490045 66.273068 
L 183.43394 45.587538 
L 183.499377 62.380381 
L 183.601676 45.968706 
L 183.555256 74.526093 
L 183.620207 50.667084 
L 183.638717 71.405737 
L 183.684899 44.257831 
L 183.740145 67.690798 
L 183.767697 45.78532 
L 183.859204 53.523312 
L 183.904764 63.826483 
L 183.932039 45.152074 
L 183.94112 44.764838 
L 183.950197 46.337414 
L 184.040683 59.212584 
L 184.031657 44.685857 
L 184.049704 53.045092 
L 184.05872 44.340922 
L 184.076737 64.321801 
L 184.13964 53.501908 
L 184.148606 71.993354 
L 184.22908 45.373859 
L 184.246909 49.816255 
L 184.282508 44.377136 
L 184.371167 68.541732 
L 184.459345 74.496699 
L 184.485705 44.658911 
L 184.56453 59.824631 
L 184.599441 57.738907 
L 184.677717 44.134773 
L 184.616868 84.367302 
L 184.712386 47.77109 
L 184.721041 77.288895 
L 184.824551 51.528727 
L 184.841738 57.365768 
L 184.876059 44.88579 
L 184.884628 47.941044 
L 184.893192 86.684306 
L 184.995614 73.88616 
L 185.038099 45.461493 
L 185.105846 67.53776 
L 185.114295 78.901643 
L 185.190134 44.485598 
L 185.206939 61.767513 
L 185.273987 88.062159 
L 185.332428 46.872484 
L 185.374043 45.004782 
L 185.465222 73.793165 
L 185.580532 46.330451 
L 185.588738 50.482451 
L 185.621517 96.556945 
L 185.654231 46.556228 
L 185.69503 51.815514 
L 185.776323 46.070278 
L 185.727596 73.919995 
L 185.78443 50.996327 
L 185.841066 75.878918 
L 185.808727 48.188762 
L 185.897505 55.956758 
L 185.937698 45.018755 
L 185.961767 84.399002 
L 186.009797 55.121266 
L 186.105434 46.483698 
L 186.121319 78.653206 
L 186.145117 47.900384 
L 186.239963 50.0911 
L 186.349921 45.591471 
L 186.263588 61.847098 
L 186.357747 46.030173 
L 186.365568 45.760645 
L 186.420217 78.624882 
L 186.49021 67.051494 
L 186.57535 46.541527 
L 186.583068 55.340716 
L 186.590782 99.081394 
L 186.613902 46.085413 
L 186.690735 52.615981 
L 186.713714 46.25339 
L 186.706057 55.226927 
L 186.721366 48.973976 
L 186.729015 113.924855 
L 186.828123 48.668047 
L 186.858497 65.395716 
L 186.866081 46.437325 
L 186.949278 59.064948 
L 187.032051 47.431817 
L 186.994479 68.82786 
L 187.062046 51.537432 
L 187.069536 49.666399 
L 187.106935 63.727171 
L 187.114404 54.275496 
L 187.12187 68.572431 
L 187.218617 51.723057 
L 187.24827 64.048612 
L 187.277869 48.060206 
L 187.28526 53.086798 
L 187.292648 84.758664 
L 187.381041 46.17238 
L 187.395727 57.721341 
L 187.439704 46.369762 
L 187.505448 77.932583 
L 187.520021 45.592773 
L 187.585441 78.109064 
L 187.614432 52.835613 
L 187.643372 66.451723 
L 187.686685 46.399036 
L 187.722691 56.341605 
L 187.772965 46.450604 
L 187.751438 66.1785 
L 187.823085 47.905418 
L 187.937066 73.057399 
L 187.951258 45.9322 
L 187.986683 94.552144 
L 188.050253 48.219034 
L 188.106552 65.430363 
L 188.155654 63.967698 
L 188.169656 47.298465 
L 188.246452 67.875131 
L 188.267334 55.919469 
L 188.309016 95.300251 
L 188.357511 49.325973 
L 188.37134 65.065263 
L 188.405861 45.145125 
L 188.419649 73.917847 
L 188.474685 53.225231 
L 188.55689 48.717093 
L 188.591019 74.610371 
L 188.611463 46.724654 
L 188.706526 46.751857 
L 188.801037 75.31808 
L 188.827939 51.120549 
L 188.834658 51.118965 
L 188.848087 88.754799 
L 188.94178 45.831395 
L 189.0482 73.229773 
L 189.068076 61.954916 
L 189.167094 47.051689 
L 189.101149 91.942215 
L 189.180251 50.434636 
L 189.285125 86.876582 
L 189.245877 48.26671 
L 189.304714 59.730295 
L 189.363338 47.621694 
L 189.40879 69.261364 
L 189.421752 48.084538 
L 189.479957 75.496568 
L 189.537954 49.081158 
L 189.55724 60.316898 
L 189.576503 58.371311 
L 189.672479 85.903694 
L 189.653329 48.315539 
L 189.685233 67.488862 
L 189.755202 49.337127 
L 189.767891 69.04712 
L 189.786907 54.762772 
L 189.831189 81.924372 
L 189.8059 50.972214 
L 189.900534 80.797615 
L 189.988364 49.71593 
L 189.925676 96.314257 
L 190.013371 68.268252 
L 190.063271 48.626978 
L 190.032101 83.087558 
L 190.12543 58.717684 
L 190.162612 72.147657 
L 190.144032 49.86652 
L 190.230559 51.488212 
L 190.304359 84.883158 
L 190.255196 48.125975 
L 190.341134 61.273171 
L 190.450962 47.883679 
L 190.371717 66.367567 
L 190.457042 50.226831 
L 190.505599 72.427645 
L 190.517716 47.992197 
L 190.572129 55.61794 
L 190.650405 51.648514 
L 190.62636 75.003623 
L 190.656411 59.293588 
L 190.704376 74.65674 
L 190.674414 52.166633 
L 190.764134 65.322483 
L 190.871148 49.310102 
L 190.847428 78.688931 
L 190.882995 51.22519 
L 190.90075 79.754902 
L 190.930297 48.581041 
L 191.000993 54.060352 
L 191.04209 88.104117 
L 191.112302 56.172403 
L 191.158941 49.883314 
L 191.193834 61.875404 
L 191.217053 52.726959 
L 191.315369 81.850104 
L 191.338416 75.372326 
L 191.367179 49.114698 
L 191.453162 52.133795 
L 191.504535 67.404255 
L 191.515929 48.642324 
L 191.561426 52.296699 
L 191.567104 52.55859 
L 191.57278 52.020012 
L 191.601131 76.617149 
L 191.674613 52.011658 
L 191.680251 61.246112 
L 191.742148 50.965689 
L 191.758988 82.041305 
L 191.792616 54.684668 
L 191.826175 82.011839 
L 191.881952 49.467228 
L 191.904209 62.622826 
L 191.909769 51.025375 
L 191.998464 85.887711 
L 192.01504 52.173531 
L 192.026082 80.868925 
L 192.053653 49.912817 
L 192.125121 59.576826 
L 192.141569 50.33141 
L 192.179882 59.711572 
L 192.185348 54.402903 
L 192.190812 85.253225 
L 192.207194 50.304263 
L 192.294284 53.03366 
L 192.326823 48.841794 
L 192.343068 70.555396 
L 192.445577 84.976189 
L 192.429435 50.303117 
L 192.450955 69.685522 
L 192.461704 71.460335 
L 192.558129 50.368991 
L 192.547444 76.366644 
L 192.57948 51.557019 
L 192.584813 51.700827 
L 192.691111 73.984633 
L 192.680512 50.804148 
L 192.696408 58.394623 
L 192.786188 51.052895 
L 192.722865 78.461528 
L 192.791454 52.693726 
L 192.885947 49.79678 
L 192.906871 74.264482 
L 192.932988 52.589694 
L 192.974688 76.295068 
L 193.026664 57.388712 
L 193.031852 82.568338 
L 193.0733 53.366514 
L 193.135274 74.214514 
L 193.191876 52.96434 
L 193.248282 55.485215 
L 193.324884 101.262292 
L 193.294287 49.797876 
L 193.365592 66.061983 
L 193.461865 51.425335 
L 193.406198 95.334732 
L 193.477014 51.459781 
L 193.542497 81.256143 
L 193.59269 59.526115 
L 193.68763 52.066105 
L 193.632732 73.005719 
L 193.707547 53.090297 
L 193.796872 80.461546 
L 193.732409 52.214742 
L 193.816656 58.540718 
L 193.870937 52.305145 
L 193.836415 87.621328 
L 193.89555 55.965181 
L 193.99852 78.823946 
L 193.93976 52.242651 
L 194.003407 53.888152 
L 194.008293 51.832909 
L 194.022941 76.798428 
L 194.052198 58.858507 
L 194.076538 94.118228 
L 194.091125 53.607983 
L 194.159023 54.060292 
L 194.207349 72.52783 
L 194.192866 50.402432 
L 194.226639 68.495241 
L 194.327538 85.497512 
L 194.255531 52.852155 
L 194.332327 66.250204 
L 194.361032 51.868424 
L 194.375366 84.319044 
L 194.442089 56.256652 
L 194.546389 86.305625 
L 194.475348 51.994566 
L 194.555837 78.686952 
L 194.58415 52.724322 
L 194.664104 58.793218 
L 194.696912 83.553082 
L 194.738996 54.65778 
L 194.776313 77.738435 
L 194.79494 53.983208 
L 194.846053 85.751856 
L 194.887753 59.427393 
L 194.98464 87.342172 
L 194.906252 51.461064 
L 194.998434 74.430124 
L 195.007623 52.466237 
L 195.058072 94.93036 
L 195.112929 56.402391 
L 195.117492 56.444024 
L 195.135732 53.714725 
L 195.126615 73.19373 
L 195.153951 55.702333 
L 195.158502 82.724376 
L 195.176696 53.664566 
L 195.262838 56.506455 
L 195.32602 51.413362 
L 195.280915 73.988074 
L 195.375491 55.166931 
L 195.460588 76.815692 
L 195.411376 53.438521 
L 195.482908 55.561756 
L 195.491828 53.446718 
L 195.527456 71.016374 
L 195.531904 82.883877 
L 195.571883 52.454185 
L 195.629456 56.385655 
L 195.700036 51.620194 
L 195.651545 92.098437 
L 195.726425 64.194264 
L 195.752771 82.093069 
L 195.787833 52.568631 
L 195.831553 57.118969 
L 195.918644 82.161305 
L 195.90561 53.058541 
L 195.940343 59.22322 
L 195.957682 53.025997 
L 195.987981 71.344224 
L 196.035479 56.846858 
L 196.07854 72.800214 
L 196.125774 52.20203 
L 196.142917 54.624992 
L 196.241135 123.65481 
L 196.177147 53.449253 
L 196.249648 54.870763 
L 196.253902 52.543683 
L 196.313351 79.100129 
L 196.330297 57.437332 
L 196.338763 80.11421 
L 196.418972 53.045916 
L 196.440014 54.014633 
L 196.544817 83.139999 
L 196.473624 53.72486 
L 196.553172 59.860324 
L 196.624017 52.619466 
L 196.594883 80.512408 
L 196.644795 66.559391 
L 196.735904 86.838546 
L 196.70697 54.268457 
L 196.752415 57.019977 
L 196.760664 96.826399 
L 196.826506 52.73265 
L 196.859327 57.202998 
L 196.883899 54.539313 
L 196.892081 68.367169 
L 196.91252 59.760829 
L 196.949244 78.744261 
L 196.985885 54.823896 
L 197.026501 75.330024 
L 197.131629 53.368382 
L 197.119534 80.486716 
L 197.135659 56.415584 
L 197.204014 83.915104 
L 197.212037 54.111562 
L 197.244089 58.506819 
L 197.351799 86.715636 
L 197.256092 53.401683 
L 197.355775 59.783855 
L 197.399442 53.574342 
L 197.427169 86.154268 
L 197.45485 59.189531 
L 197.514006 79.839988 
L 197.478538 53.527038 
L 197.565101 72.060976 
L 197.6473 53.301123 
L 197.576869 89.456295 
L 197.674608 58.456828 
L 197.77951 80.382485 
L 197.729086 55.496451 
L 197.783383 72.508139 
L 197.860635 54.960358 
L 197.845214 91.030518 
L 197.895279 66.118032 
L 197.914494 55.211283 
L 197.937522 74.068773 
L 197.949023 58.807243 
L 198.021679 92.945628 
L 197.99877 54.443701 
L 198.059788 92.440341 
L 198.150888 55.339447 
L 198.090212 93.018789 
L 198.173583 68.665035 
L 198.192472 55.186455 
L 198.226416 99.240269 
L 198.279077 59.097036 
L 198.282832 93.690929 
L 198.305344 57.507868 
L 198.391352 76.940253 
L 198.499151 55.961755 
L 198.447199 87.876712 
L 198.502855 56.595415 
L 198.587826 100.246943 
L 198.521365 54.655745 
L 198.617277 74.970591 
L 198.697993 103.518376 
L 198.730898 54.321635 
L 198.760091 99.965189 
L 198.774668 54.104515 
L 198.847357 60.76311 
L 198.948578 54.226313 
L 198.865478 91.89858 
L 198.952181 57.249892 
L 198.970186 89.202168 
L 199.059913 55.946512 
L 199.067069 78.15092 
L 199.163378 55.904679 
L 199.145586 94.159446 
L 199.181151 56.356066 
L 199.191805 65.002193 
L 199.297964 83.34888 
L 199.290908 55.254547 
L 199.301491 67.657762 
L 199.326156 55.703535 
L 199.343752 91.220217 
L 199.413943 62.382804 
L 199.459405 85.300325 
L 199.448925 55.292402 
L 199.515185 70.273853 
L 199.522144 54.881584 
L 199.619258 89.636043 
L 199.629629 57.689742 
L 199.643446 83.747759 
L 199.660701 56.343739 
L 199.746703 61.702032 
L 199.750134 61.720608 
L 199.82201 55.935752 
L 199.767276 91.090024 
L 199.856125 62.343533 
L 199.9682 82.478641 
L 199.944491 56.29134 
L 199.971584 74.145271 
L 200.042489 55.967772 
L 200.00201 81.004296 
L 200.082868 62.1088 
L 200.13655 100.811032 
L 200.15998 56.053567 
L 200.193394 60.637843 
L 200.276628 86.974038 
L 200.299857 56.5659 
L 200.303173 61.707136 
L 200.346217 56.742048 
L 200.37925 79.588428 
L 200.405628 70.731798 
L 200.445114 93.196753 
L 200.458255 56.200723 
L 200.513986 73.294772 
L 200.523801 76.909234 
L 200.624878 56.520484 
L 200.667078 85.090695 
L 200.637874 56.382864 
L 200.735017 58.253268 
L 200.738246 55.800909 
L 200.754377 81.122669 
L 200.828373 62.867023 
L 200.831583 97.342967 
L 200.927578 57.560551 
L 200.937146 59.831196 
L 200.997615 112.075477 
L 200.95945 55.449703 
L 201.045195 56.442252 
L 201.073677 90.508721 
L 201.13364 56.02244 
L 201.165112 66.744013 
L 201.224739 56.71964 
L 201.237265 87.813646 
L 201.265412 62.877405 
L 201.36199 92.684903 
L 201.299747 57.471395 
L 201.37441 80.944051 
L 201.457998 55.772229 
L 201.467259 88.510132 
L 201.488847 60.21993 
L 201.519638 57.149758 
L 201.507329 82.675331 
L 201.562648 61.280715 
L 201.614721 84.99294 
L 201.581046 56.216511 
L 201.672724 61.842623 
L 201.703169 104.097091 
L 201.779032 56.872101 
L 201.794162 81.747527 
L 201.872613 101.274523 
L 201.911697 56.862681 
L 201.983605 79.551117 
L 202.037328 61.878747 
L 202.043286 57.076551 
L 202.096813 110.451956 
L 202.129437 59.699397 
L 202.132399 92.083229 
L 202.212185 56.23838 
L 202.241636 84.729762 
L 202.244578 58.325563 
L 202.271034 95.747105 
L 202.353066 62.276321 
L 202.446312 94.502862 
L 202.388096 57.177464 
L 202.463736 62.607853 
L 202.495632 94.946412 
L 202.556351 57.384379 
L 202.567891 59.60363 
L 202.573658 57.270934 
L 202.579423 87.566678 
L 202.654179 77.802952 
L 202.657048 115.677008 
L 202.731449 57.140775 
L 202.762824 60.677244 
L 202.796982 101.366221 
L 202.819714 58.906877 
L 202.873576 65.196872 
L 202.904678 57.646178 
L 202.935721 86.581421 
L 202.983579 66.662594 
L 202.99482 61.120234 
L 202.997629 63.399216 
L 203.092842 108.485726 
L 203.101217 57.791522 
L 203.106797 63.25189 
L 203.109587 57.854468 
L 203.115164 91.176776 
L 203.212466 66.251311 
L 203.278851 105.968094 
L 203.218008 59.03821 
L 203.320204 62.176065 
L 203.386152 57.666921 
L 203.328463 84.385874 
L 203.424498 63.382419 
L 203.500919 87.216586 
L 203.457294 57.731186 
L 203.533562 81.216507 
L 203.604063 93.933064 
L 203.647296 57.976301 
L 203.76024 92.830094 
L 203.778987 63.030945 
L 203.781664 63.396473 
L 203.829765 123.386728 
L 203.885704 58.217775 
L 203.891022 58.894363 
L 203.941451 101.546497 
L 203.930848 58.17118 
L 204.002289 61.570173 
L 204.004929 61.018377 
L 204.023397 99.583926 
L 204.044477 58.678353 
L 204.115421 61.511126 
L 204.222562 85.113136 
L 204.20432 58.471369 
L 204.23558 65.096659 
L 204.334176 59.197317 
L 204.245987 89.553636 
L 204.336762 62.879866 
L 204.445027 93.172439 
L 204.349689 58.615558 
L 204.447596 68.905268 
L 204.460435 57.99695 
L 204.532145 106.562571 
L 204.56023 60.09668 
L 204.562781 59.178813 
L 204.580625 90.805464 
L 204.583173 92.061936 
L 204.588267 59.809017 
L 204.628962 62.569173 
L 204.720154 58.435213 
L 204.65688 96.29493 
L 204.735303 61.211636 
L 204.763039 93.168328 
L 204.758 59.162063 
L 204.850978 76.769298 
L 204.923483 58.280888 
L 204.855989 100.336578 
L 204.963348 60.844004 
L 205.040308 98.617779 
L 204.973298 58.681455 
L 205.074945 69.880798 
L 205.09964 58.854892 
L 205.156298 108.674165 
L 205.175959 67.407715 
L 205.200501 99.897052 
L 205.273907 59.76418 
L 205.28611 74.753757 
L 205.363987 58.351726 
L 205.322661 100.705688 
L 205.397941 63.750193 
L 205.460812 102.572652 
L 205.506602 59.817022 
L 205.56186 104.224743 
L 205.581036 59.403839 
L 205.628878 86.233101 
L 205.702755 59.941936 
L 205.743127 60.606826 
L 205.745498 59.572378 
L 205.75024 99.595823 
L 205.752611 69.312837 
L 205.754981 105.169814 
L 205.842439 61.448543 
L 205.861287 64.553162 
L 205.863642 64.430115 
L 205.922393 96.170804 
L 205.950518 59.587621 
L 205.973918 76.190632 
L 206.034602 60.236626 
L 206.060208 94.924006 
L 206.090418 66.811964 
L 206.115936 98.686874 
L 206.183019 59.455722 
L 206.19917 65.358176 
L 206.247528 102.256724 
L 206.213001 59.765498 
L 206.300326 73.403565 
L 206.33238 59.388359 
L 206.391742 91.550677 
L 206.409963 73.124248 
L 206.512081 94.99684 
L 206.503029 60.498427 
L 206.516604 61.506118 
L 206.518866 61.356444 
L 206.525648 66.340865 
L 206.527908 65.787668 
L 206.631534 104.916147 
L 206.615808 59.862859 
L 206.642758 84.761201 
L 206.703235 60.112179 
L 206.736735 94.47187 
L 206.754574 70.508041 
L 206.79464 59.900399 
L 206.830171 98.992001 
L 206.863412 66.511067 
L 206.949519 108.934528 
L 206.920867 60.370618 
L 206.973724 74.014606 
L 207.032982 109.929359 
L 207.04831 60.461471 
L 207.063624 74.088205 
L 207.085475 60.02664 
L 207.168244 85.908499 
L 207.172589 62.551972 
L 207.27867 91.751798 
L 207.202969 60.999932 
L 207.282985 84.769258 
L 207.381919 60.771415 
L 207.313159 90.755706 
L 207.392636 65.114019 
L 207.454658 93.795524 
L 207.399063 61.628347 
L 207.501552 64.595901 
L 207.512191 62.708984 
L 207.507936 74.919867 
L 207.518571 72.226728 
L 207.520697 98.857965 
L 207.539819 60.852861 
L 207.62876 93.519663 
L 207.664622 61.275919 
L 207.742402 67.080478 
L 207.773829 60.613967 
L 207.809372 99.465094 
L 207.849005 64.078783 
L 207.956983 98.666345 
L 207.888542 60.642866 
L 207.959052 63.527697 
L 207.96319 71.070935 
L 207.967328 65.860536 
L 208.00245 91.788011 
L 208.056021 60.908655 
L 208.076579 63.797369 
L 208.134001 104.441397 
L 208.181018 61.178857 
L 208.19734 68.370247 
L 208.231969 60.74395 
L 208.24824 99.508307 
L 208.301008 80.630484 
L 208.397977 95.445956 
L 208.379839 60.683101 
L 208.410057 74.441493 
L 208.482352 60.851245 
L 208.446245 99.729146 
L 208.520379 64.500328 
L 208.616051 108.811263 
L 208.546346 61.404051 
L 208.629956 70.01951 
L 208.645833 62.666457 
L 208.637897 86.365704 
L 208.651783 62.878727 
" style="fill:none;stroke:#000000;stroke-linecap:square;stroke-width:0.8;"/>
   </g>
   <g id="line2d_52">
    <path clip-path="url(#p040ada1df2)" d="M 62.296013 30.772971 
L 116.418602 30.882597 
L 125.836175 31.115559 
L 131.982845 31.479541 
L 136.599737 31.965827 
L 140.588362 32.608323 
L 144.107594 33.397769 
L 147.433921 34.367681 
L 150.763431 35.570262 
L 154.218892 37.058055 
L 157.989732 38.930984 
L 162.299373 41.329367 
L 167.571586 44.530144 
L 174.703478 49.138487 
L 186.200511 56.86431 
L 208.653766 72.212911 
L 208.653766 72.212911 
" style="fill:none;stroke:#ff0000;stroke-linecap:square;stroke-width:2;"/>
   </g>
   <g id="patch_3">
    <path d="M 54.978125 128.92249 
L 54.978125 13.033517 
" style="fill:none;stroke:#000000;stroke-linecap:square;stroke-linejoin:miter;stroke-width:0.8;"/>
   </g>
   <g id="patch_4">
    <path d="M 215.971654 128.92249 
L 215.971654 13.033517 
" style="fill:none;stroke:#000000;stroke-linecap:square;stroke-linejoin:miter;stroke-width:0.8;"/>
   </g>
   <g id="patch_5">
    <path d="M 54.978125 128.92249 
L 215.971654 128.92249 
" style="fill:none;stroke:#000000;stroke-linecap:square;stroke-linejoin:miter;stroke-width:0.8;"/>
   </g>
   <g id="patch_6">
    <path d="M 54.978125 13.033517 
L 215.971654 13.033517 
" style="fill:none;stroke:#000000;stroke-linecap:square;stroke-linejoin:miter;stroke-width:0.8;"/>
   </g>
   <g id="legend_1">
    <g id="patch_7">
     <path d="M 61.978125 123.92249 
L 143.371875 123.92249 
Q 145.371875 123.92249 145.371875 121.92249 
L 145.371875 93.56624 
Q 145.371875 91.56624 143.371875 91.56624 
L 61.978125 91.56624 
Q 59.978125 91.56624 59.978125 93.56624 
L 59.978125 121.92249 
Q 59.978125 123.92249 61.978125 123.92249 
z
" style="fill:#ffffff;opacity:0.8;stroke:#cccccc;stroke-linejoin:miter;"/>
    </g>
    <g id="line2d_53">
     <path d="M 63.978125 99.664678 
L 83.978125 99.664678 
" style="fill:none;stroke:#000000;stroke-linecap:square;stroke-width:0.8;"/>
    </g>
    <g id="line2d_54"/>
    <g id="text_11">
     <!-- simulated -->
     <defs>
      <path d="M 9.421875 54.6875 
L 18.40625 54.6875 
L 18.40625 0 
L 9.421875 0 
z
M 9.421875 75.984375 
L 18.40625 75.984375 
L 18.40625 64.59375 
L 9.421875 64.59375 
z
" id="DejaVuSans-105"/>
      <path d="M 8.5 21.578125 
L 8.5 54.6875 
L 17.484375 54.6875 
L 17.484375 21.921875 
Q 17.484375 14.15625 20.5 10.265625 
Q 23.53125 6.390625 29.59375 6.390625 
Q 36.859375 6.390625 41.078125 11.03125 
Q 45.3125 15.671875 45.3125 23.6875 
L 45.3125 54.6875 
L 54.296875 54.6875 
L 54.296875 0 
L 45.3125 0 
L 45.3125 8.40625 
Q 42.046875 3.421875 37.71875 1 
Q 33.40625 -1.421875 27.6875 -1.421875 
Q 18.265625 -1.421875 13.375 4.4375 
Q 8.5 10.296875 8.5 21.578125 
z
M 31.109375 56 
z
" id="DejaVuSans-117"/>
      <path d="M 9.421875 75.984375 
L 18.40625 75.984375 
L 18.40625 0 
L 9.421875 0 
z
" id="DejaVuSans-108"/>
      <path d="M 34.28125 27.484375 
Q 23.390625 27.484375 19.1875 25 
Q 14.984375 22.515625 14.984375 16.5 
Q 14.984375 11.71875 18.140625 8.90625 
Q 21.296875 6.109375 26.703125 6.109375 
Q 34.1875 6.109375 38.703125 11.40625 
Q 43.21875 16.703125 43.21875 25.484375 
L 43.21875 27.484375 
z
M 52.203125 31.203125 
L 52.203125 0 
L 43.21875 0 
L 43.21875 8.296875 
Q 40.140625 3.328125 35.546875 0.953125 
Q 30.953125 -1.421875 24.3125 -1.421875 
Q 15.921875 -1.421875 10.953125 3.296875 
Q 6 8.015625 6 15.921875 
Q 6 25.140625 12.171875 29.828125 
Q 18.359375 34.515625 30.609375 34.515625 
L 43.21875 34.515625 
L 43.21875 35.40625 
Q 43.21875 41.609375 39.140625 45 
Q 35.0625 48.390625 27.6875 48.390625 
Q 23 48.390625 18.546875 47.265625 
Q 14.109375 46.140625 10.015625 43.890625 
L 10.015625 52.203125 
Q 14.9375 54.109375 19.578125 55.046875 
Q 24.21875 56 28.609375 56 
Q 40.484375 56 46.34375 49.84375 
Q 52.203125 43.703125 52.203125 31.203125 
z
" id="DejaVuSans-97"/>
      <path d="M 18.3125 70.21875 
L 18.3125 54.6875 
L 36.8125 54.6875 
L 36.8125 47.703125 
L 18.3125 47.703125 
L 18.3125 18.015625 
Q 18.3125 11.328125 20.140625 9.421875 
Q 21.96875 7.515625 27.59375 7.515625 
L 36.8125 7.515625 
L 36.8125 0 
L 27.59375 0 
Q 17.1875 0 13.234375 3.875 
Q 9.28125 7.765625 9.28125 18.015625 
L 9.28125 47.703125 
L 2.6875 47.703125 
L 2.6875 54.6875 
L 9.28125 54.6875 
L 9.28125 70.21875 
z
" id="DejaVuSans-116"/>
      <path d="M 56.203125 29.59375 
L 56.203125 25.203125 
L 14.890625 25.203125 
Q 15.484375 15.921875 20.484375 11.0625 
Q 25.484375 6.203125 34.421875 6.203125 
Q 39.59375 6.203125 44.453125 7.46875 
Q 49.3125 8.734375 54.109375 11.28125 
L 54.109375 2.78125 
Q 49.265625 0.734375 44.1875 -0.34375 
Q 39.109375 -1.421875 33.890625 -1.421875 
Q 20.796875 -1.421875 13.15625 6.1875 
Q 5.515625 13.8125 5.515625 26.8125 
Q 5.515625 40.234375 12.765625 48.109375 
Q 20.015625 56 32.328125 56 
Q 43.359375 56 49.78125 48.890625 
Q 56.203125 41.796875 56.203125 29.59375 
z
M 47.21875 32.234375 
Q 47.125 39.59375 43.09375 43.984375 
Q 39.0625 48.390625 32.421875 48.390625 
Q 24.90625 48.390625 20.390625 44.140625 
Q 15.875 39.890625 15.1875 32.171875 
z
" id="DejaVuSans-101"/>
      <path d="M 45.40625 46.390625 
L 45.40625 75.984375 
L 54.390625 75.984375 
L 54.390625 0 
L 45.40625 0 
L 45.40625 8.203125 
Q 42.578125 3.328125 38.25 0.953125 
Q 33.9375 -1.421875 27.875 -1.421875 
Q 17.96875 -1.421875 11.734375 6.484375 
Q 5.515625 14.40625 5.515625 27.296875 
Q 5.515625 40.1875 11.734375 48.09375 
Q 17.96875 56 27.875 56 
Q 33.9375 56 38.25 53.625 
Q 42.578125 51.265625 45.40625 46.390625 
z
M 14.796875 27.296875 
Q 14.796875 17.390625 18.875 11.75 
Q 22.953125 6.109375 30.078125 6.109375 
Q 37.203125 6.109375 41.296875 11.75 
Q 45.40625 17.390625 45.40625 27.296875 
Q 45.40625 37.203125 41.296875 42.84375 
Q 37.203125 48.484375 30.078125 48.484375 
Q 22.953125 48.484375 18.875 42.84375 
Q 14.796875 37.203125 14.796875 27.296875 
z
" id="DejaVuSans-100"/>
     </defs>
     <g transform="translate(91.978125 103.164678)scale(0.1 -0.1)">
      <use xlink:href="#DejaVuSans-115"/>
      <use x="52.099609" xlink:href="#DejaVuSans-105"/>
      <use x="79.882812" xlink:href="#DejaVuSans-109"/>
      <use x="177.294922" xlink:href="#DejaVuSans-117"/>
      <use x="240.673828" xlink:href="#DejaVuSans-108"/>
      <use x="268.457031" xlink:href="#DejaVuSans-97"/>
      <use x="329.736328" xlink:href="#DejaVuSans-116"/>
      <use x="368.945312" xlink:href="#DejaVuSans-101"/>
      <use x="430.46875" xlink:href="#DejaVuSans-100"/>
     </g>
    </g>
    <g id="line2d_55">
     <path d="M 63.978125 114.342803 
L 83.978125 114.342803 
" style="fill:none;stroke:#ff0000;stroke-linecap:square;stroke-width:2;"/>
    </g>
    <g id="line2d_56"/>
    <g id="text_12">
     <!-- target -->
     <defs>
      <path d="M 41.109375 46.296875 
Q 39.59375 47.171875 37.8125 47.578125 
Q 36.03125 48 33.890625 48 
Q 26.265625 48 22.1875 43.046875 
Q 18.109375 38.09375 18.109375 28.8125 
L 18.109375 0 
L 9.078125 0 
L 9.078125 54.6875 
L 18.109375 54.6875 
L 18.109375 46.1875 
Q 20.953125 51.171875 25.484375 53.578125 
Q 30.03125 56 36.53125 56 
Q 37.453125 56 38.578125 55.875 
Q 39.703125 55.765625 41.0625 55.515625 
z
" id="DejaVuSans-114"/>
      <path d="M 45.40625 27.984375 
Q 45.40625 37.75 41.375 43.109375 
Q 37.359375 48.484375 30.078125 48.484375 
Q 22.859375 48.484375 18.828125 43.109375 
Q 14.796875 37.75 14.796875 27.984375 
Q 14.796875 18.265625 18.828125 12.890625 
Q 22.859375 7.515625 30.078125 7.515625 
Q 37.359375 7.515625 41.375 12.890625 
Q 45.40625 18.265625 45.40625 27.984375 
z
M 54.390625 6.78125 
Q 54.390625 -7.171875 48.1875 -13.984375 
Q 42 -20.796875 29.203125 -20.796875 
Q 24.46875 -20.796875 20.265625 -20.09375 
Q 16.0625 -19.390625 12.109375 -17.921875 
L 12.109375 -9.1875 
Q 16.0625 -11.328125 19.921875 -12.34375 
Q 23.78125 -13.375 27.78125 -13.375 
Q 36.625 -13.375 41.015625 -8.765625 
Q 45.40625 -4.15625 45.40625 5.171875 
L 45.40625 9.625 
Q 42.625 4.78125 38.28125 2.390625 
Q 33.9375 0 27.875 0 
Q 17.828125 0 11.671875 7.65625 
Q 5.515625 15.328125 5.515625 27.984375 
Q 5.515625 40.671875 11.671875 48.328125 
Q 17.828125 56 27.875 56 
Q 33.9375 56 38.28125 53.609375 
Q 42.625 51.21875 45.40625 46.390625 
L 45.40625 54.6875 
L 54.390625 54.6875 
z
" id="DejaVuSans-103"/>
     </defs>
     <g transform="translate(91.978125 117.842803)scale(0.1 -0.1)">
      <use xlink:href="#DejaVuSans-116"/>
      <use x="39.208984" xlink:href="#DejaVuSans-97"/>
      <use x="100.488281" xlink:href="#DejaVuSans-114"/>
      <use x="141.585938" xlink:href="#DejaVuSans-103"/>
      <use x="205.0625" xlink:href="#DejaVuSans-101"/>
      <use x="266.585938" xlink:href="#DejaVuSans-116"/>
     </g>
    </g>
   </g>
  </g>
 </g>
 <defs>
  <clipPath id="p040ada1df2">
   <rect height="115.888973" width="160.993529" x="54.978125" y="13.033517"/>
  </clipPath>
 </defs>
</svg>
