<?xml version="1.0" encoding="utf-8" standalone="no"?>
<!DOCTYPE svg PUBLIC "-//W3C//DTD SVG 1.1//EN"
  "http://www.w3.org/Graphics/SVG/1.1/DTD/svg11.dtd">
<!-- Created with matplotlib (https://matplotlib.org/) -->
<svg height="170.07874pt" version="1.1" viewBox="0 0 226.771654 170.07874" width="226.771654pt" xmlns="http://www.w3.org/2000/svg" xmlns:xlink="http://www.w3.org/1999/xlink">
 <defs>
  <style type="text/css">
*{stroke-linecap:butt;stroke-linejoin:round;}
  </style>
 </defs>
 <g id="figure_1">
  <g id="patch_1">
   <path d="M 0 170.07874 
L 226.771654 170.07874 
L 226.771654 0 
L 0 0 
z
" style="fill:#ffffff;"/>
  </g>
  <g id="axes_1">
   <g id="patch_2">
    <path d="M 44.203125 128.92249 
L 214.349824 128.92249 
L 214.349824 10.8 
L 44.203125 10.8 
z
" style="fill:#ffffff;"/>
   </g>
   <g id="matplotlib.axis_1">
    <g id="xtick_1">
     <g id="line2d_1">
      <path clip-path="url(#p840ca57d00)" d="M 51.872563 128.92249 
L 51.872563 10.8 
" style="fill:none;stroke:#b0b0b0;stroke-linecap:square;stroke-width:0.8;"/>
     </g>
     <g id="line2d_2">
      <defs>
       <path d="M 0 0 
L 0 3.5 
" id="m9c953925e0" style="stroke:#000000;stroke-width:0.8;"/>
      </defs>
      <g>
       <use style="stroke:#000000;stroke-width:0.8;" x="51.872563" xlink:href="#m9c953925e0" y="128.92249"/>
      </g>
     </g>
     <g id="text_1">
      <!-- −100 -->
      <defs>
       <path d="M 10.59375 35.5 
L 73.1875 35.5 
L 73.1875 27.203125 
L 10.59375 27.203125 
z
" id="DejaVuSans-8722"/>
       <path d="M 12.40625 8.296875 
L 28.515625 8.296875 
L 28.515625 63.921875 
L 10.984375 60.40625 
L 10.984375 69.390625 
L 28.421875 72.90625 
L 38.28125 72.90625 
L 38.28125 8.296875 
L 54.390625 8.296875 
L 54.390625 0 
L 12.40625 0 
z
" id="DejaVuSans-49"/>
       <path d="M 31.78125 66.40625 
Q 24.171875 66.40625 20.328125 58.90625 
Q 16.5 51.421875 16.5 36.375 
Q 16.5 21.390625 20.328125 13.890625 
Q 24.171875 6.390625 31.78125 6.390625 
Q 39.453125 6.390625 43.28125 13.890625 
Q 47.125 21.390625 47.125 36.375 
Q 47.125 51.421875 43.28125 58.90625 
Q 39.453125 66.40625 31.78125 66.40625 
z
M 31.78125 74.21875 
Q 44.046875 74.21875 50.515625 64.515625 
Q 56.984375 54.828125 56.984375 36.375 
Q 56.984375 17.96875 50.515625 8.265625 
Q 44.046875 -1.421875 31.78125 -1.421875 
Q 19.53125 -1.421875 13.0625 8.265625 
Q 6.59375 17.96875 6.59375 36.375 
Q 6.59375 54.828125 13.0625 64.515625 
Q 19.53125 74.21875 31.78125 74.21875 
z
" id="DejaVuSans-48"/>
      </defs>
      <g transform="translate(38.138969 143.520928)scale(0.1 -0.1)">
       <use xlink:href="#DejaVuSans-8722"/>
       <use x="83.789062" xlink:href="#DejaVuSans-49"/>
       <use x="147.412109" xlink:href="#DejaVuSans-48"/>
       <use x="211.035156" xlink:href="#DejaVuSans-48"/>
      </g>
     </g>
    </g>
    <g id="xtick_2">
     <g id="line2d_3">
      <path clip-path="url(#p840ca57d00)" d="M 90.574518 128.92249 
L 90.574518 10.8 
" style="fill:none;stroke:#b0b0b0;stroke-linecap:square;stroke-width:0.8;"/>
     </g>
     <g id="line2d_4">
      <g>
       <use style="stroke:#000000;stroke-width:0.8;" x="90.574518" xlink:href="#m9c953925e0" y="128.92249"/>
      </g>
     </g>
     <g id="text_2">
      <!-- −50 -->
      <defs>
       <path d="M 10.796875 72.90625 
L 49.515625 72.90625 
L 49.515625 64.59375 
L 19.828125 64.59375 
L 19.828125 46.734375 
Q 21.96875 47.46875 24.109375 47.828125 
Q 26.265625 48.1875 28.421875 48.1875 
Q 40.625 48.1875 47.75 41.5 
Q 54.890625 34.8125 54.890625 23.390625 
Q 54.890625 11.625 47.5625 5.09375 
Q 40.234375 -1.421875 26.90625 -1.421875 
Q 22.3125 -1.421875 17.546875 -0.640625 
Q 12.796875 0.140625 7.71875 1.703125 
L 7.71875 11.625 
Q 12.109375 9.234375 16.796875 8.0625 
Q 21.484375 6.890625 26.703125 6.890625 
Q 35.15625 6.890625 40.078125 11.328125 
Q 45.015625 15.765625 45.015625 23.390625 
Q 45.015625 31 40.078125 35.4375 
Q 35.15625 39.890625 26.703125 39.890625 
Q 22.75 39.890625 18.8125 39.015625 
Q 14.890625 38.140625 10.796875 36.28125 
z
" id="DejaVuSans-53"/>
      </defs>
      <g transform="translate(80.022175 143.520928)scale(0.1 -0.1)">
       <use xlink:href="#DejaVuSans-8722"/>
       <use x="83.789062" xlink:href="#DejaVuSans-53"/>
       <use x="147.412109" xlink:href="#DejaVuSans-48"/>
      </g>
     </g>
    </g>
    <g id="xtick_3">
     <g id="line2d_5">
      <path clip-path="url(#p840ca57d00)" d="M 129.276474 128.92249 
L 129.276474 10.8 
" style="fill:none;stroke:#b0b0b0;stroke-linecap:square;stroke-width:0.8;"/>
     </g>
     <g id="line2d_6">
      <g>
       <use style="stroke:#000000;stroke-width:0.8;" x="129.276474" xlink:href="#m9c953925e0" y="128.92249"/>
      </g>
     </g>
     <g id="text_3">
      <!-- 0 -->
      <g transform="translate(126.095224 143.520928)scale(0.1 -0.1)">
       <use xlink:href="#DejaVuSans-48"/>
      </g>
     </g>
    </g>
    <g id="xtick_4">
     <g id="line2d_7">
      <path clip-path="url(#p840ca57d00)" d="M 167.97843 128.92249 
L 167.97843 10.8 
" style="fill:none;stroke:#b0b0b0;stroke-linecap:square;stroke-width:0.8;"/>
     </g>
     <g id="line2d_8">
      <g>
       <use style="stroke:#000000;stroke-width:0.8;" x="167.97843" xlink:href="#m9c953925e0" y="128.92249"/>
      </g>
     </g>
     <g id="text_4">
      <!-- 50 -->
      <g transform="translate(161.61593 143.520928)scale(0.1 -0.1)">
       <use xlink:href="#DejaVuSans-53"/>
       <use x="63.623047" xlink:href="#DejaVuSans-48"/>
      </g>
     </g>
    </g>
    <g id="xtick_5">
     <g id="line2d_9">
      <path clip-path="url(#p840ca57d00)" d="M 206.680386 128.92249 
L 206.680386 10.8 
" style="fill:none;stroke:#b0b0b0;stroke-linecap:square;stroke-width:0.8;"/>
     </g>
     <g id="line2d_10">
      <g>
       <use style="stroke:#000000;stroke-width:0.8;" x="206.680386" xlink:href="#m9c953925e0" y="128.92249"/>
      </g>
     </g>
     <g id="text_5">
      <!-- 100 -->
      <g transform="translate(197.136636 143.520928)scale(0.1 -0.1)">
       <use xlink:href="#DejaVuSans-49"/>
       <use x="63.623047" xlink:href="#DejaVuSans-48"/>
       <use x="127.246094" xlink:href="#DejaVuSans-48"/>
      </g>
     </g>
    </g>
    <g id="text_6">
     <!-- $\tau$ (s) -->
     <defs>
      <path d="M 32.859375 9.96875 
Q 34.1875 7.625 39.453125 7.625 
L 43.75 7.625 
L 42.28125 0 
L 36.921875 0 
Q 28.125 0 25 4.6875 
Q 21.921875 9.46875 23.96875 19.828125 
L 29 45.703125 
L 8.453125 45.703125 
L 10.203125 54.6875 
L 60.640625 54.6875 
L 58.890625 45.703125 
L 38.1875 45.703125 
L 33.015625 19.28125 
Q 31.640625 12.203125 32.859375 9.96875 
z
" id="DejaVuSans-Oblique-964"/>
      <path id="DejaVuSans-32"/>
      <path d="M 31 75.875 
Q 24.46875 64.65625 21.28125 53.65625 
Q 18.109375 42.671875 18.109375 31.390625 
Q 18.109375 20.125 21.3125 9.0625 
Q 24.515625 -2 31 -13.1875 
L 23.1875 -13.1875 
Q 15.875 -1.703125 12.234375 9.375 
Q 8.59375 20.453125 8.59375 31.390625 
Q 8.59375 42.28125 12.203125 53.3125 
Q 15.828125 64.359375 23.1875 75.875 
z
" id="DejaVuSans-40"/>
      <path d="M 44.28125 53.078125 
L 44.28125 44.578125 
Q 40.484375 46.53125 36.375 47.5 
Q 32.28125 48.484375 27.875 48.484375 
Q 21.1875 48.484375 17.84375 46.4375 
Q 14.5 44.390625 14.5 40.28125 
Q 14.5 37.15625 16.890625 35.375 
Q 19.28125 33.59375 26.515625 31.984375 
L 29.59375 31.296875 
Q 39.15625 29.25 43.1875 25.515625 
Q 47.21875 21.78125 47.21875 15.09375 
Q 47.21875 7.46875 41.1875 3.015625 
Q 35.15625 -1.421875 24.609375 -1.421875 
Q 20.21875 -1.421875 15.453125 -0.5625 
Q 10.6875 0.296875 5.421875 2 
L 5.421875 11.28125 
Q 10.40625 8.6875 15.234375 7.390625 
Q 20.0625 6.109375 24.8125 6.109375 
Q 31.15625 6.109375 34.5625 8.28125 
Q 37.984375 10.453125 37.984375 14.40625 
Q 37.984375 18.0625 35.515625 20.015625 
Q 33.0625 21.96875 24.703125 23.78125 
L 21.578125 24.515625 
Q 13.234375 26.265625 9.515625 29.90625 
Q 5.8125 33.546875 5.8125 39.890625 
Q 5.8125 47.609375 11.28125 51.796875 
Q 16.75 56 26.8125 56 
Q 31.78125 56 36.171875 55.265625 
Q 40.578125 54.546875 44.28125 53.078125 
z
" id="DejaVuSans-115"/>
      <path d="M 8.015625 75.875 
L 15.828125 75.875 
Q 23.140625 64.359375 26.78125 53.3125 
Q 30.421875 42.28125 30.421875 31.390625 
Q 30.421875 20.453125 26.78125 9.375 
Q 23.140625 -1.703125 15.828125 -13.1875 
L 8.015625 -13.1875 
Q 14.5 -2 17.703125 9.0625 
Q 20.90625 20.125 20.90625 31.390625 
Q 20.90625 42.671875 17.703125 53.65625 
Q 14.5 64.65625 8.015625 75.875 
z
" id="DejaVuSans-41"/>
     </defs>
     <g transform="translate(118.126474 157.199053)scale(0.1 -0.1)">
      <use transform="translate(0 0.125)" xlink:href="#DejaVuSans-Oblique-964"/>
      <use transform="translate(60.205078 0.125)" xlink:href="#DejaVuSans-32"/>
      <use transform="translate(91.992188 0.125)" xlink:href="#DejaVuSans-40"/>
      <use transform="translate(131.005859 0.125)" xlink:href="#DejaVuSans-115"/>
      <use transform="translate(183.105469 0.125)" xlink:href="#DejaVuSans-41"/>
     </g>
    </g>
   </g>
   <g id="matplotlib.axis_2">
    <g id="ytick_1">
     <g id="line2d_11">
      <path clip-path="url(#p840ca57d00)" d="M 44.203125 112.028418 
L 214.349824 112.028418 
" style="fill:none;stroke:#b0b0b0;stroke-linecap:square;stroke-width:0.8;"/>
     </g>
     <g id="line2d_12">
      <defs>
       <path d="M 0 0 
L -3.5 0 
" id="m28fa4df18a" style="stroke:#000000;stroke-width:0.8;"/>
      </defs>
      <g>
       <use style="stroke:#000000;stroke-width:0.8;" x="44.203125" xlink:href="#m28fa4df18a" y="112.028418"/>
      </g>
     </g>
     <g id="text_7">
      <!-- 0 -->
      <g transform="translate(30.840625 115.827637)scale(0.1 -0.1)">
       <use xlink:href="#DejaVuSans-48"/>
      </g>
     </g>
    </g>
    <g id="ytick_2">
     <g id="line2d_13">
      <path clip-path="url(#p840ca57d00)" d="M 44.203125 83.93597 
L 214.349824 83.93597 
" style="fill:none;stroke:#b0b0b0;stroke-linecap:square;stroke-width:0.8;"/>
     </g>
     <g id="line2d_14">
      <g>
       <use style="stroke:#000000;stroke-width:0.8;" x="44.203125" xlink:href="#m28fa4df18a" y="83.93597"/>
      </g>
     </g>
     <g id="text_8">
      <!-- 5 -->
      <g transform="translate(30.840625 87.735189)scale(0.1 -0.1)">
       <use xlink:href="#DejaVuSans-53"/>
      </g>
     </g>
    </g>
    <g id="ytick_3">
     <g id="line2d_15">
      <path clip-path="url(#p840ca57d00)" d="M 44.203125 55.843523 
L 214.349824 55.843523 
" style="fill:none;stroke:#b0b0b0;stroke-linecap:square;stroke-width:0.8;"/>
     </g>
     <g id="line2d_16">
      <g>
       <use style="stroke:#000000;stroke-width:0.8;" x="44.203125" xlink:href="#m28fa4df18a" y="55.843523"/>
      </g>
     </g>
     <g id="text_9">
      <!-- 10 -->
      <g transform="translate(24.478125 59.642741)scale(0.1 -0.1)">
       <use xlink:href="#DejaVuSans-49"/>
       <use x="63.623047" xlink:href="#DejaVuSans-48"/>
      </g>
     </g>
    </g>
    <g id="ytick_4">
     <g id="line2d_17">
      <path clip-path="url(#p840ca57d00)" d="M 44.203125 27.751075 
L 214.349824 27.751075 
" style="fill:none;stroke:#b0b0b0;stroke-linecap:square;stroke-width:0.8;"/>
     </g>
     <g id="line2d_18">
      <g>
       <use style="stroke:#000000;stroke-width:0.8;" x="44.203125" xlink:href="#m28fa4df18a" y="27.751075"/>
      </g>
     </g>
     <g id="text_10">
      <!-- 15 -->
      <g transform="translate(24.478125 31.550294)scale(0.1 -0.1)">
       <use xlink:href="#DejaVuSans-49"/>
       <use x="63.623047" xlink:href="#DejaVuSans-53"/>
      </g>
     </g>
    </g>
    <g id="text_11">
     <!-- correlation function -->
     <defs>
      <path d="M 48.78125 52.59375 
L 48.78125 44.1875 
Q 44.96875 46.296875 41.140625 47.34375 
Q 37.3125 48.390625 33.40625 48.390625 
Q 24.65625 48.390625 19.8125 42.84375 
Q 14.984375 37.3125 14.984375 27.296875 
Q 14.984375 17.28125 19.8125 11.734375 
Q 24.65625 6.203125 33.40625 6.203125 
Q 37.3125 6.203125 41.140625 7.25 
Q 44.96875 8.296875 48.78125 10.40625 
L 48.78125 2.09375 
Q 45.015625 0.34375 40.984375 -0.53125 
Q 36.96875 -1.421875 32.421875 -1.421875 
Q 20.0625 -1.421875 12.78125 6.34375 
Q 5.515625 14.109375 5.515625 27.296875 
Q 5.515625 40.671875 12.859375 48.328125 
Q 20.21875 56 33.015625 56 
Q 37.15625 56 41.109375 55.140625 
Q 45.0625 54.296875 48.78125 52.59375 
z
" id="DejaVuSans-99"/>
      <path d="M 30.609375 48.390625 
Q 23.390625 48.390625 19.1875 42.75 
Q 14.984375 37.109375 14.984375 27.296875 
Q 14.984375 17.484375 19.15625 11.84375 
Q 23.34375 6.203125 30.609375 6.203125 
Q 37.796875 6.203125 41.984375 11.859375 
Q 46.1875 17.53125 46.1875 27.296875 
Q 46.1875 37.015625 41.984375 42.703125 
Q 37.796875 48.390625 30.609375 48.390625 
z
M 30.609375 56 
Q 42.328125 56 49.015625 48.375 
Q 55.71875 40.765625 55.71875 27.296875 
Q 55.71875 13.875 49.015625 6.21875 
Q 42.328125 -1.421875 30.609375 -1.421875 
Q 18.84375 -1.421875 12.171875 6.21875 
Q 5.515625 13.875 5.515625 27.296875 
Q 5.515625 40.765625 12.171875 48.375 
Q 18.84375 56 30.609375 56 
z
" id="DejaVuSans-111"/>
      <path d="M 41.109375 46.296875 
Q 39.59375 47.171875 37.8125 47.578125 
Q 36.03125 48 33.890625 48 
Q 26.265625 48 22.1875 43.046875 
Q 18.109375 38.09375 18.109375 28.8125 
L 18.109375 0 
L 9.078125 0 
L 9.078125 54.6875 
L 18.109375 54.6875 
L 18.109375 46.1875 
Q 20.953125 51.171875 25.484375 53.578125 
Q 30.03125 56 36.53125 56 
Q 37.453125 56 38.578125 55.875 
Q 39.703125 55.765625 41.0625 55.515625 
z
" id="DejaVuSans-114"/>
      <path d="M 56.203125 29.59375 
L 56.203125 25.203125 
L 14.890625 25.203125 
Q 15.484375 15.921875 20.484375 11.0625 
Q 25.484375 6.203125 34.421875 6.203125 
Q 39.59375 6.203125 44.453125 7.46875 
Q 49.3125 8.734375 54.109375 11.28125 
L 54.109375 2.78125 
Q 49.265625 0.734375 44.1875 -0.34375 
Q 39.109375 -1.421875 33.890625 -1.421875 
Q 20.796875 -1.421875 13.15625 6.1875 
Q 5.515625 13.8125 5.515625 26.8125 
Q 5.515625 40.234375 12.765625 48.109375 
Q 20.015625 56 32.328125 56 
Q 43.359375 56 49.78125 48.890625 
Q 56.203125 41.796875 56.203125 29.59375 
z
M 47.21875 32.234375 
Q 47.125 39.59375 43.09375 43.984375 
Q 39.0625 48.390625 32.421875 48.390625 
Q 24.90625 48.390625 20.390625 44.140625 
Q 15.875 39.890625 15.1875 32.171875 
z
" id="DejaVuSans-101"/>
      <path d="M 9.421875 75.984375 
L 18.40625 75.984375 
L 18.40625 0 
L 9.421875 0 
z
" id="DejaVuSans-108"/>
      <path d="M 34.28125 27.484375 
Q 23.390625 27.484375 19.1875 25 
Q 14.984375 22.515625 14.984375 16.5 
Q 14.984375 11.71875 18.140625 8.90625 
Q 21.296875 6.109375 26.703125 6.109375 
Q 34.1875 6.109375 38.703125 11.40625 
Q 43.21875 16.703125 43.21875 25.484375 
L 43.21875 27.484375 
z
M 52.203125 31.203125 
L 52.203125 0 
L 43.21875 0 
L 43.21875 8.296875 
Q 40.140625 3.328125 35.546875 0.953125 
Q 30.953125 -1.421875 24.3125 -1.421875 
Q 15.921875 -1.421875 10.953125 3.296875 
Q 6 8.015625 6 15.921875 
Q 6 25.140625 12.171875 29.828125 
Q 18.359375 34.515625 30.609375 34.515625 
L 43.21875 34.515625 
L 43.21875 35.40625 
Q 43.21875 41.609375 39.140625 45 
Q 35.0625 48.390625 27.6875 48.390625 
Q 23 48.390625 18.546875 47.265625 
Q 14.109375 46.140625 10.015625 43.890625 
L 10.015625 52.203125 
Q 14.9375 54.109375 19.578125 55.046875 
Q 24.21875 56 28.609375 56 
Q 40.484375 56 46.34375 49.84375 
Q 52.203125 43.703125 52.203125 31.203125 
z
" id="DejaVuSans-97"/>
      <path d="M 18.3125 70.21875 
L 18.3125 54.6875 
L 36.8125 54.6875 
L 36.8125 47.703125 
L 18.3125 47.703125 
L 18.3125 18.015625 
Q 18.3125 11.328125 20.140625 9.421875 
Q 21.96875 7.515625 27.59375 7.515625 
L 36.8125 7.515625 
L 36.8125 0 
L 27.59375 0 
Q 17.1875 0 13.234375 3.875 
Q 9.28125 7.765625 9.28125 18.015625 
L 9.28125 47.703125 
L 2.6875 47.703125 
L 2.6875 54.6875 
L 9.28125 54.6875 
L 9.28125 70.21875 
z
" id="DejaVuSans-116"/>
      <path d="M 9.421875 54.6875 
L 18.40625 54.6875 
L 18.40625 0 
L 9.421875 0 
z
M 9.421875 75.984375 
L 18.40625 75.984375 
L 18.40625 64.59375 
L 9.421875 64.59375 
z
" id="DejaVuSans-105"/>
      <path d="M 54.890625 33.015625 
L 54.890625 0 
L 45.90625 0 
L 45.90625 32.71875 
Q 45.90625 40.484375 42.875 44.328125 
Q 39.84375 48.1875 33.796875 48.1875 
Q 26.515625 48.1875 22.3125 43.546875 
Q 18.109375 38.921875 18.109375 30.90625 
L 18.109375 0 
L 9.078125 0 
L 9.078125 54.6875 
L 18.109375 54.6875 
L 18.109375 46.1875 
Q 21.34375 51.125 25.703125 53.5625 
Q 30.078125 56 35.796875 56 
Q 45.21875 56 50.046875 50.171875 
Q 54.890625 44.34375 54.890625 33.015625 
z
" id="DejaVuSans-110"/>
      <path d="M 37.109375 75.984375 
L 37.109375 68.5 
L 28.515625 68.5 
Q 23.6875 68.5 21.796875 66.546875 
Q 19.921875 64.59375 19.921875 59.515625 
L 19.921875 54.6875 
L 34.71875 54.6875 
L 34.71875 47.703125 
L 19.921875 47.703125 
L 19.921875 0 
L 10.890625 0 
L 10.890625 47.703125 
L 2.296875 47.703125 
L 2.296875 54.6875 
L 10.890625 54.6875 
L 10.890625 58.5 
Q 10.890625 67.625 15.140625 71.796875 
Q 19.390625 75.984375 28.609375 75.984375 
z
" id="DejaVuSans-102"/>
      <path d="M 8.5 21.578125 
L 8.5 54.6875 
L 17.484375 54.6875 
L 17.484375 21.921875 
Q 17.484375 14.15625 20.5 10.265625 
Q 23.53125 6.390625 29.59375 6.390625 
Q 36.859375 6.390625 41.078125 11.03125 
Q 45.3125 15.671875 45.3125 23.6875 
L 45.3125 54.6875 
L 54.296875 54.6875 
L 54.296875 0 
L 45.3125 0 
L 45.3125 8.40625 
Q 42.046875 3.421875 37.71875 1 
Q 33.40625 -1.421875 27.6875 -1.421875 
Q 18.265625 -1.421875 13.375 4.4375 
Q 8.5 10.296875 8.5 21.578125 
z
M 31.109375 56 
z
" id="DejaVuSans-117"/>
     </defs>
     <g transform="translate(18.398438 118.898745)rotate(-90)scale(0.1 -0.1)">
      <use xlink:href="#DejaVuSans-99"/>
      <use x="54.980469" xlink:href="#DejaVuSans-111"/>
      <use x="116.162109" xlink:href="#DejaVuSans-114"/>
      <use x="157.259766" xlink:href="#DejaVuSans-114"/>
      <use x="198.341797" xlink:href="#DejaVuSans-101"/>
      <use x="259.865234" xlink:href="#DejaVuSans-108"/>
      <use x="287.648438" xlink:href="#DejaVuSans-97"/>
      <use x="348.927734" xlink:href="#DejaVuSans-116"/>
      <use x="388.136719" xlink:href="#DejaVuSans-105"/>
      <use x="415.919922" xlink:href="#DejaVuSans-111"/>
      <use x="477.101562" xlink:href="#DejaVuSans-110"/>
      <use x="540.480469" xlink:href="#DejaVuSans-32"/>
      <use x="572.267578" xlink:href="#DejaVuSans-102"/>
      <use x="607.472656" xlink:href="#DejaVuSans-117"/>
      <use x="670.851562" xlink:href="#DejaVuSans-110"/>
      <use x="734.230469" xlink:href="#DejaVuSans-99"/>
      <use x="789.210938" xlink:href="#DejaVuSans-116"/>
      <use x="828.419922" xlink:href="#DejaVuSans-105"/>
      <use x="856.203125" xlink:href="#DejaVuSans-111"/>
      <use x="917.384766" xlink:href="#DejaVuSans-110"/>
     </g>
    </g>
   </g>
   <g id="line2d_19">
    <path clip-path="url(#p840ca57d00)" d="M 51.937066 110.399477 
L 52.066072 110.332063 
L 52.711105 109.610694 
L 53.291634 109.013614 
L 54.323686 107.745209 
L 54.839713 107.825747 
L 55.484745 107.837434 
L 55.678255 107.718513 
L 56.065274 107.915974 
L 56.516797 107.276045 
L 57.290836 106.064478 
L 57.35534 106.118406 
L 57.742359 107.223165 
L 58.258385 108.881529 
L 58.451895 109.091363 
L 58.967921 110.053284 
L 59.032424 109.99206 
L 59.290437 109.750943 
L 60.257986 109.784648 
L 60.451496 110.188468 
L 61.032025 111.827261 
L 61.548052 112.724422 
L 61.870568 113.148488 
L 62.128581 113.105217 
L 62.451097 113.475025 
L 62.644607 113.700676 
L 62.90262 113.523492 
L 63.225136 112.787667 
L 63.418646 112.477517 
L 63.805666 112.324095 
L 64.128182 111.658268 
L 64.773215 111.593582 
L 65.095731 112.294898 
L 66.127783 114.719602 
L 66.385796 115.15306 
L 66.579306 115.310087 
L 66.901822 114.939805 
L 66.966325 115.002618 
L 67.288842 115.352203 
L 67.482351 115.447975 
L 67.869371 115.249409 
L 68.191887 115.141534 
L 68.514404 115.203384 
L 68.901423 114.671742 
L 69.610959 113.950917 
L 70.126985 112.974145 
L 70.449501 113.063827 
L 70.836521 112.392447 
L 71.159037 111.868344 
L 71.352547 111.926905 
L 71.99758 112.476348 
L 72.191089 112.300982 
L 72.836122 111.508457 
L 73.029632 111.362855 
L 73.352148 111.044363 
L 73.481155 111.051735 
L 74.126187 112.369307 
L 74.77122 114.175071 
L 74.900226 114.216885 
L 75.158239 114.415675 
L 75.351749 114.178925 
L 75.738769 113.045519 
L 76.964331 108.840729 
L 77.15784 108.702567 
L 77.415853 109.259347 
L 77.93188 111.06138 
L 78.383402 112.549319 
L 78.641415 112.971725 
L 79.028435 112.963063 
L 79.350951 113.109518 
L 79.737971 112.510347 
L 79.931481 112.243758 
L 80.70552 113.467986 
L 80.899029 113.660329 
L 81.092539 113.369198 
L 81.995585 111.719237 
L 82.318101 111.377507 
L 82.705121 111.014536 
L 82.963134 110.969711 
L 83.28565 110.836279 
L 83.414657 110.856225 
L 83.608166 110.452857 
L 83.995186 109.589818 
L 84.188696 109.600517 
L 84.833728 110.188165 
L 85.672271 112.577084 
L 86.317303 112.637349 
L 86.63982 112.194803 
L 86.833329 112.738201 
L 87.284852 113.889343 
L 87.607369 114.258146 
L 87.736375 114.343809 
L 87.929885 114.942874 
L 88.445911 116.814087 
L 88.961937 117.772448 
L 89.348957 118.233093 
L 89.542466 118.301746 
L 89.993989 117.91864 
L 90.122996 117.876044 
L 90.574518 117.415815 
L 90.832532 117.389698 
L 91.155048 116.945903 
L 91.477564 116.564955 
L 91.671074 116.524735 
L 91.929087 116.619261 
L 92.638623 117.774406 
L 92.832133 117.706679 
L 93.219152 118.053073 
L 93.412662 117.704519 
L 94.638224 114.80183 
L 95.025243 114.349219 
L 95.218753 114.347949 
L 95.541269 114.53638 
L 95.992792 114.38169 
L 96.573322 114.118224 
L 97.218354 112.756575 
L 97.411864 112.526892 
L 97.605374 112.781517 
L 98.1214 113.341685 
L 98.31491 113.522697 
L 98.637426 113.901366 
L 98.766432 114.048559 
L 99.024445 114.953471 
L 99.475968 116.688441 
L 99.733981 116.80466 
L 100.056498 116.906518 
L 100.379014 117.497177 
L 100.70153 118.100556 
L 101.024047 118.316938 
L 101.217556 118.182853 
L 101.669079 117.18094 
L 102.572125 113.415939 
L 103.733183 109.788268 
L 105.087752 108.377789 
L 105.410268 108.506446 
L 105.926294 108.313139 
L 106.700333 109.191462 
L 107.087353 111.051336 
L 107.345366 111.723383 
L 107.538876 111.936571 
L 108.570928 113.901392 
L 109.022451 113.940665 
L 110.183509 116.273572 
L 110.570529 117.304471 
L 110.828542 117.82061 
L 111.280065 118.803993 
L 111.925097 119.379332 
L 112.441124 120.225861 
L 113.344169 120.713781 
L 113.666685 120.204558 
L 113.860195 120.062573 
L 114.376221 120.25236 
L 114.569731 120.248117 
L 114.698738 120.054183 
L 115.666287 117.733632 
L 115.859796 117.905565 
L 116.053306 117.968914 
L 116.311319 117.707781 
L 116.569332 117.584654 
L 117.407875 118.515432 
L 117.794894 119.019338 
L 118.246417 119.007246 
L 118.439927 119.196145 
L 118.69794 119.983143 
L 119.665489 123.255662 
L 119.923502 123.553286 
L 120.052508 123.475514 
L 121.149064 121.097072 
L 122.052109 117.378306 
L 122.568135 114.870197 
L 123.084161 113.740429 
L 123.406678 113.743598 
L 123.664691 113.204305 
L 123.987207 111.794465 
L 124.890253 105.297814 
L 125.341775 100.246475 
L 127.470383 73.311843 
L 127.921906 65.087928 
L 128.373429 53.640066 
L 129.082965 27.875272 
L 129.276474 16.169204 
L 129.405481 23.507993 
L 129.727997 38.833735 
L 130.56654 63.762781 
L 131.276075 76.114387 
L 132.888657 96.090704 
L 133.791703 106.370393 
L 134.630245 112.185887 
L 135.017264 113.505934 
L 135.210774 113.774693 
L 135.597794 113.845109 
L 136.049317 115.056862 
L 136.436336 117.00618 
L 137.016866 119.80696 
L 138.177924 122.942731 
L 138.69395 123.542507 
L 138.88746 123.255662 
L 139.27448 122.432781 
L 140.177525 119.100188 
L 140.500042 118.939984 
L 140.822558 119.009353 
L 141.080571 118.630989 
L 141.403087 118.275532 
L 142.04812 117.575771 
L 142.306133 117.792494 
L 142.564146 117.991381 
L 142.693152 117.905565 
L 142.951165 117.731348 
L 143.080172 117.903545 
L 143.596198 119.341445 
L 143.983218 120.248117 
L 144.241231 120.221006 
L 144.757257 120.062784 
L 144.886263 120.204558 
L 145.273283 120.732809 
L 145.918315 120.345097 
L 146.305335 120.077885 
L 146.950368 118.999968 
L 147.272884 118.803993 
L 147.5954 118.188408 
L 148.046923 117.207704 
L 148.369439 116.273572 
L 148.756459 115.258647 
L 149.207982 114.524161 
L 149.724008 113.80536 
L 150.046524 113.900775 
L 150.175531 113.826268 
L 150.433544 113.309117 
L 151.143079 111.774403 
L 151.336589 111.516754 
L 151.594602 110.397774 
L 151.981622 108.908358 
L 152.755661 108.281104 
L 153.33619 108.483103 
L 153.5297 108.371654 
L 153.72321 108.572726 
L 154.110229 109.061739 
L 154.561752 109.432499 
L 155.142282 110.465416 
L 155.529301 111.738835 
L 156.625856 116.047737 
L 157.270889 118.067112 
L 157.528902 118.316938 
L 157.722412 118.251687 
L 158.109431 117.669257 
L 158.496451 116.906518 
L 158.754464 116.812018 
L 159.07698 116.688441 
L 159.27049 116.128399 
L 159.851019 113.95005 
L 160.238039 113.522697 
L 160.496052 113.324478 
L 160.689562 113.188718 
L 161.141085 112.526892 
L 161.270091 112.63998 
L 162.302143 114.355805 
L 163.269692 114.410619 
L 163.463202 114.322103 
L 163.656712 114.476993 
L 164.172738 115.269979 
L 164.81777 116.696548 
L 165.3983 118.072433 
L 165.59181 117.906533 
L 165.785319 117.697831 
L 165.978829 117.759461 
L 166.236842 117.440198 
L 166.752868 116.529694 
L 167.204391 116.659085 
L 167.591411 117.228572 
L 167.849424 117.430442 
L 168.107437 117.493098 
L 168.687966 117.95583 
L 168.881476 118.117557 
L 169.074986 118.306431 
L 169.397502 118.050683 
L 169.978031 117.110147 
L 170.365051 116.037359 
L 170.94558 114.258146 
L 171.13909 114.107233 
L 171.461606 113.424737 
L 171.784123 112.511712 
L 171.977632 112.18685 
L 172.429155 112.680903 
L 173.009684 112.443517 
L 173.461207 111.053241 
L 173.91273 109.823143 
L 174.29975 109.646111 
L 174.557763 109.589818 
L 174.751272 109.902732 
L 175.202795 110.862139 
L 175.396305 110.849446 
L 176.234847 111.377507 
L 177.07339 112.432725 
L 177.589416 113.597068 
L 177.718422 113.659872 
L 177.911932 113.326936 
L 178.298952 112.822598 
L 178.685971 112.258966 
L 179.331004 113.165716 
L 179.718024 112.89716 
L 179.976037 112.931261 
L 180.169546 112.549319 
L 180.750076 110.500893 
L 181.266102 108.928412 
L 181.459612 108.670068 
L 181.588618 108.840729 
L 182.104644 110.207082 
L 183.394709 114.415675 
L 183.523716 114.381212 
L 183.781729 114.175071 
L 183.910735 114.145909 
L 184.104245 113.589876 
L 184.684775 111.736292 
L 185.136297 111.012603 
L 185.458814 111.267136 
L 185.78133 111.549026 
L 186.684376 112.479386 
L 187.458415 111.929159 
L 188.232454 113.071765 
L 188.490467 112.995384 
L 188.74848 113.445218 
L 189.070996 114.117442 
L 189.974042 115.085991 
L 190.167552 115.309818 
L 190.425565 115.14555 
L 190.812584 115.377583 
L 191.070597 115.447975 
L 191.199604 115.443062 
L 191.651127 114.939805 
L 191.780133 115.054134 
L 192.038146 115.326208 
L 192.231656 115.015991 
L 193.328211 112.643541 
L 193.844237 111.534498 
L 194.10225 111.618981 
L 194.553773 111.788657 
L 194.940793 112.49582 
L 195.198806 112.521174 
L 195.456819 113.123474 
L 195.779335 113.629812 
L 195.972845 113.678869 
L 196.553374 113.070493 
L 196.746884 113.135597 
L 197.133904 112.456188 
L 198.036949 110.403058 
L 198.294962 109.784648 
L 198.617479 109.624153 
L 199.198008 109.748905 
L 199.391518 109.819928 
L 199.649531 110.036897 
L 200.552576 108.25069 
L 201.133106 106.267934 
L 201.262112 106.064478 
L 201.455622 106.294289 
L 202.229661 107.548293 
L 202.552177 107.94054 
L 203.068204 107.837434 
L 203.261713 107.945217 
L 203.58423 107.885157 
L 203.906746 107.749068 
L 204.487275 107.775562 
L 205.583831 109.536396 
L 206.035353 109.73854 
L 206.615883 110.399477 
L 206.615883 110.399477 
" style="fill:none;stroke:#000000;stroke-linecap:square;"/>
   </g>
   <g id="line2d_20">
    <path clip-path="url(#p840ca57d00)" d="M 51.937066 112.326465 
L 55.420242 112.351687 
L 58.967921 112.385643 
L 66.321293 112.476393 
L 76.254795 112.668981 
L 80.51201 112.798205 
L 95.476766 113.790297 
L 103.410667 115.148829 
L 105.603778 115.730843 
L 106.82934 116.091311 
L 109.79649 117.095669 
L 111.151058 117.59167 
L 112.312117 118.038184 
L 113.473176 118.442393 
L 114.376221 118.752879 
L 117.601384 119.221263 
L 118.11741 119.142486 
L 118.568933 119.026149 
L 119.923502 118.218062 
L 120.375024 117.783289 
L 121.47158 116.172501 
L 121.923103 115.265729 
L 122.955155 112.404879 
L 123.922704 108.495607 
L 124.890253 102.875659 
L 125.470782 98.482865 
L 126.373828 89.416136 
L 127.01886 80.978929 
L 127.857403 66.051374 
L 128.631442 46.040905 
L 129.147468 24.305183 
L 129.276474 17.010468 
L 129.405481 24.305183 
L 129.727997 39.599178 
L 130.502036 61.876063 
L 131.405082 78.90589 
L 132.114618 88.693109 
L 133.082167 98.482865 
L 134.114219 105.754441 
L 135.146271 110.765607 
L 136.178323 114.173477 
L 137.210375 116.432689 
L 138.306931 117.923195 
L 139.661499 118.888596 
L 140.242029 119.104987 
L 140.758055 119.208125 
L 141.274081 119.248779 
L 141.85461 119.242686 
L 144.950766 118.500823 
L 146.434341 117.959138 
L 147.40189 117.59167 
L 148.885465 117.050239 
L 150.046524 116.63888 
L 151.465596 116.17208 
L 152.626654 115.818304 
L 154.303739 115.36109 
L 155.529301 115.066407 
L 157.206386 114.697339 
L 166.301345 113.459275 
L 168.494456 113.284281 
L 170.365051 113.154509 
L 176.750874 112.845042 
L 179.008488 112.767301 
L 183.072193 112.649367 
L 185.845833 112.585176 
L 193.263708 112.461772 
L 196.230858 112.422454 
L 199.456021 112.388283 
L 202.681184 112.356375 
L 206.16436 112.32919 
L 206.615883 112.326465 
L 206.615883 112.326465 
" style="fill:none;stroke:#ff0000;stroke-dasharray:3.7,1.6;stroke-dashoffset:0;"/>
   </g>
   <g id="patch_3">
    <path d="M 44.203125 128.92249 
L 44.203125 10.8 
" style="fill:none;stroke:#000000;stroke-linecap:square;stroke-linejoin:miter;stroke-width:0.8;"/>
   </g>
   <g id="patch_4">
    <path d="M 214.349824 128.92249 
L 214.349824 10.8 
" style="fill:none;stroke:#000000;stroke-linecap:square;stroke-linejoin:miter;stroke-width:0.8;"/>
   </g>
   <g id="patch_5">
    <path d="M 44.203125 128.92249 
L 214.349824 128.92249 
" style="fill:none;stroke:#000000;stroke-linecap:square;stroke-linejoin:miter;stroke-width:0.8;"/>
   </g>
   <g id="patch_6">
    <path d="M 44.203125 10.8 
L 214.349824 10.8 
" style="fill:none;stroke:#000000;stroke-linecap:square;stroke-linejoin:miter;stroke-width:0.8;"/>
   </g>
   <g id="legend_1">
    <g id="patch_7">
     <path d="M 134.795449 44.420625 
L 208.049824 44.420625 
Q 209.849824 44.420625 209.849824 42.620625 
L 209.849824 17.1 
Q 209.849824 15.3 208.049824 15.3 
L 134.795449 15.3 
Q 132.995449 15.3 132.995449 17.1 
L 132.995449 42.620625 
Q 132.995449 44.420625 134.795449 44.420625 
z
" style="fill:#ffffff;opacity:0.8;stroke:#cccccc;stroke-linejoin:miter;"/>
    </g>
    <g id="line2d_21">
     <path d="M 136.595449 22.588594 
L 154.595449 22.588594 
" style="fill:none;stroke:#000000;stroke-linecap:square;"/>
    </g>
    <g id="line2d_22"/>
    <g id="text_12">
     <!-- simulated -->
     <defs>
      <path d="M 52 44.1875 
Q 55.375 50.25 60.0625 53.125 
Q 64.75 56 71.09375 56 
Q 79.640625 56 84.28125 50.015625 
Q 88.921875 44.046875 88.921875 33.015625 
L 88.921875 0 
L 79.890625 0 
L 79.890625 32.71875 
Q 79.890625 40.578125 77.09375 44.375 
Q 74.3125 48.1875 68.609375 48.1875 
Q 61.625 48.1875 57.5625 43.546875 
Q 53.515625 38.921875 53.515625 30.90625 
L 53.515625 0 
L 44.484375 0 
L 44.484375 32.71875 
Q 44.484375 40.625 41.703125 44.40625 
Q 38.921875 48.1875 33.109375 48.1875 
Q 26.21875 48.1875 22.15625 43.53125 
Q 18.109375 38.875 18.109375 30.90625 
L 18.109375 0 
L 9.078125 0 
L 9.078125 54.6875 
L 18.109375 54.6875 
L 18.109375 46.1875 
Q 21.1875 51.21875 25.484375 53.609375 
Q 29.78125 56 35.6875 56 
Q 41.65625 56 45.828125 52.96875 
Q 50 49.953125 52 44.1875 
z
" id="DejaVuSans-109"/>
      <path d="M 45.40625 46.390625 
L 45.40625 75.984375 
L 54.390625 75.984375 
L 54.390625 0 
L 45.40625 0 
L 45.40625 8.203125 
Q 42.578125 3.328125 38.25 0.953125 
Q 33.9375 -1.421875 27.875 -1.421875 
Q 17.96875 -1.421875 11.734375 6.484375 
Q 5.515625 14.40625 5.515625 27.296875 
Q 5.515625 40.1875 11.734375 48.09375 
Q 17.96875 56 27.875 56 
Q 33.9375 56 38.25 53.625 
Q 42.578125 51.265625 45.40625 46.390625 
z
M 14.796875 27.296875 
Q 14.796875 17.390625 18.875 11.75 
Q 22.953125 6.109375 30.078125 6.109375 
Q 37.203125 6.109375 41.296875 11.75 
Q 45.40625 17.390625 45.40625 27.296875 
Q 45.40625 37.203125 41.296875 42.84375 
Q 37.203125 48.484375 30.078125 48.484375 
Q 22.953125 48.484375 18.875 42.84375 
Q 14.796875 37.203125 14.796875 27.296875 
z
" id="DejaVuSans-100"/>
     </defs>
     <g transform="translate(161.795449 25.738594)scale(0.09 -0.09)">
      <use xlink:href="#DejaVuSans-115"/>
      <use x="52.099609" xlink:href="#DejaVuSans-105"/>
      <use x="79.882812" xlink:href="#DejaVuSans-109"/>
      <use x="177.294922" xlink:href="#DejaVuSans-117"/>
      <use x="240.673828" xlink:href="#DejaVuSans-108"/>
      <use x="268.457031" xlink:href="#DejaVuSans-97"/>
      <use x="329.736328" xlink:href="#DejaVuSans-116"/>
      <use x="368.945312" xlink:href="#DejaVuSans-101"/>
      <use x="430.46875" xlink:href="#DejaVuSans-100"/>
     </g>
    </g>
    <g id="line2d_23">
     <path d="M 136.595449 35.798906 
L 154.595449 35.798906 
" style="fill:none;stroke:#ff0000;stroke-dasharray:3.7,1.6;stroke-dashoffset:0;"/>
    </g>
    <g id="line2d_24"/>
    <g id="text_13">
     <!-- target -->
     <defs>
      <path d="M 45.40625 27.984375 
Q 45.40625 37.75 41.375 43.109375 
Q 37.359375 48.484375 30.078125 48.484375 
Q 22.859375 48.484375 18.828125 43.109375 
Q 14.796875 37.75 14.796875 27.984375 
Q 14.796875 18.265625 18.828125 12.890625 
Q 22.859375 7.515625 30.078125 7.515625 
Q 37.359375 7.515625 41.375 12.890625 
Q 45.40625 18.265625 45.40625 27.984375 
z
M 54.390625 6.78125 
Q 54.390625 -7.171875 48.1875 -13.984375 
Q 42 -20.796875 29.203125 -20.796875 
Q 24.46875 -20.796875 20.265625 -20.09375 
Q 16.0625 -19.390625 12.109375 -17.921875 
L 12.109375 -9.1875 
Q 16.0625 -11.328125 19.921875 -12.34375 
Q 23.78125 -13.375 27.78125 -13.375 
Q 36.625 -13.375 41.015625 -8.765625 
Q 45.40625 -4.15625 45.40625 5.171875 
L 45.40625 9.625 
Q 42.625 4.78125 38.28125 2.390625 
Q 33.9375 0 27.875 0 
Q 17.828125 0 11.671875 7.65625 
Q 5.515625 15.328125 5.515625 27.984375 
Q 5.515625 40.671875 11.671875 48.328125 
Q 17.828125 56 27.875 56 
Q 33.9375 56 38.28125 53.609375 
Q 42.625 51.21875 45.40625 46.390625 
L 45.40625 54.6875 
L 54.390625 54.6875 
z
" id="DejaVuSans-103"/>
     </defs>
     <g transform="translate(161.795449 38.948906)scale(0.09 -0.09)">
      <use xlink:href="#DejaVuSans-116"/>
      <use x="39.208984" xlink:href="#DejaVuSans-97"/>
      <use x="100.488281" xlink:href="#DejaVuSans-114"/>
      <use x="141.585938" xlink:href="#DejaVuSans-103"/>
      <use x="205.0625" xlink:href="#DejaVuSans-101"/>
      <use x="266.585938" xlink:href="#DejaVuSans-116"/>
     </g>
    </g>
   </g>
  </g>
 </g>
 <defs>
  <clipPath id="p840ca57d00">
   <rect height="118.12249" width="170.146699" x="44.203125" y="10.8"/>
  </clipPath>
 </defs>
</svg>
