<?xml version="1.0" encoding="utf-8" standalone="no"?>
<!DOCTYPE svg PUBLIC "-//W3C//DTD SVG 1.1//EN"
  "http://www.w3.org/Graphics/SVG/1.1/DTD/svg11.dtd">
<!-- Created with matplotlib (https://matplotlib.org/) -->
<svg height="170.07874pt" version="1.1" viewBox="0 0 226.771654 170.07874" width="226.771654pt" xmlns="http://www.w3.org/2000/svg" xmlns:xlink="http://www.w3.org/1999/xlink">
 <defs>
  <style type="text/css">
*{stroke-linecap:butt;stroke-linejoin:round;}
  </style>
 </defs>
 <g id="figure_1">
  <g id="patch_1">
   <path d="M 0 170.07874 
L 226.771654 170.07874 
L 226.771654 0 
L 0 0 
z
" style="fill:#ffffff;"/>
  </g>
  <g id="axes_1">
   <g id="patch_2">
    <path d="M 44.203125 128.92249 
L 214.349824 128.92249 
L 214.349824 10.8 
L 44.203125 10.8 
z
" style="fill:#ffffff;"/>
   </g>
   <g id="matplotlib.axis_1">
    <g id="xtick_1">
     <g id="line2d_1">
      <path clip-path="url(#p83199d0dd9)" d="M 51.872563 128.92249 
L 51.872563 10.8 
" style="fill:none;stroke:#b0b0b0;stroke-linecap:square;stroke-width:0.8;"/>
     </g>
     <g id="line2d_2">
      <defs>
       <path d="M 0 0 
L 0 3.5 
" id="m6ca7dfa203" style="stroke:#000000;stroke-width:0.8;"/>
      </defs>
      <g>
       <use style="stroke:#000000;stroke-width:0.8;" x="51.872563" xlink:href="#m6ca7dfa203" y="128.92249"/>
      </g>
     </g>
     <g id="text_1">
      <!-- −100 -->
      <defs>
       <path d="M 10.59375 35.5 
L 73.1875 35.5 
L 73.1875 27.203125 
L 10.59375 27.203125 
z
" id="DejaVuSans-8722"/>
       <path d="M 12.40625 8.296875 
L 28.515625 8.296875 
L 28.515625 63.921875 
L 10.984375 60.40625 
L 10.984375 69.390625 
L 28.421875 72.90625 
L 38.28125 72.90625 
L 38.28125 8.296875 
L 54.390625 8.296875 
L 54.390625 0 
L 12.40625 0 
z
" id="DejaVuSans-49"/>
       <path d="M 31.78125 66.40625 
Q 24.171875 66.40625 20.328125 58.90625 
Q 16.5 51.421875 16.5 36.375 
Q 16.5 21.390625 20.328125 13.890625 
Q 24.171875 6.390625 31.78125 6.390625 
Q 39.453125 6.390625 43.28125 13.890625 
Q 47.125 21.390625 47.125 36.375 
Q 47.125 51.421875 43.28125 58.90625 
Q 39.453125 66.40625 31.78125 66.40625 
z
M 31.78125 74.21875 
Q 44.046875 74.21875 50.515625 64.515625 
Q 56.984375 54.828125 56.984375 36.375 
Q 56.984375 17.96875 50.515625 8.265625 
Q 44.046875 -1.421875 31.78125 -1.421875 
Q 19.53125 -1.421875 13.0625 8.265625 
Q 6.59375 17.96875 6.59375 36.375 
Q 6.59375 54.828125 13.0625 64.515625 
Q 19.53125 74.21875 31.78125 74.21875 
z
" id="DejaVuSans-48"/>
      </defs>
      <g transform="translate(38.138969 143.520928)scale(0.1 -0.1)">
       <use xlink:href="#DejaVuSans-8722"/>
       <use x="83.789062" xlink:href="#DejaVuSans-49"/>
       <use x="147.412109" xlink:href="#DejaVuSans-48"/>
       <use x="211.035156" xlink:href="#DejaVuSans-48"/>
      </g>
     </g>
    </g>
    <g id="xtick_2">
     <g id="line2d_3">
      <path clip-path="url(#p83199d0dd9)" d="M 90.574518 128.92249 
L 90.574518 10.8 
" style="fill:none;stroke:#b0b0b0;stroke-linecap:square;stroke-width:0.8;"/>
     </g>
     <g id="line2d_4">
      <g>
       <use style="stroke:#000000;stroke-width:0.8;" x="90.574518" xlink:href="#m6ca7dfa203" y="128.92249"/>
      </g>
     </g>
     <g id="text_2">
      <!-- −50 -->
      <defs>
       <path d="M 10.796875 72.90625 
L 49.515625 72.90625 
L 49.515625 64.59375 
L 19.828125 64.59375 
L 19.828125 46.734375 
Q 21.96875 47.46875 24.109375 47.828125 
Q 26.265625 48.1875 28.421875 48.1875 
Q 40.625 48.1875 47.75 41.5 
Q 54.890625 34.8125 54.890625 23.390625 
Q 54.890625 11.625 47.5625 5.09375 
Q 40.234375 -1.421875 26.90625 -1.421875 
Q 22.3125 -1.421875 17.546875 -0.640625 
Q 12.796875 0.140625 7.71875 1.703125 
L 7.71875 11.625 
Q 12.109375 9.234375 16.796875 8.0625 
Q 21.484375 6.890625 26.703125 6.890625 
Q 35.15625 6.890625 40.078125 11.328125 
Q 45.015625 15.765625 45.015625 23.390625 
Q 45.015625 31 40.078125 35.4375 
Q 35.15625 39.890625 26.703125 39.890625 
Q 22.75 39.890625 18.8125 39.015625 
Q 14.890625 38.140625 10.796875 36.28125 
z
" id="DejaVuSans-53"/>
      </defs>
      <g transform="translate(80.022175 143.520928)scale(0.1 -0.1)">
       <use xlink:href="#DejaVuSans-8722"/>
       <use x="83.789062" xlink:href="#DejaVuSans-53"/>
       <use x="147.412109" xlink:href="#DejaVuSans-48"/>
      </g>
     </g>
    </g>
    <g id="xtick_3">
     <g id="line2d_5">
      <path clip-path="url(#p83199d0dd9)" d="M 129.276474 128.92249 
L 129.276474 10.8 
" style="fill:none;stroke:#b0b0b0;stroke-linecap:square;stroke-width:0.8;"/>
     </g>
     <g id="line2d_6">
      <g>
       <use style="stroke:#000000;stroke-width:0.8;" x="129.276474" xlink:href="#m6ca7dfa203" y="128.92249"/>
      </g>
     </g>
     <g id="text_3">
      <!-- 0 -->
      <g transform="translate(126.095224 143.520928)scale(0.1 -0.1)">
       <use xlink:href="#DejaVuSans-48"/>
      </g>
     </g>
    </g>
    <g id="xtick_4">
     <g id="line2d_7">
      <path clip-path="url(#p83199d0dd9)" d="M 167.97843 128.92249 
L 167.97843 10.8 
" style="fill:none;stroke:#b0b0b0;stroke-linecap:square;stroke-width:0.8;"/>
     </g>
     <g id="line2d_8">
      <g>
       <use style="stroke:#000000;stroke-width:0.8;" x="167.97843" xlink:href="#m6ca7dfa203" y="128.92249"/>
      </g>
     </g>
     <g id="text_4">
      <!-- 50 -->
      <g transform="translate(161.61593 143.520928)scale(0.1 -0.1)">
       <use xlink:href="#DejaVuSans-53"/>
       <use x="63.623047" xlink:href="#DejaVuSans-48"/>
      </g>
     </g>
    </g>
    <g id="xtick_5">
     <g id="line2d_9">
      <path clip-path="url(#p83199d0dd9)" d="M 206.680386 128.92249 
L 206.680386 10.8 
" style="fill:none;stroke:#b0b0b0;stroke-linecap:square;stroke-width:0.8;"/>
     </g>
     <g id="line2d_10">
      <g>
       <use style="stroke:#000000;stroke-width:0.8;" x="206.680386" xlink:href="#m6ca7dfa203" y="128.92249"/>
      </g>
     </g>
     <g id="text_5">
      <!-- 100 -->
      <g transform="translate(197.136636 143.520928)scale(0.1 -0.1)">
       <use xlink:href="#DejaVuSans-49"/>
       <use x="63.623047" xlink:href="#DejaVuSans-48"/>
       <use x="127.246094" xlink:href="#DejaVuSans-48"/>
      </g>
     </g>
    </g>
    <g id="text_6">
     <!-- $\tau$ (s) -->
     <defs>
      <path d="M 32.859375 9.96875 
Q 34.1875 7.625 39.453125 7.625 
L 43.75 7.625 
L 42.28125 0 
L 36.921875 0 
Q 28.125 0 25 4.6875 
Q 21.921875 9.46875 23.96875 19.828125 
L 29 45.703125 
L 8.453125 45.703125 
L 10.203125 54.6875 
L 60.640625 54.6875 
L 58.890625 45.703125 
L 38.1875 45.703125 
L 33.015625 19.28125 
Q 31.640625 12.203125 32.859375 9.96875 
z
" id="DejaVuSans-Oblique-964"/>
      <path id="DejaVuSans-32"/>
      <path d="M 31 75.875 
Q 24.46875 64.65625 21.28125 53.65625 
Q 18.109375 42.671875 18.109375 31.390625 
Q 18.109375 20.125 21.3125 9.0625 
Q 24.515625 -2 31 -13.1875 
L 23.1875 -13.1875 
Q 15.875 -1.703125 12.234375 9.375 
Q 8.59375 20.453125 8.59375 31.390625 
Q 8.59375 42.28125 12.203125 53.3125 
Q 15.828125 64.359375 23.1875 75.875 
z
" id="DejaVuSans-40"/>
      <path d="M 44.28125 53.078125 
L 44.28125 44.578125 
Q 40.484375 46.53125 36.375 47.5 
Q 32.28125 48.484375 27.875 48.484375 
Q 21.1875 48.484375 17.84375 46.4375 
Q 14.5 44.390625 14.5 40.28125 
Q 14.5 37.15625 16.890625 35.375 
Q 19.28125 33.59375 26.515625 31.984375 
L 29.59375 31.296875 
Q 39.15625 29.25 43.1875 25.515625 
Q 47.21875 21.78125 47.21875 15.09375 
Q 47.21875 7.46875 41.1875 3.015625 
Q 35.15625 -1.421875 24.609375 -1.421875 
Q 20.21875 -1.421875 15.453125 -0.5625 
Q 10.6875 0.296875 5.421875 2 
L 5.421875 11.28125 
Q 10.40625 8.6875 15.234375 7.390625 
Q 20.0625 6.109375 24.8125 6.109375 
Q 31.15625 6.109375 34.5625 8.28125 
Q 37.984375 10.453125 37.984375 14.40625 
Q 37.984375 18.0625 35.515625 20.015625 
Q 33.0625 21.96875 24.703125 23.78125 
L 21.578125 24.515625 
Q 13.234375 26.265625 9.515625 29.90625 
Q 5.8125 33.546875 5.8125 39.890625 
Q 5.8125 47.609375 11.28125 51.796875 
Q 16.75 56 26.8125 56 
Q 31.78125 56 36.171875 55.265625 
Q 40.578125 54.546875 44.28125 53.078125 
z
" id="DejaVuSans-115"/>
      <path d="M 8.015625 75.875 
L 15.828125 75.875 
Q 23.140625 64.359375 26.78125 53.3125 
Q 30.421875 42.28125 30.421875 31.390625 
Q 30.421875 20.453125 26.78125 9.375 
Q 23.140625 -1.703125 15.828125 -13.1875 
L 8.015625 -13.1875 
Q 14.5 -2 17.703125 9.0625 
Q 20.90625 20.125 20.90625 31.390625 
Q 20.90625 42.671875 17.703125 53.65625 
Q 14.5 64.65625 8.015625 75.875 
z
" id="DejaVuSans-41"/>
     </defs>
     <g transform="translate(118.126474 157.199053)scale(0.1 -0.1)">
      <use transform="translate(0 0.125)" xlink:href="#DejaVuSans-Oblique-964"/>
      <use transform="translate(60.205078 0.125)" xlink:href="#DejaVuSans-32"/>
      <use transform="translate(91.992188 0.125)" xlink:href="#DejaVuSans-40"/>
      <use transform="translate(131.005859 0.125)" xlink:href="#DejaVuSans-115"/>
      <use transform="translate(183.105469 0.125)" xlink:href="#DejaVuSans-41"/>
     </g>
    </g>
   </g>
   <g id="matplotlib.axis_2">
    <g id="ytick_1">
     <g id="line2d_11">
      <path clip-path="url(#p83199d0dd9)" d="M 44.203125 112.629611 
L 214.349824 112.629611 
" style="fill:none;stroke:#b0b0b0;stroke-linecap:square;stroke-width:0.8;"/>
     </g>
     <g id="line2d_12">
      <defs>
       <path d="M 0 0 
L -3.5 0 
" id="m9dc4ab9727" style="stroke:#000000;stroke-width:0.8;"/>
      </defs>
      <g>
       <use style="stroke:#000000;stroke-width:0.8;" x="44.203125" xlink:href="#m9dc4ab9727" y="112.629611"/>
      </g>
     </g>
     <g id="text_7">
      <!-- 0 -->
      <g transform="translate(30.840625 116.42883)scale(0.1 -0.1)">
       <use xlink:href="#DejaVuSans-48"/>
      </g>
     </g>
    </g>
    <g id="ytick_2">
     <g id="line2d_13">
      <path clip-path="url(#p83199d0dd9)" d="M 44.203125 84.281642 
L 214.349824 84.281642 
" style="fill:none;stroke:#b0b0b0;stroke-linecap:square;stroke-width:0.8;"/>
     </g>
     <g id="line2d_14">
      <g>
       <use style="stroke:#000000;stroke-width:0.8;" x="44.203125" xlink:href="#m9dc4ab9727" y="84.281642"/>
      </g>
     </g>
     <g id="text_8">
      <!-- 5 -->
      <g transform="translate(30.840625 88.08086)scale(0.1 -0.1)">
       <use xlink:href="#DejaVuSans-53"/>
      </g>
     </g>
    </g>
    <g id="ytick_3">
     <g id="line2d_15">
      <path clip-path="url(#p83199d0dd9)" d="M 44.203125 55.933672 
L 214.349824 55.933672 
" style="fill:none;stroke:#b0b0b0;stroke-linecap:square;stroke-width:0.8;"/>
     </g>
     <g id="line2d_16">
      <g>
       <use style="stroke:#000000;stroke-width:0.8;" x="44.203125" xlink:href="#m9dc4ab9727" y="55.933672"/>
      </g>
     </g>
     <g id="text_9">
      <!-- 10 -->
      <g transform="translate(24.478125 59.732891)scale(0.1 -0.1)">
       <use xlink:href="#DejaVuSans-49"/>
       <use x="63.623047" xlink:href="#DejaVuSans-48"/>
      </g>
     </g>
    </g>
    <g id="ytick_4">
     <g id="line2d_17">
      <path clip-path="url(#p83199d0dd9)" d="M 44.203125 27.585702 
L 214.349824 27.585702 
" style="fill:none;stroke:#b0b0b0;stroke-linecap:square;stroke-width:0.8;"/>
     </g>
     <g id="line2d_18">
      <g>
       <use style="stroke:#000000;stroke-width:0.8;" x="44.203125" xlink:href="#m9dc4ab9727" y="27.585702"/>
      </g>
     </g>
     <g id="text_10">
      <!-- 15 -->
      <g transform="translate(24.478125 31.384921)scale(0.1 -0.1)">
       <use xlink:href="#DejaVuSans-49"/>
       <use x="63.623047" xlink:href="#DejaVuSans-53"/>
      </g>
     </g>
    </g>
    <g id="text_11">
     <!-- correlation function -->
     <defs>
      <path d="M 48.78125 52.59375 
L 48.78125 44.1875 
Q 44.96875 46.296875 41.140625 47.34375 
Q 37.3125 48.390625 33.40625 48.390625 
Q 24.65625 48.390625 19.8125 42.84375 
Q 14.984375 37.3125 14.984375 27.296875 
Q 14.984375 17.28125 19.8125 11.734375 
Q 24.65625 6.203125 33.40625 6.203125 
Q 37.3125 6.203125 41.140625 7.25 
Q 44.96875 8.296875 48.78125 10.40625 
L 48.78125 2.09375 
Q 45.015625 0.34375 40.984375 -0.53125 
Q 36.96875 -1.421875 32.421875 -1.421875 
Q 20.0625 -1.421875 12.78125 6.34375 
Q 5.515625 14.109375 5.515625 27.296875 
Q 5.515625 40.671875 12.859375 48.328125 
Q 20.21875 56 33.015625 56 
Q 37.15625 56 41.109375 55.140625 
Q 45.0625 54.296875 48.78125 52.59375 
z
" id="DejaVuSans-99"/>
      <path d="M 30.609375 48.390625 
Q 23.390625 48.390625 19.1875 42.75 
Q 14.984375 37.109375 14.984375 27.296875 
Q 14.984375 17.484375 19.15625 11.84375 
Q 23.34375 6.203125 30.609375 6.203125 
Q 37.796875 6.203125 41.984375 11.859375 
Q 46.1875 17.53125 46.1875 27.296875 
Q 46.1875 37.015625 41.984375 42.703125 
Q 37.796875 48.390625 30.609375 48.390625 
z
M 30.609375 56 
Q 42.328125 56 49.015625 48.375 
Q 55.71875 40.765625 55.71875 27.296875 
Q 55.71875 13.875 49.015625 6.21875 
Q 42.328125 -1.421875 30.609375 -1.421875 
Q 18.84375 -1.421875 12.171875 6.21875 
Q 5.515625 13.875 5.515625 27.296875 
Q 5.515625 40.765625 12.171875 48.375 
Q 18.84375 56 30.609375 56 
z
" id="DejaVuSans-111"/>
      <path d="M 41.109375 46.296875 
Q 39.59375 47.171875 37.8125 47.578125 
Q 36.03125 48 33.890625 48 
Q 26.265625 48 22.1875 43.046875 
Q 18.109375 38.09375 18.109375 28.8125 
L 18.109375 0 
L 9.078125 0 
L 9.078125 54.6875 
L 18.109375 54.6875 
L 18.109375 46.1875 
Q 20.953125 51.171875 25.484375 53.578125 
Q 30.03125 56 36.53125 56 
Q 37.453125 56 38.578125 55.875 
Q 39.703125 55.765625 41.0625 55.515625 
z
" id="DejaVuSans-114"/>
      <path d="M 56.203125 29.59375 
L 56.203125 25.203125 
L 14.890625 25.203125 
Q 15.484375 15.921875 20.484375 11.0625 
Q 25.484375 6.203125 34.421875 6.203125 
Q 39.59375 6.203125 44.453125 7.46875 
Q 49.3125 8.734375 54.109375 11.28125 
L 54.109375 2.78125 
Q 49.265625 0.734375 44.1875 -0.34375 
Q 39.109375 -1.421875 33.890625 -1.421875 
Q 20.796875 -1.421875 13.15625 6.1875 
Q 5.515625 13.8125 5.515625 26.8125 
Q 5.515625 40.234375 12.765625 48.109375 
Q 20.015625 56 32.328125 56 
Q 43.359375 56 49.78125 48.890625 
Q 56.203125 41.796875 56.203125 29.59375 
z
M 47.21875 32.234375 
Q 47.125 39.59375 43.09375 43.984375 
Q 39.0625 48.390625 32.421875 48.390625 
Q 24.90625 48.390625 20.390625 44.140625 
Q 15.875 39.890625 15.1875 32.171875 
z
" id="DejaVuSans-101"/>
      <path d="M 9.421875 75.984375 
L 18.40625 75.984375 
L 18.40625 0 
L 9.421875 0 
z
" id="DejaVuSans-108"/>
      <path d="M 34.28125 27.484375 
Q 23.390625 27.484375 19.1875 25 
Q 14.984375 22.515625 14.984375 16.5 
Q 14.984375 11.71875 18.140625 8.90625 
Q 21.296875 6.109375 26.703125 6.109375 
Q 34.1875 6.109375 38.703125 11.40625 
Q 43.21875 16.703125 43.21875 25.484375 
L 43.21875 27.484375 
z
M 52.203125 31.203125 
L 52.203125 0 
L 43.21875 0 
L 43.21875 8.296875 
Q 40.140625 3.328125 35.546875 0.953125 
Q 30.953125 -1.421875 24.3125 -1.421875 
Q 15.921875 -1.421875 10.953125 3.296875 
Q 6 8.015625 6 15.921875 
Q 6 25.140625 12.171875 29.828125 
Q 18.359375 34.515625 30.609375 34.515625 
L 43.21875 34.515625 
L 43.21875 35.40625 
Q 43.21875 41.609375 39.140625 45 
Q 35.0625 48.390625 27.6875 48.390625 
Q 23 48.390625 18.546875 47.265625 
Q 14.109375 46.140625 10.015625 43.890625 
L 10.015625 52.203125 
Q 14.9375 54.109375 19.578125 55.046875 
Q 24.21875 56 28.609375 56 
Q 40.484375 56 46.34375 49.84375 
Q 52.203125 43.703125 52.203125 31.203125 
z
" id="DejaVuSans-97"/>
      <path d="M 18.3125 70.21875 
L 18.3125 54.6875 
L 36.8125 54.6875 
L 36.8125 47.703125 
L 18.3125 47.703125 
L 18.3125 18.015625 
Q 18.3125 11.328125 20.140625 9.421875 
Q 21.96875 7.515625 27.59375 7.515625 
L 36.8125 7.515625 
L 36.8125 0 
L 27.59375 0 
Q 17.1875 0 13.234375 3.875 
Q 9.28125 7.765625 9.28125 18.015625 
L 9.28125 47.703125 
L 2.6875 47.703125 
L 2.6875 54.6875 
L 9.28125 54.6875 
L 9.28125 70.21875 
z
" id="DejaVuSans-116"/>
      <path d="M 9.421875 54.6875 
L 18.40625 54.6875 
L 18.40625 0 
L 9.421875 0 
z
M 9.421875 75.984375 
L 18.40625 75.984375 
L 18.40625 64.59375 
L 9.421875 64.59375 
z
" id="DejaVuSans-105"/>
      <path d="M 54.890625 33.015625 
L 54.890625 0 
L 45.90625 0 
L 45.90625 32.71875 
Q 45.90625 40.484375 42.875 44.328125 
Q 39.84375 48.1875 33.796875 48.1875 
Q 26.515625 48.1875 22.3125 43.546875 
Q 18.109375 38.921875 18.109375 30.90625 
L 18.109375 0 
L 9.078125 0 
L 9.078125 54.6875 
L 18.109375 54.6875 
L 18.109375 46.1875 
Q 21.34375 51.125 25.703125 53.5625 
Q 30.078125 56 35.796875 56 
Q 45.21875 56 50.046875 50.171875 
Q 54.890625 44.34375 54.890625 33.015625 
z
" id="DejaVuSans-110"/>
      <path d="M 37.109375 75.984375 
L 37.109375 68.5 
L 28.515625 68.5 
Q 23.6875 68.5 21.796875 66.546875 
Q 19.921875 64.59375 19.921875 59.515625 
L 19.921875 54.6875 
L 34.71875 54.6875 
L 34.71875 47.703125 
L 19.921875 47.703125 
L 19.921875 0 
L 10.890625 0 
L 10.890625 47.703125 
L 2.296875 47.703125 
L 2.296875 54.6875 
L 10.890625 54.6875 
L 10.890625 58.5 
Q 10.890625 67.625 15.140625 71.796875 
Q 19.390625 75.984375 28.609375 75.984375 
z
" id="DejaVuSans-102"/>
      <path d="M 8.5 21.578125 
L 8.5 54.6875 
L 17.484375 54.6875 
L 17.484375 21.921875 
Q 17.484375 14.15625 20.5 10.265625 
Q 23.53125 6.390625 29.59375 6.390625 
Q 36.859375 6.390625 41.078125 11.03125 
Q 45.3125 15.671875 45.3125 23.6875 
L 45.3125 54.6875 
L 54.296875 54.6875 
L 54.296875 0 
L 45.3125 0 
L 45.3125 8.40625 
Q 42.046875 3.421875 37.71875 1 
Q 33.40625 -1.421875 27.6875 -1.421875 
Q 18.265625 -1.421875 13.375 4.4375 
Q 8.5 10.296875 8.5 21.578125 
z
M 31.109375 56 
z
" id="DejaVuSans-117"/>
     </defs>
     <g transform="translate(18.398438 118.898745)rotate(-90)scale(0.1 -0.1)">
      <use xlink:href="#DejaVuSans-99"/>
      <use x="54.980469" xlink:href="#DejaVuSans-111"/>
      <use x="116.162109" xlink:href="#DejaVuSans-114"/>
      <use x="157.259766" xlink:href="#DejaVuSans-114"/>
      <use x="198.341797" xlink:href="#DejaVuSans-101"/>
      <use x="259.865234" xlink:href="#DejaVuSans-108"/>
      <use x="287.648438" xlink:href="#DejaVuSans-97"/>
      <use x="348.927734" xlink:href="#DejaVuSans-116"/>
      <use x="388.136719" xlink:href="#DejaVuSans-105"/>
      <use x="415.919922" xlink:href="#DejaVuSans-111"/>
      <use x="477.101562" xlink:href="#DejaVuSans-110"/>
      <use x="540.480469" xlink:href="#DejaVuSans-32"/>
      <use x="572.267578" xlink:href="#DejaVuSans-102"/>
      <use x="607.472656" xlink:href="#DejaVuSans-117"/>
      <use x="670.851562" xlink:href="#DejaVuSans-110"/>
      <use x="734.230469" xlink:href="#DejaVuSans-99"/>
      <use x="789.210938" xlink:href="#DejaVuSans-116"/>
      <use x="828.419922" xlink:href="#DejaVuSans-105"/>
      <use x="856.203125" xlink:href="#DejaVuSans-111"/>
      <use x="917.384766" xlink:href="#DejaVuSans-110"/>
     </g>
    </g>
   </g>
   <g id="line2d_19">
    <path clip-path="url(#p83199d0dd9)" d="M 51.937066 109.153579 
L 52.324085 109.678122 
L 52.582098 109.827488 
L 52.969118 110.429283 
L 53.098125 110.28781 
L 53.420641 109.799982 
L 53.614151 109.822496 
L 53.80766 109.487565 
L 54.259183 108.539861 
L 54.710706 108.006985 
L 54.904216 108.044018 
L 55.097726 107.732206 
L 55.549248 106.673846 
L 56.129778 105.333976 
L 56.387791 105.055273 
L 56.516797 105.050221 
L 56.839314 105.304747 
L 57.226333 105.085852 
L 57.548849 105.706846 
L 58.193882 107.548691 
L 59.161431 110.477851 
L 59.483947 111.37229 
L 60.32249 114.125011 
L 60.645006 114.362141 
L 60.838516 114.585784 
L 61.032025 114.60788 
L 61.483548 114.781261 
L 61.741561 114.893366 
L 62.128581 114.541849 
L 62.451097 114.262414 
L 62.644607 114.324469 
L 62.838117 114.372807 
L 63.354143 114.307553 
L 64.063679 114.960468 
L 64.644208 116.247194 
L 64.966724 116.533506 
L 65.160234 116.500885 
L 65.418247 116.401388 
L 65.998776 117.080595 
L 66.514803 117.742076 
L 66.772816 117.659835 
L 67.224338 117.528281 
L 67.353345 117.443949 
L 68.256391 116.04986 
L 68.385397 116.047177 
L 68.707913 116.301764 
L 68.901423 116.21466 
L 69.159436 115.61554 
L 69.481953 115.06018 
L 70.836521 113.115768 
L 71.41705 112.212265 
L 72.062083 112.015214 
L 72.384599 112.256843 
L 72.707116 112.157571 
L 73.223142 111.755917 
L 73.803671 111.432527 
L 73.997181 111.790682 
L 74.642213 112.993092 
L 74.96473 113.10051 
L 75.158239 113.28072 
L 75.416252 113.040673 
L 75.674265 112.776101 
L 75.867775 112.596718 
L 76.190292 111.954182 
L 76.448305 111.083412 
L 76.770821 110.076656 
L 77.093337 109.68154 
L 77.802873 110.025311 
L 78.383402 111.224024 
L 79.157441 111.571884 
L 80.253997 113.300301 
L 80.834526 113.114344 
L 81.608565 112.023792 
L 81.802075 111.989457 
L 82.189095 111.535539 
L 82.898631 110.510808 
L 83.027637 110.530382 
L 83.350153 110.732685 
L 83.995186 110.526588 
L 84.898232 112.060946 
L 85.543264 112.964755 
L 85.736774 112.678887 
L 86.05929 112.115761 
L 86.44631 111.914543 
L 86.897833 112.112839 
L 87.542865 113.133886 
L 87.736375 113.102966 
L 87.865382 113.101985 
L 88.510414 113.928841 
L 88.639421 114.01247 
L 89.21995 114.955592 
L 89.477963 115.148516 
L 90.381009 115.351609 
L 90.703525 115.176357 
L 91.219551 114.713556 
L 91.348558 114.835257 
L 91.671074 115.666351 
L 92.38061 116.949924 
L 92.961139 117.751201 
L 93.283655 118.130599 
L 93.541668 117.738705 
L 94.315708 115.748831 
L 94.509217 115.84355 
L 94.96074 116.22816 
L 95.734779 115.949874 
L 95.928289 115.943382 
L 96.250805 115.641029 
L 96.766831 114.956505 
L 97.089348 114.410489 
L 97.347361 114.263753 
L 97.605374 114.374612 
L 98.1214 114.765579 
L 98.443916 115.928524 
L 98.830936 117.44784 
L 99.217955 118.70621 
L 99.411465 118.911832 
L 99.604975 119.041532 
L 100.89504 120.273563 
L 101.217556 119.986817 
L 101.733582 119.211438 
L 102.701131 115.659817 
L 103.281661 113.717919 
L 104.442719 112.754518 
L 104.700732 112.760963 
L 105.797288 113.854846 
L 106.119804 114.407156 
L 106.571327 114.721939 
L 106.764837 114.589431 
L 107.216359 114.228152 
L 107.345366 114.387941 
L 108.183908 116.412047 
L 108.635431 116.244705 
L 108.957948 116.044069 
L 109.280464 116.431079 
L 109.60298 117.212383 
L 109.925496 118.021134 
L 110.248013 118.380367 
L 110.570529 118.395891 
L 111.022052 117.917234 
L 111.925097 115.429505 
L 112.312117 114.338507 
L 112.505627 114.103912 
L 112.828143 114.265598 
L 113.860195 116.003094 
L 114.118208 116.20556 
L 114.440725 116.40309 
L 114.763241 116.526922 
L 114.956751 116.30871 
L 115.15026 116.1816 
L 115.408273 116.10065 
L 116.053306 115.009727 
L 116.633835 115.122753 
L 116.891848 115.580368 
L 117.343371 117.419593 
L 117.859397 119.111038 
L 118.246417 119.666999 
L 118.439927 119.860159 
L 118.69794 120.585249 
L 119.342972 122.672763 
L 119.729992 123.226413 
L 120.117011 123.553286 
L 120.310521 123.47643 
L 120.955554 122.447227 
L 121.213567 121.932864 
L 121.407077 121.307217 
L 122.052109 118.691697 
L 122.826148 116.093661 
L 123.406678 114.813061 
L 124.05171 112.224339 
L 124.567736 109.171845 
L 125.148266 104.891799 
L 126.438331 91.786567 
L 126.889854 85.322758 
L 127.59939 72.548151 
L 128.502435 50.278512 
L 128.953958 33.303611 
L 129.147468 23.553223 
L 129.276474 16.169204 
L 129.405481 23.553223 
L 129.727997 39.161625 
L 130.502036 62.419927 
L 131.534088 83.268305 
L 132.308128 94.020418 
L 133.727199 107.48553 
L 134.565742 112.548077 
L 135.146271 114.813061 
L 136.500839 118.691697 
L 137.468388 122.250986 
L 137.790905 122.631945 
L 137.919911 122.770329 
L 138.371434 123.544111 
L 138.564944 123.49361 
L 139.27448 122.536739 
L 139.790506 120.835339 
L 140.177525 119.765871 
L 140.564545 119.348244 
L 140.887061 118.635627 
L 141.403087 116.557708 
L 141.790107 115.29535 
L 142.112623 115.017776 
L 142.370636 115.025615 
L 142.628649 115.077518 
L 142.822159 115.314624 
L 143.273682 116.157931 
L 143.596198 116.30871 
L 143.854211 116.544501 
L 144.112224 116.40309 
L 144.43474 116.20556 
L 144.82176 115.886329 
L 145.01527 115.65659 
L 145.724806 114.265598 
L 145.918315 114.121517 
L 146.111825 114.126993 
L 146.369838 114.611898 
L 146.692354 115.678994 
L 147.143877 116.914433 
L 147.78891 118.235661 
L 148.111426 118.421155 
L 148.433943 118.252383 
L 148.756459 117.794639 
L 149.078975 116.838857 
L 149.530498 116.098857 
L 149.724008 116.039605 
L 150.240034 116.359151 
L 150.433544 116.351992 
L 151.014073 114.975618 
L 151.336589 114.228152 
L 151.530099 114.33197 
L 152.046125 114.695333 
L 152.562151 114.250995 
L 153.078177 113.522594 
L 153.271687 113.373364 
L 153.91672 112.733032 
L 154.368242 112.803753 
L 154.819765 113.295117 
L 155.142282 113.621552 
L 155.335791 113.830919 
L 155.722811 115.135951 
L 156.625856 118.551909 
L 157.077379 119.769882 
L 157.464399 120.10829 
L 157.722412 120.270014 
L 157.915922 120.067088 
L 158.238438 119.75729 
L 158.367445 119.680642 
L 158.689961 119.244772 
L 159.334993 118.70621 
L 159.65751 117.728374 
L 160.431549 114.765579 
L 160.754065 114.491765 
L 161.270091 114.265071 
L 161.463601 114.410489 
L 161.721614 114.79213 
L 162.108634 115.505033 
L 162.366647 115.725789 
L 162.689163 115.973138 
L 163.334196 116.108515 
L 163.721215 116.24581 
L 163.979228 115.911991 
L 164.237241 115.748831 
L 164.430751 115.883871 
L 164.624261 116.357725 
L 165.20479 118.068329 
L 165.333797 118.133167 
L 165.59181 117.751201 
L 165.978829 117.100267 
L 166.236842 116.848242 
L 167.397901 114.743287 
L 168.17194 115.351609 
L 169.074986 115.148516 
L 169.332999 114.955592 
L 170.75207 113.069699 
L 171.010083 113.133886 
L 171.3326 112.893115 
L 171.913129 111.969369 
L 172.364652 112.036183 
L 172.622665 112.252038 
L 173.138691 112.994378 
L 173.332201 112.691267 
L 173.91273 111.568249 
L 174.686769 110.530832 
L 174.944782 110.574382 
L 175.396305 110.671654 
L 175.654318 110.510808 
L 176.041338 110.951471 
L 176.621867 111.864886 
L 176.87988 112.031049 
L 177.137893 112.106636 
L 177.2669 112.255516 
L 177.653919 113.014073 
L 177.911932 113.259742 
L 178.427958 113.279321 
L 178.685971 112.916579 
L 179.008488 112.434763 
L 179.524514 111.51301 
L 180.23405 111.179046 
L 180.492063 110.810919 
L 180.943585 109.794365 
L 181.137095 109.734851 
L 181.395108 109.704401 
L 181.588618 109.724127 
L 181.911134 110.353918 
L 182.685173 112.596718 
L 183.330206 113.251211 
L 183.459213 113.258774 
L 183.781729 112.98732 
L 183.975239 112.924451 
L 184.813781 111.414518 
L 185.265304 111.710278 
L 186.168349 112.256843 
L 186.361859 112.145943 
L 186.684376 111.969161 
L 187.006892 112.201216 
L 187.135898 112.212265 
L 187.716428 113.115768 
L 188.167951 113.882522 
L 188.55497 114.22211 
L 189.264506 115.313562 
L 189.845035 116.301764 
L 190.167552 116.047177 
L 190.296558 116.04986 
L 190.619074 116.386502 
L 190.812584 116.606676 
L 191.32861 117.528281 
L 191.586623 117.523886 
L 191.973643 117.748864 
L 192.231656 117.65468 
L 192.683179 116.86881 
L 192.941192 116.542147 
L 193.392715 116.500885 
L 193.650728 116.516828 
L 193.844237 116.344673 
L 194.29576 115.538831 
L 194.618277 114.769238 
L 195.134303 114.357771 
L 195.392316 114.253836 
L 196.359865 114.45015 
L 196.746884 114.852906 
L 196.940394 114.89441 
L 197.45642 114.622025 
L 197.84344 114.478073 
L 198.101453 114.185555 
L 198.294962 114.048734 
L 198.552975 113.254399 
L 199.456021 110.348727 
L 199.714034 109.698229 
L 201.004099 105.706846 
L 201.391119 105.04626 
L 201.584629 105.168537 
L 201.842642 105.319031 
L 202.165158 105.055273 
L 202.423171 105.333976 
L 202.939197 106.492097 
L 203.58423 107.977956 
L 203.777739 108.046953 
L 203.971249 108.044397 
L 205.067805 109.822858 
L 205.196811 109.822882 
L 205.583831 110.429283 
L 205.648334 110.371489 
L 206.16436 109.694189 
L 206.422373 109.536441 
L 206.615883 109.153579 
L 206.615883 109.153579 
" style="fill:none;stroke:#000000;stroke-linecap:square;"/>
   </g>
   <g id="line2d_20">
    <path clip-path="url(#p83199d0dd9)" d="M 51.937066 112.930369 
L 55.420242 112.95582 
L 58.903418 112.991602 
L 62.128581 113.024007 
L 65.418247 113.067366 
L 71.41705 113.165377 
L 74.3842 113.232429 
L 76.964331 113.297788 
L 79.415455 113.366631 
L 82.124591 113.467835 
L 84.382206 113.562766 
L 97.153851 114.62125 
L 99.088949 114.915061 
L 106.248811 116.545694 
L 107.990399 117.105642 
L 109.344967 117.573751 
L 110.764039 118.109716 
L 111.925097 118.535724 
L 113.086156 118.978766 
L 114.247215 119.35988 
L 115.085757 119.611972 
L 115.9243 119.807321 
L 118.246417 119.798337 
L 119.729992 119.049734 
L 120.117011 118.707077 
L 121.27807 117.172678 
L 121.794096 116.181569 
L 122.310122 114.951366 
L 122.890652 113.244567 
L 123.922704 109.064666 
L 124.890253 103.393601 
L 125.470782 98.960851 
L 126.373828 89.811654 
L 127.01886 81.297704 
L 127.857403 66.234371 
L 128.631442 46.041892 
L 129.147468 24.108468 
L 129.276474 16.747402 
L 129.405481 24.108468 
L 129.727997 39.541573 
L 130.502036 62.021083 
L 131.405082 79.205809 
L 132.114618 89.08205 
L 133.082167 98.960851 
L 134.114219 106.298567 
L 135.146271 111.355314 
L 136.178323 114.794181 
L 137.210375 117.073942 
L 138.306931 118.578005 
L 139.596996 119.533805 
L 141.338584 119.926933 
L 143.918714 119.493233 
L 145.660302 118.901091 
L 146.563348 118.567172 
L 147.659903 118.146151 
L 149.143478 117.603348 
L 150.240034 117.210632 
L 152.755661 116.417602 
L 153.91672 116.092708 
L 155.593804 115.676661 
L 156.948373 115.375398 
L 165.849823 114.118226 
L 168.36545 113.905112 
L 170.75207 113.747277 
L 173.783724 113.579703 
L 176.234847 113.47384 
L 178.427958 113.391705 
L 181.072592 113.312219 
L 185.39431 113.202296 
L 188.296957 113.147203 
L 193.844237 113.056621 
L 202.552177 112.963043 
L 205.841844 112.936304 
L 206.615883 112.930369 
L 206.615883 112.930369 
" style="fill:none;stroke:#ff0000;stroke-dasharray:3.7,1.6;stroke-dashoffset:0;"/>
   </g>
   <g id="patch_3">
    <path d="M 44.203125 128.92249 
L 44.203125 10.8 
" style="fill:none;stroke:#000000;stroke-linecap:square;stroke-linejoin:miter;stroke-width:0.8;"/>
   </g>
   <g id="patch_4">
    <path d="M 214.349824 128.92249 
L 214.349824 10.8 
" style="fill:none;stroke:#000000;stroke-linecap:square;stroke-linejoin:miter;stroke-width:0.8;"/>
   </g>
   <g id="patch_5">
    <path d="M 44.203125 128.92249 
L 214.349824 128.92249 
" style="fill:none;stroke:#000000;stroke-linecap:square;stroke-linejoin:miter;stroke-width:0.8;"/>
   </g>
   <g id="patch_6">
    <path d="M 44.203125 10.8 
L 214.349824 10.8 
" style="fill:none;stroke:#000000;stroke-linecap:square;stroke-linejoin:miter;stroke-width:0.8;"/>
   </g>
   <g id="legend_1">
    <g id="patch_7">
     <path d="M 134.795449 44.420625 
L 208.049824 44.420625 
Q 209.849824 44.420625 209.849824 42.620625 
L 209.849824 17.1 
Q 209.849824 15.3 208.049824 15.3 
L 134.795449 15.3 
Q 132.995449 15.3 132.995449 17.1 
L 132.995449 42.620625 
Q 132.995449 44.420625 134.795449 44.420625 
z
" style="fill:#ffffff;opacity:0.8;stroke:#cccccc;stroke-linejoin:miter;"/>
    </g>
    <g id="line2d_21">
     <path d="M 136.595449 22.588594 
L 154.595449 22.588594 
" style="fill:none;stroke:#000000;stroke-linecap:square;"/>
    </g>
    <g id="line2d_22"/>
    <g id="text_12">
     <!-- simulated -->
     <defs>
      <path d="M 52 44.1875 
Q 55.375 50.25 60.0625 53.125 
Q 64.75 56 71.09375 56 
Q 79.640625 56 84.28125 50.015625 
Q 88.921875 44.046875 88.921875 33.015625 
L 88.921875 0 
L 79.890625 0 
L 79.890625 32.71875 
Q 79.890625 40.578125 77.09375 44.375 
Q 74.3125 48.1875 68.609375 48.1875 
Q 61.625 48.1875 57.5625 43.546875 
Q 53.515625 38.921875 53.515625 30.90625 
L 53.515625 0 
L 44.484375 0 
L 44.484375 32.71875 
Q 44.484375 40.625 41.703125 44.40625 
Q 38.921875 48.1875 33.109375 48.1875 
Q 26.21875 48.1875 22.15625 43.53125 
Q 18.109375 38.875 18.109375 30.90625 
L 18.109375 0 
L 9.078125 0 
L 9.078125 54.6875 
L 18.109375 54.6875 
L 18.109375 46.1875 
Q 21.1875 51.21875 25.484375 53.609375 
Q 29.78125 56 35.6875 56 
Q 41.65625 56 45.828125 52.96875 
Q 50 49.953125 52 44.1875 
z
" id="DejaVuSans-109"/>
      <path d="M 45.40625 46.390625 
L 45.40625 75.984375 
L 54.390625 75.984375 
L 54.390625 0 
L 45.40625 0 
L 45.40625 8.203125 
Q 42.578125 3.328125 38.25 0.953125 
Q 33.9375 -1.421875 27.875 -1.421875 
Q 17.96875 -1.421875 11.734375 6.484375 
Q 5.515625 14.40625 5.515625 27.296875 
Q 5.515625 40.1875 11.734375 48.09375 
Q 17.96875 56 27.875 56 
Q 33.9375 56 38.25 53.625 
Q 42.578125 51.265625 45.40625 46.390625 
z
M 14.796875 27.296875 
Q 14.796875 17.390625 18.875 11.75 
Q 22.953125 6.109375 30.078125 6.109375 
Q 37.203125 6.109375 41.296875 11.75 
Q 45.40625 17.390625 45.40625 27.296875 
Q 45.40625 37.203125 41.296875 42.84375 
Q 37.203125 48.484375 30.078125 48.484375 
Q 22.953125 48.484375 18.875 42.84375 
Q 14.796875 37.203125 14.796875 27.296875 
z
" id="DejaVuSans-100"/>
     </defs>
     <g transform="translate(161.795449 25.738594)scale(0.09 -0.09)">
      <use xlink:href="#DejaVuSans-115"/>
      <use x="52.099609" xlink:href="#DejaVuSans-105"/>
      <use x="79.882812" xlink:href="#DejaVuSans-109"/>
      <use x="177.294922" xlink:href="#DejaVuSans-117"/>
      <use x="240.673828" xlink:href="#DejaVuSans-108"/>
      <use x="268.457031" xlink:href="#DejaVuSans-97"/>
      <use x="329.736328" xlink:href="#DejaVuSans-116"/>
      <use x="368.945312" xlink:href="#DejaVuSans-101"/>
      <use x="430.46875" xlink:href="#DejaVuSans-100"/>
     </g>
    </g>
    <g id="line2d_23">
     <path d="M 136.595449 35.798906 
L 154.595449 35.798906 
" style="fill:none;stroke:#ff0000;stroke-dasharray:3.7,1.6;stroke-dashoffset:0;"/>
    </g>
    <g id="line2d_24"/>
    <g id="text_13">
     <!-- target -->
     <defs>
      <path d="M 45.40625 27.984375 
Q 45.40625 37.75 41.375 43.109375 
Q 37.359375 48.484375 30.078125 48.484375 
Q 22.859375 48.484375 18.828125 43.109375 
Q 14.796875 37.75 14.796875 27.984375 
Q 14.796875 18.265625 18.828125 12.890625 
Q 22.859375 7.515625 30.078125 7.515625 
Q 37.359375 7.515625 41.375 12.890625 
Q 45.40625 18.265625 45.40625 27.984375 
z
M 54.390625 6.78125 
Q 54.390625 -7.171875 48.1875 -13.984375 
Q 42 -20.796875 29.203125 -20.796875 
Q 24.46875 -20.796875 20.265625 -20.09375 
Q 16.0625 -19.390625 12.109375 -17.921875 
L 12.109375 -9.1875 
Q 16.0625 -11.328125 19.921875 -12.34375 
Q 23.78125 -13.375 27.78125 -13.375 
Q 36.625 -13.375 41.015625 -8.765625 
Q 45.40625 -4.15625 45.40625 5.171875 
L 45.40625 9.625 
Q 42.625 4.78125 38.28125 2.390625 
Q 33.9375 0 27.875 0 
Q 17.828125 0 11.671875 7.65625 
Q 5.515625 15.328125 5.515625 27.984375 
Q 5.515625 40.671875 11.671875 48.328125 
Q 17.828125 56 27.875 56 
Q 33.9375 56 38.28125 53.609375 
Q 42.625 51.21875 45.40625 46.390625 
L 45.40625 54.6875 
L 54.390625 54.6875 
z
" id="DejaVuSans-103"/>
     </defs>
     <g transform="translate(161.795449 38.948906)scale(0.09 -0.09)">
      <use xlink:href="#DejaVuSans-116"/>
      <use x="39.208984" xlink:href="#DejaVuSans-97"/>
      <use x="100.488281" xlink:href="#DejaVuSans-114"/>
      <use x="141.585938" xlink:href="#DejaVuSans-103"/>
      <use x="205.0625" xlink:href="#DejaVuSans-101"/>
      <use x="266.585938" xlink:href="#DejaVuSans-116"/>
     </g>
    </g>
   </g>
  </g>
 </g>
 <defs>
  <clipPath id="p83199d0dd9">
   <rect height="118.12249" width="170.146699" x="44.203125" y="10.8"/>
  </clipPath>
 </defs>
</svg>
