<?xml version="1.0" encoding="utf-8" standalone="no"?>
<!DOCTYPE svg PUBLIC "-//W3C//DTD SVG 1.1//EN"
  "http://www.w3.org/Graphics/SVG/1.1/DTD/svg11.dtd">
<!-- Created with matplotlib (https://matplotlib.org/) -->
<svg height="170.07874pt" version="1.1" viewBox="0 0 226.771654 170.07874" width="226.771654pt" xmlns="http://www.w3.org/2000/svg" xmlns:xlink="http://www.w3.org/1999/xlink">
 <defs>
  <style type="text/css">
*{stroke-linecap:butt;stroke-linejoin:round;}
  </style>
 </defs>
 <g id="figure_1">
  <g id="patch_1">
   <path d="M 0 170.07874 
L 226.771654 170.07874 
L 226.771654 0 
L 0 0 
z
" style="fill:#ffffff;"/>
  </g>
  <g id="axes_1">
   <g id="patch_2">
    <path d="M 44.203125 128.92249 
L 214.349824 128.92249 
L 214.349824 10.8 
L 44.203125 10.8 
z
" style="fill:#ffffff;"/>
   </g>
   <g id="matplotlib.axis_1">
    <g id="xtick_1">
     <g id="line2d_1">
      <path clip-path="url(#p9c8897eccd)" d="M 51.872563 128.92249 
L 51.872563 10.8 
" style="fill:none;stroke:#b0b0b0;stroke-linecap:square;stroke-width:0.8;"/>
     </g>
     <g id="line2d_2">
      <defs>
       <path d="M 0 0 
L 0 3.5 
" id="m9b23bfbce1" style="stroke:#000000;stroke-width:0.8;"/>
      </defs>
      <g>
       <use style="stroke:#000000;stroke-width:0.8;" x="51.872563" xlink:href="#m9b23bfbce1" y="128.92249"/>
      </g>
     </g>
     <g id="text_1">
      <!-- −100 -->
      <defs>
       <path d="M 10.59375 35.5 
L 73.1875 35.5 
L 73.1875 27.203125 
L 10.59375 27.203125 
z
" id="DejaVuSans-8722"/>
       <path d="M 12.40625 8.296875 
L 28.515625 8.296875 
L 28.515625 63.921875 
L 10.984375 60.40625 
L 10.984375 69.390625 
L 28.421875 72.90625 
L 38.28125 72.90625 
L 38.28125 8.296875 
L 54.390625 8.296875 
L 54.390625 0 
L 12.40625 0 
z
" id="DejaVuSans-49"/>
       <path d="M 31.78125 66.40625 
Q 24.171875 66.40625 20.328125 58.90625 
Q 16.5 51.421875 16.5 36.375 
Q 16.5 21.390625 20.328125 13.890625 
Q 24.171875 6.390625 31.78125 6.390625 
Q 39.453125 6.390625 43.28125 13.890625 
Q 47.125 21.390625 47.125 36.375 
Q 47.125 51.421875 43.28125 58.90625 
Q 39.453125 66.40625 31.78125 66.40625 
z
M 31.78125 74.21875 
Q 44.046875 74.21875 50.515625 64.515625 
Q 56.984375 54.828125 56.984375 36.375 
Q 56.984375 17.96875 50.515625 8.265625 
Q 44.046875 -1.421875 31.78125 -1.421875 
Q 19.53125 -1.421875 13.0625 8.265625 
Q 6.59375 17.96875 6.59375 36.375 
Q 6.59375 54.828125 13.0625 64.515625 
Q 19.53125 74.21875 31.78125 74.21875 
z
" id="DejaVuSans-48"/>
      </defs>
      <g transform="translate(38.138969 143.520928)scale(0.1 -0.1)">
       <use xlink:href="#DejaVuSans-8722"/>
       <use x="83.789062" xlink:href="#DejaVuSans-49"/>
       <use x="147.412109" xlink:href="#DejaVuSans-48"/>
       <use x="211.035156" xlink:href="#DejaVuSans-48"/>
      </g>
     </g>
    </g>
    <g id="xtick_2">
     <g id="line2d_3">
      <path clip-path="url(#p9c8897eccd)" d="M 90.574518 128.92249 
L 90.574518 10.8 
" style="fill:none;stroke:#b0b0b0;stroke-linecap:square;stroke-width:0.8;"/>
     </g>
     <g id="line2d_4">
      <g>
       <use style="stroke:#000000;stroke-width:0.8;" x="90.574518" xlink:href="#m9b23bfbce1" y="128.92249"/>
      </g>
     </g>
     <g id="text_2">
      <!-- −50 -->
      <defs>
       <path d="M 10.796875 72.90625 
L 49.515625 72.90625 
L 49.515625 64.59375 
L 19.828125 64.59375 
L 19.828125 46.734375 
Q 21.96875 47.46875 24.109375 47.828125 
Q 26.265625 48.1875 28.421875 48.1875 
Q 40.625 48.1875 47.75 41.5 
Q 54.890625 34.8125 54.890625 23.390625 
Q 54.890625 11.625 47.5625 5.09375 
Q 40.234375 -1.421875 26.90625 -1.421875 
Q 22.3125 -1.421875 17.546875 -0.640625 
Q 12.796875 0.140625 7.71875 1.703125 
L 7.71875 11.625 
Q 12.109375 9.234375 16.796875 8.0625 
Q 21.484375 6.890625 26.703125 6.890625 
Q 35.15625 6.890625 40.078125 11.328125 
Q 45.015625 15.765625 45.015625 23.390625 
Q 45.015625 31 40.078125 35.4375 
Q 35.15625 39.890625 26.703125 39.890625 
Q 22.75 39.890625 18.8125 39.015625 
Q 14.890625 38.140625 10.796875 36.28125 
z
" id="DejaVuSans-53"/>
      </defs>
      <g transform="translate(80.022175 143.520928)scale(0.1 -0.1)">
       <use xlink:href="#DejaVuSans-8722"/>
       <use x="83.789062" xlink:href="#DejaVuSans-53"/>
       <use x="147.412109" xlink:href="#DejaVuSans-48"/>
      </g>
     </g>
    </g>
    <g id="xtick_3">
     <g id="line2d_5">
      <path clip-path="url(#p9c8897eccd)" d="M 129.276474 128.92249 
L 129.276474 10.8 
" style="fill:none;stroke:#b0b0b0;stroke-linecap:square;stroke-width:0.8;"/>
     </g>
     <g id="line2d_6">
      <g>
       <use style="stroke:#000000;stroke-width:0.8;" x="129.276474" xlink:href="#m9b23bfbce1" y="128.92249"/>
      </g>
     </g>
     <g id="text_3">
      <!-- 0 -->
      <g transform="translate(126.095224 143.520928)scale(0.1 -0.1)">
       <use xlink:href="#DejaVuSans-48"/>
      </g>
     </g>
    </g>
    <g id="xtick_4">
     <g id="line2d_7">
      <path clip-path="url(#p9c8897eccd)" d="M 167.97843 128.92249 
L 167.97843 10.8 
" style="fill:none;stroke:#b0b0b0;stroke-linecap:square;stroke-width:0.8;"/>
     </g>
     <g id="line2d_8">
      <g>
       <use style="stroke:#000000;stroke-width:0.8;" x="167.97843" xlink:href="#m9b23bfbce1" y="128.92249"/>
      </g>
     </g>
     <g id="text_4">
      <!-- 50 -->
      <g transform="translate(161.61593 143.520928)scale(0.1 -0.1)">
       <use xlink:href="#DejaVuSans-53"/>
       <use x="63.623047" xlink:href="#DejaVuSans-48"/>
      </g>
     </g>
    </g>
    <g id="xtick_5">
     <g id="line2d_9">
      <path clip-path="url(#p9c8897eccd)" d="M 206.680386 128.92249 
L 206.680386 10.8 
" style="fill:none;stroke:#b0b0b0;stroke-linecap:square;stroke-width:0.8;"/>
     </g>
     <g id="line2d_10">
      <g>
       <use style="stroke:#000000;stroke-width:0.8;" x="206.680386" xlink:href="#m9b23bfbce1" y="128.92249"/>
      </g>
     </g>
     <g id="text_5">
      <!-- 100 -->
      <g transform="translate(197.136636 143.520928)scale(0.1 -0.1)">
       <use xlink:href="#DejaVuSans-49"/>
       <use x="63.623047" xlink:href="#DejaVuSans-48"/>
       <use x="127.246094" xlink:href="#DejaVuSans-48"/>
      </g>
     </g>
    </g>
    <g id="text_6">
     <!-- $\tau$ (s) -->
     <defs>
      <path d="M 32.859375 9.96875 
Q 34.1875 7.625 39.453125 7.625 
L 43.75 7.625 
L 42.28125 0 
L 36.921875 0 
Q 28.125 0 25 4.6875 
Q 21.921875 9.46875 23.96875 19.828125 
L 29 45.703125 
L 8.453125 45.703125 
L 10.203125 54.6875 
L 60.640625 54.6875 
L 58.890625 45.703125 
L 38.1875 45.703125 
L 33.015625 19.28125 
Q 31.640625 12.203125 32.859375 9.96875 
z
" id="DejaVuSans-Oblique-964"/>
      <path id="DejaVuSans-32"/>
      <path d="M 31 75.875 
Q 24.46875 64.65625 21.28125 53.65625 
Q 18.109375 42.671875 18.109375 31.390625 
Q 18.109375 20.125 21.3125 9.0625 
Q 24.515625 -2 31 -13.1875 
L 23.1875 -13.1875 
Q 15.875 -1.703125 12.234375 9.375 
Q 8.59375 20.453125 8.59375 31.390625 
Q 8.59375 42.28125 12.203125 53.3125 
Q 15.828125 64.359375 23.1875 75.875 
z
" id="DejaVuSans-40"/>
      <path d="M 44.28125 53.078125 
L 44.28125 44.578125 
Q 40.484375 46.53125 36.375 47.5 
Q 32.28125 48.484375 27.875 48.484375 
Q 21.1875 48.484375 17.84375 46.4375 
Q 14.5 44.390625 14.5 40.28125 
Q 14.5 37.15625 16.890625 35.375 
Q 19.28125 33.59375 26.515625 31.984375 
L 29.59375 31.296875 
Q 39.15625 29.25 43.1875 25.515625 
Q 47.21875 21.78125 47.21875 15.09375 
Q 47.21875 7.46875 41.1875 3.015625 
Q 35.15625 -1.421875 24.609375 -1.421875 
Q 20.21875 -1.421875 15.453125 -0.5625 
Q 10.6875 0.296875 5.421875 2 
L 5.421875 11.28125 
Q 10.40625 8.6875 15.234375 7.390625 
Q 20.0625 6.109375 24.8125 6.109375 
Q 31.15625 6.109375 34.5625 8.28125 
Q 37.984375 10.453125 37.984375 14.40625 
Q 37.984375 18.0625 35.515625 20.015625 
Q 33.0625 21.96875 24.703125 23.78125 
L 21.578125 24.515625 
Q 13.234375 26.265625 9.515625 29.90625 
Q 5.8125 33.546875 5.8125 39.890625 
Q 5.8125 47.609375 11.28125 51.796875 
Q 16.75 56 26.8125 56 
Q 31.78125 56 36.171875 55.265625 
Q 40.578125 54.546875 44.28125 53.078125 
z
" id="DejaVuSans-115"/>
      <path d="M 8.015625 75.875 
L 15.828125 75.875 
Q 23.140625 64.359375 26.78125 53.3125 
Q 30.421875 42.28125 30.421875 31.390625 
Q 30.421875 20.453125 26.78125 9.375 
Q 23.140625 -1.703125 15.828125 -13.1875 
L 8.015625 -13.1875 
Q 14.5 -2 17.703125 9.0625 
Q 20.90625 20.125 20.90625 31.390625 
Q 20.90625 42.671875 17.703125 53.65625 
Q 14.5 64.65625 8.015625 75.875 
z
" id="DejaVuSans-41"/>
     </defs>
     <g transform="translate(118.126474 157.199053)scale(0.1 -0.1)">
      <use transform="translate(0 0.125)" xlink:href="#DejaVuSans-Oblique-964"/>
      <use transform="translate(60.205078 0.125)" xlink:href="#DejaVuSans-32"/>
      <use transform="translate(91.992188 0.125)" xlink:href="#DejaVuSans-40"/>
      <use transform="translate(131.005859 0.125)" xlink:href="#DejaVuSans-115"/>
      <use transform="translate(183.105469 0.125)" xlink:href="#DejaVuSans-41"/>
     </g>
    </g>
   </g>
   <g id="matplotlib.axis_2">
    <g id="ytick_1">
     <g id="line2d_11">
      <path clip-path="url(#p9c8897eccd)" d="M 44.203125 113.890279 
L 214.349824 113.890279 
" style="fill:none;stroke:#b0b0b0;stroke-linecap:square;stroke-width:0.8;"/>
     </g>
     <g id="line2d_12">
      <defs>
       <path d="M 0 0 
L -3.5 0 
" id="mdaca6a38b1" style="stroke:#000000;stroke-width:0.8;"/>
      </defs>
      <g>
       <use style="stroke:#000000;stroke-width:0.8;" x="44.203125" xlink:href="#mdaca6a38b1" y="113.890279"/>
      </g>
     </g>
     <g id="text_7">
      <!-- 0 -->
      <g transform="translate(30.840625 117.689498)scale(0.1 -0.1)">
       <use xlink:href="#DejaVuSans-48"/>
      </g>
     </g>
    </g>
    <g id="ytick_2">
     <g id="line2d_13">
      <path clip-path="url(#p9c8897eccd)" d="M 44.203125 84.998724 
L 214.349824 84.998724 
" style="fill:none;stroke:#b0b0b0;stroke-linecap:square;stroke-width:0.8;"/>
     </g>
     <g id="line2d_14">
      <g>
       <use style="stroke:#000000;stroke-width:0.8;" x="44.203125" xlink:href="#mdaca6a38b1" y="84.998724"/>
      </g>
     </g>
     <g id="text_8">
      <!-- 5 -->
      <g transform="translate(30.840625 88.797943)scale(0.1 -0.1)">
       <use xlink:href="#DejaVuSans-53"/>
      </g>
     </g>
    </g>
    <g id="ytick_3">
     <g id="line2d_15">
      <path clip-path="url(#p9c8897eccd)" d="M 44.203125 56.107169 
L 214.349824 56.107169 
" style="fill:none;stroke:#b0b0b0;stroke-linecap:square;stroke-width:0.8;"/>
     </g>
     <g id="line2d_16">
      <g>
       <use style="stroke:#000000;stroke-width:0.8;" x="44.203125" xlink:href="#mdaca6a38b1" y="56.107169"/>
      </g>
     </g>
     <g id="text_9">
      <!-- 10 -->
      <g transform="translate(24.478125 59.906388)scale(0.1 -0.1)">
       <use xlink:href="#DejaVuSans-49"/>
       <use x="63.623047" xlink:href="#DejaVuSans-48"/>
      </g>
     </g>
    </g>
    <g id="ytick_4">
     <g id="line2d_17">
      <path clip-path="url(#p9c8897eccd)" d="M 44.203125 27.215615 
L 214.349824 27.215615 
" style="fill:none;stroke:#b0b0b0;stroke-linecap:square;stroke-width:0.8;"/>
     </g>
     <g id="line2d_18">
      <g>
       <use style="stroke:#000000;stroke-width:0.8;" x="44.203125" xlink:href="#mdaca6a38b1" y="27.215615"/>
      </g>
     </g>
     <g id="text_10">
      <!-- 15 -->
      <g transform="translate(24.478125 31.014833)scale(0.1 -0.1)">
       <use xlink:href="#DejaVuSans-49"/>
       <use x="63.623047" xlink:href="#DejaVuSans-53"/>
      </g>
     </g>
    </g>
    <g id="text_11">
     <!-- correlation function -->
     <defs>
      <path d="M 48.78125 52.59375 
L 48.78125 44.1875 
Q 44.96875 46.296875 41.140625 47.34375 
Q 37.3125 48.390625 33.40625 48.390625 
Q 24.65625 48.390625 19.8125 42.84375 
Q 14.984375 37.3125 14.984375 27.296875 
Q 14.984375 17.28125 19.8125 11.734375 
Q 24.65625 6.203125 33.40625 6.203125 
Q 37.3125 6.203125 41.140625 7.25 
Q 44.96875 8.296875 48.78125 10.40625 
L 48.78125 2.09375 
Q 45.015625 0.34375 40.984375 -0.53125 
Q 36.96875 -1.421875 32.421875 -1.421875 
Q 20.0625 -1.421875 12.78125 6.34375 
Q 5.515625 14.109375 5.515625 27.296875 
Q 5.515625 40.671875 12.859375 48.328125 
Q 20.21875 56 33.015625 56 
Q 37.15625 56 41.109375 55.140625 
Q 45.0625 54.296875 48.78125 52.59375 
z
" id="DejaVuSans-99"/>
      <path d="M 30.609375 48.390625 
Q 23.390625 48.390625 19.1875 42.75 
Q 14.984375 37.109375 14.984375 27.296875 
Q 14.984375 17.484375 19.15625 11.84375 
Q 23.34375 6.203125 30.609375 6.203125 
Q 37.796875 6.203125 41.984375 11.859375 
Q 46.1875 17.53125 46.1875 27.296875 
Q 46.1875 37.015625 41.984375 42.703125 
Q 37.796875 48.390625 30.609375 48.390625 
z
M 30.609375 56 
Q 42.328125 56 49.015625 48.375 
Q 55.71875 40.765625 55.71875 27.296875 
Q 55.71875 13.875 49.015625 6.21875 
Q 42.328125 -1.421875 30.609375 -1.421875 
Q 18.84375 -1.421875 12.171875 6.21875 
Q 5.515625 13.875 5.515625 27.296875 
Q 5.515625 40.765625 12.171875 48.375 
Q 18.84375 56 30.609375 56 
z
" id="DejaVuSans-111"/>
      <path d="M 41.109375 46.296875 
Q 39.59375 47.171875 37.8125 47.578125 
Q 36.03125 48 33.890625 48 
Q 26.265625 48 22.1875 43.046875 
Q 18.109375 38.09375 18.109375 28.8125 
L 18.109375 0 
L 9.078125 0 
L 9.078125 54.6875 
L 18.109375 54.6875 
L 18.109375 46.1875 
Q 20.953125 51.171875 25.484375 53.578125 
Q 30.03125 56 36.53125 56 
Q 37.453125 56 38.578125 55.875 
Q 39.703125 55.765625 41.0625 55.515625 
z
" id="DejaVuSans-114"/>
      <path d="M 56.203125 29.59375 
L 56.203125 25.203125 
L 14.890625 25.203125 
Q 15.484375 15.921875 20.484375 11.0625 
Q 25.484375 6.203125 34.421875 6.203125 
Q 39.59375 6.203125 44.453125 7.46875 
Q 49.3125 8.734375 54.109375 11.28125 
L 54.109375 2.78125 
Q 49.265625 0.734375 44.1875 -0.34375 
Q 39.109375 -1.421875 33.890625 -1.421875 
Q 20.796875 -1.421875 13.15625 6.1875 
Q 5.515625 13.8125 5.515625 26.8125 
Q 5.515625 40.234375 12.765625 48.109375 
Q 20.015625 56 32.328125 56 
Q 43.359375 56 49.78125 48.890625 
Q 56.203125 41.796875 56.203125 29.59375 
z
M 47.21875 32.234375 
Q 47.125 39.59375 43.09375 43.984375 
Q 39.0625 48.390625 32.421875 48.390625 
Q 24.90625 48.390625 20.390625 44.140625 
Q 15.875 39.890625 15.1875 32.171875 
z
" id="DejaVuSans-101"/>
      <path d="M 9.421875 75.984375 
L 18.40625 75.984375 
L 18.40625 0 
L 9.421875 0 
z
" id="DejaVuSans-108"/>
      <path d="M 34.28125 27.484375 
Q 23.390625 27.484375 19.1875 25 
Q 14.984375 22.515625 14.984375 16.5 
Q 14.984375 11.71875 18.140625 8.90625 
Q 21.296875 6.109375 26.703125 6.109375 
Q 34.1875 6.109375 38.703125 11.40625 
Q 43.21875 16.703125 43.21875 25.484375 
L 43.21875 27.484375 
z
M 52.203125 31.203125 
L 52.203125 0 
L 43.21875 0 
L 43.21875 8.296875 
Q 40.140625 3.328125 35.546875 0.953125 
Q 30.953125 -1.421875 24.3125 -1.421875 
Q 15.921875 -1.421875 10.953125 3.296875 
Q 6 8.015625 6 15.921875 
Q 6 25.140625 12.171875 29.828125 
Q 18.359375 34.515625 30.609375 34.515625 
L 43.21875 34.515625 
L 43.21875 35.40625 
Q 43.21875 41.609375 39.140625 45 
Q 35.0625 48.390625 27.6875 48.390625 
Q 23 48.390625 18.546875 47.265625 
Q 14.109375 46.140625 10.015625 43.890625 
L 10.015625 52.203125 
Q 14.9375 54.109375 19.578125 55.046875 
Q 24.21875 56 28.609375 56 
Q 40.484375 56 46.34375 49.84375 
Q 52.203125 43.703125 52.203125 31.203125 
z
" id="DejaVuSans-97"/>
      <path d="M 18.3125 70.21875 
L 18.3125 54.6875 
L 36.8125 54.6875 
L 36.8125 47.703125 
L 18.3125 47.703125 
L 18.3125 18.015625 
Q 18.3125 11.328125 20.140625 9.421875 
Q 21.96875 7.515625 27.59375 7.515625 
L 36.8125 7.515625 
L 36.8125 0 
L 27.59375 0 
Q 17.1875 0 13.234375 3.875 
Q 9.28125 7.765625 9.28125 18.015625 
L 9.28125 47.703125 
L 2.6875 47.703125 
L 2.6875 54.6875 
L 9.28125 54.6875 
L 9.28125 70.21875 
z
" id="DejaVuSans-116"/>
      <path d="M 9.421875 54.6875 
L 18.40625 54.6875 
L 18.40625 0 
L 9.421875 0 
z
M 9.421875 75.984375 
L 18.40625 75.984375 
L 18.40625 64.59375 
L 9.421875 64.59375 
z
" id="DejaVuSans-105"/>
      <path d="M 54.890625 33.015625 
L 54.890625 0 
L 45.90625 0 
L 45.90625 32.71875 
Q 45.90625 40.484375 42.875 44.328125 
Q 39.84375 48.1875 33.796875 48.1875 
Q 26.515625 48.1875 22.3125 43.546875 
Q 18.109375 38.921875 18.109375 30.90625 
L 18.109375 0 
L 9.078125 0 
L 9.078125 54.6875 
L 18.109375 54.6875 
L 18.109375 46.1875 
Q 21.34375 51.125 25.703125 53.5625 
Q 30.078125 56 35.796875 56 
Q 45.21875 56 50.046875 50.171875 
Q 54.890625 44.34375 54.890625 33.015625 
z
" id="DejaVuSans-110"/>
      <path d="M 37.109375 75.984375 
L 37.109375 68.5 
L 28.515625 68.5 
Q 23.6875 68.5 21.796875 66.546875 
Q 19.921875 64.59375 19.921875 59.515625 
L 19.921875 54.6875 
L 34.71875 54.6875 
L 34.71875 47.703125 
L 19.921875 47.703125 
L 19.921875 0 
L 10.890625 0 
L 10.890625 47.703125 
L 2.296875 47.703125 
L 2.296875 54.6875 
L 10.890625 54.6875 
L 10.890625 58.5 
Q 10.890625 67.625 15.140625 71.796875 
Q 19.390625 75.984375 28.609375 75.984375 
z
" id="DejaVuSans-102"/>
      <path d="M 8.5 21.578125 
L 8.5 54.6875 
L 17.484375 54.6875 
L 17.484375 21.921875 
Q 17.484375 14.15625 20.5 10.265625 
Q 23.53125 6.390625 29.59375 6.390625 
Q 36.859375 6.390625 41.078125 11.03125 
Q 45.3125 15.671875 45.3125 23.6875 
L 45.3125 54.6875 
L 54.296875 54.6875 
L 54.296875 0 
L 45.3125 0 
L 45.3125 8.40625 
Q 42.046875 3.421875 37.71875 1 
Q 33.40625 -1.421875 27.6875 -1.421875 
Q 18.265625 -1.421875 13.375 4.4375 
Q 8.5 10.296875 8.5 21.578125 
z
M 31.109375 56 
z
" id="DejaVuSans-117"/>
     </defs>
     <g transform="translate(18.398438 118.898745)rotate(-90)scale(0.1 -0.1)">
      <use xlink:href="#DejaVuSans-99"/>
      <use x="54.980469" xlink:href="#DejaVuSans-111"/>
      <use x="116.162109" xlink:href="#DejaVuSans-114"/>
      <use x="157.259766" xlink:href="#DejaVuSans-114"/>
      <use x="198.341797" xlink:href="#DejaVuSans-101"/>
      <use x="259.865234" xlink:href="#DejaVuSans-108"/>
      <use x="287.648438" xlink:href="#DejaVuSans-97"/>
      <use x="348.927734" xlink:href="#DejaVuSans-116"/>
      <use x="388.136719" xlink:href="#DejaVuSans-105"/>
      <use x="415.919922" xlink:href="#DejaVuSans-111"/>
      <use x="477.101562" xlink:href="#DejaVuSans-110"/>
      <use x="540.480469" xlink:href="#DejaVuSans-32"/>
      <use x="572.267578" xlink:href="#DejaVuSans-102"/>
      <use x="607.472656" xlink:href="#DejaVuSans-117"/>
      <use x="670.851562" xlink:href="#DejaVuSans-110"/>
      <use x="734.230469" xlink:href="#DejaVuSans-99"/>
      <use x="789.210938" xlink:href="#DejaVuSans-116"/>
      <use x="828.419922" xlink:href="#DejaVuSans-105"/>
      <use x="856.203125" xlink:href="#DejaVuSans-111"/>
      <use x="917.384766" xlink:href="#DejaVuSans-110"/>
     </g>
    </g>
   </g>
   <g id="line2d_19">
    <path clip-path="url(#p9c8897eccd)" d="M 51.937066 110.02791 
L 52.324085 110.56205 
L 52.582098 110.712502 
L 52.969118 111.325658 
L 53.098125 111.18386 
L 53.420641 110.694204 
L 53.614151 110.721385 
L 53.80766 110.38431 
L 54.259183 109.433653 
L 54.710706 108.906908 
L 54.904216 108.950594 
L 55.097726 108.639238 
L 55.549248 107.582569 
L 56.129778 106.24491 
L 56.387791 105.9691 
L 56.516797 105.966814 
L 56.839314 106.234136 
L 57.226333 106.015602 
L 57.548849 106.643263 
L 58.193882 108.50142 
L 59.161431 111.456303 
L 59.483947 112.355844 
L 60.32249 115.138339 
L 60.645006 115.377398 
L 60.838516 115.605867 
L 61.032025 115.630501 
L 61.161032 115.606146 
L 61.290039 115.579606 
L 61.677058 115.953729 
L 61.935071 115.779741 
L 62.5156 115.299334 
L 63.031627 115.35575 
L 63.225136 115.326695 
L 63.483149 115.499988 
L 63.805666 115.786976 
L 63.999175 115.912895 
L 64.257188 116.621067 
L 64.708711 117.436611 
L 64.966724 117.628366 
L 65.160234 117.596351 
L 65.418247 117.496558 
L 65.998776 118.195951 
L 66.514803 118.875467 
L 66.772816 118.796233 
L 67.224338 118.675063 
L 67.353345 118.59473 
L 68.256391 117.220384 
L 68.385397 117.222512 
L 68.707913 117.494936 
L 68.901423 117.416352 
L 69.159436 116.822643 
L 69.481953 116.27786 
L 70.772018 114.514918 
L 71.159037 113.904687 
L 71.546057 113.464874 
L 71.739567 113.382856 
L 71.99758 113.227813 
L 72.449102 113.52865 
L 72.707116 113.436472 
L 73.223142 113.032453 
L 73.803671 112.702613 
L 73.997181 113.064207 
L 74.642213 114.278713 
L 74.96473 114.387719 
L 75.158239 114.571288 
L 75.351749 114.419562 
L 76.319298 112.882403 
L 76.835324 111.219918 
L 77.093337 110.951084 
L 77.802873 111.302188 
L 78.383402 112.51426 
L 79.157441 112.858704 
L 80.253997 114.605515 
L 80.834526 114.425158 
L 81.608565 113.34414 
L 81.802075 113.31518 
L 82.189095 112.862345 
L 82.898631 111.835319 
L 83.027637 111.858378 
L 83.350153 112.069964 
L 83.995186 111.869319 
L 84.898232 113.426794 
L 85.543264 114.344797 
L 85.736774 114.053941 
L 86.05929 113.481895 
L 86.44631 113.279989 
L 86.897833 113.481691 
L 87.542865 114.519507 
L 87.736375 114.489132 
L 87.865382 114.488557 
L 88.510414 115.329539 
L 88.639421 115.41377 
L 89.21995 116.365992 
L 89.477963 116.559464 
L 90.381009 116.767307 
L 90.639022 116.661353 
L 91.219551 116.123537 
L 91.348558 116.246019 
L 91.671074 117.085104 
L 92.38061 118.372807 
L 92.961139 119.177041 
L 93.283655 119.559604 
L 93.541668 119.1649 
L 94.315708 117.153483 
L 94.509217 117.249775 
L 94.96074 117.635592 
L 95.734779 117.342508 
L 95.928289 117.335094 
L 96.250805 117.027271 
L 96.766831 116.331585 
L 97.089348 115.776919 
L 97.347361 115.624377 
L 97.605374 115.729056 
L 98.1214 116.104973 
L 98.443916 117.268691 
L 98.830936 118.789643 
L 99.217955 120.046216 
L 99.411465 120.245542 
L 99.540472 120.29165 
L 99.927491 120.60371 
L 100.056498 120.740366 
L 100.314511 121.070765 
L 100.572524 121.280397 
L 100.89504 121.585963 
L 101.217556 121.294723 
L 101.733582 120.515503 
L 102.701131 116.935156 
L 103.281661 114.980656 
L 104.442719 114.01211 
L 104.700732 114.015923 
L 105.797288 115.093491 
L 106.119804 115.63869 
L 106.571327 115.932782 
L 106.764837 115.786773 
L 107.216359 115.39335 
L 107.345366 115.547588 
L 108.183908 117.546132 
L 108.635431 117.346677 
L 108.957948 117.116539 
L 109.280464 117.481136 
L 109.60298 118.242066 
L 109.925496 119.031897 
L 110.248013 119.369122 
L 110.570529 119.360999 
L 111.022052 118.845208 
L 111.989601 116.023224 
L 112.37662 115.00477 
L 112.57013 114.889574 
L 112.76364 114.939127 
L 113.021653 115.427336 
L 113.666685 116.52984 
L 114.698738 117.144403 
L 114.892247 116.988276 
L 115.15026 116.729125 
L 115.408273 116.621957 
L 116.053306 115.441379 
L 116.633835 115.479874 
L 116.891848 115.906936 
L 117.278868 117.439994 
L 117.794894 119.21292 
L 118.181914 119.781728 
L 118.568933 120.284339 
L 119.665489 123.192761 
L 120.117011 123.553286 
L 120.310521 123.461195 
L 120.955554 122.382799 
L 121.213567 121.854245 
L 121.407077 121.216216 
L 122.052109 118.568592 
L 122.826148 115.966972 
L 123.406678 114.707932 
L 124.05171 112.155133 
L 124.503233 109.571436 
L 125.277272 103.606582 
L 126.051311 96.139608 
L 126.760847 87.711367 
L 127.663893 71.518602 
L 128.308925 56.475777 
L 128.889455 36.670342 
L 129.276474 16.257083 
L 129.340978 18.627644 
L 129.663494 36.670342 
L 130.115017 52.568883 
L 130.695546 67.279593 
L 131.340579 80.182547 
L 132.243624 93.439424 
L 132.888657 99.613764 
L 133.469186 105.471076 
L 133.920709 108.735858 
L 134.759251 113.267289 
L 135.275278 115.031073 
L 135.7268 115.966972 
L 135.984813 116.684937 
L 136.629846 119.123806 
L 137.468388 122.179791 
L 137.790905 122.577899 
L 137.919911 122.724797 
L 138.371434 123.538911 
L 138.564944 123.503441 
L 139.27448 122.610935 
L 139.790506 120.953251 
L 140.113022 120.01056 
L 140.887061 118.886198 
L 141.403087 116.859758 
L 141.790107 115.636868 
L 142.112623 115.398935 
L 142.306133 115.416835 
L 142.757656 115.653611 
L 143.338185 116.707359 
L 143.596198 116.877703 
L 143.854211 117.144403 
L 144.112224 117.028562 
L 144.43474 116.861721 
L 144.757257 116.633848 
L 145.079773 116.217494 
L 145.724806 115.021329 
L 145.918315 114.892013 
L 146.111825 114.913496 
L 146.369838 115.425764 
L 146.692354 116.529294 
L 147.143877 117.805168 
L 147.78891 119.184349 
L 148.111426 119.395836 
L 148.433943 119.249975 
L 148.756459 118.814101 
L 149.014472 118.033905 
L 149.401491 117.320021 
L 149.659504 117.099405 
L 149.853014 117.267593 
L 150.111027 117.468798 
L 150.498047 117.362895 
L 151.401092 115.407082 
L 151.852615 115.863608 
L 152.046125 115.909591 
L 152.562151 115.486559 
L 153.078177 114.769991 
L 153.271687 114.624993 
L 153.91672 113.988498 
L 154.368242 114.062637 
L 154.819765 114.558007 
L 155.142282 114.885221 
L 155.335791 115.093959 
L 155.722811 116.407322 
L 156.561353 119.665879 
L 157.141883 121.116133 
L 157.464399 121.417664 
L 157.722412 121.582811 
L 157.915922 121.378828 
L 158.238438 121.070765 
L 158.367445 120.996655 
L 158.689961 120.564023 
L 159.334993 120.046216 
L 159.65751 119.071093 
L 160.431549 116.104973 
L 160.754065 115.841197 
L 161.270091 115.627182 
L 161.463601 115.776919 
L 161.721614 116.164591 
L 162.108634 116.889007 
L 162.366647 117.113505 
L 162.689163 117.365332 
L 163.269692 117.452038 
L 163.592209 117.635592 
L 163.785718 117.605206 
L 164.237241 117.153483 
L 164.430751 117.289457 
L 164.624261 117.768713 
L 165.140287 119.407026 
L 165.333797 119.562177 
L 165.59181 119.177041 
L 165.978829 118.521448 
L 166.172339 118.372807 
L 166.881875 117.085104 
L 167.333398 116.123537 
L 167.591411 116.357401 
L 168.17194 116.767307 
L 169.074986 116.559464 
L 169.332999 116.365992 
L 170.816574 114.489132 
L 171.010083 114.519507 
L 171.3326 114.274194 
L 171.913129 113.336126 
L 172.364652 113.401902 
L 172.622665 113.619995 
L 173.138691 114.375226 
L 173.332201 114.06763 
L 173.91273 112.925392 
L 174.686769 111.872485 
L 174.944782 111.913111 
L 175.396305 112.004385 
L 175.654318 111.835319 
L 176.041338 112.275486 
L 176.621867 113.191366 
L 176.87988 113.35364 
L 177.137893 113.422134 
L 177.2669 113.568488 
L 177.653919 114.325464 
L 177.911932 114.568572 
L 178.427958 114.583062 
L 178.685971 114.21447 
L 179.008488 113.729135 
L 179.524514 112.8011 
L 179.84703 112.59324 
L 180.363056 112.333488 
L 180.556566 111.910976 
L 180.879082 111.142873 
L 181.137095 111.007752 
L 181.395108 110.975191 
L 181.588618 110.991163 
L 181.911134 111.620745 
L 182.685173 113.881316 
L 183.330206 114.541576 
L 183.459213 114.548799 
L 183.781729 114.272416 
L 183.975239 114.209274 
L 184.813781 112.684884 
L 185.265304 112.986036 
L 186.168349 113.535148 
L 186.361859 113.421417 
L 186.684376 113.23601 
L 187.006892 113.464874 
L 187.135898 113.472538 
L 187.716428 114.370113 
L 188.167951 115.131048 
L 188.55497 115.456389 
L 189.264506 116.523656 
L 189.845035 117.494936 
L 190.167552 117.222512 
L 190.296558 117.220384 
L 190.619074 117.548491 
L 190.812584 117.762978 
L 191.32861 118.675063 
L 191.586623 118.662119 
L 191.973643 118.88353 
L 192.231656 118.7845 
L 192.683179 117.978556 
L 192.941192 117.642083 
L 193.392715 117.596351 
L 193.650728 117.611109 
L 193.844237 117.436611 
L 194.29576 116.621067 
L 194.618277 115.841182 
L 195.069799 115.499988 
L 195.327812 115.326695 
L 195.521322 115.35575 
L 195.843838 115.428654 
L 196.101851 115.311332 
L 196.295361 115.402682 
L 196.746884 115.895915 
L 196.940394 115.933786 
L 197.45642 115.646028 
L 197.84344 115.495405 
L 198.101453 115.198847 
L 198.294962 115.061118 
L 198.552975 114.256333 
L 199.456021 111.32674 
L 199.714034 110.671243 
L 201.004099 106.643263 
L 201.391119 105.975426 
L 201.584629 106.098139 
L 201.842642 106.245698 
L 202.165158 105.9691 
L 202.423171 106.24491 
L 202.939197 107.400768 
L 203.519726 108.774476 
L 203.713236 108.970757 
L 203.971249 108.940804 
L 205.067805 110.718804 
L 205.196811 110.716398 
L 205.583831 111.325658 
L 205.648334 111.266036 
L 206.16436 110.57849 
L 206.422373 110.417444 
L 206.615883 110.02791 
L 206.615883 110.02791 
" style="fill:none;stroke:#000000;stroke-linecap:square;"/>
   </g>
   <g id="line2d_20">
    <path clip-path="url(#p9c8897eccd)" d="M 51.937066 114.077238 
L 55.420242 114.10268 
L 58.903418 114.138532 
L 62.128581 114.170851 
L 65.353744 114.215604 
L 68.320894 114.256721 
L 71.352547 114.311416 
L 76.319298 114.420837 
L 79.092938 114.500684 
L 83.027637 114.638373 
L 85.543264 114.751896 
L 88.703924 114.923728 
L 91.155048 115.097296 
L 92.896636 115.236224 
L 102.894641 116.590265 
L 104.636229 116.963921 
L 106.055301 117.302274 
L 108.248412 117.881099 
L 109.60298 118.263286 
L 110.828542 118.62806 
L 112.18311 119.013544 
L 113.150659 119.280516 
L 114.827744 119.646631 
L 115.666287 119.763873 
L 118.052907 119.546528 
L 119.536482 118.744792 
L 120.826547 117.292758 
L 121.923103 115.218976 
L 122.955155 112.287438 
L 123.922704 108.342412 
L 124.890253 102.719042 
L 125.470782 98.341132 
L 126.373828 89.310996 
L 127.01886 80.903101 
L 127.857403 65.965171 
L 128.566938 48.022042 
L 129.082965 28.117 
L 129.276474 16.169204 
L 129.405481 23.65057 
L 129.727997 39.257905 
L 130.502036 61.773324 
L 131.405082 78.83068 
L 132.114618 88.592114 
L 133.082167 98.341132 
L 134.114219 105.595502 
L 135.146271 110.627782 
L 136.178323 114.092674 
L 137.274879 116.541354 
L 138.50044 118.265966 
L 139.855009 119.282294 
L 141.725603 119.766133 
L 142.370636 119.795339 
L 146.047322 119.110474 
L 147.143877 118.792197 
L 148.369439 118.439763 
L 149.465995 118.113977 
L 151.207583 117.63547 
L 152.368641 117.33308 
L 153.787713 116.994625 
L 155.013275 116.730503 
L 156.69036 116.393166 
L 167.78492 115.062674 
L 172.880678 114.759577 
L 174.944782 114.665486 
L 177.07339 114.57905 
L 182.943186 114.405671 
L 185.39431 114.347985 
L 188.167951 114.292144 
L 195.585825 114.183296 
L 198.552975 114.14778 
L 201.778138 114.116996 
L 205.003301 114.087752 
L 206.615883 114.077238 
L 206.615883 114.077238 
" style="fill:none;stroke:#ff0000;stroke-dasharray:3.7,1.6;stroke-dashoffset:0;"/>
   </g>
   <g id="patch_3">
    <path d="M 44.203125 128.92249 
L 44.203125 10.8 
" style="fill:none;stroke:#000000;stroke-linecap:square;stroke-linejoin:miter;stroke-width:0.8;"/>
   </g>
   <g id="patch_4">
    <path d="M 214.349824 128.92249 
L 214.349824 10.8 
" style="fill:none;stroke:#000000;stroke-linecap:square;stroke-linejoin:miter;stroke-width:0.8;"/>
   </g>
   <g id="patch_5">
    <path d="M 44.203125 128.92249 
L 214.349824 128.92249 
" style="fill:none;stroke:#000000;stroke-linecap:square;stroke-linejoin:miter;stroke-width:0.8;"/>
   </g>
   <g id="patch_6">
    <path d="M 44.203125 10.8 
L 214.349824 10.8 
" style="fill:none;stroke:#000000;stroke-linecap:square;stroke-linejoin:miter;stroke-width:0.8;"/>
   </g>
   <g id="legend_1">
    <g id="patch_7">
     <path d="M 134.795449 44.420625 
L 208.049824 44.420625 
Q 209.849824 44.420625 209.849824 42.620625 
L 209.849824 17.1 
Q 209.849824 15.3 208.049824 15.3 
L 134.795449 15.3 
Q 132.995449 15.3 132.995449 17.1 
L 132.995449 42.620625 
Q 132.995449 44.420625 134.795449 44.420625 
z
" style="fill:#ffffff;opacity:0.8;stroke:#cccccc;stroke-linejoin:miter;"/>
    </g>
    <g id="line2d_21">
     <path d="M 136.595449 22.588594 
L 154.595449 22.588594 
" style="fill:none;stroke:#000000;stroke-linecap:square;"/>
    </g>
    <g id="line2d_22"/>
    <g id="text_12">
     <!-- simulated -->
     <defs>
      <path d="M 52 44.1875 
Q 55.375 50.25 60.0625 53.125 
Q 64.75 56 71.09375 56 
Q 79.640625 56 84.28125 50.015625 
Q 88.921875 44.046875 88.921875 33.015625 
L 88.921875 0 
L 79.890625 0 
L 79.890625 32.71875 
Q 79.890625 40.578125 77.09375 44.375 
Q 74.3125 48.1875 68.609375 48.1875 
Q 61.625 48.1875 57.5625 43.546875 
Q 53.515625 38.921875 53.515625 30.90625 
L 53.515625 0 
L 44.484375 0 
L 44.484375 32.71875 
Q 44.484375 40.625 41.703125 44.40625 
Q 38.921875 48.1875 33.109375 48.1875 
Q 26.21875 48.1875 22.15625 43.53125 
Q 18.109375 38.875 18.109375 30.90625 
L 18.109375 0 
L 9.078125 0 
L 9.078125 54.6875 
L 18.109375 54.6875 
L 18.109375 46.1875 
Q 21.1875 51.21875 25.484375 53.609375 
Q 29.78125 56 35.6875 56 
Q 41.65625 56 45.828125 52.96875 
Q 50 49.953125 52 44.1875 
z
" id="DejaVuSans-109"/>
      <path d="M 45.40625 46.390625 
L 45.40625 75.984375 
L 54.390625 75.984375 
L 54.390625 0 
L 45.40625 0 
L 45.40625 8.203125 
Q 42.578125 3.328125 38.25 0.953125 
Q 33.9375 -1.421875 27.875 -1.421875 
Q 17.96875 -1.421875 11.734375 6.484375 
Q 5.515625 14.40625 5.515625 27.296875 
Q 5.515625 40.1875 11.734375 48.09375 
Q 17.96875 56 27.875 56 
Q 33.9375 56 38.25 53.625 
Q 42.578125 51.265625 45.40625 46.390625 
z
M 14.796875 27.296875 
Q 14.796875 17.390625 18.875 11.75 
Q 22.953125 6.109375 30.078125 6.109375 
Q 37.203125 6.109375 41.296875 11.75 
Q 45.40625 17.390625 45.40625 27.296875 
Q 45.40625 37.203125 41.296875 42.84375 
Q 37.203125 48.484375 30.078125 48.484375 
Q 22.953125 48.484375 18.875 42.84375 
Q 14.796875 37.203125 14.796875 27.296875 
z
" id="DejaVuSans-100"/>
     </defs>
     <g transform="translate(161.795449 25.738594)scale(0.09 -0.09)">
      <use xlink:href="#DejaVuSans-115"/>
      <use x="52.099609" xlink:href="#DejaVuSans-105"/>
      <use x="79.882812" xlink:href="#DejaVuSans-109"/>
      <use x="177.294922" xlink:href="#DejaVuSans-117"/>
      <use x="240.673828" xlink:href="#DejaVuSans-108"/>
      <use x="268.457031" xlink:href="#DejaVuSans-97"/>
      <use x="329.736328" xlink:href="#DejaVuSans-116"/>
      <use x="368.945312" xlink:href="#DejaVuSans-101"/>
      <use x="430.46875" xlink:href="#DejaVuSans-100"/>
     </g>
    </g>
    <g id="line2d_23">
     <path d="M 136.595449 35.798906 
L 154.595449 35.798906 
" style="fill:none;stroke:#ff0000;stroke-dasharray:3.7,1.6;stroke-dashoffset:0;"/>
    </g>
    <g id="line2d_24"/>
    <g id="text_13">
     <!-- target -->
     <defs>
      <path d="M 45.40625 27.984375 
Q 45.40625 37.75 41.375 43.109375 
Q 37.359375 48.484375 30.078125 48.484375 
Q 22.859375 48.484375 18.828125 43.109375 
Q 14.796875 37.75 14.796875 27.984375 
Q 14.796875 18.265625 18.828125 12.890625 
Q 22.859375 7.515625 30.078125 7.515625 
Q 37.359375 7.515625 41.375 12.890625 
Q 45.40625 18.265625 45.40625 27.984375 
z
M 54.390625 6.78125 
Q 54.390625 -7.171875 48.1875 -13.984375 
Q 42 -20.796875 29.203125 -20.796875 
Q 24.46875 -20.796875 20.265625 -20.09375 
Q 16.0625 -19.390625 12.109375 -17.921875 
L 12.109375 -9.1875 
Q 16.0625 -11.328125 19.921875 -12.34375 
Q 23.78125 -13.375 27.78125 -13.375 
Q 36.625 -13.375 41.015625 -8.765625 
Q 45.40625 -4.15625 45.40625 5.171875 
L 45.40625 9.625 
Q 42.625 4.78125 38.28125 2.390625 
Q 33.9375 0 27.875 0 
Q 17.828125 0 11.671875 7.65625 
Q 5.515625 15.328125 5.515625 27.984375 
Q 5.515625 40.671875 11.671875 48.328125 
Q 17.828125 56 27.875 56 
Q 33.9375 56 38.28125 53.609375 
Q 42.625 51.21875 45.40625 46.390625 
L 45.40625 54.6875 
L 54.390625 54.6875 
z
" id="DejaVuSans-103"/>
     </defs>
     <g transform="translate(161.795449 38.948906)scale(0.09 -0.09)">
      <use xlink:href="#DejaVuSans-116"/>
      <use x="39.208984" xlink:href="#DejaVuSans-97"/>
      <use x="100.488281" xlink:href="#DejaVuSans-114"/>
      <use x="141.585938" xlink:href="#DejaVuSans-103"/>
      <use x="205.0625" xlink:href="#DejaVuSans-101"/>
      <use x="266.585938" xlink:href="#DejaVuSans-116"/>
     </g>
    </g>
   </g>
  </g>
 </g>
 <defs>
  <clipPath id="p9c8897eccd">
   <rect height="118.12249" width="170.146699" x="44.203125" y="10.8"/>
  </clipPath>
 </defs>
</svg>
