<?xml version="1.0" encoding="utf-8" standalone="no"?>
<!DOCTYPE svg PUBLIC "-//W3C//DTD SVG 1.1//EN"
  "http://www.w3.org/Graphics/SVG/1.1/DTD/svg11.dtd">
<!-- Created with matplotlib (https://matplotlib.org/) -->
<svg height="170.07874pt" version="1.1" viewBox="0 0 226.771654 170.07874" width="226.771654pt" xmlns="http://www.w3.org/2000/svg" xmlns:xlink="http://www.w3.org/1999/xlink">
 <defs>
  <style type="text/css">
*{stroke-linecap:butt;stroke-linejoin:round;}
  </style>
 </defs>
 <g id="figure_1">
  <g id="patch_1">
   <path d="M 0 170.07874 
L 226.771654 170.07874 
L 226.771654 0 
L 0 0 
z
" style="fill:#ffffff;"/>
  </g>
  <g id="axes_1">
   <g id="patch_2">
    <path d="M 44.203125 128.92249 
L 214.349824 128.92249 
L 214.349824 10.8 
L 44.203125 10.8 
z
" style="fill:#ffffff;"/>
   </g>
   <g id="matplotlib.axis_1">
    <g id="xtick_1">
     <g id="line2d_1">
      <path clip-path="url(#p67afd3ff58)" d="M 51.872563 128.92249 
L 51.872563 10.8 
" style="fill:none;stroke:#b0b0b0;stroke-linecap:square;stroke-width:0.8;"/>
     </g>
     <g id="line2d_2">
      <defs>
       <path d="M 0 0 
L 0 3.5 
" id="m090cde274e" style="stroke:#000000;stroke-width:0.8;"/>
      </defs>
      <g>
       <use style="stroke:#000000;stroke-width:0.8;" x="51.872563" xlink:href="#m090cde274e" y="128.92249"/>
      </g>
     </g>
     <g id="text_1">
      <!-- −100 -->
      <defs>
       <path d="M 10.59375 35.5 
L 73.1875 35.5 
L 73.1875 27.203125 
L 10.59375 27.203125 
z
" id="DejaVuSans-8722"/>
       <path d="M 12.40625 8.296875 
L 28.515625 8.296875 
L 28.515625 63.921875 
L 10.984375 60.40625 
L 10.984375 69.390625 
L 28.421875 72.90625 
L 38.28125 72.90625 
L 38.28125 8.296875 
L 54.390625 8.296875 
L 54.390625 0 
L 12.40625 0 
z
" id="DejaVuSans-49"/>
       <path d="M 31.78125 66.40625 
Q 24.171875 66.40625 20.328125 58.90625 
Q 16.5 51.421875 16.5 36.375 
Q 16.5 21.390625 20.328125 13.890625 
Q 24.171875 6.390625 31.78125 6.390625 
Q 39.453125 6.390625 43.28125 13.890625 
Q 47.125 21.390625 47.125 36.375 
Q 47.125 51.421875 43.28125 58.90625 
Q 39.453125 66.40625 31.78125 66.40625 
z
M 31.78125 74.21875 
Q 44.046875 74.21875 50.515625 64.515625 
Q 56.984375 54.828125 56.984375 36.375 
Q 56.984375 17.96875 50.515625 8.265625 
Q 44.046875 -1.421875 31.78125 -1.421875 
Q 19.53125 -1.421875 13.0625 8.265625 
Q 6.59375 17.96875 6.59375 36.375 
Q 6.59375 54.828125 13.0625 64.515625 
Q 19.53125 74.21875 31.78125 74.21875 
z
" id="DejaVuSans-48"/>
      </defs>
      <g transform="translate(38.138969 143.520928)scale(0.1 -0.1)">
       <use xlink:href="#DejaVuSans-8722"/>
       <use x="83.789062" xlink:href="#DejaVuSans-49"/>
       <use x="147.412109" xlink:href="#DejaVuSans-48"/>
       <use x="211.035156" xlink:href="#DejaVuSans-48"/>
      </g>
     </g>
    </g>
    <g id="xtick_2">
     <g id="line2d_3">
      <path clip-path="url(#p67afd3ff58)" d="M 90.574518 128.92249 
L 90.574518 10.8 
" style="fill:none;stroke:#b0b0b0;stroke-linecap:square;stroke-width:0.8;"/>
     </g>
     <g id="line2d_4">
      <g>
       <use style="stroke:#000000;stroke-width:0.8;" x="90.574518" xlink:href="#m090cde274e" y="128.92249"/>
      </g>
     </g>
     <g id="text_2">
      <!-- −50 -->
      <defs>
       <path d="M 10.796875 72.90625 
L 49.515625 72.90625 
L 49.515625 64.59375 
L 19.828125 64.59375 
L 19.828125 46.734375 
Q 21.96875 47.46875 24.109375 47.828125 
Q 26.265625 48.1875 28.421875 48.1875 
Q 40.625 48.1875 47.75 41.5 
Q 54.890625 34.8125 54.890625 23.390625 
Q 54.890625 11.625 47.5625 5.09375 
Q 40.234375 -1.421875 26.90625 -1.421875 
Q 22.3125 -1.421875 17.546875 -0.640625 
Q 12.796875 0.140625 7.71875 1.703125 
L 7.71875 11.625 
Q 12.109375 9.234375 16.796875 8.0625 
Q 21.484375 6.890625 26.703125 6.890625 
Q 35.15625 6.890625 40.078125 11.328125 
Q 45.015625 15.765625 45.015625 23.390625 
Q 45.015625 31 40.078125 35.4375 
Q 35.15625 39.890625 26.703125 39.890625 
Q 22.75 39.890625 18.8125 39.015625 
Q 14.890625 38.140625 10.796875 36.28125 
z
" id="DejaVuSans-53"/>
      </defs>
      <g transform="translate(80.022175 143.520928)scale(0.1 -0.1)">
       <use xlink:href="#DejaVuSans-8722"/>
       <use x="83.789062" xlink:href="#DejaVuSans-53"/>
       <use x="147.412109" xlink:href="#DejaVuSans-48"/>
      </g>
     </g>
    </g>
    <g id="xtick_3">
     <g id="line2d_5">
      <path clip-path="url(#p67afd3ff58)" d="M 129.276474 128.92249 
L 129.276474 10.8 
" style="fill:none;stroke:#b0b0b0;stroke-linecap:square;stroke-width:0.8;"/>
     </g>
     <g id="line2d_6">
      <g>
       <use style="stroke:#000000;stroke-width:0.8;" x="129.276474" xlink:href="#m090cde274e" y="128.92249"/>
      </g>
     </g>
     <g id="text_3">
      <!-- 0 -->
      <g transform="translate(126.095224 143.520928)scale(0.1 -0.1)">
       <use xlink:href="#DejaVuSans-48"/>
      </g>
     </g>
    </g>
    <g id="xtick_4">
     <g id="line2d_7">
      <path clip-path="url(#p67afd3ff58)" d="M 167.97843 128.92249 
L 167.97843 10.8 
" style="fill:none;stroke:#b0b0b0;stroke-linecap:square;stroke-width:0.8;"/>
     </g>
     <g id="line2d_8">
      <g>
       <use style="stroke:#000000;stroke-width:0.8;" x="167.97843" xlink:href="#m090cde274e" y="128.92249"/>
      </g>
     </g>
     <g id="text_4">
      <!-- 50 -->
      <g transform="translate(161.61593 143.520928)scale(0.1 -0.1)">
       <use xlink:href="#DejaVuSans-53"/>
       <use x="63.623047" xlink:href="#DejaVuSans-48"/>
      </g>
     </g>
    </g>
    <g id="xtick_5">
     <g id="line2d_9">
      <path clip-path="url(#p67afd3ff58)" d="M 206.680386 128.92249 
L 206.680386 10.8 
" style="fill:none;stroke:#b0b0b0;stroke-linecap:square;stroke-width:0.8;"/>
     </g>
     <g id="line2d_10">
      <g>
       <use style="stroke:#000000;stroke-width:0.8;" x="206.680386" xlink:href="#m090cde274e" y="128.92249"/>
      </g>
     </g>
     <g id="text_5">
      <!-- 100 -->
      <g transform="translate(197.136636 143.520928)scale(0.1 -0.1)">
       <use xlink:href="#DejaVuSans-49"/>
       <use x="63.623047" xlink:href="#DejaVuSans-48"/>
       <use x="127.246094" xlink:href="#DejaVuSans-48"/>
      </g>
     </g>
    </g>
    <g id="text_6">
     <!-- $\tau$ (s) -->
     <defs>
      <path d="M 32.859375 9.96875 
Q 34.1875 7.625 39.453125 7.625 
L 43.75 7.625 
L 42.28125 0 
L 36.921875 0 
Q 28.125 0 25 4.6875 
Q 21.921875 9.46875 23.96875 19.828125 
L 29 45.703125 
L 8.453125 45.703125 
L 10.203125 54.6875 
L 60.640625 54.6875 
L 58.890625 45.703125 
L 38.1875 45.703125 
L 33.015625 19.28125 
Q 31.640625 12.203125 32.859375 9.96875 
z
" id="DejaVuSans-Oblique-964"/>
      <path id="DejaVuSans-32"/>
      <path d="M 31 75.875 
Q 24.46875 64.65625 21.28125 53.65625 
Q 18.109375 42.671875 18.109375 31.390625 
Q 18.109375 20.125 21.3125 9.0625 
Q 24.515625 -2 31 -13.1875 
L 23.1875 -13.1875 
Q 15.875 -1.703125 12.234375 9.375 
Q 8.59375 20.453125 8.59375 31.390625 
Q 8.59375 42.28125 12.203125 53.3125 
Q 15.828125 64.359375 23.1875 75.875 
z
" id="DejaVuSans-40"/>
      <path d="M 44.28125 53.078125 
L 44.28125 44.578125 
Q 40.484375 46.53125 36.375 47.5 
Q 32.28125 48.484375 27.875 48.484375 
Q 21.1875 48.484375 17.84375 46.4375 
Q 14.5 44.390625 14.5 40.28125 
Q 14.5 37.15625 16.890625 35.375 
Q 19.28125 33.59375 26.515625 31.984375 
L 29.59375 31.296875 
Q 39.15625 29.25 43.1875 25.515625 
Q 47.21875 21.78125 47.21875 15.09375 
Q 47.21875 7.46875 41.1875 3.015625 
Q 35.15625 -1.421875 24.609375 -1.421875 
Q 20.21875 -1.421875 15.453125 -0.5625 
Q 10.6875 0.296875 5.421875 2 
L 5.421875 11.28125 
Q 10.40625 8.6875 15.234375 7.390625 
Q 20.0625 6.109375 24.8125 6.109375 
Q 31.15625 6.109375 34.5625 8.28125 
Q 37.984375 10.453125 37.984375 14.40625 
Q 37.984375 18.0625 35.515625 20.015625 
Q 33.0625 21.96875 24.703125 23.78125 
L 21.578125 24.515625 
Q 13.234375 26.265625 9.515625 29.90625 
Q 5.8125 33.546875 5.8125 39.890625 
Q 5.8125 47.609375 11.28125 51.796875 
Q 16.75 56 26.8125 56 
Q 31.78125 56 36.171875 55.265625 
Q 40.578125 54.546875 44.28125 53.078125 
z
" id="DejaVuSans-115"/>
      <path d="M 8.015625 75.875 
L 15.828125 75.875 
Q 23.140625 64.359375 26.78125 53.3125 
Q 30.421875 42.28125 30.421875 31.390625 
Q 30.421875 20.453125 26.78125 9.375 
Q 23.140625 -1.703125 15.828125 -13.1875 
L 8.015625 -13.1875 
Q 14.5 -2 17.703125 9.0625 
Q 20.90625 20.125 20.90625 31.390625 
Q 20.90625 42.671875 17.703125 53.65625 
Q 14.5 64.65625 8.015625 75.875 
z
" id="DejaVuSans-41"/>
     </defs>
     <g transform="translate(118.126474 157.199053)scale(0.1 -0.1)">
      <use transform="translate(0 0.125)" xlink:href="#DejaVuSans-Oblique-964"/>
      <use transform="translate(60.205078 0.125)" xlink:href="#DejaVuSans-32"/>
      <use transform="translate(91.992188 0.125)" xlink:href="#DejaVuSans-40"/>
      <use transform="translate(131.005859 0.125)" xlink:href="#DejaVuSans-115"/>
      <use transform="translate(183.105469 0.125)" xlink:href="#DejaVuSans-41"/>
     </g>
    </g>
   </g>
   <g id="matplotlib.axis_2">
    <g id="ytick_1">
     <g id="line2d_11">
      <path clip-path="url(#p67afd3ff58)" d="M 44.203125 116.520779 
L 214.349824 116.520779 
" style="fill:none;stroke:#b0b0b0;stroke-linecap:square;stroke-width:0.8;"/>
     </g>
     <g id="line2d_12">
      <defs>
       <path d="M 0 0 
L -3.5 0 
" id="m6f396cc2a0" style="stroke:#000000;stroke-width:0.8;"/>
      </defs>
      <g>
       <use style="stroke:#000000;stroke-width:0.8;" x="44.203125" xlink:href="#m6f396cc2a0" y="116.520779"/>
      </g>
     </g>
     <g id="text_7">
      <!-- 0 -->
      <g transform="translate(30.840625 120.319998)scale(0.1 -0.1)">
       <use xlink:href="#DejaVuSans-48"/>
      </g>
     </g>
    </g>
    <g id="ytick_2">
     <g id="line2d_13">
      <path clip-path="url(#p67afd3ff58)" d="M 44.203125 86.851508 
L 214.349824 86.851508 
" style="fill:none;stroke:#b0b0b0;stroke-linecap:square;stroke-width:0.8;"/>
     </g>
     <g id="line2d_14">
      <g>
       <use style="stroke:#000000;stroke-width:0.8;" x="44.203125" xlink:href="#m6f396cc2a0" y="86.851508"/>
      </g>
     </g>
     <g id="text_8">
      <!-- 5 -->
      <g transform="translate(30.840625 90.650727)scale(0.1 -0.1)">
       <use xlink:href="#DejaVuSans-53"/>
      </g>
     </g>
    </g>
    <g id="ytick_3">
     <g id="line2d_15">
      <path clip-path="url(#p67afd3ff58)" d="M 44.203125 57.182238 
L 214.349824 57.182238 
" style="fill:none;stroke:#b0b0b0;stroke-linecap:square;stroke-width:0.8;"/>
     </g>
     <g id="line2d_16">
      <g>
       <use style="stroke:#000000;stroke-width:0.8;" x="44.203125" xlink:href="#m6f396cc2a0" y="57.182238"/>
      </g>
     </g>
     <g id="text_9">
      <!-- 10 -->
      <g transform="translate(24.478125 60.981456)scale(0.1 -0.1)">
       <use xlink:href="#DejaVuSans-49"/>
       <use x="63.623047" xlink:href="#DejaVuSans-48"/>
      </g>
     </g>
    </g>
    <g id="ytick_4">
     <g id="line2d_17">
      <path clip-path="url(#p67afd3ff58)" d="M 44.203125 27.512967 
L 214.349824 27.512967 
" style="fill:none;stroke:#b0b0b0;stroke-linecap:square;stroke-width:0.8;"/>
     </g>
     <g id="line2d_18">
      <g>
       <use style="stroke:#000000;stroke-width:0.8;" x="44.203125" xlink:href="#m6f396cc2a0" y="27.512967"/>
      </g>
     </g>
     <g id="text_10">
      <!-- 15 -->
      <g transform="translate(24.478125 31.312186)scale(0.1 -0.1)">
       <use xlink:href="#DejaVuSans-49"/>
       <use x="63.623047" xlink:href="#DejaVuSans-53"/>
      </g>
     </g>
    </g>
    <g id="text_11">
     <!-- correlation function -->
     <defs>
      <path d="M 48.78125 52.59375 
L 48.78125 44.1875 
Q 44.96875 46.296875 41.140625 47.34375 
Q 37.3125 48.390625 33.40625 48.390625 
Q 24.65625 48.390625 19.8125 42.84375 
Q 14.984375 37.3125 14.984375 27.296875 
Q 14.984375 17.28125 19.8125 11.734375 
Q 24.65625 6.203125 33.40625 6.203125 
Q 37.3125 6.203125 41.140625 7.25 
Q 44.96875 8.296875 48.78125 10.40625 
L 48.78125 2.09375 
Q 45.015625 0.34375 40.984375 -0.53125 
Q 36.96875 -1.421875 32.421875 -1.421875 
Q 20.0625 -1.421875 12.78125 6.34375 
Q 5.515625 14.109375 5.515625 27.296875 
Q 5.515625 40.671875 12.859375 48.328125 
Q 20.21875 56 33.015625 56 
Q 37.15625 56 41.109375 55.140625 
Q 45.0625 54.296875 48.78125 52.59375 
z
" id="DejaVuSans-99"/>
      <path d="M 30.609375 48.390625 
Q 23.390625 48.390625 19.1875 42.75 
Q 14.984375 37.109375 14.984375 27.296875 
Q 14.984375 17.484375 19.15625 11.84375 
Q 23.34375 6.203125 30.609375 6.203125 
Q 37.796875 6.203125 41.984375 11.859375 
Q 46.1875 17.53125 46.1875 27.296875 
Q 46.1875 37.015625 41.984375 42.703125 
Q 37.796875 48.390625 30.609375 48.390625 
z
M 30.609375 56 
Q 42.328125 56 49.015625 48.375 
Q 55.71875 40.765625 55.71875 27.296875 
Q 55.71875 13.875 49.015625 6.21875 
Q 42.328125 -1.421875 30.609375 -1.421875 
Q 18.84375 -1.421875 12.171875 6.21875 
Q 5.515625 13.875 5.515625 27.296875 
Q 5.515625 40.765625 12.171875 48.375 
Q 18.84375 56 30.609375 56 
z
" id="DejaVuSans-111"/>
      <path d="M 41.109375 46.296875 
Q 39.59375 47.171875 37.8125 47.578125 
Q 36.03125 48 33.890625 48 
Q 26.265625 48 22.1875 43.046875 
Q 18.109375 38.09375 18.109375 28.8125 
L 18.109375 0 
L 9.078125 0 
L 9.078125 54.6875 
L 18.109375 54.6875 
L 18.109375 46.1875 
Q 20.953125 51.171875 25.484375 53.578125 
Q 30.03125 56 36.53125 56 
Q 37.453125 56 38.578125 55.875 
Q 39.703125 55.765625 41.0625 55.515625 
z
" id="DejaVuSans-114"/>
      <path d="M 56.203125 29.59375 
L 56.203125 25.203125 
L 14.890625 25.203125 
Q 15.484375 15.921875 20.484375 11.0625 
Q 25.484375 6.203125 34.421875 6.203125 
Q 39.59375 6.203125 44.453125 7.46875 
Q 49.3125 8.734375 54.109375 11.28125 
L 54.109375 2.78125 
Q 49.265625 0.734375 44.1875 -0.34375 
Q 39.109375 -1.421875 33.890625 -1.421875 
Q 20.796875 -1.421875 13.15625 6.1875 
Q 5.515625 13.8125 5.515625 26.8125 
Q 5.515625 40.234375 12.765625 48.109375 
Q 20.015625 56 32.328125 56 
Q 43.359375 56 49.78125 48.890625 
Q 56.203125 41.796875 56.203125 29.59375 
z
M 47.21875 32.234375 
Q 47.125 39.59375 43.09375 43.984375 
Q 39.0625 48.390625 32.421875 48.390625 
Q 24.90625 48.390625 20.390625 44.140625 
Q 15.875 39.890625 15.1875 32.171875 
z
" id="DejaVuSans-101"/>
      <path d="M 9.421875 75.984375 
L 18.40625 75.984375 
L 18.40625 0 
L 9.421875 0 
z
" id="DejaVuSans-108"/>
      <path d="M 34.28125 27.484375 
Q 23.390625 27.484375 19.1875 25 
Q 14.984375 22.515625 14.984375 16.5 
Q 14.984375 11.71875 18.140625 8.90625 
Q 21.296875 6.109375 26.703125 6.109375 
Q 34.1875 6.109375 38.703125 11.40625 
Q 43.21875 16.703125 43.21875 25.484375 
L 43.21875 27.484375 
z
M 52.203125 31.203125 
L 52.203125 0 
L 43.21875 0 
L 43.21875 8.296875 
Q 40.140625 3.328125 35.546875 0.953125 
Q 30.953125 -1.421875 24.3125 -1.421875 
Q 15.921875 -1.421875 10.953125 3.296875 
Q 6 8.015625 6 15.921875 
Q 6 25.140625 12.171875 29.828125 
Q 18.359375 34.515625 30.609375 34.515625 
L 43.21875 34.515625 
L 43.21875 35.40625 
Q 43.21875 41.609375 39.140625 45 
Q 35.0625 48.390625 27.6875 48.390625 
Q 23 48.390625 18.546875 47.265625 
Q 14.109375 46.140625 10.015625 43.890625 
L 10.015625 52.203125 
Q 14.9375 54.109375 19.578125 55.046875 
Q 24.21875 56 28.609375 56 
Q 40.484375 56 46.34375 49.84375 
Q 52.203125 43.703125 52.203125 31.203125 
z
" id="DejaVuSans-97"/>
      <path d="M 18.3125 70.21875 
L 18.3125 54.6875 
L 36.8125 54.6875 
L 36.8125 47.703125 
L 18.3125 47.703125 
L 18.3125 18.015625 
Q 18.3125 11.328125 20.140625 9.421875 
Q 21.96875 7.515625 27.59375 7.515625 
L 36.8125 7.515625 
L 36.8125 0 
L 27.59375 0 
Q 17.1875 0 13.234375 3.875 
Q 9.28125 7.765625 9.28125 18.015625 
L 9.28125 47.703125 
L 2.6875 47.703125 
L 2.6875 54.6875 
L 9.28125 54.6875 
L 9.28125 70.21875 
z
" id="DejaVuSans-116"/>
      <path d="M 9.421875 54.6875 
L 18.40625 54.6875 
L 18.40625 0 
L 9.421875 0 
z
M 9.421875 75.984375 
L 18.40625 75.984375 
L 18.40625 64.59375 
L 9.421875 64.59375 
z
" id="DejaVuSans-105"/>
      <path d="M 54.890625 33.015625 
L 54.890625 0 
L 45.90625 0 
L 45.90625 32.71875 
Q 45.90625 40.484375 42.875 44.328125 
Q 39.84375 48.1875 33.796875 48.1875 
Q 26.515625 48.1875 22.3125 43.546875 
Q 18.109375 38.921875 18.109375 30.90625 
L 18.109375 0 
L 9.078125 0 
L 9.078125 54.6875 
L 18.109375 54.6875 
L 18.109375 46.1875 
Q 21.34375 51.125 25.703125 53.5625 
Q 30.078125 56 35.796875 56 
Q 45.21875 56 50.046875 50.171875 
Q 54.890625 44.34375 54.890625 33.015625 
z
" id="DejaVuSans-110"/>
      <path d="M 37.109375 75.984375 
L 37.109375 68.5 
L 28.515625 68.5 
Q 23.6875 68.5 21.796875 66.546875 
Q 19.921875 64.59375 19.921875 59.515625 
L 19.921875 54.6875 
L 34.71875 54.6875 
L 34.71875 47.703125 
L 19.921875 47.703125 
L 19.921875 0 
L 10.890625 0 
L 10.890625 47.703125 
L 2.296875 47.703125 
L 2.296875 54.6875 
L 10.890625 54.6875 
L 10.890625 58.5 
Q 10.890625 67.625 15.140625 71.796875 
Q 19.390625 75.984375 28.609375 75.984375 
z
" id="DejaVuSans-102"/>
      <path d="M 8.5 21.578125 
L 8.5 54.6875 
L 17.484375 54.6875 
L 17.484375 21.921875 
Q 17.484375 14.15625 20.5 10.265625 
Q 23.53125 6.390625 29.59375 6.390625 
Q 36.859375 6.390625 41.078125 11.03125 
Q 45.3125 15.671875 45.3125 23.6875 
L 45.3125 54.6875 
L 54.296875 54.6875 
L 54.296875 0 
L 45.3125 0 
L 45.3125 8.40625 
Q 42.046875 3.421875 37.71875 1 
Q 33.40625 -1.421875 27.6875 -1.421875 
Q 18.265625 -1.421875 13.375 4.4375 
Q 8.5 10.296875 8.5 21.578125 
z
M 31.109375 56 
z
" id="DejaVuSans-117"/>
     </defs>
     <g transform="translate(18.398438 118.898745)rotate(-90)scale(0.1 -0.1)">
      <use xlink:href="#DejaVuSans-99"/>
      <use x="54.980469" xlink:href="#DejaVuSans-111"/>
      <use x="116.162109" xlink:href="#DejaVuSans-114"/>
      <use x="157.259766" xlink:href="#DejaVuSans-114"/>
      <use x="198.341797" xlink:href="#DejaVuSans-101"/>
      <use x="259.865234" xlink:href="#DejaVuSans-108"/>
      <use x="287.648438" xlink:href="#DejaVuSans-97"/>
      <use x="348.927734" xlink:href="#DejaVuSans-116"/>
      <use x="388.136719" xlink:href="#DejaVuSans-105"/>
      <use x="415.919922" xlink:href="#DejaVuSans-111"/>
      <use x="477.101562" xlink:href="#DejaVuSans-110"/>
      <use x="540.480469" xlink:href="#DejaVuSans-32"/>
      <use x="572.267578" xlink:href="#DejaVuSans-102"/>
      <use x="607.472656" xlink:href="#DejaVuSans-117"/>
      <use x="670.851562" xlink:href="#DejaVuSans-110"/>
      <use x="734.230469" xlink:href="#DejaVuSans-99"/>
      <use x="789.210938" xlink:href="#DejaVuSans-116"/>
      <use x="828.419922" xlink:href="#DejaVuSans-105"/>
      <use x="856.203125" xlink:href="#DejaVuSans-111"/>
      <use x="917.384766" xlink:href="#DejaVuSans-110"/>
     </g>
    </g>
   </g>
   <g id="line2d_19">
    <path clip-path="url(#p67afd3ff58)" d="M 51.937066 113.913281 
L 53.162628 114.811597 
L 53.80766 115.141343 
L 54.38819 115.661404 
L 54.775209 115.787208 
L 55.033222 115.678604 
L 55.807261 114.396274 
L 56.258784 113.917955 
L 56.452294 113.77523 
L 57.226333 112.762337 
L 57.613353 112.766054 
L 58.129379 113.148093 
L 58.258385 113.117471 
L 58.903418 113.980986 
L 59.225934 114.330454 
L 59.870967 115.302708 
L 60.580503 116.515505 
L 62.193084 117.566465 
L 62.644607 117.818549 
L 63.547653 118.313261 
L 63.676659 118.315393 
L 64.063679 118.208799 
L 64.257188 118.242483 
L 64.708711 118.527319 
L 65.289241 118.326571 
L 65.934273 118.662759 
L 66.25679 118.808299 
L 66.708312 119.241286 
L 67.933874 119.240937 
L 68.191887 119.064675 
L 68.385397 119.151079 
L 69.03043 118.641705 
L 69.675462 117.83681 
L 69.804469 117.875094 
L 69.997979 117.969183 
L 70.449501 117.909853 
L 71.030031 118.413023 
L 71.288044 118.341945 
L 71.481554 118.284829 
L 72.062083 118.072839 
L 72.255593 118.161833 
L 72.900625 118.27077 
L 73.158638 118.354104 
L 73.352148 118.402326 
L 73.674664 118.550893 
L 73.868174 118.555999 
L 74.061684 118.515823 
L 74.706717 119.288028 
L 75.609762 119.119686 
L 75.867775 118.931649 
L 75.996782 118.851985 
L 76.641814 117.767715 
L 77.15784 117.427016 
L 77.54486 117.025037 
L 77.867376 116.881589 
L 77.996383 116.816705 
L 78.641415 115.849435 
L 79.028435 115.958084 
L 79.544461 116.249374 
L 79.866977 116.067376 
L 80.12499 115.839554 
L 80.51201 115.842324 
L 80.70552 115.854006 
L 80.963533 115.878172 
L 81.157043 115.924975 
L 81.479559 116.059056 
L 81.608565 115.986069 
L 81.866578 115.732754 
L 82.318101 115.741808 
L 82.769624 115.750772 
L 82.963134 115.688926 
L 83.350153 115.92244 
L 83.543663 115.789163 
L 83.995186 115.331935 
L 84.511212 115.493552 
L 84.962735 115.196285 
L 85.349754 115.120351 
L 86.2528 115.609463 
L 86.44631 115.665179 
L 86.897833 115.840224 
L 87.800878 115.345552 
L 88.574917 115.656389 
L 89.090943 116.076398 
L 89.735976 116.246836 
L 90.058492 116.28309 
L 90.252002 116.462196 
L 90.445512 116.395477 
L 90.703525 116.271947 
L 91.542067 116.169533 
L 92.445113 116.87171 
L 93.670675 118.648871 
L 94.315708 119.254612 
L 95.283256 119.897969 
L 95.734779 119.930778 
L 95.928289 120.223484 
L 96.379812 120.950121 
L 97.798884 122.702993 
L 98.250406 122.909288 
L 98.572923 123.170882 
L 98.766432 123.120967 
L 99.153452 123.007126 
L 99.540472 123.096255 
L 100.185504 123.431272 
L 100.830537 123.385887 
L 101.411066 123.53488 
L 101.798086 123.181331 
L 102.701131 122.361975 
L 103.410667 121.075253 
L 103.86219 120.707554 
L 104.507223 120.404678 
L 104.958745 120.344361 
L 105.410268 119.902667 
L 105.797288 119.668883 
L 106.184307 119.410688 
L 106.44232 119.280095 
L 106.958346 119.284465 
L 107.280863 119.314853 
L 107.538876 119.397536 
L 108.570928 120.219424 
L 108.828941 120.400874 
L 109.151457 120.653891 
L 110.828542 121.271793 
L 111.409071 121.734209 
L 112.054104 122.101919 
L 112.312117 122.048422 
L 112.95715 122.073331 
L 113.279666 122.125074 
L 113.666685 122.173082 
L 114.247215 121.757653 
L 114.956751 121.784375 
L 115.34377 121.950245 
L 115.666287 121.937099 
L 116.053306 121.878002 
L 116.504829 121.831436 
L 117.149862 121.436146 
L 117.472378 121.383759 
L 118.052907 121.152343 
L 118.31092 121.056044 
L 119.342972 121.169885 
L 119.536482 121.195815 
L 120.310521 121.07802 
L 120.891051 120.413776 
L 121.729593 118.935066 
L 122.116613 117.90976 
L 123.664691 112.313577 
L 124.567736 107.534121 
L 125.212769 103.028846 
L 126.051311 95.222722 
L 127.01886 82.914922 
L 127.857403 67.633389 
L 128.566938 49.163096 
L 129.082965 28.716306 
L 129.276474 16.447954 
L 129.405481 24.131404 
L 129.727997 40.147454 
L 130.502036 63.320949 
L 131.340579 79.806401 
L 132.308128 93.108281 
L 133.34018 103.028846 
L 134.372232 109.830537 
L 135.339781 114.182073 
L 135.92031 116.265915 
L 137.016866 119.358278 
L 137.984414 120.841109 
L 138.564944 121.179412 
L 140.113022 121.11154 
L 140.306532 121.070763 
L 140.822558 121.281679 
L 141.145074 121.387105 
L 141.725603 121.572339 
L 142.177126 121.88449 
L 142.757656 121.898992 
L 143.402688 121.909948 
L 144.112224 121.695423 
L 145.079773 122.155672 
L 146.821361 121.942832 
L 147.208381 121.700516 
L 147.530897 121.461096 
L 148.175929 121.009338 
L 148.756459 120.831185 
L 149.336988 120.673642 
L 149.659504 120.47687 
L 149.982021 120.219424 
L 150.240034 120.150534 
L 151.207583 119.321091 
L 152.239635 119.286238 
L 153.852216 120.388083 
L 154.432746 120.480267 
L 154.948772 120.908077 
L 155.206785 121.190565 
L 155.980824 122.615744 
L 156.367843 123.012805 
L 157.399896 123.49122 
L 157.915922 123.411045 
L 158.302941 123.418457 
L 158.496451 123.359985 
L 159.141484 123.034418 
L 159.528503 123.023268 
L 160.109033 123.11823 
L 161.334594 122.099361 
L 161.915124 121.163039 
L 162.108634 121.03704 
L 163.076182 119.912664 
L 163.463202 119.888829 
L 163.592209 119.858959 
L 164.559757 118.943311 
L 164.882274 118.648871 
L 165.785319 117.317646 
L 166.236842 116.736392 
L 166.494855 116.581698 
L 167.075385 116.161671 
L 168.042933 116.336148 
L 168.300947 116.462196 
L 168.429953 116.381798 
L 168.623463 116.19946 
L 169.010482 116.286635 
L 169.655515 115.931313 
L 170.300548 115.438894 
L 170.94558 115.300516 
L 171.3326 115.571939 
L 171.52611 115.720777 
L 171.719619 115.841782 
L 173.461207 115.158087 
L 173.848227 115.30703 
L 174.170743 115.49868 
L 174.557763 115.331935 
L 174.686769 115.443903 
L 175.073789 115.86046 
L 175.331802 115.922856 
L 175.783325 115.750772 
L 175.976834 115.794384 
L 176.621867 115.719014 
L 176.87988 115.879742 
L 177.07339 116.059056 
L 178.040939 115.842324 
L 178.234449 115.926092 
L 178.492462 115.850409 
L 179.137494 116.249365 
L 179.976037 115.897111 
L 180.298553 116.470167 
L 180.750076 116.879136 
L 181.072592 117.101491 
L 181.524115 117.516898 
L 181.717625 117.628179 
L 182.362657 118.430226 
L 182.685173 118.931649 
L 182.81418 118.952182 
L 183.136696 119.254478 
L 183.910735 119.27518 
L 184.233252 118.985182 
L 184.620271 118.507127 
L 184.813781 118.582988 
L 185.458814 118.366895 
L 185.652323 118.27077 
L 186.039343 118.090749 
L 186.361859 118.169229 
L 186.684376 118.105064 
L 186.877885 118.227695 
L 187.135898 118.323047 
L 187.716428 118.451332 
L 187.845434 118.307833 
L 188.167951 117.86537 
L 189.006493 118.00761 
L 189.845035 119.036624 
L 190.232055 119.159387 
L 190.490068 119.093944 
L 190.748081 119.261696 
L 191.006094 119.282858 
L 191.52212 119.362267 
L 192.038146 119.202315 
L 192.554172 118.67678 
L 193.070198 118.503886 
L 193.328211 118.320959 
L 193.908741 118.504669 
L 194.424767 118.194351 
L 195.069799 118.230651 
L 195.456819 117.909702 
L 195.972845 117.790609 
L 196.295361 117.623106 
L 196.940394 117.16119 
L 197.133904 117.037076 
L 197.520923 116.699279 
L 198.230459 116.160349 
L 199.004498 114.758272 
L 199.198008 114.55169 
L 199.391518 114.309337 
L 199.520524 114.204588 
L 200.294563 113.117471 
L 200.810589 112.91793 
L 201.004099 112.776893 
L 201.197609 112.768634 
L 201.455622 112.783017 
L 201.584629 112.894663 
L 202.036151 113.674527 
L 202.294164 113.917955 
L 202.552177 114.141656 
L 202.939197 114.75894 
L 203.19721 115.111168 
L 203.455223 115.551401 
L 203.648733 115.779074 
L 204.100256 115.699099 
L 204.616282 115.290671 
L 205.067805 114.879783 
L 205.261314 114.883893 
L 205.519327 114.830211 
L 205.77734 114.731806 
L 206.099857 114.47955 
L 206.615883 113.913281 
L 206.615883 113.913281 
" style="fill:none;stroke:#000000;stroke-linecap:square;"/>
   </g>
   <g id="line2d_20">
    <path clip-path="url(#p67afd3ff58)" d="M 51.937066 116.712771 
L 55.226732 116.739361 
L 66.966325 116.876425 
L 72.513606 116.978344 
L 80.12499 117.181525 
L 83.801676 117.322078 
L 86.2528 117.445398 
L 88.252401 117.55734 
L 100.056498 118.774633 
L 101.991595 119.124002 
L 103.217157 119.36528 
L 115.408273 122.524882 
L 117.988404 122.361313 
L 119.600985 121.438243 
L 120.826547 120.014847 
L 121.923103 117.885243 
L 122.955155 114.874792 
L 123.922704 110.823572 
L 124.890253 105.04883 
L 125.470782 100.553073 
L 126.373828 91.27986 
L 127.01886 82.645637 
L 127.857403 67.305601 
L 128.566938 48.879471 
L 129.082965 28.438616 
L 129.276474 16.169204 
L 129.405481 23.851957 
L 129.727997 39.879417 
L 130.502036 63.000916 
L 131.405082 80.51743 
L 132.114618 90.541627 
L 133.082167 100.553073 
L 134.114219 108.002719 
L 135.146271 113.170461 
L 136.178323 116.728622 
L 137.274879 119.243217 
L 138.50044 121.014252 
L 139.855009 122.057938 
L 141.725603 122.554802 
L 142.370636 122.584794 
L 146.047322 121.881493 
L 147.143877 121.554649 
L 148.369439 121.192728 
L 149.465995 120.858172 
L 151.143079 120.389176 
L 152.626654 119.99039 
L 154.045726 119.648752 
L 155.206785 119.390999 
L 156.819366 119.075346 
L 158.560954 118.767442 
L 160.431549 118.491486 
L 162.43115 118.232196 
L 164.366248 118.024629 
L 165.978829 117.870655 
L 170.816574 117.526244 
L 172.751671 117.418613 
L 175.009286 117.31085 
L 180.363056 117.121194 
L 182.749677 117.052161 
L 189.135499 116.918481 
L 191.844636 116.872446 
L 194.811786 116.831688 
L 197.714433 116.793705 
L 206.615883 116.712771 
L 206.615883 116.712771 
" style="fill:none;stroke:#ff0000;stroke-dasharray:3.7,1.6;stroke-dashoffset:0;"/>
   </g>
   <g id="patch_3">
    <path d="M 44.203125 128.92249 
L 44.203125 10.8 
" style="fill:none;stroke:#000000;stroke-linecap:square;stroke-linejoin:miter;stroke-width:0.8;"/>
   </g>
   <g id="patch_4">
    <path d="M 214.349824 128.92249 
L 214.349824 10.8 
" style="fill:none;stroke:#000000;stroke-linecap:square;stroke-linejoin:miter;stroke-width:0.8;"/>
   </g>
   <g id="patch_5">
    <path d="M 44.203125 128.92249 
L 214.349824 128.92249 
" style="fill:none;stroke:#000000;stroke-linecap:square;stroke-linejoin:miter;stroke-width:0.8;"/>
   </g>
   <g id="patch_6">
    <path d="M 44.203125 10.8 
L 214.349824 10.8 
" style="fill:none;stroke:#000000;stroke-linecap:square;stroke-linejoin:miter;stroke-width:0.8;"/>
   </g>
   <g id="legend_1">
    <g id="patch_7">
     <path d="M 134.795449 44.420625 
L 208.049824 44.420625 
Q 209.849824 44.420625 209.849824 42.620625 
L 209.849824 17.1 
Q 209.849824 15.3 208.049824 15.3 
L 134.795449 15.3 
Q 132.995449 15.3 132.995449 17.1 
L 132.995449 42.620625 
Q 132.995449 44.420625 134.795449 44.420625 
z
" style="fill:#ffffff;opacity:0.8;stroke:#cccccc;stroke-linejoin:miter;"/>
    </g>
    <g id="line2d_21">
     <path d="M 136.595449 22.588594 
L 154.595449 22.588594 
" style="fill:none;stroke:#000000;stroke-linecap:square;"/>
    </g>
    <g id="line2d_22"/>
    <g id="text_12">
     <!-- simulated -->
     <defs>
      <path d="M 52 44.1875 
Q 55.375 50.25 60.0625 53.125 
Q 64.75 56 71.09375 56 
Q 79.640625 56 84.28125 50.015625 
Q 88.921875 44.046875 88.921875 33.015625 
L 88.921875 0 
L 79.890625 0 
L 79.890625 32.71875 
Q 79.890625 40.578125 77.09375 44.375 
Q 74.3125 48.1875 68.609375 48.1875 
Q 61.625 48.1875 57.5625 43.546875 
Q 53.515625 38.921875 53.515625 30.90625 
L 53.515625 0 
L 44.484375 0 
L 44.484375 32.71875 
Q 44.484375 40.625 41.703125 44.40625 
Q 38.921875 48.1875 33.109375 48.1875 
Q 26.21875 48.1875 22.15625 43.53125 
Q 18.109375 38.875 18.109375 30.90625 
L 18.109375 0 
L 9.078125 0 
L 9.078125 54.6875 
L 18.109375 54.6875 
L 18.109375 46.1875 
Q 21.1875 51.21875 25.484375 53.609375 
Q 29.78125 56 35.6875 56 
Q 41.65625 56 45.828125 52.96875 
Q 50 49.953125 52 44.1875 
z
" id="DejaVuSans-109"/>
      <path d="M 45.40625 46.390625 
L 45.40625 75.984375 
L 54.390625 75.984375 
L 54.390625 0 
L 45.40625 0 
L 45.40625 8.203125 
Q 42.578125 3.328125 38.25 0.953125 
Q 33.9375 -1.421875 27.875 -1.421875 
Q 17.96875 -1.421875 11.734375 6.484375 
Q 5.515625 14.40625 5.515625 27.296875 
Q 5.515625 40.1875 11.734375 48.09375 
Q 17.96875 56 27.875 56 
Q 33.9375 56 38.25 53.625 
Q 42.578125 51.265625 45.40625 46.390625 
z
M 14.796875 27.296875 
Q 14.796875 17.390625 18.875 11.75 
Q 22.953125 6.109375 30.078125 6.109375 
Q 37.203125 6.109375 41.296875 11.75 
Q 45.40625 17.390625 45.40625 27.296875 
Q 45.40625 37.203125 41.296875 42.84375 
Q 37.203125 48.484375 30.078125 48.484375 
Q 22.953125 48.484375 18.875 42.84375 
Q 14.796875 37.203125 14.796875 27.296875 
z
" id="DejaVuSans-100"/>
     </defs>
     <g transform="translate(161.795449 25.738594)scale(0.09 -0.09)">
      <use xlink:href="#DejaVuSans-115"/>
      <use x="52.099609" xlink:href="#DejaVuSans-105"/>
      <use x="79.882812" xlink:href="#DejaVuSans-109"/>
      <use x="177.294922" xlink:href="#DejaVuSans-117"/>
      <use x="240.673828" xlink:href="#DejaVuSans-108"/>
      <use x="268.457031" xlink:href="#DejaVuSans-97"/>
      <use x="329.736328" xlink:href="#DejaVuSans-116"/>
      <use x="368.945312" xlink:href="#DejaVuSans-101"/>
      <use x="430.46875" xlink:href="#DejaVuSans-100"/>
     </g>
    </g>
    <g id="line2d_23">
     <path d="M 136.595449 35.798906 
L 154.595449 35.798906 
" style="fill:none;stroke:#ff0000;stroke-dasharray:3.7,1.6;stroke-dashoffset:0;"/>
    </g>
    <g id="line2d_24"/>
    <g id="text_13">
     <!-- target -->
     <defs>
      <path d="M 45.40625 27.984375 
Q 45.40625 37.75 41.375 43.109375 
Q 37.359375 48.484375 30.078125 48.484375 
Q 22.859375 48.484375 18.828125 43.109375 
Q 14.796875 37.75 14.796875 27.984375 
Q 14.796875 18.265625 18.828125 12.890625 
Q 22.859375 7.515625 30.078125 7.515625 
Q 37.359375 7.515625 41.375 12.890625 
Q 45.40625 18.265625 45.40625 27.984375 
z
M 54.390625 6.78125 
Q 54.390625 -7.171875 48.1875 -13.984375 
Q 42 -20.796875 29.203125 -20.796875 
Q 24.46875 -20.796875 20.265625 -20.09375 
Q 16.0625 -19.390625 12.109375 -17.921875 
L 12.109375 -9.1875 
Q 16.0625 -11.328125 19.921875 -12.34375 
Q 23.78125 -13.375 27.78125 -13.375 
Q 36.625 -13.375 41.015625 -8.765625 
Q 45.40625 -4.15625 45.40625 5.171875 
L 45.40625 9.625 
Q 42.625 4.78125 38.28125 2.390625 
Q 33.9375 0 27.875 0 
Q 17.828125 0 11.671875 7.65625 
Q 5.515625 15.328125 5.515625 27.984375 
Q 5.515625 40.671875 11.671875 48.328125 
Q 17.828125 56 27.875 56 
Q 33.9375 56 38.28125 53.609375 
Q 42.625 51.21875 45.40625 46.390625 
L 45.40625 54.6875 
L 54.390625 54.6875 
z
" id="DejaVuSans-103"/>
     </defs>
     <g transform="translate(161.795449 38.948906)scale(0.09 -0.09)">
      <use xlink:href="#DejaVuSans-116"/>
      <use x="39.208984" xlink:href="#DejaVuSans-97"/>
      <use x="100.488281" xlink:href="#DejaVuSans-114"/>
      <use x="141.585938" xlink:href="#DejaVuSans-103"/>
      <use x="205.0625" xlink:href="#DejaVuSans-101"/>
      <use x="266.585938" xlink:href="#DejaVuSans-116"/>
     </g>
    </g>
   </g>
  </g>
 </g>
 <defs>
  <clipPath id="p67afd3ff58">
   <rect height="118.12249" width="170.146699" x="44.203125" y="10.8"/>
  </clipPath>
 </defs>
</svg>
