<?xml version="1.0" encoding="utf-8" standalone="no"?>
<!DOCTYPE svg PUBLIC "-//W3C//DTD SVG 1.1//EN"
  "http://www.w3.org/Graphics/SVG/1.1/DTD/svg11.dtd">
<!-- Created with matplotlib (https://matplotlib.org/) -->
<svg height="198.425197pt" version="1.1" viewBox="0 0 226.771654 198.425197" width="226.771654pt" xmlns="http://www.w3.org/2000/svg" xmlns:xlink="http://www.w3.org/1999/xlink">
 <defs>
  <style type="text/css">
*{stroke-linecap:butt;stroke-linejoin:round;}
  </style>
 </defs>
 <g id="figure_1">
  <g id="patch_1">
   <path d="M 0 198.425197 
L 226.771654 198.425197 
L 226.771654 0 
L 0 0 
z
" style="fill:#ffffff;"/>
  </g>
  <g id="axes_1">
   <g id="patch_2">
    <path d="M 49.316875 155.333322 
L 215.971654 155.333322 
L 215.971654 10.8 
L 49.316875 10.8 
z
" style="fill:#ffffff;"/>
   </g>
   <g id="matplotlib.axis_1">
    <g id="xtick_1">
     <g id="line2d_1">
      <path clip-path="url(#p8996089fbb)" d="M 49.938715 155.333322 
L 49.938715 10.8 
" style="fill:none;stroke:#b0b0b0;stroke-linecap:square;stroke-width:0.8;"/>
     </g>
     <g id="line2d_2">
      <defs>
       <path d="M 0 0 
L 0 3.5 
" id="m4323f65c52" style="stroke:#000000;stroke-width:0.8;"/>
      </defs>
      <g>
       <use style="stroke:#000000;stroke-width:0.8;" x="49.938715" xlink:href="#m4323f65c52" y="155.333322"/>
      </g>
     </g>
     <g id="text_1">
      <!-- $\mathdefault{10^{-3}}$ -->
      <defs>
       <path d="M 12.40625 8.296875 
L 28.515625 8.296875 
L 28.515625 63.921875 
L 10.984375 60.40625 
L 10.984375 69.390625 
L 28.421875 72.90625 
L 38.28125 72.90625 
L 38.28125 8.296875 
L 54.390625 8.296875 
L 54.390625 0 
L 12.40625 0 
z
" id="DejaVuSans-49"/>
       <path d="M 31.78125 66.40625 
Q 24.171875 66.40625 20.328125 58.90625 
Q 16.5 51.421875 16.5 36.375 
Q 16.5 21.390625 20.328125 13.890625 
Q 24.171875 6.390625 31.78125 6.390625 
Q 39.453125 6.390625 43.28125 13.890625 
Q 47.125 21.390625 47.125 36.375 
Q 47.125 51.421875 43.28125 58.90625 
Q 39.453125 66.40625 31.78125 66.40625 
z
M 31.78125 74.21875 
Q 44.046875 74.21875 50.515625 64.515625 
Q 56.984375 54.828125 56.984375 36.375 
Q 56.984375 17.96875 50.515625 8.265625 
Q 44.046875 -1.421875 31.78125 -1.421875 
Q 19.53125 -1.421875 13.0625 8.265625 
Q 6.59375 17.96875 6.59375 36.375 
Q 6.59375 54.828125 13.0625 64.515625 
Q 19.53125 74.21875 31.78125 74.21875 
z
" id="DejaVuSans-48"/>
       <path d="M 10.59375 35.5 
L 73.1875 35.5 
L 73.1875 27.203125 
L 10.59375 27.203125 
z
" id="DejaVuSans-8722"/>
       <path d="M 40.578125 39.3125 
Q 47.65625 37.796875 51.625 33 
Q 55.609375 28.21875 55.609375 21.1875 
Q 55.609375 10.40625 48.1875 4.484375 
Q 40.765625 -1.421875 27.09375 -1.421875 
Q 22.515625 -1.421875 17.65625 -0.515625 
Q 12.796875 0.390625 7.625 2.203125 
L 7.625 11.71875 
Q 11.71875 9.328125 16.59375 8.109375 
Q 21.484375 6.890625 26.8125 6.890625 
Q 36.078125 6.890625 40.9375 10.546875 
Q 45.796875 14.203125 45.796875 21.1875 
Q 45.796875 27.640625 41.28125 31.265625 
Q 36.765625 34.90625 28.71875 34.90625 
L 20.21875 34.90625 
L 20.21875 43.015625 
L 29.109375 43.015625 
Q 36.375 43.015625 40.234375 45.921875 
Q 44.09375 48.828125 44.09375 54.296875 
Q 44.09375 59.90625 40.109375 62.90625 
Q 36.140625 65.921875 28.71875 65.921875 
Q 24.65625 65.921875 20.015625 65.03125 
Q 15.375 64.15625 9.8125 62.3125 
L 9.8125 71.09375 
Q 15.4375 72.65625 20.34375 73.4375 
Q 25.25 74.21875 29.59375 74.21875 
Q 40.828125 74.21875 47.359375 69.109375 
Q 53.90625 64.015625 53.90625 55.328125 
Q 53.90625 49.265625 50.4375 45.09375 
Q 46.96875 40.921875 40.578125 39.3125 
z
" id="DejaVuSans-51"/>
      </defs>
      <g transform="translate(38.188715 169.931759)scale(0.1 -0.1)">
       <use transform="translate(0 0.765625)" xlink:href="#DejaVuSans-49"/>
       <use transform="translate(63.623047 0.765625)" xlink:href="#DejaVuSans-48"/>
       <use transform="translate(128.203125 39.046875)scale(0.7)" xlink:href="#DejaVuSans-8722"/>
       <use transform="translate(186.855469 39.046875)scale(0.7)" xlink:href="#DejaVuSans-51"/>
      </g>
     </g>
    </g>
    <g id="xtick_2">
     <g id="line2d_3">
      <path clip-path="url(#p8996089fbb)" d="M 91.879259 155.333322 
L 91.879259 10.8 
" style="fill:none;stroke:#b0b0b0;stroke-linecap:square;stroke-width:0.8;"/>
     </g>
     <g id="line2d_4">
      <g>
       <use style="stroke:#000000;stroke-width:0.8;" x="91.879259" xlink:href="#m4323f65c52" y="155.333322"/>
      </g>
     </g>
     <g id="text_2">
      <!-- $\mathdefault{10^{-2}}$ -->
      <defs>
       <path d="M 19.1875 8.296875 
L 53.609375 8.296875 
L 53.609375 0 
L 7.328125 0 
L 7.328125 8.296875 
Q 12.9375 14.109375 22.625 23.890625 
Q 32.328125 33.6875 34.8125 36.53125 
Q 39.546875 41.84375 41.421875 45.53125 
Q 43.3125 49.21875 43.3125 52.78125 
Q 43.3125 58.59375 39.234375 62.25 
Q 35.15625 65.921875 28.609375 65.921875 
Q 23.96875 65.921875 18.8125 64.3125 
Q 13.671875 62.703125 7.8125 59.421875 
L 7.8125 69.390625 
Q 13.765625 71.78125 18.9375 73 
Q 24.125 74.21875 28.421875 74.21875 
Q 39.75 74.21875 46.484375 68.546875 
Q 53.21875 62.890625 53.21875 53.421875 
Q 53.21875 48.921875 51.53125 44.890625 
Q 49.859375 40.875 45.40625 35.40625 
Q 44.1875 33.984375 37.640625 27.21875 
Q 31.109375 20.453125 19.1875 8.296875 
z
" id="DejaVuSans-50"/>
      </defs>
      <g transform="translate(80.129259 169.931759)scale(0.1 -0.1)">
       <use transform="translate(0 0.765625)" xlink:href="#DejaVuSans-49"/>
       <use transform="translate(63.623047 0.765625)" xlink:href="#DejaVuSans-48"/>
       <use transform="translate(128.203125 39.046875)scale(0.7)" xlink:href="#DejaVuSans-8722"/>
       <use transform="translate(186.855469 39.046875)scale(0.7)" xlink:href="#DejaVuSans-50"/>
      </g>
     </g>
    </g>
    <g id="xtick_3">
     <g id="line2d_5">
      <path clip-path="url(#p8996089fbb)" d="M 133.819804 155.333322 
L 133.819804 10.8 
" style="fill:none;stroke:#b0b0b0;stroke-linecap:square;stroke-width:0.8;"/>
     </g>
     <g id="line2d_6">
      <g>
       <use style="stroke:#000000;stroke-width:0.8;" x="133.819804" xlink:href="#m4323f65c52" y="155.333322"/>
      </g>
     </g>
     <g id="text_3">
      <!-- $\mathdefault{10^{-1}}$ -->
      <g transform="translate(122.069804 169.931759)scale(0.1 -0.1)">
       <use transform="translate(0 0.684375)" xlink:href="#DejaVuSans-49"/>
       <use transform="translate(63.623047 0.684375)" xlink:href="#DejaVuSans-48"/>
       <use transform="translate(128.203125 38.965625)scale(0.7)" xlink:href="#DejaVuSans-8722"/>
       <use transform="translate(186.855469 38.965625)scale(0.7)" xlink:href="#DejaVuSans-49"/>
      </g>
     </g>
    </g>
    <g id="xtick_4">
     <g id="line2d_7">
      <path clip-path="url(#p8996089fbb)" d="M 175.760349 155.333322 
L 175.760349 10.8 
" style="fill:none;stroke:#b0b0b0;stroke-linecap:square;stroke-width:0.8;"/>
     </g>
     <g id="line2d_8">
      <g>
       <use style="stroke:#000000;stroke-width:0.8;" x="175.760349" xlink:href="#m4323f65c52" y="155.333322"/>
      </g>
     </g>
     <g id="text_4">
      <!-- $\mathdefault{10^{0}}$ -->
      <g transform="translate(166.960349 169.931759)scale(0.1 -0.1)">
       <use transform="translate(0 0.765625)" xlink:href="#DejaVuSans-49"/>
       <use transform="translate(63.623047 0.765625)" xlink:href="#DejaVuSans-48"/>
       <use transform="translate(128.203125 39.046875)scale(0.7)" xlink:href="#DejaVuSans-48"/>
      </g>
     </g>
    </g>
    <g id="xtick_5">
     <g id="line2d_9">
      <defs>
       <path d="M 0 0 
L 0 2 
" id="m50b366e6c5" style="stroke:#000000;stroke-width:0.6;"/>
      </defs>
      <g>
       <use style="stroke:#000000;stroke-width:0.6;" x="62.564077" xlink:href="#m50b366e6c5" y="155.333322"/>
      </g>
     </g>
    </g>
    <g id="xtick_6">
     <g id="line2d_10">
      <g>
       <use style="stroke:#000000;stroke-width:0.6;" x="69.94944" xlink:href="#m50b366e6c5" y="155.333322"/>
      </g>
     </g>
    </g>
    <g id="xtick_7">
     <g id="line2d_11">
      <g>
       <use style="stroke:#000000;stroke-width:0.6;" x="75.189439" xlink:href="#m50b366e6c5" y="155.333322"/>
      </g>
     </g>
    </g>
    <g id="xtick_8">
     <g id="line2d_12">
      <g>
       <use style="stroke:#000000;stroke-width:0.6;" x="79.253897" xlink:href="#m50b366e6c5" y="155.333322"/>
      </g>
     </g>
    </g>
    <g id="xtick_9">
     <g id="line2d_13">
      <g>
       <use style="stroke:#000000;stroke-width:0.6;" x="82.574802" xlink:href="#m50b366e6c5" y="155.333322"/>
      </g>
     </g>
    </g>
    <g id="xtick_10">
     <g id="line2d_14">
      <g>
       <use style="stroke:#000000;stroke-width:0.6;" x="85.382587" xlink:href="#m50b366e6c5" y="155.333322"/>
      </g>
     </g>
    </g>
    <g id="xtick_11">
     <g id="line2d_15">
      <g>
       <use style="stroke:#000000;stroke-width:0.6;" x="87.814801" xlink:href="#m50b366e6c5" y="155.333322"/>
      </g>
     </g>
    </g>
    <g id="xtick_12">
     <g id="line2d_16">
      <g>
       <use style="stroke:#000000;stroke-width:0.6;" x="89.960165" xlink:href="#m50b366e6c5" y="155.333322"/>
      </g>
     </g>
    </g>
    <g id="xtick_13">
     <g id="line2d_17">
      <g>
       <use style="stroke:#000000;stroke-width:0.6;" x="104.504621" xlink:href="#m50b366e6c5" y="155.333322"/>
      </g>
     </g>
    </g>
    <g id="xtick_14">
     <g id="line2d_18">
      <g>
       <use style="stroke:#000000;stroke-width:0.6;" x="111.889985" xlink:href="#m50b366e6c5" y="155.333322"/>
      </g>
     </g>
    </g>
    <g id="xtick_15">
     <g id="line2d_19">
      <g>
       <use style="stroke:#000000;stroke-width:0.6;" x="117.129983" xlink:href="#m50b366e6c5" y="155.333322"/>
      </g>
     </g>
    </g>
    <g id="xtick_16">
     <g id="line2d_20">
      <g>
       <use style="stroke:#000000;stroke-width:0.6;" x="121.194442" xlink:href="#m50b366e6c5" y="155.333322"/>
      </g>
     </g>
    </g>
    <g id="xtick_17">
     <g id="line2d_21">
      <g>
       <use style="stroke:#000000;stroke-width:0.6;" x="124.515347" xlink:href="#m50b366e6c5" y="155.333322"/>
      </g>
     </g>
    </g>
    <g id="xtick_18">
     <g id="line2d_22">
      <g>
       <use style="stroke:#000000;stroke-width:0.6;" x="127.323132" xlink:href="#m50b366e6c5" y="155.333322"/>
      </g>
     </g>
    </g>
    <g id="xtick_19">
     <g id="line2d_23">
      <g>
       <use style="stroke:#000000;stroke-width:0.6;" x="129.755345" xlink:href="#m50b366e6c5" y="155.333322"/>
      </g>
     </g>
    </g>
    <g id="xtick_20">
     <g id="line2d_24">
      <g>
       <use style="stroke:#000000;stroke-width:0.6;" x="131.90071" xlink:href="#m50b366e6c5" y="155.333322"/>
      </g>
     </g>
    </g>
    <g id="xtick_21">
     <g id="line2d_25">
      <g>
       <use style="stroke:#000000;stroke-width:0.6;" x="146.445166" xlink:href="#m50b366e6c5" y="155.333322"/>
      </g>
     </g>
    </g>
    <g id="xtick_22">
     <g id="line2d_26">
      <g>
       <use style="stroke:#000000;stroke-width:0.6;" x="153.83053" xlink:href="#m50b366e6c5" y="155.333322"/>
      </g>
     </g>
    </g>
    <g id="xtick_23">
     <g id="line2d_27">
      <g>
       <use style="stroke:#000000;stroke-width:0.6;" x="159.070528" xlink:href="#m50b366e6c5" y="155.333322"/>
      </g>
     </g>
    </g>
    <g id="xtick_24">
     <g id="line2d_28">
      <g>
       <use style="stroke:#000000;stroke-width:0.6;" x="163.134987" xlink:href="#m50b366e6c5" y="155.333322"/>
      </g>
     </g>
    </g>
    <g id="xtick_25">
     <g id="line2d_29">
      <g>
       <use style="stroke:#000000;stroke-width:0.6;" x="166.455892" xlink:href="#m50b366e6c5" y="155.333322"/>
      </g>
     </g>
    </g>
    <g id="xtick_26">
     <g id="line2d_30">
      <g>
       <use style="stroke:#000000;stroke-width:0.6;" x="169.263676" xlink:href="#m50b366e6c5" y="155.333322"/>
      </g>
     </g>
    </g>
    <g id="xtick_27">
     <g id="line2d_31">
      <g>
       <use style="stroke:#000000;stroke-width:0.6;" x="171.69589" xlink:href="#m50b366e6c5" y="155.333322"/>
      </g>
     </g>
    </g>
    <g id="xtick_28">
     <g id="line2d_32">
      <g>
       <use style="stroke:#000000;stroke-width:0.6;" x="173.841255" xlink:href="#m50b366e6c5" y="155.333322"/>
      </g>
     </g>
    </g>
    <g id="xtick_29">
     <g id="line2d_33">
      <g>
       <use style="stroke:#000000;stroke-width:0.6;" x="188.385711" xlink:href="#m50b366e6c5" y="155.333322"/>
      </g>
     </g>
    </g>
    <g id="xtick_30">
     <g id="line2d_34">
      <g>
       <use style="stroke:#000000;stroke-width:0.6;" x="195.771074" xlink:href="#m50b366e6c5" y="155.333322"/>
      </g>
     </g>
    </g>
    <g id="xtick_31">
     <g id="line2d_35">
      <g>
       <use style="stroke:#000000;stroke-width:0.6;" x="201.011073" xlink:href="#m50b366e6c5" y="155.333322"/>
      </g>
     </g>
    </g>
    <g id="xtick_32">
     <g id="line2d_36">
      <g>
       <use style="stroke:#000000;stroke-width:0.6;" x="205.075532" xlink:href="#m50b366e6c5" y="155.333322"/>
      </g>
     </g>
    </g>
    <g id="xtick_33">
     <g id="line2d_37">
      <g>
       <use style="stroke:#000000;stroke-width:0.6;" x="208.396436" xlink:href="#m50b366e6c5" y="155.333322"/>
      </g>
     </g>
    </g>
    <g id="xtick_34">
     <g id="line2d_38">
      <g>
       <use style="stroke:#000000;stroke-width:0.6;" x="211.204221" xlink:href="#m50b366e6c5" y="155.333322"/>
      </g>
     </g>
    </g>
    <g id="xtick_35">
     <g id="line2d_39">
      <g>
       <use style="stroke:#000000;stroke-width:0.6;" x="213.636435" xlink:href="#m50b366e6c5" y="155.333322"/>
      </g>
     </g>
    </g>
    <g id="xtick_36">
     <g id="line2d_40">
      <g>
       <use style="stroke:#000000;stroke-width:0.6;" x="215.7818" xlink:href="#m50b366e6c5" y="155.333322"/>
      </g>
     </g>
    </g>
    <g id="text_5">
     <!-- f (Hz) -->
     <defs>
      <path d="M 47.796875 75.984375 
L 46.390625 68.5 
L 37.796875 68.5 
Q 32.90625 68.5 30.6875 66.578125 
Q 28.46875 64.65625 27.390625 59.515625 
L 26.421875 54.6875 
L 41.21875 54.6875 
L 39.890625 47.703125 
L 25.09375 47.703125 
L 15.828125 0 
L 6.78125 0 
L 16.109375 47.703125 
L 7.515625 47.703125 
L 8.796875 54.6875 
L 17.390625 54.6875 
L 18.109375 58.5 
Q 19.96875 68.171875 24.625 72.078125 
Q 29.296875 75.984375 39.3125 75.984375 
z
" id="DejaVuSans-Oblique-102"/>
      <path id="DejaVuSans-Oblique-32"/>
      <path d="M 42.671875 75.875 
Q 29.734375 59.71875 23.359375 45.1875 
Q 17 30.671875 17 17.1875 
Q 17 9.46875 18.84375 1.875 
Q 20.703125 -5.71875 24.421875 -13.1875 
L 16.609375 -13.1875 
Q 12.109375 -4.78125 9.90625 3.140625 
Q 7.71875 11.078125 7.71875 18.703125 
Q 7.71875 33.203125 14.421875 47.4375 
Q 21.140625 61.671875 34.71875 75.875 
z
" id="DejaVuSans-Oblique-40"/>
      <path d="M 16.890625 72.90625 
L 26.8125 72.90625 
L 21 43.015625 
L 56.78125 43.015625 
L 62.59375 72.90625 
L 72.515625 72.90625 
L 58.296875 0 
L 48.390625 0 
L 55.171875 34.71875 
L 19.390625 34.71875 
L 12.59375 0 
L 2.6875 0 
z
" id="DejaVuSans-Oblique-72"/>
      <path d="M 11.625 54.6875 
L 54.296875 54.6875 
L 52.6875 46.484375 
L 11.53125 7.171875 
L 45.515625 7.171875 
L 44.09375 0 
L -0.296875 0 
L 1.3125 8.203125 
L 42.484375 47.515625 
L 10.203125 47.515625 
z
" id="DejaVuSans-Oblique-122"/>
      <path d="M -6.203125 -13.1875 
Q 6.78125 2.984375 13.125 17.5 
Q 19.484375 32.03125 19.484375 45.515625 
Q 19.484375 53.21875 17.65625 60.8125 
Q 15.828125 68.40625 12.109375 75.875 
L 19.921875 75.875 
Q 24.421875 67.4375 26.609375 59.5625 
Q 28.8125 51.703125 28.8125 44.09375 
Q 28.8125 29.546875 22.046875 15.203125 
Q 15.28125 0.875 1.8125 -13.1875 
z
" id="DejaVuSans-Oblique-41"/>
     </defs>
     <g transform="translate(116.282077 185.129572)scale(0.12 -0.12)">
      <use xlink:href="#DejaVuSans-Oblique-102"/>
      <use x="35.205078" xlink:href="#DejaVuSans-Oblique-32"/>
      <use x="66.992188" xlink:href="#DejaVuSans-Oblique-40"/>
      <use x="106.005859" xlink:href="#DejaVuSans-Oblique-72"/>
      <use x="181.201172" xlink:href="#DejaVuSans-Oblique-122"/>
      <use x="233.691406" xlink:href="#DejaVuSans-Oblique-41"/>
     </g>
    </g>
   </g>
   <g id="matplotlib.axis_2">
    <g id="ytick_1">
     <g id="line2d_41">
      <path clip-path="url(#p8996089fbb)" d="M 49.316875 148.763852 
L 215.971654 148.763852 
" style="fill:none;stroke:#b0b0b0;stroke-linecap:square;stroke-width:0.8;"/>
     </g>
     <g id="line2d_42">
      <defs>
       <path d="M 0 0 
L -3.5 0 
" id="ma8e03cc346" style="stroke:#000000;stroke-width:0.8;"/>
      </defs>
      <g>
       <use style="stroke:#000000;stroke-width:0.8;" x="49.316875" xlink:href="#ma8e03cc346" y="148.763852"/>
      </g>
     </g>
     <g id="text_6">
      <!-- 0.0 -->
      <defs>
       <path d="M 10.6875 12.40625 
L 21 12.40625 
L 21 0 
L 10.6875 0 
z
" id="DejaVuSans-46"/>
      </defs>
      <g transform="translate(26.41375 152.563071)scale(0.1 -0.1)">
       <use xlink:href="#DejaVuSans-48"/>
       <use x="63.623047" xlink:href="#DejaVuSans-46"/>
       <use x="95.410156" xlink:href="#DejaVuSans-48"/>
      </g>
     </g>
    </g>
    <g id="ytick_2">
     <g id="line2d_43">
      <path clip-path="url(#p8996089fbb)" d="M 49.316875 122.399728 
L 215.971654 122.399728 
" style="fill:none;stroke:#b0b0b0;stroke-linecap:square;stroke-width:0.8;"/>
     </g>
     <g id="line2d_44">
      <g>
       <use style="stroke:#000000;stroke-width:0.8;" x="49.316875" xlink:href="#ma8e03cc346" y="122.399728"/>
      </g>
     </g>
     <g id="text_7">
      <!-- 0.2 -->
      <g transform="translate(26.41375 126.198947)scale(0.1 -0.1)">
       <use xlink:href="#DejaVuSans-48"/>
       <use x="63.623047" xlink:href="#DejaVuSans-46"/>
       <use x="95.410156" xlink:href="#DejaVuSans-50"/>
      </g>
     </g>
    </g>
    <g id="ytick_3">
     <g id="line2d_45">
      <path clip-path="url(#p8996089fbb)" d="M 49.316875 96.035604 
L 215.971654 96.035604 
" style="fill:none;stroke:#b0b0b0;stroke-linecap:square;stroke-width:0.8;"/>
     </g>
     <g id="line2d_46">
      <g>
       <use style="stroke:#000000;stroke-width:0.8;" x="49.316875" xlink:href="#ma8e03cc346" y="96.035604"/>
      </g>
     </g>
     <g id="text_8">
      <!-- 0.4 -->
      <defs>
       <path d="M 37.796875 64.3125 
L 12.890625 25.390625 
L 37.796875 25.390625 
z
M 35.203125 72.90625 
L 47.609375 72.90625 
L 47.609375 25.390625 
L 58.015625 25.390625 
L 58.015625 17.1875 
L 47.609375 17.1875 
L 47.609375 0 
L 37.796875 0 
L 37.796875 17.1875 
L 4.890625 17.1875 
L 4.890625 26.703125 
z
" id="DejaVuSans-52"/>
      </defs>
      <g transform="translate(26.41375 99.834822)scale(0.1 -0.1)">
       <use xlink:href="#DejaVuSans-48"/>
       <use x="63.623047" xlink:href="#DejaVuSans-46"/>
       <use x="95.410156" xlink:href="#DejaVuSans-52"/>
      </g>
     </g>
    </g>
    <g id="ytick_4">
     <g id="line2d_47">
      <path clip-path="url(#p8996089fbb)" d="M 49.316875 69.671479 
L 215.971654 69.671479 
" style="fill:none;stroke:#b0b0b0;stroke-linecap:square;stroke-width:0.8;"/>
     </g>
     <g id="line2d_48">
      <g>
       <use style="stroke:#000000;stroke-width:0.8;" x="49.316875" xlink:href="#ma8e03cc346" y="69.671479"/>
      </g>
     </g>
     <g id="text_9">
      <!-- 0.6 -->
      <defs>
       <path d="M 33.015625 40.375 
Q 26.375 40.375 22.484375 35.828125 
Q 18.609375 31.296875 18.609375 23.390625 
Q 18.609375 15.53125 22.484375 10.953125 
Q 26.375 6.390625 33.015625 6.390625 
Q 39.65625 6.390625 43.53125 10.953125 
Q 47.40625 15.53125 47.40625 23.390625 
Q 47.40625 31.296875 43.53125 35.828125 
Q 39.65625 40.375 33.015625 40.375 
z
M 52.59375 71.296875 
L 52.59375 62.3125 
Q 48.875 64.0625 45.09375 64.984375 
Q 41.3125 65.921875 37.59375 65.921875 
Q 27.828125 65.921875 22.671875 59.328125 
Q 17.53125 52.734375 16.796875 39.40625 
Q 19.671875 43.65625 24.015625 45.921875 
Q 28.375 48.1875 33.59375 48.1875 
Q 44.578125 48.1875 50.953125 41.515625 
Q 57.328125 34.859375 57.328125 23.390625 
Q 57.328125 12.15625 50.6875 5.359375 
Q 44.046875 -1.421875 33.015625 -1.421875 
Q 20.359375 -1.421875 13.671875 8.265625 
Q 6.984375 17.96875 6.984375 36.375 
Q 6.984375 53.65625 15.1875 63.9375 
Q 23.390625 74.21875 37.203125 74.21875 
Q 40.921875 74.21875 44.703125 73.484375 
Q 48.484375 72.75 52.59375 71.296875 
z
" id="DejaVuSans-54"/>
      </defs>
      <g transform="translate(26.41375 73.470698)scale(0.1 -0.1)">
       <use xlink:href="#DejaVuSans-48"/>
       <use x="63.623047" xlink:href="#DejaVuSans-46"/>
       <use x="95.410156" xlink:href="#DejaVuSans-54"/>
      </g>
     </g>
    </g>
    <g id="ytick_5">
     <g id="line2d_49">
      <path clip-path="url(#p8996089fbb)" d="M 49.316875 43.307355 
L 215.971654 43.307355 
" style="fill:none;stroke:#b0b0b0;stroke-linecap:square;stroke-width:0.8;"/>
     </g>
     <g id="line2d_50">
      <g>
       <use style="stroke:#000000;stroke-width:0.8;" x="49.316875" xlink:href="#ma8e03cc346" y="43.307355"/>
      </g>
     </g>
     <g id="text_10">
      <!-- 0.8 -->
      <defs>
       <path d="M 31.78125 34.625 
Q 24.75 34.625 20.71875 30.859375 
Q 16.703125 27.09375 16.703125 20.515625 
Q 16.703125 13.921875 20.71875 10.15625 
Q 24.75 6.390625 31.78125 6.390625 
Q 38.8125 6.390625 42.859375 10.171875 
Q 46.921875 13.96875 46.921875 20.515625 
Q 46.921875 27.09375 42.890625 30.859375 
Q 38.875 34.625 31.78125 34.625 
z
M 21.921875 38.8125 
Q 15.578125 40.375 12.03125 44.71875 
Q 8.5 49.078125 8.5 55.328125 
Q 8.5 64.0625 14.71875 69.140625 
Q 20.953125 74.21875 31.78125 74.21875 
Q 42.671875 74.21875 48.875 69.140625 
Q 55.078125 64.0625 55.078125 55.328125 
Q 55.078125 49.078125 51.53125 44.71875 
Q 48 40.375 41.703125 38.8125 
Q 48.828125 37.15625 52.796875 32.3125 
Q 56.78125 27.484375 56.78125 20.515625 
Q 56.78125 9.90625 50.3125 4.234375 
Q 43.84375 -1.421875 31.78125 -1.421875 
Q 19.734375 -1.421875 13.25 4.234375 
Q 6.78125 9.90625 6.78125 20.515625 
Q 6.78125 27.484375 10.78125 32.3125 
Q 14.796875 37.15625 21.921875 38.8125 
z
M 18.3125 54.390625 
Q 18.3125 48.734375 21.84375 45.5625 
Q 25.390625 42.390625 31.78125 42.390625 
Q 38.140625 42.390625 41.71875 45.5625 
Q 45.3125 48.734375 45.3125 54.390625 
Q 45.3125 60.0625 41.71875 63.234375 
Q 38.140625 66.40625 31.78125 66.40625 
Q 25.390625 66.40625 21.84375 63.234375 
Q 18.3125 60.0625 18.3125 54.390625 
z
" id="DejaVuSans-56"/>
      </defs>
      <g transform="translate(26.41375 47.106574)scale(0.1 -0.1)">
       <use xlink:href="#DejaVuSans-48"/>
       <use x="63.623047" xlink:href="#DejaVuSans-46"/>
       <use x="95.410156" xlink:href="#DejaVuSans-56"/>
      </g>
     </g>
    </g>
    <g id="ytick_6">
     <g id="line2d_51">
      <path clip-path="url(#p8996089fbb)" d="M 49.316875 16.943231 
L 215.971654 16.943231 
" style="fill:none;stroke:#b0b0b0;stroke-linecap:square;stroke-width:0.8;"/>
     </g>
     <g id="line2d_52">
      <g>
       <use style="stroke:#000000;stroke-width:0.8;" x="49.316875" xlink:href="#ma8e03cc346" y="16.943231"/>
      </g>
     </g>
     <g id="text_11">
      <!-- 1.0 -->
      <g transform="translate(26.41375 20.742449)scale(0.1 -0.1)">
       <use xlink:href="#DejaVuSans-49"/>
       <use x="63.623047" xlink:href="#DejaVuSans-46"/>
       <use x="95.410156" xlink:href="#DejaVuSans-48"/>
      </g>
     </g>
    </g>
    <g id="text_12">
     <!-- coherence function -->
     <defs>
      <path d="M 48.78125 52.59375 
L 48.78125 44.1875 
Q 44.96875 46.296875 41.140625 47.34375 
Q 37.3125 48.390625 33.40625 48.390625 
Q 24.65625 48.390625 19.8125 42.84375 
Q 14.984375 37.3125 14.984375 27.296875 
Q 14.984375 17.28125 19.8125 11.734375 
Q 24.65625 6.203125 33.40625 6.203125 
Q 37.3125 6.203125 41.140625 7.25 
Q 44.96875 8.296875 48.78125 10.40625 
L 48.78125 2.09375 
Q 45.015625 0.34375 40.984375 -0.53125 
Q 36.96875 -1.421875 32.421875 -1.421875 
Q 20.0625 -1.421875 12.78125 6.34375 
Q 5.515625 14.109375 5.515625 27.296875 
Q 5.515625 40.671875 12.859375 48.328125 
Q 20.21875 56 33.015625 56 
Q 37.15625 56 41.109375 55.140625 
Q 45.0625 54.296875 48.78125 52.59375 
z
" id="DejaVuSans-99"/>
      <path d="M 30.609375 48.390625 
Q 23.390625 48.390625 19.1875 42.75 
Q 14.984375 37.109375 14.984375 27.296875 
Q 14.984375 17.484375 19.15625 11.84375 
Q 23.34375 6.203125 30.609375 6.203125 
Q 37.796875 6.203125 41.984375 11.859375 
Q 46.1875 17.53125 46.1875 27.296875 
Q 46.1875 37.015625 41.984375 42.703125 
Q 37.796875 48.390625 30.609375 48.390625 
z
M 30.609375 56 
Q 42.328125 56 49.015625 48.375 
Q 55.71875 40.765625 55.71875 27.296875 
Q 55.71875 13.875 49.015625 6.21875 
Q 42.328125 -1.421875 30.609375 -1.421875 
Q 18.84375 -1.421875 12.171875 6.21875 
Q 5.515625 13.875 5.515625 27.296875 
Q 5.515625 40.765625 12.171875 48.375 
Q 18.84375 56 30.609375 56 
z
" id="DejaVuSans-111"/>
      <path d="M 54.890625 33.015625 
L 54.890625 0 
L 45.90625 0 
L 45.90625 32.71875 
Q 45.90625 40.484375 42.875 44.328125 
Q 39.84375 48.1875 33.796875 48.1875 
Q 26.515625 48.1875 22.3125 43.546875 
Q 18.109375 38.921875 18.109375 30.90625 
L 18.109375 0 
L 9.078125 0 
L 9.078125 75.984375 
L 18.109375 75.984375 
L 18.109375 46.1875 
Q 21.34375 51.125 25.703125 53.5625 
Q 30.078125 56 35.796875 56 
Q 45.21875 56 50.046875 50.171875 
Q 54.890625 44.34375 54.890625 33.015625 
z
" id="DejaVuSans-104"/>
      <path d="M 56.203125 29.59375 
L 56.203125 25.203125 
L 14.890625 25.203125 
Q 15.484375 15.921875 20.484375 11.0625 
Q 25.484375 6.203125 34.421875 6.203125 
Q 39.59375 6.203125 44.453125 7.46875 
Q 49.3125 8.734375 54.109375 11.28125 
L 54.109375 2.78125 
Q 49.265625 0.734375 44.1875 -0.34375 
Q 39.109375 -1.421875 33.890625 -1.421875 
Q 20.796875 -1.421875 13.15625 6.1875 
Q 5.515625 13.8125 5.515625 26.8125 
Q 5.515625 40.234375 12.765625 48.109375 
Q 20.015625 56 32.328125 56 
Q 43.359375 56 49.78125 48.890625 
Q 56.203125 41.796875 56.203125 29.59375 
z
M 47.21875 32.234375 
Q 47.125 39.59375 43.09375 43.984375 
Q 39.0625 48.390625 32.421875 48.390625 
Q 24.90625 48.390625 20.390625 44.140625 
Q 15.875 39.890625 15.1875 32.171875 
z
" id="DejaVuSans-101"/>
      <path d="M 41.109375 46.296875 
Q 39.59375 47.171875 37.8125 47.578125 
Q 36.03125 48 33.890625 48 
Q 26.265625 48 22.1875 43.046875 
Q 18.109375 38.09375 18.109375 28.8125 
L 18.109375 0 
L 9.078125 0 
L 9.078125 54.6875 
L 18.109375 54.6875 
L 18.109375 46.1875 
Q 20.953125 51.171875 25.484375 53.578125 
Q 30.03125 56 36.53125 56 
Q 37.453125 56 38.578125 55.875 
Q 39.703125 55.765625 41.0625 55.515625 
z
" id="DejaVuSans-114"/>
      <path d="M 54.890625 33.015625 
L 54.890625 0 
L 45.90625 0 
L 45.90625 32.71875 
Q 45.90625 40.484375 42.875 44.328125 
Q 39.84375 48.1875 33.796875 48.1875 
Q 26.515625 48.1875 22.3125 43.546875 
Q 18.109375 38.921875 18.109375 30.90625 
L 18.109375 0 
L 9.078125 0 
L 9.078125 54.6875 
L 18.109375 54.6875 
L 18.109375 46.1875 
Q 21.34375 51.125 25.703125 53.5625 
Q 30.078125 56 35.796875 56 
Q 45.21875 56 50.046875 50.171875 
Q 54.890625 44.34375 54.890625 33.015625 
z
" id="DejaVuSans-110"/>
      <path id="DejaVuSans-32"/>
      <path d="M 37.109375 75.984375 
L 37.109375 68.5 
L 28.515625 68.5 
Q 23.6875 68.5 21.796875 66.546875 
Q 19.921875 64.59375 19.921875 59.515625 
L 19.921875 54.6875 
L 34.71875 54.6875 
L 34.71875 47.703125 
L 19.921875 47.703125 
L 19.921875 0 
L 10.890625 0 
L 10.890625 47.703125 
L 2.296875 47.703125 
L 2.296875 54.6875 
L 10.890625 54.6875 
L 10.890625 58.5 
Q 10.890625 67.625 15.140625 71.796875 
Q 19.390625 75.984375 28.609375 75.984375 
z
" id="DejaVuSans-102"/>
      <path d="M 8.5 21.578125 
L 8.5 54.6875 
L 17.484375 54.6875 
L 17.484375 21.921875 
Q 17.484375 14.15625 20.5 10.265625 
Q 23.53125 6.390625 29.59375 6.390625 
Q 36.859375 6.390625 41.078125 11.03125 
Q 45.3125 15.671875 45.3125 23.6875 
L 45.3125 54.6875 
L 54.296875 54.6875 
L 54.296875 0 
L 45.3125 0 
L 45.3125 8.40625 
Q 42.046875 3.421875 37.71875 1 
Q 33.40625 -1.421875 27.6875 -1.421875 
Q 18.265625 -1.421875 13.375 4.4375 
Q 8.5 10.296875 8.5 21.578125 
z
M 31.109375 56 
z
" id="DejaVuSans-117"/>
      <path d="M 18.3125 70.21875 
L 18.3125 54.6875 
L 36.8125 54.6875 
L 36.8125 47.703125 
L 18.3125 47.703125 
L 18.3125 18.015625 
Q 18.3125 11.328125 20.140625 9.421875 
Q 21.96875 7.515625 27.59375 7.515625 
L 36.8125 7.515625 
L 36.8125 0 
L 27.59375 0 
Q 17.1875 0 13.234375 3.875 
Q 9.28125 7.765625 9.28125 18.015625 
L 9.28125 47.703125 
L 2.6875 47.703125 
L 2.6875 54.6875 
L 9.28125 54.6875 
L 9.28125 70.21875 
z
" id="DejaVuSans-116"/>
      <path d="M 9.421875 54.6875 
L 18.40625 54.6875 
L 18.40625 0 
L 9.421875 0 
z
M 9.421875 75.984375 
L 18.40625 75.984375 
L 18.40625 64.59375 
L 9.421875 64.59375 
z
" id="DejaVuSans-105"/>
     </defs>
     <g transform="translate(19.918125 140.897286)rotate(-90)scale(0.12 -0.12)">
      <use xlink:href="#DejaVuSans-99"/>
      <use x="54.980469" xlink:href="#DejaVuSans-111"/>
      <use x="116.162109" xlink:href="#DejaVuSans-104"/>
      <use x="179.541016" xlink:href="#DejaVuSans-101"/>
      <use x="241.064453" xlink:href="#DejaVuSans-114"/>
      <use x="282.146484" xlink:href="#DejaVuSans-101"/>
      <use x="343.669922" xlink:href="#DejaVuSans-110"/>
      <use x="407.048828" xlink:href="#DejaVuSans-99"/>
      <use x="462.029297" xlink:href="#DejaVuSans-101"/>
      <use x="523.552734" xlink:href="#DejaVuSans-32"/>
      <use x="555.339844" xlink:href="#DejaVuSans-102"/>
      <use x="590.544922" xlink:href="#DejaVuSans-117"/>
      <use x="653.923828" xlink:href="#DejaVuSans-110"/>
      <use x="717.302734" xlink:href="#DejaVuSans-99"/>
      <use x="772.283203" xlink:href="#DejaVuSans-116"/>
      <use x="811.492188" xlink:href="#DejaVuSans-105"/>
      <use x="839.275391" xlink:href="#DejaVuSans-111"/>
      <use x="900.457031" xlink:href="#DejaVuSans-110"/>
     </g>
    </g>
   </g>
   <g id="line2d_53">
    <path clip-path="url(#p8996089fbb)" d="M 56.892092 17.369696 
L 69.517454 17.794782 
L 79.710602 18.429834 
L 86.207275 19.061807 
L 92.335964 19.899673 
L 96.913543 20.732126 
L 101.378337 21.765135 
L 105.600499 22.993749 
L 109.025785 24.210478 
L 112.34669 25.615125 
L 115.522458 27.20105 
L 118.537228 28.960816 
L 121.389063 30.886249 
L 124.083361 32.968504 
L 126.825977 35.38198 
L 129.380191 37.924883 
L 131.918489 40.761297 
L 134.406151 43.865594 
L 136.934994 47.374683 
L 139.549005 51.399442 
L 142.174992 55.868433 
L 144.83764 60.847412 
L 147.603744 66.497864 
L 150.545166 73.022332 
L 153.803829 80.813883 
L 157.680276 90.696113 
L 169.571081 121.472026 
L 172.201319 127.39501 
L 174.470611 131.978259 
L 176.513861 135.621137 
L 178.408619 138.55645 
L 180.187596 140.91288 
L 181.89412 142.812732 
L 183.558998 144.339698 
L 185.219787 145.564223 
L 186.90886 146.534468 
L 188.679056 147.293755 
L 190.596181 147.871326 
L 192.781545 148.291696 
L 195.461624 148.57049 
L 199.24255 148.72093 
L 207.362645 148.76338 
L 208.396436 148.763625 
L 208.396436 148.763625 
" style="fill:none;stroke:#ff0000;stroke-linecap:square;stroke-width:2;"/>
   </g>
   <g id="line2d_54">
    <path clip-path="url(#p8996089fbb)" d="M -1 21.016045 
L 82.142816 20.998144 
L 94.768178 22.318743 
L 102.153542 27.347143 
L 107.39354 29.757009 
L 111.457999 31.218765 
L 117.586688 37.22061 
L 120.018902 39.136672 
L 122.164267 40.432589 
L 124.083361 38.07132 
L 125.819393 43.196367 
L 127.404266 44.855868 
L 128.862207 48.259584 
L 130.21205 46.47442 
L 131.468724 53.149518 
L 132.644264 62.422894 
L 133.748514 70.215889 
L 134.789629 71.7263 
L 135.774439 74.245296 
L 136.708723 71.683208 
L 137.597414 82.119947 
L 138.444755 59.441986 
L 139.254424 46.886203 
L 140.029628 85.266311 
L 140.773182 68.460251 
L 141.487569 89.278349 
L 142.174992 84.058423 
L 142.837412 109.328617 
L 143.476585 92.272692 
L 144.094086 97.493835 
L 144.691338 111.53489 
L 145.269626 94.333521 
L 145.830118 101.86367 
L 146.373876 101.696576 
L 146.901871 77.221064 
L 147.414991 69.059134 
L 147.914051 81.048485 
L 148.399801 87.684539 
L 148.872933 105.654681 
L 149.334085 139.440493 
L 149.78385 92.211856 
L 150.222776 97.841361 
L 150.651373 110.829907 
L 151.070117 100.381499 
L 151.47945 77.773107 
L 151.879786 90.479573 
L 152.271511 118.880417 
L 153.030561 95.906776 
L 153.398544 80.678117 
L 153.75924 91.7735 
L 154.112931 110.088928 
L 154.459886 96.803088 
L 154.800354 104.318611 
L 155.462774 126.410508 
L 155.785164 127.016702 
L 156.101947 109.854714 
L 156.413314 72.141291 
L 156.719448 83.025203 
L 157.020522 134.317354 
L 157.3167 126.890338 
L 157.608139 129.129959 
L 157.894988 135.600341 
L 158.17739 132.79616 
L 158.45548 143.087639 
L 158.729388 115.709223 
L 158.999238 114.347708 
L 159.265149 130.953309 
L 159.527233 137.615127 
L 160.040353 98.195524 
L 160.539413 130.716849 
L 161.025163 89.592516 
L 161.263265 118.221664 
L 161.498295 106.061441 
L 161.73033 101.184121 
L 161.959447 100.218946 
L 162.185718 100.188882 
L 162.409212 144.242534 
L 162.629997 148.049437 
L 162.848138 143.599334 
L 163.063697 114.050115 
L 163.276735 108.598477 
L 163.48731 133.459513 
L 163.695479 142.112265 
L 163.901295 124.624818 
L 164.104812 146.507542 
L 164.306079 137.499879 
L 164.505148 136.460491 
L 164.702063 111.779181 
L 164.896873 115.848566 
L 165.089622 127.217817 
L 165.280352 115.812496 
L 165.469105 139.207772 
L 165.655923 108.698091 
L 166.023906 134.971565 
L 166.205147 139.93134 
L 166.562306 116.414716 
L 166.912597 145.753192 
L 167.256277 123.186937 
L 167.425716 146.771072 
L 167.593593 140.588598 
L 167.759938 142.468255 
L 167.924776 147.157378 
L 168.088136 145.592182 
L 168.410526 105.643819 
L 168.569606 112.525773 
L 168.727309 143.404664 
L 168.883658 140.580656 
L 169.038676 134.559561 
L 169.192386 133.03431 
L 169.34481 144.047167 
L 169.495969 146.737799 
L 169.645884 146.264142 
L 169.794575 126.410609 
L 169.942062 83.635138 
L 170.233501 143.082095 
L 170.37749 146.986966 
L 170.52035 121.390535 
L 170.802752 146.882626 
L 170.942328 146.532991 
L 171.080842 140.133582 
L 171.218311 140.09626 
L 171.35475 148.736661 
L 171.6246 138.215442 
L 171.758041 134.940086 
L 171.890511 142.385802 
L 172.022024 135.302895 
L 172.152595 142.669619 
L 172.282237 131.434079 
L 172.410962 132.457628 
L 172.538784 134.788215 
L 172.665715 147.12802 
L 172.791768 146.922031 
L 172.916954 128.760975 
L 173.164775 147.217143 
L 173.287432 143.821441 
L 173.409269 144.706893 
L 173.530296 135.608214 
L 173.650525 135.880723 
L 173.888627 147.667974 
L 174.006521 140.916663 
L 174.123657 145.006474 
L 174.240044 144.888473 
L 174.355692 141.989013 
L 174.470611 142.906999 
L 174.584809 141.153811 
L 174.698296 147.223784 
L 174.81108 125.193909 
L 174.923169 147.731694 
L 175.034574 147.595629 
L 175.255359 142.560934 
L 175.364756 141.881278 
L 175.4735 125.793739 
L 175.689059 144.970089 
L 175.79589 147.743615 
L 175.902097 144.891938 
L 176.112672 113.965534 
L 176.217054 123.810533 
L 176.320841 113.269681 
L 176.526657 140.672888 
L 176.730174 148.717768 
L 176.831086 147.117578 
L 176.931441 136.504305 
L 177.031247 140.112035 
L 177.13051 148.587266 
L 177.229234 146.131361 
L 177.327425 120.068697 
L 177.522235 147.221529 
L 177.618864 119.984119 
L 177.810598 140.500464 
L 177.905714 132.400506 
L 178.094467 145.816069 
L 178.188115 130.246588 
L 178.37398 140.629905 
L 178.649268 125.042323 
L 178.740114 140.309341 
L 178.830509 119.292808 
L 178.920457 143.605012 
L 179.009964 143.492172 
L 179.099033 148.136251 
L 179.187668 145.364064 
L 179.275874 137.560121 
L 179.363655 147.762766 
L 179.451015 147.220188 
L 179.537959 116.774751 
L 179.624489 142.552527 
L 179.71061 141.668914 
L 179.796325 148.631226 
L 179.881639 113.971531 
L 179.966556 147.911394 
L 180.051078 140.014473 
L 180.13521 147.664 
L 180.302317 139.777441 
L 180.3853 142.825 
L 180.467905 131.213927 
L 180.632001 144.47873 
L 180.713498 129.036245 
L 180.794632 142.252568 
L 181.035888 115.596096 
L 181.115602 143.647407 
L 181.194968 142.799851 
L 181.27399 148.700532 
L 181.352671 148.588623 
L 181.586694 129.933788 
L 181.664038 144.923579 
L 181.741056 142.385203 
L 181.817748 144.459792 
L 181.970172 123.736702 
L 182.121331 148.727556 
L 182.196443 147.646786 
L 182.271246 143.664725 
L 182.345743 147.09156 
L 182.419937 145.988862 
L 182.567424 141.464446 
L 182.640722 147.168678 
L 182.713727 131.090781 
L 182.786439 137.326932 
L 182.858863 144.327116 
L 183.002852 121.782457 
L 183.145712 146.063188 
L 183.216724 139.749081 
L 183.357923 145.46419 
L 183.428114 116.068247 
L 183.498036 130.295792 
L 183.56769 148.056734 
L 183.637079 145.968814 
L 183.706204 146.586934 
L 183.91202 124.268641 
L 184.115537 145.438739 
L 184.249962 147.627185 
L 184.316805 145.510416 
L 184.383403 148.190081 
L 184.581748 105.189362 
L 184.712789 147.104394 
L 184.777957 140.523756 
L 184.842893 139.086082 
L 184.907599 141.25906 
L 184.972075 137.105435 
L 185.036324 146.386012 
L 185.100347 140.048018 
L 185.227722 131.216258 
L 185.354212 148.596608 
L 185.41713 140.401533 
L 185.47983 146.656159 
L 185.542316 147.847299 
L 185.666648 142.648948 
L 185.728497 144.331966 
L 185.790137 143.354045 
L 185.851569 135.529221 
L 185.912794 146.994561 
L 186.034631 128.29527 
L 186.095245 147.903055 
L 186.155658 144.317005 
L 186.215872 125.720006 
L 186.275887 126.928342 
L 186.573031 147.251333 
L 186.631883 130.237257 
L 186.690545 134.944037 
L 186.749019 141.094269 
L 186.807305 137.88178 
L 186.865406 131.363186 
L 187.038604 145.584434 
L 187.095973 141.986314 
L 187.210171 145.636389 
L 187.323658 139.909757 
L 187.436442 147.32176 
L 187.604319 143.194369 
L 187.659936 141.123557 
L 187.715383 148.345882 
L 187.770663 147.69377 
L 187.880721 129.338902 
L 187.990118 145.167528 
L 188.098862 128.818905 
L 188.20696 141.413689 
L 188.26077 120.550768 
L 188.314421 131.788292 
L 188.421252 147.734072 
L 188.474433 143.590255 
L 188.527459 140.026815 
L 188.685618 148.294284 
L 188.738034 147.46373 
L 188.842416 138.906069 
L 188.997875 147.789962 
L 189.049402 128.999909 
L 189.100783 142.48316 
L 189.152019 142.053075 
L 189.203112 110.676954 
L 189.254062 146.024078 
L 189.304869 147.833664 
L 189.355536 143.374268 
L 189.406062 148.683525 
L 189.506695 147.764452 
L 189.606775 148.458739 
L 189.656609 135.093628 
L 189.8053 143.884663 
L 189.903758 135.110629 
L 189.952787 136.266541 
L 190.001686 148.642889 
L 190.050453 132.791202 
L 190.09909 139.91497 
L 190.147597 147.20536 
L 190.195976 143.376681 
L 190.244226 143.8941 
L 190.292349 127.514379 
L 190.340346 148.03602 
L 190.388216 141.673377 
L 190.43596 145.592072 
L 190.48358 148.392059 
L 190.531076 115.930917 
L 190.578448 123.206387 
L 190.719829 148.052505 
L 190.860122 146.746111 
L 190.906647 146.54631 
L 191.045513 134.334596 
L 191.091567 147.45785 
L 191.137506 147.299892 
L 191.229036 130.067074 
L 191.27463 138.059793 
L 191.365476 143.38748 
L 191.410729 135.244844 
L 191.455871 137.338875 
L 191.5009 140.553874 
L 191.545819 109.581044 
L 191.590627 141.014701 
L 191.679915 129.07534 
L 191.768766 146.735549 
L 191.81303 137.461747 
L 191.857186 142.064497 
L 191.901236 136.941222 
L 191.989017 120.824416 
L 192.03275 145.283953 
L 192.076377 137.880714 
L 192.119901 127.689164 
L 192.163321 147.763451 
L 192.249851 143.609231 
L 192.292962 137.836066 
L 192.335972 139.164949 
L 192.37888 147.542025 
L 192.421687 144.705453 
L 192.507001 109.238597 
L 192.591918 146.175027 
L 192.634228 134.453967 
L 192.67644 126.583802 
L 192.718555 148.380218 
L 192.802493 143.515213 
L 192.844318 142.109881 
L 192.886046 125.310298 
L 192.927679 128.048057 
L 193.010662 139.422193 
L 193.052011 129.653375 
L 193.093267 134.508382 
L 193.1755 142.288249 
L 193.216478 119.737544 
L 193.257363 144.060667 
L 193.298158 146.840156 
L 193.33886 141.834543 
L 193.379473 142.567611 
L 193.419994 148.586078 
L 193.460426 139.686038 
L 193.500769 126.105729 
L 193.581186 134.083126 
L 193.621262 129.829472 
L 193.740964 147.364683 
L 193.859884 133.011825 
L 193.978033 135.778813 
L 194.017246 136.519398 
L 194.09542 148.66838 
L 194.17326 144.66831 
L 194.250769 146.425362 
L 194.2894 137.833848 
L 194.404804 148.383279 
L 194.481336 129.759158 
L 194.519482 145.02993 
L 194.557548 144.017695 
L 194.595534 148.091827 
L 194.633442 146.721847 
L 194.709021 141.172663 
L 194.784288 148.468764 
L 194.821805 140.962387 
L 194.896608 141.896773 
L 194.933895 143.48778 
L 195.00824 146.195871 
L 195.082283 134.444407 
L 195.119192 143.505045 
L 195.192786 138.561395 
L 195.266084 136.126807 
L 195.302623 144.535095 
L 195.339089 130.815413 
L 195.375481 147.935564 
L 195.411801 145.125433 
L 195.448049 147.731615 
L 195.484225 143.385516 
L 195.520329 125.672968 
L 195.556362 134.212864 
L 195.592324 145.547464 
L 195.664035 141.143737 
L 195.699784 137.524936 
L 195.735464 114.099881 
L 195.771074 147.450934 
L 195.806615 147.888838 
L 195.948088 126.364839 
L 195.983285 128.996831 
L 196.018414 142.053622 
L 196.08847 137.417995 
L 196.193052 123.342445 
L 196.227779 147.47632 
L 196.297036 146.708865 
L 196.331566 129.113085 
L 196.366031 146.820615 
L 196.40043 146.242614 
L 196.434765 145.281609 
L 196.503241 128.468169 
L 196.537382 135.888847 
L 196.57146 148.262863 
L 196.639425 146.225761 
L 196.707137 125.213644 
L 196.740899 143.265243 
L 196.808236 136.727108 
L 196.841811 114.038072 
L 196.908776 143.086384 
L 196.975496 133.582607 
L 197.041973 134.36627 
L 197.108208 128.238394 
L 197.174202 143.237346 
L 197.239959 148.232652 
L 197.272748 145.645525 
L 197.338151 102.896349 
L 197.370764 130.692394 
L 197.403319 148.461484 
L 197.500637 148.357431 
L 197.532961 148.163986 
L 197.661686 140.963347 
L 197.725709 106.718257 
L 197.757636 131.031974 
L 197.853084 144.888683 
L 197.884789 136.005795 
L 198.01106 146.390573 
L 198.073869 143.606133 
L 198.105192 112.806517 
L 198.198841 126.969148 
L 198.261006 146.012883 
L 198.322961 141.239616 
L 198.353859 123.63311 
L 198.415499 147.696594 
L 198.507569 134.451803 
L 198.538156 148.215418 
L 198.62961 147.428191 
L 198.659993 146.716102 
L 198.811152 114.065858 
L 198.871266 100.121257 
L 198.931182 146.871909 
L 198.961067 139.170605 
L 199.050427 144.380272 
L 199.080117 140.724416 
L 199.139351 143.449685 
L 199.198393 148.615135 
L 199.227843 148.257371 
L 199.374381 125.78876 
L 199.403547 135.165854 
L 199.519749 148.658672 
L 199.548684 146.076165 
L 199.577573 146.776006 
L 199.606416 130.459038 
L 199.663966 143.965371 
L 199.692673 148.379187 
L 199.749952 143.170356 
L 199.778523 143.262123 
L 199.807051 148.278994 
L 199.863971 146.132375 
L 199.94902 130.294317 
L 199.920714 146.409236 
L 199.977281 141.173452 
L 200.061804 147.223248 
L 200.033673 135.571198 
L 200.089891 144.137206 
L 200.117935 145.355207 
L 200.145936 117.011149 
L 200.229681 143.895275 
L 200.313043 147.751513 
L 200.340745 139.605776 
L 200.368406 147.824015 
L 200.396025 142.129353 
L 200.423602 148.618174 
L 200.451137 139.058901 
L 200.506083 144.953609 
L 200.533494 147.033102 
L 200.588192 146.219413 
L 200.724224 128.519644 
L 200.751309 147.645204 
L 200.805358 131.420396 
L 200.832322 123.199909 
L 200.859247 142.423432 
L 200.886132 147.216078 
L 200.912977 140.876452 
L 200.939783 131.568383 
L 200.993277 147.995314 
L 201.073224 146.009904 
L 201.099795 146.02715 
L 201.126327 148.661349 
L 201.152821 147.155617 
L 201.232072 126.116244 
L 201.284716 136.533659 
L 201.31098 142.806294 
L 201.337207 134.602582 
L 201.363396 140.920784 
L 201.415662 126.242877 
L 201.441739 132.164596 
L 201.467778 148.146317 
L 201.545674 129.961032 
L 201.571565 146.740449 
L 201.623237 141.406908 
L 201.649019 142.620922 
L 201.674764 125.848143 
L 201.726145 143.369606 
L 201.751781 140.017743 
L 201.777381 140.210309 
L 201.853967 148.399112 
L 201.955582 120.775394 
L 202.006178 148.193778 
L 202.08181 141.792009 
L 202.10695 146.643316 
L 202.132057 144.236318 
L 202.157128 131.599793 
L 202.232137 147.946263 
L 202.281971 136.554019 
L 202.356469 142.772889 
L 202.381234 143.39774 
L 202.430662 126.313504 
L 202.479958 145.879576 
L 202.504555 146.230125 
L 202.578149 137.650702 
L 202.602615 147.512238 
L 202.627048 148.353727 
L 202.675815 128.672177 
L 202.724452 137.282155 
L 202.845479 147.851263 
L 202.941725 128.58813 
L 202.965708 139.017825 
L 202.989658 145.148844 
L 203.013578 134.01639 
L 203.037466 139.173903 
L 203.085148 126.60532 
L 203.108942 145.792111 
L 203.132705 137.323435 
L 203.20381 146.45357 
L 203.180139 136.748417 
L 203.251059 141.443289 
L 203.298186 148.311496 
L 203.368648 114.700576 
L 203.392075 141.024965 
L 203.415472 148.700902 
L 203.508761 147.096312 
L 203.601574 138.801823 
L 203.624704 148.603274 
L 203.670875 129.836345 
L 203.693917 133.604146 
L 203.716929 133.415344 
L 203.831559 147.676758 
L 203.854398 146.830074 
L 203.899992 121.225976 
L 203.945471 143.120675 
L 203.968169 148.080538 
L 203.990838 146.644596 
L 204.013478 122.364453 
L 204.081233 146.98702 
L 204.103761 132.001052 
L 204.171181 124.576953 
L 204.193599 127.20514 
L 204.238352 148.760778 
L 204.305277 148.005184 
L 204.349757 128.820866 
L 204.416274 133.553056 
L 204.460484 133.34592 
L 204.548583 147.388076 
L 204.570542 145.517198 
L 204.592474 146.576905 
L 204.614379 130.258106 
L 204.679939 141.968374 
L 204.745263 135.799407 
L 204.810354 148.609558 
L 204.853619 132.83745 
L 204.939841 136.666553 
L 204.961334 146.015484 
L 205.047049 143.570668 
L 205.15363 110.064182 
L 205.174871 120.184516 
L 205.21728 147.818337 
L 205.322872 147.483625 
L 205.364938 145.657415 
L 205.448779 141.091719 
L 205.427855 146.555761 
L 205.46968 143.489222 
L 205.490556 147.029597 
L 205.553041 141.949589 
L 205.573822 144.350779 
L 205.59458 131.619141 
L 205.636024 146.366879 
L 205.677373 142.747847 
L 205.780339 146.234722 
L 205.92352 107.290252 
L 205.862294 147.417857 
L 205.943882 136.278054 
L 206.025107 148.568155 
L 206.065584 143.677975 
L 206.146268 130.574267 
L 206.105971 147.914386 
L 206.166384 145.02618 
L 206.226597 147.136616 
L 206.206548 142.155095 
L 206.246624 145.464298 
L 206.286612 129.43383 
L 206.306573 146.245621 
L 206.406052 133.465706 
L 206.445692 115.566051 
L 206.504991 148.247999 
L 206.603395 128.579824 
L 206.623012 131.389415 
L 206.70127 147.890953 
L 206.720782 140.152032 
L 206.740274 128.171922 
L 206.759744 147.926653 
L 206.837418 130.303236 
L 206.856785 128.740352 
L 206.934047 148.266518 
L 206.972556 144.836746 
L 206.99178 138.465884 
L 207.04933 147.853983 
L 207.068473 147.717322 
L 207.087595 146.155353 
L 207.201913 118.095323 
L 207.220896 119.364807 
L 207.258804 147.682188 
L 207.334383 135.521999 
L 207.353229 147.980814 
L 207.428418 126.04408 
L 207.447167 145.17414 
L 207.465897 141.986196 
L 207.540623 148.06415 
L 207.559257 142.00404 
L 207.615044 148.401205 
L 207.633602 136.737505 
L 207.652141 137.486547 
L 207.726109 147.367257 
L 207.76298 144.29294 
L 207.818148 129.031945 
L 207.8365 144.575079 
L 207.854834 143.417764 
L 207.873149 145.512093 
L 207.891446 139.421665 
L 207.909725 125.457347 
L 207.964451 143.36276 
L 208.000843 139.309101 
L 208.037163 136.542354 
L 208.109587 148.761285 
L 208.127648 118.749764 
L 208.217686 133.100068 
L 208.23564 145.674949 
L 208.30728 126.075373 
L 208.396436 144.590012 
L 208.37864 125.945052 
L 208.396436 144.590012 
" style="fill:none;stroke:#000000;stroke-linecap:square;"/>
   </g>
   <g id="patch_3">
    <path d="M 49.316875 155.333322 
L 49.316875 10.8 
" style="fill:none;stroke:#000000;stroke-linecap:square;stroke-linejoin:miter;stroke-width:0.8;"/>
   </g>
   <g id="patch_4">
    <path d="M 215.971654 155.333322 
L 215.971654 10.8 
" style="fill:none;stroke:#000000;stroke-linecap:square;stroke-linejoin:miter;stroke-width:0.8;"/>
   </g>
   <g id="patch_5">
    <path d="M 49.316875 155.333322 
L 215.971654 155.333322 
" style="fill:none;stroke:#000000;stroke-linecap:square;stroke-linejoin:miter;stroke-width:0.8;"/>
   </g>
   <g id="patch_6">
    <path d="M 49.316875 10.8 
L 215.971654 10.8 
" style="fill:none;stroke:#000000;stroke-linecap:square;stroke-linejoin:miter;stroke-width:0.8;"/>
   </g>
   <g id="legend_1">
    <g id="patch_7">
     <path d="M 56.316875 150.333322 
L 137.710625 150.333322 
Q 139.710625 150.333322 139.710625 148.333322 
L 139.710625 119.977072 
Q 139.710625 117.977072 137.710625 117.977072 
L 56.316875 117.977072 
Q 54.316875 117.977072 54.316875 119.977072 
L 54.316875 148.333322 
Q 54.316875 150.333322 56.316875 150.333322 
z
" style="fill:#ffffff;opacity:0.8;stroke:#cccccc;stroke-linejoin:miter;"/>
    </g>
    <g id="line2d_55">
     <path d="M 58.316875 126.075509 
L 78.316875 126.075509 
" style="fill:none;stroke:#ff0000;stroke-linecap:square;stroke-width:2;"/>
    </g>
    <g id="line2d_56"/>
    <g id="text_13">
     <!-- target -->
     <defs>
      <path d="M 34.28125 27.484375 
Q 23.390625 27.484375 19.1875 25 
Q 14.984375 22.515625 14.984375 16.5 
Q 14.984375 11.71875 18.140625 8.90625 
Q 21.296875 6.109375 26.703125 6.109375 
Q 34.1875 6.109375 38.703125 11.40625 
Q 43.21875 16.703125 43.21875 25.484375 
L 43.21875 27.484375 
z
M 52.203125 31.203125 
L 52.203125 0 
L 43.21875 0 
L 43.21875 8.296875 
Q 40.140625 3.328125 35.546875 0.953125 
Q 30.953125 -1.421875 24.3125 -1.421875 
Q 15.921875 -1.421875 10.953125 3.296875 
Q 6 8.015625 6 15.921875 
Q 6 25.140625 12.171875 29.828125 
Q 18.359375 34.515625 30.609375 34.515625 
L 43.21875 34.515625 
L 43.21875 35.40625 
Q 43.21875 41.609375 39.140625 45 
Q 35.0625 48.390625 27.6875 48.390625 
Q 23 48.390625 18.546875 47.265625 
Q 14.109375 46.140625 10.015625 43.890625 
L 10.015625 52.203125 
Q 14.9375 54.109375 19.578125 55.046875 
Q 24.21875 56 28.609375 56 
Q 40.484375 56 46.34375 49.84375 
Q 52.203125 43.703125 52.203125 31.203125 
z
" id="DejaVuSans-97"/>
      <path d="M 45.40625 27.984375 
Q 45.40625 37.75 41.375 43.109375 
Q 37.359375 48.484375 30.078125 48.484375 
Q 22.859375 48.484375 18.828125 43.109375 
Q 14.796875 37.75 14.796875 27.984375 
Q 14.796875 18.265625 18.828125 12.890625 
Q 22.859375 7.515625 30.078125 7.515625 
Q 37.359375 7.515625 41.375 12.890625 
Q 45.40625 18.265625 45.40625 27.984375 
z
M 54.390625 6.78125 
Q 54.390625 -7.171875 48.1875 -13.984375 
Q 42 -20.796875 29.203125 -20.796875 
Q 24.46875 -20.796875 20.265625 -20.09375 
Q 16.0625 -19.390625 12.109375 -17.921875 
L 12.109375 -9.1875 
Q 16.0625 -11.328125 19.921875 -12.34375 
Q 23.78125 -13.375 27.78125 -13.375 
Q 36.625 -13.375 41.015625 -8.765625 
Q 45.40625 -4.15625 45.40625 5.171875 
L 45.40625 9.625 
Q 42.625 4.78125 38.28125 2.390625 
Q 33.9375 0 27.875 0 
Q 17.828125 0 11.671875 7.65625 
Q 5.515625 15.328125 5.515625 27.984375 
Q 5.515625 40.671875 11.671875 48.328125 
Q 17.828125 56 27.875 56 
Q 33.9375 56 38.28125 53.609375 
Q 42.625 51.21875 45.40625 46.390625 
L 45.40625 54.6875 
L 54.390625 54.6875 
z
" id="DejaVuSans-103"/>
     </defs>
     <g transform="translate(86.316875 129.575509)scale(0.1 -0.1)">
      <use xlink:href="#DejaVuSans-116"/>
      <use x="39.208984" xlink:href="#DejaVuSans-97"/>
      <use x="100.488281" xlink:href="#DejaVuSans-114"/>
      <use x="141.585938" xlink:href="#DejaVuSans-103"/>
      <use x="205.0625" xlink:href="#DejaVuSans-101"/>
      <use x="266.585938" xlink:href="#DejaVuSans-116"/>
     </g>
    </g>
    <g id="line2d_57">
     <path d="M 58.316875 140.753634 
L 78.316875 140.753634 
" style="fill:none;stroke:#000000;stroke-linecap:square;"/>
    </g>
    <g id="line2d_58"/>
    <g id="text_14">
     <!-- simulated -->
     <defs>
      <path d="M 44.28125 53.078125 
L 44.28125 44.578125 
Q 40.484375 46.53125 36.375 47.5 
Q 32.28125 48.484375 27.875 48.484375 
Q 21.1875 48.484375 17.84375 46.4375 
Q 14.5 44.390625 14.5 40.28125 
Q 14.5 37.15625 16.890625 35.375 
Q 19.28125 33.59375 26.515625 31.984375 
L 29.59375 31.296875 
Q 39.15625 29.25 43.1875 25.515625 
Q 47.21875 21.78125 47.21875 15.09375 
Q 47.21875 7.46875 41.1875 3.015625 
Q 35.15625 -1.421875 24.609375 -1.421875 
Q 20.21875 -1.421875 15.453125 -0.5625 
Q 10.6875 0.296875 5.421875 2 
L 5.421875 11.28125 
Q 10.40625 8.6875 15.234375 7.390625 
Q 20.0625 6.109375 24.8125 6.109375 
Q 31.15625 6.109375 34.5625 8.28125 
Q 37.984375 10.453125 37.984375 14.40625 
Q 37.984375 18.0625 35.515625 20.015625 
Q 33.0625 21.96875 24.703125 23.78125 
L 21.578125 24.515625 
Q 13.234375 26.265625 9.515625 29.90625 
Q 5.8125 33.546875 5.8125 39.890625 
Q 5.8125 47.609375 11.28125 51.796875 
Q 16.75 56 26.8125 56 
Q 31.78125 56 36.171875 55.265625 
Q 40.578125 54.546875 44.28125 53.078125 
z
" id="DejaVuSans-115"/>
      <path d="M 52 44.1875 
Q 55.375 50.25 60.0625 53.125 
Q 64.75 56 71.09375 56 
Q 79.640625 56 84.28125 50.015625 
Q 88.921875 44.046875 88.921875 33.015625 
L 88.921875 0 
L 79.890625 0 
L 79.890625 32.71875 
Q 79.890625 40.578125 77.09375 44.375 
Q 74.3125 48.1875 68.609375 48.1875 
Q 61.625 48.1875 57.5625 43.546875 
Q 53.515625 38.921875 53.515625 30.90625 
L 53.515625 0 
L 44.484375 0 
L 44.484375 32.71875 
Q 44.484375 40.625 41.703125 44.40625 
Q 38.921875 48.1875 33.109375 48.1875 
Q 26.21875 48.1875 22.15625 43.53125 
Q 18.109375 38.875 18.109375 30.90625 
L 18.109375 0 
L 9.078125 0 
L 9.078125 54.6875 
L 18.109375 54.6875 
L 18.109375 46.1875 
Q 21.1875 51.21875 25.484375 53.609375 
Q 29.78125 56 35.6875 56 
Q 41.65625 56 45.828125 52.96875 
Q 50 49.953125 52 44.1875 
z
" id="DejaVuSans-109"/>
      <path d="M 9.421875 75.984375 
L 18.40625 75.984375 
L 18.40625 0 
L 9.421875 0 
z
" id="DejaVuSans-108"/>
      <path d="M 45.40625 46.390625 
L 45.40625 75.984375 
L 54.390625 75.984375 
L 54.390625 0 
L 45.40625 0 
L 45.40625 8.203125 
Q 42.578125 3.328125 38.25 0.953125 
Q 33.9375 -1.421875 27.875 -1.421875 
Q 17.96875 -1.421875 11.734375 6.484375 
Q 5.515625 14.40625 5.515625 27.296875 
Q 5.515625 40.1875 11.734375 48.09375 
Q 17.96875 56 27.875 56 
Q 33.9375 56 38.25 53.625 
Q 42.578125 51.265625 45.40625 46.390625 
z
M 14.796875 27.296875 
Q 14.796875 17.390625 18.875 11.75 
Q 22.953125 6.109375 30.078125 6.109375 
Q 37.203125 6.109375 41.296875 11.75 
Q 45.40625 17.390625 45.40625 27.296875 
Q 45.40625 37.203125 41.296875 42.84375 
Q 37.203125 48.484375 30.078125 48.484375 
Q 22.953125 48.484375 18.875 42.84375 
Q 14.796875 37.203125 14.796875 27.296875 
z
" id="DejaVuSans-100"/>
     </defs>
     <g transform="translate(86.316875 144.253634)scale(0.1 -0.1)">
      <use xlink:href="#DejaVuSans-115"/>
      <use x="52.099609" xlink:href="#DejaVuSans-105"/>
      <use x="79.882812" xlink:href="#DejaVuSans-109"/>
      <use x="177.294922" xlink:href="#DejaVuSans-117"/>
      <use x="240.673828" xlink:href="#DejaVuSans-108"/>
      <use x="268.457031" xlink:href="#DejaVuSans-97"/>
      <use x="329.736328" xlink:href="#DejaVuSans-116"/>
      <use x="368.945312" xlink:href="#DejaVuSans-101"/>
      <use x="430.46875" xlink:href="#DejaVuSans-100"/>
     </g>
    </g>
   </g>
  </g>
 </g>
 <defs>
  <clipPath id="p8996089fbb">
   <rect height="144.533322" width="166.654779" x="49.316875" y="10.8"/>
  </clipPath>
 </defs>
</svg>
