<?xml version="1.0" encoding="utf-8" standalone="no"?>
<!DOCTYPE svg PUBLIC "-//W3C//DTD SVG 1.1//EN"
  "http://www.w3.org/Graphics/SVG/1.1/DTD/svg11.dtd">
<!-- Created with matplotlib (https://matplotlib.org/) -->
<svg height="198.425197pt" version="1.1" viewBox="0 0 226.771654 198.425197" width="226.771654pt" xmlns="http://www.w3.org/2000/svg" xmlns:xlink="http://www.w3.org/1999/xlink">
 <defs>
  <style type="text/css">
*{stroke-linecap:butt;stroke-linejoin:round;}
  </style>
 </defs>
 <g id="figure_1">
  <g id="patch_1">
   <path d="M 0 198.425197 
L 226.771654 198.425197 
L 226.771654 0 
L 0 0 
z
" style="fill:#ffffff;"/>
  </g>
  <g id="axes_1">
   <g id="patch_2">
    <path d="M 49.316875 155.333322 
L 215.971654 155.333322 
L 215.971654 10.8 
L 49.316875 10.8 
z
" style="fill:#ffffff;"/>
   </g>
   <g id="matplotlib.axis_1">
    <g id="xtick_1">
     <g id="line2d_1">
      <path clip-path="url(#p33db822110)" d="M 49.938715 155.333322 
L 49.938715 10.8 
" style="fill:none;stroke:#b0b0b0;stroke-linecap:square;stroke-width:0.8;"/>
     </g>
     <g id="line2d_2">
      <defs>
       <path d="M 0 0 
L 0 3.5 
" id="mc1fd5f4af5" style="stroke:#000000;stroke-width:0.8;"/>
      </defs>
      <g>
       <use style="stroke:#000000;stroke-width:0.8;" x="49.938715" xlink:href="#mc1fd5f4af5" y="155.333322"/>
      </g>
     </g>
     <g id="text_1">
      <!-- $\mathdefault{10^{-3}}$ -->
      <defs>
       <path d="M 12.40625 8.296875 
L 28.515625 8.296875 
L 28.515625 63.921875 
L 10.984375 60.40625 
L 10.984375 69.390625 
L 28.421875 72.90625 
L 38.28125 72.90625 
L 38.28125 8.296875 
L 54.390625 8.296875 
L 54.390625 0 
L 12.40625 0 
z
" id="DejaVuSans-49"/>
       <path d="M 31.78125 66.40625 
Q 24.171875 66.40625 20.328125 58.90625 
Q 16.5 51.421875 16.5 36.375 
Q 16.5 21.390625 20.328125 13.890625 
Q 24.171875 6.390625 31.78125 6.390625 
Q 39.453125 6.390625 43.28125 13.890625 
Q 47.125 21.390625 47.125 36.375 
Q 47.125 51.421875 43.28125 58.90625 
Q 39.453125 66.40625 31.78125 66.40625 
z
M 31.78125 74.21875 
Q 44.046875 74.21875 50.515625 64.515625 
Q 56.984375 54.828125 56.984375 36.375 
Q 56.984375 17.96875 50.515625 8.265625 
Q 44.046875 -1.421875 31.78125 -1.421875 
Q 19.53125 -1.421875 13.0625 8.265625 
Q 6.59375 17.96875 6.59375 36.375 
Q 6.59375 54.828125 13.0625 64.515625 
Q 19.53125 74.21875 31.78125 74.21875 
z
" id="DejaVuSans-48"/>
       <path d="M 10.59375 35.5 
L 73.1875 35.5 
L 73.1875 27.203125 
L 10.59375 27.203125 
z
" id="DejaVuSans-8722"/>
       <path d="M 40.578125 39.3125 
Q 47.65625 37.796875 51.625 33 
Q 55.609375 28.21875 55.609375 21.1875 
Q 55.609375 10.40625 48.1875 4.484375 
Q 40.765625 -1.421875 27.09375 -1.421875 
Q 22.515625 -1.421875 17.65625 -0.515625 
Q 12.796875 0.390625 7.625 2.203125 
L 7.625 11.71875 
Q 11.71875 9.328125 16.59375 8.109375 
Q 21.484375 6.890625 26.8125 6.890625 
Q 36.078125 6.890625 40.9375 10.546875 
Q 45.796875 14.203125 45.796875 21.1875 
Q 45.796875 27.640625 41.28125 31.265625 
Q 36.765625 34.90625 28.71875 34.90625 
L 20.21875 34.90625 
L 20.21875 43.015625 
L 29.109375 43.015625 
Q 36.375 43.015625 40.234375 45.921875 
Q 44.09375 48.828125 44.09375 54.296875 
Q 44.09375 59.90625 40.109375 62.90625 
Q 36.140625 65.921875 28.71875 65.921875 
Q 24.65625 65.921875 20.015625 65.03125 
Q 15.375 64.15625 9.8125 62.3125 
L 9.8125 71.09375 
Q 15.4375 72.65625 20.34375 73.4375 
Q 25.25 74.21875 29.59375 74.21875 
Q 40.828125 74.21875 47.359375 69.109375 
Q 53.90625 64.015625 53.90625 55.328125 
Q 53.90625 49.265625 50.4375 45.09375 
Q 46.96875 40.921875 40.578125 39.3125 
z
" id="DejaVuSans-51"/>
      </defs>
      <g transform="translate(38.188715 169.931759)scale(0.1 -0.1)">
       <use transform="translate(0 0.765625)" xlink:href="#DejaVuSans-49"/>
       <use transform="translate(63.623047 0.765625)" xlink:href="#DejaVuSans-48"/>
       <use transform="translate(128.203125 39.046875)scale(0.7)" xlink:href="#DejaVuSans-8722"/>
       <use transform="translate(186.855469 39.046875)scale(0.7)" xlink:href="#DejaVuSans-51"/>
      </g>
     </g>
    </g>
    <g id="xtick_2">
     <g id="line2d_3">
      <path clip-path="url(#p33db822110)" d="M 91.879259 155.333322 
L 91.879259 10.8 
" style="fill:none;stroke:#b0b0b0;stroke-linecap:square;stroke-width:0.8;"/>
     </g>
     <g id="line2d_4">
      <g>
       <use style="stroke:#000000;stroke-width:0.8;" x="91.879259" xlink:href="#mc1fd5f4af5" y="155.333322"/>
      </g>
     </g>
     <g id="text_2">
      <!-- $\mathdefault{10^{-2}}$ -->
      <defs>
       <path d="M 19.1875 8.296875 
L 53.609375 8.296875 
L 53.609375 0 
L 7.328125 0 
L 7.328125 8.296875 
Q 12.9375 14.109375 22.625 23.890625 
Q 32.328125 33.6875 34.8125 36.53125 
Q 39.546875 41.84375 41.421875 45.53125 
Q 43.3125 49.21875 43.3125 52.78125 
Q 43.3125 58.59375 39.234375 62.25 
Q 35.15625 65.921875 28.609375 65.921875 
Q 23.96875 65.921875 18.8125 64.3125 
Q 13.671875 62.703125 7.8125 59.421875 
L 7.8125 69.390625 
Q 13.765625 71.78125 18.9375 73 
Q 24.125 74.21875 28.421875 74.21875 
Q 39.75 74.21875 46.484375 68.546875 
Q 53.21875 62.890625 53.21875 53.421875 
Q 53.21875 48.921875 51.53125 44.890625 
Q 49.859375 40.875 45.40625 35.40625 
Q 44.1875 33.984375 37.640625 27.21875 
Q 31.109375 20.453125 19.1875 8.296875 
z
" id="DejaVuSans-50"/>
      </defs>
      <g transform="translate(80.129259 169.931759)scale(0.1 -0.1)">
       <use transform="translate(0 0.765625)" xlink:href="#DejaVuSans-49"/>
       <use transform="translate(63.623047 0.765625)" xlink:href="#DejaVuSans-48"/>
       <use transform="translate(128.203125 39.046875)scale(0.7)" xlink:href="#DejaVuSans-8722"/>
       <use transform="translate(186.855469 39.046875)scale(0.7)" xlink:href="#DejaVuSans-50"/>
      </g>
     </g>
    </g>
    <g id="xtick_3">
     <g id="line2d_5">
      <path clip-path="url(#p33db822110)" d="M 133.819804 155.333322 
L 133.819804 10.8 
" style="fill:none;stroke:#b0b0b0;stroke-linecap:square;stroke-width:0.8;"/>
     </g>
     <g id="line2d_6">
      <g>
       <use style="stroke:#000000;stroke-width:0.8;" x="133.819804" xlink:href="#mc1fd5f4af5" y="155.333322"/>
      </g>
     </g>
     <g id="text_3">
      <!-- $\mathdefault{10^{-1}}$ -->
      <g transform="translate(122.069804 169.931759)scale(0.1 -0.1)">
       <use transform="translate(0 0.684375)" xlink:href="#DejaVuSans-49"/>
       <use transform="translate(63.623047 0.684375)" xlink:href="#DejaVuSans-48"/>
       <use transform="translate(128.203125 38.965625)scale(0.7)" xlink:href="#DejaVuSans-8722"/>
       <use transform="translate(186.855469 38.965625)scale(0.7)" xlink:href="#DejaVuSans-49"/>
      </g>
     </g>
    </g>
    <g id="xtick_4">
     <g id="line2d_7">
      <path clip-path="url(#p33db822110)" d="M 175.760349 155.333322 
L 175.760349 10.8 
" style="fill:none;stroke:#b0b0b0;stroke-linecap:square;stroke-width:0.8;"/>
     </g>
     <g id="line2d_8">
      <g>
       <use style="stroke:#000000;stroke-width:0.8;" x="175.760349" xlink:href="#mc1fd5f4af5" y="155.333322"/>
      </g>
     </g>
     <g id="text_4">
      <!-- $\mathdefault{10^{0}}$ -->
      <g transform="translate(166.960349 169.931759)scale(0.1 -0.1)">
       <use transform="translate(0 0.765625)" xlink:href="#DejaVuSans-49"/>
       <use transform="translate(63.623047 0.765625)" xlink:href="#DejaVuSans-48"/>
       <use transform="translate(128.203125 39.046875)scale(0.7)" xlink:href="#DejaVuSans-48"/>
      </g>
     </g>
    </g>
    <g id="xtick_5">
     <g id="line2d_9">
      <defs>
       <path d="M 0 0 
L 0 2 
" id="m6d19b1fd14" style="stroke:#000000;stroke-width:0.6;"/>
      </defs>
      <g>
       <use style="stroke:#000000;stroke-width:0.6;" x="62.564077" xlink:href="#m6d19b1fd14" y="155.333322"/>
      </g>
     </g>
    </g>
    <g id="xtick_6">
     <g id="line2d_10">
      <g>
       <use style="stroke:#000000;stroke-width:0.6;" x="69.94944" xlink:href="#m6d19b1fd14" y="155.333322"/>
      </g>
     </g>
    </g>
    <g id="xtick_7">
     <g id="line2d_11">
      <g>
       <use style="stroke:#000000;stroke-width:0.6;" x="75.189439" xlink:href="#m6d19b1fd14" y="155.333322"/>
      </g>
     </g>
    </g>
    <g id="xtick_8">
     <g id="line2d_12">
      <g>
       <use style="stroke:#000000;stroke-width:0.6;" x="79.253897" xlink:href="#m6d19b1fd14" y="155.333322"/>
      </g>
     </g>
    </g>
    <g id="xtick_9">
     <g id="line2d_13">
      <g>
       <use style="stroke:#000000;stroke-width:0.6;" x="82.574802" xlink:href="#m6d19b1fd14" y="155.333322"/>
      </g>
     </g>
    </g>
    <g id="xtick_10">
     <g id="line2d_14">
      <g>
       <use style="stroke:#000000;stroke-width:0.6;" x="85.382587" xlink:href="#m6d19b1fd14" y="155.333322"/>
      </g>
     </g>
    </g>
    <g id="xtick_11">
     <g id="line2d_15">
      <g>
       <use style="stroke:#000000;stroke-width:0.6;" x="87.814801" xlink:href="#m6d19b1fd14" y="155.333322"/>
      </g>
     </g>
    </g>
    <g id="xtick_12">
     <g id="line2d_16">
      <g>
       <use style="stroke:#000000;stroke-width:0.6;" x="89.960165" xlink:href="#m6d19b1fd14" y="155.333322"/>
      </g>
     </g>
    </g>
    <g id="xtick_13">
     <g id="line2d_17">
      <g>
       <use style="stroke:#000000;stroke-width:0.6;" x="104.504621" xlink:href="#m6d19b1fd14" y="155.333322"/>
      </g>
     </g>
    </g>
    <g id="xtick_14">
     <g id="line2d_18">
      <g>
       <use style="stroke:#000000;stroke-width:0.6;" x="111.889985" xlink:href="#m6d19b1fd14" y="155.333322"/>
      </g>
     </g>
    </g>
    <g id="xtick_15">
     <g id="line2d_19">
      <g>
       <use style="stroke:#000000;stroke-width:0.6;" x="117.129983" xlink:href="#m6d19b1fd14" y="155.333322"/>
      </g>
     </g>
    </g>
    <g id="xtick_16">
     <g id="line2d_20">
      <g>
       <use style="stroke:#000000;stroke-width:0.6;" x="121.194442" xlink:href="#m6d19b1fd14" y="155.333322"/>
      </g>
     </g>
    </g>
    <g id="xtick_17">
     <g id="line2d_21">
      <g>
       <use style="stroke:#000000;stroke-width:0.6;" x="124.515347" xlink:href="#m6d19b1fd14" y="155.333322"/>
      </g>
     </g>
    </g>
    <g id="xtick_18">
     <g id="line2d_22">
      <g>
       <use style="stroke:#000000;stroke-width:0.6;" x="127.323132" xlink:href="#m6d19b1fd14" y="155.333322"/>
      </g>
     </g>
    </g>
    <g id="xtick_19">
     <g id="line2d_23">
      <g>
       <use style="stroke:#000000;stroke-width:0.6;" x="129.755345" xlink:href="#m6d19b1fd14" y="155.333322"/>
      </g>
     </g>
    </g>
    <g id="xtick_20">
     <g id="line2d_24">
      <g>
       <use style="stroke:#000000;stroke-width:0.6;" x="131.90071" xlink:href="#m6d19b1fd14" y="155.333322"/>
      </g>
     </g>
    </g>
    <g id="xtick_21">
     <g id="line2d_25">
      <g>
       <use style="stroke:#000000;stroke-width:0.6;" x="146.445166" xlink:href="#m6d19b1fd14" y="155.333322"/>
      </g>
     </g>
    </g>
    <g id="xtick_22">
     <g id="line2d_26">
      <g>
       <use style="stroke:#000000;stroke-width:0.6;" x="153.83053" xlink:href="#m6d19b1fd14" y="155.333322"/>
      </g>
     </g>
    </g>
    <g id="xtick_23">
     <g id="line2d_27">
      <g>
       <use style="stroke:#000000;stroke-width:0.6;" x="159.070528" xlink:href="#m6d19b1fd14" y="155.333322"/>
      </g>
     </g>
    </g>
    <g id="xtick_24">
     <g id="line2d_28">
      <g>
       <use style="stroke:#000000;stroke-width:0.6;" x="163.134987" xlink:href="#m6d19b1fd14" y="155.333322"/>
      </g>
     </g>
    </g>
    <g id="xtick_25">
     <g id="line2d_29">
      <g>
       <use style="stroke:#000000;stroke-width:0.6;" x="166.455892" xlink:href="#m6d19b1fd14" y="155.333322"/>
      </g>
     </g>
    </g>
    <g id="xtick_26">
     <g id="line2d_30">
      <g>
       <use style="stroke:#000000;stroke-width:0.6;" x="169.263676" xlink:href="#m6d19b1fd14" y="155.333322"/>
      </g>
     </g>
    </g>
    <g id="xtick_27">
     <g id="line2d_31">
      <g>
       <use style="stroke:#000000;stroke-width:0.6;" x="171.69589" xlink:href="#m6d19b1fd14" y="155.333322"/>
      </g>
     </g>
    </g>
    <g id="xtick_28">
     <g id="line2d_32">
      <g>
       <use style="stroke:#000000;stroke-width:0.6;" x="173.841255" xlink:href="#m6d19b1fd14" y="155.333322"/>
      </g>
     </g>
    </g>
    <g id="xtick_29">
     <g id="line2d_33">
      <g>
       <use style="stroke:#000000;stroke-width:0.6;" x="188.385711" xlink:href="#m6d19b1fd14" y="155.333322"/>
      </g>
     </g>
    </g>
    <g id="xtick_30">
     <g id="line2d_34">
      <g>
       <use style="stroke:#000000;stroke-width:0.6;" x="195.771074" xlink:href="#m6d19b1fd14" y="155.333322"/>
      </g>
     </g>
    </g>
    <g id="xtick_31">
     <g id="line2d_35">
      <g>
       <use style="stroke:#000000;stroke-width:0.6;" x="201.011073" xlink:href="#m6d19b1fd14" y="155.333322"/>
      </g>
     </g>
    </g>
    <g id="xtick_32">
     <g id="line2d_36">
      <g>
       <use style="stroke:#000000;stroke-width:0.6;" x="205.075532" xlink:href="#m6d19b1fd14" y="155.333322"/>
      </g>
     </g>
    </g>
    <g id="xtick_33">
     <g id="line2d_37">
      <g>
       <use style="stroke:#000000;stroke-width:0.6;" x="208.396436" xlink:href="#m6d19b1fd14" y="155.333322"/>
      </g>
     </g>
    </g>
    <g id="xtick_34">
     <g id="line2d_38">
      <g>
       <use style="stroke:#000000;stroke-width:0.6;" x="211.204221" xlink:href="#m6d19b1fd14" y="155.333322"/>
      </g>
     </g>
    </g>
    <g id="xtick_35">
     <g id="line2d_39">
      <g>
       <use style="stroke:#000000;stroke-width:0.6;" x="213.636435" xlink:href="#m6d19b1fd14" y="155.333322"/>
      </g>
     </g>
    </g>
    <g id="xtick_36">
     <g id="line2d_40">
      <g>
       <use style="stroke:#000000;stroke-width:0.6;" x="215.7818" xlink:href="#m6d19b1fd14" y="155.333322"/>
      </g>
     </g>
    </g>
    <g id="text_5">
     <!-- f (Hz) -->
     <defs>
      <path d="M 47.796875 75.984375 
L 46.390625 68.5 
L 37.796875 68.5 
Q 32.90625 68.5 30.6875 66.578125 
Q 28.46875 64.65625 27.390625 59.515625 
L 26.421875 54.6875 
L 41.21875 54.6875 
L 39.890625 47.703125 
L 25.09375 47.703125 
L 15.828125 0 
L 6.78125 0 
L 16.109375 47.703125 
L 7.515625 47.703125 
L 8.796875 54.6875 
L 17.390625 54.6875 
L 18.109375 58.5 
Q 19.96875 68.171875 24.625 72.078125 
Q 29.296875 75.984375 39.3125 75.984375 
z
" id="DejaVuSans-Oblique-102"/>
      <path id="DejaVuSans-Oblique-32"/>
      <path d="M 42.671875 75.875 
Q 29.734375 59.71875 23.359375 45.1875 
Q 17 30.671875 17 17.1875 
Q 17 9.46875 18.84375 1.875 
Q 20.703125 -5.71875 24.421875 -13.1875 
L 16.609375 -13.1875 
Q 12.109375 -4.78125 9.90625 3.140625 
Q 7.71875 11.078125 7.71875 18.703125 
Q 7.71875 33.203125 14.421875 47.4375 
Q 21.140625 61.671875 34.71875 75.875 
z
" id="DejaVuSans-Oblique-40"/>
      <path d="M 16.890625 72.90625 
L 26.8125 72.90625 
L 21 43.015625 
L 56.78125 43.015625 
L 62.59375 72.90625 
L 72.515625 72.90625 
L 58.296875 0 
L 48.390625 0 
L 55.171875 34.71875 
L 19.390625 34.71875 
L 12.59375 0 
L 2.6875 0 
z
" id="DejaVuSans-Oblique-72"/>
      <path d="M 11.625 54.6875 
L 54.296875 54.6875 
L 52.6875 46.484375 
L 11.53125 7.171875 
L 45.515625 7.171875 
L 44.09375 0 
L -0.296875 0 
L 1.3125 8.203125 
L 42.484375 47.515625 
L 10.203125 47.515625 
z
" id="DejaVuSans-Oblique-122"/>
      <path d="M -6.203125 -13.1875 
Q 6.78125 2.984375 13.125 17.5 
Q 19.484375 32.03125 19.484375 45.515625 
Q 19.484375 53.21875 17.65625 60.8125 
Q 15.828125 68.40625 12.109375 75.875 
L 19.921875 75.875 
Q 24.421875 67.4375 26.609375 59.5625 
Q 28.8125 51.703125 28.8125 44.09375 
Q 28.8125 29.546875 22.046875 15.203125 
Q 15.28125 0.875 1.8125 -13.1875 
z
" id="DejaVuSans-Oblique-41"/>
     </defs>
     <g transform="translate(116.282077 185.129572)scale(0.12 -0.12)">
      <use xlink:href="#DejaVuSans-Oblique-102"/>
      <use x="35.205078" xlink:href="#DejaVuSans-Oblique-32"/>
      <use x="66.992188" xlink:href="#DejaVuSans-Oblique-40"/>
      <use x="106.005859" xlink:href="#DejaVuSans-Oblique-72"/>
      <use x="181.201172" xlink:href="#DejaVuSans-Oblique-122"/>
      <use x="233.691406" xlink:href="#DejaVuSans-Oblique-41"/>
     </g>
    </g>
   </g>
   <g id="matplotlib.axis_2">
    <g id="ytick_1">
     <g id="line2d_41">
      <path clip-path="url(#p33db822110)" d="M 49.316875 148.764266 
L 215.971654 148.764266 
" style="fill:none;stroke:#b0b0b0;stroke-linecap:square;stroke-width:0.8;"/>
     </g>
     <g id="line2d_42">
      <defs>
       <path d="M 0 0 
L -3.5 0 
" id="md53f2cc480" style="stroke:#000000;stroke-width:0.8;"/>
      </defs>
      <g>
       <use style="stroke:#000000;stroke-width:0.8;" x="49.316875" xlink:href="#md53f2cc480" y="148.764266"/>
      </g>
     </g>
     <g id="text_6">
      <!-- 0.0 -->
      <defs>
       <path d="M 10.6875 12.40625 
L 21 12.40625 
L 21 0 
L 10.6875 0 
z
" id="DejaVuSans-46"/>
      </defs>
      <g transform="translate(26.41375 152.563485)scale(0.1 -0.1)">
       <use xlink:href="#DejaVuSans-48"/>
       <use x="63.623047" xlink:href="#DejaVuSans-46"/>
       <use x="95.410156" xlink:href="#DejaVuSans-48"/>
      </g>
     </g>
    </g>
    <g id="ytick_2">
     <g id="line2d_43">
      <path clip-path="url(#p33db822110)" d="M 49.316875 122.406745 
L 215.971654 122.406745 
" style="fill:none;stroke:#b0b0b0;stroke-linecap:square;stroke-width:0.8;"/>
     </g>
     <g id="line2d_44">
      <g>
       <use style="stroke:#000000;stroke-width:0.8;" x="49.316875" xlink:href="#md53f2cc480" y="122.406745"/>
      </g>
     </g>
     <g id="text_7">
      <!-- 0.2 -->
      <g transform="translate(26.41375 126.205964)scale(0.1 -0.1)">
       <use xlink:href="#DejaVuSans-48"/>
       <use x="63.623047" xlink:href="#DejaVuSans-46"/>
       <use x="95.410156" xlink:href="#DejaVuSans-50"/>
      </g>
     </g>
    </g>
    <g id="ytick_3">
     <g id="line2d_45">
      <path clip-path="url(#p33db822110)" d="M 49.316875 96.049224 
L 215.971654 96.049224 
" style="fill:none;stroke:#b0b0b0;stroke-linecap:square;stroke-width:0.8;"/>
     </g>
     <g id="line2d_46">
      <g>
       <use style="stroke:#000000;stroke-width:0.8;" x="49.316875" xlink:href="#md53f2cc480" y="96.049224"/>
      </g>
     </g>
     <g id="text_8">
      <!-- 0.4 -->
      <defs>
       <path d="M 37.796875 64.3125 
L 12.890625 25.390625 
L 37.796875 25.390625 
z
M 35.203125 72.90625 
L 47.609375 72.90625 
L 47.609375 25.390625 
L 58.015625 25.390625 
L 58.015625 17.1875 
L 47.609375 17.1875 
L 47.609375 0 
L 37.796875 0 
L 37.796875 17.1875 
L 4.890625 17.1875 
L 4.890625 26.703125 
z
" id="DejaVuSans-52"/>
      </defs>
      <g transform="translate(26.41375 99.848443)scale(0.1 -0.1)">
       <use xlink:href="#DejaVuSans-48"/>
       <use x="63.623047" xlink:href="#DejaVuSans-46"/>
       <use x="95.410156" xlink:href="#DejaVuSans-52"/>
      </g>
     </g>
    </g>
    <g id="ytick_4">
     <g id="line2d_47">
      <path clip-path="url(#p33db822110)" d="M 49.316875 69.691703 
L 215.971654 69.691703 
" style="fill:none;stroke:#b0b0b0;stroke-linecap:square;stroke-width:0.8;"/>
     </g>
     <g id="line2d_48">
      <g>
       <use style="stroke:#000000;stroke-width:0.8;" x="49.316875" xlink:href="#md53f2cc480" y="69.691703"/>
      </g>
     </g>
     <g id="text_9">
      <!-- 0.6 -->
      <defs>
       <path d="M 33.015625 40.375 
Q 26.375 40.375 22.484375 35.828125 
Q 18.609375 31.296875 18.609375 23.390625 
Q 18.609375 15.53125 22.484375 10.953125 
Q 26.375 6.390625 33.015625 6.390625 
Q 39.65625 6.390625 43.53125 10.953125 
Q 47.40625 15.53125 47.40625 23.390625 
Q 47.40625 31.296875 43.53125 35.828125 
Q 39.65625 40.375 33.015625 40.375 
z
M 52.59375 71.296875 
L 52.59375 62.3125 
Q 48.875 64.0625 45.09375 64.984375 
Q 41.3125 65.921875 37.59375 65.921875 
Q 27.828125 65.921875 22.671875 59.328125 
Q 17.53125 52.734375 16.796875 39.40625 
Q 19.671875 43.65625 24.015625 45.921875 
Q 28.375 48.1875 33.59375 48.1875 
Q 44.578125 48.1875 50.953125 41.515625 
Q 57.328125 34.859375 57.328125 23.390625 
Q 57.328125 12.15625 50.6875 5.359375 
Q 44.046875 -1.421875 33.015625 -1.421875 
Q 20.359375 -1.421875 13.671875 8.265625 
Q 6.984375 17.96875 6.984375 36.375 
Q 6.984375 53.65625 15.1875 63.9375 
Q 23.390625 74.21875 37.203125 74.21875 
Q 40.921875 74.21875 44.703125 73.484375 
Q 48.484375 72.75 52.59375 71.296875 
z
" id="DejaVuSans-54"/>
      </defs>
      <g transform="translate(26.41375 73.490922)scale(0.1 -0.1)">
       <use xlink:href="#DejaVuSans-48"/>
       <use x="63.623047" xlink:href="#DejaVuSans-46"/>
       <use x="95.410156" xlink:href="#DejaVuSans-54"/>
      </g>
     </g>
    </g>
    <g id="ytick_5">
     <g id="line2d_49">
      <path clip-path="url(#p33db822110)" d="M 49.316875 43.334182 
L 215.971654 43.334182 
" style="fill:none;stroke:#b0b0b0;stroke-linecap:square;stroke-width:0.8;"/>
     </g>
     <g id="line2d_50">
      <g>
       <use style="stroke:#000000;stroke-width:0.8;" x="49.316875" xlink:href="#md53f2cc480" y="43.334182"/>
      </g>
     </g>
     <g id="text_10">
      <!-- 0.8 -->
      <defs>
       <path d="M 31.78125 34.625 
Q 24.75 34.625 20.71875 30.859375 
Q 16.703125 27.09375 16.703125 20.515625 
Q 16.703125 13.921875 20.71875 10.15625 
Q 24.75 6.390625 31.78125 6.390625 
Q 38.8125 6.390625 42.859375 10.171875 
Q 46.921875 13.96875 46.921875 20.515625 
Q 46.921875 27.09375 42.890625 30.859375 
Q 38.875 34.625 31.78125 34.625 
z
M 21.921875 38.8125 
Q 15.578125 40.375 12.03125 44.71875 
Q 8.5 49.078125 8.5 55.328125 
Q 8.5 64.0625 14.71875 69.140625 
Q 20.953125 74.21875 31.78125 74.21875 
Q 42.671875 74.21875 48.875 69.140625 
Q 55.078125 64.0625 55.078125 55.328125 
Q 55.078125 49.078125 51.53125 44.71875 
Q 48 40.375 41.703125 38.8125 
Q 48.828125 37.15625 52.796875 32.3125 
Q 56.78125 27.484375 56.78125 20.515625 
Q 56.78125 9.90625 50.3125 4.234375 
Q 43.84375 -1.421875 31.78125 -1.421875 
Q 19.734375 -1.421875 13.25 4.234375 
Q 6.78125 9.90625 6.78125 20.515625 
Q 6.78125 27.484375 10.78125 32.3125 
Q 14.796875 37.15625 21.921875 38.8125 
z
M 18.3125 54.390625 
Q 18.3125 48.734375 21.84375 45.5625 
Q 25.390625 42.390625 31.78125 42.390625 
Q 38.140625 42.390625 41.71875 45.5625 
Q 45.3125 48.734375 45.3125 54.390625 
Q 45.3125 60.0625 41.71875 63.234375 
Q 38.140625 66.40625 31.78125 66.40625 
Q 25.390625 66.40625 21.84375 63.234375 
Q 18.3125 60.0625 18.3125 54.390625 
z
" id="DejaVuSans-56"/>
      </defs>
      <g transform="translate(26.41375 47.133401)scale(0.1 -0.1)">
       <use xlink:href="#DejaVuSans-48"/>
       <use x="63.623047" xlink:href="#DejaVuSans-46"/>
       <use x="95.410156" xlink:href="#DejaVuSans-56"/>
      </g>
     </g>
    </g>
    <g id="ytick_6">
     <g id="line2d_51">
      <path clip-path="url(#p33db822110)" d="M 49.316875 16.976661 
L 215.971654 16.976661 
" style="fill:none;stroke:#b0b0b0;stroke-linecap:square;stroke-width:0.8;"/>
     </g>
     <g id="line2d_52">
      <g>
       <use style="stroke:#000000;stroke-width:0.8;" x="49.316875" xlink:href="#md53f2cc480" y="16.976661"/>
      </g>
     </g>
     <g id="text_11">
      <!-- 1.0 -->
      <g transform="translate(26.41375 20.775879)scale(0.1 -0.1)">
       <use xlink:href="#DejaVuSans-49"/>
       <use x="63.623047" xlink:href="#DejaVuSans-46"/>
       <use x="95.410156" xlink:href="#DejaVuSans-48"/>
      </g>
     </g>
    </g>
    <g id="text_12">
     <!-- coherence function -->
     <defs>
      <path d="M 48.78125 52.59375 
L 48.78125 44.1875 
Q 44.96875 46.296875 41.140625 47.34375 
Q 37.3125 48.390625 33.40625 48.390625 
Q 24.65625 48.390625 19.8125 42.84375 
Q 14.984375 37.3125 14.984375 27.296875 
Q 14.984375 17.28125 19.8125 11.734375 
Q 24.65625 6.203125 33.40625 6.203125 
Q 37.3125 6.203125 41.140625 7.25 
Q 44.96875 8.296875 48.78125 10.40625 
L 48.78125 2.09375 
Q 45.015625 0.34375 40.984375 -0.53125 
Q 36.96875 -1.421875 32.421875 -1.421875 
Q 20.0625 -1.421875 12.78125 6.34375 
Q 5.515625 14.109375 5.515625 27.296875 
Q 5.515625 40.671875 12.859375 48.328125 
Q 20.21875 56 33.015625 56 
Q 37.15625 56 41.109375 55.140625 
Q 45.0625 54.296875 48.78125 52.59375 
z
" id="DejaVuSans-99"/>
      <path d="M 30.609375 48.390625 
Q 23.390625 48.390625 19.1875 42.75 
Q 14.984375 37.109375 14.984375 27.296875 
Q 14.984375 17.484375 19.15625 11.84375 
Q 23.34375 6.203125 30.609375 6.203125 
Q 37.796875 6.203125 41.984375 11.859375 
Q 46.1875 17.53125 46.1875 27.296875 
Q 46.1875 37.015625 41.984375 42.703125 
Q 37.796875 48.390625 30.609375 48.390625 
z
M 30.609375 56 
Q 42.328125 56 49.015625 48.375 
Q 55.71875 40.765625 55.71875 27.296875 
Q 55.71875 13.875 49.015625 6.21875 
Q 42.328125 -1.421875 30.609375 -1.421875 
Q 18.84375 -1.421875 12.171875 6.21875 
Q 5.515625 13.875 5.515625 27.296875 
Q 5.515625 40.765625 12.171875 48.375 
Q 18.84375 56 30.609375 56 
z
" id="DejaVuSans-111"/>
      <path d="M 54.890625 33.015625 
L 54.890625 0 
L 45.90625 0 
L 45.90625 32.71875 
Q 45.90625 40.484375 42.875 44.328125 
Q 39.84375 48.1875 33.796875 48.1875 
Q 26.515625 48.1875 22.3125 43.546875 
Q 18.109375 38.921875 18.109375 30.90625 
L 18.109375 0 
L 9.078125 0 
L 9.078125 75.984375 
L 18.109375 75.984375 
L 18.109375 46.1875 
Q 21.34375 51.125 25.703125 53.5625 
Q 30.078125 56 35.796875 56 
Q 45.21875 56 50.046875 50.171875 
Q 54.890625 44.34375 54.890625 33.015625 
z
" id="DejaVuSans-104"/>
      <path d="M 56.203125 29.59375 
L 56.203125 25.203125 
L 14.890625 25.203125 
Q 15.484375 15.921875 20.484375 11.0625 
Q 25.484375 6.203125 34.421875 6.203125 
Q 39.59375 6.203125 44.453125 7.46875 
Q 49.3125 8.734375 54.109375 11.28125 
L 54.109375 2.78125 
Q 49.265625 0.734375 44.1875 -0.34375 
Q 39.109375 -1.421875 33.890625 -1.421875 
Q 20.796875 -1.421875 13.15625 6.1875 
Q 5.515625 13.8125 5.515625 26.8125 
Q 5.515625 40.234375 12.765625 48.109375 
Q 20.015625 56 32.328125 56 
Q 43.359375 56 49.78125 48.890625 
Q 56.203125 41.796875 56.203125 29.59375 
z
M 47.21875 32.234375 
Q 47.125 39.59375 43.09375 43.984375 
Q 39.0625 48.390625 32.421875 48.390625 
Q 24.90625 48.390625 20.390625 44.140625 
Q 15.875 39.890625 15.1875 32.171875 
z
" id="DejaVuSans-101"/>
      <path d="M 41.109375 46.296875 
Q 39.59375 47.171875 37.8125 47.578125 
Q 36.03125 48 33.890625 48 
Q 26.265625 48 22.1875 43.046875 
Q 18.109375 38.09375 18.109375 28.8125 
L 18.109375 0 
L 9.078125 0 
L 9.078125 54.6875 
L 18.109375 54.6875 
L 18.109375 46.1875 
Q 20.953125 51.171875 25.484375 53.578125 
Q 30.03125 56 36.53125 56 
Q 37.453125 56 38.578125 55.875 
Q 39.703125 55.765625 41.0625 55.515625 
z
" id="DejaVuSans-114"/>
      <path d="M 54.890625 33.015625 
L 54.890625 0 
L 45.90625 0 
L 45.90625 32.71875 
Q 45.90625 40.484375 42.875 44.328125 
Q 39.84375 48.1875 33.796875 48.1875 
Q 26.515625 48.1875 22.3125 43.546875 
Q 18.109375 38.921875 18.109375 30.90625 
L 18.109375 0 
L 9.078125 0 
L 9.078125 54.6875 
L 18.109375 54.6875 
L 18.109375 46.1875 
Q 21.34375 51.125 25.703125 53.5625 
Q 30.078125 56 35.796875 56 
Q 45.21875 56 50.046875 50.171875 
Q 54.890625 44.34375 54.890625 33.015625 
z
" id="DejaVuSans-110"/>
      <path id="DejaVuSans-32"/>
      <path d="M 37.109375 75.984375 
L 37.109375 68.5 
L 28.515625 68.5 
Q 23.6875 68.5 21.796875 66.546875 
Q 19.921875 64.59375 19.921875 59.515625 
L 19.921875 54.6875 
L 34.71875 54.6875 
L 34.71875 47.703125 
L 19.921875 47.703125 
L 19.921875 0 
L 10.890625 0 
L 10.890625 47.703125 
L 2.296875 47.703125 
L 2.296875 54.6875 
L 10.890625 54.6875 
L 10.890625 58.5 
Q 10.890625 67.625 15.140625 71.796875 
Q 19.390625 75.984375 28.609375 75.984375 
z
" id="DejaVuSans-102"/>
      <path d="M 8.5 21.578125 
L 8.5 54.6875 
L 17.484375 54.6875 
L 17.484375 21.921875 
Q 17.484375 14.15625 20.5 10.265625 
Q 23.53125 6.390625 29.59375 6.390625 
Q 36.859375 6.390625 41.078125 11.03125 
Q 45.3125 15.671875 45.3125 23.6875 
L 45.3125 54.6875 
L 54.296875 54.6875 
L 54.296875 0 
L 45.3125 0 
L 45.3125 8.40625 
Q 42.046875 3.421875 37.71875 1 
Q 33.40625 -1.421875 27.6875 -1.421875 
Q 18.265625 -1.421875 13.375 4.4375 
Q 8.5 10.296875 8.5 21.578125 
z
M 31.109375 56 
z
" id="DejaVuSans-117"/>
      <path d="M 18.3125 70.21875 
L 18.3125 54.6875 
L 36.8125 54.6875 
L 36.8125 47.703125 
L 18.3125 47.703125 
L 18.3125 18.015625 
Q 18.3125 11.328125 20.140625 9.421875 
Q 21.96875 7.515625 27.59375 7.515625 
L 36.8125 7.515625 
L 36.8125 0 
L 27.59375 0 
Q 17.1875 0 13.234375 3.875 
Q 9.28125 7.765625 9.28125 18.015625 
L 9.28125 47.703125 
L 2.6875 47.703125 
L 2.6875 54.6875 
L 9.28125 54.6875 
L 9.28125 70.21875 
z
" id="DejaVuSans-116"/>
      <path d="M 9.421875 54.6875 
L 18.40625 54.6875 
L 18.40625 0 
L 9.421875 0 
z
M 9.421875 75.984375 
L 18.40625 75.984375 
L 18.40625 64.59375 
L 9.421875 64.59375 
z
" id="DejaVuSans-105"/>
     </defs>
     <g transform="translate(19.918125 140.897286)rotate(-90)scale(0.12 -0.12)">
      <use xlink:href="#DejaVuSans-99"/>
      <use x="54.980469" xlink:href="#DejaVuSans-111"/>
      <use x="116.162109" xlink:href="#DejaVuSans-104"/>
      <use x="179.541016" xlink:href="#DejaVuSans-101"/>
      <use x="241.064453" xlink:href="#DejaVuSans-114"/>
      <use x="282.146484" xlink:href="#DejaVuSans-101"/>
      <use x="343.669922" xlink:href="#DejaVuSans-110"/>
      <use x="407.048828" xlink:href="#DejaVuSans-99"/>
      <use x="462.029297" xlink:href="#DejaVuSans-101"/>
      <use x="523.552734" xlink:href="#DejaVuSans-32"/>
      <use x="555.339844" xlink:href="#DejaVuSans-102"/>
      <use x="590.544922" xlink:href="#DejaVuSans-117"/>
      <use x="653.923828" xlink:href="#DejaVuSans-110"/>
      <use x="717.302734" xlink:href="#DejaVuSans-99"/>
      <use x="772.283203" xlink:href="#DejaVuSans-116"/>
      <use x="811.492188" xlink:href="#DejaVuSans-105"/>
      <use x="839.275391" xlink:href="#DejaVuSans-111"/>
      <use x="900.457031" xlink:href="#DejaVuSans-110"/>
     </g>
    </g>
   </g>
   <g id="line2d_53">
    <path clip-path="url(#p33db822110)" d="M -1 19.731818 
L 82.142816 19.725376 
L 94.768178 21.293158 
L 102.153542 25.127484 
L 107.39354 29.217967 
L 111.457999 31.175129 
L 114.778904 35.021816 
L 117.586688 33.568694 
L 120.018902 34.726618 
L 122.164267 32.006378 
L 124.083361 33.935105 
L 125.819393 48.069491 
L 127.404266 49.98275 
L 128.862207 49.052364 
L 130.21205 58.157096 
L 131.468724 56.000385 
L 132.644264 61.797362 
L 133.748514 81.489301 
L 134.789629 73.984648 
L 135.774439 73.720739 
L 136.708723 93.51014 
L 137.597414 84.323822 
L 138.444755 72.953667 
L 139.254424 52.324538 
L 140.029628 76.49132 
L 140.773182 63.618713 
L 141.487569 70.234666 
L 142.174992 77.706368 
L 142.837412 97.805541 
L 143.476585 89.177599 
L 144.094086 63.821735 
L 144.691338 73.065796 
L 145.269626 70.496577 
L 145.830118 60.354463 
L 146.373876 88.876453 
L 146.901871 73.47696 
L 147.414991 74.939591 
L 147.914051 66.239113 
L 148.399801 68.052673 
L 148.872933 76.83773 
L 149.334085 102.911225 
L 149.78385 89.330407 
L 150.222776 83.808469 
L 150.651373 110.0994 
L 151.070117 111.776379 
L 151.47945 76.492121 
L 152.271511 107.97056 
L 152.65499 102.59312 
L 153.030561 104.97372 
L 153.398544 108.568116 
L 153.75924 97.070641 
L 154.112931 120.37157 
L 154.459886 125.326249 
L 154.800354 115.41175 
L 155.134576 99.366568 
L 155.785164 130.275231 
L 156.101947 99.140574 
L 156.413314 83.677609 
L 156.719448 82.692581 
L 157.020522 119.406416 
L 157.3167 125.448478 
L 157.608139 107.567777 
L 157.894988 121.695614 
L 158.45548 91.837435 
L 158.999238 141.488718 
L 160.539413 109.660128 
L 160.783907 143.680394 
L 161.025163 145.212859 
L 161.73033 133.686727 
L 161.959447 135.318235 
L 162.185718 130.612071 
L 162.409212 146.952772 
L 162.629997 139.417475 
L 162.848138 113.512906 
L 163.063697 135.443296 
L 163.276735 131.602914 
L 163.48731 139.582658 
L 164.104812 135.142494 
L 164.306079 132.239154 
L 164.505148 137.656165 
L 164.702063 130.042508 
L 164.896873 106.694182 
L 165.089622 131.651505 
L 165.280352 114.267519 
L 165.469105 141.118568 
L 165.655923 148.019985 
L 165.840843 103.962447 
L 166.023906 87.685762 
L 166.205147 123.312811 
L 166.562306 137.192574 
L 166.738293 134.013485 
L 166.912597 133.768205 
L 167.085248 143.920001 
L 167.256277 138.890299 
L 167.593593 146.41166 
L 167.759938 128.622781 
L 167.924776 133.395859 
L 168.088136 125.380739 
L 168.410526 139.57003 
L 168.727309 134.632884 
L 168.883658 135.63247 
L 169.038676 122.208729 
L 169.34481 135.37307 
L 169.495969 129.959428 
L 169.645884 135.554243 
L 169.794575 135.817513 
L 169.942062 107.7949 
L 170.088365 107.845315 
L 170.233501 147.569661 
L 170.37749 121.928351 
L 170.662098 138.327268 
L 170.802752 133.89549 
L 170.942328 142.922992 
L 171.080842 132.307619 
L 171.218311 135.778215 
L 171.35475 124.187831 
L 171.490175 141.446457 
L 171.6246 128.951252 
L 171.758041 135.588634 
L 171.890511 135.237941 
L 172.022024 127.777765 
L 172.152595 146.084459 
L 172.282237 143.230674 
L 172.410962 136.427425 
L 172.538784 109.912884 
L 172.665715 142.135832 
L 172.791768 140.068889 
L 172.916954 147.298178 
L 173.041286 125.774767 
L 173.287432 143.60011 
L 173.409269 139.662333 
L 173.530296 139.528292 
L 173.769965 146.782738 
L 173.888627 131.564909 
L 174.123657 144.285965 
L 174.355692 123.985172 
L 174.470611 125.039127 
L 174.584809 121.586491 
L 174.81108 144.128832 
L 174.923169 134.301002 
L 175.034574 143.716753 
L 175.145301 143.237732 
L 175.255359 143.89904 
L 175.364756 147.642297 
L 175.581598 141.222066 
L 175.689059 144.087417 
L 175.79589 139.560235 
L 175.902097 148.559915 
L 176.007689 146.242458 
L 176.112672 117.127117 
L 176.320841 147.572351 
L 176.42404 148.31014 
L 176.526657 146.028971 
L 176.6287 131.521981 
L 176.931441 139.494863 
L 177.13051 117.476464 
L 177.327425 147.985789 
L 177.522235 135.984303 
L 177.618864 148.604999 
L 177.810598 114.150358 
L 178.000335 145.345265 
L 178.094467 147.823958 
L 178.188115 129.963366 
L 178.281285 144.604256 
L 178.466205 132.015282 
L 178.557967 142.313649 
L 178.649268 137.937533 
L 178.830509 148.028276 
L 178.920457 121.824112 
L 179.009964 138.331037 
L 179.099033 120.200076 
L 179.187668 142.83815 
L 179.363655 107.76507 
L 179.451015 145.373131 
L 179.537959 143.283228 
L 179.624489 148.625388 
L 179.71061 143.105355 
L 179.796325 146.054063 
L 179.881639 131.15572 
L 179.966556 144.922057 
L 180.051078 142.943617 
L 180.218955 141.304222 
L 180.467905 120.328193 
L 180.632001 141.475507 
L 180.794632 114.919179 
L 180.955824 148.276987 
L 181.035888 146.718192 
L 181.115602 141.74995 
L 181.194968 145.875153 
L 181.352671 140.40321 
L 181.431013 140.232664 
L 181.586694 120.8942 
L 181.741056 148.253327 
L 181.817748 132.205319 
L 181.89412 138.499927 
L 182.045909 145.727249 
L 182.121331 132.517043 
L 182.196443 137.38487 
L 182.271246 142.039261 
L 182.345743 129.376029 
L 182.49383 145.472267 
L 182.567424 132.250532 
L 182.640722 133.250874 
L 182.786439 147.063687 
L 182.858863 141.797255 
L 182.931 143.21156 
L 183.002852 140.24674 
L 183.074422 147.387796 
L 183.145712 145.718125 
L 183.216724 130.577255 
L 183.28746 146.40481 
L 183.357923 139.91425 
L 183.428114 148.272675 
L 183.637079 122.316555 
L 183.706204 130.849835 
L 183.775068 148.444883 
L 183.91202 124.527722 
L 183.980112 133.923585 
L 184.047951 120.034127 
L 184.115537 126.394305 
L 184.182874 148.518397 
L 184.249962 141.406373 
L 184.316805 145.479659 
L 184.383403 129.467561 
L 184.449758 135.4122 
L 184.515873 148.056762 
L 184.581748 146.34445 
L 184.647386 143.28686 
L 184.712789 147.868619 
L 184.777957 146.415033 
L 184.842893 143.802691 
L 184.907599 130.440487 
L 184.972075 146.334552 
L 185.036324 144.814586 
L 185.100347 141.758884 
L 185.227722 146.285486 
L 185.291077 138.870848 
L 185.354212 148.463458 
L 185.41713 144.440297 
L 185.542316 148.720777 
L 185.604588 144.934362 
L 185.666648 148.756208 
L 185.790137 139.573703 
L 185.851569 146.491357 
L 185.973815 125.928728 
L 186.034631 126.576662 
L 186.095245 103.215079 
L 186.215872 147.399082 
L 186.335705 144.796738 
L 186.395327 148.158992 
L 186.454755 126.308157 
L 186.513989 137.530937 
L 186.631883 147.699918 
L 186.690545 146.16333 
L 186.749019 148.544054 
L 186.807305 148.535367 
L 186.865406 148.331058 
L 187.038604 129.86304 
L 187.095973 129.250014 
L 187.267003 139.56918 
L 187.323658 116.685941 
L 187.380137 124.5623 
L 187.548532 143.480659 
L 187.604319 132.062957 
L 187.659936 141.537651 
L 187.825775 132.938522 
L 187.880721 146.19697 
L 187.935502 131.955771 
L 187.990118 148.249816 
L 188.044571 136.366248 
L 188.098862 136.750205 
L 188.152991 146.856016 
L 188.20696 126.838471 
L 188.26077 130.517888 
L 188.421252 144.050395 
L 188.474433 148.661252 
L 188.527459 145.900303 
L 188.580332 126.572027 
L 188.633051 131.277667 
L 188.685618 130.123751 
L 188.738034 142.132977 
L 188.7903 127.963099 
L 188.842416 142.762703 
L 188.894383 135.363482 
L 188.946203 110.493601 
L 188.997875 128.390022 
L 189.152019 148.210509 
L 189.203112 104.272313 
L 189.254062 137.443947 
L 189.355536 147.803754 
L 189.406062 146.329939 
L 189.456448 146.426414 
L 189.506695 146.035631 
L 189.656609 132.218742 
L 189.8053 148.344264 
L 189.854596 142.551925 
L 189.952787 143.959956 
L 190.050453 137.412861 
L 190.09909 147.836704 
L 190.195976 145.64554 
L 190.292349 148.153717 
L 190.340346 139.936299 
L 190.388216 142.101138 
L 190.43596 143.941917 
L 190.672824 134.637629 
L 190.719829 145.560496 
L 190.813477 144.809748 
L 190.860122 139.086837 
L 190.906647 148.04019 
L 190.953053 140.79972 
L 190.999342 126.571994 
L 191.045513 144.980119 
L 191.091567 147.154802 
L 191.137506 138.954693 
L 191.183329 147.162673 
L 191.229036 140.443161 
L 191.320109 134.036774 
L 191.365476 136.827333 
L 191.410729 141.906105 
L 191.455871 104.709032 
L 191.5009 133.371648 
L 191.545819 146.758837 
L 191.590627 142.184412 
L 191.635326 132.402259 
L 191.679915 137.361609 
L 191.724395 146.887884 
L 191.768766 132.542353 
L 191.81303 145.791485 
L 191.857186 145.064703 
L 191.901236 147.376913 
L 191.94518 136.003292 
L 191.989017 147.22816 
L 192.03275 143.092337 
L 192.076377 128.213506 
L 192.119901 143.447662 
L 192.163321 146.100317 
L 192.249851 133.112541 
L 192.292962 138.863939 
L 192.464394 142.430492 
L 192.591918 135.719751 
L 192.634228 144.833219 
L 192.718555 144.166323 
L 192.760572 138.999049 
L 192.802493 144.760621 
L 192.844318 145.302744 
L 193.010662 137.362401 
L 193.052011 116.586323 
L 193.093267 144.545561 
L 193.13443 129.322934 
L 193.1755 144.455998 
L 193.257363 139.206309 
L 193.33886 148.238462 
L 193.379473 132.688666 
L 193.419994 148.549225 
L 193.460426 148.001312 
L 193.541022 142.936254 
L 193.581186 145.168877 
L 193.621262 148.081917 
L 193.78069 127.183037 
L 193.899352 148.367287 
L 193.938735 124.090783 
L 193.978033 144.591313 
L 194.017246 147.815343 
L 194.056375 147.413865 
L 194.17326 132.122222 
L 194.212056 143.975895 
L 194.2894 137.24341 
L 194.32795 130.861363 
L 194.366418 137.828395 
L 194.404804 142.624043 
L 194.443111 138.977419 
L 194.481336 122.632346 
L 194.519482 140.234711 
L 194.633442 133.328456 
L 194.709021 145.904821 
L 194.746693 135.005423 
L 194.859245 145.954182 
L 194.896608 142.774801 
L 194.933895 139.703757 
L 194.971105 143.163383 
L 195.00824 144.051892 
L 195.045299 143.757707 
L 195.229472 125.925632 
L 195.302623 148.171614 
L 195.339089 136.345838 
L 195.375481 132.996715 
L 195.411801 142.753512 
L 195.448049 139.68828 
L 195.484225 124.729551 
L 195.520329 144.065858 
L 195.592324 147.59893 
L 195.699784 123.712853 
L 195.735464 136.605665 
L 195.806615 134.214963 
L 195.842086 148.514845 
L 195.912822 132.698702 
L 195.948088 146.580156 
L 195.983285 148.346747 
L 196.018414 145.759308 
L 196.08847 135.245157 
L 196.123398 141.270004 
L 196.158258 146.409858 
L 196.193052 139.555281 
L 196.227779 143.146861 
L 196.262441 142.830056 
L 196.331566 148.560797 
L 196.40043 119.534113 
L 196.434765 134.597034 
L 196.469035 134.220391 
L 196.503241 119.516674 
L 196.537382 121.279682 
L 196.57146 146.216551 
L 196.639425 143.145549 
L 196.707137 127.54872 
L 196.740899 147.243704 
L 196.841811 146.14887 
L 196.875324 145.011817 
L 196.942167 144.986592 
L 197.008765 148.716144 
L 197.174202 138.764448 
L 197.20711 138.442441 
L 197.239959 136.623011 
L 197.272748 138.697895 
L 197.305479 125.456898 
L 197.338151 148.256823 
L 197.370764 143.161443 
L 197.403319 147.160465 
L 197.500637 112.703173 
L 197.532961 148.148401 
L 197.597437 129.862469 
L 197.62959 129.138784 
L 197.661686 147.018856 
L 197.693726 121.33102 
L 197.757636 145.920365 
L 197.789508 138.109667 
L 197.853084 142.975158 
L 197.884789 146.340424 
L 197.948034 142.270507 
L 197.979574 106.652193 
L 198.042492 145.216164 
L 198.073869 145.034683 
L 198.105192 147.722507 
L 198.136462 146.090106 
L 198.167678 143.125974 
L 198.198841 148.331154 
L 198.22995 143.900971 
L 198.261006 147.341015 
L 198.29201 135.512383 
L 198.322961 148.271149 
L 198.384705 138.612952 
L 198.415499 133.51259 
L 198.446241 141.020599 
L 198.507569 137.838328 
L 198.568692 148.52193 
L 198.599177 143.646779 
L 198.62961 146.338172 
L 198.690325 109.889528 
L 198.720607 140.809215 
L 198.750839 137.810068 
L 198.78102 148.68699 
L 198.871266 143.969225 
L 198.901249 134.869145 
L 198.990902 138.652274 
L 199.050427 147.118996 
L 199.080117 137.451411 
L 199.109758 136.748414 
L 199.257245 148.507486 
L 199.374381 123.616042 
L 199.403547 130.037776 
L 199.490768 148.518216 
L 199.519749 147.83343 
L 199.577573 148.07286 
L 199.692673 130.411905 
L 199.778523 147.887595 
L 199.807051 145.708912 
L 199.863971 145.879928 
L 199.892365 143.111322 
L 199.920714 147.113486 
L 199.94902 142.715773 
L 199.977281 138.393703 
L 200.005499 146.576677 
L 200.061804 148.722224 
L 200.117935 138.691359 
L 200.173894 144.697557 
L 200.229681 144.809503 
L 200.285298 136.48458 
L 200.313043 147.323352 
L 200.423602 147.317794 
L 200.451137 119.524198 
L 200.533494 127.123468 
L 200.560864 143.676259 
L 200.642727 132.468146 
L 200.669933 115.703242 
L 200.724224 144.154778 
L 200.751309 147.081367 
L 200.778353 141.258924 
L 200.805358 145.502336 
L 200.859247 138.28882 
L 200.912977 113.537804 
L 200.939783 143.584165 
L 200.96655 129.510278 
L 201.099795 146.69949 
L 201.152821 125.52452 
L 201.232072 138.902679 
L 201.284716 132.818379 
L 201.337207 143.534652 
L 201.389548 147.117545 
L 201.49378 123.886917 
L 201.545674 148.553672 
L 201.597419 120.210812 
L 201.649019 145.346177 
L 201.726145 143.136582 
L 201.802945 147.799329 
L 201.828474 130.091986 
L 201.853967 148.140976 
L 201.930231 148.110218 
L 202.006178 129.870459 
L 202.031424 135.790634 
L 202.10695 148.480363 
L 202.132057 132.033259 
L 202.157128 132.917659 
L 202.207168 146.83046 
L 202.281971 139.514702 
L 202.306838 146.876441 
L 202.381234 143.40071 
L 202.405965 140.335222 
L 202.430662 122.27868 
L 202.504555 147.589013 
L 202.553651 146.3012 
L 202.627048 113.074262 
L 202.675815 142.610912 
L 202.70015 142.476934 
L 202.724452 148.458495 
L 202.748722 147.646691 
L 202.893666 119.95529 
L 203.037466 147.667676 
L 203.061322 148.132783 
L 203.108942 125.538136 
L 203.156438 146.686754 
L 203.20381 148.739846 
L 203.22745 144.934238 
L 203.251059 145.735544 
L 203.298186 131.919672 
L 203.345191 146.361298 
L 203.368648 145.392992 
L 203.392075 147.961894 
L 203.415472 148.255478 
L 203.462176 142.397449 
L 203.532009 146.532512 
L 203.555227 147.982757 
L 203.578415 119.37986 
L 203.670875 137.947136 
L 203.693917 145.252889 
L 203.762868 132.980666 
L 203.785794 109.687226 
L 203.854398 147.825742 
L 203.899992 133.319468 
L 203.922746 148.15357 
L 203.968169 142.212358 
L 204.013478 147.904129 
L 204.036091 147.143505 
L 204.171181 125.839305 
L 204.238352 147.8859 
L 204.260688 145.882809 
L 204.305277 112.198123 
L 204.32753 147.4365 
L 204.371956 130.969228 
L 204.438392 148.685452 
L 204.460484 122.805811 
L 204.482549 143.3565 
L 204.526598 141.549202 
L 204.614379 129.714814 
L 204.570542 144.059896 
L 204.636259 138.125979 
L 204.679939 148.130061 
L 204.766986 147.16405 
L 204.788683 148.292926 
L 204.831999 148.340155 
L 204.896781 136.665818 
L 204.918324 147.725617 
L 204.961334 126.02729 
L 205.004242 146.468331 
L 205.174871 125.677248 
L 205.238447 146.813621 
L 205.280708 143.456921 
L 205.301802 114.167447 
L 205.364938 147.315481 
L 205.385934 143.372864 
L 205.406907 130.575333 
L 205.46968 147.526045 
L 205.490556 147.879885 
L 205.511408 115.976511 
L 205.59458 145.575605 
L 205.677373 131.890733 
L 205.698013 143.512686 
L 205.718629 147.498893 
L 205.739222 131.810457 
L 205.759792 97.858995 
L 205.821363 146.037112 
L 205.84184 137.494347 
L 205.903134 130.73666 
L 205.92352 146.117369 
L 206.025107 140.286035 
L 206.045356 144.405786 
L 206.085788 132.380107 
L 206.105971 131.401067 
L 206.226597 148.322699 
L 206.366326 129.388179 
L 206.485246 147.651124 
L 206.524714 108.048702 
L 206.583757 143.646946 
L 206.681737 147.958689 
L 206.70127 146.21222 
L 206.740274 148.477712 
L 206.759744 147.682642 
L 206.837418 148.565928 
L 206.876131 139.91727 
L 206.914762 146.067218 
L 206.934047 124.092963 
L 206.972556 146.115705 
L 207.030166 138.124043 
L 207.087595 148.325202 
L 207.106698 146.713703 
L 207.125781 122.4965 
L 207.201913 147.941921 
L 207.353229 134.659949 
L 207.372055 140.200655 
L 207.40965 147.392105 
L 207.428418 133.200633 
L 207.465897 138.382476 
L 207.484607 107.680049 
L 207.52197 147.750789 
L 207.559257 146.831227 
L 207.596467 140.961516 
L 207.633602 146.035248 
L 207.707645 115.131295 
L 207.670661 147.249173 
L 207.76298 126.828877 
L 207.781388 146.22064 
L 207.873149 134.940369 
L 207.891446 135.604648 
L 208.000843 147.84355 
L 208.019012 146.013791 
L 208.073411 146.327641 
L 208.145691 132.686709 
L 208.181724 148.161031 
L 208.23564 147.796688 
L 208.271495 113.193014 
L 208.342995 147.177254 
L 208.360826 147.49238 
L 208.396436 131.70873 
L 208.396436 131.70873 
" style="fill:none;stroke:#000000;stroke-linecap:square;"/>
   </g>
   <g id="line2d_54">
    <path clip-path="url(#p33db822110)" d="M 56.892092 17.369696 
L 69.517454 17.76156 
L 79.710602 18.347165 
L 86.207275 18.930153 
L 92.335964 19.703418 
L 97.898353 20.663526 
L 102.153542 21.616491 
L 106.218 22.750697 
L 110.037965 24.061155 
L 113.603364 25.542143 
L 116.924268 27.187241 
L 120.018902 28.989382 
L 122.907821 30.940898 
L 125.611224 33.033579 
L 128.329061 35.42811 
L 131.007572 38.10411 
L 133.614089 41.039161 
L 136.130435 44.209117 
L 138.650571 47.73942 
L 141.222947 51.73189 
L 143.86497 56.259893 
L 146.573672 61.363264 
L 149.390917 67.165808 
L 152.36814 73.824355 
L 155.664936 81.765001 
L 159.656875 91.999585 
L 170.502554 120.1632 
L 173.226207 126.409644 
L 175.554634 131.213416 
L 177.642942 135.026003 
L 179.55963 138.074426 
L 181.352671 140.520624 
L 183.074422 142.501282 
L 184.745402 144.090569 
L 186.402766 145.363991 
L 188.078522 146.373977 
L 189.829965 147.169539 
L 191.713285 147.778338 
L 193.835173 148.225783 
L 196.396134 148.529538 
L 199.88527 148.702594 
L 206.460535 148.762066 
L 208.396436 148.763625 
L 208.396436 148.763625 
" style="fill:none;stroke:#ff0000;stroke-linecap:square;stroke-width:2;"/>
   </g>
   <g id="patch_3">
    <path d="M 49.316875 155.333322 
L 49.316875 10.8 
" style="fill:none;stroke:#000000;stroke-linecap:square;stroke-linejoin:miter;stroke-width:0.8;"/>
   </g>
   <g id="patch_4">
    <path d="M 215.971654 155.333322 
L 215.971654 10.8 
" style="fill:none;stroke:#000000;stroke-linecap:square;stroke-linejoin:miter;stroke-width:0.8;"/>
   </g>
   <g id="patch_5">
    <path d="M 49.316875 155.333322 
L 215.971654 155.333322 
" style="fill:none;stroke:#000000;stroke-linecap:square;stroke-linejoin:miter;stroke-width:0.8;"/>
   </g>
   <g id="patch_6">
    <path d="M 49.316875 10.8 
L 215.971654 10.8 
" style="fill:none;stroke:#000000;stroke-linecap:square;stroke-linejoin:miter;stroke-width:0.8;"/>
   </g>
   <g id="legend_1">
    <g id="patch_7">
     <path d="M 56.316875 150.333322 
L 137.710625 150.333322 
Q 139.710625 150.333322 139.710625 148.333322 
L 139.710625 119.977072 
Q 139.710625 117.977072 137.710625 117.977072 
L 56.316875 117.977072 
Q 54.316875 117.977072 54.316875 119.977072 
L 54.316875 148.333322 
Q 54.316875 150.333322 56.316875 150.333322 
z
" style="fill:#ffffff;opacity:0.8;stroke:#cccccc;stroke-linejoin:miter;"/>
    </g>
    <g id="line2d_55">
     <path d="M 58.316875 126.075509 
L 78.316875 126.075509 
" style="fill:none;stroke:#000000;stroke-linecap:square;"/>
    </g>
    <g id="line2d_56"/>
    <g id="text_13">
     <!-- simulated -->
     <defs>
      <path d="M 44.28125 53.078125 
L 44.28125 44.578125 
Q 40.484375 46.53125 36.375 47.5 
Q 32.28125 48.484375 27.875 48.484375 
Q 21.1875 48.484375 17.84375 46.4375 
Q 14.5 44.390625 14.5 40.28125 
Q 14.5 37.15625 16.890625 35.375 
Q 19.28125 33.59375 26.515625 31.984375 
L 29.59375 31.296875 
Q 39.15625 29.25 43.1875 25.515625 
Q 47.21875 21.78125 47.21875 15.09375 
Q 47.21875 7.46875 41.1875 3.015625 
Q 35.15625 -1.421875 24.609375 -1.421875 
Q 20.21875 -1.421875 15.453125 -0.5625 
Q 10.6875 0.296875 5.421875 2 
L 5.421875 11.28125 
Q 10.40625 8.6875 15.234375 7.390625 
Q 20.0625 6.109375 24.8125 6.109375 
Q 31.15625 6.109375 34.5625 8.28125 
Q 37.984375 10.453125 37.984375 14.40625 
Q 37.984375 18.0625 35.515625 20.015625 
Q 33.0625 21.96875 24.703125 23.78125 
L 21.578125 24.515625 
Q 13.234375 26.265625 9.515625 29.90625 
Q 5.8125 33.546875 5.8125 39.890625 
Q 5.8125 47.609375 11.28125 51.796875 
Q 16.75 56 26.8125 56 
Q 31.78125 56 36.171875 55.265625 
Q 40.578125 54.546875 44.28125 53.078125 
z
" id="DejaVuSans-115"/>
      <path d="M 52 44.1875 
Q 55.375 50.25 60.0625 53.125 
Q 64.75 56 71.09375 56 
Q 79.640625 56 84.28125 50.015625 
Q 88.921875 44.046875 88.921875 33.015625 
L 88.921875 0 
L 79.890625 0 
L 79.890625 32.71875 
Q 79.890625 40.578125 77.09375 44.375 
Q 74.3125 48.1875 68.609375 48.1875 
Q 61.625 48.1875 57.5625 43.546875 
Q 53.515625 38.921875 53.515625 30.90625 
L 53.515625 0 
L 44.484375 0 
L 44.484375 32.71875 
Q 44.484375 40.625 41.703125 44.40625 
Q 38.921875 48.1875 33.109375 48.1875 
Q 26.21875 48.1875 22.15625 43.53125 
Q 18.109375 38.875 18.109375 30.90625 
L 18.109375 0 
L 9.078125 0 
L 9.078125 54.6875 
L 18.109375 54.6875 
L 18.109375 46.1875 
Q 21.1875 51.21875 25.484375 53.609375 
Q 29.78125 56 35.6875 56 
Q 41.65625 56 45.828125 52.96875 
Q 50 49.953125 52 44.1875 
z
" id="DejaVuSans-109"/>
      <path d="M 9.421875 75.984375 
L 18.40625 75.984375 
L 18.40625 0 
L 9.421875 0 
z
" id="DejaVuSans-108"/>
      <path d="M 34.28125 27.484375 
Q 23.390625 27.484375 19.1875 25 
Q 14.984375 22.515625 14.984375 16.5 
Q 14.984375 11.71875 18.140625 8.90625 
Q 21.296875 6.109375 26.703125 6.109375 
Q 34.1875 6.109375 38.703125 11.40625 
Q 43.21875 16.703125 43.21875 25.484375 
L 43.21875 27.484375 
z
M 52.203125 31.203125 
L 52.203125 0 
L 43.21875 0 
L 43.21875 8.296875 
Q 40.140625 3.328125 35.546875 0.953125 
Q 30.953125 -1.421875 24.3125 -1.421875 
Q 15.921875 -1.421875 10.953125 3.296875 
Q 6 8.015625 6 15.921875 
Q 6 25.140625 12.171875 29.828125 
Q 18.359375 34.515625 30.609375 34.515625 
L 43.21875 34.515625 
L 43.21875 35.40625 
Q 43.21875 41.609375 39.140625 45 
Q 35.0625 48.390625 27.6875 48.390625 
Q 23 48.390625 18.546875 47.265625 
Q 14.109375 46.140625 10.015625 43.890625 
L 10.015625 52.203125 
Q 14.9375 54.109375 19.578125 55.046875 
Q 24.21875 56 28.609375 56 
Q 40.484375 56 46.34375 49.84375 
Q 52.203125 43.703125 52.203125 31.203125 
z
" id="DejaVuSans-97"/>
      <path d="M 45.40625 46.390625 
L 45.40625 75.984375 
L 54.390625 75.984375 
L 54.390625 0 
L 45.40625 0 
L 45.40625 8.203125 
Q 42.578125 3.328125 38.25 0.953125 
Q 33.9375 -1.421875 27.875 -1.421875 
Q 17.96875 -1.421875 11.734375 6.484375 
Q 5.515625 14.40625 5.515625 27.296875 
Q 5.515625 40.1875 11.734375 48.09375 
Q 17.96875 56 27.875 56 
Q 33.9375 56 38.25 53.625 
Q 42.578125 51.265625 45.40625 46.390625 
z
M 14.796875 27.296875 
Q 14.796875 17.390625 18.875 11.75 
Q 22.953125 6.109375 30.078125 6.109375 
Q 37.203125 6.109375 41.296875 11.75 
Q 45.40625 17.390625 45.40625 27.296875 
Q 45.40625 37.203125 41.296875 42.84375 
Q 37.203125 48.484375 30.078125 48.484375 
Q 22.953125 48.484375 18.875 42.84375 
Q 14.796875 37.203125 14.796875 27.296875 
z
" id="DejaVuSans-100"/>
     </defs>
     <g transform="translate(86.316875 129.575509)scale(0.1 -0.1)">
      <use xlink:href="#DejaVuSans-115"/>
      <use x="52.099609" xlink:href="#DejaVuSans-105"/>
      <use x="79.882812" xlink:href="#DejaVuSans-109"/>
      <use x="177.294922" xlink:href="#DejaVuSans-117"/>
      <use x="240.673828" xlink:href="#DejaVuSans-108"/>
      <use x="268.457031" xlink:href="#DejaVuSans-97"/>
      <use x="329.736328" xlink:href="#DejaVuSans-116"/>
      <use x="368.945312" xlink:href="#DejaVuSans-101"/>
      <use x="430.46875" xlink:href="#DejaVuSans-100"/>
     </g>
    </g>
    <g id="line2d_57">
     <path d="M 58.316875 140.753634 
L 78.316875 140.753634 
" style="fill:none;stroke:#ff0000;stroke-linecap:square;stroke-width:2;"/>
    </g>
    <g id="line2d_58"/>
    <g id="text_14">
     <!-- target -->
     <defs>
      <path d="M 45.40625 27.984375 
Q 45.40625 37.75 41.375 43.109375 
Q 37.359375 48.484375 30.078125 48.484375 
Q 22.859375 48.484375 18.828125 43.109375 
Q 14.796875 37.75 14.796875 27.984375 
Q 14.796875 18.265625 18.828125 12.890625 
Q 22.859375 7.515625 30.078125 7.515625 
Q 37.359375 7.515625 41.375 12.890625 
Q 45.40625 18.265625 45.40625 27.984375 
z
M 54.390625 6.78125 
Q 54.390625 -7.171875 48.1875 -13.984375 
Q 42 -20.796875 29.203125 -20.796875 
Q 24.46875 -20.796875 20.265625 -20.09375 
Q 16.0625 -19.390625 12.109375 -17.921875 
L 12.109375 -9.1875 
Q 16.0625 -11.328125 19.921875 -12.34375 
Q 23.78125 -13.375 27.78125 -13.375 
Q 36.625 -13.375 41.015625 -8.765625 
Q 45.40625 -4.15625 45.40625 5.171875 
L 45.40625 9.625 
Q 42.625 4.78125 38.28125 2.390625 
Q 33.9375 0 27.875 0 
Q 17.828125 0 11.671875 7.65625 
Q 5.515625 15.328125 5.515625 27.984375 
Q 5.515625 40.671875 11.671875 48.328125 
Q 17.828125 56 27.875 56 
Q 33.9375 56 38.28125 53.609375 
Q 42.625 51.21875 45.40625 46.390625 
L 45.40625 54.6875 
L 54.390625 54.6875 
z
" id="DejaVuSans-103"/>
     </defs>
     <g transform="translate(86.316875 144.253634)scale(0.1 -0.1)">
      <use xlink:href="#DejaVuSans-116"/>
      <use x="39.208984" xlink:href="#DejaVuSans-97"/>
      <use x="100.488281" xlink:href="#DejaVuSans-114"/>
      <use x="141.585938" xlink:href="#DejaVuSans-103"/>
      <use x="205.0625" xlink:href="#DejaVuSans-101"/>
      <use x="266.585938" xlink:href="#DejaVuSans-116"/>
     </g>
    </g>
   </g>
  </g>
 </g>
 <defs>
  <clipPath id="p33db822110">
   <rect height="144.533322" width="166.654779" x="49.316875" y="10.8"/>
  </clipPath>
 </defs>
</svg>
