<?xml version="1.0" encoding="utf-8" standalone="no"?>
<!DOCTYPE svg PUBLIC "-//W3C//DTD SVG 1.1//EN"
  "http://www.w3.org/Graphics/SVG/1.1/DTD/svg11.dtd">
<!-- Created with matplotlib (https://matplotlib.org/) -->
<svg height="198.425197pt" version="1.1" viewBox="0 0 226.771654 198.425197" width="226.771654pt" xmlns="http://www.w3.org/2000/svg" xmlns:xlink="http://www.w3.org/1999/xlink">
 <defs>
  <style type="text/css">
*{stroke-linecap:butt;stroke-linejoin:round;}
  </style>
 </defs>
 <g id="figure_1">
  <g id="patch_1">
   <path d="M 0 198.425197 
L 226.771654 198.425197 
L 226.771654 0 
L 0 0 
z
" style="fill:#ffffff;"/>
  </g>
  <g id="axes_1">
   <g id="patch_2">
    <path d="M 49.316875 155.333322 
L 215.971654 155.333322 
L 215.971654 10.8 
L 49.316875 10.8 
z
" style="fill:#ffffff;"/>
   </g>
   <g id="matplotlib.axis_1">
    <g id="xtick_1">
     <g id="line2d_1">
      <path clip-path="url(#pc593a97bd9)" d="M 49.938715 155.333322 
L 49.938715 10.8 
" style="fill:none;stroke:#b0b0b0;stroke-linecap:square;stroke-width:0.8;"/>
     </g>
     <g id="line2d_2">
      <defs>
       <path d="M 0 0 
L 0 3.5 
" id="m67f51de5a6" style="stroke:#000000;stroke-width:0.8;"/>
      </defs>
      <g>
       <use style="stroke:#000000;stroke-width:0.8;" x="49.938715" xlink:href="#m67f51de5a6" y="155.333322"/>
      </g>
     </g>
     <g id="text_1">
      <!-- $\mathdefault{10^{-3}}$ -->
      <defs>
       <path d="M 12.40625 8.296875 
L 28.515625 8.296875 
L 28.515625 63.921875 
L 10.984375 60.40625 
L 10.984375 69.390625 
L 28.421875 72.90625 
L 38.28125 72.90625 
L 38.28125 8.296875 
L 54.390625 8.296875 
L 54.390625 0 
L 12.40625 0 
z
" id="DejaVuSans-49"/>
       <path d="M 31.78125 66.40625 
Q 24.171875 66.40625 20.328125 58.90625 
Q 16.5 51.421875 16.5 36.375 
Q 16.5 21.390625 20.328125 13.890625 
Q 24.171875 6.390625 31.78125 6.390625 
Q 39.453125 6.390625 43.28125 13.890625 
Q 47.125 21.390625 47.125 36.375 
Q 47.125 51.421875 43.28125 58.90625 
Q 39.453125 66.40625 31.78125 66.40625 
z
M 31.78125 74.21875 
Q 44.046875 74.21875 50.515625 64.515625 
Q 56.984375 54.828125 56.984375 36.375 
Q 56.984375 17.96875 50.515625 8.265625 
Q 44.046875 -1.421875 31.78125 -1.421875 
Q 19.53125 -1.421875 13.0625 8.265625 
Q 6.59375 17.96875 6.59375 36.375 
Q 6.59375 54.828125 13.0625 64.515625 
Q 19.53125 74.21875 31.78125 74.21875 
z
" id="DejaVuSans-48"/>
       <path d="M 10.59375 35.5 
L 73.1875 35.5 
L 73.1875 27.203125 
L 10.59375 27.203125 
z
" id="DejaVuSans-8722"/>
       <path d="M 40.578125 39.3125 
Q 47.65625 37.796875 51.625 33 
Q 55.609375 28.21875 55.609375 21.1875 
Q 55.609375 10.40625 48.1875 4.484375 
Q 40.765625 -1.421875 27.09375 -1.421875 
Q 22.515625 -1.421875 17.65625 -0.515625 
Q 12.796875 0.390625 7.625 2.203125 
L 7.625 11.71875 
Q 11.71875 9.328125 16.59375 8.109375 
Q 21.484375 6.890625 26.8125 6.890625 
Q 36.078125 6.890625 40.9375 10.546875 
Q 45.796875 14.203125 45.796875 21.1875 
Q 45.796875 27.640625 41.28125 31.265625 
Q 36.765625 34.90625 28.71875 34.90625 
L 20.21875 34.90625 
L 20.21875 43.015625 
L 29.109375 43.015625 
Q 36.375 43.015625 40.234375 45.921875 
Q 44.09375 48.828125 44.09375 54.296875 
Q 44.09375 59.90625 40.109375 62.90625 
Q 36.140625 65.921875 28.71875 65.921875 
Q 24.65625 65.921875 20.015625 65.03125 
Q 15.375 64.15625 9.8125 62.3125 
L 9.8125 71.09375 
Q 15.4375 72.65625 20.34375 73.4375 
Q 25.25 74.21875 29.59375 74.21875 
Q 40.828125 74.21875 47.359375 69.109375 
Q 53.90625 64.015625 53.90625 55.328125 
Q 53.90625 49.265625 50.4375 45.09375 
Q 46.96875 40.921875 40.578125 39.3125 
z
" id="DejaVuSans-51"/>
      </defs>
      <g transform="translate(38.188715 169.931759)scale(0.1 -0.1)">
       <use transform="translate(0 0.765625)" xlink:href="#DejaVuSans-49"/>
       <use transform="translate(63.623047 0.765625)" xlink:href="#DejaVuSans-48"/>
       <use transform="translate(128.203125 39.046875)scale(0.7)" xlink:href="#DejaVuSans-8722"/>
       <use transform="translate(186.855469 39.046875)scale(0.7)" xlink:href="#DejaVuSans-51"/>
      </g>
     </g>
    </g>
    <g id="xtick_2">
     <g id="line2d_3">
      <path clip-path="url(#pc593a97bd9)" d="M 91.879259 155.333322 
L 91.879259 10.8 
" style="fill:none;stroke:#b0b0b0;stroke-linecap:square;stroke-width:0.8;"/>
     </g>
     <g id="line2d_4">
      <g>
       <use style="stroke:#000000;stroke-width:0.8;" x="91.879259" xlink:href="#m67f51de5a6" y="155.333322"/>
      </g>
     </g>
     <g id="text_2">
      <!-- $\mathdefault{10^{-2}}$ -->
      <defs>
       <path d="M 19.1875 8.296875 
L 53.609375 8.296875 
L 53.609375 0 
L 7.328125 0 
L 7.328125 8.296875 
Q 12.9375 14.109375 22.625 23.890625 
Q 32.328125 33.6875 34.8125 36.53125 
Q 39.546875 41.84375 41.421875 45.53125 
Q 43.3125 49.21875 43.3125 52.78125 
Q 43.3125 58.59375 39.234375 62.25 
Q 35.15625 65.921875 28.609375 65.921875 
Q 23.96875 65.921875 18.8125 64.3125 
Q 13.671875 62.703125 7.8125 59.421875 
L 7.8125 69.390625 
Q 13.765625 71.78125 18.9375 73 
Q 24.125 74.21875 28.421875 74.21875 
Q 39.75 74.21875 46.484375 68.546875 
Q 53.21875 62.890625 53.21875 53.421875 
Q 53.21875 48.921875 51.53125 44.890625 
Q 49.859375 40.875 45.40625 35.40625 
Q 44.1875 33.984375 37.640625 27.21875 
Q 31.109375 20.453125 19.1875 8.296875 
z
" id="DejaVuSans-50"/>
      </defs>
      <g transform="translate(80.129259 169.931759)scale(0.1 -0.1)">
       <use transform="translate(0 0.765625)" xlink:href="#DejaVuSans-49"/>
       <use transform="translate(63.623047 0.765625)" xlink:href="#DejaVuSans-48"/>
       <use transform="translate(128.203125 39.046875)scale(0.7)" xlink:href="#DejaVuSans-8722"/>
       <use transform="translate(186.855469 39.046875)scale(0.7)" xlink:href="#DejaVuSans-50"/>
      </g>
     </g>
    </g>
    <g id="xtick_3">
     <g id="line2d_5">
      <path clip-path="url(#pc593a97bd9)" d="M 133.819804 155.333322 
L 133.819804 10.8 
" style="fill:none;stroke:#b0b0b0;stroke-linecap:square;stroke-width:0.8;"/>
     </g>
     <g id="line2d_6">
      <g>
       <use style="stroke:#000000;stroke-width:0.8;" x="133.819804" xlink:href="#m67f51de5a6" y="155.333322"/>
      </g>
     </g>
     <g id="text_3">
      <!-- $\mathdefault{10^{-1}}$ -->
      <g transform="translate(122.069804 169.931759)scale(0.1 -0.1)">
       <use transform="translate(0 0.684375)" xlink:href="#DejaVuSans-49"/>
       <use transform="translate(63.623047 0.684375)" xlink:href="#DejaVuSans-48"/>
       <use transform="translate(128.203125 38.965625)scale(0.7)" xlink:href="#DejaVuSans-8722"/>
       <use transform="translate(186.855469 38.965625)scale(0.7)" xlink:href="#DejaVuSans-49"/>
      </g>
     </g>
    </g>
    <g id="xtick_4">
     <g id="line2d_7">
      <path clip-path="url(#pc593a97bd9)" d="M 175.760349 155.333322 
L 175.760349 10.8 
" style="fill:none;stroke:#b0b0b0;stroke-linecap:square;stroke-width:0.8;"/>
     </g>
     <g id="line2d_8">
      <g>
       <use style="stroke:#000000;stroke-width:0.8;" x="175.760349" xlink:href="#m67f51de5a6" y="155.333322"/>
      </g>
     </g>
     <g id="text_4">
      <!-- $\mathdefault{10^{0}}$ -->
      <g transform="translate(166.960349 169.931759)scale(0.1 -0.1)">
       <use transform="translate(0 0.765625)" xlink:href="#DejaVuSans-49"/>
       <use transform="translate(63.623047 0.765625)" xlink:href="#DejaVuSans-48"/>
       <use transform="translate(128.203125 39.046875)scale(0.7)" xlink:href="#DejaVuSans-48"/>
      </g>
     </g>
    </g>
    <g id="xtick_5">
     <g id="line2d_9">
      <defs>
       <path d="M 0 0 
L 0 2 
" id="m9c267b2ee8" style="stroke:#000000;stroke-width:0.6;"/>
      </defs>
      <g>
       <use style="stroke:#000000;stroke-width:0.6;" x="62.564077" xlink:href="#m9c267b2ee8" y="155.333322"/>
      </g>
     </g>
    </g>
    <g id="xtick_6">
     <g id="line2d_10">
      <g>
       <use style="stroke:#000000;stroke-width:0.6;" x="69.94944" xlink:href="#m9c267b2ee8" y="155.333322"/>
      </g>
     </g>
    </g>
    <g id="xtick_7">
     <g id="line2d_11">
      <g>
       <use style="stroke:#000000;stroke-width:0.6;" x="75.189439" xlink:href="#m9c267b2ee8" y="155.333322"/>
      </g>
     </g>
    </g>
    <g id="xtick_8">
     <g id="line2d_12">
      <g>
       <use style="stroke:#000000;stroke-width:0.6;" x="79.253897" xlink:href="#m9c267b2ee8" y="155.333322"/>
      </g>
     </g>
    </g>
    <g id="xtick_9">
     <g id="line2d_13">
      <g>
       <use style="stroke:#000000;stroke-width:0.6;" x="82.574802" xlink:href="#m9c267b2ee8" y="155.333322"/>
      </g>
     </g>
    </g>
    <g id="xtick_10">
     <g id="line2d_14">
      <g>
       <use style="stroke:#000000;stroke-width:0.6;" x="85.382587" xlink:href="#m9c267b2ee8" y="155.333322"/>
      </g>
     </g>
    </g>
    <g id="xtick_11">
     <g id="line2d_15">
      <g>
       <use style="stroke:#000000;stroke-width:0.6;" x="87.814801" xlink:href="#m9c267b2ee8" y="155.333322"/>
      </g>
     </g>
    </g>
    <g id="xtick_12">
     <g id="line2d_16">
      <g>
       <use style="stroke:#000000;stroke-width:0.6;" x="89.960165" xlink:href="#m9c267b2ee8" y="155.333322"/>
      </g>
     </g>
    </g>
    <g id="xtick_13">
     <g id="line2d_17">
      <g>
       <use style="stroke:#000000;stroke-width:0.6;" x="104.504621" xlink:href="#m9c267b2ee8" y="155.333322"/>
      </g>
     </g>
    </g>
    <g id="xtick_14">
     <g id="line2d_18">
      <g>
       <use style="stroke:#000000;stroke-width:0.6;" x="111.889985" xlink:href="#m9c267b2ee8" y="155.333322"/>
      </g>
     </g>
    </g>
    <g id="xtick_15">
     <g id="line2d_19">
      <g>
       <use style="stroke:#000000;stroke-width:0.6;" x="117.129983" xlink:href="#m9c267b2ee8" y="155.333322"/>
      </g>
     </g>
    </g>
    <g id="xtick_16">
     <g id="line2d_20">
      <g>
       <use style="stroke:#000000;stroke-width:0.6;" x="121.194442" xlink:href="#m9c267b2ee8" y="155.333322"/>
      </g>
     </g>
    </g>
    <g id="xtick_17">
     <g id="line2d_21">
      <g>
       <use style="stroke:#000000;stroke-width:0.6;" x="124.515347" xlink:href="#m9c267b2ee8" y="155.333322"/>
      </g>
     </g>
    </g>
    <g id="xtick_18">
     <g id="line2d_22">
      <g>
       <use style="stroke:#000000;stroke-width:0.6;" x="127.323132" xlink:href="#m9c267b2ee8" y="155.333322"/>
      </g>
     </g>
    </g>
    <g id="xtick_19">
     <g id="line2d_23">
      <g>
       <use style="stroke:#000000;stroke-width:0.6;" x="129.755345" xlink:href="#m9c267b2ee8" y="155.333322"/>
      </g>
     </g>
    </g>
    <g id="xtick_20">
     <g id="line2d_24">
      <g>
       <use style="stroke:#000000;stroke-width:0.6;" x="131.90071" xlink:href="#m9c267b2ee8" y="155.333322"/>
      </g>
     </g>
    </g>
    <g id="xtick_21">
     <g id="line2d_25">
      <g>
       <use style="stroke:#000000;stroke-width:0.6;" x="146.445166" xlink:href="#m9c267b2ee8" y="155.333322"/>
      </g>
     </g>
    </g>
    <g id="xtick_22">
     <g id="line2d_26">
      <g>
       <use style="stroke:#000000;stroke-width:0.6;" x="153.83053" xlink:href="#m9c267b2ee8" y="155.333322"/>
      </g>
     </g>
    </g>
    <g id="xtick_23">
     <g id="line2d_27">
      <g>
       <use style="stroke:#000000;stroke-width:0.6;" x="159.070528" xlink:href="#m9c267b2ee8" y="155.333322"/>
      </g>
     </g>
    </g>
    <g id="xtick_24">
     <g id="line2d_28">
      <g>
       <use style="stroke:#000000;stroke-width:0.6;" x="163.134987" xlink:href="#m9c267b2ee8" y="155.333322"/>
      </g>
     </g>
    </g>
    <g id="xtick_25">
     <g id="line2d_29">
      <g>
       <use style="stroke:#000000;stroke-width:0.6;" x="166.455892" xlink:href="#m9c267b2ee8" y="155.333322"/>
      </g>
     </g>
    </g>
    <g id="xtick_26">
     <g id="line2d_30">
      <g>
       <use style="stroke:#000000;stroke-width:0.6;" x="169.263676" xlink:href="#m9c267b2ee8" y="155.333322"/>
      </g>
     </g>
    </g>
    <g id="xtick_27">
     <g id="line2d_31">
      <g>
       <use style="stroke:#000000;stroke-width:0.6;" x="171.69589" xlink:href="#m9c267b2ee8" y="155.333322"/>
      </g>
     </g>
    </g>
    <g id="xtick_28">
     <g id="line2d_32">
      <g>
       <use style="stroke:#000000;stroke-width:0.6;" x="173.841255" xlink:href="#m9c267b2ee8" y="155.333322"/>
      </g>
     </g>
    </g>
    <g id="xtick_29">
     <g id="line2d_33">
      <g>
       <use style="stroke:#000000;stroke-width:0.6;" x="188.385711" xlink:href="#m9c267b2ee8" y="155.333322"/>
      </g>
     </g>
    </g>
    <g id="xtick_30">
     <g id="line2d_34">
      <g>
       <use style="stroke:#000000;stroke-width:0.6;" x="195.771074" xlink:href="#m9c267b2ee8" y="155.333322"/>
      </g>
     </g>
    </g>
    <g id="xtick_31">
     <g id="line2d_35">
      <g>
       <use style="stroke:#000000;stroke-width:0.6;" x="201.011073" xlink:href="#m9c267b2ee8" y="155.333322"/>
      </g>
     </g>
    </g>
    <g id="xtick_32">
     <g id="line2d_36">
      <g>
       <use style="stroke:#000000;stroke-width:0.6;" x="205.075532" xlink:href="#m9c267b2ee8" y="155.333322"/>
      </g>
     </g>
    </g>
    <g id="xtick_33">
     <g id="line2d_37">
      <g>
       <use style="stroke:#000000;stroke-width:0.6;" x="208.396436" xlink:href="#m9c267b2ee8" y="155.333322"/>
      </g>
     </g>
    </g>
    <g id="xtick_34">
     <g id="line2d_38">
      <g>
       <use style="stroke:#000000;stroke-width:0.6;" x="211.204221" xlink:href="#m9c267b2ee8" y="155.333322"/>
      </g>
     </g>
    </g>
    <g id="xtick_35">
     <g id="line2d_39">
      <g>
       <use style="stroke:#000000;stroke-width:0.6;" x="213.636435" xlink:href="#m9c267b2ee8" y="155.333322"/>
      </g>
     </g>
    </g>
    <g id="xtick_36">
     <g id="line2d_40">
      <g>
       <use style="stroke:#000000;stroke-width:0.6;" x="215.7818" xlink:href="#m9c267b2ee8" y="155.333322"/>
      </g>
     </g>
    </g>
    <g id="text_5">
     <!-- f (Hz) -->
     <defs>
      <path d="M 47.796875 75.984375 
L 46.390625 68.5 
L 37.796875 68.5 
Q 32.90625 68.5 30.6875 66.578125 
Q 28.46875 64.65625 27.390625 59.515625 
L 26.421875 54.6875 
L 41.21875 54.6875 
L 39.890625 47.703125 
L 25.09375 47.703125 
L 15.828125 0 
L 6.78125 0 
L 16.109375 47.703125 
L 7.515625 47.703125 
L 8.796875 54.6875 
L 17.390625 54.6875 
L 18.109375 58.5 
Q 19.96875 68.171875 24.625 72.078125 
Q 29.296875 75.984375 39.3125 75.984375 
z
" id="DejaVuSans-Oblique-102"/>
      <path id="DejaVuSans-Oblique-32"/>
      <path d="M 42.671875 75.875 
Q 29.734375 59.71875 23.359375 45.1875 
Q 17 30.671875 17 17.1875 
Q 17 9.46875 18.84375 1.875 
Q 20.703125 -5.71875 24.421875 -13.1875 
L 16.609375 -13.1875 
Q 12.109375 -4.78125 9.90625 3.140625 
Q 7.71875 11.078125 7.71875 18.703125 
Q 7.71875 33.203125 14.421875 47.4375 
Q 21.140625 61.671875 34.71875 75.875 
z
" id="DejaVuSans-Oblique-40"/>
      <path d="M 16.890625 72.90625 
L 26.8125 72.90625 
L 21 43.015625 
L 56.78125 43.015625 
L 62.59375 72.90625 
L 72.515625 72.90625 
L 58.296875 0 
L 48.390625 0 
L 55.171875 34.71875 
L 19.390625 34.71875 
L 12.59375 0 
L 2.6875 0 
z
" id="DejaVuSans-Oblique-72"/>
      <path d="M 11.625 54.6875 
L 54.296875 54.6875 
L 52.6875 46.484375 
L 11.53125 7.171875 
L 45.515625 7.171875 
L 44.09375 0 
L -0.296875 0 
L 1.3125 8.203125 
L 42.484375 47.515625 
L 10.203125 47.515625 
z
" id="DejaVuSans-Oblique-122"/>
      <path d="M -6.203125 -13.1875 
Q 6.78125 2.984375 13.125 17.5 
Q 19.484375 32.03125 19.484375 45.515625 
Q 19.484375 53.21875 17.65625 60.8125 
Q 15.828125 68.40625 12.109375 75.875 
L 19.921875 75.875 
Q 24.421875 67.4375 26.609375 59.5625 
Q 28.8125 51.703125 28.8125 44.09375 
Q 28.8125 29.546875 22.046875 15.203125 
Q 15.28125 0.875 1.8125 -13.1875 
z
" id="DejaVuSans-Oblique-41"/>
     </defs>
     <g transform="translate(116.282077 185.129572)scale(0.12 -0.12)">
      <use xlink:href="#DejaVuSans-Oblique-102"/>
      <use x="35.205078" xlink:href="#DejaVuSans-Oblique-32"/>
      <use x="66.992188" xlink:href="#DejaVuSans-Oblique-40"/>
      <use x="106.005859" xlink:href="#DejaVuSans-Oblique-72"/>
      <use x="181.201172" xlink:href="#DejaVuSans-Oblique-122"/>
      <use x="233.691406" xlink:href="#DejaVuSans-Oblique-41"/>
     </g>
    </g>
   </g>
   <g id="matplotlib.axis_2">
    <g id="ytick_1">
     <g id="line2d_41">
      <path clip-path="url(#pc593a97bd9)" d="M 49.316875 148.763625 
L 215.971654 148.763625 
" style="fill:none;stroke:#b0b0b0;stroke-linecap:square;stroke-width:0.8;"/>
     </g>
     <g id="line2d_42">
      <defs>
       <path d="M 0 0 
L -3.5 0 
" id="mbbf6613ade" style="stroke:#000000;stroke-width:0.8;"/>
      </defs>
      <g>
       <use style="stroke:#000000;stroke-width:0.8;" x="49.316875" xlink:href="#mbbf6613ade" y="148.763625"/>
      </g>
     </g>
     <g id="text_6">
      <!-- 0.0 -->
      <defs>
       <path d="M 10.6875 12.40625 
L 21 12.40625 
L 21 0 
L 10.6875 0 
z
" id="DejaVuSans-46"/>
      </defs>
      <g transform="translate(26.41375 152.562844)scale(0.1 -0.1)">
       <use xlink:href="#DejaVuSans-48"/>
       <use x="63.623047" xlink:href="#DejaVuSans-46"/>
       <use x="95.410156" xlink:href="#DejaVuSans-48"/>
      </g>
     </g>
    </g>
    <g id="ytick_2">
     <g id="line2d_43">
      <path clip-path="url(#pc593a97bd9)" d="M 49.316875 122.319449 
L 215.971654 122.319449 
" style="fill:none;stroke:#b0b0b0;stroke-linecap:square;stroke-width:0.8;"/>
     </g>
     <g id="line2d_44">
      <g>
       <use style="stroke:#000000;stroke-width:0.8;" x="49.316875" xlink:href="#mbbf6613ade" y="122.319449"/>
      </g>
     </g>
     <g id="text_7">
      <!-- 0.2 -->
      <g transform="translate(26.41375 126.118668)scale(0.1 -0.1)">
       <use xlink:href="#DejaVuSans-48"/>
       <use x="63.623047" xlink:href="#DejaVuSans-46"/>
       <use x="95.410156" xlink:href="#DejaVuSans-50"/>
      </g>
     </g>
    </g>
    <g id="ytick_3">
     <g id="line2d_45">
      <path clip-path="url(#pc593a97bd9)" d="M 49.316875 95.875273 
L 215.971654 95.875273 
" style="fill:none;stroke:#b0b0b0;stroke-linecap:square;stroke-width:0.8;"/>
     </g>
     <g id="line2d_46">
      <g>
       <use style="stroke:#000000;stroke-width:0.8;" x="49.316875" xlink:href="#mbbf6613ade" y="95.875273"/>
      </g>
     </g>
     <g id="text_8">
      <!-- 0.4 -->
      <defs>
       <path d="M 37.796875 64.3125 
L 12.890625 25.390625 
L 37.796875 25.390625 
z
M 35.203125 72.90625 
L 47.609375 72.90625 
L 47.609375 25.390625 
L 58.015625 25.390625 
L 58.015625 17.1875 
L 47.609375 17.1875 
L 47.609375 0 
L 37.796875 0 
L 37.796875 17.1875 
L 4.890625 17.1875 
L 4.890625 26.703125 
z
" id="DejaVuSans-52"/>
      </defs>
      <g transform="translate(26.41375 99.674492)scale(0.1 -0.1)">
       <use xlink:href="#DejaVuSans-48"/>
       <use x="63.623047" xlink:href="#DejaVuSans-46"/>
       <use x="95.410156" xlink:href="#DejaVuSans-52"/>
      </g>
     </g>
    </g>
    <g id="ytick_4">
     <g id="line2d_47">
      <path clip-path="url(#pc593a97bd9)" d="M 49.316875 69.431097 
L 215.971654 69.431097 
" style="fill:none;stroke:#b0b0b0;stroke-linecap:square;stroke-width:0.8;"/>
     </g>
     <g id="line2d_48">
      <g>
       <use style="stroke:#000000;stroke-width:0.8;" x="49.316875" xlink:href="#mbbf6613ade" y="69.431097"/>
      </g>
     </g>
     <g id="text_9">
      <!-- 0.6 -->
      <defs>
       <path d="M 33.015625 40.375 
Q 26.375 40.375 22.484375 35.828125 
Q 18.609375 31.296875 18.609375 23.390625 
Q 18.609375 15.53125 22.484375 10.953125 
Q 26.375 6.390625 33.015625 6.390625 
Q 39.65625 6.390625 43.53125 10.953125 
Q 47.40625 15.53125 47.40625 23.390625 
Q 47.40625 31.296875 43.53125 35.828125 
Q 39.65625 40.375 33.015625 40.375 
z
M 52.59375 71.296875 
L 52.59375 62.3125 
Q 48.875 64.0625 45.09375 64.984375 
Q 41.3125 65.921875 37.59375 65.921875 
Q 27.828125 65.921875 22.671875 59.328125 
Q 17.53125 52.734375 16.796875 39.40625 
Q 19.671875 43.65625 24.015625 45.921875 
Q 28.375 48.1875 33.59375 48.1875 
Q 44.578125 48.1875 50.953125 41.515625 
Q 57.328125 34.859375 57.328125 23.390625 
Q 57.328125 12.15625 50.6875 5.359375 
Q 44.046875 -1.421875 33.015625 -1.421875 
Q 20.359375 -1.421875 13.671875 8.265625 
Q 6.984375 17.96875 6.984375 36.375 
Q 6.984375 53.65625 15.1875 63.9375 
Q 23.390625 74.21875 37.203125 74.21875 
Q 40.921875 74.21875 44.703125 73.484375 
Q 48.484375 72.75 52.59375 71.296875 
z
" id="DejaVuSans-54"/>
      </defs>
      <g transform="translate(26.41375 73.230316)scale(0.1 -0.1)">
       <use xlink:href="#DejaVuSans-48"/>
       <use x="63.623047" xlink:href="#DejaVuSans-46"/>
       <use x="95.410156" xlink:href="#DejaVuSans-54"/>
      </g>
     </g>
    </g>
    <g id="ytick_5">
     <g id="line2d_49">
      <path clip-path="url(#pc593a97bd9)" d="M 49.316875 42.986921 
L 215.971654 42.986921 
" style="fill:none;stroke:#b0b0b0;stroke-linecap:square;stroke-width:0.8;"/>
     </g>
     <g id="line2d_50">
      <g>
       <use style="stroke:#000000;stroke-width:0.8;" x="49.316875" xlink:href="#mbbf6613ade" y="42.986921"/>
      </g>
     </g>
     <g id="text_10">
      <!-- 0.8 -->
      <defs>
       <path d="M 31.78125 34.625 
Q 24.75 34.625 20.71875 30.859375 
Q 16.703125 27.09375 16.703125 20.515625 
Q 16.703125 13.921875 20.71875 10.15625 
Q 24.75 6.390625 31.78125 6.390625 
Q 38.8125 6.390625 42.859375 10.171875 
Q 46.921875 13.96875 46.921875 20.515625 
Q 46.921875 27.09375 42.890625 30.859375 
Q 38.875 34.625 31.78125 34.625 
z
M 21.921875 38.8125 
Q 15.578125 40.375 12.03125 44.71875 
Q 8.5 49.078125 8.5 55.328125 
Q 8.5 64.0625 14.71875 69.140625 
Q 20.953125 74.21875 31.78125 74.21875 
Q 42.671875 74.21875 48.875 69.140625 
Q 55.078125 64.0625 55.078125 55.328125 
Q 55.078125 49.078125 51.53125 44.71875 
Q 48 40.375 41.703125 38.8125 
Q 48.828125 37.15625 52.796875 32.3125 
Q 56.78125 27.484375 56.78125 20.515625 
Q 56.78125 9.90625 50.3125 4.234375 
Q 43.84375 -1.421875 31.78125 -1.421875 
Q 19.734375 -1.421875 13.25 4.234375 
Q 6.78125 9.90625 6.78125 20.515625 
Q 6.78125 27.484375 10.78125 32.3125 
Q 14.796875 37.15625 21.921875 38.8125 
z
M 18.3125 54.390625 
Q 18.3125 48.734375 21.84375 45.5625 
Q 25.390625 42.390625 31.78125 42.390625 
Q 38.140625 42.390625 41.71875 45.5625 
Q 45.3125 48.734375 45.3125 54.390625 
Q 45.3125 60.0625 41.71875 63.234375 
Q 38.140625 66.40625 31.78125 66.40625 
Q 25.390625 66.40625 21.84375 63.234375 
Q 18.3125 60.0625 18.3125 54.390625 
z
" id="DejaVuSans-56"/>
      </defs>
      <g transform="translate(26.41375 46.78614)scale(0.1 -0.1)">
       <use xlink:href="#DejaVuSans-48"/>
       <use x="63.623047" xlink:href="#DejaVuSans-46"/>
       <use x="95.410156" xlink:href="#DejaVuSans-56"/>
      </g>
     </g>
    </g>
    <g id="ytick_6">
     <g id="line2d_51">
      <path clip-path="url(#pc593a97bd9)" d="M 49.316875 16.542745 
L 215.971654 16.542745 
" style="fill:none;stroke:#b0b0b0;stroke-linecap:square;stroke-width:0.8;"/>
     </g>
     <g id="line2d_52">
      <g>
       <use style="stroke:#000000;stroke-width:0.8;" x="49.316875" xlink:href="#mbbf6613ade" y="16.542745"/>
      </g>
     </g>
     <g id="text_11">
      <!-- 1.0 -->
      <g transform="translate(26.41375 20.341964)scale(0.1 -0.1)">
       <use xlink:href="#DejaVuSans-49"/>
       <use x="63.623047" xlink:href="#DejaVuSans-46"/>
       <use x="95.410156" xlink:href="#DejaVuSans-48"/>
      </g>
     </g>
    </g>
    <g id="text_12">
     <!-- coherence function -->
     <defs>
      <path d="M 48.78125 52.59375 
L 48.78125 44.1875 
Q 44.96875 46.296875 41.140625 47.34375 
Q 37.3125 48.390625 33.40625 48.390625 
Q 24.65625 48.390625 19.8125 42.84375 
Q 14.984375 37.3125 14.984375 27.296875 
Q 14.984375 17.28125 19.8125 11.734375 
Q 24.65625 6.203125 33.40625 6.203125 
Q 37.3125 6.203125 41.140625 7.25 
Q 44.96875 8.296875 48.78125 10.40625 
L 48.78125 2.09375 
Q 45.015625 0.34375 40.984375 -0.53125 
Q 36.96875 -1.421875 32.421875 -1.421875 
Q 20.0625 -1.421875 12.78125 6.34375 
Q 5.515625 14.109375 5.515625 27.296875 
Q 5.515625 40.671875 12.859375 48.328125 
Q 20.21875 56 33.015625 56 
Q 37.15625 56 41.109375 55.140625 
Q 45.0625 54.296875 48.78125 52.59375 
z
" id="DejaVuSans-99"/>
      <path d="M 30.609375 48.390625 
Q 23.390625 48.390625 19.1875 42.75 
Q 14.984375 37.109375 14.984375 27.296875 
Q 14.984375 17.484375 19.15625 11.84375 
Q 23.34375 6.203125 30.609375 6.203125 
Q 37.796875 6.203125 41.984375 11.859375 
Q 46.1875 17.53125 46.1875 27.296875 
Q 46.1875 37.015625 41.984375 42.703125 
Q 37.796875 48.390625 30.609375 48.390625 
z
M 30.609375 56 
Q 42.328125 56 49.015625 48.375 
Q 55.71875 40.765625 55.71875 27.296875 
Q 55.71875 13.875 49.015625 6.21875 
Q 42.328125 -1.421875 30.609375 -1.421875 
Q 18.84375 -1.421875 12.171875 6.21875 
Q 5.515625 13.875 5.515625 27.296875 
Q 5.515625 40.765625 12.171875 48.375 
Q 18.84375 56 30.609375 56 
z
" id="DejaVuSans-111"/>
      <path d="M 54.890625 33.015625 
L 54.890625 0 
L 45.90625 0 
L 45.90625 32.71875 
Q 45.90625 40.484375 42.875 44.328125 
Q 39.84375 48.1875 33.796875 48.1875 
Q 26.515625 48.1875 22.3125 43.546875 
Q 18.109375 38.921875 18.109375 30.90625 
L 18.109375 0 
L 9.078125 0 
L 9.078125 75.984375 
L 18.109375 75.984375 
L 18.109375 46.1875 
Q 21.34375 51.125 25.703125 53.5625 
Q 30.078125 56 35.796875 56 
Q 45.21875 56 50.046875 50.171875 
Q 54.890625 44.34375 54.890625 33.015625 
z
" id="DejaVuSans-104"/>
      <path d="M 56.203125 29.59375 
L 56.203125 25.203125 
L 14.890625 25.203125 
Q 15.484375 15.921875 20.484375 11.0625 
Q 25.484375 6.203125 34.421875 6.203125 
Q 39.59375 6.203125 44.453125 7.46875 
Q 49.3125 8.734375 54.109375 11.28125 
L 54.109375 2.78125 
Q 49.265625 0.734375 44.1875 -0.34375 
Q 39.109375 -1.421875 33.890625 -1.421875 
Q 20.796875 -1.421875 13.15625 6.1875 
Q 5.515625 13.8125 5.515625 26.8125 
Q 5.515625 40.234375 12.765625 48.109375 
Q 20.015625 56 32.328125 56 
Q 43.359375 56 49.78125 48.890625 
Q 56.203125 41.796875 56.203125 29.59375 
z
M 47.21875 32.234375 
Q 47.125 39.59375 43.09375 43.984375 
Q 39.0625 48.390625 32.421875 48.390625 
Q 24.90625 48.390625 20.390625 44.140625 
Q 15.875 39.890625 15.1875 32.171875 
z
" id="DejaVuSans-101"/>
      <path d="M 41.109375 46.296875 
Q 39.59375 47.171875 37.8125 47.578125 
Q 36.03125 48 33.890625 48 
Q 26.265625 48 22.1875 43.046875 
Q 18.109375 38.09375 18.109375 28.8125 
L 18.109375 0 
L 9.078125 0 
L 9.078125 54.6875 
L 18.109375 54.6875 
L 18.109375 46.1875 
Q 20.953125 51.171875 25.484375 53.578125 
Q 30.03125 56 36.53125 56 
Q 37.453125 56 38.578125 55.875 
Q 39.703125 55.765625 41.0625 55.515625 
z
" id="DejaVuSans-114"/>
      <path d="M 54.890625 33.015625 
L 54.890625 0 
L 45.90625 0 
L 45.90625 32.71875 
Q 45.90625 40.484375 42.875 44.328125 
Q 39.84375 48.1875 33.796875 48.1875 
Q 26.515625 48.1875 22.3125 43.546875 
Q 18.109375 38.921875 18.109375 30.90625 
L 18.109375 0 
L 9.078125 0 
L 9.078125 54.6875 
L 18.109375 54.6875 
L 18.109375 46.1875 
Q 21.34375 51.125 25.703125 53.5625 
Q 30.078125 56 35.796875 56 
Q 45.21875 56 50.046875 50.171875 
Q 54.890625 44.34375 54.890625 33.015625 
z
" id="DejaVuSans-110"/>
      <path id="DejaVuSans-32"/>
      <path d="M 37.109375 75.984375 
L 37.109375 68.5 
L 28.515625 68.5 
Q 23.6875 68.5 21.796875 66.546875 
Q 19.921875 64.59375 19.921875 59.515625 
L 19.921875 54.6875 
L 34.71875 54.6875 
L 34.71875 47.703125 
L 19.921875 47.703125 
L 19.921875 0 
L 10.890625 0 
L 10.890625 47.703125 
L 2.296875 47.703125 
L 2.296875 54.6875 
L 10.890625 54.6875 
L 10.890625 58.5 
Q 10.890625 67.625 15.140625 71.796875 
Q 19.390625 75.984375 28.609375 75.984375 
z
" id="DejaVuSans-102"/>
      <path d="M 8.5 21.578125 
L 8.5 54.6875 
L 17.484375 54.6875 
L 17.484375 21.921875 
Q 17.484375 14.15625 20.5 10.265625 
Q 23.53125 6.390625 29.59375 6.390625 
Q 36.859375 6.390625 41.078125 11.03125 
Q 45.3125 15.671875 45.3125 23.6875 
L 45.3125 54.6875 
L 54.296875 54.6875 
L 54.296875 0 
L 45.3125 0 
L 45.3125 8.40625 
Q 42.046875 3.421875 37.71875 1 
Q 33.40625 -1.421875 27.6875 -1.421875 
Q 18.265625 -1.421875 13.375 4.4375 
Q 8.5 10.296875 8.5 21.578125 
z
M 31.109375 56 
z
" id="DejaVuSans-117"/>
      <path d="M 18.3125 70.21875 
L 18.3125 54.6875 
L 36.8125 54.6875 
L 36.8125 47.703125 
L 18.3125 47.703125 
L 18.3125 18.015625 
Q 18.3125 11.328125 20.140625 9.421875 
Q 21.96875 7.515625 27.59375 7.515625 
L 36.8125 7.515625 
L 36.8125 0 
L 27.59375 0 
Q 17.1875 0 13.234375 3.875 
Q 9.28125 7.765625 9.28125 18.015625 
L 9.28125 47.703125 
L 2.6875 47.703125 
L 2.6875 54.6875 
L 9.28125 54.6875 
L 9.28125 70.21875 
z
" id="DejaVuSans-116"/>
      <path d="M 9.421875 54.6875 
L 18.40625 54.6875 
L 18.40625 0 
L 9.421875 0 
z
M 9.421875 75.984375 
L 18.40625 75.984375 
L 18.40625 64.59375 
L 9.421875 64.59375 
z
" id="DejaVuSans-105"/>
     </defs>
     <g transform="translate(19.918125 140.897286)rotate(-90)scale(0.12 -0.12)">
      <use xlink:href="#DejaVuSans-99"/>
      <use x="54.980469" xlink:href="#DejaVuSans-111"/>
      <use x="116.162109" xlink:href="#DejaVuSans-104"/>
      <use x="179.541016" xlink:href="#DejaVuSans-101"/>
      <use x="241.064453" xlink:href="#DejaVuSans-114"/>
      <use x="282.146484" xlink:href="#DejaVuSans-101"/>
      <use x="343.669922" xlink:href="#DejaVuSans-110"/>
      <use x="407.048828" xlink:href="#DejaVuSans-99"/>
      <use x="462.029297" xlink:href="#DejaVuSans-101"/>
      <use x="523.552734" xlink:href="#DejaVuSans-32"/>
      <use x="555.339844" xlink:href="#DejaVuSans-102"/>
      <use x="590.544922" xlink:href="#DejaVuSans-117"/>
      <use x="653.923828" xlink:href="#DejaVuSans-110"/>
      <use x="717.302734" xlink:href="#DejaVuSans-99"/>
      <use x="772.283203" xlink:href="#DejaVuSans-116"/>
      <use x="811.492188" xlink:href="#DejaVuSans-105"/>
      <use x="839.275391" xlink:href="#DejaVuSans-111"/>
      <use x="900.457031" xlink:href="#DejaVuSans-110"/>
     </g>
    </g>
   </g>
   <g id="line2d_53">
    <path clip-path="url(#pc593a97bd9)" d="M -1 22.593026 
L 82.142816 22.566204 
L 94.768178 24.644603 
L 102.153542 35.033731 
L 107.39354 41.574534 
L 111.457999 30.781058 
L 114.778904 41.181624 
L 117.586688 48.978162 
L 120.018902 45.933665 
L 122.164267 53.918491 
L 124.083361 48.845402 
L 125.819393 57.015629 
L 127.404266 62.338614 
L 128.862207 61.802228 
L 130.21205 70.2505 
L 131.468724 74.416157 
L 132.644264 84.314481 
L 133.748514 81.932515 
L 134.789629 102.210087 
L 135.774439 124.673258 
L 136.708723 114.744955 
L 138.444755 75.769822 
L 139.254424 82.848722 
L 140.029628 98.112023 
L 140.773182 84.634518 
L 141.487569 122.728586 
L 142.174992 115.789158 
L 142.837412 130.74785 
L 143.476585 118.614074 
L 144.094086 117.821801 
L 144.691338 121.12068 
L 145.269626 87.614383 
L 145.830118 92.943266 
L 146.373876 117.884852 
L 146.901871 110.918593 
L 147.414991 110.724931 
L 147.914051 112.117413 
L 148.399801 103.757415 
L 148.872933 91.788374 
L 149.334085 137.202921 
L 149.78385 78.231639 
L 150.222776 99.354973 
L 150.651373 125.462883 
L 151.070117 115.780944 
L 151.47945 87.604962 
L 151.879786 119.178768 
L 152.271511 139.022523 
L 152.65499 110.655594 
L 153.030561 142.953202 
L 153.398544 123.032566 
L 153.75924 88.286481 
L 154.112931 131.504884 
L 154.459886 136.250885 
L 154.800354 119.889774 
L 155.134576 124.838362 
L 155.462774 143.033477 
L 155.785164 146.065287 
L 156.101947 131.254368 
L 156.413314 97.923186 
L 156.719448 102.173373 
L 157.020522 145.700658 
L 157.3167 135.621437 
L 157.608139 137.044204 
L 157.894988 136.299709 
L 158.17739 148.687182 
L 158.45548 143.340545 
L 158.729388 147.270995 
L 158.999238 144.333474 
L 159.265149 127.091217 
L 159.527233 133.901901 
L 159.7856 146.764659 
L 160.291592 137.117878 
L 160.539413 143.025509 
L 160.783907 141.853903 
L 161.025163 148.362548 
L 161.73033 130.226323 
L 161.959447 139.631385 
L 162.185718 142.114025 
L 162.409212 136.064462 
L 162.848138 140.765983 
L 163.063697 144.65548 
L 163.276735 140.932236 
L 163.48731 146.903788 
L 163.695479 145.466126 
L 163.901295 123.354694 
L 164.104812 138.272362 
L 164.306079 135.352712 
L 164.505148 143.854186 
L 164.702063 129.352978 
L 164.896873 141.822495 
L 165.089622 143.487819 
L 165.280352 131.945196 
L 165.469105 147.314747 
L 165.655923 148.335964 
L 165.840843 146.137611 
L 166.023906 137.10411 
L 166.205147 120.990601 
L 166.384602 146.818491 
L 166.562306 121.844404 
L 166.738293 148.373646 
L 166.912597 146.358311 
L 167.085248 147.072343 
L 167.256277 128.319833 
L 167.425716 138.5045 
L 167.593593 138.317576 
L 167.759938 134.607009 
L 167.924776 139.520826 
L 168.088136 148.219363 
L 168.250045 147.276837 
L 168.410526 145.570889 
L 168.569606 142.300579 
L 168.727309 134.942874 
L 169.038676 147.794865 
L 169.192386 142.633864 
L 169.34481 125.234274 
L 169.495969 134.838531 
L 169.645884 128.373762 
L 169.794575 141.679996 
L 170.088365 113.305006 
L 170.233501 145.097601 
L 170.37749 138.570964 
L 170.52035 139.562021 
L 170.802752 145.221511 
L 170.942328 128.783133 
L 171.080842 146.763127 
L 171.35475 145.217435 
L 171.6246 147.425534 
L 171.758041 145.643443 
L 171.890511 148.577177 
L 172.022024 146.142854 
L 172.152595 125.167545 
L 172.410962 144.381406 
L 172.538784 146.475667 
L 172.665715 127.302578 
L 172.916954 143.231804 
L 173.041286 148.553705 
L 173.164775 143.975611 
L 173.287432 147.718422 
L 173.409269 137.515393 
L 173.650525 148.12293 
L 173.888627 122.328224 
L 174.006521 142.751189 
L 174.123657 133.389543 
L 174.355692 147.784063 
L 174.584809 135.317905 
L 174.698296 144.814636 
L 174.81108 143.181718 
L 174.923169 139.218299 
L 175.034574 141.412172 
L 175.145301 148.045657 
L 175.364756 122.170128 
L 175.581598 146.770217 
L 175.689059 139.100995 
L 175.902097 140.635999 
L 176.007689 144.852952 
L 176.320841 127.327062 
L 176.42404 105.239066 
L 176.526657 146.543121 
L 176.6287 142.879116 
L 176.730174 147.839719 
L 176.831086 144.557276 
L 176.931441 136.060237 
L 177.13051 146.380314 
L 177.229234 146.027929 
L 177.327425 135.405446 
L 177.425091 143.993955 
L 177.522235 136.055532 
L 177.618864 144.500913 
L 177.714984 138.077511 
L 177.810598 147.302898 
L 177.905714 137.204454 
L 178.094467 147.909963 
L 178.188115 143.913714 
L 178.281285 147.342289 
L 178.557967 133.491508 
L 178.649268 120.135525 
L 178.830509 146.573865 
L 178.920457 144.555243 
L 179.009964 148.353572 
L 179.099033 147.58968 
L 179.187668 147.596304 
L 179.363655 137.875457 
L 179.451015 144.719184 
L 179.537959 135.509004 
L 179.624489 146.996555 
L 179.71061 144.105767 
L 179.796325 145.334782 
L 179.881639 139.59991 
L 179.966556 144.512636 
L 180.13521 135.785915 
L 180.302317 146.934413 
L 180.3853 136.555205 
L 180.467905 144.665679 
L 180.550138 134.576796 
L 180.632001 145.706849 
L 180.713498 145.572345 
L 180.794632 141.960895 
L 180.875407 142.352019 
L 180.955824 147.033911 
L 181.035888 132.678203 
L 181.115602 141.593338 
L 181.27399 130.397007 
L 181.431013 145.95885 
L 181.586694 129.079962 
L 181.664038 147.179391 
L 181.741056 142.954087 
L 181.89412 133.868638 
L 181.970172 135.205494 
L 182.045909 145.020209 
L 182.196443 135.033282 
L 182.271246 145.734143 
L 182.345743 140.852422 
L 182.419937 123.876457 
L 182.49383 145.036385 
L 182.567424 132.624943 
L 182.713727 144.336579 
L 182.786439 145.224792 
L 182.931 134.890056 
L 183.002852 135.462484 
L 183.074422 145.409427 
L 183.145712 136.296116 
L 183.216724 144.965852 
L 183.28746 139.700385 
L 183.357923 142.36707 
L 183.428114 141.648842 
L 183.498036 146.337075 
L 183.637079 132.24148 
L 183.706204 147.638845 
L 183.775068 130.708426 
L 183.843673 144.332005 
L 183.91202 144.313167 
L 183.980112 148.524105 
L 184.182874 124.916941 
L 184.316805 144.381749 
L 184.449758 128.587459 
L 184.515873 131.074368 
L 184.647386 144.282792 
L 184.712789 144.524857 
L 184.777957 144.240556 
L 184.907599 148.408413 
L 184.972075 146.873076 
L 185.036324 147.242242 
L 185.227722 134.623027 
L 185.291077 147.224842 
L 185.354212 139.60329 
L 185.41713 148.075281 
L 185.47983 135.747404 
L 185.542316 147.954161 
L 185.604588 136.39969 
L 185.728497 147.179586 
L 185.973815 133.331147 
L 186.034631 135.7305 
L 186.095245 146.944519 
L 186.155658 145.315144 
L 186.215872 146.973652 
L 186.335705 113.15974 
L 186.395327 123.223674 
L 186.454755 148.746044 
L 186.513989 123.166298 
L 186.573031 142.998484 
L 186.631883 143.256899 
L 186.690545 133.877681 
L 186.807305 148.626537 
L 186.865406 140.900073 
L 186.923322 142.5001 
L 186.981054 140.647744 
L 187.095973 145.259426 
L 187.153161 137.298667 
L 187.210171 142.631147 
L 187.267003 143.063758 
L 187.323658 115.249707 
L 187.380137 147.460246 
L 187.436442 138.336329 
L 187.492573 141.316399 
L 187.548532 134.271603 
L 187.604319 134.700406 
L 187.770663 148.644148 
L 187.880721 145.950071 
L 187.935502 140.926911 
L 187.990118 148.250635 
L 188.044571 145.472378 
L 188.098862 133.982004 
L 188.152991 140.775258 
L 188.26077 132.28983 
L 188.367915 145.686794 
L 188.421252 141.093924 
L 188.474433 134.529345 
L 188.580332 146.555391 
L 188.685618 127.092581 
L 188.738034 115.576411 
L 188.7903 148.686368 
L 188.842416 137.577427 
L 188.894383 129.491348 
L 188.946203 138.526949 
L 188.997875 145.506783 
L 189.049402 123.218696 
L 189.100783 143.674795 
L 189.152019 147.018294 
L 189.254062 136.420007 
L 189.355536 144.81665 
L 189.456448 122.256474 
L 189.556803 142.83424 
L 189.606775 141.417446 
L 189.706308 134.840487 
L 189.755872 143.871391 
L 189.8053 137.528785 
L 189.854596 135.03721 
L 189.903758 146.685814 
L 189.952787 135.9573 
L 190.001686 128.438827 
L 190.050453 143.828785 
L 190.09909 124.968357 
L 190.147597 125.97964 
L 190.292349 135.260676 
L 190.388216 118.039275 
L 190.578448 148.187809 
L 190.625697 142.00483 
L 190.672824 142.890079 
L 190.766713 147.74549 
L 190.860122 134.572071 
L 190.999342 147.458981 
L 191.229036 137.21745 
L 191.27463 127.986947 
L 191.320109 135.857969 
L 191.365476 142.576896 
L 191.410729 129.548993 
L 191.455871 143.778189 
L 191.5009 147.792532 
L 191.590627 101.610429 
L 191.635326 132.534196 
L 191.724395 141.237639 
L 191.768766 133.264553 
L 191.81303 140.363029 
L 191.901236 147.960081 
L 191.989017 138.708571 
L 192.03275 139.732788 
L 192.119901 147.721495 
L 192.163321 145.276472 
L 192.292962 139.757238 
L 192.37888 146.160944 
L 192.421687 136.855457 
L 192.464394 143.238004 
L 192.591918 147.128392 
L 192.634228 145.355744 
L 192.67644 128.970917 
L 192.718555 147.119547 
L 192.760572 145.913271 
L 192.802493 140.45957 
L 192.844318 143.889696 
L 192.886046 147.077398 
L 192.969218 112.295298 
L 193.010662 130.822202 
L 193.13443 147.400059 
L 193.1755 141.871958 
L 193.216478 140.599961 
L 193.298158 147.885118 
L 193.33886 137.980297 
L 193.419994 142.664957 
L 193.460426 145.138648 
L 193.500769 131.891809 
L 193.541022 133.134745 
L 193.581186 147.091706 
L 193.621262 139.567055 
L 193.66125 132.853412 
L 193.701151 147.107841 
L 193.740964 146.618335 
L 193.78069 127.169697 
L 193.82033 138.806687 
L 193.859884 144.460789 
L 193.899352 144.398778 
L 193.938735 133.694582 
L 193.978033 140.232322 
L 194.017246 147.89163 
L 194.056375 138.767178 
L 194.09542 129.616951 
L 194.134382 140.148665 
L 194.17326 148.558921 
L 194.212056 144.31391 
L 194.32795 126.247447 
L 194.366418 145.510759 
L 194.443111 129.251704 
L 194.481336 113.188377 
L 194.519482 138.612474 
L 194.633442 148.75926 
L 194.671271 122.673631 
L 194.746693 130.47481 
L 194.784288 131.833179 
L 194.859245 147.972371 
L 194.933895 142.121092 
L 195.00824 138.680632 
L 195.045299 148.685809 
L 195.082283 143.120022 
L 195.119192 135.460975 
L 195.156026 146.491157 
L 195.192786 146.66291 
L 195.302623 136.65593 
L 195.339089 137.861653 
L 195.375481 100.20935 
L 195.448049 114.153733 
L 195.520329 148.606438 
L 195.556362 146.637221 
L 195.592324 141.322817 
L 195.628214 148.615033 
L 195.664035 146.005188 
L 195.699784 148.634669 
L 195.735464 146.841208 
L 195.806615 147.779605 
L 195.877489 128.881778 
L 195.912822 128.104532 
L 195.983285 147.919931 
L 196.08847 145.883653 
L 196.123398 147.917405 
L 196.193052 146.119024 
L 196.297036 128.909877 
L 196.331566 148.717011 
L 196.40043 137.504361 
L 196.434765 124.312366 
L 196.469035 132.696794 
L 196.503241 146.734412 
L 196.537382 141.499717 
L 196.57146 128.393906 
L 196.605474 145.864733 
L 196.639425 145.210926 
L 196.774598 129.490012 
L 196.808236 142.350529 
L 196.841811 138.109281 
L 196.975496 115.984982 
L 197.041973 113.287238 
L 197.108208 148.641419 
L 197.141235 129.630998 
L 197.174202 112.193908 
L 197.20711 139.607011 
L 197.305479 147.117135 
L 197.338151 145.355733 
L 197.468255 136.300269 
L 197.597437 148.110663 
L 197.62959 148.31336 
L 197.661686 146.583823 
L 197.725709 121.288134 
L 197.757636 137.648923 
L 197.916439 147.727705 
L 197.948034 148.089481 
L 198.105192 133.233788 
L 198.136462 141.12497 
L 198.198841 145.822686 
L 198.29201 115.852816 
L 198.322961 141.780209 
L 198.353859 137.383492 
L 198.384705 148.360237 
L 198.415499 146.605198 
L 198.446241 114.899672 
L 198.507569 132.820068 
L 198.599177 148.378144 
L 198.720607 115.332751 
L 198.841234 148.6476 
L 198.931182 140.18296 
L 198.961067 145.140838 
L 198.990902 146.490747 
L 199.020689 145.888187 
L 199.080117 140.802928 
L 199.109758 145.312208 
L 199.139351 148.75704 
L 199.168896 139.633495 
L 199.227843 144.445531 
L 199.257245 132.178659 
L 199.403547 146.441852 
L 199.432667 131.487544 
L 199.490768 136.745239 
L 199.548684 127.145043 
L 199.577573 147.530163 
L 199.663966 126.122228 
L 199.721335 148.078957 
L 199.778523 135.933785 
L 199.807051 139.468755 
L 199.892365 145.769619 
L 199.94902 121.33742 
L 200.033673 145.95878 
L 200.061804 137.417162 
L 200.145936 147.876624 
L 200.201809 146.753089 
L 200.313043 124.82594 
L 200.257511 148.184258 
L 200.340745 136.046396 
L 200.423602 146.909225 
L 200.451137 131.24129 
L 200.533494 144.640628 
L 200.560864 144.032084 
L 200.588192 123.546499 
L 200.61548 148.616348 
L 200.642727 148.283519 
L 200.697099 136.889391 
L 200.778353 140.122564 
L 200.832322 148.004396 
L 200.859247 138.772296 
L 200.886132 136.659582 
L 200.912977 118.838042 
L 200.993277 138.649715 
L 201.046614 139.972684 
L 201.073224 147.897474 
L 201.126327 135.292071 
L 201.152821 145.695828 
L 201.31098 127.409918 
L 201.337207 142.228698 
L 201.389548 121.969844 
L 201.415662 126.371297 
L 201.519745 147.853791 
L 201.571565 146.931314 
L 201.597419 146.79987 
L 201.674764 133.491588 
L 201.700472 147.866571 
L 201.751781 118.177624 
L 201.802945 144.406043 
L 201.828474 148.047451 
L 201.879424 103.73472 
L 201.955582 137.53003 
L 201.980898 138.035025 
L 202.031424 147.071001 
L 202.056634 134.56947 
L 202.10695 144.228458 
L 202.132057 140.636342 
L 202.157128 110.628161 
L 202.232137 135.583482 
L 202.306838 148.729909 
L 202.381234 147.865678 
L 202.553651 134.471002 
L 202.578149 136.201371 
L 202.602615 133.10528 
L 202.627048 148.278858 
L 202.70015 147.001085 
L 202.748722 130.300605 
L 202.797165 143.63103 
L 202.821338 145.79226 
L 202.845479 145.042058 
L 202.917711 115.050294 
L 202.941725 143.757361 
L 202.989658 148.739743 
L 203.037466 147.643251 
L 203.085148 112.778863 
L 203.132705 134.416306 
L 203.22745 147.011183 
L 203.251059 145.556368 
L 203.321704 129.485342 
L 203.298186 147.849802 
L 203.368648 131.63475 
L 203.438839 125.480962 
L 203.508761 147.846506 
L 203.578415 141.34573 
L 203.555227 148.053281 
L 203.601574 142.996437 
L 203.693917 148.510449 
L 203.647804 128.256281 
L 203.716929 147.973431 
L 203.808691 122.724903 
L 203.854398 137.335255 
L 203.877209 142.515003 
L 203.899992 122.143045 
L 203.968169 133.362721 
L 203.990838 140.951602 
L 204.036091 140.524445 
L 204.058676 121.275015 
L 204.148736 133.70663 
L 204.171181 147.426522 
L 204.215989 133.544248 
L 204.238352 145.701231 
L 204.260688 118.448549 
L 204.305277 148.665714 
L 204.32753 145.837762 
L 204.371956 144.197462 
L 204.394128 146.228066 
L 204.416274 148.495514 
L 204.438392 147.624629 
L 204.482549 148.526862 
L 204.570542 128.432731 
L 204.592474 146.669914 
L 204.636259 118.999495 
L 204.658112 105.090575 
L 204.679939 129.699742 
L 204.701739 148.178272 
L 204.788683 127.870685 
L 204.810354 147.561358 
L 204.853619 126.040904 
L 204.918324 148.37597 
L 204.9828 141.876104 
L 205.068415 144.673389 
L 205.089756 148.180211 
L 205.111072 144.268884 
L 205.15363 144.768552 
L 205.21728 120.31446 
L 205.25959 136.974572 
L 205.301802 147.628941 
L 205.343917 145.792703 
L 205.364938 133.955897 
L 205.385934 147.505289 
L 205.448779 145.065629 
L 205.46968 148.605943 
L 205.532237 141.296564 
L 205.553041 144.027402 
L 205.65671 147.885843 
L 205.636024 142.595926 
L 205.677373 147.704018 
L 205.698013 116.992571 
L 205.739222 148.18942 
L 205.780339 146.244808 
L 205.800862 145.010812 
L 205.84184 121.776059 
L 205.862294 147.714866 
L 205.903134 143.396861 
L 205.98454 147.767642 
L 206.004835 142.20835 
L 206.045356 127.327897 
L 206.105971 138.937377 
L 206.186477 147.689921 
L 206.226597 146.085869 
L 206.266629 131.240555 
L 206.306573 146.581477 
L 206.326513 140.568036 
L 206.3862 148.000364 
L 206.366326 136.175156 
L 206.425883 141.757429 
L 206.504991 148.285515 
L 206.544416 127.468666 
L 206.662183 148.073774 
L 206.70127 146.650615 
L 206.798622 132.178894 
L 206.818031 142.17266 
L 206.837418 145.952848 
L 206.856785 142.091938 
L 206.876131 125.43876 
L 206.914762 144.320304 
L 206.953312 142.686232 
L 206.972556 145.810174 
L 207.030166 139.879696 
L 207.04933 109.873864 
L 207.125781 148.271171 
L 207.163887 147.918937 
L 207.23986 148.653024 
L 207.315518 131.330153 
L 207.390862 148.493945 
L 207.447167 148.337215 
L 207.484607 148.423397 
L 207.577872 127.18085 
L 207.670661 147.758122 
L 207.689162 126.00381 
L 207.707645 148.719426 
L 207.781388 143.478009 
L 207.799777 143.254933 
L 207.818148 143.913677 
L 207.8365 145.46017 
L 207.854834 118.5411 
L 207.909725 145.619614 
L 207.946227 145.419643 
L 207.964451 146.390781 
L 208.000843 145.566659 
L 208.055296 139.747843 
L 208.091508 148.049194 
L 208.109587 144.298654 
L 208.127648 144.764399 
L 208.145691 129.730694 
L 208.217686 148.617136 
L 208.23564 146.827346 
L 208.325146 118.42727 
L 208.360826 132.404678 
L 208.396436 144.644025 
L 208.396436 144.644025 
" style="fill:none;stroke:#000000;stroke-linecap:square;"/>
   </g>
   <g id="line2d_54">
    <path clip-path="url(#pc593a97bd9)" d="M 56.892092 17.369696 
L 64.277456 17.78123 
L 73.581913 18.600436 
L 79.710602 19.414517 
L 84.288181 20.223507 
L 89.52818 21.427515 
L 93.592638 22.620246 
L 96.913543 23.801804 
L 100.568669 25.360017 
L 103.611483 26.8988 
L 106.815252 28.795324 
L 109.538905 30.662334 
L 112.34669 32.864431 
L 115.154475 35.381704 
L 117.909078 38.19171 
L 120.579394 41.269808 
L 123.149077 44.589524 
L 125.611224 48.12292 
L 128.14782 52.14456 
L 130.851223 56.874339 
L 133.614089 62.191155 
L 136.479606 68.217389 
L 139.549005 75.221452 
L 142.918546 83.485703 
L 147.224261 94.685205 
L 155.983798 117.628795 
L 158.898512 124.539018 
L 161.322307 129.737336 
L 163.461121 133.820156 
L 165.4221 137.100256 
L 167.256277 139.74564 
L 169.000045 141.877966 
L 170.67974 143.587919 
L 172.330615 144.957727 
L 173.991826 146.05143 
L 175.702447 146.913881 
L 177.534342 147.586209 
L 179.55963 148.087869 
L 181.932186 148.439289 
L 185.004228 148.656118 
L 189.934417 148.75185 
L 208.396436 148.763625 
L 208.396436 148.763625 
" style="fill:none;stroke:#ff0000;stroke-linecap:square;stroke-width:2;"/>
   </g>
   <g id="patch_3">
    <path d="M 49.316875 155.333322 
L 49.316875 10.8 
" style="fill:none;stroke:#000000;stroke-linecap:square;stroke-linejoin:miter;stroke-width:0.8;"/>
   </g>
   <g id="patch_4">
    <path d="M 215.971654 155.333322 
L 215.971654 10.8 
" style="fill:none;stroke:#000000;stroke-linecap:square;stroke-linejoin:miter;stroke-width:0.8;"/>
   </g>
   <g id="patch_5">
    <path d="M 49.316875 155.333322 
L 215.971654 155.333322 
" style="fill:none;stroke:#000000;stroke-linecap:square;stroke-linejoin:miter;stroke-width:0.8;"/>
   </g>
   <g id="patch_6">
    <path d="M 49.316875 10.8 
L 215.971654 10.8 
" style="fill:none;stroke:#000000;stroke-linecap:square;stroke-linejoin:miter;stroke-width:0.8;"/>
   </g>
   <g id="legend_1">
    <g id="patch_7">
     <path d="M 127.577904 48.15625 
L 208.971654 48.15625 
Q 210.971654 48.15625 210.971654 46.15625 
L 210.971654 17.8 
Q 210.971654 15.8 208.971654 15.8 
L 127.577904 15.8 
Q 125.577904 15.8 125.577904 17.8 
L 125.577904 46.15625 
Q 125.577904 48.15625 127.577904 48.15625 
z
" style="fill:#ffffff;opacity:0.8;stroke:#cccccc;stroke-linejoin:miter;"/>
    </g>
    <g id="line2d_55">
     <path d="M 129.577904 23.898438 
L 149.577904 23.898438 
" style="fill:none;stroke:#000000;stroke-linecap:square;"/>
    </g>
    <g id="line2d_56"/>
    <g id="text_13">
     <!-- simulated -->
     <defs>
      <path d="M 44.28125 53.078125 
L 44.28125 44.578125 
Q 40.484375 46.53125 36.375 47.5 
Q 32.28125 48.484375 27.875 48.484375 
Q 21.1875 48.484375 17.84375 46.4375 
Q 14.5 44.390625 14.5 40.28125 
Q 14.5 37.15625 16.890625 35.375 
Q 19.28125 33.59375 26.515625 31.984375 
L 29.59375 31.296875 
Q 39.15625 29.25 43.1875 25.515625 
Q 47.21875 21.78125 47.21875 15.09375 
Q 47.21875 7.46875 41.1875 3.015625 
Q 35.15625 -1.421875 24.609375 -1.421875 
Q 20.21875 -1.421875 15.453125 -0.5625 
Q 10.6875 0.296875 5.421875 2 
L 5.421875 11.28125 
Q 10.40625 8.6875 15.234375 7.390625 
Q 20.0625 6.109375 24.8125 6.109375 
Q 31.15625 6.109375 34.5625 8.28125 
Q 37.984375 10.453125 37.984375 14.40625 
Q 37.984375 18.0625 35.515625 20.015625 
Q 33.0625 21.96875 24.703125 23.78125 
L 21.578125 24.515625 
Q 13.234375 26.265625 9.515625 29.90625 
Q 5.8125 33.546875 5.8125 39.890625 
Q 5.8125 47.609375 11.28125 51.796875 
Q 16.75 56 26.8125 56 
Q 31.78125 56 36.171875 55.265625 
Q 40.578125 54.546875 44.28125 53.078125 
z
" id="DejaVuSans-115"/>
      <path d="M 52 44.1875 
Q 55.375 50.25 60.0625 53.125 
Q 64.75 56 71.09375 56 
Q 79.640625 56 84.28125 50.015625 
Q 88.921875 44.046875 88.921875 33.015625 
L 88.921875 0 
L 79.890625 0 
L 79.890625 32.71875 
Q 79.890625 40.578125 77.09375 44.375 
Q 74.3125 48.1875 68.609375 48.1875 
Q 61.625 48.1875 57.5625 43.546875 
Q 53.515625 38.921875 53.515625 30.90625 
L 53.515625 0 
L 44.484375 0 
L 44.484375 32.71875 
Q 44.484375 40.625 41.703125 44.40625 
Q 38.921875 48.1875 33.109375 48.1875 
Q 26.21875 48.1875 22.15625 43.53125 
Q 18.109375 38.875 18.109375 30.90625 
L 18.109375 0 
L 9.078125 0 
L 9.078125 54.6875 
L 18.109375 54.6875 
L 18.109375 46.1875 
Q 21.1875 51.21875 25.484375 53.609375 
Q 29.78125 56 35.6875 56 
Q 41.65625 56 45.828125 52.96875 
Q 50 49.953125 52 44.1875 
z
" id="DejaVuSans-109"/>
      <path d="M 9.421875 75.984375 
L 18.40625 75.984375 
L 18.40625 0 
L 9.421875 0 
z
" id="DejaVuSans-108"/>
      <path d="M 34.28125 27.484375 
Q 23.390625 27.484375 19.1875 25 
Q 14.984375 22.515625 14.984375 16.5 
Q 14.984375 11.71875 18.140625 8.90625 
Q 21.296875 6.109375 26.703125 6.109375 
Q 34.1875 6.109375 38.703125 11.40625 
Q 43.21875 16.703125 43.21875 25.484375 
L 43.21875 27.484375 
z
M 52.203125 31.203125 
L 52.203125 0 
L 43.21875 0 
L 43.21875 8.296875 
Q 40.140625 3.328125 35.546875 0.953125 
Q 30.953125 -1.421875 24.3125 -1.421875 
Q 15.921875 -1.421875 10.953125 3.296875 
Q 6 8.015625 6 15.921875 
Q 6 25.140625 12.171875 29.828125 
Q 18.359375 34.515625 30.609375 34.515625 
L 43.21875 34.515625 
L 43.21875 35.40625 
Q 43.21875 41.609375 39.140625 45 
Q 35.0625 48.390625 27.6875 48.390625 
Q 23 48.390625 18.546875 47.265625 
Q 14.109375 46.140625 10.015625 43.890625 
L 10.015625 52.203125 
Q 14.9375 54.109375 19.578125 55.046875 
Q 24.21875 56 28.609375 56 
Q 40.484375 56 46.34375 49.84375 
Q 52.203125 43.703125 52.203125 31.203125 
z
" id="DejaVuSans-97"/>
      <path d="M 45.40625 46.390625 
L 45.40625 75.984375 
L 54.390625 75.984375 
L 54.390625 0 
L 45.40625 0 
L 45.40625 8.203125 
Q 42.578125 3.328125 38.25 0.953125 
Q 33.9375 -1.421875 27.875 -1.421875 
Q 17.96875 -1.421875 11.734375 6.484375 
Q 5.515625 14.40625 5.515625 27.296875 
Q 5.515625 40.1875 11.734375 48.09375 
Q 17.96875 56 27.875 56 
Q 33.9375 56 38.25 53.625 
Q 42.578125 51.265625 45.40625 46.390625 
z
M 14.796875 27.296875 
Q 14.796875 17.390625 18.875 11.75 
Q 22.953125 6.109375 30.078125 6.109375 
Q 37.203125 6.109375 41.296875 11.75 
Q 45.40625 17.390625 45.40625 27.296875 
Q 45.40625 37.203125 41.296875 42.84375 
Q 37.203125 48.484375 30.078125 48.484375 
Q 22.953125 48.484375 18.875 42.84375 
Q 14.796875 37.203125 14.796875 27.296875 
z
" id="DejaVuSans-100"/>
     </defs>
     <g transform="translate(157.577904 27.398438)scale(0.1 -0.1)">
      <use xlink:href="#DejaVuSans-115"/>
      <use x="52.099609" xlink:href="#DejaVuSans-105"/>
      <use x="79.882812" xlink:href="#DejaVuSans-109"/>
      <use x="177.294922" xlink:href="#DejaVuSans-117"/>
      <use x="240.673828" xlink:href="#DejaVuSans-108"/>
      <use x="268.457031" xlink:href="#DejaVuSans-97"/>
      <use x="329.736328" xlink:href="#DejaVuSans-116"/>
      <use x="368.945312" xlink:href="#DejaVuSans-101"/>
      <use x="430.46875" xlink:href="#DejaVuSans-100"/>
     </g>
    </g>
    <g id="line2d_57">
     <path d="M 129.577904 38.576563 
L 149.577904 38.576563 
" style="fill:none;stroke:#ff0000;stroke-linecap:square;stroke-width:2;"/>
    </g>
    <g id="line2d_58"/>
    <g id="text_14">
     <!-- target -->
     <defs>
      <path d="M 45.40625 27.984375 
Q 45.40625 37.75 41.375 43.109375 
Q 37.359375 48.484375 30.078125 48.484375 
Q 22.859375 48.484375 18.828125 43.109375 
Q 14.796875 37.75 14.796875 27.984375 
Q 14.796875 18.265625 18.828125 12.890625 
Q 22.859375 7.515625 30.078125 7.515625 
Q 37.359375 7.515625 41.375 12.890625 
Q 45.40625 18.265625 45.40625 27.984375 
z
M 54.390625 6.78125 
Q 54.390625 -7.171875 48.1875 -13.984375 
Q 42 -20.796875 29.203125 -20.796875 
Q 24.46875 -20.796875 20.265625 -20.09375 
Q 16.0625 -19.390625 12.109375 -17.921875 
L 12.109375 -9.1875 
Q 16.0625 -11.328125 19.921875 -12.34375 
Q 23.78125 -13.375 27.78125 -13.375 
Q 36.625 -13.375 41.015625 -8.765625 
Q 45.40625 -4.15625 45.40625 5.171875 
L 45.40625 9.625 
Q 42.625 4.78125 38.28125 2.390625 
Q 33.9375 0 27.875 0 
Q 17.828125 0 11.671875 7.65625 
Q 5.515625 15.328125 5.515625 27.984375 
Q 5.515625 40.671875 11.671875 48.328125 
Q 17.828125 56 27.875 56 
Q 33.9375 56 38.28125 53.609375 
Q 42.625 51.21875 45.40625 46.390625 
L 45.40625 54.6875 
L 54.390625 54.6875 
z
" id="DejaVuSans-103"/>
     </defs>
     <g transform="translate(157.577904 42.076563)scale(0.1 -0.1)">
      <use xlink:href="#DejaVuSans-116"/>
      <use x="39.208984" xlink:href="#DejaVuSans-97"/>
      <use x="100.488281" xlink:href="#DejaVuSans-114"/>
      <use x="141.585938" xlink:href="#DejaVuSans-103"/>
      <use x="205.0625" xlink:href="#DejaVuSans-101"/>
      <use x="266.585938" xlink:href="#DejaVuSans-116"/>
     </g>
    </g>
   </g>
  </g>
 </g>
 <defs>
  <clipPath id="pc593a97bd9">
   <rect height="144.533322" width="166.654779" x="49.316875" y="10.8"/>
  </clipPath>
 </defs>
</svg>
