<?xml version="1.0" encoding="utf-8" standalone="no"?>
<!DOCTYPE svg PUBLIC "-//W3C//DTD SVG 1.1//EN"
  "http://www.w3.org/Graphics/SVG/1.1/DTD/svg11.dtd">
<!-- Created with matplotlib (https://matplotlib.org/) -->
<svg height="170.07874pt" version="1.1" viewBox="0 0 226.771654 170.07874" width="226.771654pt" xmlns="http://www.w3.org/2000/svg" xmlns:xlink="http://www.w3.org/1999/xlink">
 <defs>
  <style type="text/css">
*{stroke-linecap:butt;stroke-linejoin:round;}
  </style>
 </defs>
 <g id="figure_1">
  <g id="patch_1">
   <path d="M 0 170.07874 
L 226.771654 170.07874 
L 226.771654 0 
L 0 0 
z
" style="fill:#ffffff;"/>
  </g>
  <g id="axes_1">
   <g id="patch_2">
    <path d="M 44.203125 128.92249 
L 214.349824 128.92249 
L 214.349824 13.931798 
L 44.203125 13.931798 
z
" style="fill:#ffffff;"/>
   </g>
   <g id="matplotlib.axis_1">
    <g id="xtick_1">
     <g id="line2d_1">
      <path clip-path="url(#p3c889a48c2)" d="M 51.872563 128.92249 
L 51.872563 13.931798 
" style="fill:none;stroke:#b0b0b0;stroke-linecap:square;stroke-width:0.8;"/>
     </g>
     <g id="line2d_2">
      <defs>
       <path d="M 0 0 
L 0 3.5 
" id="m8b516d7879" style="stroke:#000000;stroke-width:0.8;"/>
      </defs>
      <g>
       <use style="stroke:#000000;stroke-width:0.8;" x="51.872563" xlink:href="#m8b516d7879" y="128.92249"/>
      </g>
     </g>
     <g id="text_1">
      <!-- −100 -->
      <defs>
       <path d="M 10.59375 35.5 
L 73.1875 35.5 
L 73.1875 27.203125 
L 10.59375 27.203125 
z
" id="DejaVuSans-8722"/>
       <path d="M 12.40625 8.296875 
L 28.515625 8.296875 
L 28.515625 63.921875 
L 10.984375 60.40625 
L 10.984375 69.390625 
L 28.421875 72.90625 
L 38.28125 72.90625 
L 38.28125 8.296875 
L 54.390625 8.296875 
L 54.390625 0 
L 12.40625 0 
z
" id="DejaVuSans-49"/>
       <path d="M 31.78125 66.40625 
Q 24.171875 66.40625 20.328125 58.90625 
Q 16.5 51.421875 16.5 36.375 
Q 16.5 21.390625 20.328125 13.890625 
Q 24.171875 6.390625 31.78125 6.390625 
Q 39.453125 6.390625 43.28125 13.890625 
Q 47.125 21.390625 47.125 36.375 
Q 47.125 51.421875 43.28125 58.90625 
Q 39.453125 66.40625 31.78125 66.40625 
z
M 31.78125 74.21875 
Q 44.046875 74.21875 50.515625 64.515625 
Q 56.984375 54.828125 56.984375 36.375 
Q 56.984375 17.96875 50.515625 8.265625 
Q 44.046875 -1.421875 31.78125 -1.421875 
Q 19.53125 -1.421875 13.0625 8.265625 
Q 6.59375 17.96875 6.59375 36.375 
Q 6.59375 54.828125 13.0625 64.515625 
Q 19.53125 74.21875 31.78125 74.21875 
z
" id="DejaVuSans-48"/>
      </defs>
      <g transform="translate(38.138969 143.520928)scale(0.1 -0.1)">
       <use xlink:href="#DejaVuSans-8722"/>
       <use x="83.789062" xlink:href="#DejaVuSans-49"/>
       <use x="147.412109" xlink:href="#DejaVuSans-48"/>
       <use x="211.035156" xlink:href="#DejaVuSans-48"/>
      </g>
     </g>
    </g>
    <g id="xtick_2">
     <g id="line2d_3">
      <path clip-path="url(#p3c889a48c2)" d="M 90.574518 128.92249 
L 90.574518 13.931798 
" style="fill:none;stroke:#b0b0b0;stroke-linecap:square;stroke-width:0.8;"/>
     </g>
     <g id="line2d_4">
      <g>
       <use style="stroke:#000000;stroke-width:0.8;" x="90.574518" xlink:href="#m8b516d7879" y="128.92249"/>
      </g>
     </g>
     <g id="text_2">
      <!-- −50 -->
      <defs>
       <path d="M 10.796875 72.90625 
L 49.515625 72.90625 
L 49.515625 64.59375 
L 19.828125 64.59375 
L 19.828125 46.734375 
Q 21.96875 47.46875 24.109375 47.828125 
Q 26.265625 48.1875 28.421875 48.1875 
Q 40.625 48.1875 47.75 41.5 
Q 54.890625 34.8125 54.890625 23.390625 
Q 54.890625 11.625 47.5625 5.09375 
Q 40.234375 -1.421875 26.90625 -1.421875 
Q 22.3125 -1.421875 17.546875 -0.640625 
Q 12.796875 0.140625 7.71875 1.703125 
L 7.71875 11.625 
Q 12.109375 9.234375 16.796875 8.0625 
Q 21.484375 6.890625 26.703125 6.890625 
Q 35.15625 6.890625 40.078125 11.328125 
Q 45.015625 15.765625 45.015625 23.390625 
Q 45.015625 31 40.078125 35.4375 
Q 35.15625 39.890625 26.703125 39.890625 
Q 22.75 39.890625 18.8125 39.015625 
Q 14.890625 38.140625 10.796875 36.28125 
z
" id="DejaVuSans-53"/>
      </defs>
      <g transform="translate(80.022175 143.520928)scale(0.1 -0.1)">
       <use xlink:href="#DejaVuSans-8722"/>
       <use x="83.789062" xlink:href="#DejaVuSans-53"/>
       <use x="147.412109" xlink:href="#DejaVuSans-48"/>
      </g>
     </g>
    </g>
    <g id="xtick_3">
     <g id="line2d_5">
      <path clip-path="url(#p3c889a48c2)" d="M 129.276474 128.92249 
L 129.276474 13.931798 
" style="fill:none;stroke:#b0b0b0;stroke-linecap:square;stroke-width:0.8;"/>
     </g>
     <g id="line2d_6">
      <g>
       <use style="stroke:#000000;stroke-width:0.8;" x="129.276474" xlink:href="#m8b516d7879" y="128.92249"/>
      </g>
     </g>
     <g id="text_3">
      <!-- 0 -->
      <g transform="translate(126.095224 143.520928)scale(0.1 -0.1)">
       <use xlink:href="#DejaVuSans-48"/>
      </g>
     </g>
    </g>
    <g id="xtick_4">
     <g id="line2d_7">
      <path clip-path="url(#p3c889a48c2)" d="M 167.97843 128.92249 
L 167.97843 13.931798 
" style="fill:none;stroke:#b0b0b0;stroke-linecap:square;stroke-width:0.8;"/>
     </g>
     <g id="line2d_8">
      <g>
       <use style="stroke:#000000;stroke-width:0.8;" x="167.97843" xlink:href="#m8b516d7879" y="128.92249"/>
      </g>
     </g>
     <g id="text_4">
      <!-- 50 -->
      <g transform="translate(161.61593 143.520928)scale(0.1 -0.1)">
       <use xlink:href="#DejaVuSans-53"/>
       <use x="63.623047" xlink:href="#DejaVuSans-48"/>
      </g>
     </g>
    </g>
    <g id="xtick_5">
     <g id="line2d_9">
      <path clip-path="url(#p3c889a48c2)" d="M 206.680386 128.92249 
L 206.680386 13.931798 
" style="fill:none;stroke:#b0b0b0;stroke-linecap:square;stroke-width:0.8;"/>
     </g>
     <g id="line2d_10">
      <g>
       <use style="stroke:#000000;stroke-width:0.8;" x="206.680386" xlink:href="#m8b516d7879" y="128.92249"/>
      </g>
     </g>
     <g id="text_5">
      <!-- 100 -->
      <g transform="translate(197.136636 143.520928)scale(0.1 -0.1)">
       <use xlink:href="#DejaVuSans-49"/>
       <use x="63.623047" xlink:href="#DejaVuSans-48"/>
       <use x="127.246094" xlink:href="#DejaVuSans-48"/>
      </g>
     </g>
    </g>
    <g id="text_6">
     <!-- $\tau$ (s) -->
     <defs>
      <path d="M 32.859375 9.96875 
Q 34.1875 7.625 39.453125 7.625 
L 43.75 7.625 
L 42.28125 0 
L 36.921875 0 
Q 28.125 0 25 4.6875 
Q 21.921875 9.46875 23.96875 19.828125 
L 29 45.703125 
L 8.453125 45.703125 
L 10.203125 54.6875 
L 60.640625 54.6875 
L 58.890625 45.703125 
L 38.1875 45.703125 
L 33.015625 19.28125 
Q 31.640625 12.203125 32.859375 9.96875 
z
" id="DejaVuSans-Oblique-964"/>
      <path id="DejaVuSans-32"/>
      <path d="M 31 75.875 
Q 24.46875 64.65625 21.28125 53.65625 
Q 18.109375 42.671875 18.109375 31.390625 
Q 18.109375 20.125 21.3125 9.0625 
Q 24.515625 -2 31 -13.1875 
L 23.1875 -13.1875 
Q 15.875 -1.703125 12.234375 9.375 
Q 8.59375 20.453125 8.59375 31.390625 
Q 8.59375 42.28125 12.203125 53.3125 
Q 15.828125 64.359375 23.1875 75.875 
z
" id="DejaVuSans-40"/>
      <path d="M 44.28125 53.078125 
L 44.28125 44.578125 
Q 40.484375 46.53125 36.375 47.5 
Q 32.28125 48.484375 27.875 48.484375 
Q 21.1875 48.484375 17.84375 46.4375 
Q 14.5 44.390625 14.5 40.28125 
Q 14.5 37.15625 16.890625 35.375 
Q 19.28125 33.59375 26.515625 31.984375 
L 29.59375 31.296875 
Q 39.15625 29.25 43.1875 25.515625 
Q 47.21875 21.78125 47.21875 15.09375 
Q 47.21875 7.46875 41.1875 3.015625 
Q 35.15625 -1.421875 24.609375 -1.421875 
Q 20.21875 -1.421875 15.453125 -0.5625 
Q 10.6875 0.296875 5.421875 2 
L 5.421875 11.28125 
Q 10.40625 8.6875 15.234375 7.390625 
Q 20.0625 6.109375 24.8125 6.109375 
Q 31.15625 6.109375 34.5625 8.28125 
Q 37.984375 10.453125 37.984375 14.40625 
Q 37.984375 18.0625 35.515625 20.015625 
Q 33.0625 21.96875 24.703125 23.78125 
L 21.578125 24.515625 
Q 13.234375 26.265625 9.515625 29.90625 
Q 5.8125 33.546875 5.8125 39.890625 
Q 5.8125 47.609375 11.28125 51.796875 
Q 16.75 56 26.8125 56 
Q 31.78125 56 36.171875 55.265625 
Q 40.578125 54.546875 44.28125 53.078125 
z
" id="DejaVuSans-115"/>
      <path d="M 8.015625 75.875 
L 15.828125 75.875 
Q 23.140625 64.359375 26.78125 53.3125 
Q 30.421875 42.28125 30.421875 31.390625 
Q 30.421875 20.453125 26.78125 9.375 
Q 23.140625 -1.703125 15.828125 -13.1875 
L 8.015625 -13.1875 
Q 14.5 -2 17.703125 9.0625 
Q 20.90625 20.125 20.90625 31.390625 
Q 20.90625 42.671875 17.703125 53.65625 
Q 14.5 64.65625 8.015625 75.875 
z
" id="DejaVuSans-41"/>
     </defs>
     <g transform="translate(118.126474 157.199053)scale(0.1 -0.1)">
      <use transform="translate(0 0.125)" xlink:href="#DejaVuSans-Oblique-964"/>
      <use transform="translate(60.205078 0.125)" xlink:href="#DejaVuSans-32"/>
      <use transform="translate(91.992188 0.125)" xlink:href="#DejaVuSans-40"/>
      <use transform="translate(131.005859 0.125)" xlink:href="#DejaVuSans-115"/>
      <use transform="translate(183.105469 0.125)" xlink:href="#DejaVuSans-41"/>
     </g>
    </g>
   </g>
   <g id="matplotlib.axis_2">
    <g id="ytick_1">
     <g id="line2d_11">
      <path clip-path="url(#p3c889a48c2)" d="M 44.203125 110.738212 
L 214.349824 110.738212 
" style="fill:none;stroke:#b0b0b0;stroke-linecap:square;stroke-width:0.8;"/>
     </g>
     <g id="line2d_12">
      <defs>
       <path d="M 0 0 
L -3.5 0 
" id="m2b1796687d" style="stroke:#000000;stroke-width:0.8;"/>
      </defs>
      <g>
       <use style="stroke:#000000;stroke-width:0.8;" x="44.203125" xlink:href="#m2b1796687d" y="110.738212"/>
      </g>
     </g>
     <g id="text_7">
      <!-- 0 -->
      <g transform="translate(30.840625 114.537431)scale(0.1 -0.1)">
       <use xlink:href="#DejaVuSans-48"/>
      </g>
     </g>
    </g>
    <g id="ytick_2">
     <g id="line2d_13">
      <path clip-path="url(#p3c889a48c2)" d="M 44.203125 78.664752 
L 214.349824 78.664752 
" style="fill:none;stroke:#b0b0b0;stroke-linecap:square;stroke-width:0.8;"/>
     </g>
     <g id="line2d_14">
      <g>
       <use style="stroke:#000000;stroke-width:0.8;" x="44.203125" xlink:href="#m2b1796687d" y="78.664752"/>
      </g>
     </g>
     <g id="text_8">
      <!-- 5 -->
      <g transform="translate(30.840625 82.46397)scale(0.1 -0.1)">
       <use xlink:href="#DejaVuSans-53"/>
      </g>
     </g>
    </g>
    <g id="ytick_3">
     <g id="line2d_15">
      <path clip-path="url(#p3c889a48c2)" d="M 44.203125 46.591291 
L 214.349824 46.591291 
" style="fill:none;stroke:#b0b0b0;stroke-linecap:square;stroke-width:0.8;"/>
     </g>
     <g id="line2d_16">
      <g>
       <use style="stroke:#000000;stroke-width:0.8;" x="44.203125" xlink:href="#m2b1796687d" y="46.591291"/>
      </g>
     </g>
     <g id="text_9">
      <!-- 10 -->
      <g transform="translate(24.478125 50.39051)scale(0.1 -0.1)">
       <use xlink:href="#DejaVuSans-49"/>
       <use x="63.623047" xlink:href="#DejaVuSans-48"/>
      </g>
     </g>
    </g>
    <g id="ytick_4">
     <g id="line2d_17">
      <path clip-path="url(#p3c889a48c2)" d="M 44.203125 14.51783 
L 214.349824 14.51783 
" style="fill:none;stroke:#b0b0b0;stroke-linecap:square;stroke-width:0.8;"/>
     </g>
     <g id="line2d_18">
      <g>
       <use style="stroke:#000000;stroke-width:0.8;" x="44.203125" xlink:href="#m2b1796687d" y="14.51783"/>
      </g>
     </g>
     <g id="text_10">
      <!-- 15 -->
      <g transform="translate(24.478125 18.317049)scale(0.1 -0.1)">
       <use xlink:href="#DejaVuSans-49"/>
       <use x="63.623047" xlink:href="#DejaVuSans-53"/>
      </g>
     </g>
    </g>
    <g id="text_11">
     <!-- correlation function -->
     <defs>
      <path d="M 48.78125 52.59375 
L 48.78125 44.1875 
Q 44.96875 46.296875 41.140625 47.34375 
Q 37.3125 48.390625 33.40625 48.390625 
Q 24.65625 48.390625 19.8125 42.84375 
Q 14.984375 37.3125 14.984375 27.296875 
Q 14.984375 17.28125 19.8125 11.734375 
Q 24.65625 6.203125 33.40625 6.203125 
Q 37.3125 6.203125 41.140625 7.25 
Q 44.96875 8.296875 48.78125 10.40625 
L 48.78125 2.09375 
Q 45.015625 0.34375 40.984375 -0.53125 
Q 36.96875 -1.421875 32.421875 -1.421875 
Q 20.0625 -1.421875 12.78125 6.34375 
Q 5.515625 14.109375 5.515625 27.296875 
Q 5.515625 40.671875 12.859375 48.328125 
Q 20.21875 56 33.015625 56 
Q 37.15625 56 41.109375 55.140625 
Q 45.0625 54.296875 48.78125 52.59375 
z
" id="DejaVuSans-99"/>
      <path d="M 30.609375 48.390625 
Q 23.390625 48.390625 19.1875 42.75 
Q 14.984375 37.109375 14.984375 27.296875 
Q 14.984375 17.484375 19.15625 11.84375 
Q 23.34375 6.203125 30.609375 6.203125 
Q 37.796875 6.203125 41.984375 11.859375 
Q 46.1875 17.53125 46.1875 27.296875 
Q 46.1875 37.015625 41.984375 42.703125 
Q 37.796875 48.390625 30.609375 48.390625 
z
M 30.609375 56 
Q 42.328125 56 49.015625 48.375 
Q 55.71875 40.765625 55.71875 27.296875 
Q 55.71875 13.875 49.015625 6.21875 
Q 42.328125 -1.421875 30.609375 -1.421875 
Q 18.84375 -1.421875 12.171875 6.21875 
Q 5.515625 13.875 5.515625 27.296875 
Q 5.515625 40.765625 12.171875 48.375 
Q 18.84375 56 30.609375 56 
z
" id="DejaVuSans-111"/>
      <path d="M 41.109375 46.296875 
Q 39.59375 47.171875 37.8125 47.578125 
Q 36.03125 48 33.890625 48 
Q 26.265625 48 22.1875 43.046875 
Q 18.109375 38.09375 18.109375 28.8125 
L 18.109375 0 
L 9.078125 0 
L 9.078125 54.6875 
L 18.109375 54.6875 
L 18.109375 46.1875 
Q 20.953125 51.171875 25.484375 53.578125 
Q 30.03125 56 36.53125 56 
Q 37.453125 56 38.578125 55.875 
Q 39.703125 55.765625 41.0625 55.515625 
z
" id="DejaVuSans-114"/>
      <path d="M 56.203125 29.59375 
L 56.203125 25.203125 
L 14.890625 25.203125 
Q 15.484375 15.921875 20.484375 11.0625 
Q 25.484375 6.203125 34.421875 6.203125 
Q 39.59375 6.203125 44.453125 7.46875 
Q 49.3125 8.734375 54.109375 11.28125 
L 54.109375 2.78125 
Q 49.265625 0.734375 44.1875 -0.34375 
Q 39.109375 -1.421875 33.890625 -1.421875 
Q 20.796875 -1.421875 13.15625 6.1875 
Q 5.515625 13.8125 5.515625 26.8125 
Q 5.515625 40.234375 12.765625 48.109375 
Q 20.015625 56 32.328125 56 
Q 43.359375 56 49.78125 48.890625 
Q 56.203125 41.796875 56.203125 29.59375 
z
M 47.21875 32.234375 
Q 47.125 39.59375 43.09375 43.984375 
Q 39.0625 48.390625 32.421875 48.390625 
Q 24.90625 48.390625 20.390625 44.140625 
Q 15.875 39.890625 15.1875 32.171875 
z
" id="DejaVuSans-101"/>
      <path d="M 9.421875 75.984375 
L 18.40625 75.984375 
L 18.40625 0 
L 9.421875 0 
z
" id="DejaVuSans-108"/>
      <path d="M 34.28125 27.484375 
Q 23.390625 27.484375 19.1875 25 
Q 14.984375 22.515625 14.984375 16.5 
Q 14.984375 11.71875 18.140625 8.90625 
Q 21.296875 6.109375 26.703125 6.109375 
Q 34.1875 6.109375 38.703125 11.40625 
Q 43.21875 16.703125 43.21875 25.484375 
L 43.21875 27.484375 
z
M 52.203125 31.203125 
L 52.203125 0 
L 43.21875 0 
L 43.21875 8.296875 
Q 40.140625 3.328125 35.546875 0.953125 
Q 30.953125 -1.421875 24.3125 -1.421875 
Q 15.921875 -1.421875 10.953125 3.296875 
Q 6 8.015625 6 15.921875 
Q 6 25.140625 12.171875 29.828125 
Q 18.359375 34.515625 30.609375 34.515625 
L 43.21875 34.515625 
L 43.21875 35.40625 
Q 43.21875 41.609375 39.140625 45 
Q 35.0625 48.390625 27.6875 48.390625 
Q 23 48.390625 18.546875 47.265625 
Q 14.109375 46.140625 10.015625 43.890625 
L 10.015625 52.203125 
Q 14.9375 54.109375 19.578125 55.046875 
Q 24.21875 56 28.609375 56 
Q 40.484375 56 46.34375 49.84375 
Q 52.203125 43.703125 52.203125 31.203125 
z
" id="DejaVuSans-97"/>
      <path d="M 18.3125 70.21875 
L 18.3125 54.6875 
L 36.8125 54.6875 
L 36.8125 47.703125 
L 18.3125 47.703125 
L 18.3125 18.015625 
Q 18.3125 11.328125 20.140625 9.421875 
Q 21.96875 7.515625 27.59375 7.515625 
L 36.8125 7.515625 
L 36.8125 0 
L 27.59375 0 
Q 17.1875 0 13.234375 3.875 
Q 9.28125 7.765625 9.28125 18.015625 
L 9.28125 47.703125 
L 2.6875 47.703125 
L 2.6875 54.6875 
L 9.28125 54.6875 
L 9.28125 70.21875 
z
" id="DejaVuSans-116"/>
      <path d="M 9.421875 54.6875 
L 18.40625 54.6875 
L 18.40625 0 
L 9.421875 0 
z
M 9.421875 75.984375 
L 18.40625 75.984375 
L 18.40625 64.59375 
L 9.421875 64.59375 
z
" id="DejaVuSans-105"/>
      <path d="M 54.890625 33.015625 
L 54.890625 0 
L 45.90625 0 
L 45.90625 32.71875 
Q 45.90625 40.484375 42.875 44.328125 
Q 39.84375 48.1875 33.796875 48.1875 
Q 26.515625 48.1875 22.3125 43.546875 
Q 18.109375 38.921875 18.109375 30.90625 
L 18.109375 0 
L 9.078125 0 
L 9.078125 54.6875 
L 18.109375 54.6875 
L 18.109375 46.1875 
Q 21.34375 51.125 25.703125 53.5625 
Q 30.078125 56 35.796875 56 
Q 45.21875 56 50.046875 50.171875 
Q 54.890625 44.34375 54.890625 33.015625 
z
" id="DejaVuSans-110"/>
      <path d="M 37.109375 75.984375 
L 37.109375 68.5 
L 28.515625 68.5 
Q 23.6875 68.5 21.796875 66.546875 
Q 19.921875 64.59375 19.921875 59.515625 
L 19.921875 54.6875 
L 34.71875 54.6875 
L 34.71875 47.703125 
L 19.921875 47.703125 
L 19.921875 0 
L 10.890625 0 
L 10.890625 47.703125 
L 2.296875 47.703125 
L 2.296875 54.6875 
L 10.890625 54.6875 
L 10.890625 58.5 
Q 10.890625 67.625 15.140625 71.796875 
Q 19.390625 75.984375 28.609375 75.984375 
z
" id="DejaVuSans-102"/>
      <path d="M 8.5 21.578125 
L 8.5 54.6875 
L 17.484375 54.6875 
L 17.484375 21.921875 
Q 17.484375 14.15625 20.5 10.265625 
Q 23.53125 6.390625 29.59375 6.390625 
Q 36.859375 6.390625 41.078125 11.03125 
Q 45.3125 15.671875 45.3125 23.6875 
L 45.3125 54.6875 
L 54.296875 54.6875 
L 54.296875 0 
L 45.3125 0 
L 45.3125 8.40625 
Q 42.046875 3.421875 37.71875 1 
Q 33.40625 -1.421875 27.6875 -1.421875 
Q 18.265625 -1.421875 13.375 4.4375 
Q 8.5 10.296875 8.5 21.578125 
z
M 31.109375 56 
z
" id="DejaVuSans-117"/>
     </defs>
     <g transform="translate(18.398438 120.464644)rotate(-90)scale(0.1 -0.1)">
      <use xlink:href="#DejaVuSans-99"/>
      <use x="54.980469" xlink:href="#DejaVuSans-111"/>
      <use x="116.162109" xlink:href="#DejaVuSans-114"/>
      <use x="157.259766" xlink:href="#DejaVuSans-114"/>
      <use x="198.341797" xlink:href="#DejaVuSans-101"/>
      <use x="259.865234" xlink:href="#DejaVuSans-108"/>
      <use x="287.648438" xlink:href="#DejaVuSans-97"/>
      <use x="348.927734" xlink:href="#DejaVuSans-116"/>
      <use x="388.136719" xlink:href="#DejaVuSans-105"/>
      <use x="415.919922" xlink:href="#DejaVuSans-111"/>
      <use x="477.101562" xlink:href="#DejaVuSans-110"/>
      <use x="540.480469" xlink:href="#DejaVuSans-32"/>
      <use x="572.267578" xlink:href="#DejaVuSans-102"/>
      <use x="607.472656" xlink:href="#DejaVuSans-117"/>
      <use x="670.851562" xlink:href="#DejaVuSans-110"/>
      <use x="734.230469" xlink:href="#DejaVuSans-99"/>
      <use x="789.210938" xlink:href="#DejaVuSans-116"/>
      <use x="828.419922" xlink:href="#DejaVuSans-105"/>
      <use x="856.203125" xlink:href="#DejaVuSans-111"/>
      <use x="917.384766" xlink:href="#DejaVuSans-110"/>
     </g>
    </g>
   </g>
   <g id="line2d_19">
    <path clip-path="url(#p3c889a48c2)" d="M 51.937066 107.288137 
L 52.388589 108.954486 
L 52.969118 110.347158 
L 53.033621 110.32213 
L 53.162628 109.937688 
L 53.291634 109.540233 
L 53.678654 109.821591 
L 53.936667 109.359372 
L 54.38819 108.471303 
L 55.097726 107.702884 
L 55.291235 106.905964 
L 55.613752 105.385319 
L 55.742758 105.370895 
L 56.323288 103.959084 
L 56.581301 104.095443 
L 56.710307 103.983499 
L 56.839314 104.038549 
L 57.032823 103.696206 
L 57.097327 103.730309 
L 57.35534 104.040706 
L 58.000372 105.197009 
L 58.193882 105.571447 
L 58.516398 106.370167 
L 58.774411 106.862605 
L 60.451496 114.203052 
L 60.645006 114.43988 
L 61.096529 115.029821 
L 61.225535 114.857079 
L 61.419045 114.363596 
L 61.612555 114.761223 
L 61.935071 114.310064 
L 62.257587 113.596183 
L 62.386594 113.460282 
L 62.451097 113.369375 
L 62.5156 113.448104 
L 62.70911 113.800749 
L 63.031627 113.518987 
L 63.225136 113.974369 
L 63.354143 114.055509 
L 63.676659 114.661062 
L 63.870169 114.349469 
L 63.934672 114.401842 
L 64.321692 115.464572 
L 64.579705 115.96818 
L 64.837718 115.872327 
L 64.966724 115.873426 
L 65.611757 114.277553 
L 65.86977 113.604219 
L 65.998776 113.583319 
L 66.25679 112.926875 
L 66.450299 112.967335 
L 66.579306 112.997434 
L 66.708312 113.050581 
L 66.837319 112.81174 
L 66.966325 113.242932 
L 67.159835 113.776267 
L 67.417848 113.947806 
L 68.062881 112.322266 
L 68.256391 111.357702 
L 68.4499 111.576237 
L 68.772417 111.875298 
L 69.094933 110.999158 
L 69.352946 110.540787 
L 69.481953 110.593852 
L 69.675462 110.814386 
L 69.933475 110.051015 
L 69.997979 110.17429 
L 70.191488 110.560466 
L 70.384998 110.552715 
L 70.514005 110.69828 
L 70.707514 111.060841 
L 70.836521 110.966298 
L 71.288044 111.999168 
L 71.739567 112.164898 
L 72.062083 111.397934 
L 72.191089 111.387885 
L 72.513606 111.99789 
L 72.707116 112.017373 
L 73.287645 110.775726 
L 73.481155 111.056843 
L 73.610161 111.069973 
L 73.932677 111.978535 
L 74.319697 113.28016 
L 74.77122 113.779059 
L 74.96473 113.935502 
L 75.351749 114.731434 
L 75.996782 114.124954 
L 76.706318 112.373902 
L 77.222344 112.183822 
L 77.415853 111.957977 
L 77.54486 111.750921 
L 77.867376 111.993776 
L 78.125389 112.491122 
L 78.383402 112.714931 
L 78.512409 112.496432 
L 78.899428 111.490305 
L 79.221945 111.16821 
L 79.286448 111.046374 
L 79.350951 111.102801 
L 79.544461 111.652412 
L 79.737971 111.542923 
L 80.060487 111.785163 
L 80.51201 111.93098 
L 80.963533 113.024247 
L 81.157043 112.780613 
L 81.415056 112.397709 
L 81.544062 112.24799 
L 81.802075 111.654465 
L 82.060088 110.712484 
L 82.189095 110.54886 
L 82.705121 109.396405 
L 82.834127 109.288866 
L 82.963134 109.197743 
L 83.350153 109.888239 
L 83.737173 108.993094 
L 83.995186 108.23269 
L 84.382206 109.116476 
L 84.704722 109.561257 
L 84.898232 109.561375 
L 85.091741 109.765517 
L 85.220748 109.798346 
L 85.414258 109.984475 
L 85.607767 109.953233 
L 85.994787 109.034794 
L 86.381807 108.576392 
L 86.510813 108.658181 
L 86.768826 109.398896 
L 87.091342 110.447682 
L 87.284852 110.746244 
L 87.349355 110.703252 
L 87.865382 109.470615 
L 88.187898 110.007708 
L 88.381408 110.646339 
L 88.574917 110.497298 
L 89.090943 110.904856 
L 89.348957 111.488118 
L 89.542466 111.70425 
L 89.735976 111.431465 
L 89.864983 111.874624 
L 89.993989 112.15757 
L 90.187499 111.677324 
L 90.316505 111.668828 
L 91.090545 110.195536 
L 91.284054 109.987238 
L 91.542067 110.328313 
L 91.929087 111.285898 
L 92.058093 111.433734 
L 92.509616 113.410167 
L 92.57412 113.38363 
L 92.638623 113.383729 
L 93.090146 114.356936 
L 93.348159 115.2422 
L 93.477165 115.279659 
L 93.735178 114.599722 
L 93.928688 114.178008 
L 94.315708 114.473108 
L 94.444714 114.75208 
L 94.702727 115.418746 
L 94.831734 115.579225 
L 94.896237 115.516298 
L 95.541269 113.969563 
L 95.734779 114.424437 
L 96.186302 115.359615 
L 96.379812 115.46849 
L 96.702328 116.176392 
L 96.766831 116.010915 
L 96.960341 115.640465 
L 97.089348 115.457168 
L 97.218354 115.299895 
L 97.347361 115.329953 
L 97.92789 115.0304 
L 98.056897 115.115799 
L 98.185903 115.660742 
L 98.443916 116.843104 
L 98.701929 116.796083 
L 98.766432 116.770292 
L 98.895439 117.238698 
L 99.024445 117.637949 
L 99.153452 117.553169 
L 99.411465 117.920688 
L 99.669478 117.927527 
L 99.798485 117.960888 
L 99.927491 117.996387 
L 99.991994 117.95043 
L 100.121001 118.324414 
L 100.250007 118.633074 
L 100.572524 118.5405 
L 100.766034 118.876599 
L 101.024047 118.407354 
L 101.411066 117.205566 
L 101.733582 115.979161 
L 101.991595 115.148792 
L 102.120602 115.393396 
L 102.894641 113.131433 
L 103.023648 113.208716 
L 103.217157 113.396438 
L 103.281661 113.359159 
L 103.539674 113.821936 
L 103.604177 113.692883 
L 104.184706 113.140439 
L 104.313713 113.107412 
L 104.636229 112.739363 
L 105.152255 113.121317 
L 105.281262 113.058076 
L 105.732785 111.982834 
L 105.797288 112.058548 
L 106.055301 112.334088 
L 106.184307 112.046551 
L 107.087353 109.049975 
L 107.280863 108.641961 
L 107.409869 109.267103 
L 107.603379 109.958161 
L 107.925895 110.339516 
L 108.248412 111.223849 
L 108.377418 111.322359 
L 108.635431 111.955656 
L 108.893444 112.089843 
L 109.538477 114.178244 
L 109.860993 116.366839 
L 110.054503 116.856608 
L 110.248013 116.717385 
L 110.441522 116.211885 
L 110.506026 116.248146 
L 110.699536 116.328496 
L 111.022052 116.291194 
L 111.151058 116.332921 
L 111.409071 116.263385 
L 111.602581 116.339486 
L 111.796091 116.107852 
L 112.054104 114.891971 
L 112.18311 114.984138 
L 112.634633 115.282263 
L 112.76364 114.878188 
L 112.828143 114.944145 
L 113.086156 115.780698 
L 113.215163 115.829753 
L 113.344169 115.683632 
L 113.731189 116.134237 
L 113.860195 115.945469 
L 114.118208 115.411242 
L 115.15026 115.801574 
L 115.408273 116.170126 
L 115.601783 115.607266 
L 115.9243 114.984534 
L 116.182313 114.839132 
L 116.440326 115.041464 
L 116.956352 114.754882 
L 117.085358 115.24309 
L 117.278868 115.856936 
L 117.407875 115.966746 
L 117.988404 117.555312 
L 118.246417 117.721788 
L 118.375423 118.017426 
L 119.471979 121.994006 
L 119.665489 121.997294 
L 119.794495 121.928829 
L 119.988005 122.265438 
L 120.375024 123.695641 
L 120.439528 123.614779 
L 120.762044 123.076867 
L 121.213567 123.131465 
L 121.342573 122.635502 
L 122.310122 117.01279 
L 122.503632 116.172515 
L 122.761645 114.920707 
L 122.890652 114.694426 
L 123.600187 111.402745 
L 124.567736 105.474917 
L 125.406279 97.002143 
L 125.728795 93.762408 
L 125.922305 91.987974 
L 126.760847 79.974131 
L 127.921906 56.60757 
L 128.760448 34.053122 
L 129.276474 19.158648 
L 129.340978 19.520577 
L 129.534487 25.005781 
L 130.56654 57.333991 
L 131.469585 76.913395 
L 132.308128 87.753923 
L 133.34018 98.624681 
L 135.146271 109.275119 
L 135.404284 109.890661 
L 135.662297 109.994917 
L 135.92031 110.612336 
L 136.30733 111.941364 
L 136.694349 112.641173 
L 136.823356 112.675274 
L 136.952362 113.05002 
L 137.210375 114.04819 
L 137.468388 114.171062 
L 137.790905 115.146169 
L 137.984414 115.295118 
L 138.177924 116.452173 
L 138.564944 118.263241 
L 138.69395 118.232795 
L 138.951963 117.839789 
L 139.08097 117.776681 
L 139.27448 117.446092 
L 139.726002 117.743213 
L 140.048519 117.136845 
L 140.177525 117.146409 
L 140.435538 117.55746 
L 140.693551 117.735676 
L 140.822558 117.90781 
L 140.887061 117.854621 
L 141.532094 116.104774 
L 141.725603 115.561685 
L 141.919113 115.046524 
L 142.112623 115.110175 
L 142.435139 115.412063 
L 142.628649 115.153623 
L 142.693152 115.249178 
L 143.144675 116.186634 
L 143.209178 116.111577 
L 143.467191 115.790933 
L 143.725205 116.816377 
L 143.854211 116.688378 
L 144.176727 116.664227 
L 144.305734 116.772575 
L 144.43474 116.499943 
L 144.82176 115.587332 
L 144.950766 115.730221 
L 145.01527 115.639379 
L 145.273283 114.877084 
L 145.402289 114.751488 
L 146.111825 113.48374 
L 147.079374 116.100097 
L 147.272884 116.340782 
L 147.40189 116.659611 
L 147.659903 117.562295 
L 148.175929 117.188679 
L 148.498446 116.391573 
L 148.627452 116.373308 
L 149.207982 117.064255 
L 149.465995 116.894917 
L 149.659504 116.960502 
L 149.853014 117.543748 
L 150.304537 118.864917 
L 150.433544 119.030193 
L 150.56255 118.694381 
L 150.75606 118.151751 
L 150.885066 118.1101 
L 151.272086 116.685708 
L 151.465596 117.145106 
L 151.530099 117.055644 
L 152.949171 113.119454 
L 153.078177 113.285277 
L 153.14268 113.247484 
L 153.33619 112.76177 
L 153.400694 112.80109 
L 153.5297 112.806612 
L 153.72321 112.475823 
L 153.852216 112.480347 
L 154.045726 112.380827 
L 154.497249 112.538222 
L 154.884268 113.251128 
L 155.142282 113.91112 
L 155.400295 114.497026 
L 156.432347 119.843429 
L 156.754863 120.425705 
L 156.948373 121.031131 
L 157.141883 120.677137 
L 157.464399 119.647204 
L 157.528902 119.676452 
L 157.657909 119.683946 
L 158.044928 119.124038 
L 158.431948 118.489216 
L 158.560954 118.274865 
L 158.754464 118.445895 
L 158.883471 118.259502 
L 159.07698 117.858762 
L 159.27049 117.956699 
L 159.464 117.834897 
L 159.915523 115.923673 
L 160.238039 114.762034 
L 160.496052 114.260368 
L 160.818568 114.213232 
L 161.657111 112.897573 
L 161.786117 113.193362 
L 161.979627 113.504195 
L 162.302143 113.58619 
L 162.947176 114.633447 
L 163.011679 114.693457 
L 163.527705 113.803147 
L 163.979228 112.612784 
L 164.172738 112.903719 
L 164.301744 113.108305 
L 164.366248 113.076291 
L 164.495254 113.098995 
L 165.269293 114.838313 
L 165.3983 115.002701 
L 165.462803 114.965919 
L 165.656313 114.369126 
L 165.978829 113.637298 
L 166.301345 113.831513 
L 166.559359 114.345093 
L 166.688365 114.496167 
L 166.752868 114.432832 
L 167.204391 113.195775 
L 167.397901 113.126162 
L 167.526907 113.195244 
L 167.720417 113.474156 
L 168.300947 112.991956 
L 168.55896 112.648401 
L 168.752469 112.681617 
L 168.945979 112.553153 
L 169.655515 112.532456 
L 170.107038 111.441078 
L 170.236044 111.273104 
L 170.365051 111.495592 
L 170.429554 111.432506 
L 170.687567 110.992783 
L 170.816574 110.946608 
L 171.010083 110.72966 
L 171.203593 110.714931 
L 171.590613 109.873212 
L 171.655116 109.688898 
L 171.719619 109.734373 
L 171.977632 110.423661 
L 172.235645 110.707425 
L 172.622665 110.846784 
L 172.816175 110.757516 
L 173.074188 111.03328 
L 173.203194 110.880139 
L 173.783724 109.036024 
L 173.977233 109.016941 
L 174.235246 109.645429 
L 174.29975 109.594608 
L 174.493259 109.248592 
L 174.686769 109.02954 
L 175.073789 108.715929 
L 175.525312 108.811137 
L 175.718821 108.829044 
L 175.976834 109.026661 
L 176.170344 108.663765 
L 176.234847 108.727012 
L 176.299351 108.740366 
L 177.07339 107.507728 
L 177.589416 108.162033 
L 177.911932 109.196022 
L 178.105442 109.300862 
L 178.427958 109.88828 
L 178.556965 109.77636 
L 179.331004 108.477724 
L 179.589017 107.714887 
L 179.718024 107.634747 
L 180.04054 107.015754 
L 180.169546 107.142607 
L 180.492063 107.582558 
L 180.621069 107.242348 
L 180.750076 106.766519 
L 180.814579 106.805909 
L 180.943585 106.869731 
L 181.072592 106.86015 
L 181.201598 106.9989 
L 181.524115 106.11657 
L 181.588618 106.20047 
L 182.42716 109.596244 
L 182.878683 110.08097 
L 183.072193 109.842535 
L 183.136696 109.979338 
L 183.330206 110.829555 
L 183.394709 110.794156 
L 183.652722 110.705785 
L 183.717226 110.748338 
L 183.975239 111.365864 
L 184.104245 111.078133 
L 184.297755 110.385702 
L 184.362258 110.414657 
L 184.491265 110.454704 
L 184.620271 110.417042 
L 184.813781 110.708383 
L 185.136297 111.420042 
L 185.39431 111.54404 
L 185.523317 111.565548 
L 185.910336 110.556292 
L 186.039343 110.585406 
L 186.361859 111.018562 
L 186.426363 110.916206 
L 186.619872 110.326532 
L 186.813382 110.643427 
L 186.942389 110.469029 
L 187.006892 110.518055 
L 187.264905 111.075042 
L 188.038944 113.786269 
L 188.36146 113.795912 
L 188.490467 113.670283 
L 189.264506 115.4563 
L 189.522519 116.692118 
L 189.716029 117.005241 
L 189.909539 116.828041 
L 189.974042 116.80506 
L 190.232055 116.471894 
L 190.361061 116.221368 
L 190.619074 115.738804 
L 191.006094 116.038827 
L 191.32861 116.833462 
L 191.393114 116.783441 
L 191.52212 116.981414 
L 191.780133 117.534513 
L 191.844636 117.502283 
L 191.973643 117.289775 
L 192.167153 117.39399 
L 192.425166 116.470861 
L 192.876688 114.619263 
L 193.457218 112.737991 
L 193.908741 112.264835 
L 194.231257 111.600625 
L 194.68278 111.232333 
L 194.811786 111.299549 
L 195.005296 111.132771 
L 195.134303 111.136634 
L 195.263309 111.144948 
L 195.456819 111.335101 
L 195.585825 111.462279 
L 195.779335 111.58033 
L 195.908342 111.474796 
L 196.424368 110.452506 
L 196.617878 110.303923 
L 196.811387 110.29068 
L 197.004897 110.469223 
L 197.133904 110.213717 
L 197.327413 109.371407 
L 197.391917 109.390273 
L 197.520923 109.574358 
L 197.778936 109.409045 
L 197.907943 109.251615 
L 198.101453 108.974698 
L 198.359466 109.519152 
L 198.552975 109.217236 
L 198.939995 108.028444 
L 199.004498 108.075794 
L 199.585028 108.460793 
L 199.778537 108.142953 
L 200.03655 107.470746 
L 200.165557 107.406664 
L 200.359067 106.990056 
L 200.746086 105.117164 
L 200.810589 105.136851 
L 201.133106 104.882134 
L 201.391119 104.333549 
L 201.520125 104.692387 
L 201.778138 105.304282 
L 201.907145 105.717115 
L 201.971648 105.676057 
L 202.165158 105.187839 
L 202.423171 105.60377 
L 202.874694 106.803594 
L 203.068204 107.196541 
L 203.326217 107.227001 
L 203.455223 107.304385 
L 203.906746 106.607711 
L 203.971249 106.695841 
L 204.164759 107.126148 
L 204.422772 106.920639 
L 204.874295 107.186637 
L 205.003301 107.356715 
L 205.325818 106.84633 
L 205.583831 107.391487 
L 205.97085 106.56384 
L 206.099857 106.534365 
L 206.293367 106.859212 
L 206.55138 107.295753 
L 206.615883 107.20124 
L 206.615883 107.20124 
" style="fill:none;stroke:#000000;stroke-linecap:square;"/>
   </g>
   <g id="line2d_20">
    <path clip-path="url(#p3c889a48c2)" d="M 51.937066 111.076989 
L 70.707514 111.331119 
L 82.382604 111.695054 
L 89.348957 112.111934 
L 94.509217 112.619381 
L 98.637426 113.229598 
L 102.120602 113.950938 
L 105.474771 114.878164 
L 108.828941 116.056717 
L 115.408273 118.499195 
L 116.762842 118.685164 
L 117.794894 118.602188 
L 118.69794 118.29307 
L 119.471979 117.788941 
L 120.181515 117.074395 
L 120.891051 116.055303 
L 121.600586 114.653831 
L 122.374626 112.575259 
L 123.148665 109.770975 
L 123.922704 106.041288 
L 124.696743 101.128003 
L 125.470782 94.691429 
L 126.244821 86.272364 
L 127.01886 75.222161 
L 127.728396 61.946993 
L 128.437932 44.380315 
L 129.276474 19.622361 
L 129.340978 20.165339 
L 129.598991 27.905707 
L 130.437533 53.009913 
L 131.211572 69.622944 
L 132.050115 82.920949 
L 132.888657 92.793066 
L 133.727199 100.170245 
L 134.565742 105.680473 
L 135.404284 109.770975 
L 136.242826 112.773357 
L 137.081369 114.940383 
L 137.855408 116.367364 
L 138.629447 117.365846 
L 139.403486 118.029694 
L 140.242029 118.45765 
L 141.145074 118.662185 
L 142.177126 118.660237 
L 143.467191 118.420228 
L 145.337786 117.807402 
L 154.884268 114.347968 
L 158.302941 113.536194 
L 162.173137 112.868028 
L 166.817372 112.318617 
L 172.751671 111.871179 
L 181.008089 111.509967 
L 193.844237 111.223125 
L 206.615883 111.076989 
L 206.615883 111.076989 
" style="fill:none;stroke:#ff0000;stroke-dasharray:3.7,1.6;stroke-dashoffset:0;"/>
   </g>
   <g id="patch_3">
    <path d="M 44.203125 128.92249 
L 44.203125 13.931798 
" style="fill:none;stroke:#000000;stroke-linecap:square;stroke-linejoin:miter;stroke-width:0.8;"/>
   </g>
   <g id="patch_4">
    <path d="M 214.349824 128.92249 
L 214.349824 13.931798 
" style="fill:none;stroke:#000000;stroke-linecap:square;stroke-linejoin:miter;stroke-width:0.8;"/>
   </g>
   <g id="patch_5">
    <path d="M 44.203125 128.92249 
L 214.349824 128.92249 
" style="fill:none;stroke:#000000;stroke-linecap:square;stroke-linejoin:miter;stroke-width:0.8;"/>
   </g>
   <g id="patch_6">
    <path d="M 44.203125 13.931798 
L 214.349824 13.931798 
" style="fill:none;stroke:#000000;stroke-linecap:square;stroke-linejoin:miter;stroke-width:0.8;"/>
   </g>
   <g id="legend_1">
    <g id="patch_7">
     <path d="M 134.795449 47.552423 
L 208.049824 47.552423 
Q 209.849824 47.552423 209.849824 45.752423 
L 209.849824 20.231798 
Q 209.849824 18.431798 208.049824 18.431798 
L 134.795449 18.431798 
Q 132.995449 18.431798 132.995449 20.231798 
L 132.995449 45.752423 
Q 132.995449 47.552423 134.795449 47.552423 
z
" style="fill:#ffffff;opacity:0.8;stroke:#cccccc;stroke-linejoin:miter;"/>
    </g>
    <g id="line2d_21">
     <path d="M 136.595449 25.720392 
L 154.595449 25.720392 
" style="fill:none;stroke:#000000;stroke-linecap:square;"/>
    </g>
    <g id="line2d_22"/>
    <g id="text_12">
     <!-- simulated -->
     <defs>
      <path d="M 52 44.1875 
Q 55.375 50.25 60.0625 53.125 
Q 64.75 56 71.09375 56 
Q 79.640625 56 84.28125 50.015625 
Q 88.921875 44.046875 88.921875 33.015625 
L 88.921875 0 
L 79.890625 0 
L 79.890625 32.71875 
Q 79.890625 40.578125 77.09375 44.375 
Q 74.3125 48.1875 68.609375 48.1875 
Q 61.625 48.1875 57.5625 43.546875 
Q 53.515625 38.921875 53.515625 30.90625 
L 53.515625 0 
L 44.484375 0 
L 44.484375 32.71875 
Q 44.484375 40.625 41.703125 44.40625 
Q 38.921875 48.1875 33.109375 48.1875 
Q 26.21875 48.1875 22.15625 43.53125 
Q 18.109375 38.875 18.109375 30.90625 
L 18.109375 0 
L 9.078125 0 
L 9.078125 54.6875 
L 18.109375 54.6875 
L 18.109375 46.1875 
Q 21.1875 51.21875 25.484375 53.609375 
Q 29.78125 56 35.6875 56 
Q 41.65625 56 45.828125 52.96875 
Q 50 49.953125 52 44.1875 
z
" id="DejaVuSans-109"/>
      <path d="M 45.40625 46.390625 
L 45.40625 75.984375 
L 54.390625 75.984375 
L 54.390625 0 
L 45.40625 0 
L 45.40625 8.203125 
Q 42.578125 3.328125 38.25 0.953125 
Q 33.9375 -1.421875 27.875 -1.421875 
Q 17.96875 -1.421875 11.734375 6.484375 
Q 5.515625 14.40625 5.515625 27.296875 
Q 5.515625 40.1875 11.734375 48.09375 
Q 17.96875 56 27.875 56 
Q 33.9375 56 38.25 53.625 
Q 42.578125 51.265625 45.40625 46.390625 
z
M 14.796875 27.296875 
Q 14.796875 17.390625 18.875 11.75 
Q 22.953125 6.109375 30.078125 6.109375 
Q 37.203125 6.109375 41.296875 11.75 
Q 45.40625 17.390625 45.40625 27.296875 
Q 45.40625 37.203125 41.296875 42.84375 
Q 37.203125 48.484375 30.078125 48.484375 
Q 22.953125 48.484375 18.875 42.84375 
Q 14.796875 37.203125 14.796875 27.296875 
z
" id="DejaVuSans-100"/>
     </defs>
     <g transform="translate(161.795449 28.870392)scale(0.09 -0.09)">
      <use xlink:href="#DejaVuSans-115"/>
      <use x="52.099609" xlink:href="#DejaVuSans-105"/>
      <use x="79.882812" xlink:href="#DejaVuSans-109"/>
      <use x="177.294922" xlink:href="#DejaVuSans-117"/>
      <use x="240.673828" xlink:href="#DejaVuSans-108"/>
      <use x="268.457031" xlink:href="#DejaVuSans-97"/>
      <use x="329.736328" xlink:href="#DejaVuSans-116"/>
      <use x="368.945312" xlink:href="#DejaVuSans-101"/>
      <use x="430.46875" xlink:href="#DejaVuSans-100"/>
     </g>
    </g>
    <g id="line2d_23">
     <path d="M 136.595449 38.930705 
L 154.595449 38.930705 
" style="fill:none;stroke:#ff0000;stroke-dasharray:3.7,1.6;stroke-dashoffset:0;"/>
    </g>
    <g id="line2d_24"/>
    <g id="text_13">
     <!-- target -->
     <defs>
      <path d="M 45.40625 27.984375 
Q 45.40625 37.75 41.375 43.109375 
Q 37.359375 48.484375 30.078125 48.484375 
Q 22.859375 48.484375 18.828125 43.109375 
Q 14.796875 37.75 14.796875 27.984375 
Q 14.796875 18.265625 18.828125 12.890625 
Q 22.859375 7.515625 30.078125 7.515625 
Q 37.359375 7.515625 41.375 12.890625 
Q 45.40625 18.265625 45.40625 27.984375 
z
M 54.390625 6.78125 
Q 54.390625 -7.171875 48.1875 -13.984375 
Q 42 -20.796875 29.203125 -20.796875 
Q 24.46875 -20.796875 20.265625 -20.09375 
Q 16.0625 -19.390625 12.109375 -17.921875 
L 12.109375 -9.1875 
Q 16.0625 -11.328125 19.921875 -12.34375 
Q 23.78125 -13.375 27.78125 -13.375 
Q 36.625 -13.375 41.015625 -8.765625 
Q 45.40625 -4.15625 45.40625 5.171875 
L 45.40625 9.625 
Q 42.625 4.78125 38.28125 2.390625 
Q 33.9375 0 27.875 0 
Q 17.828125 0 11.671875 7.65625 
Q 5.515625 15.328125 5.515625 27.984375 
Q 5.515625 40.671875 11.671875 48.328125 
Q 17.828125 56 27.875 56 
Q 33.9375 56 38.28125 53.609375 
Q 42.625 51.21875 45.40625 46.390625 
L 45.40625 54.6875 
L 54.390625 54.6875 
z
" id="DejaVuSans-103"/>
     </defs>
     <g transform="translate(161.795449 42.080705)scale(0.09 -0.09)">
      <use xlink:href="#DejaVuSans-116"/>
      <use x="39.208984" xlink:href="#DejaVuSans-97"/>
      <use x="100.488281" xlink:href="#DejaVuSans-114"/>
      <use x="141.585938" xlink:href="#DejaVuSans-103"/>
      <use x="205.0625" xlink:href="#DejaVuSans-101"/>
      <use x="266.585938" xlink:href="#DejaVuSans-116"/>
     </g>
    </g>
   </g>
  </g>
 </g>
 <defs>
  <clipPath id="p3c889a48c2">
   <rect height="114.990692" width="170.146699" x="44.203125" y="13.931798"/>
  </clipPath>
 </defs>
</svg>
