<?xml version="1.0" encoding="utf-8" standalone="no"?>
<!DOCTYPE svg PUBLIC "-//W3C//DTD SVG 1.1//EN"
  "http://www.w3.org/Graphics/SVG/1.1/DTD/svg11.dtd">
<!-- Created with matplotlib (https://matplotlib.org/) -->
<svg height="170.07874pt" version="1.1" viewBox="0 0 226.771654 170.07874" width="226.771654pt" xmlns="http://www.w3.org/2000/svg" xmlns:xlink="http://www.w3.org/1999/xlink">
 <defs>
  <style type="text/css">
*{stroke-linecap:butt;stroke-linejoin:round;}
  </style>
 </defs>
 <g id="figure_1">
  <g id="patch_1">
   <path d="M 0 170.07874 
L 226.771654 170.07874 
L 226.771654 0 
L 0 0 
z
" style="fill:#ffffff;"/>
  </g>
  <g id="axes_1">
   <g id="patch_2">
    <path d="M 44.203125 128.92249 
L 214.349824 128.92249 
L 214.349824 10.8 
L 44.203125 10.8 
z
" style="fill:#ffffff;"/>
   </g>
   <g id="matplotlib.axis_1">
    <g id="xtick_1">
     <g id="line2d_1">
      <path clip-path="url(#p60ba20d52d)" d="M 51.872563 128.92249 
L 51.872563 10.8 
" style="fill:none;stroke:#b0b0b0;stroke-linecap:square;stroke-width:0.8;"/>
     </g>
     <g id="line2d_2">
      <defs>
       <path d="M 0 0 
L 0 3.5 
" id="m606d522425" style="stroke:#000000;stroke-width:0.8;"/>
      </defs>
      <g>
       <use style="stroke:#000000;stroke-width:0.8;" x="51.872563" xlink:href="#m606d522425" y="128.92249"/>
      </g>
     </g>
     <g id="text_1">
      <!-- −100 -->
      <defs>
       <path d="M 10.59375 35.5 
L 73.1875 35.5 
L 73.1875 27.203125 
L 10.59375 27.203125 
z
" id="DejaVuSans-8722"/>
       <path d="M 12.40625 8.296875 
L 28.515625 8.296875 
L 28.515625 63.921875 
L 10.984375 60.40625 
L 10.984375 69.390625 
L 28.421875 72.90625 
L 38.28125 72.90625 
L 38.28125 8.296875 
L 54.390625 8.296875 
L 54.390625 0 
L 12.40625 0 
z
" id="DejaVuSans-49"/>
       <path d="M 31.78125 66.40625 
Q 24.171875 66.40625 20.328125 58.90625 
Q 16.5 51.421875 16.5 36.375 
Q 16.5 21.390625 20.328125 13.890625 
Q 24.171875 6.390625 31.78125 6.390625 
Q 39.453125 6.390625 43.28125 13.890625 
Q 47.125 21.390625 47.125 36.375 
Q 47.125 51.421875 43.28125 58.90625 
Q 39.453125 66.40625 31.78125 66.40625 
z
M 31.78125 74.21875 
Q 44.046875 74.21875 50.515625 64.515625 
Q 56.984375 54.828125 56.984375 36.375 
Q 56.984375 17.96875 50.515625 8.265625 
Q 44.046875 -1.421875 31.78125 -1.421875 
Q 19.53125 -1.421875 13.0625 8.265625 
Q 6.59375 17.96875 6.59375 36.375 
Q 6.59375 54.828125 13.0625 64.515625 
Q 19.53125 74.21875 31.78125 74.21875 
z
" id="DejaVuSans-48"/>
      </defs>
      <g transform="translate(38.138969 143.520928)scale(0.1 -0.1)">
       <use xlink:href="#DejaVuSans-8722"/>
       <use x="83.789062" xlink:href="#DejaVuSans-49"/>
       <use x="147.412109" xlink:href="#DejaVuSans-48"/>
       <use x="211.035156" xlink:href="#DejaVuSans-48"/>
      </g>
     </g>
    </g>
    <g id="xtick_2">
     <g id="line2d_3">
      <path clip-path="url(#p60ba20d52d)" d="M 90.574518 128.92249 
L 90.574518 10.8 
" style="fill:none;stroke:#b0b0b0;stroke-linecap:square;stroke-width:0.8;"/>
     </g>
     <g id="line2d_4">
      <g>
       <use style="stroke:#000000;stroke-width:0.8;" x="90.574518" xlink:href="#m606d522425" y="128.92249"/>
      </g>
     </g>
     <g id="text_2">
      <!-- −50 -->
      <defs>
       <path d="M 10.796875 72.90625 
L 49.515625 72.90625 
L 49.515625 64.59375 
L 19.828125 64.59375 
L 19.828125 46.734375 
Q 21.96875 47.46875 24.109375 47.828125 
Q 26.265625 48.1875 28.421875 48.1875 
Q 40.625 48.1875 47.75 41.5 
Q 54.890625 34.8125 54.890625 23.390625 
Q 54.890625 11.625 47.5625 5.09375 
Q 40.234375 -1.421875 26.90625 -1.421875 
Q 22.3125 -1.421875 17.546875 -0.640625 
Q 12.796875 0.140625 7.71875 1.703125 
L 7.71875 11.625 
Q 12.109375 9.234375 16.796875 8.0625 
Q 21.484375 6.890625 26.703125 6.890625 
Q 35.15625 6.890625 40.078125 11.328125 
Q 45.015625 15.765625 45.015625 23.390625 
Q 45.015625 31 40.078125 35.4375 
Q 35.15625 39.890625 26.703125 39.890625 
Q 22.75 39.890625 18.8125 39.015625 
Q 14.890625 38.140625 10.796875 36.28125 
z
" id="DejaVuSans-53"/>
      </defs>
      <g transform="translate(80.022175 143.520928)scale(0.1 -0.1)">
       <use xlink:href="#DejaVuSans-8722"/>
       <use x="83.789062" xlink:href="#DejaVuSans-53"/>
       <use x="147.412109" xlink:href="#DejaVuSans-48"/>
      </g>
     </g>
    </g>
    <g id="xtick_3">
     <g id="line2d_5">
      <path clip-path="url(#p60ba20d52d)" d="M 129.276474 128.92249 
L 129.276474 10.8 
" style="fill:none;stroke:#b0b0b0;stroke-linecap:square;stroke-width:0.8;"/>
     </g>
     <g id="line2d_6">
      <g>
       <use style="stroke:#000000;stroke-width:0.8;" x="129.276474" xlink:href="#m606d522425" y="128.92249"/>
      </g>
     </g>
     <g id="text_3">
      <!-- 0 -->
      <g transform="translate(126.095224 143.520928)scale(0.1 -0.1)">
       <use xlink:href="#DejaVuSans-48"/>
      </g>
     </g>
    </g>
    <g id="xtick_4">
     <g id="line2d_7">
      <path clip-path="url(#p60ba20d52d)" d="M 167.97843 128.92249 
L 167.97843 10.8 
" style="fill:none;stroke:#b0b0b0;stroke-linecap:square;stroke-width:0.8;"/>
     </g>
     <g id="line2d_8">
      <g>
       <use style="stroke:#000000;stroke-width:0.8;" x="167.97843" xlink:href="#m606d522425" y="128.92249"/>
      </g>
     </g>
     <g id="text_4">
      <!-- 50 -->
      <g transform="translate(161.61593 143.520928)scale(0.1 -0.1)">
       <use xlink:href="#DejaVuSans-53"/>
       <use x="63.623047" xlink:href="#DejaVuSans-48"/>
      </g>
     </g>
    </g>
    <g id="xtick_5">
     <g id="line2d_9">
      <path clip-path="url(#p60ba20d52d)" d="M 206.680386 128.92249 
L 206.680386 10.8 
" style="fill:none;stroke:#b0b0b0;stroke-linecap:square;stroke-width:0.8;"/>
     </g>
     <g id="line2d_10">
      <g>
       <use style="stroke:#000000;stroke-width:0.8;" x="206.680386" xlink:href="#m606d522425" y="128.92249"/>
      </g>
     </g>
     <g id="text_5">
      <!-- 100 -->
      <g transform="translate(197.136636 143.520928)scale(0.1 -0.1)">
       <use xlink:href="#DejaVuSans-49"/>
       <use x="63.623047" xlink:href="#DejaVuSans-48"/>
       <use x="127.246094" xlink:href="#DejaVuSans-48"/>
      </g>
     </g>
    </g>
    <g id="text_6">
     <!-- $\tau$ (s) -->
     <defs>
      <path d="M 32.859375 9.96875 
Q 34.1875 7.625 39.453125 7.625 
L 43.75 7.625 
L 42.28125 0 
L 36.921875 0 
Q 28.125 0 25 4.6875 
Q 21.921875 9.46875 23.96875 19.828125 
L 29 45.703125 
L 8.453125 45.703125 
L 10.203125 54.6875 
L 60.640625 54.6875 
L 58.890625 45.703125 
L 38.1875 45.703125 
L 33.015625 19.28125 
Q 31.640625 12.203125 32.859375 9.96875 
z
" id="DejaVuSans-Oblique-964"/>
      <path id="DejaVuSans-32"/>
      <path d="M 31 75.875 
Q 24.46875 64.65625 21.28125 53.65625 
Q 18.109375 42.671875 18.109375 31.390625 
Q 18.109375 20.125 21.3125 9.0625 
Q 24.515625 -2 31 -13.1875 
L 23.1875 -13.1875 
Q 15.875 -1.703125 12.234375 9.375 
Q 8.59375 20.453125 8.59375 31.390625 
Q 8.59375 42.28125 12.203125 53.3125 
Q 15.828125 64.359375 23.1875 75.875 
z
" id="DejaVuSans-40"/>
      <path d="M 44.28125 53.078125 
L 44.28125 44.578125 
Q 40.484375 46.53125 36.375 47.5 
Q 32.28125 48.484375 27.875 48.484375 
Q 21.1875 48.484375 17.84375 46.4375 
Q 14.5 44.390625 14.5 40.28125 
Q 14.5 37.15625 16.890625 35.375 
Q 19.28125 33.59375 26.515625 31.984375 
L 29.59375 31.296875 
Q 39.15625 29.25 43.1875 25.515625 
Q 47.21875 21.78125 47.21875 15.09375 
Q 47.21875 7.46875 41.1875 3.015625 
Q 35.15625 -1.421875 24.609375 -1.421875 
Q 20.21875 -1.421875 15.453125 -0.5625 
Q 10.6875 0.296875 5.421875 2 
L 5.421875 11.28125 
Q 10.40625 8.6875 15.234375 7.390625 
Q 20.0625 6.109375 24.8125 6.109375 
Q 31.15625 6.109375 34.5625 8.28125 
Q 37.984375 10.453125 37.984375 14.40625 
Q 37.984375 18.0625 35.515625 20.015625 
Q 33.0625 21.96875 24.703125 23.78125 
L 21.578125 24.515625 
Q 13.234375 26.265625 9.515625 29.90625 
Q 5.8125 33.546875 5.8125 39.890625 
Q 5.8125 47.609375 11.28125 51.796875 
Q 16.75 56 26.8125 56 
Q 31.78125 56 36.171875 55.265625 
Q 40.578125 54.546875 44.28125 53.078125 
z
" id="DejaVuSans-115"/>
      <path d="M 8.015625 75.875 
L 15.828125 75.875 
Q 23.140625 64.359375 26.78125 53.3125 
Q 30.421875 42.28125 30.421875 31.390625 
Q 30.421875 20.453125 26.78125 9.375 
Q 23.140625 -1.703125 15.828125 -13.1875 
L 8.015625 -13.1875 
Q 14.5 -2 17.703125 9.0625 
Q 20.90625 20.125 20.90625 31.390625 
Q 20.90625 42.671875 17.703125 53.65625 
Q 14.5 64.65625 8.015625 75.875 
z
" id="DejaVuSans-41"/>
     </defs>
     <g transform="translate(118.126474 157.199053)scale(0.1 -0.1)">
      <use transform="translate(0 0.125)" xlink:href="#DejaVuSans-Oblique-964"/>
      <use transform="translate(60.205078 0.125)" xlink:href="#DejaVuSans-32"/>
      <use transform="translate(91.992188 0.125)" xlink:href="#DejaVuSans-40"/>
      <use transform="translate(131.005859 0.125)" xlink:href="#DejaVuSans-115"/>
      <use transform="translate(183.105469 0.125)" xlink:href="#DejaVuSans-41"/>
     </g>
    </g>
   </g>
   <g id="matplotlib.axis_2">
    <g id="ytick_1">
     <g id="line2d_11">
      <path clip-path="url(#p60ba20d52d)" d="M 44.203125 107.018013 
L 214.349824 107.018013 
" style="fill:none;stroke:#b0b0b0;stroke-linecap:square;stroke-width:0.8;"/>
     </g>
     <g id="line2d_12">
      <defs>
       <path d="M 0 0 
L -3.5 0 
" id="m6b6a921284" style="stroke:#000000;stroke-width:0.8;"/>
      </defs>
      <g>
       <use style="stroke:#000000;stroke-width:0.8;" x="44.203125" xlink:href="#m6b6a921284" y="107.018013"/>
      </g>
     </g>
     <g id="text_7">
      <!-- 0 -->
      <g transform="translate(30.840625 110.817232)scale(0.1 -0.1)">
       <use xlink:href="#DejaVuSans-48"/>
      </g>
     </g>
    </g>
    <g id="ytick_2">
     <g id="line2d_13">
      <path clip-path="url(#p60ba20d52d)" d="M 44.203125 71.805031 
L 214.349824 71.805031 
" style="fill:none;stroke:#b0b0b0;stroke-linecap:square;stroke-width:0.8;"/>
     </g>
     <g id="line2d_14">
      <g>
       <use style="stroke:#000000;stroke-width:0.8;" x="44.203125" xlink:href="#m6b6a921284" y="71.805031"/>
      </g>
     </g>
     <g id="text_8">
      <!-- 5 -->
      <g transform="translate(30.840625 75.604249)scale(0.1 -0.1)">
       <use xlink:href="#DejaVuSans-53"/>
      </g>
     </g>
    </g>
    <g id="ytick_3">
     <g id="line2d_15">
      <path clip-path="url(#p60ba20d52d)" d="M 44.203125 36.592048 
L 214.349824 36.592048 
" style="fill:none;stroke:#b0b0b0;stroke-linecap:square;stroke-width:0.8;"/>
     </g>
     <g id="line2d_16">
      <g>
       <use style="stroke:#000000;stroke-width:0.8;" x="44.203125" xlink:href="#m6b6a921284" y="36.592048"/>
      </g>
     </g>
     <g id="text_9">
      <!-- 10 -->
      <g transform="translate(24.478125 40.391267)scale(0.1 -0.1)">
       <use xlink:href="#DejaVuSans-49"/>
       <use x="63.623047" xlink:href="#DejaVuSans-48"/>
      </g>
     </g>
    </g>
    <g id="text_10">
     <!-- correlation function -->
     <defs>
      <path d="M 48.78125 52.59375 
L 48.78125 44.1875 
Q 44.96875 46.296875 41.140625 47.34375 
Q 37.3125 48.390625 33.40625 48.390625 
Q 24.65625 48.390625 19.8125 42.84375 
Q 14.984375 37.3125 14.984375 27.296875 
Q 14.984375 17.28125 19.8125 11.734375 
Q 24.65625 6.203125 33.40625 6.203125 
Q 37.3125 6.203125 41.140625 7.25 
Q 44.96875 8.296875 48.78125 10.40625 
L 48.78125 2.09375 
Q 45.015625 0.34375 40.984375 -0.53125 
Q 36.96875 -1.421875 32.421875 -1.421875 
Q 20.0625 -1.421875 12.78125 6.34375 
Q 5.515625 14.109375 5.515625 27.296875 
Q 5.515625 40.671875 12.859375 48.328125 
Q 20.21875 56 33.015625 56 
Q 37.15625 56 41.109375 55.140625 
Q 45.0625 54.296875 48.78125 52.59375 
z
" id="DejaVuSans-99"/>
      <path d="M 30.609375 48.390625 
Q 23.390625 48.390625 19.1875 42.75 
Q 14.984375 37.109375 14.984375 27.296875 
Q 14.984375 17.484375 19.15625 11.84375 
Q 23.34375 6.203125 30.609375 6.203125 
Q 37.796875 6.203125 41.984375 11.859375 
Q 46.1875 17.53125 46.1875 27.296875 
Q 46.1875 37.015625 41.984375 42.703125 
Q 37.796875 48.390625 30.609375 48.390625 
z
M 30.609375 56 
Q 42.328125 56 49.015625 48.375 
Q 55.71875 40.765625 55.71875 27.296875 
Q 55.71875 13.875 49.015625 6.21875 
Q 42.328125 -1.421875 30.609375 -1.421875 
Q 18.84375 -1.421875 12.171875 6.21875 
Q 5.515625 13.875 5.515625 27.296875 
Q 5.515625 40.765625 12.171875 48.375 
Q 18.84375 56 30.609375 56 
z
" id="DejaVuSans-111"/>
      <path d="M 41.109375 46.296875 
Q 39.59375 47.171875 37.8125 47.578125 
Q 36.03125 48 33.890625 48 
Q 26.265625 48 22.1875 43.046875 
Q 18.109375 38.09375 18.109375 28.8125 
L 18.109375 0 
L 9.078125 0 
L 9.078125 54.6875 
L 18.109375 54.6875 
L 18.109375 46.1875 
Q 20.953125 51.171875 25.484375 53.578125 
Q 30.03125 56 36.53125 56 
Q 37.453125 56 38.578125 55.875 
Q 39.703125 55.765625 41.0625 55.515625 
z
" id="DejaVuSans-114"/>
      <path d="M 56.203125 29.59375 
L 56.203125 25.203125 
L 14.890625 25.203125 
Q 15.484375 15.921875 20.484375 11.0625 
Q 25.484375 6.203125 34.421875 6.203125 
Q 39.59375 6.203125 44.453125 7.46875 
Q 49.3125 8.734375 54.109375 11.28125 
L 54.109375 2.78125 
Q 49.265625 0.734375 44.1875 -0.34375 
Q 39.109375 -1.421875 33.890625 -1.421875 
Q 20.796875 -1.421875 13.15625 6.1875 
Q 5.515625 13.8125 5.515625 26.8125 
Q 5.515625 40.234375 12.765625 48.109375 
Q 20.015625 56 32.328125 56 
Q 43.359375 56 49.78125 48.890625 
Q 56.203125 41.796875 56.203125 29.59375 
z
M 47.21875 32.234375 
Q 47.125 39.59375 43.09375 43.984375 
Q 39.0625 48.390625 32.421875 48.390625 
Q 24.90625 48.390625 20.390625 44.140625 
Q 15.875 39.890625 15.1875 32.171875 
z
" id="DejaVuSans-101"/>
      <path d="M 9.421875 75.984375 
L 18.40625 75.984375 
L 18.40625 0 
L 9.421875 0 
z
" id="DejaVuSans-108"/>
      <path d="M 34.28125 27.484375 
Q 23.390625 27.484375 19.1875 25 
Q 14.984375 22.515625 14.984375 16.5 
Q 14.984375 11.71875 18.140625 8.90625 
Q 21.296875 6.109375 26.703125 6.109375 
Q 34.1875 6.109375 38.703125 11.40625 
Q 43.21875 16.703125 43.21875 25.484375 
L 43.21875 27.484375 
z
M 52.203125 31.203125 
L 52.203125 0 
L 43.21875 0 
L 43.21875 8.296875 
Q 40.140625 3.328125 35.546875 0.953125 
Q 30.953125 -1.421875 24.3125 -1.421875 
Q 15.921875 -1.421875 10.953125 3.296875 
Q 6 8.015625 6 15.921875 
Q 6 25.140625 12.171875 29.828125 
Q 18.359375 34.515625 30.609375 34.515625 
L 43.21875 34.515625 
L 43.21875 35.40625 
Q 43.21875 41.609375 39.140625 45 
Q 35.0625 48.390625 27.6875 48.390625 
Q 23 48.390625 18.546875 47.265625 
Q 14.109375 46.140625 10.015625 43.890625 
L 10.015625 52.203125 
Q 14.9375 54.109375 19.578125 55.046875 
Q 24.21875 56 28.609375 56 
Q 40.484375 56 46.34375 49.84375 
Q 52.203125 43.703125 52.203125 31.203125 
z
" id="DejaVuSans-97"/>
      <path d="M 18.3125 70.21875 
L 18.3125 54.6875 
L 36.8125 54.6875 
L 36.8125 47.703125 
L 18.3125 47.703125 
L 18.3125 18.015625 
Q 18.3125 11.328125 20.140625 9.421875 
Q 21.96875 7.515625 27.59375 7.515625 
L 36.8125 7.515625 
L 36.8125 0 
L 27.59375 0 
Q 17.1875 0 13.234375 3.875 
Q 9.28125 7.765625 9.28125 18.015625 
L 9.28125 47.703125 
L 2.6875 47.703125 
L 2.6875 54.6875 
L 9.28125 54.6875 
L 9.28125 70.21875 
z
" id="DejaVuSans-116"/>
      <path d="M 9.421875 54.6875 
L 18.40625 54.6875 
L 18.40625 0 
L 9.421875 0 
z
M 9.421875 75.984375 
L 18.40625 75.984375 
L 18.40625 64.59375 
L 9.421875 64.59375 
z
" id="DejaVuSans-105"/>
      <path d="M 54.890625 33.015625 
L 54.890625 0 
L 45.90625 0 
L 45.90625 32.71875 
Q 45.90625 40.484375 42.875 44.328125 
Q 39.84375 48.1875 33.796875 48.1875 
Q 26.515625 48.1875 22.3125 43.546875 
Q 18.109375 38.921875 18.109375 30.90625 
L 18.109375 0 
L 9.078125 0 
L 9.078125 54.6875 
L 18.109375 54.6875 
L 18.109375 46.1875 
Q 21.34375 51.125 25.703125 53.5625 
Q 30.078125 56 35.796875 56 
Q 45.21875 56 50.046875 50.171875 
Q 54.890625 44.34375 54.890625 33.015625 
z
" id="DejaVuSans-110"/>
      <path d="M 37.109375 75.984375 
L 37.109375 68.5 
L 28.515625 68.5 
Q 23.6875 68.5 21.796875 66.546875 
Q 19.921875 64.59375 19.921875 59.515625 
L 19.921875 54.6875 
L 34.71875 54.6875 
L 34.71875 47.703125 
L 19.921875 47.703125 
L 19.921875 0 
L 10.890625 0 
L 10.890625 47.703125 
L 2.296875 47.703125 
L 2.296875 54.6875 
L 10.890625 54.6875 
L 10.890625 58.5 
Q 10.890625 67.625 15.140625 71.796875 
Q 19.390625 75.984375 28.609375 75.984375 
z
" id="DejaVuSans-102"/>
      <path d="M 8.5 21.578125 
L 8.5 54.6875 
L 17.484375 54.6875 
L 17.484375 21.921875 
Q 17.484375 14.15625 20.5 10.265625 
Q 23.53125 6.390625 29.59375 6.390625 
Q 36.859375 6.390625 41.078125 11.03125 
Q 45.3125 15.671875 45.3125 23.6875 
L 45.3125 54.6875 
L 54.296875 54.6875 
L 54.296875 0 
L 45.3125 0 
L 45.3125 8.40625 
Q 42.046875 3.421875 37.71875 1 
Q 33.40625 -1.421875 27.6875 -1.421875 
Q 18.265625 -1.421875 13.375 4.4375 
Q 8.5 10.296875 8.5 21.578125 
z
M 31.109375 56 
z
" id="DejaVuSans-117"/>
     </defs>
     <g transform="translate(18.398438 118.898745)rotate(-90)scale(0.1 -0.1)">
      <use xlink:href="#DejaVuSans-99"/>
      <use x="54.980469" xlink:href="#DejaVuSans-111"/>
      <use x="116.162109" xlink:href="#DejaVuSans-114"/>
      <use x="157.259766" xlink:href="#DejaVuSans-114"/>
      <use x="198.341797" xlink:href="#DejaVuSans-101"/>
      <use x="259.865234" xlink:href="#DejaVuSans-108"/>
      <use x="287.648438" xlink:href="#DejaVuSans-97"/>
      <use x="348.927734" xlink:href="#DejaVuSans-116"/>
      <use x="388.136719" xlink:href="#DejaVuSans-105"/>
      <use x="415.919922" xlink:href="#DejaVuSans-111"/>
      <use x="477.101562" xlink:href="#DejaVuSans-110"/>
      <use x="540.480469" xlink:href="#DejaVuSans-32"/>
      <use x="572.267578" xlink:href="#DejaVuSans-102"/>
      <use x="607.472656" xlink:href="#DejaVuSans-117"/>
      <use x="670.851562" xlink:href="#DejaVuSans-110"/>
      <use x="734.230469" xlink:href="#DejaVuSans-99"/>
      <use x="789.210938" xlink:href="#DejaVuSans-116"/>
      <use x="828.419922" xlink:href="#DejaVuSans-105"/>
      <use x="856.203125" xlink:href="#DejaVuSans-111"/>
      <use x="917.384766" xlink:href="#DejaVuSans-110"/>
     </g>
    </g>
   </g>
   <g id="line2d_17">
    <path clip-path="url(#p60ba20d52d)" d="M 51.937066 103.44578 
L 52.066072 103.506095 
L 52.259582 103.801603 
L 52.711105 103.712784 
L 52.904615 103.856606 
L 53.162628 103.697311 
L 53.291634 103.803075 
L 53.420641 103.681087 
L 53.485144 103.75705 
L 53.936667 104.657613 
L 54.065673 104.369262 
L 54.710706 102.961154 
L 54.904216 103.069874 
L 55.226732 102.799543 
L 55.549248 102.022344 
L 56.000771 102.241346 
L 56.194281 101.325199 
L 56.387791 100.866032 
L 56.645804 100.893834 
L 56.710307 100.814525 
L 56.77481 100.879103 
L 56.903817 101.19408 
L 57.097327 100.80891 
L 57.16183 100.865118 
L 57.484346 101.767552 
L 57.548849 101.681881 
L 57.613353 101.667454 
L 57.806862 102.488891 
L 58.451895 104.935977 
L 58.580902 104.860736 
L 58.709908 105.156894 
L 59.225934 107.108128 
L 59.548451 108.768657 
L 59.677457 109.129451 
L 59.870967 109.747342 
L 60.32249 110.736764 
L 60.580503 111.900404 
L 60.774012 112.8389 
L 60.903019 112.831897 
L 61.096529 112.612962 
L 61.677058 110.459129 
L 61.999574 109.437209 
L 62.451097 109.264417 
L 62.580104 109.426682 
L 62.644607 109.540942 
L 62.70911 109.4779 
L 63.09613 108.542169 
L 63.225136 108.153962 
L 63.354143 107.730207 
L 63.483149 107.97841 
L 63.547653 107.886186 
L 63.676659 107.603301 
L 63.741162 107.64677 
L 63.934672 107.72948 
L 64.257188 107.513755 
L 64.773215 106.691317 
L 64.902221 106.498743 
L 65.095731 106.061366 
L 65.224737 106.321488 
L 65.67626 107.707609 
L 65.805267 107.682689 
L 65.998776 107.502576 
L 66.127783 107.516692 
L 66.25679 107.416973 
L 66.837319 108.154489 
L 67.030829 108.894965 
L 67.159835 109.292244 
L 67.417848 109.167981 
L 67.546855 109.126286 
L 67.675861 108.990422 
L 67.933874 109.097091 
L 68.514404 108.757792 
L 68.901423 107.64793 
L 68.965926 107.739795 
L 69.159436 107.879021 
L 69.481953 107.837696 
L 69.739966 108.057103 
L 70.191488 107.579373 
L 70.255992 107.588317 
L 70.449501 107.947444 
L 70.514005 107.855184 
L 70.707514 107.648829 
L 70.901024 107.91071 
L 71.094534 107.63908 
L 71.675063 108.605928 
L 71.739567 108.615074 
L 72.062083 107.871969 
L 72.126586 107.995193 
L 72.449102 109.178255 
L 72.642612 108.794658 
L 72.707116 108.848217 
L 72.836122 109.062082 
L 72.900625 109.032355 
L 73.029632 109.06128 
L 73.158638 109.049078 
L 73.352148 108.837358 
L 73.481155 109.118818 
L 73.868174 111.202979 
L 74.061684 111.871386 
L 74.19069 111.981116 
L 74.57771 112.646282 
L 74.77122 112.344679 
L 74.96473 111.650837 
L 75.287246 112.308454 
L 75.674265 112.720047 
L 76.061285 112.16295 
L 76.448305 110.888306 
L 76.706318 109.319058 
L 76.899827 108.783894 
L 77.286847 109.380132 
L 77.609363 109.907525 
L 78.189893 112.026298 
L 78.254396 111.965251 
L 78.641415 110.755755 
L 79.092938 108.906239 
L 79.221945 108.799244 
L 79.415455 108.454238 
L 79.673468 108.564514 
L 80.060487 107.707311 
L 80.12499 107.6512 
L 80.3185 108.277347 
L 80.963533 110.286797 
L 81.221546 110.21059 
L 81.415056 110.506469 
L 81.608565 110.290695 
L 81.866578 109.291284 
L 82.124591 108.698363 
L 82.318101 108.743934 
L 82.511611 108.748286 
L 82.769624 108.229111 
L 82.834127 108.321717 
L 82.898631 108.343465 
L 83.414657 107.189991 
L 84.124192 103.690404 
L 84.253199 103.843821 
L 84.446709 104.268544 
L 84.511212 104.188633 
L 84.640219 103.80367 
L 84.704722 103.845403 
L 85.414258 105.791524 
L 85.930284 104.777416 
L 86.2528 104.775896 
L 86.510813 105.285399 
L 87.026839 107.449237 
L 87.155846 107.348642 
L 87.478362 107.158138 
L 87.736375 106.511868 
L 87.800878 106.621776 
L 87.929885 106.782064 
L 88.058891 106.642071 
L 88.187898 107.097712 
L 88.574917 108.505739 
L 88.703924 108.374438 
L 88.961937 109.108714 
L 89.155447 109.0527 
L 89.348957 109.484882 
L 89.735976 108.653858 
L 89.800479 108.725086 
L 89.993989 108.942188 
L 90.058492 108.882017 
L 90.961538 105.743343 
L 91.090545 105.516592 
L 91.542067 103.833248 
L 91.606571 103.863761 
L 92.058093 104.86843 
L 92.703126 107.561698 
L 92.832133 107.700999 
L 93.477165 111.096726 
L 93.606172 110.9461 
L 93.799681 111.147448 
L 93.993191 110.895868 
L 94.122198 111.112278 
L 94.444714 111.754352 
L 94.509217 111.773116 
L 94.702727 111.532213 
L 94.831734 111.608139 
L 95.025243 111.493604 
L 95.089747 111.45181 
L 95.34776 110.32162 
L 95.412263 110.34811 
L 96.121799 111.392487 
L 96.315309 111.405271 
L 96.508818 111.511472 
L 97.089348 110.766697 
L 97.347361 109.982162 
L 97.476367 110.31313 
L 97.669877 110.819435 
L 97.863387 110.816827 
L 97.992393 110.885762 
L 98.379413 112.168456 
L 98.508419 112.520363 
L 98.766432 112.407478 
L 99.346962 114.442591 
L 99.604975 114.211201 
L 99.733981 113.996278 
L 99.927491 114.338779 
L 99.991994 114.277651 
L 100.121001 114.308951 
L 100.379014 115.348821 
L 100.830537 117.348989 
L 100.959543 117.455837 
L 101.08855 117.063019 
L 101.411066 114.840104 
L 101.798086 111.558835 
L 102.249608 109.285468 
L 102.378615 109.148504 
L 102.636628 109.518717 
L 102.701131 109.47386 
L 102.830138 109.211986 
L 103.088151 108.591961 
L 103.217157 108.85548 
L 103.410667 109.247476 
L 103.926693 109.429794 
L 104.184706 108.94153 
L 104.378216 109.088723 
L 104.765236 108.333513 
L 104.894242 108.005342 
L 105.023249 108.083967 
L 105.281262 107.379651 
L 105.474771 107.019968 
L 105.732785 107.198787 
L 106.055301 107.913935 
L 106.377817 106.556633 
L 106.700333 105.044077 
L 106.82934 104.973899 
L 107.087353 105.264797 
L 107.345366 106.010549 
L 107.603379 105.608888 
L 107.861392 105.251297 
L 108.699934 107.411995 
L 108.764438 107.371024 
L 108.893444 107.567618 
L 109.086954 108.634076 
L 109.280464 109.649397 
L 109.473974 109.51779 
L 109.99 111.3921 
L 110.377019 112.376794 
L 110.635032 112.719792 
L 110.893045 112.358937 
L 111.538078 114.1234 
L 111.667084 114.199465 
L 111.860594 113.737442 
L 111.989601 113.425403 
L 112.054104 113.459425 
L 112.505627 114.566193 
L 112.57013 114.625475 
L 112.634633 114.542314 
L 112.76364 114.424119 
L 112.95715 114.466455 
L 113.086156 114.501426 
L 113.279666 114.80961 
L 113.860195 113.39893 
L 114.053705 112.84407 
L 114.182712 112.683794 
L 114.505228 112.135382 
L 114.698738 112.387205 
L 114.892247 112.088423 
L 115.214764 112.493428 
L 115.34377 112.570647 
L 115.601783 111.924992 
L 115.666287 112.086269 
L 116.053306 113.063591 
L 116.311319 113.815264 
L 116.440326 113.962716 
L 116.698339 114.528664 
L 117.407875 116.869499 
L 117.601384 117.496492 
L 117.730391 118.072348 
L 117.859397 118.595265 
L 117.988404 118.56519 
L 118.181914 118.730887 
L 118.31092 118.856776 
L 119.149463 121.323218 
L 119.278469 121.500039 
L 119.342972 121.461568 
L 119.471979 121.307855 
L 119.988005 122.844083 
L 120.181515 123.46398 
L 120.310521 123.553286 
L 120.439528 123.269227 
L 120.826547 122.230759 
L 121.020057 121.676332 
L 121.27807 121.053791 
L 121.600586 120.016355 
L 122.181116 116.886756 
L 122.632639 114.364227 
L 122.761645 113.730551 
L 123.084161 111.482444 
L 123.213168 111.383378 
L 123.535684 110.121778 
L 123.793697 108.598284 
L 124.825749 99.9683 
L 125.148266 95.715516 
L 126.051311 79.525087 
L 126.502834 71.840674 
L 127.40588 57.765867 
L 128.566938 33.057111 
L 128.953958 22.056003 
L 129.211971 16.309057 
L 129.276474 16.169204 
L 129.405481 17.311081 
L 129.663494 23.294593 
L 131.340579 68.31957 
L 132.501637 81.749041 
L 132.75965 84.0829 
L 133.469186 91.961565 
L 134.307729 98.004505 
L 134.565742 99.175274 
L 135.210774 102.888052 
L 135.339781 102.654122 
L 135.7268 101.900452 
L 136.242826 103.619759 
L 136.694349 105.745274 
L 136.952362 106.783204 
L 137.468388 108.593814 
L 137.597395 109.016488 
L 137.855408 110.104039 
L 137.984414 110.336601 
L 138.242427 111.166782 
L 138.306931 111.145882 
L 138.371434 111.185271 
L 138.629447 112.029962 
L 138.69395 111.993437 
L 138.88746 111.689937 
L 139.08097 111.721549 
L 139.209976 111.584956 
L 139.790506 112.1253 
L 139.919512 112.0428 
L 140.306532 111.259629 
L 140.500042 111.04223 
L 140.951564 111.900838 
L 141.016068 111.809858 
L 141.46759 110.660287 
L 141.532094 110.772953 
L 141.6611 111.05223 
L 141.725603 110.987246 
L 141.85461 110.764135 
L 142.112623 111.316279 
L 142.435139 112.373565 
L 143.015669 112.700885 
L 143.273682 114.109577 
L 143.338185 114.007917 
L 143.402688 114.002256 
L 143.854211 115.32264 
L 144.047721 115.135747 
L 144.112224 115.243356 
L 144.305734 115.795726 
L 144.563747 116.446076 
L 144.757257 116.370194 
L 144.950766 116.871738 
L 145.144276 116.68701 
L 145.337786 116.734097 
L 145.595799 116.548069 
L 145.789309 116.601449 
L 145.982819 116.638731 
L 146.369838 116.976337 
L 146.627851 116.750358 
L 146.821361 117.058383 
L 147.079374 117.380681 
L 147.208381 117.437829 
L 147.466394 117.169475 
L 147.5954 116.912963 
L 148.046923 115.517481 
L 148.369439 114.261514 
L 148.498446 114.522372 
L 148.627452 114.762377 
L 148.756459 114.684369 
L 149.143478 115.362399 
L 149.207982 115.284997 
L 149.465995 114.516465 
L 149.659504 114.487099 
L 150.046524 116.136162 
L 150.175531 116.029922 
L 150.36904 116.327068 
L 150.56255 116.161607 
L 150.94957 113.79297 
L 151.143079 113.03459 
L 151.336589 112.272369 
L 152.691158 105.259983 
L 153.207184 104.246453 
L 153.33619 104.263571 
L 153.594203 104.479081 
L 153.852216 104.804706 
L 153.91672 104.67133 
L 154.045726 104.530995 
L 154.884268 107.464036 
L 155.271288 109.499823 
L 155.787314 111.63664 
L 156.30334 113.923918 
L 156.432347 114.36535 
L 156.819366 115.965924 
L 156.948373 116.048107 
L 157.077379 115.816889 
L 157.722412 113.156006 
L 158.173935 112.005719 
L 158.367445 111.60095 
L 158.625458 111.084812 
L 159.012477 110.316187 
L 159.07698 110.353533 
L 159.399497 110.981646 
L 159.980026 108.635507 
L 160.109033 108.681377 
L 160.302542 108.540041 
L 160.754065 109.744493 
L 160.947575 109.296619 
L 161.270091 108.385915 
L 161.463601 108.293731 
L 162.04413 109.993721 
L 162.23764 109.98578 
L 162.560156 110.362484 
L 162.882673 111.853775 
L 162.947176 111.723661 
L 163.463202 110.321137 
L 163.592209 110.294908 
L 163.850222 109.398727 
L 164.172738 108.099694 
L 164.301744 108.202611 
L 164.495254 108.993465 
L 165.01128 111.92698 
L 165.656313 114.032922 
L 165.785319 113.995706 
L 166.043332 113.462056 
L 166.172339 113.277533 
L 166.236842 113.330234 
L 166.494855 113.712431 
L 166.688365 113.963172 
L 166.817372 113.887878 
L 167.139888 113.386421 
L 167.333398 113.21031 
L 167.462404 113.203721 
L 167.591411 113.259645 
L 167.720417 113.404869 
L 167.97843 112.498588 
L 168.042933 112.551555 
L 168.300947 113.156042 
L 168.429953 113.034738 
L 168.687966 113.34452 
L 168.816973 113.278294 
L 169.010482 113.563488 
L 169.074986 113.500547 
L 169.332999 113.115587 
L 169.462005 113.1881 
L 169.655515 112.65266 
L 169.720018 112.736746 
L 169.849025 112.899197 
L 169.978031 112.626463 
L 170.300548 111.649845 
L 170.494057 111.118073 
L 170.75207 110.576516 
L 170.94558 110.51917 
L 171.010083 110.501652 
L 171.268096 109.533419 
L 171.719619 107.787005 
L 172.171142 109.012167 
L 172.558162 110.781199 
L 172.622665 110.747585 
L 174.041737 106.90763 
L 174.170743 106.960295 
L 174.493259 106.533892 
L 174.622266 106.532825 
L 174.751272 106.771512 
L 175.525312 105.551097 
L 175.589815 105.625179 
L 175.718821 105.753663 
L 175.976834 105.593769 
L 176.170344 105.275861 
L 176.492861 104.843648 
L 176.87988 104.568767 
L 177.07339 104.192549 
L 177.2669 104.22106 
L 177.460409 103.696536 
L 177.524913 103.778429 
L 177.653919 104.150705 
L 177.718422 104.103211 
L 177.911932 103.91156 
L 178.234449 104.377685 
L 178.427958 104.56809 
L 178.621468 104.36439 
L 178.943984 105.053134 
L 179.137494 105.491428 
L 179.266501 105.626581 
L 179.331004 105.695183 
L 179.524514 105.17783 
L 179.782527 104.271739 
L 179.911533 104.419265 
L 180.105043 104.461956 
L 180.169546 104.384814 
L 180.879082 101.960985 
L 181.008089 101.890931 
L 181.459612 100.974439 
L 181.588618 101.21771 
L 181.782128 101.730572 
L 181.911134 101.761132 
L 182.040141 102.494933 
L 182.233651 103.723002 
L 182.62067 103.883697 
L 182.878683 104.749585 
L 183.394709 107.110813 
L 183.588219 107.012894 
L 183.975239 107.025096 
L 184.233252 106.026293 
L 184.555768 104.914963 
L 184.684775 104.821273 
L 184.813781 105.018327 
L 185.071794 105.591754 
L 185.523317 104.997218 
L 185.97484 105.422865 
L 186.297356 106.056212 
L 186.619872 106.99933 
L 186.748879 106.781802 
L 186.813382 106.818624 
L 187.458415 107.768389 
L 187.587421 107.915316 
L 187.845434 108.422461 
L 188.038944 108.432822 
L 188.232454 108.150688 
L 188.683977 108.534535 
L 189.458016 111.202478 
L 189.651526 111.852316 
L 189.845035 112.416895 
L 190.232055 112.681006 
L 190.554571 111.885299 
L 190.619074 111.970289 
L 190.748081 112.040745 
L 190.941591 111.872475 
L 191.006094 111.96502 
L 191.457617 113.197107 
L 191.780133 113.063379 
L 192.102649 113.561327 
L 192.167153 113.572039 
L 192.425166 112.863749 
L 192.747682 111.607596 
L 192.876688 111.664355 
L 193.005695 111.82967 
L 193.134702 111.537458 
L 193.779734 109.012576 
L 193.908741 108.594325 
L 194.360263 106.048312 
L 194.618277 105.407051 
L 194.68278 105.449949 
L 195.069799 105.634579 
L 195.134303 105.603788 
L 195.327812 106.614654 
L 195.585825 107.374793 
L 195.779335 107.318634 
L 196.037348 107.14146 
L 196.101851 107.141818 
L 196.230858 106.775478 
L 197.391917 101.869437 
L 197.907943 102.209162 
L 198.036949 102.071133 
L 198.101453 102.129391 
L 198.359466 102.57305 
L 198.617479 102.672664 
L 198.746485 102.69944 
L 199.004498 103.202563 
L 199.327014 103.957389 
L 200.03655 102.939165 
L 200.165557 102.899128 
L 200.359067 102.967736 
L 200.681583 102.561202 
L 200.746086 102.613862 
L 200.875093 102.604916 
L 201.197609 101.948703 
L 201.326616 102.158574 
L 201.907145 103.965991 
L 201.971648 103.91481 
L 202.100655 103.663151 
L 202.358668 103.941144 
L 202.552177 103.504115 
L 202.745687 103.051948 
L 203.0037 103.299118 
L 203.132707 103.130601 
L 203.261713 103.398056 
L 203.519726 103.821518 
L 203.713236 103.779392 
L 204.164759 103.108978 
L 204.809792 104.086377 
L 205.067805 104.777505 
L 205.132308 104.714982 
L 205.325818 104.483076 
L 205.390321 104.533411 
L 205.712837 105.448343 
L 205.77734 105.347884 
L 205.97085 104.358443 
L 206.035353 104.124597 
L 206.099857 104.170171 
L 206.615883 105.518902 
L 206.615883 105.518902 
" style="fill:none;stroke:#000000;stroke-linecap:square;"/>
   </g>
   <g id="line2d_18">
    <path clip-path="url(#p60ba20d52d)" d="M 51.937066 107.389884 
L 71.159037 107.679428 
L 81.995585 108.048901 
L 89.090943 108.502118 
L 94.251204 109.043664 
L 98.379413 109.692241 
L 101.862589 110.456474 
L 105.023249 111.371811 
L 108.183908 112.520801 
L 115.472777 115.318967 
L 116.698339 115.454836 
L 117.665888 115.347753 
L 118.50443 115.036347 
L 119.278469 114.508152 
L 119.988005 113.762711 
L 120.697541 112.701913 
L 121.407077 111.247371 
L 122.116613 109.302538 
L 122.890652 106.480966 
L 123.664691 102.739656 
L 124.43873 97.831662 
L 125.212769 91.439098 
L 125.986808 83.146432 
L 126.760847 72.39904 
L 127.534886 58.441104 
L 128.308925 40.300764 
L 129.276474 17.230767 
L 129.340978 17.488404 
L 129.534487 20.760256 
L 131.598592 69.245485 
L 132.437134 81.543127 
L 133.275676 90.827173 
L 134.114219 97.831662 
L 134.952761 103.092159 
L 135.791304 107.009249 
L 136.629846 109.8879 
L 137.468388 111.963057 
L 138.242427 113.323979 
L 139.016467 114.269267 
L 139.790506 114.889133 
L 140.629048 115.27667 
L 141.532094 115.444256 
L 142.564146 115.405889 
L 143.854211 115.126465 
L 145.660302 114.490741 
L 154.626255 111.028003 
L 157.851418 110.175689 
L 161.399098 109.474329 
L 165.527306 108.892441 
L 170.623064 108.409503 
L 177.2669 108.015612 
L 186.684376 107.696671 
L 201.326616 107.445294 
L 206.615883 107.389884 
L 206.615883 107.389884 
" style="fill:none;stroke:#ff0000;stroke-dasharray:3.7,1.6;stroke-dashoffset:0;"/>
   </g>
   <g id="patch_3">
    <path d="M 44.203125 128.92249 
L 44.203125 10.8 
" style="fill:none;stroke:#000000;stroke-linecap:square;stroke-linejoin:miter;stroke-width:0.8;"/>
   </g>
   <g id="patch_4">
    <path d="M 214.349824 128.92249 
L 214.349824 10.8 
" style="fill:none;stroke:#000000;stroke-linecap:square;stroke-linejoin:miter;stroke-width:0.8;"/>
   </g>
   <g id="patch_5">
    <path d="M 44.203125 128.92249 
L 214.349824 128.92249 
" style="fill:none;stroke:#000000;stroke-linecap:square;stroke-linejoin:miter;stroke-width:0.8;"/>
   </g>
   <g id="patch_6">
    <path d="M 44.203125 10.8 
L 214.349824 10.8 
" style="fill:none;stroke:#000000;stroke-linecap:square;stroke-linejoin:miter;stroke-width:0.8;"/>
   </g>
   <g id="legend_1">
    <g id="patch_7">
     <path d="M 134.795449 44.420625 
L 208.049824 44.420625 
Q 209.849824 44.420625 209.849824 42.620625 
L 209.849824 17.1 
Q 209.849824 15.3 208.049824 15.3 
L 134.795449 15.3 
Q 132.995449 15.3 132.995449 17.1 
L 132.995449 42.620625 
Q 132.995449 44.420625 134.795449 44.420625 
z
" style="fill:#ffffff;opacity:0.8;stroke:#cccccc;stroke-linejoin:miter;"/>
    </g>
    <g id="line2d_19">
     <path d="M 136.595449 22.588594 
L 154.595449 22.588594 
" style="fill:none;stroke:#000000;stroke-linecap:square;"/>
    </g>
    <g id="line2d_20"/>
    <g id="text_11">
     <!-- simulated -->
     <defs>
      <path d="M 52 44.1875 
Q 55.375 50.25 60.0625 53.125 
Q 64.75 56 71.09375 56 
Q 79.640625 56 84.28125 50.015625 
Q 88.921875 44.046875 88.921875 33.015625 
L 88.921875 0 
L 79.890625 0 
L 79.890625 32.71875 
Q 79.890625 40.578125 77.09375 44.375 
Q 74.3125 48.1875 68.609375 48.1875 
Q 61.625 48.1875 57.5625 43.546875 
Q 53.515625 38.921875 53.515625 30.90625 
L 53.515625 0 
L 44.484375 0 
L 44.484375 32.71875 
Q 44.484375 40.625 41.703125 44.40625 
Q 38.921875 48.1875 33.109375 48.1875 
Q 26.21875 48.1875 22.15625 43.53125 
Q 18.109375 38.875 18.109375 30.90625 
L 18.109375 0 
L 9.078125 0 
L 9.078125 54.6875 
L 18.109375 54.6875 
L 18.109375 46.1875 
Q 21.1875 51.21875 25.484375 53.609375 
Q 29.78125 56 35.6875 56 
Q 41.65625 56 45.828125 52.96875 
Q 50 49.953125 52 44.1875 
z
" id="DejaVuSans-109"/>
      <path d="M 45.40625 46.390625 
L 45.40625 75.984375 
L 54.390625 75.984375 
L 54.390625 0 
L 45.40625 0 
L 45.40625 8.203125 
Q 42.578125 3.328125 38.25 0.953125 
Q 33.9375 -1.421875 27.875 -1.421875 
Q 17.96875 -1.421875 11.734375 6.484375 
Q 5.515625 14.40625 5.515625 27.296875 
Q 5.515625 40.1875 11.734375 48.09375 
Q 17.96875 56 27.875 56 
Q 33.9375 56 38.25 53.625 
Q 42.578125 51.265625 45.40625 46.390625 
z
M 14.796875 27.296875 
Q 14.796875 17.390625 18.875 11.75 
Q 22.953125 6.109375 30.078125 6.109375 
Q 37.203125 6.109375 41.296875 11.75 
Q 45.40625 17.390625 45.40625 27.296875 
Q 45.40625 37.203125 41.296875 42.84375 
Q 37.203125 48.484375 30.078125 48.484375 
Q 22.953125 48.484375 18.875 42.84375 
Q 14.796875 37.203125 14.796875 27.296875 
z
" id="DejaVuSans-100"/>
     </defs>
     <g transform="translate(161.795449 25.738594)scale(0.09 -0.09)">
      <use xlink:href="#DejaVuSans-115"/>
      <use x="52.099609" xlink:href="#DejaVuSans-105"/>
      <use x="79.882812" xlink:href="#DejaVuSans-109"/>
      <use x="177.294922" xlink:href="#DejaVuSans-117"/>
      <use x="240.673828" xlink:href="#DejaVuSans-108"/>
      <use x="268.457031" xlink:href="#DejaVuSans-97"/>
      <use x="329.736328" xlink:href="#DejaVuSans-116"/>
      <use x="368.945312" xlink:href="#DejaVuSans-101"/>
      <use x="430.46875" xlink:href="#DejaVuSans-100"/>
     </g>
    </g>
    <g id="line2d_21">
     <path d="M 136.595449 35.798906 
L 154.595449 35.798906 
" style="fill:none;stroke:#ff0000;stroke-dasharray:3.7,1.6;stroke-dashoffset:0;"/>
    </g>
    <g id="line2d_22"/>
    <g id="text_12">
     <!-- target -->
     <defs>
      <path d="M 45.40625 27.984375 
Q 45.40625 37.75 41.375 43.109375 
Q 37.359375 48.484375 30.078125 48.484375 
Q 22.859375 48.484375 18.828125 43.109375 
Q 14.796875 37.75 14.796875 27.984375 
Q 14.796875 18.265625 18.828125 12.890625 
Q 22.859375 7.515625 30.078125 7.515625 
Q 37.359375 7.515625 41.375 12.890625 
Q 45.40625 18.265625 45.40625 27.984375 
z
M 54.390625 6.78125 
Q 54.390625 -7.171875 48.1875 -13.984375 
Q 42 -20.796875 29.203125 -20.796875 
Q 24.46875 -20.796875 20.265625 -20.09375 
Q 16.0625 -19.390625 12.109375 -17.921875 
L 12.109375 -9.1875 
Q 16.0625 -11.328125 19.921875 -12.34375 
Q 23.78125 -13.375 27.78125 -13.375 
Q 36.625 -13.375 41.015625 -8.765625 
Q 45.40625 -4.15625 45.40625 5.171875 
L 45.40625 9.625 
Q 42.625 4.78125 38.28125 2.390625 
Q 33.9375 0 27.875 0 
Q 17.828125 0 11.671875 7.65625 
Q 5.515625 15.328125 5.515625 27.984375 
Q 5.515625 40.671875 11.671875 48.328125 
Q 17.828125 56 27.875 56 
Q 33.9375 56 38.28125 53.609375 
Q 42.625 51.21875 45.40625 46.390625 
L 45.40625 54.6875 
L 54.390625 54.6875 
z
" id="DejaVuSans-103"/>
     </defs>
     <g transform="translate(161.795449 38.948906)scale(0.09 -0.09)">
      <use xlink:href="#DejaVuSans-116"/>
      <use x="39.208984" xlink:href="#DejaVuSans-97"/>
      <use x="100.488281" xlink:href="#DejaVuSans-114"/>
      <use x="141.585938" xlink:href="#DejaVuSans-103"/>
      <use x="205.0625" xlink:href="#DejaVuSans-101"/>
      <use x="266.585938" xlink:href="#DejaVuSans-116"/>
     </g>
    </g>
   </g>
  </g>
 </g>
 <defs>
  <clipPath id="p60ba20d52d">
   <rect height="118.12249" width="170.146699" x="44.203125" y="10.8"/>
  </clipPath>
 </defs>
</svg>
