<?xml version="1.0" encoding="utf-8" standalone="no"?>
<!DOCTYPE svg PUBLIC "-//W3C//DTD SVG 1.1//EN"
  "http://www.w3.org/Graphics/SVG/1.1/DTD/svg11.dtd">
<!-- Created with matplotlib (https://matplotlib.org/) -->
<svg height="170.07874pt" version="1.1" viewBox="0 0 226.771654 170.07874" width="226.771654pt" xmlns="http://www.w3.org/2000/svg" xmlns:xlink="http://www.w3.org/1999/xlink">
 <defs>
  <style type="text/css">
*{stroke-linecap:butt;stroke-linejoin:round;}
  </style>
 </defs>
 <g id="figure_1">
  <g id="patch_1">
   <path d="M 0 170.07874 
L 226.771654 170.07874 
L 226.771654 0 
L 0 0 
z
" style="fill:#ffffff;"/>
  </g>
  <g id="axes_1">
   <g id="patch_2">
    <path d="M 44.203125 128.92249 
L 214.349824 128.92249 
L 214.349824 14.588419 
L 44.203125 14.588419 
z
" style="fill:#ffffff;"/>
   </g>
   <g id="matplotlib.axis_1">
    <g id="xtick_1">
     <g id="line2d_1">
      <path clip-path="url(#pc34044d43b)" d="M 51.872563 128.92249 
L 51.872563 14.588419 
" style="fill:none;stroke:#b0b0b0;stroke-linecap:square;stroke-width:0.8;"/>
     </g>
     <g id="line2d_2">
      <defs>
       <path d="M 0 0 
L 0 3.5 
" id="mceee0a1f37" style="stroke:#000000;stroke-width:0.8;"/>
      </defs>
      <g>
       <use style="stroke:#000000;stroke-width:0.8;" x="51.872563" xlink:href="#mceee0a1f37" y="128.92249"/>
      </g>
     </g>
     <g id="text_1">
      <!-- −100 -->
      <defs>
       <path d="M 10.59375 35.5 
L 73.1875 35.5 
L 73.1875 27.203125 
L 10.59375 27.203125 
z
" id="DejaVuSans-8722"/>
       <path d="M 12.40625 8.296875 
L 28.515625 8.296875 
L 28.515625 63.921875 
L 10.984375 60.40625 
L 10.984375 69.390625 
L 28.421875 72.90625 
L 38.28125 72.90625 
L 38.28125 8.296875 
L 54.390625 8.296875 
L 54.390625 0 
L 12.40625 0 
z
" id="DejaVuSans-49"/>
       <path d="M 31.78125 66.40625 
Q 24.171875 66.40625 20.328125 58.90625 
Q 16.5 51.421875 16.5 36.375 
Q 16.5 21.390625 20.328125 13.890625 
Q 24.171875 6.390625 31.78125 6.390625 
Q 39.453125 6.390625 43.28125 13.890625 
Q 47.125 21.390625 47.125 36.375 
Q 47.125 51.421875 43.28125 58.90625 
Q 39.453125 66.40625 31.78125 66.40625 
z
M 31.78125 74.21875 
Q 44.046875 74.21875 50.515625 64.515625 
Q 56.984375 54.828125 56.984375 36.375 
Q 56.984375 17.96875 50.515625 8.265625 
Q 44.046875 -1.421875 31.78125 -1.421875 
Q 19.53125 -1.421875 13.0625 8.265625 
Q 6.59375 17.96875 6.59375 36.375 
Q 6.59375 54.828125 13.0625 64.515625 
Q 19.53125 74.21875 31.78125 74.21875 
z
" id="DejaVuSans-48"/>
      </defs>
      <g transform="translate(38.138969 143.520928)scale(0.1 -0.1)">
       <use xlink:href="#DejaVuSans-8722"/>
       <use x="83.789062" xlink:href="#DejaVuSans-49"/>
       <use x="147.412109" xlink:href="#DejaVuSans-48"/>
       <use x="211.035156" xlink:href="#DejaVuSans-48"/>
      </g>
     </g>
    </g>
    <g id="xtick_2">
     <g id="line2d_3">
      <path clip-path="url(#pc34044d43b)" d="M 90.574518 128.92249 
L 90.574518 14.588419 
" style="fill:none;stroke:#b0b0b0;stroke-linecap:square;stroke-width:0.8;"/>
     </g>
     <g id="line2d_4">
      <g>
       <use style="stroke:#000000;stroke-width:0.8;" x="90.574518" xlink:href="#mceee0a1f37" y="128.92249"/>
      </g>
     </g>
     <g id="text_2">
      <!-- −50 -->
      <defs>
       <path d="M 10.796875 72.90625 
L 49.515625 72.90625 
L 49.515625 64.59375 
L 19.828125 64.59375 
L 19.828125 46.734375 
Q 21.96875 47.46875 24.109375 47.828125 
Q 26.265625 48.1875 28.421875 48.1875 
Q 40.625 48.1875 47.75 41.5 
Q 54.890625 34.8125 54.890625 23.390625 
Q 54.890625 11.625 47.5625 5.09375 
Q 40.234375 -1.421875 26.90625 -1.421875 
Q 22.3125 -1.421875 17.546875 -0.640625 
Q 12.796875 0.140625 7.71875 1.703125 
L 7.71875 11.625 
Q 12.109375 9.234375 16.796875 8.0625 
Q 21.484375 6.890625 26.703125 6.890625 
Q 35.15625 6.890625 40.078125 11.328125 
Q 45.015625 15.765625 45.015625 23.390625 
Q 45.015625 31 40.078125 35.4375 
Q 35.15625 39.890625 26.703125 39.890625 
Q 22.75 39.890625 18.8125 39.015625 
Q 14.890625 38.140625 10.796875 36.28125 
z
" id="DejaVuSans-53"/>
      </defs>
      <g transform="translate(80.022175 143.520928)scale(0.1 -0.1)">
       <use xlink:href="#DejaVuSans-8722"/>
       <use x="83.789062" xlink:href="#DejaVuSans-53"/>
       <use x="147.412109" xlink:href="#DejaVuSans-48"/>
      </g>
     </g>
    </g>
    <g id="xtick_3">
     <g id="line2d_5">
      <path clip-path="url(#pc34044d43b)" d="M 129.276474 128.92249 
L 129.276474 14.588419 
" style="fill:none;stroke:#b0b0b0;stroke-linecap:square;stroke-width:0.8;"/>
     </g>
     <g id="line2d_6">
      <g>
       <use style="stroke:#000000;stroke-width:0.8;" x="129.276474" xlink:href="#mceee0a1f37" y="128.92249"/>
      </g>
     </g>
     <g id="text_3">
      <!-- 0 -->
      <g transform="translate(126.095224 143.520928)scale(0.1 -0.1)">
       <use xlink:href="#DejaVuSans-48"/>
      </g>
     </g>
    </g>
    <g id="xtick_4">
     <g id="line2d_7">
      <path clip-path="url(#pc34044d43b)" d="M 167.97843 128.92249 
L 167.97843 14.588419 
" style="fill:none;stroke:#b0b0b0;stroke-linecap:square;stroke-width:0.8;"/>
     </g>
     <g id="line2d_8">
      <g>
       <use style="stroke:#000000;stroke-width:0.8;" x="167.97843" xlink:href="#mceee0a1f37" y="128.92249"/>
      </g>
     </g>
     <g id="text_4">
      <!-- 50 -->
      <g transform="translate(161.61593 143.520928)scale(0.1 -0.1)">
       <use xlink:href="#DejaVuSans-53"/>
       <use x="63.623047" xlink:href="#DejaVuSans-48"/>
      </g>
     </g>
    </g>
    <g id="xtick_5">
     <g id="line2d_9">
      <path clip-path="url(#pc34044d43b)" d="M 206.680386 128.92249 
L 206.680386 14.588419 
" style="fill:none;stroke:#b0b0b0;stroke-linecap:square;stroke-width:0.8;"/>
     </g>
     <g id="line2d_10">
      <g>
       <use style="stroke:#000000;stroke-width:0.8;" x="206.680386" xlink:href="#mceee0a1f37" y="128.92249"/>
      </g>
     </g>
     <g id="text_5">
      <!-- 100 -->
      <g transform="translate(197.136636 143.520928)scale(0.1 -0.1)">
       <use xlink:href="#DejaVuSans-49"/>
       <use x="63.623047" xlink:href="#DejaVuSans-48"/>
       <use x="127.246094" xlink:href="#DejaVuSans-48"/>
      </g>
     </g>
    </g>
    <g id="text_6">
     <!-- $\tau$ (s) -->
     <defs>
      <path d="M 32.859375 9.96875 
Q 34.1875 7.625 39.453125 7.625 
L 43.75 7.625 
L 42.28125 0 
L 36.921875 0 
Q 28.125 0 25 4.6875 
Q 21.921875 9.46875 23.96875 19.828125 
L 29 45.703125 
L 8.453125 45.703125 
L 10.203125 54.6875 
L 60.640625 54.6875 
L 58.890625 45.703125 
L 38.1875 45.703125 
L 33.015625 19.28125 
Q 31.640625 12.203125 32.859375 9.96875 
z
" id="DejaVuSans-Oblique-964"/>
      <path id="DejaVuSans-32"/>
      <path d="M 31 75.875 
Q 24.46875 64.65625 21.28125 53.65625 
Q 18.109375 42.671875 18.109375 31.390625 
Q 18.109375 20.125 21.3125 9.0625 
Q 24.515625 -2 31 -13.1875 
L 23.1875 -13.1875 
Q 15.875 -1.703125 12.234375 9.375 
Q 8.59375 20.453125 8.59375 31.390625 
Q 8.59375 42.28125 12.203125 53.3125 
Q 15.828125 64.359375 23.1875 75.875 
z
" id="DejaVuSans-40"/>
      <path d="M 44.28125 53.078125 
L 44.28125 44.578125 
Q 40.484375 46.53125 36.375 47.5 
Q 32.28125 48.484375 27.875 48.484375 
Q 21.1875 48.484375 17.84375 46.4375 
Q 14.5 44.390625 14.5 40.28125 
Q 14.5 37.15625 16.890625 35.375 
Q 19.28125 33.59375 26.515625 31.984375 
L 29.59375 31.296875 
Q 39.15625 29.25 43.1875 25.515625 
Q 47.21875 21.78125 47.21875 15.09375 
Q 47.21875 7.46875 41.1875 3.015625 
Q 35.15625 -1.421875 24.609375 -1.421875 
Q 20.21875 -1.421875 15.453125 -0.5625 
Q 10.6875 0.296875 5.421875 2 
L 5.421875 11.28125 
Q 10.40625 8.6875 15.234375 7.390625 
Q 20.0625 6.109375 24.8125 6.109375 
Q 31.15625 6.109375 34.5625 8.28125 
Q 37.984375 10.453125 37.984375 14.40625 
Q 37.984375 18.0625 35.515625 20.015625 
Q 33.0625 21.96875 24.703125 23.78125 
L 21.578125 24.515625 
Q 13.234375 26.265625 9.515625 29.90625 
Q 5.8125 33.546875 5.8125 39.890625 
Q 5.8125 47.609375 11.28125 51.796875 
Q 16.75 56 26.8125 56 
Q 31.78125 56 36.171875 55.265625 
Q 40.578125 54.546875 44.28125 53.078125 
z
" id="DejaVuSans-115"/>
      <path d="M 8.015625 75.875 
L 15.828125 75.875 
Q 23.140625 64.359375 26.78125 53.3125 
Q 30.421875 42.28125 30.421875 31.390625 
Q 30.421875 20.453125 26.78125 9.375 
Q 23.140625 -1.703125 15.828125 -13.1875 
L 8.015625 -13.1875 
Q 14.5 -2 17.703125 9.0625 
Q 20.90625 20.125 20.90625 31.390625 
Q 20.90625 42.671875 17.703125 53.65625 
Q 14.5 64.65625 8.015625 75.875 
z
" id="DejaVuSans-41"/>
     </defs>
     <g transform="translate(118.126474 157.199053)scale(0.1 -0.1)">
      <use transform="translate(0 0.125)" xlink:href="#DejaVuSans-Oblique-964"/>
      <use transform="translate(60.205078 0.125)" xlink:href="#DejaVuSans-32"/>
      <use transform="translate(91.992188 0.125)" xlink:href="#DejaVuSans-40"/>
      <use transform="translate(131.005859 0.125)" xlink:href="#DejaVuSans-115"/>
      <use transform="translate(183.105469 0.125)" xlink:href="#DejaVuSans-41"/>
     </g>
    </g>
   </g>
   <g id="matplotlib.axis_2">
    <g id="ytick_1">
     <g id="line2d_11">
      <path clip-path="url(#pc34044d43b)" d="M 44.203125 112.361565 
L 214.349824 112.361565 
" style="fill:none;stroke:#b0b0b0;stroke-linecap:square;stroke-width:0.8;"/>
     </g>
     <g id="line2d_12">
      <defs>
       <path d="M 0 0 
L -3.5 0 
" id="med6c5b230c" style="stroke:#000000;stroke-width:0.8;"/>
      </defs>
      <g>
       <use style="stroke:#000000;stroke-width:0.8;" x="44.203125" xlink:href="#med6c5b230c" y="112.361565"/>
      </g>
     </g>
     <g id="text_7">
      <!-- 0 -->
      <g transform="translate(30.840625 116.160783)scale(0.1 -0.1)">
       <use xlink:href="#DejaVuSans-48"/>
      </g>
     </g>
    </g>
    <g id="ytick_2">
     <g id="line2d_13">
      <path clip-path="url(#pc34044d43b)" d="M 44.203125 79.773659 
L 214.349824 79.773659 
" style="fill:none;stroke:#b0b0b0;stroke-linecap:square;stroke-width:0.8;"/>
     </g>
     <g id="line2d_14">
      <g>
       <use style="stroke:#000000;stroke-width:0.8;" x="44.203125" xlink:href="#med6c5b230c" y="79.773659"/>
      </g>
     </g>
     <g id="text_8">
      <!-- 5 -->
      <g transform="translate(30.840625 83.572878)scale(0.1 -0.1)">
       <use xlink:href="#DejaVuSans-53"/>
      </g>
     </g>
    </g>
    <g id="ytick_3">
     <g id="line2d_15">
      <path clip-path="url(#pc34044d43b)" d="M 44.203125 47.185753 
L 214.349824 47.185753 
" style="fill:none;stroke:#b0b0b0;stroke-linecap:square;stroke-width:0.8;"/>
     </g>
     <g id="line2d_16">
      <g>
       <use style="stroke:#000000;stroke-width:0.8;" x="44.203125" xlink:href="#med6c5b230c" y="47.185753"/>
      </g>
     </g>
     <g id="text_9">
      <!-- 10 -->
      <g transform="translate(24.478125 50.984972)scale(0.1 -0.1)">
       <use xlink:href="#DejaVuSans-49"/>
       <use x="63.623047" xlink:href="#DejaVuSans-48"/>
      </g>
     </g>
    </g>
    <g id="ytick_4">
     <g id="line2d_17">
      <path clip-path="url(#pc34044d43b)" d="M 44.203125 14.597848 
L 214.349824 14.597848 
" style="fill:none;stroke:#b0b0b0;stroke-linecap:square;stroke-width:0.8;"/>
     </g>
     <g id="line2d_18">
      <g>
       <use style="stroke:#000000;stroke-width:0.8;" x="44.203125" xlink:href="#med6c5b230c" y="14.597848"/>
      </g>
     </g>
     <g id="text_10">
      <!-- 15 -->
      <g transform="translate(24.478125 18.397066)scale(0.1 -0.1)">
       <use xlink:href="#DejaVuSans-49"/>
       <use x="63.623047" xlink:href="#DejaVuSans-53"/>
      </g>
     </g>
    </g>
    <g id="text_11">
     <!-- correlation function -->
     <defs>
      <path d="M 48.78125 52.59375 
L 48.78125 44.1875 
Q 44.96875 46.296875 41.140625 47.34375 
Q 37.3125 48.390625 33.40625 48.390625 
Q 24.65625 48.390625 19.8125 42.84375 
Q 14.984375 37.3125 14.984375 27.296875 
Q 14.984375 17.28125 19.8125 11.734375 
Q 24.65625 6.203125 33.40625 6.203125 
Q 37.3125 6.203125 41.140625 7.25 
Q 44.96875 8.296875 48.78125 10.40625 
L 48.78125 2.09375 
Q 45.015625 0.34375 40.984375 -0.53125 
Q 36.96875 -1.421875 32.421875 -1.421875 
Q 20.0625 -1.421875 12.78125 6.34375 
Q 5.515625 14.109375 5.515625 27.296875 
Q 5.515625 40.671875 12.859375 48.328125 
Q 20.21875 56 33.015625 56 
Q 37.15625 56 41.109375 55.140625 
Q 45.0625 54.296875 48.78125 52.59375 
z
" id="DejaVuSans-99"/>
      <path d="M 30.609375 48.390625 
Q 23.390625 48.390625 19.1875 42.75 
Q 14.984375 37.109375 14.984375 27.296875 
Q 14.984375 17.484375 19.15625 11.84375 
Q 23.34375 6.203125 30.609375 6.203125 
Q 37.796875 6.203125 41.984375 11.859375 
Q 46.1875 17.53125 46.1875 27.296875 
Q 46.1875 37.015625 41.984375 42.703125 
Q 37.796875 48.390625 30.609375 48.390625 
z
M 30.609375 56 
Q 42.328125 56 49.015625 48.375 
Q 55.71875 40.765625 55.71875 27.296875 
Q 55.71875 13.875 49.015625 6.21875 
Q 42.328125 -1.421875 30.609375 -1.421875 
Q 18.84375 -1.421875 12.171875 6.21875 
Q 5.515625 13.875 5.515625 27.296875 
Q 5.515625 40.765625 12.171875 48.375 
Q 18.84375 56 30.609375 56 
z
" id="DejaVuSans-111"/>
      <path d="M 41.109375 46.296875 
Q 39.59375 47.171875 37.8125 47.578125 
Q 36.03125 48 33.890625 48 
Q 26.265625 48 22.1875 43.046875 
Q 18.109375 38.09375 18.109375 28.8125 
L 18.109375 0 
L 9.078125 0 
L 9.078125 54.6875 
L 18.109375 54.6875 
L 18.109375 46.1875 
Q 20.953125 51.171875 25.484375 53.578125 
Q 30.03125 56 36.53125 56 
Q 37.453125 56 38.578125 55.875 
Q 39.703125 55.765625 41.0625 55.515625 
z
" id="DejaVuSans-114"/>
      <path d="M 56.203125 29.59375 
L 56.203125 25.203125 
L 14.890625 25.203125 
Q 15.484375 15.921875 20.484375 11.0625 
Q 25.484375 6.203125 34.421875 6.203125 
Q 39.59375 6.203125 44.453125 7.46875 
Q 49.3125 8.734375 54.109375 11.28125 
L 54.109375 2.78125 
Q 49.265625 0.734375 44.1875 -0.34375 
Q 39.109375 -1.421875 33.890625 -1.421875 
Q 20.796875 -1.421875 13.15625 6.1875 
Q 5.515625 13.8125 5.515625 26.8125 
Q 5.515625 40.234375 12.765625 48.109375 
Q 20.015625 56 32.328125 56 
Q 43.359375 56 49.78125 48.890625 
Q 56.203125 41.796875 56.203125 29.59375 
z
M 47.21875 32.234375 
Q 47.125 39.59375 43.09375 43.984375 
Q 39.0625 48.390625 32.421875 48.390625 
Q 24.90625 48.390625 20.390625 44.140625 
Q 15.875 39.890625 15.1875 32.171875 
z
" id="DejaVuSans-101"/>
      <path d="M 9.421875 75.984375 
L 18.40625 75.984375 
L 18.40625 0 
L 9.421875 0 
z
" id="DejaVuSans-108"/>
      <path d="M 34.28125 27.484375 
Q 23.390625 27.484375 19.1875 25 
Q 14.984375 22.515625 14.984375 16.5 
Q 14.984375 11.71875 18.140625 8.90625 
Q 21.296875 6.109375 26.703125 6.109375 
Q 34.1875 6.109375 38.703125 11.40625 
Q 43.21875 16.703125 43.21875 25.484375 
L 43.21875 27.484375 
z
M 52.203125 31.203125 
L 52.203125 0 
L 43.21875 0 
L 43.21875 8.296875 
Q 40.140625 3.328125 35.546875 0.953125 
Q 30.953125 -1.421875 24.3125 -1.421875 
Q 15.921875 -1.421875 10.953125 3.296875 
Q 6 8.015625 6 15.921875 
Q 6 25.140625 12.171875 29.828125 
Q 18.359375 34.515625 30.609375 34.515625 
L 43.21875 34.515625 
L 43.21875 35.40625 
Q 43.21875 41.609375 39.140625 45 
Q 35.0625 48.390625 27.6875 48.390625 
Q 23 48.390625 18.546875 47.265625 
Q 14.109375 46.140625 10.015625 43.890625 
L 10.015625 52.203125 
Q 14.9375 54.109375 19.578125 55.046875 
Q 24.21875 56 28.609375 56 
Q 40.484375 56 46.34375 49.84375 
Q 52.203125 43.703125 52.203125 31.203125 
z
" id="DejaVuSans-97"/>
      <path d="M 18.3125 70.21875 
L 18.3125 54.6875 
L 36.8125 54.6875 
L 36.8125 47.703125 
L 18.3125 47.703125 
L 18.3125 18.015625 
Q 18.3125 11.328125 20.140625 9.421875 
Q 21.96875 7.515625 27.59375 7.515625 
L 36.8125 7.515625 
L 36.8125 0 
L 27.59375 0 
Q 17.1875 0 13.234375 3.875 
Q 9.28125 7.765625 9.28125 18.015625 
L 9.28125 47.703125 
L 2.6875 47.703125 
L 2.6875 54.6875 
L 9.28125 54.6875 
L 9.28125 70.21875 
z
" id="DejaVuSans-116"/>
      <path d="M 9.421875 54.6875 
L 18.40625 54.6875 
L 18.40625 0 
L 9.421875 0 
z
M 9.421875 75.984375 
L 18.40625 75.984375 
L 18.40625 64.59375 
L 9.421875 64.59375 
z
" id="DejaVuSans-105"/>
      <path d="M 54.890625 33.015625 
L 54.890625 0 
L 45.90625 0 
L 45.90625 32.71875 
Q 45.90625 40.484375 42.875 44.328125 
Q 39.84375 48.1875 33.796875 48.1875 
Q 26.515625 48.1875 22.3125 43.546875 
Q 18.109375 38.921875 18.109375 30.90625 
L 18.109375 0 
L 9.078125 0 
L 9.078125 54.6875 
L 18.109375 54.6875 
L 18.109375 46.1875 
Q 21.34375 51.125 25.703125 53.5625 
Q 30.078125 56 35.796875 56 
Q 45.21875 56 50.046875 50.171875 
Q 54.890625 44.34375 54.890625 33.015625 
z
" id="DejaVuSans-110"/>
      <path d="M 37.109375 75.984375 
L 37.109375 68.5 
L 28.515625 68.5 
Q 23.6875 68.5 21.796875 66.546875 
Q 19.921875 64.59375 19.921875 59.515625 
L 19.921875 54.6875 
L 34.71875 54.6875 
L 34.71875 47.703125 
L 19.921875 47.703125 
L 19.921875 0 
L 10.890625 0 
L 10.890625 47.703125 
L 2.296875 47.703125 
L 2.296875 54.6875 
L 10.890625 54.6875 
L 10.890625 58.5 
Q 10.890625 67.625 15.140625 71.796875 
Q 19.390625 75.984375 28.609375 75.984375 
z
" id="DejaVuSans-102"/>
      <path d="M 8.5 21.578125 
L 8.5 54.6875 
L 17.484375 54.6875 
L 17.484375 21.921875 
Q 17.484375 14.15625 20.5 10.265625 
Q 23.53125 6.390625 29.59375 6.390625 
Q 36.859375 6.390625 41.078125 11.03125 
Q 45.3125 15.671875 45.3125 23.6875 
L 45.3125 54.6875 
L 54.296875 54.6875 
L 54.296875 0 
L 45.3125 0 
L 45.3125 8.40625 
Q 42.046875 3.421875 37.71875 1 
Q 33.40625 -1.421875 27.6875 -1.421875 
Q 18.265625 -1.421875 13.375 4.4375 
Q 8.5 10.296875 8.5 21.578125 
z
M 31.109375 56 
z
" id="DejaVuSans-117"/>
     </defs>
     <g transform="translate(18.398438 120.792954)rotate(-90)scale(0.1 -0.1)">
      <use xlink:href="#DejaVuSans-99"/>
      <use x="54.980469" xlink:href="#DejaVuSans-111"/>
      <use x="116.162109" xlink:href="#DejaVuSans-114"/>
      <use x="157.259766" xlink:href="#DejaVuSans-114"/>
      <use x="198.341797" xlink:href="#DejaVuSans-101"/>
      <use x="259.865234" xlink:href="#DejaVuSans-108"/>
      <use x="287.648438" xlink:href="#DejaVuSans-97"/>
      <use x="348.927734" xlink:href="#DejaVuSans-116"/>
      <use x="388.136719" xlink:href="#DejaVuSans-105"/>
      <use x="415.919922" xlink:href="#DejaVuSans-111"/>
      <use x="477.101562" xlink:href="#DejaVuSans-110"/>
      <use x="540.480469" xlink:href="#DejaVuSans-32"/>
      <use x="572.267578" xlink:href="#DejaVuSans-102"/>
      <use x="607.472656" xlink:href="#DejaVuSans-117"/>
      <use x="670.851562" xlink:href="#DejaVuSans-110"/>
      <use x="734.230469" xlink:href="#DejaVuSans-99"/>
      <use x="789.210938" xlink:href="#DejaVuSans-116"/>
      <use x="828.419922" xlink:href="#DejaVuSans-105"/>
      <use x="856.203125" xlink:href="#DejaVuSans-111"/>
      <use x="917.384766" xlink:href="#DejaVuSans-110"/>
     </g>
    </g>
   </g>
   <g id="line2d_19">
    <path clip-path="url(#pc34044d43b)" d="M 51.937066 108.41135 
L 52.388589 110.097261 
L 53.033621 111.489157 
L 53.162628 111.102199 
L 53.291634 110.702008 
L 53.678654 110.994469 
L 53.936667 110.531681 
L 54.19468 110.112623 
L 54.323686 109.841145 
L 54.452693 109.596509 
L 54.5817 109.610573 
L 55.226732 108.45832 
L 55.613752 106.588021 
L 55.678255 106.614327 
L 55.742758 106.581046 
L 56.323288 105.182468 
L 56.581301 105.334654 
L 56.710307 105.22835 
L 56.839314 105.291065 
L 57.032823 104.952555 
L 57.097327 104.989252 
L 57.35534 105.310341 
L 57.935869 106.430829 
L 58.129379 106.694958 
L 58.903418 108.919641 
L 59.225934 110.257618 
L 59.354941 110.771881 
L 59.806464 113.346142 
L 60.580503 115.810371 
L 60.709509 115.941197 
L 61.032025 116.467856 
L 61.161032 116.391886 
L 61.290039 116.047794 
L 61.419045 115.783054 
L 61.612555 116.195498 
L 61.935071 115.753202 
L 62.193084 115.087299 
L 62.5156 114.904235 
L 62.70911 115.265824 
L 63.031627 114.986879 
L 63.225136 115.451993 
L 63.354143 115.536463 
L 63.676659 116.156382 
L 63.870169 115.842362 
L 63.934672 115.895649 
L 64.321692 116.975809 
L 64.579705 117.490718 
L 64.837718 117.40002 
L 64.966724 117.405717 
L 65.611757 115.81639 
L 65.86977 115.148931 
L 65.998776 115.134997 
L 66.25679 114.483065 
L 66.450299 114.532915 
L 66.579306 114.568803 
L 66.708312 114.62704 
L 66.837319 114.387968 
L 66.966325 114.829301 
L 67.159835 115.379736 
L 67.417848 115.568701 
L 68.062881 113.961364 
L 68.256391 112.994778 
L 68.4499 113.227384 
L 68.772417 113.550301 
L 69.094933 112.68484 
L 69.352946 112.235199 
L 69.481953 112.2956 
L 69.675462 112.528922 
L 69.933475 111.765493 
L 69.997979 111.893153 
L 70.191488 112.292563 
L 70.384998 112.290754 
L 70.514005 112.440703 
L 70.707514 112.810327 
L 70.836521 112.71574 
L 71.288044 113.76729 
L 71.739567 113.940831 
L 72.062083 113.167494 
L 72.191089 113.15791 
L 72.513606 113.775984 
L 72.707116 113.797025 
L 73.287645 112.536637 
L 73.481155 112.81828 
L 73.610161 112.828393 
L 73.932677 113.739941 
L 74.319697 115.050094 
L 74.77122 115.550262 
L 74.96473 115.708597 
L 75.351749 116.5172 
L 75.996782 115.904265 
L 76.706318 114.141353 
L 77.222344 113.961141 
L 77.415853 113.735083 
L 77.54486 113.526893 
L 77.867376 113.773795 
L 78.125389 114.277395 
L 78.383402 114.504177 
L 78.512409 114.282856 
L 78.899428 113.262685 
L 79.221945 112.93356 
L 79.286448 112.809079 
L 79.350951 112.865644 
L 79.544461 113.421389 
L 79.737971 113.308471 
L 80.060487 113.554514 
L 80.51201 113.701611 
L 80.963533 114.811846 
L 81.157043 114.568177 
L 81.415056 114.185926 
L 81.544062 114.037648 
L 81.802075 113.444896 
L 82.060088 112.494546 
L 82.189095 112.330466 
L 82.705121 111.166933 
L 82.834127 111.059601 
L 82.963134 110.96958 
L 83.350153 111.676513 
L 83.737173 110.773539 
L 83.995186 110.00365 
L 84.382206 110.895036 
L 84.704722 111.345519 
L 84.898232 111.346796 
L 85.091741 111.55551 
L 85.220748 111.590492 
L 85.414258 111.778845 
L 85.607767 111.7451 
L 85.994787 110.810023 
L 86.381807 110.345193 
L 86.510813 110.427066 
L 86.768826 111.17405 
L 87.091342 112.232946 
L 87.284852 112.535034 
L 87.349355 112.490935 
L 87.865382 111.242431 
L 88.187898 111.787135 
L 88.381408 112.434105 
L 88.574917 112.281312 
L 89.090943 112.686337 
L 89.348957 113.271045 
L 89.542466 113.489069 
L 89.735976 113.212146 
L 89.864983 113.661932 
L 89.993989 113.948716 
L 90.187499 113.461467 
L 90.316505 113.453475 
L 91.090545 111.965189 
L 91.284054 111.752128 
L 91.477564 111.961595 
L 91.671074 112.564093 
L 91.929087 113.048822 
L 92.058093 113.193121 
L 92.509616 115.178306 
L 92.57412 115.148461 
L 92.638623 115.145499 
L 93.090146 116.114246 
L 93.348159 117.004135 
L 93.477165 117.039963 
L 93.735178 116.34832 
L 93.928688 115.917537 
L 94.315708 116.209187 
L 94.444714 116.488405 
L 94.702727 117.156159 
L 94.831734 117.314592 
L 94.896237 117.248594 
L 95.541269 115.659503 
L 95.734779 116.113192 
L 96.186302 117.043911 
L 96.379812 117.146688 
L 96.702328 117.854297 
L 96.766831 117.684821 
L 96.960341 117.305394 
L 97.089348 117.116691 
L 97.218354 116.954516 
L 97.347361 116.981791 
L 97.92789 116.657137 
L 98.056897 116.73756 
L 98.185903 117.283016 
L 98.443916 118.467638 
L 98.701929 118.409154 
L 98.766432 118.379954 
L 98.895439 118.850383 
L 99.024445 119.251119 
L 99.153452 119.159842 
L 99.411465 119.522711 
L 99.669478 119.518936 
L 99.798485 119.548097 
L 99.927491 119.579816 
L 99.991994 119.531531 
L 100.121001 119.909141 
L 100.250007 120.220543 
L 100.572524 120.12379 
L 100.766034 120.465222 
L 101.024047 119.991648 
L 101.411066 118.780223 
L 101.733582 117.54432 
L 101.991595 116.705464 
L 102.120602 116.955982 
L 102.894641 114.67537 
L 103.023648 114.75606 
L 103.217157 114.948159 
L 103.281661 114.910481 
L 103.539674 115.379582 
L 103.604177 115.248593 
L 104.184706 114.689857 
L 104.313713 114.657762 
L 104.636229 114.285458 
L 105.152255 114.666836 
L 105.281262 114.600937 
L 105.732785 113.502961 
L 105.797288 113.578498 
L 106.055301 113.852445 
L 106.184307 113.557585 
L 107.087353 110.489867 
L 107.280863 110.065703 
L 107.409869 110.691738 
L 107.603379 111.379735 
L 107.925895 111.743096 
L 108.248412 112.612418 
L 108.377418 112.700361 
L 108.635431 113.318095 
L 108.893444 113.424062 
L 109.538477 115.456435 
L 109.860993 117.627968 
L 110.054503 118.100115 
L 110.248013 117.936491 
L 110.441522 117.402866 
L 110.506026 117.43357 
L 110.699536 117.495513 
L 111.022052 117.423484 
L 111.151058 117.451673 
L 111.409071 117.356673 
L 111.602581 117.417796 
L 111.796091 117.168525 
L 112.118607 115.928374 
L 112.18311 115.993695 
L 112.634633 116.247424 
L 112.76364 115.822944 
L 112.828143 115.882619 
L 113.086156 116.701984 
L 113.215163 116.737274 
L 113.344169 116.574751 
L 113.731189 116.990511 
L 113.860195 116.786535 
L 114.118208 116.218343 
L 114.505228 116.209731 
L 114.698738 116.324483 
L 114.892247 116.332866 
L 115.085757 116.39614 
L 115.408273 116.838801 
L 115.601783 116.243881 
L 115.9243 115.570727 
L 116.182313 115.386643 
L 116.440326 115.553739 
L 116.956352 115.185844 
L 117.085358 115.66025 
L 117.278868 116.25086 
L 117.407875 116.339981 
L 117.988404 117.851357 
L 118.246417 117.973425 
L 118.375423 118.250034 
L 119.407476 122.127071 
L 119.471979 122.108558 
L 119.665489 122.085962 
L 119.794495 121.998485 
L 119.988005 122.315308 
L 120.375024 123.725487 
L 120.439528 123.637251 
L 120.762044 123.064005 
L 121.213567 123.097681 
L 121.342573 122.591709 
L 122.310122 116.91711 
L 122.503632 116.079019 
L 122.761645 114.829257 
L 122.890652 114.611052 
L 123.600187 111.352112 
L 124.567736 105.502248 
L 125.406279 97.124086 
L 125.728795 93.947363 
L 125.922305 92.218761 
L 126.760847 80.388265 
L 127.921906 57.290037 
L 128.760448 34.820766 
L 129.276474 19.836895 
L 129.340978 20.20052 
L 129.534487 25.724628 
L 130.502036 56.391599 
L 131.405082 76.419954 
L 132.243624 87.285063 
L 133.404683 99.084203 
L 133.598193 100.349434 
L 133.985212 103.001743 
L 134.372232 105.152871 
L 134.823755 108.019531 
L 135.404284 109.776133 
L 135.597794 109.741922 
L 135.92031 110.476025 
L 136.30733 111.805791 
L 136.694349 112.509865 
L 136.823356 112.543634 
L 136.952362 112.924477 
L 137.210375 113.941097 
L 137.468388 114.07275 
L 137.790905 115.074629 
L 137.984414 115.235999 
L 138.177924 116.420239 
L 138.564944 118.282627 
L 138.69395 118.262794 
L 138.951963 117.891682 
L 139.08097 117.84143 
L 139.27448 117.528306 
L 139.726002 117.887027 
L 140.048519 117.31768 
L 140.177525 117.345796 
L 140.500042 117.836199 
L 140.887061 118.176374 
L 141.532094 116.51724 
L 141.725603 116.001231 
L 141.919113 115.513842 
L 142.112623 115.611048 
L 142.435139 115.970763 
L 142.628649 115.740916 
L 142.693152 115.848306 
L 143.144675 116.866383 
L 143.209178 116.799017 
L 143.467191 116.509483 
L 143.725205 117.586745 
L 143.854211 117.476026 
L 144.176727 117.501315 
L 144.305734 117.631939 
L 144.43474 117.374414 
L 144.82176 116.504853 
L 144.950766 116.669655 
L 145.01527 116.58708 
L 145.273283 115.851703 
L 145.402289 115.743808 
L 146.111825 114.549535 
L 147.079374 117.300935 
L 147.272884 117.561773 
L 147.40189 117.896619 
L 147.659903 118.835689 
L 148.175929 118.50652 
L 148.498446 117.732218 
L 148.627452 117.727249 
L 149.207982 118.489503 
L 149.465995 118.341653 
L 149.724008 118.568201 
L 150.433544 120.575216 
L 150.56255 120.24328 
L 150.75606 119.707182 
L 150.820563 119.758967 
L 150.885066 119.675707 
L 151.272086 118.264013 
L 151.465596 118.744421 
L 151.530099 118.658671 
L 152.949171 114.781962 
L 153.078177 114.958797 
L 153.14268 114.924 
L 153.33619 114.439387 
L 153.400694 114.481616 
L 153.5297 114.491308 
L 153.72321 114.16225 
L 153.852216 114.171191 
L 154.045726 114.075372 
L 154.497249 114.237552 
L 154.884268 114.956504 
L 155.142282 115.621513 
L 155.400295 116.20816 
L 156.432347 121.592361 
L 156.754863 122.17677 
L 156.948373 122.788845 
L 157.141883 122.428179 
L 157.464399 121.38516 
L 157.528902 121.415425 
L 157.657909 121.425007 
L 158.044928 120.865272 
L 158.431948 120.23368 
L 158.560954 120.019975 
L 158.754464 120.19966 
L 158.883471 120.014847 
L 159.07698 119.615045 
L 159.27049 119.72114 
L 159.464 119.606569 
L 159.915523 117.690354 
L 160.238039 116.526272 
L 160.496052 116.027853 
L 160.818568 115.991485 
L 161.657111 114.671353 
L 161.786117 114.970642 
L 161.979627 115.284091 
L 162.302143 115.36233 
L 162.947176 116.420115 
L 163.011679 116.481413 
L 163.205189 116.021925 
L 163.785718 114.839308 
L 163.979228 114.383751 
L 164.172738 114.679424 
L 164.301744 114.886879 
L 164.366248 114.853844 
L 164.495254 114.87503 
L 165.269293 116.626719 
L 165.3983 116.793636 
L 165.462803 116.7567 
L 165.656313 116.153323 
L 165.978829 115.411898 
L 166.301345 115.609395 
L 166.559359 116.128926 
L 166.688365 116.282508 
L 166.752868 116.218402 
L 167.204391 114.961962 
L 167.397901 114.889631 
L 167.526907 114.957725 
L 167.720417 115.238712 
L 168.300947 114.741366 
L 168.55896 114.389624 
L 168.752469 114.422944 
L 168.945979 114.289804 
L 169.655515 114.26751 
L 170.107038 113.157231 
L 170.236044 112.985937 
L 170.365051 113.210005 
L 170.429554 113.144869 
L 170.687567 112.695218 
L 170.816574 112.646618 
L 171.010083 112.424234 
L 171.203593 112.407228 
L 171.590613 111.547674 
L 171.655116 111.359367 
L 171.719619 111.404239 
L 171.977632 112.098759 
L 172.235645 112.383244 
L 172.622665 112.525013 
L 172.816175 112.436373 
L 173.074188 112.719595 
L 173.203194 112.565091 
L 173.783724 110.697713 
L 173.977233 110.677535 
L 174.235246 111.31378 
L 174.29975 111.262715 
L 174.493259 110.91336 
L 174.686769 110.690921 
L 175.073789 110.370591 
L 175.525312 110.463101 
L 175.718821 110.479172 
L 175.976834 110.676107 
L 176.170344 110.305536 
L 176.234847 110.369274 
L 176.299351 110.382433 
L 177.07339 109.12579 
L 177.589416 109.773864 
L 177.911932 110.812442 
L 178.105442 110.915412 
L 178.427958 111.507557 
L 178.556965 111.393813 
L 179.331004 110.089049 
L 179.589017 109.321102 
L 179.718024 109.243542 
L 180.04054 108.620542 
L 180.169546 108.750926 
L 180.492063 109.200146 
L 180.621069 108.855563 
L 180.750076 108.374 
L 180.814579 108.414618 
L 180.943585 108.479964 
L 181.072592 108.470236 
L 181.201598 108.610598 
L 181.524115 107.712461 
L 181.588618 107.795888 
L 182.42716 111.211476 
L 182.878683 111.700462 
L 183.072193 111.457525 
L 183.136696 111.596056 
L 183.330206 112.457584 
L 183.394709 112.421459 
L 183.652722 112.330953 
L 183.717226 112.373723 
L 183.975239 112.999076 
L 184.104245 112.708839 
L 184.297755 112.008391 
L 184.362258 112.038218 
L 184.491265 112.079826 
L 184.620271 112.042147 
L 184.813781 112.338135 
L 185.136297 113.058721 
L 185.39431 113.185819 
L 185.523317 113.208093 
L 185.910336 112.185071 
L 186.039343 112.214694 
L 186.361859 112.653558 
L 186.426363 112.548943 
L 186.619872 111.946766 
L 186.813382 112.26274 
L 186.942389 112.081673 
L 187.006892 112.129208 
L 187.264905 112.684196 
L 188.038944 115.395928 
L 188.36146 115.38727 
L 188.490467 115.252387 
L 188.74848 115.941108 
L 188.877486 116.245869 
L 188.94199 116.199072 
L 189.006493 116.136567 
L 189.070996 116.220389 
L 189.329009 117.444382 
L 189.522519 118.253936 
L 189.716029 118.562004 
L 189.909539 118.373369 
L 189.974042 118.347615 
L 190.232055 118.001141 
L 190.361061 117.744154 
L 190.619074 117.247381 
L 191.006094 117.535608 
L 191.32861 118.331762 
L 191.393114 118.278999 
L 191.52212 118.477308 
L 191.780133 119.035788 
L 191.844636 119.002944 
L 191.973643 118.787606 
L 192.167153 118.895006 
L 192.425166 117.96263 
L 192.876688 116.093763 
L 193.457218 114.20072 
L 193.908741 113.727978 
L 194.231257 113.058986 
L 194.618277 112.621565 
L 194.68278 112.690273 
L 194.811786 112.759965 
L 195.005296 112.590092 
L 195.134303 112.592975 
L 195.263309 112.600351 
L 195.456819 112.792209 
L 195.585825 112.921039 
L 195.779335 113.039672 
L 195.908342 112.931908 
L 196.424368 111.89353 
L 196.617878 111.740551 
L 196.811387 111.725783 
L 196.940394 111.938725 
L 197.004897 111.90573 
L 197.133904 111.644957 
L 197.327413 110.789133 
L 197.391917 110.80804 
L 197.520923 110.993872 
L 197.778936 110.824226 
L 197.907943 110.664053 
L 198.101453 110.381976 
L 198.359466 110.932517 
L 198.552975 110.625245 
L 198.939995 109.419645 
L 199.004498 109.468108 
L 199.585028 109.859304 
L 199.778537 109.536337 
L 200.03655 108.852928 
L 200.165557 108.788017 
L 200.359067 108.367585 
L 200.746086 106.470211 
L 200.810589 106.490485 
L 201.133106 106.23323 
L 201.391119 105.674845 
L 201.520125 106.03596 
L 201.778138 106.649549 
L 201.907145 107.064416 
L 201.971648 107.020702 
L 202.165158 106.520728 
L 202.423171 106.938846 
L 202.874694 108.143523 
L 203.068204 108.536629 
L 203.326217 108.561098 
L 203.455223 108.636823 
L 203.906746 107.925122 
L 203.971249 108.013998 
L 204.164759 108.44858 
L 204.422772 108.238781 
L 204.874295 108.508308 
L 205.003301 108.680286 
L 205.325818 108.158839 
L 205.583831 108.70992 
L 205.97085 107.869486 
L 206.099857 107.839592 
L 206.293367 108.165707 
L 206.55138 108.602432 
L 206.615883 108.505055 
L 206.615883 108.505055 
" style="fill:none;stroke:#000000;stroke-linecap:square;"/>
   </g>
   <g id="line2d_20">
    <path clip-path="url(#pc34044d43b)" d="M 51.937066 112.569887 
L 70.836521 112.824167 
L 82.189095 113.166803 
L 89.671473 113.593199 
L 95.15425 114.109289 
L 99.798485 114.772083 
L 103.797687 115.580504 
L 107.345366 116.515746 
L 115.085757 118.67448 
L 116.440326 118.741477 
L 117.536881 118.573311 
L 118.439927 118.215552 
L 119.278469 117.640537 
L 120.052508 116.837034 
L 120.826547 115.696682 
L 121.600586 114.126533 
L 122.374626 112.008679 
L 123.148665 109.192626 
L 123.922704 105.484591 
L 124.696743 100.631839 
L 125.470782 94.298488 
L 126.244821 86.025207 
L 127.01886 75.154707 
L 127.728396 62.051379 
L 128.437932 44.609779 
L 129.276474 19.785422 
L 129.340978 20.333259 
L 129.598991 28.125952 
L 130.37303 51.570855 
L 131.147069 68.44703 
L 131.985611 81.857607 
L 132.824154 91.783659 
L 133.662696 99.202051 
L 134.501238 104.761932 
L 135.339781 108.920162 
L 136.178323 112.008679 
L 137.016866 114.276093 
L 137.855408 115.913047 
L 138.69395 117.065949 
L 139.532493 117.846704 
L 140.435538 118.370322 
L 141.403087 118.661244 
L 142.499643 118.747449 
L 143.789708 118.626911 
L 145.531296 118.240068 
L 149.207982 117.121956 
L 153.787713 115.814947 
L 157.335392 115.030668 
L 161.270091 114.381739 
L 165.785319 113.856116 
L 171.848626 113.395082 
L 179.266501 113.054321 
L 190.167552 112.776198 
L 206.486876 112.570904 
L 206.615883 112.569887 
L 206.615883 112.569887 
" style="fill:none;stroke:#ff0000;stroke-dasharray:3.7,1.6;stroke-dashoffset:0;"/>
   </g>
   <g id="patch_3">
    <path d="M 44.203125 128.92249 
L 44.203125 14.588419 
" style="fill:none;stroke:#000000;stroke-linecap:square;stroke-linejoin:miter;stroke-width:0.8;"/>
   </g>
   <g id="patch_4">
    <path d="M 214.349824 128.92249 
L 214.349824 14.588419 
" style="fill:none;stroke:#000000;stroke-linecap:square;stroke-linejoin:miter;stroke-width:0.8;"/>
   </g>
   <g id="patch_5">
    <path d="M 44.203125 128.92249 
L 214.349824 128.92249 
" style="fill:none;stroke:#000000;stroke-linecap:square;stroke-linejoin:miter;stroke-width:0.8;"/>
   </g>
   <g id="patch_6">
    <path d="M 44.203125 14.588419 
L 214.349824 14.588419 
" style="fill:none;stroke:#000000;stroke-linecap:square;stroke-linejoin:miter;stroke-width:0.8;"/>
   </g>
   <g id="legend_1">
    <g id="patch_7">
     <path d="M 134.795449 48.209044 
L 208.049824 48.209044 
Q 209.849824 48.209044 209.849824 46.409044 
L 209.849824 20.888419 
Q 209.849824 19.088419 208.049824 19.088419 
L 134.795449 19.088419 
Q 132.995449 19.088419 132.995449 20.888419 
L 132.995449 46.409044 
Q 132.995449 48.209044 134.795449 48.209044 
z
" style="fill:#ffffff;opacity:0.8;stroke:#cccccc;stroke-linejoin:miter;"/>
    </g>
    <g id="line2d_21">
     <path d="M 136.595449 26.377012 
L 154.595449 26.377012 
" style="fill:none;stroke:#000000;stroke-linecap:square;"/>
    </g>
    <g id="line2d_22"/>
    <g id="text_12">
     <!-- simulated -->
     <defs>
      <path d="M 52 44.1875 
Q 55.375 50.25 60.0625 53.125 
Q 64.75 56 71.09375 56 
Q 79.640625 56 84.28125 50.015625 
Q 88.921875 44.046875 88.921875 33.015625 
L 88.921875 0 
L 79.890625 0 
L 79.890625 32.71875 
Q 79.890625 40.578125 77.09375 44.375 
Q 74.3125 48.1875 68.609375 48.1875 
Q 61.625 48.1875 57.5625 43.546875 
Q 53.515625 38.921875 53.515625 30.90625 
L 53.515625 0 
L 44.484375 0 
L 44.484375 32.71875 
Q 44.484375 40.625 41.703125 44.40625 
Q 38.921875 48.1875 33.109375 48.1875 
Q 26.21875 48.1875 22.15625 43.53125 
Q 18.109375 38.875 18.109375 30.90625 
L 18.109375 0 
L 9.078125 0 
L 9.078125 54.6875 
L 18.109375 54.6875 
L 18.109375 46.1875 
Q 21.1875 51.21875 25.484375 53.609375 
Q 29.78125 56 35.6875 56 
Q 41.65625 56 45.828125 52.96875 
Q 50 49.953125 52 44.1875 
z
" id="DejaVuSans-109"/>
      <path d="M 45.40625 46.390625 
L 45.40625 75.984375 
L 54.390625 75.984375 
L 54.390625 0 
L 45.40625 0 
L 45.40625 8.203125 
Q 42.578125 3.328125 38.25 0.953125 
Q 33.9375 -1.421875 27.875 -1.421875 
Q 17.96875 -1.421875 11.734375 6.484375 
Q 5.515625 14.40625 5.515625 27.296875 
Q 5.515625 40.1875 11.734375 48.09375 
Q 17.96875 56 27.875 56 
Q 33.9375 56 38.25 53.625 
Q 42.578125 51.265625 45.40625 46.390625 
z
M 14.796875 27.296875 
Q 14.796875 17.390625 18.875 11.75 
Q 22.953125 6.109375 30.078125 6.109375 
Q 37.203125 6.109375 41.296875 11.75 
Q 45.40625 17.390625 45.40625 27.296875 
Q 45.40625 37.203125 41.296875 42.84375 
Q 37.203125 48.484375 30.078125 48.484375 
Q 22.953125 48.484375 18.875 42.84375 
Q 14.796875 37.203125 14.796875 27.296875 
z
" id="DejaVuSans-100"/>
     </defs>
     <g transform="translate(161.795449 29.527012)scale(0.09 -0.09)">
      <use xlink:href="#DejaVuSans-115"/>
      <use x="52.099609" xlink:href="#DejaVuSans-105"/>
      <use x="79.882812" xlink:href="#DejaVuSans-109"/>
      <use x="177.294922" xlink:href="#DejaVuSans-117"/>
      <use x="240.673828" xlink:href="#DejaVuSans-108"/>
      <use x="268.457031" xlink:href="#DejaVuSans-97"/>
      <use x="329.736328" xlink:href="#DejaVuSans-116"/>
      <use x="368.945312" xlink:href="#DejaVuSans-101"/>
      <use x="430.46875" xlink:href="#DejaVuSans-100"/>
     </g>
    </g>
    <g id="line2d_23">
     <path d="M 136.595449 39.587325 
L 154.595449 39.587325 
" style="fill:none;stroke:#ff0000;stroke-dasharray:3.7,1.6;stroke-dashoffset:0;"/>
    </g>
    <g id="line2d_24"/>
    <g id="text_13">
     <!-- target -->
     <defs>
      <path d="M 45.40625 27.984375 
Q 45.40625 37.75 41.375 43.109375 
Q 37.359375 48.484375 30.078125 48.484375 
Q 22.859375 48.484375 18.828125 43.109375 
Q 14.796875 37.75 14.796875 27.984375 
Q 14.796875 18.265625 18.828125 12.890625 
Q 22.859375 7.515625 30.078125 7.515625 
Q 37.359375 7.515625 41.375 12.890625 
Q 45.40625 18.265625 45.40625 27.984375 
z
M 54.390625 6.78125 
Q 54.390625 -7.171875 48.1875 -13.984375 
Q 42 -20.796875 29.203125 -20.796875 
Q 24.46875 -20.796875 20.265625 -20.09375 
Q 16.0625 -19.390625 12.109375 -17.921875 
L 12.109375 -9.1875 
Q 16.0625 -11.328125 19.921875 -12.34375 
Q 23.78125 -13.375 27.78125 -13.375 
Q 36.625 -13.375 41.015625 -8.765625 
Q 45.40625 -4.15625 45.40625 5.171875 
L 45.40625 9.625 
Q 42.625 4.78125 38.28125 2.390625 
Q 33.9375 0 27.875 0 
Q 17.828125 0 11.671875 7.65625 
Q 5.515625 15.328125 5.515625 27.984375 
Q 5.515625 40.671875 11.671875 48.328125 
Q 17.828125 56 27.875 56 
Q 33.9375 56 38.28125 53.609375 
Q 42.625 51.21875 45.40625 46.390625 
L 45.40625 54.6875 
L 54.390625 54.6875 
z
" id="DejaVuSans-103"/>
     </defs>
     <g transform="translate(161.795449 42.737325)scale(0.09 -0.09)">
      <use xlink:href="#DejaVuSans-116"/>
      <use x="39.208984" xlink:href="#DejaVuSans-97"/>
      <use x="100.488281" xlink:href="#DejaVuSans-114"/>
      <use x="141.585938" xlink:href="#DejaVuSans-103"/>
      <use x="205.0625" xlink:href="#DejaVuSans-101"/>
      <use x="266.585938" xlink:href="#DejaVuSans-116"/>
     </g>
    </g>
   </g>
  </g>
 </g>
 <defs>
  <clipPath id="pc34044d43b">
   <rect height="114.334072" width="170.146699" x="44.203125" y="14.588419"/>
  </clipPath>
 </defs>
</svg>
