<?xml version="1.0" encoding="utf-8" standalone="no"?>
<!DOCTYPE svg PUBLIC "-//W3C//DTD SVG 1.1//EN"
  "http://www.w3.org/Graphics/SVG/1.1/DTD/svg11.dtd">
<!-- Created with matplotlib (https://matplotlib.org/) -->
<svg height="170.07874pt" version="1.1" viewBox="0 0 226.771654 170.07874" width="226.771654pt" xmlns="http://www.w3.org/2000/svg" xmlns:xlink="http://www.w3.org/1999/xlink">
 <defs>
  <style type="text/css">
*{stroke-linecap:butt;stroke-linejoin:round;}
  </style>
 </defs>
 <g id="figure_1">
  <g id="patch_1">
   <path d="M 0 170.07874 
L 226.771654 170.07874 
L 226.771654 0 
L 0 0 
z
" style="fill:#ffffff;"/>
  </g>
  <g id="axes_1">
   <g id="patch_2">
    <path d="M 44.203125 128.92249 
L 214.349824 128.92249 
L 214.349824 12.385066 
L 44.203125 12.385066 
z
" style="fill:#ffffff;"/>
   </g>
   <g id="matplotlib.axis_1">
    <g id="xtick_1">
     <g id="line2d_1">
      <path clip-path="url(#p38f09f8a55)" d="M 51.872563 128.92249 
L 51.872563 12.385066 
" style="fill:none;stroke:#b0b0b0;stroke-linecap:square;stroke-width:0.8;"/>
     </g>
     <g id="line2d_2">
      <defs>
       <path d="M 0 0 
L 0 3.5 
" id="m196ecc890f" style="stroke:#000000;stroke-width:0.8;"/>
      </defs>
      <g>
       <use style="stroke:#000000;stroke-width:0.8;" x="51.872563" xlink:href="#m196ecc890f" y="128.92249"/>
      </g>
     </g>
     <g id="text_1">
      <!-- −100 -->
      <defs>
       <path d="M 10.59375 35.5 
L 73.1875 35.5 
L 73.1875 27.203125 
L 10.59375 27.203125 
z
" id="DejaVuSans-8722"/>
       <path d="M 12.40625 8.296875 
L 28.515625 8.296875 
L 28.515625 63.921875 
L 10.984375 60.40625 
L 10.984375 69.390625 
L 28.421875 72.90625 
L 38.28125 72.90625 
L 38.28125 8.296875 
L 54.390625 8.296875 
L 54.390625 0 
L 12.40625 0 
z
" id="DejaVuSans-49"/>
       <path d="M 31.78125 66.40625 
Q 24.171875 66.40625 20.328125 58.90625 
Q 16.5 51.421875 16.5 36.375 
Q 16.5 21.390625 20.328125 13.890625 
Q 24.171875 6.390625 31.78125 6.390625 
Q 39.453125 6.390625 43.28125 13.890625 
Q 47.125 21.390625 47.125 36.375 
Q 47.125 51.421875 43.28125 58.90625 
Q 39.453125 66.40625 31.78125 66.40625 
z
M 31.78125 74.21875 
Q 44.046875 74.21875 50.515625 64.515625 
Q 56.984375 54.828125 56.984375 36.375 
Q 56.984375 17.96875 50.515625 8.265625 
Q 44.046875 -1.421875 31.78125 -1.421875 
Q 19.53125 -1.421875 13.0625 8.265625 
Q 6.59375 17.96875 6.59375 36.375 
Q 6.59375 54.828125 13.0625 64.515625 
Q 19.53125 74.21875 31.78125 74.21875 
z
" id="DejaVuSans-48"/>
      </defs>
      <g transform="translate(38.138969 143.520928)scale(0.1 -0.1)">
       <use xlink:href="#DejaVuSans-8722"/>
       <use x="83.789062" xlink:href="#DejaVuSans-49"/>
       <use x="147.412109" xlink:href="#DejaVuSans-48"/>
       <use x="211.035156" xlink:href="#DejaVuSans-48"/>
      </g>
     </g>
    </g>
    <g id="xtick_2">
     <g id="line2d_3">
      <path clip-path="url(#p38f09f8a55)" d="M 90.574518 128.92249 
L 90.574518 12.385066 
" style="fill:none;stroke:#b0b0b0;stroke-linecap:square;stroke-width:0.8;"/>
     </g>
     <g id="line2d_4">
      <g>
       <use style="stroke:#000000;stroke-width:0.8;" x="90.574518" xlink:href="#m196ecc890f" y="128.92249"/>
      </g>
     </g>
     <g id="text_2">
      <!-- −50 -->
      <defs>
       <path d="M 10.796875 72.90625 
L 49.515625 72.90625 
L 49.515625 64.59375 
L 19.828125 64.59375 
L 19.828125 46.734375 
Q 21.96875 47.46875 24.109375 47.828125 
Q 26.265625 48.1875 28.421875 48.1875 
Q 40.625 48.1875 47.75 41.5 
Q 54.890625 34.8125 54.890625 23.390625 
Q 54.890625 11.625 47.5625 5.09375 
Q 40.234375 -1.421875 26.90625 -1.421875 
Q 22.3125 -1.421875 17.546875 -0.640625 
Q 12.796875 0.140625 7.71875 1.703125 
L 7.71875 11.625 
Q 12.109375 9.234375 16.796875 8.0625 
Q 21.484375 6.890625 26.703125 6.890625 
Q 35.15625 6.890625 40.078125 11.328125 
Q 45.015625 15.765625 45.015625 23.390625 
Q 45.015625 31 40.078125 35.4375 
Q 35.15625 39.890625 26.703125 39.890625 
Q 22.75 39.890625 18.8125 39.015625 
Q 14.890625 38.140625 10.796875 36.28125 
z
" id="DejaVuSans-53"/>
      </defs>
      <g transform="translate(80.022175 143.520928)scale(0.1 -0.1)">
       <use xlink:href="#DejaVuSans-8722"/>
       <use x="83.789062" xlink:href="#DejaVuSans-53"/>
       <use x="147.412109" xlink:href="#DejaVuSans-48"/>
      </g>
     </g>
    </g>
    <g id="xtick_3">
     <g id="line2d_5">
      <path clip-path="url(#p38f09f8a55)" d="M 129.276474 128.92249 
L 129.276474 12.385066 
" style="fill:none;stroke:#b0b0b0;stroke-linecap:square;stroke-width:0.8;"/>
     </g>
     <g id="line2d_6">
      <g>
       <use style="stroke:#000000;stroke-width:0.8;" x="129.276474" xlink:href="#m196ecc890f" y="128.92249"/>
      </g>
     </g>
     <g id="text_3">
      <!-- 0 -->
      <g transform="translate(126.095224 143.520928)scale(0.1 -0.1)">
       <use xlink:href="#DejaVuSans-48"/>
      </g>
     </g>
    </g>
    <g id="xtick_4">
     <g id="line2d_7">
      <path clip-path="url(#p38f09f8a55)" d="M 167.97843 128.92249 
L 167.97843 12.385066 
" style="fill:none;stroke:#b0b0b0;stroke-linecap:square;stroke-width:0.8;"/>
     </g>
     <g id="line2d_8">
      <g>
       <use style="stroke:#000000;stroke-width:0.8;" x="167.97843" xlink:href="#m196ecc890f" y="128.92249"/>
      </g>
     </g>
     <g id="text_4">
      <!-- 50 -->
      <g transform="translate(161.61593 143.520928)scale(0.1 -0.1)">
       <use xlink:href="#DejaVuSans-53"/>
       <use x="63.623047" xlink:href="#DejaVuSans-48"/>
      </g>
     </g>
    </g>
    <g id="xtick_5">
     <g id="line2d_9">
      <path clip-path="url(#p38f09f8a55)" d="M 206.680386 128.92249 
L 206.680386 12.385066 
" style="fill:none;stroke:#b0b0b0;stroke-linecap:square;stroke-width:0.8;"/>
     </g>
     <g id="line2d_10">
      <g>
       <use style="stroke:#000000;stroke-width:0.8;" x="206.680386" xlink:href="#m196ecc890f" y="128.92249"/>
      </g>
     </g>
     <g id="text_5">
      <!-- 100 -->
      <g transform="translate(197.136636 143.520928)scale(0.1 -0.1)">
       <use xlink:href="#DejaVuSans-49"/>
       <use x="63.623047" xlink:href="#DejaVuSans-48"/>
       <use x="127.246094" xlink:href="#DejaVuSans-48"/>
      </g>
     </g>
    </g>
    <g id="text_6">
     <!-- $\tau$ (s) -->
     <defs>
      <path d="M 32.859375 9.96875 
Q 34.1875 7.625 39.453125 7.625 
L 43.75 7.625 
L 42.28125 0 
L 36.921875 0 
Q 28.125 0 25 4.6875 
Q 21.921875 9.46875 23.96875 19.828125 
L 29 45.703125 
L 8.453125 45.703125 
L 10.203125 54.6875 
L 60.640625 54.6875 
L 58.890625 45.703125 
L 38.1875 45.703125 
L 33.015625 19.28125 
Q 31.640625 12.203125 32.859375 9.96875 
z
" id="DejaVuSans-Oblique-964"/>
      <path id="DejaVuSans-32"/>
      <path d="M 31 75.875 
Q 24.46875 64.65625 21.28125 53.65625 
Q 18.109375 42.671875 18.109375 31.390625 
Q 18.109375 20.125 21.3125 9.0625 
Q 24.515625 -2 31 -13.1875 
L 23.1875 -13.1875 
Q 15.875 -1.703125 12.234375 9.375 
Q 8.59375 20.453125 8.59375 31.390625 
Q 8.59375 42.28125 12.203125 53.3125 
Q 15.828125 64.359375 23.1875 75.875 
z
" id="DejaVuSans-40"/>
      <path d="M 44.28125 53.078125 
L 44.28125 44.578125 
Q 40.484375 46.53125 36.375 47.5 
Q 32.28125 48.484375 27.875 48.484375 
Q 21.1875 48.484375 17.84375 46.4375 
Q 14.5 44.390625 14.5 40.28125 
Q 14.5 37.15625 16.890625 35.375 
Q 19.28125 33.59375 26.515625 31.984375 
L 29.59375 31.296875 
Q 39.15625 29.25 43.1875 25.515625 
Q 47.21875 21.78125 47.21875 15.09375 
Q 47.21875 7.46875 41.1875 3.015625 
Q 35.15625 -1.421875 24.609375 -1.421875 
Q 20.21875 -1.421875 15.453125 -0.5625 
Q 10.6875 0.296875 5.421875 2 
L 5.421875 11.28125 
Q 10.40625 8.6875 15.234375 7.390625 
Q 20.0625 6.109375 24.8125 6.109375 
Q 31.15625 6.109375 34.5625 8.28125 
Q 37.984375 10.453125 37.984375 14.40625 
Q 37.984375 18.0625 35.515625 20.015625 
Q 33.0625 21.96875 24.703125 23.78125 
L 21.578125 24.515625 
Q 13.234375 26.265625 9.515625 29.90625 
Q 5.8125 33.546875 5.8125 39.890625 
Q 5.8125 47.609375 11.28125 51.796875 
Q 16.75 56 26.8125 56 
Q 31.78125 56 36.171875 55.265625 
Q 40.578125 54.546875 44.28125 53.078125 
z
" id="DejaVuSans-115"/>
      <path d="M 8.015625 75.875 
L 15.828125 75.875 
Q 23.140625 64.359375 26.78125 53.3125 
Q 30.421875 42.28125 30.421875 31.390625 
Q 30.421875 20.453125 26.78125 9.375 
Q 23.140625 -1.703125 15.828125 -13.1875 
L 8.015625 -13.1875 
Q 14.5 -2 17.703125 9.0625 
Q 20.90625 20.125 20.90625 31.390625 
Q 20.90625 42.671875 17.703125 53.65625 
Q 14.5 64.65625 8.015625 75.875 
z
" id="DejaVuSans-41"/>
     </defs>
     <g transform="translate(118.126474 157.199053)scale(0.1 -0.1)">
      <use transform="translate(0 0.125)" xlink:href="#DejaVuSans-Oblique-964"/>
      <use transform="translate(60.205078 0.125)" xlink:href="#DejaVuSans-32"/>
      <use transform="translate(91.992188 0.125)" xlink:href="#DejaVuSans-40"/>
      <use transform="translate(131.005859 0.125)" xlink:href="#DejaVuSans-115"/>
      <use transform="translate(183.105469 0.125)" xlink:href="#DejaVuSans-41"/>
     </g>
    </g>
   </g>
   <g id="matplotlib.axis_2">
    <g id="ytick_1">
     <g id="line2d_11">
      <path clip-path="url(#p38f09f8a55)" d="M 44.203125 108.993618 
L 214.349824 108.993618 
" style="fill:none;stroke:#b0b0b0;stroke-linecap:square;stroke-width:0.8;"/>
     </g>
     <g id="line2d_12">
      <defs>
       <path d="M 0 0 
L -3.5 0 
" id="mc80c62d7ac" style="stroke:#000000;stroke-width:0.8;"/>
      </defs>
      <g>
       <use style="stroke:#000000;stroke-width:0.8;" x="44.203125" xlink:href="#mc80c62d7ac" y="108.993618"/>
      </g>
     </g>
     <g id="text_7">
      <!-- 0 -->
      <g transform="translate(30.840625 112.792837)scale(0.1 -0.1)">
       <use xlink:href="#DejaVuSans-48"/>
      </g>
     </g>
    </g>
    <g id="ytick_2">
     <g id="line2d_13">
      <path clip-path="url(#p38f09f8a55)" d="M 44.203125 77.447534 
L 214.349824 77.447534 
" style="fill:none;stroke:#b0b0b0;stroke-linecap:square;stroke-width:0.8;"/>
     </g>
     <g id="line2d_14">
      <g>
       <use style="stroke:#000000;stroke-width:0.8;" x="44.203125" xlink:href="#mc80c62d7ac" y="77.447534"/>
      </g>
     </g>
     <g id="text_8">
      <!-- 5 -->
      <g transform="translate(30.840625 81.246753)scale(0.1 -0.1)">
       <use xlink:href="#DejaVuSans-53"/>
      </g>
     </g>
    </g>
    <g id="ytick_3">
     <g id="line2d_15">
      <path clip-path="url(#p38f09f8a55)" d="M 44.203125 45.90145 
L 214.349824 45.90145 
" style="fill:none;stroke:#b0b0b0;stroke-linecap:square;stroke-width:0.8;"/>
     </g>
     <g id="line2d_16">
      <g>
       <use style="stroke:#000000;stroke-width:0.8;" x="44.203125" xlink:href="#mc80c62d7ac" y="45.90145"/>
      </g>
     </g>
     <g id="text_9">
      <!-- 10 -->
      <g transform="translate(24.478125 49.700669)scale(0.1 -0.1)">
       <use xlink:href="#DejaVuSans-49"/>
       <use x="63.623047" xlink:href="#DejaVuSans-48"/>
      </g>
     </g>
    </g>
    <g id="ytick_4">
     <g id="line2d_17">
      <path clip-path="url(#p38f09f8a55)" d="M 44.203125 14.355365 
L 214.349824 14.355365 
" style="fill:none;stroke:#b0b0b0;stroke-linecap:square;stroke-width:0.8;"/>
     </g>
     <g id="line2d_18">
      <g>
       <use style="stroke:#000000;stroke-width:0.8;" x="44.203125" xlink:href="#mc80c62d7ac" y="14.355365"/>
      </g>
     </g>
     <g id="text_10">
      <!-- 15 -->
      <g transform="translate(24.478125 18.154584)scale(0.1 -0.1)">
       <use xlink:href="#DejaVuSans-49"/>
       <use x="63.623047" xlink:href="#DejaVuSans-53"/>
      </g>
     </g>
    </g>
    <g id="text_11">
     <!-- correlation function -->
     <defs>
      <path d="M 48.78125 52.59375 
L 48.78125 44.1875 
Q 44.96875 46.296875 41.140625 47.34375 
Q 37.3125 48.390625 33.40625 48.390625 
Q 24.65625 48.390625 19.8125 42.84375 
Q 14.984375 37.3125 14.984375 27.296875 
Q 14.984375 17.28125 19.8125 11.734375 
Q 24.65625 6.203125 33.40625 6.203125 
Q 37.3125 6.203125 41.140625 7.25 
Q 44.96875 8.296875 48.78125 10.40625 
L 48.78125 2.09375 
Q 45.015625 0.34375 40.984375 -0.53125 
Q 36.96875 -1.421875 32.421875 -1.421875 
Q 20.0625 -1.421875 12.78125 6.34375 
Q 5.515625 14.109375 5.515625 27.296875 
Q 5.515625 40.671875 12.859375 48.328125 
Q 20.21875 56 33.015625 56 
Q 37.15625 56 41.109375 55.140625 
Q 45.0625 54.296875 48.78125 52.59375 
z
" id="DejaVuSans-99"/>
      <path d="M 30.609375 48.390625 
Q 23.390625 48.390625 19.1875 42.75 
Q 14.984375 37.109375 14.984375 27.296875 
Q 14.984375 17.484375 19.15625 11.84375 
Q 23.34375 6.203125 30.609375 6.203125 
Q 37.796875 6.203125 41.984375 11.859375 
Q 46.1875 17.53125 46.1875 27.296875 
Q 46.1875 37.015625 41.984375 42.703125 
Q 37.796875 48.390625 30.609375 48.390625 
z
M 30.609375 56 
Q 42.328125 56 49.015625 48.375 
Q 55.71875 40.765625 55.71875 27.296875 
Q 55.71875 13.875 49.015625 6.21875 
Q 42.328125 -1.421875 30.609375 -1.421875 
Q 18.84375 -1.421875 12.171875 6.21875 
Q 5.515625 13.875 5.515625 27.296875 
Q 5.515625 40.765625 12.171875 48.375 
Q 18.84375 56 30.609375 56 
z
" id="DejaVuSans-111"/>
      <path d="M 41.109375 46.296875 
Q 39.59375 47.171875 37.8125 47.578125 
Q 36.03125 48 33.890625 48 
Q 26.265625 48 22.1875 43.046875 
Q 18.109375 38.09375 18.109375 28.8125 
L 18.109375 0 
L 9.078125 0 
L 9.078125 54.6875 
L 18.109375 54.6875 
L 18.109375 46.1875 
Q 20.953125 51.171875 25.484375 53.578125 
Q 30.03125 56 36.53125 56 
Q 37.453125 56 38.578125 55.875 
Q 39.703125 55.765625 41.0625 55.515625 
z
" id="DejaVuSans-114"/>
      <path d="M 56.203125 29.59375 
L 56.203125 25.203125 
L 14.890625 25.203125 
Q 15.484375 15.921875 20.484375 11.0625 
Q 25.484375 6.203125 34.421875 6.203125 
Q 39.59375 6.203125 44.453125 7.46875 
Q 49.3125 8.734375 54.109375 11.28125 
L 54.109375 2.78125 
Q 49.265625 0.734375 44.1875 -0.34375 
Q 39.109375 -1.421875 33.890625 -1.421875 
Q 20.796875 -1.421875 13.15625 6.1875 
Q 5.515625 13.8125 5.515625 26.8125 
Q 5.515625 40.234375 12.765625 48.109375 
Q 20.015625 56 32.328125 56 
Q 43.359375 56 49.78125 48.890625 
Q 56.203125 41.796875 56.203125 29.59375 
z
M 47.21875 32.234375 
Q 47.125 39.59375 43.09375 43.984375 
Q 39.0625 48.390625 32.421875 48.390625 
Q 24.90625 48.390625 20.390625 44.140625 
Q 15.875 39.890625 15.1875 32.171875 
z
" id="DejaVuSans-101"/>
      <path d="M 9.421875 75.984375 
L 18.40625 75.984375 
L 18.40625 0 
L 9.421875 0 
z
" id="DejaVuSans-108"/>
      <path d="M 34.28125 27.484375 
Q 23.390625 27.484375 19.1875 25 
Q 14.984375 22.515625 14.984375 16.5 
Q 14.984375 11.71875 18.140625 8.90625 
Q 21.296875 6.109375 26.703125 6.109375 
Q 34.1875 6.109375 38.703125 11.40625 
Q 43.21875 16.703125 43.21875 25.484375 
L 43.21875 27.484375 
z
M 52.203125 31.203125 
L 52.203125 0 
L 43.21875 0 
L 43.21875 8.296875 
Q 40.140625 3.328125 35.546875 0.953125 
Q 30.953125 -1.421875 24.3125 -1.421875 
Q 15.921875 -1.421875 10.953125 3.296875 
Q 6 8.015625 6 15.921875 
Q 6 25.140625 12.171875 29.828125 
Q 18.359375 34.515625 30.609375 34.515625 
L 43.21875 34.515625 
L 43.21875 35.40625 
Q 43.21875 41.609375 39.140625 45 
Q 35.0625 48.390625 27.6875 48.390625 
Q 23 48.390625 18.546875 47.265625 
Q 14.109375 46.140625 10.015625 43.890625 
L 10.015625 52.203125 
Q 14.9375 54.109375 19.578125 55.046875 
Q 24.21875 56 28.609375 56 
Q 40.484375 56 46.34375 49.84375 
Q 52.203125 43.703125 52.203125 31.203125 
z
" id="DejaVuSans-97"/>
      <path d="M 18.3125 70.21875 
L 18.3125 54.6875 
L 36.8125 54.6875 
L 36.8125 47.703125 
L 18.3125 47.703125 
L 18.3125 18.015625 
Q 18.3125 11.328125 20.140625 9.421875 
Q 21.96875 7.515625 27.59375 7.515625 
L 36.8125 7.515625 
L 36.8125 0 
L 27.59375 0 
Q 17.1875 0 13.234375 3.875 
Q 9.28125 7.765625 9.28125 18.015625 
L 9.28125 47.703125 
L 2.6875 47.703125 
L 2.6875 54.6875 
L 9.28125 54.6875 
L 9.28125 70.21875 
z
" id="DejaVuSans-116"/>
      <path d="M 9.421875 54.6875 
L 18.40625 54.6875 
L 18.40625 0 
L 9.421875 0 
z
M 9.421875 75.984375 
L 18.40625 75.984375 
L 18.40625 64.59375 
L 9.421875 64.59375 
z
" id="DejaVuSans-105"/>
      <path d="M 54.890625 33.015625 
L 54.890625 0 
L 45.90625 0 
L 45.90625 32.71875 
Q 45.90625 40.484375 42.875 44.328125 
Q 39.84375 48.1875 33.796875 48.1875 
Q 26.515625 48.1875 22.3125 43.546875 
Q 18.109375 38.921875 18.109375 30.90625 
L 18.109375 0 
L 9.078125 0 
L 9.078125 54.6875 
L 18.109375 54.6875 
L 18.109375 46.1875 
Q 21.34375 51.125 25.703125 53.5625 
Q 30.078125 56 35.796875 56 
Q 45.21875 56 50.046875 50.171875 
Q 54.890625 44.34375 54.890625 33.015625 
z
" id="DejaVuSans-110"/>
      <path d="M 37.109375 75.984375 
L 37.109375 68.5 
L 28.515625 68.5 
Q 23.6875 68.5 21.796875 66.546875 
Q 19.921875 64.59375 19.921875 59.515625 
L 19.921875 54.6875 
L 34.71875 54.6875 
L 34.71875 47.703125 
L 19.921875 47.703125 
L 19.921875 0 
L 10.890625 0 
L 10.890625 47.703125 
L 2.296875 47.703125 
L 2.296875 54.6875 
L 10.890625 54.6875 
L 10.890625 58.5 
Q 10.890625 67.625 15.140625 71.796875 
Q 19.390625 75.984375 28.609375 75.984375 
z
" id="DejaVuSans-102"/>
      <path d="M 8.5 21.578125 
L 8.5 54.6875 
L 17.484375 54.6875 
L 17.484375 21.921875 
Q 17.484375 14.15625 20.5 10.265625 
Q 23.53125 6.390625 29.59375 6.390625 
Q 36.859375 6.390625 41.078125 11.03125 
Q 45.3125 15.671875 45.3125 23.6875 
L 45.3125 54.6875 
L 54.296875 54.6875 
L 54.296875 0 
L 45.3125 0 
L 45.3125 8.40625 
Q 42.046875 3.421875 37.71875 1 
Q 33.40625 -1.421875 27.6875 -1.421875 
Q 18.265625 -1.421875 13.375 4.4375 
Q 8.5 10.296875 8.5 21.578125 
z
M 31.109375 56 
z
" id="DejaVuSans-117"/>
     </defs>
     <g transform="translate(18.398438 119.691278)rotate(-90)scale(0.1 -0.1)">
      <use xlink:href="#DejaVuSans-99"/>
      <use x="54.980469" xlink:href="#DejaVuSans-111"/>
      <use x="116.162109" xlink:href="#DejaVuSans-114"/>
      <use x="157.259766" xlink:href="#DejaVuSans-114"/>
      <use x="198.341797" xlink:href="#DejaVuSans-101"/>
      <use x="259.865234" xlink:href="#DejaVuSans-108"/>
      <use x="287.648438" xlink:href="#DejaVuSans-97"/>
      <use x="348.927734" xlink:href="#DejaVuSans-116"/>
      <use x="388.136719" xlink:href="#DejaVuSans-105"/>
      <use x="415.919922" xlink:href="#DejaVuSans-111"/>
      <use x="477.101562" xlink:href="#DejaVuSans-110"/>
      <use x="540.480469" xlink:href="#DejaVuSans-32"/>
      <use x="572.267578" xlink:href="#DejaVuSans-102"/>
      <use x="607.472656" xlink:href="#DejaVuSans-117"/>
      <use x="670.851562" xlink:href="#DejaVuSans-110"/>
      <use x="734.230469" xlink:href="#DejaVuSans-99"/>
      <use x="789.210938" xlink:href="#DejaVuSans-116"/>
      <use x="828.419922" xlink:href="#DejaVuSans-105"/>
      <use x="856.203125" xlink:href="#DejaVuSans-111"/>
      <use x="917.384766" xlink:href="#DejaVuSans-110"/>
     </g>
    </g>
   </g>
   <g id="line2d_19">
    <path clip-path="url(#p38f09f8a55)" d="M 51.937066 104.247276 
L 52.066072 104.189544 
L 52.259582 104.327462 
L 52.388589 104.313883 
L 52.582098 104.421267 
L 52.775608 103.753353 
L 52.969118 103.43585 
L 53.227131 103.548638 
L 53.485144 103.650134 
L 53.678654 103.75393 
L 54.00117 102.98568 
L 54.130177 102.720976 
L 54.452693 103.140726 
L 54.517196 103.043865 
L 54.904216 102.546491 
L 55.291235 103.092344 
L 55.420242 102.904644 
L 55.549248 102.761344 
L 55.871765 103.300264 
L 56.387791 101.958648 
L 56.516797 101.671616 
L 56.77481 100.909948 
L 57.16183 100.619963 
L 57.290836 100.749378 
L 57.419843 100.63388 
L 57.548849 100.949248 
L 57.806862 102.163556 
L 58.645405 106.450926 
L 58.967921 107.855402 
L 59.032424 107.80735 
L 59.161431 107.814501 
L 59.548451 109.015808 
L 59.74196 109.367753 
L 59.999973 109.545236 
L 60.12898 109.576034 
L 60.32249 109.870206 
L 60.451496 109.956426 
L 60.645006 110.582561 
L 60.967522 111.879696 
L 61.290039 111.845998 
L 61.419045 111.89026 
L 61.548052 111.972109 
L 61.806065 111.267742 
L 62.064078 110.621002 
L 62.322091 110.026962 
L 62.386594 110.074426 
L 62.5156 110.144728 
L 63.031627 111.001039 
L 63.354143 109.839795 
L 63.418646 109.908714 
L 63.676659 110.033446 
L 63.805666 109.751038 
L 63.999175 109.034401 
L 64.063679 109.05495 
L 64.257188 109.296792 
L 64.450698 109.294803 
L 64.579705 109.369762 
L 64.902221 109.176901 
L 65.031228 109.439398 
L 65.611757 111.153771 
L 65.805267 111.853311 
L 66.06328 113.164675 
L 66.321293 113.626357 
L 66.514803 113.866973 
L 66.643809 113.664272 
L 66.901822 113.191688 
L 67.095332 113.210966 
L 67.353345 112.558412 
L 67.417848 112.622403 
L 67.611358 112.703041 
L 67.804868 112.696006 
L 68.127384 113.225073 
L 68.256391 113.444875 
L 68.385397 113.369282 
L 68.514404 113.513308 
L 68.578907 113.453652 
L 68.83692 113.143731 
L 68.965926 113.228675 
L 69.094933 113.358233 
L 69.610959 113.031309 
L 69.933475 111.93224 
L 69.997979 111.816259 
L 70.062482 111.863448 
L 70.255992 112.334053 
L 70.320495 112.306168 
L 70.707514 110.971213 
L 71.288044 108.878291 
L 71.41705 109.009121 
L 71.99758 110.181889 
L 72.320096 110.414997 
L 72.449102 110.261423 
L 72.578109 110.013011 
L 72.900625 110.283122 
L 73.029632 110.002541 
L 73.223142 109.524005 
L 73.287645 109.498654 
L 73.481155 109.015085 
L 73.739168 110.065863 
L 74.061684 111.177944 
L 74.448704 111.859055 
L 74.642213 112.222901 
L 74.77122 111.943501 
L 74.900226 111.600645 
L 74.96473 111.639577 
L 75.158239 111.928712 
L 75.287246 111.83709 
L 75.480756 111.390932 
L 75.996782 109.732018 
L 76.190292 109.694723 
L 76.383801 109.133867 
L 77.028834 106.177791 
L 77.35135 106.340467 
L 77.802873 108.137812 
L 77.996383 109.219304 
L 78.512409 109.44562 
L 78.770422 109.865554 
L 78.963932 109.732452 
L 79.157441 110.037237 
L 79.415455 109.866382 
L 79.479958 109.829128 
L 79.737971 109.198629 
L 79.931481 109.254368 
L 80.12499 110.253323 
L 80.383003 111.169104 
L 80.51201 111.271239 
L 80.70552 111.015688 
L 80.899029 111.047077 
L 81.157043 110.07302 
L 81.544062 108.816398 
L 81.608565 108.891788 
L 81.673069 108.859816 
L 82.189095 107.772688 
L 82.576114 107.749828 
L 82.705121 107.702275 
L 82.963134 107.84408 
L 83.09214 107.697213 
L 83.221147 107.501956 
L 83.28565 107.536312 
L 83.414657 107.616123 
L 83.543663 107.409563 
L 84.124192 105.139791 
L 84.317702 105.225677 
L 84.704722 104.965194 
L 84.898232 105.308088 
L 85.543264 107.798668 
L 85.607767 107.740653 
L 86.123794 106.88952 
L 86.704323 107.471576 
L 87.091342 108.728573 
L 87.155846 108.744642 
L 87.349355 109.191553 
L 87.413859 109.124013 
L 87.607369 108.973112 
L 87.800878 109.01518 
L 88.123395 109.95101 
L 88.445911 110.975806 
L 88.574917 111.178424 
L 88.897434 112.052518 
L 89.21995 112.478685 
L 89.348957 112.714543 
L 89.60697 112.22888 
L 89.800479 111.953235 
L 90.187499 112.38915 
L 90.445512 112.398955 
L 90.574518 112.41674 
L 91.155048 111.006088 
L 91.477564 110.07149 
L 91.606571 110.011518 
L 91.929087 110.799091 
L 92.1871 112.302359 
L 92.509616 113.642687 
L 92.832133 114.171898 
L 93.219152 115.981554 
L 93.348159 115.881689 
L 93.541668 115.473916 
L 93.864185 114.581454 
L 94.186701 113.858652 
L 94.573721 112.762221 
L 95.025243 111.447032 
L 95.283256 111.690198 
L 95.476766 111.687418 
L 95.734779 111.942443 
L 95.928289 111.836764 
L 96.057296 111.865063 
L 96.573322 110.485027 
L 96.766831 109.927413 
L 97.089348 109.835198 
L 97.347361 109.087896 
L 97.476367 109.353974 
L 97.92789 110.976596 
L 98.056897 110.955928 
L 98.185903 111.409988 
L 98.637426 113.322071 
L 98.766432 113.450643 
L 99.024445 114.30508 
L 99.475968 116.265643 
L 99.604975 116.42252 
L 99.927491 116.060485 
L 100.056498 116.422013 
L 100.50802 118.116412 
L 100.830537 118.714786 
L 100.89504 118.662221 
L 101.153053 118.027067 
L 101.669079 115.364871 
L 101.927092 113.79602 
L 102.056099 113.48237 
L 102.443118 112.128194 
L 103.023648 110.462208 
L 103.281661 109.68946 
L 103.47517 109.857194 
L 103.604177 109.564065 
L 103.733183 109.198945 
L 103.797687 109.254739 
L 103.926693 109.308802 
L 104.0557 109.274986 
L 104.184706 109.379634 
L 104.313713 109.209565 
L 104.378216 109.255685 
L 104.700732 109.454378 
L 104.894242 109.154022 
L 104.958745 109.238637 
L 105.410268 109.898019 
L 105.603778 109.859845 
L 105.797288 109.477187 
L 105.861791 109.560085 
L 106.184307 110.016586 
L 106.248811 110.023222 
L 106.63583 108.54564 
L 106.700333 108.595639 
L 106.958346 109.679573 
L 107.216359 110.583565 
L 107.345366 110.564671 
L 107.538876 110.178621 
L 107.796889 110.420918 
L 107.925895 110.675598 
L 108.248412 111.414482 
L 108.377418 111.582185 
L 108.893444 110.892646 
L 109.151457 111.602505 
L 109.344967 111.979605 
L 109.60298 112.014179 
L 109.99 112.058524 
L 110.054503 111.964493 
L 110.119006 112.039636 
L 110.506026 113.630425 
L 110.764039 113.637844 
L 111.086555 114.388807 
L 111.538078 113.786936 
L 111.860594 113.129382 
L 112.054104 113.172872 
L 112.118607 113.182857 
L 112.37662 112.824057 
L 112.828143 112.710775 
L 113.215163 113.918299 
L 113.344169 113.994343 
L 113.666685 113.786656 
L 113.795692 113.63676 
L 114.053705 113.80823 
L 114.311718 114.273242 
L 114.956751 115.311967 
L 115.408273 114.296554 
L 115.666287 113.891958 
L 115.795293 113.976385 
L 115.9243 114.173442 
L 115.988803 114.117363 
L 116.182313 113.74557 
L 116.311319 113.913459 
L 116.504829 113.795499 
L 116.891848 115.100009 
L 117.536881 117.620306 
L 118.11741 119.177608 
L 118.633436 119.956999 
L 119.149463 122.196543 
L 119.471979 122.724221 
L 119.858998 123.403495 
L 120.052508 123.599988 
L 120.504031 122.514204 
L 120.762044 122.190884 
L 121.729593 119.311983 
L 121.923103 118.208186 
L 122.374626 115.271344 
L 122.503632 115.030381 
L 123.277671 112.313135 
L 123.664691 111.623156 
L 124.05171 109.591873 
L 124.503233 105.654122 
L 125.793298 90.415987 
L 126.760847 74.66061 
L 127.59939 62.214926 
L 128.244422 48.43276 
L 128.824952 30.416378 
L 129.276474 17.682222 
L 129.340978 18.280387 
L 129.663494 28.953116 
L 130.502036 55.764542 
L 131.018062 67.691597 
L 131.663095 78.165051 
L 132.501637 88.595894 
L 133.017663 93.759557 
L 133.856206 102.405072 
L 134.243225 104.956239 
L 134.436735 105.990808 
L 134.823755 107.95084 
L 135.275278 109.369934 
L 135.533291 109.049476 
L 135.7268 109.128553 
L 136.049317 109.688328 
L 136.242826 110.92212 
L 136.565343 112.851158 
L 136.952362 114.528518 
L 137.532892 117.028231 
L 137.919911 118.283026 
L 138.113421 118.634224 
L 138.371434 118.665466 
L 138.564944 119.074208 
L 139.145473 118.344317 
L 139.403486 116.866561 
L 140.371035 113.109327 
L 140.435538 113.16561 
L 140.629048 113.585777 
L 140.693551 113.59042 
L 140.887061 113.962771 
L 141.46759 112.744814 
L 141.6611 112.789052 
L 141.85461 112.587846 
L 141.983617 112.656141 
L 142.177126 112.491276 
L 142.435139 113.345792 
L 142.564146 113.265662 
L 142.693152 113.305877 
L 142.951165 113.052309 
L 143.080172 113.291807 
L 143.338185 113.80636 
L 143.660701 115.200187 
L 144.047721 116.791973 
L 144.176727 116.870717 
L 144.305734 117.052969 
L 144.82176 116.66784 
L 145.01527 116.905618 
L 145.20878 116.924512 
L 145.273283 116.943062 
L 145.402289 116.614449 
L 145.531296 116.3472 
L 145.724806 116.660162 
L 145.789309 116.604683 
L 146.111825 116.416272 
L 146.627851 116.270682 
L 146.756858 116.271941 
L 146.885864 116.223522 
L 147.079374 116.364924 
L 147.40189 116.61922 
L 147.5954 116.763088 
L 147.78891 116.628996 
L 147.917916 116.369722 
L 147.98242 116.411842 
L 148.175929 116.57862 
L 148.304936 116.47132 
L 149.336988 112.722421 
L 149.401491 112.717313 
L 149.595001 112.374379 
L 149.788511 112.891179 
L 149.982021 113.052988 
L 150.175531 112.858855 
L 150.885066 110.543943 
L 151.143079 109.413775 
L 151.401092 109.300647 
L 152.110628 106.508446 
L 152.691158 104.609396 
L 153.33619 104.864712 
L 153.465197 104.695363 
L 153.658707 104.961543 
L 153.852216 105.362471 
L 154.045726 105.3508 
L 154.561752 105.949873 
L 154.884268 106.687297 
L 155.206785 107.703249 
L 155.787314 110.567167 
L 156.625856 115.395027 
L 157.012876 116.187298 
L 157.399896 115.651369 
L 157.593405 115.26039 
L 157.657909 115.294877 
L 158.173935 114.316185 
L 158.496451 114.28261 
L 158.754464 114.599538 
L 159.141484 114.341711 
L 159.27049 113.908066 
L 159.786516 111.246829 
L 159.980026 110.833991 
L 160.044529 110.809278 
L 160.238039 110.347618 
L 160.302542 110.411769 
L 160.560555 110.65672 
L 160.818568 110.159937 
L 160.883072 110.240314 
L 161.850621 112.168048 
L 162.108634 112.958482 
L 162.173137 112.866232 
L 162.366647 112.686211 
L 162.560156 112.549968 
L 163.205189 112.853173 
L 163.334196 112.624286 
L 163.527705 112.839392 
L 163.592209 112.788045 
L 163.785718 112.719663 
L 164.108235 111.959877 
L 164.237241 111.941445 
L 164.430751 112.037193 
L 164.495254 111.993831 
L 164.624261 112.359246 
L 165.075784 114.140769 
L 165.462803 115.48922 
L 165.527306 115.405247 
L 165.656313 115.252753 
L 165.849823 115.675896 
L 166.043332 116.049281 
L 166.236842 115.724299 
L 166.430352 116.156315 
L 166.752868 115.820374 
L 166.881875 115.908349 
L 167.397901 115.441045 
L 167.720417 115.271674 
L 168.042933 114.811107 
L 168.17194 114.956112 
L 168.55896 115.783662 
L 168.752469 115.704267 
L 169.010482 116.04923 
L 169.139489 115.670082 
L 169.332999 115.168337 
L 169.591012 115.024292 
L 170.623064 112.509297 
L 170.881077 111.850207 
L 171.074587 111.88621 
L 171.3326 111.232041 
L 171.52611 110.355306 
L 171.719619 109.820975 
L 171.913129 109.626577 
L 172.042136 110.111608 
L 172.300149 111.415505 
L 172.816175 111.98959 
L 173.074188 111.548417 
L 173.332201 111.034206 
L 173.590214 110.47698 
L 173.91273 109.315536 
L 174.170743 108.793474 
L 174.493259 107.793142 
L 174.880279 107.254725 
L 175.009286 107.309126 
L 175.138292 107.416072 
L 175.396305 106.757499 
L 175.460808 106.810031 
L 175.912331 107.433172 
L 176.170344 107.652284 
L 176.428357 108.41178 
L 176.68637 108.215291 
L 176.815377 108.26173 
L 177.202396 108.975212 
L 177.331403 109.284751 
L 177.524913 109.102595 
L 177.653919 109.286886 
L 177.718422 109.237995 
L 178.040939 108.237676 
L 178.169945 108.360931 
L 178.363455 108.266272 
L 178.492462 108.551213 
L 178.556965 108.492818 
L 178.621468 108.407544 
L 178.685971 108.495849 
L 178.943984 109.227064 
L 179.072991 109.205584 
L 179.782527 107.774408 
L 179.84703 107.828861 
L 180.105043 107.96341 
L 180.363056 106.724291 
L 180.879082 104.565669 
L 180.943585 104.604348 
L 181.072592 104.600922 
L 181.395108 104.02483 
L 181.459612 104.009353 
L 182.104644 105.309072 
L 183.136696 109.422629 
L 183.523716 109.58513 
L 184.426761 106.543307 
L 184.620271 105.665967 
L 184.684775 105.633059 
L 185.39431 106.671238 
L 185.523317 106.526358 
L 185.716827 106.29788 
L 185.845833 106.470376 
L 185.97484 106.583215 
L 186.039343 106.547792 
L 186.168349 106.902891 
L 186.361859 107.245206 
L 186.490866 107.462465 
L 186.684376 108.047445 
L 186.813382 108.018009 
L 187.071395 108.675145 
L 187.135898 108.627344 
L 187.264905 108.527954 
L 187.458415 108.223071 
L 187.845434 108.681499 
L 187.974441 108.746068 
L 188.103447 108.948342 
L 188.167951 108.909025 
L 188.425964 108.81282 
L 188.490467 108.821442 
L 189.006493 110.198484 
L 189.070996 110.155277 
L 189.200003 110.049404 
L 189.329009 110.314095 
L 189.845035 112.185464 
L 189.974042 112.158295 
L 190.232055 112.420014 
L 190.425565 112.21457 
L 191.199604 114.431908 
L 191.264107 114.327382 
L 191.651127 113.635698 
L 191.780133 113.560018 
L 191.973643 114.034267 
L 192.038146 113.973486 
L 192.231656 113.707297 
L 192.360662 113.572618 
L 192.747682 113.092969 
L 193.070198 112.960843 
L 193.392715 113.081836 
L 194.10225 111.602946 
L 194.553773 111.161939 
L 194.68278 111.218577 
L 194.87629 110.941393 
L 194.940793 110.944195 
L 195.134303 110.482394 
L 195.198806 110.546346 
L 195.263309 110.63732 
L 195.327812 110.5889 
L 195.456819 110.475782 
L 195.972845 111.758001 
L 196.101851 111.727458 
L 196.424368 111.131588 
L 196.488871 111.184613 
L 196.617878 111.136676 
L 196.746884 110.824265 
L 197.327413 108.631408 
L 197.714433 108.136467 
L 197.84344 108.158303 
L 197.972446 107.829968 
L 198.488472 106.061225 
L 198.617479 105.989919 
L 199.069001 105.347802 
L 199.198008 105.229208 
L 199.327014 105.114151 
L 199.649531 105.316832 
L 199.778537 104.987833 
L 200.03655 104.289273 
L 200.165557 104.208484 
L 200.359067 104.345445 
L 200.488073 104.248462 
L 200.810589 103.298003 
L 201.004099 102.529502 
L 201.326616 101.417847 
L 201.520125 102.283602 
L 201.713635 102.813333 
L 202.036151 102.631885 
L 202.165158 102.496474 
L 202.358668 102.543726 
L 202.810191 102.572374 
L 202.939197 102.942988 
L 203.261713 104.184906 
L 203.58423 104.848875 
L 203.777739 105.111173 
L 203.971249 104.779552 
L 204.422772 105.57207 
L 205.583831 108.850481 
L 205.648334 108.848693 
L 206.16436 107.793797 
L 206.422373 108.052447 
L 206.615883 108.126778 
L 206.615883 108.126778 
" style="fill:none;stroke:#000000;stroke-linecap:square;"/>
   </g>
   <g id="line2d_20">
    <path clip-path="url(#p38f09f8a55)" d="M 51.937066 109.326839 
L 70.384998 109.570053 
L 82.769624 109.952075 
L 90.316505 110.422403 
L 95.605773 110.982685 
L 99.540472 111.608433 
L 103.152654 112.410224 
L 106.506824 113.40013 
L 110.119006 114.732955 
L 114.698738 116.459224 
L 116.246816 116.791733 
L 117.407875 116.811352 
L 118.31092 116.613631 
L 119.149463 116.196097 
L 119.923502 115.546543 
L 120.633038 114.664609 
L 121.342573 113.436082 
L 122.116613 111.596843 
L 122.890652 109.098593 
L 123.664691 105.759977 
L 124.43873 101.347324 
L 125.212769 95.55489 
L 125.986808 87.972953 
L 126.760847 78.030988 
L 127.534886 64.881373 
L 128.244422 48.821668 
L 128.889455 29.289913 
L 129.276474 18.425133 
L 129.405481 20.553094 
L 130.695546 58.149885 
L 131.469585 73.002781 
L 132.308128 84.955702 
L 133.14667 93.845114 
L 133.985212 100.485513 
L 134.823755 105.436141 
L 135.662297 109.098593 
L 136.500839 111.772553 
L 137.339382 113.687973 
L 138.113421 114.935961 
L 138.88746 115.795647 
L 139.661499 116.352655 
L 140.500042 116.693461 
L 141.403087 116.829956 
L 142.564146 116.75615 
L 143.918714 116.440567 
L 146.111825 115.662219 
L 153.078177 113.068552 
L 156.432347 112.155156 
L 160.044529 111.422351 
L 164.237241 110.821078 
L 169.526508 110.320379 
L 175.783325 109.952075 
L 185.458814 109.630077 
L 199.391518 109.397752 
L 206.615883 109.326839 
L 206.615883 109.326839 
" style="fill:none;stroke:#ff0000;stroke-dasharray:3.7,1.6;stroke-dashoffset:0;"/>
   </g>
   <g id="patch_3">
    <path d="M 44.203125 128.92249 
L 44.203125 12.385066 
" style="fill:none;stroke:#000000;stroke-linecap:square;stroke-linejoin:miter;stroke-width:0.8;"/>
   </g>
   <g id="patch_4">
    <path d="M 214.349824 128.92249 
L 214.349824 12.385066 
" style="fill:none;stroke:#000000;stroke-linecap:square;stroke-linejoin:miter;stroke-width:0.8;"/>
   </g>
   <g id="patch_5">
    <path d="M 44.203125 128.92249 
L 214.349824 128.92249 
" style="fill:none;stroke:#000000;stroke-linecap:square;stroke-linejoin:miter;stroke-width:0.8;"/>
   </g>
   <g id="patch_6">
    <path d="M 44.203125 12.385066 
L 214.349824 12.385066 
" style="fill:none;stroke:#000000;stroke-linecap:square;stroke-linejoin:miter;stroke-width:0.8;"/>
   </g>
   <g id="legend_1">
    <g id="patch_7">
     <path d="M 134.795449 46.005691 
L 208.049824 46.005691 
Q 209.849824 46.005691 209.849824 44.205691 
L 209.849824 18.685066 
Q 209.849824 16.885066 208.049824 16.885066 
L 134.795449 16.885066 
Q 132.995449 16.885066 132.995449 18.685066 
L 132.995449 44.205691 
Q 132.995449 46.005691 134.795449 46.005691 
z
" style="fill:#ffffff;opacity:0.8;stroke:#cccccc;stroke-linejoin:miter;"/>
    </g>
    <g id="line2d_21">
     <path d="M 136.595449 24.17366 
L 154.595449 24.17366 
" style="fill:none;stroke:#000000;stroke-linecap:square;"/>
    </g>
    <g id="line2d_22"/>
    <g id="text_12">
     <!-- simulated -->
     <defs>
      <path d="M 52 44.1875 
Q 55.375 50.25 60.0625 53.125 
Q 64.75 56 71.09375 56 
Q 79.640625 56 84.28125 50.015625 
Q 88.921875 44.046875 88.921875 33.015625 
L 88.921875 0 
L 79.890625 0 
L 79.890625 32.71875 
Q 79.890625 40.578125 77.09375 44.375 
Q 74.3125 48.1875 68.609375 48.1875 
Q 61.625 48.1875 57.5625 43.546875 
Q 53.515625 38.921875 53.515625 30.90625 
L 53.515625 0 
L 44.484375 0 
L 44.484375 32.71875 
Q 44.484375 40.625 41.703125 44.40625 
Q 38.921875 48.1875 33.109375 48.1875 
Q 26.21875 48.1875 22.15625 43.53125 
Q 18.109375 38.875 18.109375 30.90625 
L 18.109375 0 
L 9.078125 0 
L 9.078125 54.6875 
L 18.109375 54.6875 
L 18.109375 46.1875 
Q 21.1875 51.21875 25.484375 53.609375 
Q 29.78125 56 35.6875 56 
Q 41.65625 56 45.828125 52.96875 
Q 50 49.953125 52 44.1875 
z
" id="DejaVuSans-109"/>
      <path d="M 45.40625 46.390625 
L 45.40625 75.984375 
L 54.390625 75.984375 
L 54.390625 0 
L 45.40625 0 
L 45.40625 8.203125 
Q 42.578125 3.328125 38.25 0.953125 
Q 33.9375 -1.421875 27.875 -1.421875 
Q 17.96875 -1.421875 11.734375 6.484375 
Q 5.515625 14.40625 5.515625 27.296875 
Q 5.515625 40.1875 11.734375 48.09375 
Q 17.96875 56 27.875 56 
Q 33.9375 56 38.25 53.625 
Q 42.578125 51.265625 45.40625 46.390625 
z
M 14.796875 27.296875 
Q 14.796875 17.390625 18.875 11.75 
Q 22.953125 6.109375 30.078125 6.109375 
Q 37.203125 6.109375 41.296875 11.75 
Q 45.40625 17.390625 45.40625 27.296875 
Q 45.40625 37.203125 41.296875 42.84375 
Q 37.203125 48.484375 30.078125 48.484375 
Q 22.953125 48.484375 18.875 42.84375 
Q 14.796875 37.203125 14.796875 27.296875 
z
" id="DejaVuSans-100"/>
     </defs>
     <g transform="translate(161.795449 27.32366)scale(0.09 -0.09)">
      <use xlink:href="#DejaVuSans-115"/>
      <use x="52.099609" xlink:href="#DejaVuSans-105"/>
      <use x="79.882812" xlink:href="#DejaVuSans-109"/>
      <use x="177.294922" xlink:href="#DejaVuSans-117"/>
      <use x="240.673828" xlink:href="#DejaVuSans-108"/>
      <use x="268.457031" xlink:href="#DejaVuSans-97"/>
      <use x="329.736328" xlink:href="#DejaVuSans-116"/>
      <use x="368.945312" xlink:href="#DejaVuSans-101"/>
      <use x="430.46875" xlink:href="#DejaVuSans-100"/>
     </g>
    </g>
    <g id="line2d_23">
     <path d="M 136.595449 37.383972 
L 154.595449 37.383972 
" style="fill:none;stroke:#ff0000;stroke-dasharray:3.7,1.6;stroke-dashoffset:0;"/>
    </g>
    <g id="line2d_24"/>
    <g id="text_13">
     <!-- target -->
     <defs>
      <path d="M 45.40625 27.984375 
Q 45.40625 37.75 41.375 43.109375 
Q 37.359375 48.484375 30.078125 48.484375 
Q 22.859375 48.484375 18.828125 43.109375 
Q 14.796875 37.75 14.796875 27.984375 
Q 14.796875 18.265625 18.828125 12.890625 
Q 22.859375 7.515625 30.078125 7.515625 
Q 37.359375 7.515625 41.375 12.890625 
Q 45.40625 18.265625 45.40625 27.984375 
z
M 54.390625 6.78125 
Q 54.390625 -7.171875 48.1875 -13.984375 
Q 42 -20.796875 29.203125 -20.796875 
Q 24.46875 -20.796875 20.265625 -20.09375 
Q 16.0625 -19.390625 12.109375 -17.921875 
L 12.109375 -9.1875 
Q 16.0625 -11.328125 19.921875 -12.34375 
Q 23.78125 -13.375 27.78125 -13.375 
Q 36.625 -13.375 41.015625 -8.765625 
Q 45.40625 -4.15625 45.40625 5.171875 
L 45.40625 9.625 
Q 42.625 4.78125 38.28125 2.390625 
Q 33.9375 0 27.875 0 
Q 17.828125 0 11.671875 7.65625 
Q 5.515625 15.328125 5.515625 27.984375 
Q 5.515625 40.671875 11.671875 48.328125 
Q 17.828125 56 27.875 56 
Q 33.9375 56 38.28125 53.609375 
Q 42.625 51.21875 45.40625 46.390625 
L 45.40625 54.6875 
L 54.390625 54.6875 
z
" id="DejaVuSans-103"/>
     </defs>
     <g transform="translate(161.795449 40.533972)scale(0.09 -0.09)">
      <use xlink:href="#DejaVuSans-116"/>
      <use x="39.208984" xlink:href="#DejaVuSans-97"/>
      <use x="100.488281" xlink:href="#DejaVuSans-114"/>
      <use x="141.585938" xlink:href="#DejaVuSans-103"/>
      <use x="205.0625" xlink:href="#DejaVuSans-101"/>
      <use x="266.585938" xlink:href="#DejaVuSans-116"/>
     </g>
    </g>
   </g>
  </g>
 </g>
 <defs>
  <clipPath id="p38f09f8a55">
   <rect height="116.537424" width="170.146699" x="44.203125" y="12.385066"/>
  </clipPath>
 </defs>
</svg>
