<?xml version="1.0" encoding="utf-8" standalone="no"?>
<!DOCTYPE svg PUBLIC "-//W3C//DTD SVG 1.1//EN"
  "http://www.w3.org/Graphics/SVG/1.1/DTD/svg11.dtd">
<!-- Created with matplotlib (https://matplotlib.org/) -->
<svg height="170.07874pt" version="1.1" viewBox="0 0 226.771654 170.07874" width="226.771654pt" xmlns="http://www.w3.org/2000/svg" xmlns:xlink="http://www.w3.org/1999/xlink">
 <defs>
  <style type="text/css">
*{stroke-linecap:butt;stroke-linejoin:round;}
  </style>
 </defs>
 <g id="figure_1">
  <g id="patch_1">
   <path d="M 0 170.07874 
L 226.771654 170.07874 
L 226.771654 0 
L 0 0 
z
" style="fill:#ffffff;"/>
  </g>
  <g id="axes_1">
   <g id="patch_2">
    <path d="M 44.203125 128.92249 
L 214.349824 128.92249 
L 214.349824 13.254196 
L 44.203125 13.254196 
z
" style="fill:#ffffff;"/>
   </g>
   <g id="matplotlib.axis_1">
    <g id="xtick_1">
     <g id="line2d_1">
      <path clip-path="url(#p6a5aed956c)" d="M 51.872563 128.92249 
L 51.872563 13.254196 
" style="fill:none;stroke:#b0b0b0;stroke-linecap:square;stroke-width:0.8;"/>
     </g>
     <g id="line2d_2">
      <defs>
       <path d="M 0 0 
L 0 3.5 
" id="m6d2dec09c1" style="stroke:#000000;stroke-width:0.8;"/>
      </defs>
      <g>
       <use style="stroke:#000000;stroke-width:0.8;" x="51.872563" xlink:href="#m6d2dec09c1" y="128.92249"/>
      </g>
     </g>
     <g id="text_1">
      <!-- −100 -->
      <defs>
       <path d="M 10.59375 35.5 
L 73.1875 35.5 
L 73.1875 27.203125 
L 10.59375 27.203125 
z
" id="DejaVuSans-8722"/>
       <path d="M 12.40625 8.296875 
L 28.515625 8.296875 
L 28.515625 63.921875 
L 10.984375 60.40625 
L 10.984375 69.390625 
L 28.421875 72.90625 
L 38.28125 72.90625 
L 38.28125 8.296875 
L 54.390625 8.296875 
L 54.390625 0 
L 12.40625 0 
z
" id="DejaVuSans-49"/>
       <path d="M 31.78125 66.40625 
Q 24.171875 66.40625 20.328125 58.90625 
Q 16.5 51.421875 16.5 36.375 
Q 16.5 21.390625 20.328125 13.890625 
Q 24.171875 6.390625 31.78125 6.390625 
Q 39.453125 6.390625 43.28125 13.890625 
Q 47.125 21.390625 47.125 36.375 
Q 47.125 51.421875 43.28125 58.90625 
Q 39.453125 66.40625 31.78125 66.40625 
z
M 31.78125 74.21875 
Q 44.046875 74.21875 50.515625 64.515625 
Q 56.984375 54.828125 56.984375 36.375 
Q 56.984375 17.96875 50.515625 8.265625 
Q 44.046875 -1.421875 31.78125 -1.421875 
Q 19.53125 -1.421875 13.0625 8.265625 
Q 6.59375 17.96875 6.59375 36.375 
Q 6.59375 54.828125 13.0625 64.515625 
Q 19.53125 74.21875 31.78125 74.21875 
z
" id="DejaVuSans-48"/>
      </defs>
      <g transform="translate(38.138969 143.520928)scale(0.1 -0.1)">
       <use xlink:href="#DejaVuSans-8722"/>
       <use x="83.789062" xlink:href="#DejaVuSans-49"/>
       <use x="147.412109" xlink:href="#DejaVuSans-48"/>
       <use x="211.035156" xlink:href="#DejaVuSans-48"/>
      </g>
     </g>
    </g>
    <g id="xtick_2">
     <g id="line2d_3">
      <path clip-path="url(#p6a5aed956c)" d="M 90.574518 128.92249 
L 90.574518 13.254196 
" style="fill:none;stroke:#b0b0b0;stroke-linecap:square;stroke-width:0.8;"/>
     </g>
     <g id="line2d_4">
      <g>
       <use style="stroke:#000000;stroke-width:0.8;" x="90.574518" xlink:href="#m6d2dec09c1" y="128.92249"/>
      </g>
     </g>
     <g id="text_2">
      <!-- −50 -->
      <defs>
       <path d="M 10.796875 72.90625 
L 49.515625 72.90625 
L 49.515625 64.59375 
L 19.828125 64.59375 
L 19.828125 46.734375 
Q 21.96875 47.46875 24.109375 47.828125 
Q 26.265625 48.1875 28.421875 48.1875 
Q 40.625 48.1875 47.75 41.5 
Q 54.890625 34.8125 54.890625 23.390625 
Q 54.890625 11.625 47.5625 5.09375 
Q 40.234375 -1.421875 26.90625 -1.421875 
Q 22.3125 -1.421875 17.546875 -0.640625 
Q 12.796875 0.140625 7.71875 1.703125 
L 7.71875 11.625 
Q 12.109375 9.234375 16.796875 8.0625 
Q 21.484375 6.890625 26.703125 6.890625 
Q 35.15625 6.890625 40.078125 11.328125 
Q 45.015625 15.765625 45.015625 23.390625 
Q 45.015625 31 40.078125 35.4375 
Q 35.15625 39.890625 26.703125 39.890625 
Q 22.75 39.890625 18.8125 39.015625 
Q 14.890625 38.140625 10.796875 36.28125 
z
" id="DejaVuSans-53"/>
      </defs>
      <g transform="translate(80.022175 143.520928)scale(0.1 -0.1)">
       <use xlink:href="#DejaVuSans-8722"/>
       <use x="83.789062" xlink:href="#DejaVuSans-53"/>
       <use x="147.412109" xlink:href="#DejaVuSans-48"/>
      </g>
     </g>
    </g>
    <g id="xtick_3">
     <g id="line2d_5">
      <path clip-path="url(#p6a5aed956c)" d="M 129.276474 128.92249 
L 129.276474 13.254196 
" style="fill:none;stroke:#b0b0b0;stroke-linecap:square;stroke-width:0.8;"/>
     </g>
     <g id="line2d_6">
      <g>
       <use style="stroke:#000000;stroke-width:0.8;" x="129.276474" xlink:href="#m6d2dec09c1" y="128.92249"/>
      </g>
     </g>
     <g id="text_3">
      <!-- 0 -->
      <g transform="translate(126.095224 143.520928)scale(0.1 -0.1)">
       <use xlink:href="#DejaVuSans-48"/>
      </g>
     </g>
    </g>
    <g id="xtick_4">
     <g id="line2d_7">
      <path clip-path="url(#p6a5aed956c)" d="M 167.97843 128.92249 
L 167.97843 13.254196 
" style="fill:none;stroke:#b0b0b0;stroke-linecap:square;stroke-width:0.8;"/>
     </g>
     <g id="line2d_8">
      <g>
       <use style="stroke:#000000;stroke-width:0.8;" x="167.97843" xlink:href="#m6d2dec09c1" y="128.92249"/>
      </g>
     </g>
     <g id="text_4">
      <!-- 50 -->
      <g transform="translate(161.61593 143.520928)scale(0.1 -0.1)">
       <use xlink:href="#DejaVuSans-53"/>
       <use x="63.623047" xlink:href="#DejaVuSans-48"/>
      </g>
     </g>
    </g>
    <g id="xtick_5">
     <g id="line2d_9">
      <path clip-path="url(#p6a5aed956c)" d="M 206.680386 128.92249 
L 206.680386 13.254196 
" style="fill:none;stroke:#b0b0b0;stroke-linecap:square;stroke-width:0.8;"/>
     </g>
     <g id="line2d_10">
      <g>
       <use style="stroke:#000000;stroke-width:0.8;" x="206.680386" xlink:href="#m6d2dec09c1" y="128.92249"/>
      </g>
     </g>
     <g id="text_5">
      <!-- 100 -->
      <g transform="translate(197.136636 143.520928)scale(0.1 -0.1)">
       <use xlink:href="#DejaVuSans-49"/>
       <use x="63.623047" xlink:href="#DejaVuSans-48"/>
       <use x="127.246094" xlink:href="#DejaVuSans-48"/>
      </g>
     </g>
    </g>
    <g id="text_6">
     <!-- $\tau$ (s) -->
     <defs>
      <path d="M 32.859375 9.96875 
Q 34.1875 7.625 39.453125 7.625 
L 43.75 7.625 
L 42.28125 0 
L 36.921875 0 
Q 28.125 0 25 4.6875 
Q 21.921875 9.46875 23.96875 19.828125 
L 29 45.703125 
L 8.453125 45.703125 
L 10.203125 54.6875 
L 60.640625 54.6875 
L 58.890625 45.703125 
L 38.1875 45.703125 
L 33.015625 19.28125 
Q 31.640625 12.203125 32.859375 9.96875 
z
" id="DejaVuSans-Oblique-964"/>
      <path id="DejaVuSans-32"/>
      <path d="M 31 75.875 
Q 24.46875 64.65625 21.28125 53.65625 
Q 18.109375 42.671875 18.109375 31.390625 
Q 18.109375 20.125 21.3125 9.0625 
Q 24.515625 -2 31 -13.1875 
L 23.1875 -13.1875 
Q 15.875 -1.703125 12.234375 9.375 
Q 8.59375 20.453125 8.59375 31.390625 
Q 8.59375 42.28125 12.203125 53.3125 
Q 15.828125 64.359375 23.1875 75.875 
z
" id="DejaVuSans-40"/>
      <path d="M 44.28125 53.078125 
L 44.28125 44.578125 
Q 40.484375 46.53125 36.375 47.5 
Q 32.28125 48.484375 27.875 48.484375 
Q 21.1875 48.484375 17.84375 46.4375 
Q 14.5 44.390625 14.5 40.28125 
Q 14.5 37.15625 16.890625 35.375 
Q 19.28125 33.59375 26.515625 31.984375 
L 29.59375 31.296875 
Q 39.15625 29.25 43.1875 25.515625 
Q 47.21875 21.78125 47.21875 15.09375 
Q 47.21875 7.46875 41.1875 3.015625 
Q 35.15625 -1.421875 24.609375 -1.421875 
Q 20.21875 -1.421875 15.453125 -0.5625 
Q 10.6875 0.296875 5.421875 2 
L 5.421875 11.28125 
Q 10.40625 8.6875 15.234375 7.390625 
Q 20.0625 6.109375 24.8125 6.109375 
Q 31.15625 6.109375 34.5625 8.28125 
Q 37.984375 10.453125 37.984375 14.40625 
Q 37.984375 18.0625 35.515625 20.015625 
Q 33.0625 21.96875 24.703125 23.78125 
L 21.578125 24.515625 
Q 13.234375 26.265625 9.515625 29.90625 
Q 5.8125 33.546875 5.8125 39.890625 
Q 5.8125 47.609375 11.28125 51.796875 
Q 16.75 56 26.8125 56 
Q 31.78125 56 36.171875 55.265625 
Q 40.578125 54.546875 44.28125 53.078125 
z
" id="DejaVuSans-115"/>
      <path d="M 8.015625 75.875 
L 15.828125 75.875 
Q 23.140625 64.359375 26.78125 53.3125 
Q 30.421875 42.28125 30.421875 31.390625 
Q 30.421875 20.453125 26.78125 9.375 
Q 23.140625 -1.703125 15.828125 -13.1875 
L 8.015625 -13.1875 
Q 14.5 -2 17.703125 9.0625 
Q 20.90625 20.125 20.90625 31.390625 
Q 20.90625 42.671875 17.703125 53.65625 
Q 14.5 64.65625 8.015625 75.875 
z
" id="DejaVuSans-41"/>
     </defs>
     <g transform="translate(118.126474 157.199053)scale(0.1 -0.1)">
      <use transform="translate(0 0.125)" xlink:href="#DejaVuSans-Oblique-964"/>
      <use transform="translate(60.205078 0.125)" xlink:href="#DejaVuSans-32"/>
      <use transform="translate(91.992188 0.125)" xlink:href="#DejaVuSans-40"/>
      <use transform="translate(131.005859 0.125)" xlink:href="#DejaVuSans-115"/>
      <use transform="translate(183.105469 0.125)" xlink:href="#DejaVuSans-41"/>
     </g>
    </g>
   </g>
   <g id="matplotlib.axis_2">
    <g id="ytick_1">
     <g id="line2d_11">
      <path clip-path="url(#p6a5aed956c)" d="M 44.203125 110.427833 
L 214.349824 110.427833 
" style="fill:none;stroke:#b0b0b0;stroke-linecap:square;stroke-width:0.8;"/>
     </g>
     <g id="line2d_12">
      <defs>
       <path d="M 0 0 
L -3.5 0 
" id="mcc4b77e229" style="stroke:#000000;stroke-width:0.8;"/>
      </defs>
      <g>
       <use style="stroke:#000000;stroke-width:0.8;" x="44.203125" xlink:href="#mcc4b77e229" y="110.427833"/>
      </g>
     </g>
     <g id="text_7">
      <!-- 0 -->
      <g transform="translate(30.840625 114.227051)scale(0.1 -0.1)">
       <use xlink:href="#DejaVuSans-48"/>
      </g>
     </g>
    </g>
    <g id="ytick_2">
     <g id="line2d_13">
      <path clip-path="url(#p6a5aed956c)" d="M 44.203125 78.432608 
L 214.349824 78.432608 
" style="fill:none;stroke:#b0b0b0;stroke-linecap:square;stroke-width:0.8;"/>
     </g>
     <g id="line2d_14">
      <g>
       <use style="stroke:#000000;stroke-width:0.8;" x="44.203125" xlink:href="#mcc4b77e229" y="78.432608"/>
      </g>
     </g>
     <g id="text_8">
      <!-- 5 -->
      <g transform="translate(30.840625 82.231827)scale(0.1 -0.1)">
       <use xlink:href="#DejaVuSans-53"/>
      </g>
     </g>
    </g>
    <g id="ytick_3">
     <g id="line2d_15">
      <path clip-path="url(#p6a5aed956c)" d="M 44.203125 46.437384 
L 214.349824 46.437384 
" style="fill:none;stroke:#b0b0b0;stroke-linecap:square;stroke-width:0.8;"/>
     </g>
     <g id="line2d_16">
      <g>
       <use style="stroke:#000000;stroke-width:0.8;" x="44.203125" xlink:href="#mcc4b77e229" y="46.437384"/>
      </g>
     </g>
     <g id="text_9">
      <!-- 10 -->
      <g transform="translate(24.478125 50.236603)scale(0.1 -0.1)">
       <use xlink:href="#DejaVuSans-49"/>
       <use x="63.623047" xlink:href="#DejaVuSans-48"/>
      </g>
     </g>
    </g>
    <g id="ytick_4">
     <g id="line2d_17">
      <path clip-path="url(#p6a5aed956c)" d="M 44.203125 14.44216 
L 214.349824 14.44216 
" style="fill:none;stroke:#b0b0b0;stroke-linecap:square;stroke-width:0.8;"/>
     </g>
     <g id="line2d_18">
      <g>
       <use style="stroke:#000000;stroke-width:0.8;" x="44.203125" xlink:href="#mcc4b77e229" y="14.44216"/>
      </g>
     </g>
     <g id="text_10">
      <!-- 15 -->
      <g transform="translate(24.478125 18.241379)scale(0.1 -0.1)">
       <use xlink:href="#DejaVuSans-49"/>
       <use x="63.623047" xlink:href="#DejaVuSans-53"/>
      </g>
     </g>
    </g>
    <g id="text_11">
     <!-- correlation function -->
     <defs>
      <path d="M 48.78125 52.59375 
L 48.78125 44.1875 
Q 44.96875 46.296875 41.140625 47.34375 
Q 37.3125 48.390625 33.40625 48.390625 
Q 24.65625 48.390625 19.8125 42.84375 
Q 14.984375 37.3125 14.984375 27.296875 
Q 14.984375 17.28125 19.8125 11.734375 
Q 24.65625 6.203125 33.40625 6.203125 
Q 37.3125 6.203125 41.140625 7.25 
Q 44.96875 8.296875 48.78125 10.40625 
L 48.78125 2.09375 
Q 45.015625 0.34375 40.984375 -0.53125 
Q 36.96875 -1.421875 32.421875 -1.421875 
Q 20.0625 -1.421875 12.78125 6.34375 
Q 5.515625 14.109375 5.515625 27.296875 
Q 5.515625 40.671875 12.859375 48.328125 
Q 20.21875 56 33.015625 56 
Q 37.15625 56 41.109375 55.140625 
Q 45.0625 54.296875 48.78125 52.59375 
z
" id="DejaVuSans-99"/>
      <path d="M 30.609375 48.390625 
Q 23.390625 48.390625 19.1875 42.75 
Q 14.984375 37.109375 14.984375 27.296875 
Q 14.984375 17.484375 19.15625 11.84375 
Q 23.34375 6.203125 30.609375 6.203125 
Q 37.796875 6.203125 41.984375 11.859375 
Q 46.1875 17.53125 46.1875 27.296875 
Q 46.1875 37.015625 41.984375 42.703125 
Q 37.796875 48.390625 30.609375 48.390625 
z
M 30.609375 56 
Q 42.328125 56 49.015625 48.375 
Q 55.71875 40.765625 55.71875 27.296875 
Q 55.71875 13.875 49.015625 6.21875 
Q 42.328125 -1.421875 30.609375 -1.421875 
Q 18.84375 -1.421875 12.171875 6.21875 
Q 5.515625 13.875 5.515625 27.296875 
Q 5.515625 40.765625 12.171875 48.375 
Q 18.84375 56 30.609375 56 
z
" id="DejaVuSans-111"/>
      <path d="M 41.109375 46.296875 
Q 39.59375 47.171875 37.8125 47.578125 
Q 36.03125 48 33.890625 48 
Q 26.265625 48 22.1875 43.046875 
Q 18.109375 38.09375 18.109375 28.8125 
L 18.109375 0 
L 9.078125 0 
L 9.078125 54.6875 
L 18.109375 54.6875 
L 18.109375 46.1875 
Q 20.953125 51.171875 25.484375 53.578125 
Q 30.03125 56 36.53125 56 
Q 37.453125 56 38.578125 55.875 
Q 39.703125 55.765625 41.0625 55.515625 
z
" id="DejaVuSans-114"/>
      <path d="M 56.203125 29.59375 
L 56.203125 25.203125 
L 14.890625 25.203125 
Q 15.484375 15.921875 20.484375 11.0625 
Q 25.484375 6.203125 34.421875 6.203125 
Q 39.59375 6.203125 44.453125 7.46875 
Q 49.3125 8.734375 54.109375 11.28125 
L 54.109375 2.78125 
Q 49.265625 0.734375 44.1875 -0.34375 
Q 39.109375 -1.421875 33.890625 -1.421875 
Q 20.796875 -1.421875 13.15625 6.1875 
Q 5.515625 13.8125 5.515625 26.8125 
Q 5.515625 40.234375 12.765625 48.109375 
Q 20.015625 56 32.328125 56 
Q 43.359375 56 49.78125 48.890625 
Q 56.203125 41.796875 56.203125 29.59375 
z
M 47.21875 32.234375 
Q 47.125 39.59375 43.09375 43.984375 
Q 39.0625 48.390625 32.421875 48.390625 
Q 24.90625 48.390625 20.390625 44.140625 
Q 15.875 39.890625 15.1875 32.171875 
z
" id="DejaVuSans-101"/>
      <path d="M 9.421875 75.984375 
L 18.40625 75.984375 
L 18.40625 0 
L 9.421875 0 
z
" id="DejaVuSans-108"/>
      <path d="M 34.28125 27.484375 
Q 23.390625 27.484375 19.1875 25 
Q 14.984375 22.515625 14.984375 16.5 
Q 14.984375 11.71875 18.140625 8.90625 
Q 21.296875 6.109375 26.703125 6.109375 
Q 34.1875 6.109375 38.703125 11.40625 
Q 43.21875 16.703125 43.21875 25.484375 
L 43.21875 27.484375 
z
M 52.203125 31.203125 
L 52.203125 0 
L 43.21875 0 
L 43.21875 8.296875 
Q 40.140625 3.328125 35.546875 0.953125 
Q 30.953125 -1.421875 24.3125 -1.421875 
Q 15.921875 -1.421875 10.953125 3.296875 
Q 6 8.015625 6 15.921875 
Q 6 25.140625 12.171875 29.828125 
Q 18.359375 34.515625 30.609375 34.515625 
L 43.21875 34.515625 
L 43.21875 35.40625 
Q 43.21875 41.609375 39.140625 45 
Q 35.0625 48.390625 27.6875 48.390625 
Q 23 48.390625 18.546875 47.265625 
Q 14.109375 46.140625 10.015625 43.890625 
L 10.015625 52.203125 
Q 14.9375 54.109375 19.578125 55.046875 
Q 24.21875 56 28.609375 56 
Q 40.484375 56 46.34375 49.84375 
Q 52.203125 43.703125 52.203125 31.203125 
z
" id="DejaVuSans-97"/>
      <path d="M 18.3125 70.21875 
L 18.3125 54.6875 
L 36.8125 54.6875 
L 36.8125 47.703125 
L 18.3125 47.703125 
L 18.3125 18.015625 
Q 18.3125 11.328125 20.140625 9.421875 
Q 21.96875 7.515625 27.59375 7.515625 
L 36.8125 7.515625 
L 36.8125 0 
L 27.59375 0 
Q 17.1875 0 13.234375 3.875 
Q 9.28125 7.765625 9.28125 18.015625 
L 9.28125 47.703125 
L 2.6875 47.703125 
L 2.6875 54.6875 
L 9.28125 54.6875 
L 9.28125 70.21875 
z
" id="DejaVuSans-116"/>
      <path d="M 9.421875 54.6875 
L 18.40625 54.6875 
L 18.40625 0 
L 9.421875 0 
z
M 9.421875 75.984375 
L 18.40625 75.984375 
L 18.40625 64.59375 
L 9.421875 64.59375 
z
" id="DejaVuSans-105"/>
      <path d="M 54.890625 33.015625 
L 54.890625 0 
L 45.90625 0 
L 45.90625 32.71875 
Q 45.90625 40.484375 42.875 44.328125 
Q 39.84375 48.1875 33.796875 48.1875 
Q 26.515625 48.1875 22.3125 43.546875 
Q 18.109375 38.921875 18.109375 30.90625 
L 18.109375 0 
L 9.078125 0 
L 9.078125 54.6875 
L 18.109375 54.6875 
L 18.109375 46.1875 
Q 21.34375 51.125 25.703125 53.5625 
Q 30.078125 56 35.796875 56 
Q 45.21875 56 50.046875 50.171875 
Q 54.890625 44.34375 54.890625 33.015625 
z
" id="DejaVuSans-110"/>
      <path d="M 37.109375 75.984375 
L 37.109375 68.5 
L 28.515625 68.5 
Q 23.6875 68.5 21.796875 66.546875 
Q 19.921875 64.59375 19.921875 59.515625 
L 19.921875 54.6875 
L 34.71875 54.6875 
L 34.71875 47.703125 
L 19.921875 47.703125 
L 19.921875 0 
L 10.890625 0 
L 10.890625 47.703125 
L 2.296875 47.703125 
L 2.296875 54.6875 
L 10.890625 54.6875 
L 10.890625 58.5 
Q 10.890625 67.625 15.140625 71.796875 
Q 19.390625 75.984375 28.609375 75.984375 
z
" id="DejaVuSans-102"/>
      <path d="M 8.5 21.578125 
L 8.5 54.6875 
L 17.484375 54.6875 
L 17.484375 21.921875 
Q 17.484375 14.15625 20.5 10.265625 
Q 23.53125 6.390625 29.59375 6.390625 
Q 36.859375 6.390625 41.078125 11.03125 
Q 45.3125 15.671875 45.3125 23.6875 
L 45.3125 54.6875 
L 54.296875 54.6875 
L 54.296875 0 
L 45.3125 0 
L 45.3125 8.40625 
Q 42.046875 3.421875 37.71875 1 
Q 33.40625 -1.421875 27.6875 -1.421875 
Q 18.265625 -1.421875 13.375 4.4375 
Q 8.5 10.296875 8.5 21.578125 
z
M 31.109375 56 
z
" id="DejaVuSans-117"/>
     </defs>
     <g transform="translate(18.398438 120.125843)rotate(-90)scale(0.1 -0.1)">
      <use xlink:href="#DejaVuSans-99"/>
      <use x="54.980469" xlink:href="#DejaVuSans-111"/>
      <use x="116.162109" xlink:href="#DejaVuSans-114"/>
      <use x="157.259766" xlink:href="#DejaVuSans-114"/>
      <use x="198.341797" xlink:href="#DejaVuSans-101"/>
      <use x="259.865234" xlink:href="#DejaVuSans-108"/>
      <use x="287.648438" xlink:href="#DejaVuSans-97"/>
      <use x="348.927734" xlink:href="#DejaVuSans-116"/>
      <use x="388.136719" xlink:href="#DejaVuSans-105"/>
      <use x="415.919922" xlink:href="#DejaVuSans-111"/>
      <use x="477.101562" xlink:href="#DejaVuSans-110"/>
      <use x="540.480469" xlink:href="#DejaVuSans-32"/>
      <use x="572.267578" xlink:href="#DejaVuSans-102"/>
      <use x="607.472656" xlink:href="#DejaVuSans-117"/>
      <use x="670.851562" xlink:href="#DejaVuSans-110"/>
      <use x="734.230469" xlink:href="#DejaVuSans-99"/>
      <use x="789.210938" xlink:href="#DejaVuSans-116"/>
      <use x="828.419922" xlink:href="#DejaVuSans-105"/>
      <use x="856.203125" xlink:href="#DejaVuSans-111"/>
      <use x="917.384766" xlink:href="#DejaVuSans-110"/>
     </g>
    </g>
   </g>
   <g id="line2d_19">
    <path clip-path="url(#p6a5aed956c)" d="M 51.937066 105.278654 
L 52.066072 105.222105 
L 52.259582 105.365634 
L 52.388589 105.354669 
L 52.582098 105.465397 
L 52.775608 104.791064 
L 52.969118 104.472891 
L 53.227131 104.591716 
L 53.485144 104.699108 
L 53.678654 104.808113 
L 54.00117 104.036429 
L 54.130177 103.771063 
L 54.452693 104.203772 
L 54.517196 104.107153 
L 54.904216 103.609992 
L 55.291235 104.169431 
L 55.420242 103.982351 
L 55.549248 103.841176 
L 55.871765 104.397347 
L 56.387791 103.0555 
L 56.516797 102.768846 
L 56.77481 102.005393 
L 57.16183 101.717298 
L 57.290836 101.846799 
L 57.419843 101.7267 
L 57.548849 102.04302 
L 57.806862 103.265378 
L 58.645405 107.579294 
L 58.967921 108.993521 
L 59.032424 108.943602 
L 59.161431 108.948235 
L 59.548451 110.156464 
L 59.74196 110.509307 
L 59.999973 110.68582 
L 60.12898 110.716232 
L 60.32249 111.013692 
L 60.451496 111.100747 
L 60.645006 111.73539 
L 60.967522 113.054494 
L 61.290039 113.032062 
L 61.419045 113.082676 
L 61.548052 113.17299 
L 61.806065 112.475496 
L 62.064078 111.837465 
L 62.322091 111.2507 
L 62.386594 111.302166 
L 62.5156 111.379717 
L 63.031627 112.270262 
L 63.354143 111.111868 
L 63.418646 111.185099 
L 63.676659 111.323075 
L 63.805666 111.041177 
L 63.999175 110.31934 
L 64.063679 110.341341 
L 64.257188 110.590574 
L 64.450698 110.591722 
L 64.579705 110.669115 
L 64.902221 110.47577 
L 65.031228 110.742215 
L 65.611757 112.474187 
L 65.805267 113.181899 
L 66.06328 114.510979 
L 66.321293 114.980642 
L 66.514803 115.226055 
L 66.643809 115.023072 
L 66.901822 114.549741 
L 67.095332 114.574834 
L 67.353345 113.923369 
L 67.417848 113.990163 
L 67.611358 114.078701 
L 67.804868 114.08016 
L 68.127384 114.626957 
L 68.256391 114.853565 
L 68.385397 114.781245 
L 68.514404 114.932382 
L 68.578907 114.874722 
L 68.83692 114.574339 
L 68.965926 114.668533 
L 69.159436 114.777277 
L 69.546456 114.689512 
L 69.997979 113.310877 
L 70.062482 113.363618 
L 70.255992 113.854773 
L 70.320495 113.831362 
L 70.707514 112.507027 
L 71.288044 110.419624 
L 71.41705 110.556324 
L 71.99758 111.753554 
L 72.320096 111.99165 
L 72.449102 111.836451 
L 72.578109 111.586096 
L 72.900625 111.860778 
L 73.029632 111.57686 
L 73.223142 111.09134 
L 73.287645 111.065254 
L 73.481155 110.574258 
L 73.739168 111.634975 
L 74.061684 112.75447 
L 74.448704 113.438706 
L 74.642213 113.80587 
L 74.77122 113.522799 
L 74.900226 113.176049 
L 74.96473 113.215767 
L 75.158239 113.507989 
L 75.287246 113.416094 
L 75.480756 112.966466 
L 75.996782 111.296991 
L 76.190292 111.264956 
L 76.383801 110.703591 
L 77.028834 107.736719 
L 77.35135 107.901054 
L 77.802873 109.70841 
L 77.996383 110.796797 
L 78.512409 111.012949 
L 78.770422 111.435373 
L 78.963932 111.29861 
L 79.157441 111.605345 
L 79.415455 111.428407 
L 79.479958 111.389627 
L 79.737971 110.747312 
L 79.931481 110.800694 
L 80.12499 111.81018 
L 80.383003 112.733667 
L 80.51201 112.835644 
L 80.70552 112.577158 
L 80.899029 112.613691 
L 81.157043 111.635378 
L 81.544062 110.376137 
L 81.608565 110.454013 
L 81.673069 110.4231 
L 82.189095 109.332094 
L 82.576114 109.315618 
L 82.705121 109.270711 
L 82.963134 109.420552 
L 83.09214 109.275114 
L 83.221147 109.080523 
L 83.28565 109.117329 
L 83.414657 109.202853 
L 83.543663 108.998387 
L 84.124192 106.71471 
L 84.317702 106.801309 
L 84.704722 106.537759 
L 84.898232 106.883743 
L 85.543264 109.394576 
L 85.607767 109.33475 
L 86.123794 108.465023 
L 86.704323 109.043885 
L 87.091342 110.307025 
L 87.155846 110.322056 
L 87.349355 110.7714 
L 87.413859 110.701848 
L 87.607369 110.546527 
L 87.800878 110.586576 
L 88.123395 111.529007 
L 88.445911 112.560683 
L 88.574917 112.763407 
L 88.897434 113.64255 
L 89.21995 114.069055 
L 89.348957 114.306355 
L 89.60697 113.812613 
L 89.800479 113.533714 
L 90.252002 113.955649 
L 90.381009 113.900487 
L 90.510015 114.062518 
L 90.574518 114.015394 
L 91.155048 112.602774 
L 91.477564 111.659859 
L 91.606571 111.598488 
L 91.929087 112.38844 
L 92.1871 113.901672 
L 92.509616 115.246089 
L 92.832133 115.77087 
L 93.219152 117.590936 
L 93.348159 117.488146 
L 93.541668 117.077004 
L 93.864185 116.17819 
L 94.186701 115.449462 
L 94.573721 114.342862 
L 95.025243 113.009456 
L 95.283256 113.254147 
L 95.476766 113.248202 
L 95.734779 113.503487 
L 95.928289 113.396249 
L 96.057296 113.425584 
L 96.573322 112.033722 
L 96.766831 111.470226 
L 97.089348 111.378724 
L 97.347361 110.619058 
L 97.476367 110.883721 
L 97.92789 112.504702 
L 98.056897 112.475867 
L 98.185903 112.92676 
L 98.637426 114.829227 
L 98.766432 114.94887 
L 99.024445 115.792478 
L 99.475968 117.740159 
L 99.604975 117.890324 
L 99.927491 117.506488 
L 100.056498 117.8662 
L 100.50802 119.559913 
L 100.830537 120.156975 
L 100.89504 120.103326 
L 101.153053 119.463174 
L 101.669079 116.794342 
L 101.927092 115.219143 
L 102.056099 114.907935 
L 102.443118 113.555158 
L 103.023648 111.891432 
L 103.281661 111.116848 
L 103.47517 111.289462 
L 103.604177 110.994069 
L 103.733183 110.626548 
L 103.797687 110.684116 
L 103.926693 110.740024 
L 104.0557 110.706768 
L 104.184706 110.813675 
L 104.313713 110.641393 
L 104.378216 110.68787 
L 104.700732 110.886237 
L 104.894242 110.579613 
L 104.958745 110.664271 
L 105.410268 111.322025 
L 105.603778 111.276521 
L 105.797288 110.880474 
L 105.861791 110.96135 
L 106.184307 111.40756 
L 106.248811 111.411108 
L 106.63583 109.894856 
L 106.700333 109.941318 
L 106.893843 110.681761 
L 107.216359 111.919276 
L 107.345366 111.891059 
L 107.538876 111.4871 
L 107.796889 111.713887 
L 107.925895 111.962572 
L 108.248412 112.688281 
L 108.377418 112.849996 
L 108.893444 112.112877 
L 109.151457 112.808495 
L 109.344967 113.17235 
L 109.60298 113.180001 
L 109.99 113.185158 
L 110.054503 113.083543 
L 110.119006 113.15348 
L 110.506026 114.729194 
L 110.764039 114.715744 
L 111.086555 115.452193 
L 111.538078 114.814598 
L 111.860594 114.129532 
L 112.054104 114.160907 
L 112.118607 114.166147 
L 112.37662 113.781644 
L 112.828143 113.624387 
L 113.215163 114.80674 
L 113.344169 114.870646 
L 113.666685 114.629074 
L 113.860195 114.48335 
L 114.053705 114.61366 
L 114.311718 115.058278 
L 114.956751 116.038126 
L 115.408273 114.959607 
L 115.666287 114.517601 
L 115.795293 114.585933 
L 115.9243 114.767487 
L 115.988803 114.700924 
L 116.182313 114.294378 
L 116.311319 114.44405 
L 116.504829 114.293587 
L 116.827345 115.338812 
L 117.214365 116.948031 
L 117.794894 118.870877 
L 118.052907 119.365675 
L 118.439927 119.669222 
L 118.50443 119.680353 
L 118.633436 120.140521 
L 119.149463 122.32408 
L 119.471979 122.813813 
L 119.858998 123.453688 
L 120.052508 123.632834 
L 120.504031 122.500016 
L 120.762044 122.160827 
L 121.729593 119.236742 
L 121.923103 118.124563 
L 122.374626 115.173499 
L 122.503632 114.937966 
L 122.890652 112.948022 
L 123.084161 112.478925 
L 123.600187 111.855975 
L 124.05171 109.595159 
L 124.503233 105.698871 
L 125.793298 90.666535 
L 126.760847 75.126147 
L 127.59939 62.922162 
L 128.244422 49.295323 
L 128.760448 33.405895 
L 129.276474 18.511845 
L 129.340978 19.114096 
L 129.663494 29.836755 
L 130.502036 56.55768 
L 131.018062 68.344191 
L 131.663095 78.622073 
L 132.501637 88.828422 
L 133.017663 93.873471 
L 133.920709 102.921169 
L 134.243225 104.891856 
L 134.436735 105.906195 
L 134.823755 107.830478 
L 135.275278 109.219597 
L 135.533291 108.876786 
L 135.7268 108.94449 
L 136.049317 109.491589 
L 136.242826 110.727814 
L 136.565343 112.661513 
L 136.952362 114.344553 
L 137.532892 116.871081 
L 137.984414 118.412361 
L 138.177924 118.526257 
L 138.371434 118.574224 
L 138.564944 119.00585 
L 139.145473 118.340905 
L 139.338983 117.228989 
L 140.048519 113.998749 
L 140.306532 113.359911 
L 140.371035 113.240189 
L 140.435538 113.307475 
L 140.629048 113.762869 
L 140.693551 113.777096 
L 140.887061 114.184307 
L 141.46759 113.046296 
L 141.6611 113.118382 
L 141.85461 112.940955 
L 141.983617 113.026254 
L 142.177126 112.881083 
L 142.435139 113.774442 
L 142.564146 113.706227 
L 142.693152 113.759041 
L 142.951165 113.525516 
L 143.080172 113.778956 
L 144.241231 117.61687 
L 144.370237 117.617873 
L 144.692753 117.333137 
L 144.82176 117.327933 
L 145.01527 117.585928 
L 145.20878 117.623712 
L 145.273283 117.648749 
L 145.402289 117.328138 
L 145.531296 117.069667 
L 145.724806 117.4052 
L 145.789309 117.355075 
L 146.047322 117.230031 
L 146.240832 117.194768 
L 146.369838 117.216649 
L 146.563348 117.003033 
L 146.692354 117.1544 
L 146.756858 117.102757 
L 146.885864 117.062373 
L 147.079374 117.218242 
L 147.40189 117.50134 
L 147.5954 117.664068 
L 147.78891 117.546857 
L 147.917916 117.297485 
L 147.98242 117.346727 
L 148.175929 117.534383 
L 148.304936 117.439831 
L 149.336988 113.770739 
L 149.401491 113.773159 
L 149.595001 113.447014 
L 150.046524 114.148357 
L 150.175531 113.992147 
L 150.885066 111.722135 
L 151.143079 110.606115 
L 151.401092 110.519069 
L 152.110628 107.761544 
L 152.433145 106.926508 
L 152.691158 105.889973 
L 152.755661 105.930859 
L 153.207184 106.288346 
L 153.271687 106.292315 
L 153.465197 106.012848 
L 153.658707 106.285772 
L 153.852216 106.694775 
L 154.045726 106.683351 
L 154.561752 107.281233 
L 154.884268 108.018055 
L 155.206785 109.036672 
L 155.787314 111.910921 
L 156.625856 116.76692 
L 157.012876 117.563721 
L 157.399896 117.025531 
L 157.593405 116.634287 
L 157.657909 116.670943 
L 158.173935 115.699299 
L 158.431948 115.578253 
L 158.818967 115.987554 
L 159.205987 115.659267 
L 159.980026 112.288315 
L 160.044529 112.267464 
L 160.238039 111.811839 
L 160.302542 111.881081 
L 160.560555 112.14356 
L 160.818568 111.652847 
L 160.883072 111.737432 
L 161.850621 113.706526 
L 162.108634 114.506586 
L 162.173137 114.413014 
L 162.366647 114.231286 
L 162.560156 114.094955 
L 163.205189 114.41423 
L 163.334196 114.185858 
L 163.527705 114.40818 
L 163.592209 114.357496 
L 163.785718 114.29248 
L 164.108235 113.527519 
L 164.237241 113.509134 
L 164.430751 113.604345 
L 164.495254 113.558861 
L 164.624261 113.925981 
L 165.075784 115.713151 
L 165.462803 117.067848 
L 165.527306 116.982141 
L 165.656313 116.826465 
L 165.849823 117.253797 
L 166.043332 117.634183 
L 166.236842 117.307643 
L 166.430352 117.747249 
L 166.752868 117.41229 
L 166.881875 117.503676 
L 167.397901 117.037433 
L 167.720417 116.862745 
L 168.042933 116.392363 
L 168.17194 116.537346 
L 168.55896 117.368508 
L 168.752469 117.286504 
L 169.010482 117.636059 
L 169.139489 117.253315 
L 169.332999 116.748669 
L 169.591012 116.609737 
L 170.623064 114.085202 
L 170.881077 113.420655 
L 171.074587 113.459567 
L 171.3326 112.801957 
L 171.52611 111.918236 
L 171.719619 111.380527 
L 171.913129 111.184909 
L 172.042136 111.676365 
L 172.300149 112.993341 
L 172.816175 113.571809 
L 173.074188 113.127188 
L 173.332201 112.609394 
L 173.590214 112.047875 
L 173.91273 110.874716 
L 174.170743 110.348 
L 174.493259 109.339101 
L 174.880279 108.790359 
L 175.009286 108.843531 
L 175.138292 108.950552 
L 175.396305 108.27891 
L 175.460808 108.330946 
L 175.912331 108.95103 
L 176.170344 109.165562 
L 176.428357 109.92762 
L 176.68637 109.720681 
L 176.815377 109.763132 
L 177.202396 110.471595 
L 177.331403 110.780891 
L 177.524913 110.590465 
L 177.653919 110.773446 
L 177.718422 110.722398 
L 178.040939 109.70301 
L 178.169945 109.825287 
L 178.363455 109.725075 
L 178.492462 110.011884 
L 178.556965 109.951472 
L 178.621468 109.863807 
L 178.685971 109.952151 
L 178.943984 110.688524 
L 179.072991 110.66614 
L 179.782527 109.224558 
L 179.84703 109.280697 
L 180.105043 109.419419 
L 180.363056 108.16994 
L 180.879082 105.997248 
L 180.943585 106.037011 
L 181.072592 106.033423 
L 181.395108 105.447891 
L 181.459612 105.43084 
L 182.104644 106.721771 
L 183.136696 110.842985 
L 183.523716 111.000429 
L 184.426761 107.930607 
L 184.620271 107.04545 
L 184.684775 107.012974 
L 185.329807 107.962955 
L 185.458814 108.040034 
L 185.716827 107.671417 
L 185.845833 107.842161 
L 185.97484 107.952081 
L 186.039343 107.914125 
L 186.168349 108.26996 
L 186.361859 108.610202 
L 186.490866 108.825222 
L 186.684376 109.409162 
L 186.813382 109.373452 
L 187.071395 110.029021 
L 187.135898 109.977693 
L 187.264905 109.871434 
L 187.458415 109.555049 
L 187.845434 110.002964 
L 187.974441 110.06233 
L 188.103447 110.26068 
L 188.167951 110.217047 
L 188.425964 110.103591 
L 188.490467 110.107721 
L 189.006493 111.464426 
L 189.070996 111.415534 
L 189.200003 111.298443 
L 189.329009 111.556339 
L 189.845035 113.413008 
L 189.974042 113.378166 
L 190.232055 113.630359 
L 190.425565 113.411965 
L 191.199604 115.61024 
L 191.264107 115.501224 
L 191.651127 114.787745 
L 191.780133 114.708033 
L 191.973643 115.184493 
L 192.038146 115.121993 
L 192.231656 114.850151 
L 192.360662 114.711679 
L 192.747682 114.219322 
L 193.070198 114.079651 
L 193.392715 114.201053 
L 194.037747 112.843685 
L 194.424767 112.284726 
L 194.553773 112.281785 
L 194.68278 112.341207 
L 194.87629 112.062887 
L 194.940793 112.066228 
L 195.134303 111.597848 
L 195.198806 111.66242 
L 195.263309 111.754373 
L 195.327812 111.704992 
L 195.456819 111.589284 
L 195.972845 112.88279 
L 196.101851 112.85219 
L 196.424368 112.250452 
L 196.488871 112.304481 
L 196.617878 112.256613 
L 196.746884 111.941908 
L 197.327413 109.726073 
L 197.714433 109.226902 
L 197.84344 109.250901 
L 197.972446 108.921037 
L 198.488472 107.136751 
L 198.617479 107.065818 
L 199.069001 106.42259 
L 199.198008 106.305654 
L 199.327014 106.191937 
L 199.649531 106.40108 
L 199.778537 106.069684 
L 200.03655 105.365402 
L 200.165557 105.28441 
L 200.359067 105.426111 
L 200.488073 105.330037 
L 200.810589 104.373609 
L 201.004099 103.598657 
L 201.326616 102.475214 
L 201.520125 103.350596 
L 201.713635 103.884267 
L 202.036151 103.69416 
L 202.165158 103.554804 
L 202.358668 103.598397 
L 202.810191 103.61438 
L 202.939197 103.984366 
L 203.261713 105.228208 
L 203.58423 105.888273 
L 203.777739 106.14879 
L 203.971249 105.807345 
L 204.422772 106.592452 
L 205.583831 109.871962 
L 205.648334 109.869064 
L 206.16436 108.799444 
L 206.422373 109.060506 
L 206.615883 109.135912 
L 206.615883 109.135912 
" style="fill:none;stroke:#000000;stroke-linecap:square;"/>
   </g>
   <g id="line2d_20">
    <path clip-path="url(#p6a5aed956c)" d="M 51.937066 110.632459 
L 70.514005 110.8757 
L 81.608565 111.194939 
L 89.02644 111.591462 
L 95.025243 112.130267 
L 99.346962 112.721583 
L 103.410667 113.503159 
L 107.345366 114.511805 
L 115.085757 116.6431 
L 116.440326 116.712702 
L 117.536881 116.551006 
L 118.50443 116.16913 
L 119.342972 115.58647 
L 120.117011 114.776025 
L 120.891051 113.62804 
L 121.66509 112.049281 
L 122.439129 109.921368 
L 123.213168 107.09303 
L 123.987207 103.369167 
L 124.761246 98.494749 
L 125.535285 92.129729 
L 126.309324 83.806704 
L 127.083364 72.851089 
L 127.792899 59.607651 
L 128.502435 41.862494 
L 129.276474 18.571007 
L 129.340978 19.161225 
L 129.663494 29.488281 
L 130.37303 50.609593 
L 131.147069 67.276835 
L 131.985611 80.489117 
L 132.824154 90.255777 
L 133.662696 97.548317 
L 134.501238 103.010196 
L 135.339781 107.09303 
L 136.178323 110.123766 
L 137.016866 112.347067 
L 137.855408 113.950942 
L 138.69395 115.079681 
L 139.532493 115.843085 
L 140.435538 116.353639 
L 141.403087 116.636071 
L 142.564146 116.716259 
L 143.918714 116.574607 
L 145.918315 116.106489 
L 149.982021 114.872728 
L 154.303739 113.697055 
L 157.851418 112.954887 
L 161.850621 112.334669 
L 166.881875 111.797151 
L 172.816175 111.388573 
L 180.814579 111.057509 
L 192.425166 110.796865 
L 206.615883 110.632459 
L 206.615883 110.632459 
" style="fill:none;stroke:#ff0000;stroke-dasharray:3.7,1.6;stroke-dashoffset:0;"/>
   </g>
   <g id="patch_3">
    <path d="M 44.203125 128.92249 
L 44.203125 13.254196 
" style="fill:none;stroke:#000000;stroke-linecap:square;stroke-linejoin:miter;stroke-width:0.8;"/>
   </g>
   <g id="patch_4">
    <path d="M 214.349824 128.92249 
L 214.349824 13.254196 
" style="fill:none;stroke:#000000;stroke-linecap:square;stroke-linejoin:miter;stroke-width:0.8;"/>
   </g>
   <g id="patch_5">
    <path d="M 44.203125 128.92249 
L 214.349824 128.92249 
" style="fill:none;stroke:#000000;stroke-linecap:square;stroke-linejoin:miter;stroke-width:0.8;"/>
   </g>
   <g id="patch_6">
    <path d="M 44.203125 13.254196 
L 214.349824 13.254196 
" style="fill:none;stroke:#000000;stroke-linecap:square;stroke-linejoin:miter;stroke-width:0.8;"/>
   </g>
   <g id="legend_1">
    <g id="patch_7">
     <path d="M 134.795449 46.874821 
L 208.049824 46.874821 
Q 209.849824 46.874821 209.849824 45.074821 
L 209.849824 19.554196 
Q 209.849824 17.754196 208.049824 17.754196 
L 134.795449 17.754196 
Q 132.995449 17.754196 132.995449 19.554196 
L 132.995449 45.074821 
Q 132.995449 46.874821 134.795449 46.874821 
z
" style="fill:#ffffff;opacity:0.8;stroke:#cccccc;stroke-linejoin:miter;"/>
    </g>
    <g id="line2d_21">
     <path d="M 136.595449 25.042789 
L 154.595449 25.042789 
" style="fill:none;stroke:#000000;stroke-linecap:square;"/>
    </g>
    <g id="line2d_22"/>
    <g id="text_12">
     <!-- simulated -->
     <defs>
      <path d="M 52 44.1875 
Q 55.375 50.25 60.0625 53.125 
Q 64.75 56 71.09375 56 
Q 79.640625 56 84.28125 50.015625 
Q 88.921875 44.046875 88.921875 33.015625 
L 88.921875 0 
L 79.890625 0 
L 79.890625 32.71875 
Q 79.890625 40.578125 77.09375 44.375 
Q 74.3125 48.1875 68.609375 48.1875 
Q 61.625 48.1875 57.5625 43.546875 
Q 53.515625 38.921875 53.515625 30.90625 
L 53.515625 0 
L 44.484375 0 
L 44.484375 32.71875 
Q 44.484375 40.625 41.703125 44.40625 
Q 38.921875 48.1875 33.109375 48.1875 
Q 26.21875 48.1875 22.15625 43.53125 
Q 18.109375 38.875 18.109375 30.90625 
L 18.109375 0 
L 9.078125 0 
L 9.078125 54.6875 
L 18.109375 54.6875 
L 18.109375 46.1875 
Q 21.1875 51.21875 25.484375 53.609375 
Q 29.78125 56 35.6875 56 
Q 41.65625 56 45.828125 52.96875 
Q 50 49.953125 52 44.1875 
z
" id="DejaVuSans-109"/>
      <path d="M 45.40625 46.390625 
L 45.40625 75.984375 
L 54.390625 75.984375 
L 54.390625 0 
L 45.40625 0 
L 45.40625 8.203125 
Q 42.578125 3.328125 38.25 0.953125 
Q 33.9375 -1.421875 27.875 -1.421875 
Q 17.96875 -1.421875 11.734375 6.484375 
Q 5.515625 14.40625 5.515625 27.296875 
Q 5.515625 40.1875 11.734375 48.09375 
Q 17.96875 56 27.875 56 
Q 33.9375 56 38.25 53.625 
Q 42.578125 51.265625 45.40625 46.390625 
z
M 14.796875 27.296875 
Q 14.796875 17.390625 18.875 11.75 
Q 22.953125 6.109375 30.078125 6.109375 
Q 37.203125 6.109375 41.296875 11.75 
Q 45.40625 17.390625 45.40625 27.296875 
Q 45.40625 37.203125 41.296875 42.84375 
Q 37.203125 48.484375 30.078125 48.484375 
Q 22.953125 48.484375 18.875 42.84375 
Q 14.796875 37.203125 14.796875 27.296875 
z
" id="DejaVuSans-100"/>
     </defs>
     <g transform="translate(161.795449 28.192789)scale(0.09 -0.09)">
      <use xlink:href="#DejaVuSans-115"/>
      <use x="52.099609" xlink:href="#DejaVuSans-105"/>
      <use x="79.882812" xlink:href="#DejaVuSans-109"/>
      <use x="177.294922" xlink:href="#DejaVuSans-117"/>
      <use x="240.673828" xlink:href="#DejaVuSans-108"/>
      <use x="268.457031" xlink:href="#DejaVuSans-97"/>
      <use x="329.736328" xlink:href="#DejaVuSans-116"/>
      <use x="368.945312" xlink:href="#DejaVuSans-101"/>
      <use x="430.46875" xlink:href="#DejaVuSans-100"/>
     </g>
    </g>
    <g id="line2d_23">
     <path d="M 136.595449 38.253102 
L 154.595449 38.253102 
" style="fill:none;stroke:#ff0000;stroke-dasharray:3.7,1.6;stroke-dashoffset:0;"/>
    </g>
    <g id="line2d_24"/>
    <g id="text_13">
     <!-- target -->
     <defs>
      <path d="M 45.40625 27.984375 
Q 45.40625 37.75 41.375 43.109375 
Q 37.359375 48.484375 30.078125 48.484375 
Q 22.859375 48.484375 18.828125 43.109375 
Q 14.796875 37.75 14.796875 27.984375 
Q 14.796875 18.265625 18.828125 12.890625 
Q 22.859375 7.515625 30.078125 7.515625 
Q 37.359375 7.515625 41.375 12.890625 
Q 45.40625 18.265625 45.40625 27.984375 
z
M 54.390625 6.78125 
Q 54.390625 -7.171875 48.1875 -13.984375 
Q 42 -20.796875 29.203125 -20.796875 
Q 24.46875 -20.796875 20.265625 -20.09375 
Q 16.0625 -19.390625 12.109375 -17.921875 
L 12.109375 -9.1875 
Q 16.0625 -11.328125 19.921875 -12.34375 
Q 23.78125 -13.375 27.78125 -13.375 
Q 36.625 -13.375 41.015625 -8.765625 
Q 45.40625 -4.15625 45.40625 5.171875 
L 45.40625 9.625 
Q 42.625 4.78125 38.28125 2.390625 
Q 33.9375 0 27.875 0 
Q 17.828125 0 11.671875 7.65625 
Q 5.515625 15.328125 5.515625 27.984375 
Q 5.515625 40.671875 11.671875 48.328125 
Q 17.828125 56 27.875 56 
Q 33.9375 56 38.28125 53.609375 
Q 42.625 51.21875 45.40625 46.390625 
L 45.40625 54.6875 
L 54.390625 54.6875 
z
" id="DejaVuSans-103"/>
     </defs>
     <g transform="translate(161.795449 41.403102)scale(0.09 -0.09)">
      <use xlink:href="#DejaVuSans-116"/>
      <use x="39.208984" xlink:href="#DejaVuSans-97"/>
      <use x="100.488281" xlink:href="#DejaVuSans-114"/>
      <use x="141.585938" xlink:href="#DejaVuSans-103"/>
      <use x="205.0625" xlink:href="#DejaVuSans-101"/>
      <use x="266.585938" xlink:href="#DejaVuSans-116"/>
     </g>
    </g>
   </g>
  </g>
 </g>
 <defs>
  <clipPath id="p6a5aed956c">
   <rect height="115.668295" width="170.146699" x="44.203125" y="13.254196"/>
  </clipPath>
 </defs>
</svg>
