<?xml version="1.0" encoding="utf-8" standalone="no"?>
<!DOCTYPE svg PUBLIC "-//W3C//DTD SVG 1.1//EN"
  "http://www.w3.org/Graphics/SVG/1.1/DTD/svg11.dtd">
<!-- Created with matplotlib (https://matplotlib.org/) -->
<svg height="170.07874pt" version="1.1" viewBox="0 0 226.771654 170.07874" width="226.771654pt" xmlns="http://www.w3.org/2000/svg" xmlns:xlink="http://www.w3.org/1999/xlink">
 <defs>
  <style type="text/css">
*{stroke-linecap:butt;stroke-linejoin:round;}
  </style>
 </defs>
 <g id="figure_1">
  <g id="patch_1">
   <path d="M 0 170.07874 
L 226.771654 170.07874 
L 226.771654 0 
L 0 0 
z
" style="fill:#ffffff;"/>
  </g>
  <g id="axes_1">
   <g id="patch_2">
    <path d="M 44.203125 128.92249 
L 214.349824 128.92249 
L 214.349824 10.8 
L 44.203125 10.8 
z
" style="fill:#ffffff;"/>
   </g>
   <g id="matplotlib.axis_1">
    <g id="xtick_1">
     <g id="line2d_1">
      <path clip-path="url(#p9fe169c934)" d="M 51.872563 128.92249 
L 51.872563 10.8 
" style="fill:none;stroke:#b0b0b0;stroke-linecap:square;stroke-width:0.8;"/>
     </g>
     <g id="line2d_2">
      <defs>
       <path d="M 0 0 
L 0 3.5 
" id="md39923ee8a" style="stroke:#000000;stroke-width:0.8;"/>
      </defs>
      <g>
       <use style="stroke:#000000;stroke-width:0.8;" x="51.872563" xlink:href="#md39923ee8a" y="128.92249"/>
      </g>
     </g>
     <g id="text_1">
      <!-- −100 -->
      <defs>
       <path d="M 10.59375 35.5 
L 73.1875 35.5 
L 73.1875 27.203125 
L 10.59375 27.203125 
z
" id="DejaVuSans-8722"/>
       <path d="M 12.40625 8.296875 
L 28.515625 8.296875 
L 28.515625 63.921875 
L 10.984375 60.40625 
L 10.984375 69.390625 
L 28.421875 72.90625 
L 38.28125 72.90625 
L 38.28125 8.296875 
L 54.390625 8.296875 
L 54.390625 0 
L 12.40625 0 
z
" id="DejaVuSans-49"/>
       <path d="M 31.78125 66.40625 
Q 24.171875 66.40625 20.328125 58.90625 
Q 16.5 51.421875 16.5 36.375 
Q 16.5 21.390625 20.328125 13.890625 
Q 24.171875 6.390625 31.78125 6.390625 
Q 39.453125 6.390625 43.28125 13.890625 
Q 47.125 21.390625 47.125 36.375 
Q 47.125 51.421875 43.28125 58.90625 
Q 39.453125 66.40625 31.78125 66.40625 
z
M 31.78125 74.21875 
Q 44.046875 74.21875 50.515625 64.515625 
Q 56.984375 54.828125 56.984375 36.375 
Q 56.984375 17.96875 50.515625 8.265625 
Q 44.046875 -1.421875 31.78125 -1.421875 
Q 19.53125 -1.421875 13.0625 8.265625 
Q 6.59375 17.96875 6.59375 36.375 
Q 6.59375 54.828125 13.0625 64.515625 
Q 19.53125 74.21875 31.78125 74.21875 
z
" id="DejaVuSans-48"/>
      </defs>
      <g transform="translate(38.138969 143.520928)scale(0.1 -0.1)">
       <use xlink:href="#DejaVuSans-8722"/>
       <use x="83.789062" xlink:href="#DejaVuSans-49"/>
       <use x="147.412109" xlink:href="#DejaVuSans-48"/>
       <use x="211.035156" xlink:href="#DejaVuSans-48"/>
      </g>
     </g>
    </g>
    <g id="xtick_2">
     <g id="line2d_3">
      <path clip-path="url(#p9fe169c934)" d="M 90.574518 128.92249 
L 90.574518 10.8 
" style="fill:none;stroke:#b0b0b0;stroke-linecap:square;stroke-width:0.8;"/>
     </g>
     <g id="line2d_4">
      <g>
       <use style="stroke:#000000;stroke-width:0.8;" x="90.574518" xlink:href="#md39923ee8a" y="128.92249"/>
      </g>
     </g>
     <g id="text_2">
      <!-- −50 -->
      <defs>
       <path d="M 10.796875 72.90625 
L 49.515625 72.90625 
L 49.515625 64.59375 
L 19.828125 64.59375 
L 19.828125 46.734375 
Q 21.96875 47.46875 24.109375 47.828125 
Q 26.265625 48.1875 28.421875 48.1875 
Q 40.625 48.1875 47.75 41.5 
Q 54.890625 34.8125 54.890625 23.390625 
Q 54.890625 11.625 47.5625 5.09375 
Q 40.234375 -1.421875 26.90625 -1.421875 
Q 22.3125 -1.421875 17.546875 -0.640625 
Q 12.796875 0.140625 7.71875 1.703125 
L 7.71875 11.625 
Q 12.109375 9.234375 16.796875 8.0625 
Q 21.484375 6.890625 26.703125 6.890625 
Q 35.15625 6.890625 40.078125 11.328125 
Q 45.015625 15.765625 45.015625 23.390625 
Q 45.015625 31 40.078125 35.4375 
Q 35.15625 39.890625 26.703125 39.890625 
Q 22.75 39.890625 18.8125 39.015625 
Q 14.890625 38.140625 10.796875 36.28125 
z
" id="DejaVuSans-53"/>
      </defs>
      <g transform="translate(80.022175 143.520928)scale(0.1 -0.1)">
       <use xlink:href="#DejaVuSans-8722"/>
       <use x="83.789062" xlink:href="#DejaVuSans-53"/>
       <use x="147.412109" xlink:href="#DejaVuSans-48"/>
      </g>
     </g>
    </g>
    <g id="xtick_3">
     <g id="line2d_5">
      <path clip-path="url(#p9fe169c934)" d="M 129.276474 128.92249 
L 129.276474 10.8 
" style="fill:none;stroke:#b0b0b0;stroke-linecap:square;stroke-width:0.8;"/>
     </g>
     <g id="line2d_6">
      <g>
       <use style="stroke:#000000;stroke-width:0.8;" x="129.276474" xlink:href="#md39923ee8a" y="128.92249"/>
      </g>
     </g>
     <g id="text_3">
      <!-- 0 -->
      <g transform="translate(126.095224 143.520928)scale(0.1 -0.1)">
       <use xlink:href="#DejaVuSans-48"/>
      </g>
     </g>
    </g>
    <g id="xtick_4">
     <g id="line2d_7">
      <path clip-path="url(#p9fe169c934)" d="M 167.97843 128.92249 
L 167.97843 10.8 
" style="fill:none;stroke:#b0b0b0;stroke-linecap:square;stroke-width:0.8;"/>
     </g>
     <g id="line2d_8">
      <g>
       <use style="stroke:#000000;stroke-width:0.8;" x="167.97843" xlink:href="#md39923ee8a" y="128.92249"/>
      </g>
     </g>
     <g id="text_4">
      <!-- 50 -->
      <g transform="translate(161.61593 143.520928)scale(0.1 -0.1)">
       <use xlink:href="#DejaVuSans-53"/>
       <use x="63.623047" xlink:href="#DejaVuSans-48"/>
      </g>
     </g>
    </g>
    <g id="xtick_5">
     <g id="line2d_9">
      <path clip-path="url(#p9fe169c934)" d="M 206.680386 128.92249 
L 206.680386 10.8 
" style="fill:none;stroke:#b0b0b0;stroke-linecap:square;stroke-width:0.8;"/>
     </g>
     <g id="line2d_10">
      <g>
       <use style="stroke:#000000;stroke-width:0.8;" x="206.680386" xlink:href="#md39923ee8a" y="128.92249"/>
      </g>
     </g>
     <g id="text_5">
      <!-- 100 -->
      <g transform="translate(197.136636 143.520928)scale(0.1 -0.1)">
       <use xlink:href="#DejaVuSans-49"/>
       <use x="63.623047" xlink:href="#DejaVuSans-48"/>
       <use x="127.246094" xlink:href="#DejaVuSans-48"/>
      </g>
     </g>
    </g>
    <g id="text_6">
     <!-- $\tau$ (s) -->
     <defs>
      <path d="M 32.859375 9.96875 
Q 34.1875 7.625 39.453125 7.625 
L 43.75 7.625 
L 42.28125 0 
L 36.921875 0 
Q 28.125 0 25 4.6875 
Q 21.921875 9.46875 23.96875 19.828125 
L 29 45.703125 
L 8.453125 45.703125 
L 10.203125 54.6875 
L 60.640625 54.6875 
L 58.890625 45.703125 
L 38.1875 45.703125 
L 33.015625 19.28125 
Q 31.640625 12.203125 32.859375 9.96875 
z
" id="DejaVuSans-Oblique-964"/>
      <path id="DejaVuSans-32"/>
      <path d="M 31 75.875 
Q 24.46875 64.65625 21.28125 53.65625 
Q 18.109375 42.671875 18.109375 31.390625 
Q 18.109375 20.125 21.3125 9.0625 
Q 24.515625 -2 31 -13.1875 
L 23.1875 -13.1875 
Q 15.875 -1.703125 12.234375 9.375 
Q 8.59375 20.453125 8.59375 31.390625 
Q 8.59375 42.28125 12.203125 53.3125 
Q 15.828125 64.359375 23.1875 75.875 
z
" id="DejaVuSans-40"/>
      <path d="M 44.28125 53.078125 
L 44.28125 44.578125 
Q 40.484375 46.53125 36.375 47.5 
Q 32.28125 48.484375 27.875 48.484375 
Q 21.1875 48.484375 17.84375 46.4375 
Q 14.5 44.390625 14.5 40.28125 
Q 14.5 37.15625 16.890625 35.375 
Q 19.28125 33.59375 26.515625 31.984375 
L 29.59375 31.296875 
Q 39.15625 29.25 43.1875 25.515625 
Q 47.21875 21.78125 47.21875 15.09375 
Q 47.21875 7.46875 41.1875 3.015625 
Q 35.15625 -1.421875 24.609375 -1.421875 
Q 20.21875 -1.421875 15.453125 -0.5625 
Q 10.6875 0.296875 5.421875 2 
L 5.421875 11.28125 
Q 10.40625 8.6875 15.234375 7.390625 
Q 20.0625 6.109375 24.8125 6.109375 
Q 31.15625 6.109375 34.5625 8.28125 
Q 37.984375 10.453125 37.984375 14.40625 
Q 37.984375 18.0625 35.515625 20.015625 
Q 33.0625 21.96875 24.703125 23.78125 
L 21.578125 24.515625 
Q 13.234375 26.265625 9.515625 29.90625 
Q 5.8125 33.546875 5.8125 39.890625 
Q 5.8125 47.609375 11.28125 51.796875 
Q 16.75 56 26.8125 56 
Q 31.78125 56 36.171875 55.265625 
Q 40.578125 54.546875 44.28125 53.078125 
z
" id="DejaVuSans-115"/>
      <path d="M 8.015625 75.875 
L 15.828125 75.875 
Q 23.140625 64.359375 26.78125 53.3125 
Q 30.421875 42.28125 30.421875 31.390625 
Q 30.421875 20.453125 26.78125 9.375 
Q 23.140625 -1.703125 15.828125 -13.1875 
L 8.015625 -13.1875 
Q 14.5 -2 17.703125 9.0625 
Q 20.90625 20.125 20.90625 31.390625 
Q 20.90625 42.671875 17.703125 53.65625 
Q 14.5 64.65625 8.015625 75.875 
z
" id="DejaVuSans-41"/>
     </defs>
     <g transform="translate(118.126474 157.199053)scale(0.1 -0.1)">
      <use transform="translate(0 0.125)" xlink:href="#DejaVuSans-Oblique-964"/>
      <use transform="translate(60.205078 0.125)" xlink:href="#DejaVuSans-32"/>
      <use transform="translate(91.992188 0.125)" xlink:href="#DejaVuSans-40"/>
      <use transform="translate(131.005859 0.125)" xlink:href="#DejaVuSans-115"/>
      <use transform="translate(183.105469 0.125)" xlink:href="#DejaVuSans-41"/>
     </g>
    </g>
   </g>
   <g id="matplotlib.axis_2">
    <g id="ytick_1">
     <g id="line2d_11">
      <path clip-path="url(#p9fe169c934)" d="M 44.203125 108.563833 
L 214.349824 108.563833 
" style="fill:none;stroke:#b0b0b0;stroke-linecap:square;stroke-width:0.8;"/>
     </g>
     <g id="line2d_12">
      <defs>
       <path d="M 0 0 
L -3.5 0 
" id="md6c7670d68" style="stroke:#000000;stroke-width:0.8;"/>
      </defs>
      <g>
       <use style="stroke:#000000;stroke-width:0.8;" x="44.203125" xlink:href="#md6c7670d68" y="108.563833"/>
      </g>
     </g>
     <g id="text_7">
      <!-- 0 -->
      <g transform="translate(30.840625 112.363052)scale(0.1 -0.1)">
       <use xlink:href="#DejaVuSans-48"/>
      </g>
     </g>
    </g>
    <g id="ytick_2">
     <g id="line2d_13">
      <path clip-path="url(#p9fe169c934)" d="M 44.203125 72.544644 
L 214.349824 72.544644 
" style="fill:none;stroke:#b0b0b0;stroke-linecap:square;stroke-width:0.8;"/>
     </g>
     <g id="line2d_14">
      <g>
       <use style="stroke:#000000;stroke-width:0.8;" x="44.203125" xlink:href="#md6c7670d68" y="72.544644"/>
      </g>
     </g>
     <g id="text_8">
      <!-- 5 -->
      <g transform="translate(30.840625 76.343862)scale(0.1 -0.1)">
       <use xlink:href="#DejaVuSans-53"/>
      </g>
     </g>
    </g>
    <g id="ytick_3">
     <g id="line2d_15">
      <path clip-path="url(#p9fe169c934)" d="M 44.203125 36.525454 
L 214.349824 36.525454 
" style="fill:none;stroke:#b0b0b0;stroke-linecap:square;stroke-width:0.8;"/>
     </g>
     <g id="line2d_16">
      <g>
       <use style="stroke:#000000;stroke-width:0.8;" x="44.203125" xlink:href="#md6c7670d68" y="36.525454"/>
      </g>
     </g>
     <g id="text_9">
      <!-- 10 -->
      <g transform="translate(24.478125 40.324673)scale(0.1 -0.1)">
       <use xlink:href="#DejaVuSans-49"/>
       <use x="63.623047" xlink:href="#DejaVuSans-48"/>
      </g>
     </g>
    </g>
    <g id="text_10">
     <!-- correlation function -->
     <defs>
      <path d="M 48.78125 52.59375 
L 48.78125 44.1875 
Q 44.96875 46.296875 41.140625 47.34375 
Q 37.3125 48.390625 33.40625 48.390625 
Q 24.65625 48.390625 19.8125 42.84375 
Q 14.984375 37.3125 14.984375 27.296875 
Q 14.984375 17.28125 19.8125 11.734375 
Q 24.65625 6.203125 33.40625 6.203125 
Q 37.3125 6.203125 41.140625 7.25 
Q 44.96875 8.296875 48.78125 10.40625 
L 48.78125 2.09375 
Q 45.015625 0.34375 40.984375 -0.53125 
Q 36.96875 -1.421875 32.421875 -1.421875 
Q 20.0625 -1.421875 12.78125 6.34375 
Q 5.515625 14.109375 5.515625 27.296875 
Q 5.515625 40.671875 12.859375 48.328125 
Q 20.21875 56 33.015625 56 
Q 37.15625 56 41.109375 55.140625 
Q 45.0625 54.296875 48.78125 52.59375 
z
" id="DejaVuSans-99"/>
      <path d="M 30.609375 48.390625 
Q 23.390625 48.390625 19.1875 42.75 
Q 14.984375 37.109375 14.984375 27.296875 
Q 14.984375 17.484375 19.15625 11.84375 
Q 23.34375 6.203125 30.609375 6.203125 
Q 37.796875 6.203125 41.984375 11.859375 
Q 46.1875 17.53125 46.1875 27.296875 
Q 46.1875 37.015625 41.984375 42.703125 
Q 37.796875 48.390625 30.609375 48.390625 
z
M 30.609375 56 
Q 42.328125 56 49.015625 48.375 
Q 55.71875 40.765625 55.71875 27.296875 
Q 55.71875 13.875 49.015625 6.21875 
Q 42.328125 -1.421875 30.609375 -1.421875 
Q 18.84375 -1.421875 12.171875 6.21875 
Q 5.515625 13.875 5.515625 27.296875 
Q 5.515625 40.765625 12.171875 48.375 
Q 18.84375 56 30.609375 56 
z
" id="DejaVuSans-111"/>
      <path d="M 41.109375 46.296875 
Q 39.59375 47.171875 37.8125 47.578125 
Q 36.03125 48 33.890625 48 
Q 26.265625 48 22.1875 43.046875 
Q 18.109375 38.09375 18.109375 28.8125 
L 18.109375 0 
L 9.078125 0 
L 9.078125 54.6875 
L 18.109375 54.6875 
L 18.109375 46.1875 
Q 20.953125 51.171875 25.484375 53.578125 
Q 30.03125 56 36.53125 56 
Q 37.453125 56 38.578125 55.875 
Q 39.703125 55.765625 41.0625 55.515625 
z
" id="DejaVuSans-114"/>
      <path d="M 56.203125 29.59375 
L 56.203125 25.203125 
L 14.890625 25.203125 
Q 15.484375 15.921875 20.484375 11.0625 
Q 25.484375 6.203125 34.421875 6.203125 
Q 39.59375 6.203125 44.453125 7.46875 
Q 49.3125 8.734375 54.109375 11.28125 
L 54.109375 2.78125 
Q 49.265625 0.734375 44.1875 -0.34375 
Q 39.109375 -1.421875 33.890625 -1.421875 
Q 20.796875 -1.421875 13.15625 6.1875 
Q 5.515625 13.8125 5.515625 26.8125 
Q 5.515625 40.234375 12.765625 48.109375 
Q 20.015625 56 32.328125 56 
Q 43.359375 56 49.78125 48.890625 
Q 56.203125 41.796875 56.203125 29.59375 
z
M 47.21875 32.234375 
Q 47.125 39.59375 43.09375 43.984375 
Q 39.0625 48.390625 32.421875 48.390625 
Q 24.90625 48.390625 20.390625 44.140625 
Q 15.875 39.890625 15.1875 32.171875 
z
" id="DejaVuSans-101"/>
      <path d="M 9.421875 75.984375 
L 18.40625 75.984375 
L 18.40625 0 
L 9.421875 0 
z
" id="DejaVuSans-108"/>
      <path d="M 34.28125 27.484375 
Q 23.390625 27.484375 19.1875 25 
Q 14.984375 22.515625 14.984375 16.5 
Q 14.984375 11.71875 18.140625 8.90625 
Q 21.296875 6.109375 26.703125 6.109375 
Q 34.1875 6.109375 38.703125 11.40625 
Q 43.21875 16.703125 43.21875 25.484375 
L 43.21875 27.484375 
z
M 52.203125 31.203125 
L 52.203125 0 
L 43.21875 0 
L 43.21875 8.296875 
Q 40.140625 3.328125 35.546875 0.953125 
Q 30.953125 -1.421875 24.3125 -1.421875 
Q 15.921875 -1.421875 10.953125 3.296875 
Q 6 8.015625 6 15.921875 
Q 6 25.140625 12.171875 29.828125 
Q 18.359375 34.515625 30.609375 34.515625 
L 43.21875 34.515625 
L 43.21875 35.40625 
Q 43.21875 41.609375 39.140625 45 
Q 35.0625 48.390625 27.6875 48.390625 
Q 23 48.390625 18.546875 47.265625 
Q 14.109375 46.140625 10.015625 43.890625 
L 10.015625 52.203125 
Q 14.9375 54.109375 19.578125 55.046875 
Q 24.21875 56 28.609375 56 
Q 40.484375 56 46.34375 49.84375 
Q 52.203125 43.703125 52.203125 31.203125 
z
" id="DejaVuSans-97"/>
      <path d="M 18.3125 70.21875 
L 18.3125 54.6875 
L 36.8125 54.6875 
L 36.8125 47.703125 
L 18.3125 47.703125 
L 18.3125 18.015625 
Q 18.3125 11.328125 20.140625 9.421875 
Q 21.96875 7.515625 27.59375 7.515625 
L 36.8125 7.515625 
L 36.8125 0 
L 27.59375 0 
Q 17.1875 0 13.234375 3.875 
Q 9.28125 7.765625 9.28125 18.015625 
L 9.28125 47.703125 
L 2.6875 47.703125 
L 2.6875 54.6875 
L 9.28125 54.6875 
L 9.28125 70.21875 
z
" id="DejaVuSans-116"/>
      <path d="M 9.421875 54.6875 
L 18.40625 54.6875 
L 18.40625 0 
L 9.421875 0 
z
M 9.421875 75.984375 
L 18.40625 75.984375 
L 18.40625 64.59375 
L 9.421875 64.59375 
z
" id="DejaVuSans-105"/>
      <path d="M 54.890625 33.015625 
L 54.890625 0 
L 45.90625 0 
L 45.90625 32.71875 
Q 45.90625 40.484375 42.875 44.328125 
Q 39.84375 48.1875 33.796875 48.1875 
Q 26.515625 48.1875 22.3125 43.546875 
Q 18.109375 38.921875 18.109375 30.90625 
L 18.109375 0 
L 9.078125 0 
L 9.078125 54.6875 
L 18.109375 54.6875 
L 18.109375 46.1875 
Q 21.34375 51.125 25.703125 53.5625 
Q 30.078125 56 35.796875 56 
Q 45.21875 56 50.046875 50.171875 
Q 54.890625 44.34375 54.890625 33.015625 
z
" id="DejaVuSans-110"/>
      <path d="M 37.109375 75.984375 
L 37.109375 68.5 
L 28.515625 68.5 
Q 23.6875 68.5 21.796875 66.546875 
Q 19.921875 64.59375 19.921875 59.515625 
L 19.921875 54.6875 
L 34.71875 54.6875 
L 34.71875 47.703125 
L 19.921875 47.703125 
L 19.921875 0 
L 10.890625 0 
L 10.890625 47.703125 
L 2.296875 47.703125 
L 2.296875 54.6875 
L 10.890625 54.6875 
L 10.890625 58.5 
Q 10.890625 67.625 15.140625 71.796875 
Q 19.390625 75.984375 28.609375 75.984375 
z
" id="DejaVuSans-102"/>
      <path d="M 8.5 21.578125 
L 8.5 54.6875 
L 17.484375 54.6875 
L 17.484375 21.921875 
Q 17.484375 14.15625 20.5 10.265625 
Q 23.53125 6.390625 29.59375 6.390625 
Q 36.859375 6.390625 41.078125 11.03125 
Q 45.3125 15.671875 45.3125 23.6875 
L 45.3125 54.6875 
L 54.296875 54.6875 
L 54.296875 0 
L 45.3125 0 
L 45.3125 8.40625 
Q 42.046875 3.421875 37.71875 1 
Q 33.40625 -1.421875 27.6875 -1.421875 
Q 18.265625 -1.421875 13.375 4.4375 
Q 8.5 10.296875 8.5 21.578125 
z
M 31.109375 56 
z
" id="DejaVuSans-117"/>
     </defs>
     <g transform="translate(18.398438 118.898745)rotate(-90)scale(0.1 -0.1)">
      <use xlink:href="#DejaVuSans-99"/>
      <use x="54.980469" xlink:href="#DejaVuSans-111"/>
      <use x="116.162109" xlink:href="#DejaVuSans-114"/>
      <use x="157.259766" xlink:href="#DejaVuSans-114"/>
      <use x="198.341797" xlink:href="#DejaVuSans-101"/>
      <use x="259.865234" xlink:href="#DejaVuSans-108"/>
      <use x="287.648438" xlink:href="#DejaVuSans-97"/>
      <use x="348.927734" xlink:href="#DejaVuSans-116"/>
      <use x="388.136719" xlink:href="#DejaVuSans-105"/>
      <use x="415.919922" xlink:href="#DejaVuSans-111"/>
      <use x="477.101562" xlink:href="#DejaVuSans-110"/>
      <use x="540.480469" xlink:href="#DejaVuSans-32"/>
      <use x="572.267578" xlink:href="#DejaVuSans-102"/>
      <use x="607.472656" xlink:href="#DejaVuSans-117"/>
      <use x="670.851562" xlink:href="#DejaVuSans-110"/>
      <use x="734.230469" xlink:href="#DejaVuSans-99"/>
      <use x="789.210938" xlink:href="#DejaVuSans-116"/>
      <use x="828.419922" xlink:href="#DejaVuSans-105"/>
      <use x="856.203125" xlink:href="#DejaVuSans-111"/>
      <use x="917.384766" xlink:href="#DejaVuSans-110"/>
     </g>
    </g>
   </g>
   <g id="line2d_17">
    <path clip-path="url(#p9fe169c934)" d="M 51.937066 104.456313 
L 52.066072 104.517787 
L 52.259582 104.821095 
L 52.711105 104.735618 
L 52.904615 104.886588 
L 53.162628 104.727963 
L 53.291634 104.837525 
L 53.420641 104.714637 
L 53.80766 105.340832 
L 53.936667 105.719863 
L 54.00117 105.640523 
L 54.517196 104.210662 
L 54.775209 104.073532 
L 54.904216 104.131864 
L 55.226732 103.867152 
L 55.549248 103.086734 
L 56.000771 103.329022 
L 56.194281 102.402531 
L 56.387791 101.942996 
L 56.645804 101.984233 
L 56.710307 101.906078 
L 56.77481 101.974946 
L 56.903817 102.30214 
L 57.097327 101.913982 
L 57.16183 101.972562 
L 57.484346 102.894259 
L 57.548849 102.806422 
L 57.613353 102.791454 
L 57.806862 103.629191 
L 58.451895 106.126271 
L 58.580902 106.051384 
L 58.709908 106.354362 
L 59.225934 108.338785 
L 59.548451 110.028076 
L 59.677457 110.393999 
L 59.870967 111.021771 
L 60.32249 112.028012 
L 60.580503 113.217854 
L 60.774012 114.181557 
L 60.903019 114.178789 
L 61.096529 113.964931 
L 61.677058 111.808373 
L 61.999574 110.794404 
L 62.451097 110.654087 
L 62.580104 110.828318 
L 62.644607 110.948528 
L 62.70911 110.887457 
L 63.09613 109.955073 
L 63.225136 109.566433 
L 63.354143 109.141331 
L 63.483149 109.402572 
L 63.547653 109.311561 
L 63.676659 109.028671 
L 63.741162 109.076061 
L 63.934672 109.166952 
L 64.257188 108.956339 
L 64.773215 108.136452 
L 64.902221 107.943884 
L 65.095731 107.503615 
L 65.224737 107.772337 
L 65.67626 109.201347 
L 65.805267 109.180895 
L 65.998776 109.00559 
L 66.127783 109.025771 
L 66.25679 108.930128 
L 66.837319 109.700939 
L 67.030829 110.461739 
L 67.159835 110.873303 
L 67.417848 110.757767 
L 67.546855 110.720417 
L 67.675861 110.58741 
L 67.933874 110.709656 
L 68.514404 110.394804 
L 68.901423 109.289728 
L 68.965926 109.389576 
L 69.159436 109.546156 
L 69.481953 109.523939 
L 69.739966 109.763331 
L 70.191488 109.304158 
L 70.255992 109.317478 
L 70.449501 109.695435 
L 70.514005 109.603751 
L 70.707514 109.399929 
L 70.901024 109.673786 
L 71.094534 109.400825 
L 71.675063 110.395709 
L 71.739567 110.405473 
L 72.062083 109.651019 
L 72.126586 109.777128 
L 72.449102 110.984356 
L 72.642612 110.592855 
L 72.707116 110.647844 
L 72.836122 110.865715 
L 72.900625 110.834574 
L 73.029632 110.861963 
L 73.158638 110.846521 
L 73.352148 110.62623 
L 73.481155 110.910256 
L 73.868174 113.025245 
L 74.061684 113.701971 
L 74.19069 113.81177 
L 74.57771 114.488331 
L 74.77122 114.181174 
L 74.96473 113.473831 
L 75.287246 114.146347 
L 75.674265 114.570292 
L 76.061285 114.00822 
L 76.448305 112.718377 
L 76.706318 111.125134 
L 76.899827 110.585799 
L 77.286847 111.202611 
L 77.609363 111.740714 
L 78.189893 113.894784 
L 78.254396 113.832211 
L 78.641415 112.600738 
L 79.092938 110.720852 
L 79.221945 110.612877 
L 79.415455 110.260627 
L 79.673468 110.373788 
L 80.060487 109.499834 
L 80.12499 109.442191 
L 80.3185 110.07805 
L 80.963533 112.120972 
L 81.157043 111.964154 
L 81.221546 112.044234 
L 81.415056 112.349349 
L 81.608565 112.132345 
L 81.866578 111.117276 
L 82.124591 110.514949 
L 82.318101 110.562709 
L 82.511611 110.568959 
L 82.769624 110.044229 
L 82.834127 110.140502 
L 82.898631 110.16437 
L 83.414657 109.003201 
L 84.124192 105.446067 
L 84.253199 105.601724 
L 84.446709 106.034871 
L 84.511212 105.952715 
L 84.640219 105.559278 
L 84.704722 105.602388 
L 85.414258 107.587936 
L 85.930284 106.538563 
L 86.2528 106.527741 
L 86.510813 107.039505 
L 87.026839 109.229271 
L 87.155846 109.122512 
L 87.478362 108.919464 
L 87.736375 108.255612 
L 87.800878 108.3667 
L 87.929885 108.528325 
L 88.058891 108.383014 
L 88.187898 108.844993 
L 88.574917 110.27347 
L 88.703924 110.135345 
L 88.961937 110.879492 
L 89.155447 110.817465 
L 89.348957 111.254296 
L 89.735976 110.40181 
L 89.800479 110.474709 
L 89.993989 110.698033 
L 90.058492 110.637806 
L 90.961538 107.456958 
L 91.090545 107.228664 
L 91.542067 105.51244 
L 91.606571 105.542722 
L 92.058093 106.551271 
L 92.703126 109.264011 
L 92.832133 109.397563 
L 93.477165 112.826584 
L 93.606172 112.667677 
L 93.799681 112.86665 
L 93.993191 112.602216 
L 94.122198 112.817778 
L 94.444714 113.461374 
L 94.509217 113.478067 
L 94.702727 113.224332 
L 94.831734 113.296549 
L 95.025243 113.173171 
L 95.089747 113.128535 
L 95.34776 111.964849 
L 95.412263 111.989635 
L 96.121799 113.02763 
L 96.315309 113.034772 
L 96.508818 113.1376 
L 97.089348 112.365846 
L 97.347361 111.560073 
L 97.476367 111.893922 
L 97.669877 112.403777 
L 97.863387 112.393149 
L 97.992393 112.456954 
L 98.379413 113.740826 
L 98.508419 114.092876 
L 98.766432 113.963633 
L 99.346962 116.005616 
L 99.604975 115.752938 
L 99.733981 115.527425 
L 99.927491 115.86881 
L 99.991994 115.804098 
L 100.121001 115.831683 
L 100.379014 116.885106 
L 100.830537 118.918542 
L 100.959543 119.029193 
L 101.08855 118.631271 
L 101.411066 116.380361 
L 101.798086 113.054906 
L 102.249608 110.7534 
L 102.378615 110.617461 
L 102.636628 111.000993 
L 102.701131 110.95596 
L 102.830138 110.691064 
L 103.088151 110.06344 
L 103.217157 110.333361 
L 103.410667 110.732514 
L 103.926693 110.921216 
L 104.184706 110.424195 
L 104.378216 110.577619 
L 104.765236 109.810228 
L 104.894242 109.475657 
L 105.023249 109.556228 
L 105.281262 108.836618 
L 105.474771 108.46772 
L 105.732785 108.647458 
L 106.055301 109.370145 
L 106.377817 107.977281 
L 106.700333 106.42582 
L 106.82934 106.350439 
L 107.087353 106.636744 
L 107.345366 107.382844 
L 107.667882 106.875658 
L 107.861392 106.574862 
L 108.699934 108.702876 
L 108.828941 108.690762 
L 108.957948 109.084656 
L 109.280464 110.912981 
L 109.344967 110.842416 
L 109.40947 110.717477 
L 109.473974 110.751727 
L 109.99 112.588065 
L 110.377019 113.54598 
L 110.635032 113.869122 
L 110.893045 113.471657 
L 111.538078 115.201056 
L 111.667084 115.265829 
L 111.860594 114.77597 
L 111.989601 114.444351 
L 112.054104 114.472107 
L 112.505627 115.549882 
L 112.57013 115.602686 
L 112.76364 115.374429 
L 112.828143 115.423456 
L 112.95715 115.39526 
L 113.086156 115.416743 
L 113.215163 115.740196 
L 113.279666 115.711191 
L 113.860195 114.219221 
L 114.053705 113.636337 
L 114.182712 113.461962 
L 114.505228 112.870199 
L 114.698738 113.106399 
L 114.892247 112.776497 
L 115.214764 113.146475 
L 115.34377 113.207714 
L 115.601783 112.509579 
L 115.666287 112.663833 
L 116.053306 113.595838 
L 116.311319 114.315182 
L 116.440326 114.442276 
L 116.698339 114.973618 
L 117.407875 117.224123 
L 117.601384 117.824929 
L 117.730391 118.38653 
L 117.859397 118.894117 
L 117.988404 118.836605 
L 118.181914 118.96577 
L 118.31092 119.068086 
L 119.149463 121.434052 
L 119.278469 121.59571 
L 119.342972 121.547158 
L 119.471979 121.371539 
L 119.988005 122.867712 
L 120.181515 123.476179 
L 120.310521 123.553286 
L 120.439528 123.250541 
L 120.826547 122.159952 
L 121.020057 121.582669 
L 121.27807 120.938005 
L 121.600586 119.875383 
L 122.181116 116.698148 
L 122.632639 114.157436 
L 122.761645 113.522572 
L 123.084161 111.259444 
L 123.213168 111.173376 
L 123.535684 109.928125 
L 123.793697 108.411729 
L 124.825749 99.827831 
L 125.148266 95.582781 
L 126.051311 79.424903 
L 126.502834 71.791776 
L 127.40588 57.878709 
L 128.502435 34.67842 
L 128.953958 22.141077 
L 129.211971 16.312739 
L 129.276474 16.169204 
L 129.405481 17.322241 
L 129.663494 23.354321 
L 131.340579 68.352559 
L 132.501637 81.517475 
L 132.75965 83.799186 
L 133.469186 91.602128 
L 134.307729 97.565851 
L 134.565742 98.712776 
L 135.210774 102.415736 
L 135.339781 102.166272 
L 135.7268 101.37008 
L 136.242826 103.093786 
L 136.694349 105.247818 
L 136.952362 106.302868 
L 137.468388 108.153475 
L 137.597395 108.588618 
L 137.855408 109.711167 
L 137.984414 109.956111 
L 138.242427 110.821452 
L 138.306931 110.804512 
L 138.371434 110.849318 
L 138.629447 111.733617 
L 138.69395 111.702842 
L 138.88746 111.415132 
L 139.08097 111.471381 
L 139.209976 111.347973 
L 139.855009 111.969562 
L 140.177525 111.560288 
L 140.435538 110.955032 
L 140.500042 110.985059 
L 140.951564 111.93669 
L 141.016068 111.855344 
L 141.46759 110.764893 
L 141.532094 110.89038 
L 141.6611 111.196371 
L 141.725603 111.140769 
L 141.85461 110.934824 
L 142.112623 111.538529 
L 142.435139 112.662876 
L 143.015669 113.072578 
L 143.273682 114.539208 
L 143.338185 114.442254 
L 143.402688 114.443509 
L 143.854211 115.846205 
L 144.047721 115.680596 
L 144.112224 115.79924 
L 144.305734 116.387907 
L 144.563747 117.083683 
L 144.757257 117.029417 
L 144.950766 117.566784 
L 145.144276 117.404983 
L 145.337786 117.480124 
L 145.595799 117.325245 
L 145.789309 117.404713 
L 145.918315 117.411044 
L 146.176328 117.771838 
L 146.305335 117.912158 
L 146.692354 117.733938 
L 147.143877 118.447137 
L 147.272884 118.320256 
L 147.40189 118.173171 
L 147.530897 118.14283 
L 148.240433 115.815738 
L 148.369439 115.349975 
L 148.433943 115.41624 
L 148.627452 115.894613 
L 148.756459 115.83061 
L 149.143478 116.57201 
L 149.207982 116.500855 
L 149.465995 115.746357 
L 149.659504 115.736425 
L 150.046524 117.456262 
L 150.175531 117.358681 
L 150.36904 117.678528 
L 150.56255 117.529061 
L 150.94957 115.156093 
L 151.143079 114.407055 
L 151.336589 113.652847 
L 152.691158 106.657039 
L 153.207184 105.664034 
L 153.33619 105.686856 
L 153.594203 105.914943 
L 153.852216 106.254227 
L 153.91672 106.118873 
L 154.045726 105.977452 
L 154.884268 108.951788 
L 155.271288 111.017378 
L 155.787314 113.177751 
L 156.30334 115.496741 
L 156.432347 115.944587 
L 156.819366 117.57564 
L 156.948373 117.659214 
L 157.077379 117.423755 
L 157.722412 114.728585 
L 158.173935 113.575767 
L 158.367445 113.172977 
L 158.625458 112.660027 
L 159.012477 111.895054 
L 159.07698 111.935827 
L 159.399497 112.591162 
L 159.980026 110.228754 
L 160.109033 110.281168 
L 160.302542 110.145179 
L 160.754065 111.393284 
L 160.947575 110.94644 
L 161.270091 110.030879 
L 161.463601 109.939 
L 162.04413 111.67022 
L 162.23764 111.65805 
L 162.560156 112.039084 
L 162.882673 113.561694 
L 162.947176 113.429695 
L 163.463202 112.011823 
L 163.592209 111.988798 
L 163.850222 111.079496 
L 164.172738 109.756122 
L 164.301744 109.861017 
L 164.495254 110.665078 
L 165.01128 113.644019 
L 165.656313 115.778826 
L 165.785319 115.739688 
L 166.043332 115.195035 
L 166.172339 115.007456 
L 166.236842 115.06123 
L 166.494855 115.448142 
L 166.688365 115.704142 
L 166.817372 115.627465 
L 167.139888 115.114432 
L 167.333398 114.93419 
L 167.462404 114.925899 
L 167.526907 114.888863 
L 167.720417 115.12673 
L 167.97843 114.195679 
L 168.042933 114.24866 
L 168.300947 114.861102 
L 168.429953 114.7337 
L 168.687966 115.044852 
L 168.816973 114.975433 
L 169.010482 115.264996 
L 169.074986 115.200514 
L 169.332999 114.807805 
L 169.462005 114.884339 
L 169.655515 114.340903 
L 169.720018 114.427794 
L 169.849025 114.596261 
L 169.978031 114.31896 
L 170.300548 113.325196 
L 170.494057 112.783504 
L 170.75207 112.230768 
L 170.94558 112.173902 
L 171.010083 112.156887 
L 171.268096 111.1714 
L 171.719619 109.390871 
L 172.171142 110.639512 
L 172.558162 112.44437 
L 172.622665 112.411041 
L 174.041737 108.51293 
L 174.170743 108.56661 
L 174.493259 108.133211 
L 174.622266 108.132466 
L 174.751272 108.376422 
L 175.525312 107.127015 
L 175.589815 107.202586 
L 175.718821 107.334314 
L 175.976834 107.167727 
L 176.170344 106.840548 
L 176.428357 106.367257 
L 176.492861 106.397274 
L 176.87988 106.113025 
L 177.07339 105.726309 
L 177.2669 105.753387 
L 177.460409 105.21408 
L 177.524913 105.296758 
L 177.653919 105.674301 
L 177.718422 105.624232 
L 177.911932 105.42428 
L 178.234449 105.891143 
L 178.427958 106.082563 
L 178.621468 105.871686 
L 178.943984 106.569188 
L 179.137494 107.01516 
L 179.266501 107.152706 
L 179.331004 107.223081 
L 179.524514 106.69815 
L 179.782527 105.778711 
L 179.911533 105.931522 
L 180.105043 105.977901 
L 180.169546 105.899727 
L 180.879082 103.439595 
L 181.008089 103.368613 
L 181.459612 102.429524 
L 181.588618 102.674916 
L 181.782128 103.191337 
L 181.911134 103.21641 
L 182.040141 103.95871 
L 182.233651 105.203038 
L 182.62067 105.352922 
L 182.878683 106.229559 
L 183.394709 108.626326 
L 183.588219 108.523258 
L 183.975239 108.533492 
L 184.233252 107.516693 
L 184.555768 106.383672 
L 184.684775 106.288274 
L 184.813781 106.489186 
L 185.071794 107.071421 
L 185.523317 106.456111 
L 185.97484 106.878917 
L 186.297356 107.515281 
L 186.619872 108.463745 
L 186.813382 108.268738 
L 187.458415 109.203747 
L 187.587421 109.347014 
L 187.845434 109.850381 
L 187.974441 109.928416 
L 188.36146 109.612542 
L 188.619473 109.734589 
L 189.006493 110.933302 
L 189.264506 111.797948 
L 189.909539 113.839742 
L 190.103048 114.120341 
L 190.232055 114.035891 
L 190.554571 113.211543 
L 190.619074 113.29528 
L 190.748081 113.361223 
L 190.941591 113.180357 
L 191.006094 113.271469 
L 191.457617 114.510743 
L 191.780133 114.36826 
L 192.102649 114.876639 
L 192.167153 114.888308 
L 192.425166 114.167543 
L 192.747682 112.890279 
L 192.876688 112.950738 
L 193.005695 113.121813 
L 193.134702 112.826141 
L 193.779734 110.272582 
L 193.908741 109.851244 
L 194.360263 107.27228 
L 194.618277 106.625947 
L 194.68278 106.671284 
L 195.005296 106.946086 
L 195.069799 106.864752 
L 195.134303 106.833326 
L 195.327812 107.866992 
L 195.585825 108.643457 
L 195.779335 108.585953 
L 196.037348 108.407646 
L 196.101851 108.409128 
L 196.230858 108.038365 
L 197.391917 103.055566 
L 197.907943 103.406586 
L 198.036949 103.265003 
L 198.101453 103.323505 
L 198.359466 103.772955 
L 198.617479 103.869285 
L 198.746485 103.894734 
L 199.004498 104.403866 
L 199.327014 105.172487 
L 200.03655 104.121474 
L 200.165557 104.078727 
L 200.359067 104.147083 
L 200.681583 103.729084 
L 200.746086 103.782414 
L 200.875093 103.772761 
L 201.197609 103.100036 
L 201.326616 103.311999 
L 201.907145 105.144609 
L 201.971648 105.091174 
L 202.100655 104.832444 
L 202.358668 105.115275 
L 202.552177 104.668105 
L 202.745687 104.205431 
L 203.0037 104.45496 
L 203.132707 104.280884 
L 203.261713 104.552457 
L 203.519726 104.980689 
L 203.713236 104.937002 
L 204.164759 104.25097 
L 204.809792 105.242114 
L 205.067805 105.944328 
L 205.132308 105.879481 
L 205.325818 105.638151 
L 205.390321 105.688766 
L 205.648334 106.642175 
L 205.712837 106.620991 
L 205.841844 106.306723 
L 206.035353 105.26803 
L 206.099857 105.313807 
L 206.615883 106.681213 
L 206.615883 106.681213 
" style="fill:none;stroke:#000000;stroke-linecap:square;"/>
   </g>
   <g id="line2d_18">
    <path clip-path="url(#p9fe169c934)" d="M 51.937066 108.792964 
L 71.288044 109.083468 
L 82.253598 109.452646 
L 89.60697 109.912055 
L 95.025243 110.465364 
L 99.411465 111.132396 
L 103.217157 111.934887 
L 106.82934 112.924687 
L 115.021254 115.304605 
L 116.311319 115.346632 
L 117.343371 115.166442 
L 118.246417 114.783736 
L 119.084959 114.173618 
L 119.858998 113.325963 
L 120.633038 112.127927 
L 121.407077 110.484631 
L 122.181116 108.276519 
L 122.955155 105.352264 
L 123.729194 101.519097 
L 124.503233 96.529245 
L 125.277272 90.060198 
L 126.051311 81.684747 
L 126.82535 70.823617 
L 127.59939 56.673267 
L 128.373429 38.194773 
L 129.211971 16.982763 
L 129.276474 16.722227 
L 129.340978 16.982763 
L 129.534487 20.288322 
L 131.534088 67.631981 
L 132.372631 80.065651 
L 133.211173 89.441854 
L 134.049716 96.529245 
L 134.888258 101.878883 
L 135.7268 105.89696 
L 136.565343 108.889138 
L 137.403885 111.088673 
L 138.242427 112.675294 
L 139.08097 113.788469 
L 139.919512 114.536973 
L 140.822558 115.032362 
L 141.790107 115.296188 
L 142.886662 115.355708 
L 144.241231 115.194445 
L 146.111825 114.727603 
L 150.240034 113.390741 
L 154.303739 112.194662 
L 157.915922 111.365401 
L 161.850621 110.692495 
L 166.494855 110.13267 
L 172.235645 109.675251 
L 179.911533 109.301567 
L 190.941591 109.004824 
L 206.615883 108.792964 
L 206.615883 108.792964 
" style="fill:none;stroke:#ff0000;stroke-dasharray:3.7,1.6;stroke-dashoffset:0;"/>
   </g>
   <g id="patch_3">
    <path d="M 44.203125 128.92249 
L 44.203125 10.8 
" style="fill:none;stroke:#000000;stroke-linecap:square;stroke-linejoin:miter;stroke-width:0.8;"/>
   </g>
   <g id="patch_4">
    <path d="M 214.349824 128.92249 
L 214.349824 10.8 
" style="fill:none;stroke:#000000;stroke-linecap:square;stroke-linejoin:miter;stroke-width:0.8;"/>
   </g>
   <g id="patch_5">
    <path d="M 44.203125 128.92249 
L 214.349824 128.92249 
" style="fill:none;stroke:#000000;stroke-linecap:square;stroke-linejoin:miter;stroke-width:0.8;"/>
   </g>
   <g id="patch_6">
    <path d="M 44.203125 10.8 
L 214.349824 10.8 
" style="fill:none;stroke:#000000;stroke-linecap:square;stroke-linejoin:miter;stroke-width:0.8;"/>
   </g>
   <g id="legend_1">
    <g id="patch_7">
     <path d="M 134.795449 44.420625 
L 208.049824 44.420625 
Q 209.849824 44.420625 209.849824 42.620625 
L 209.849824 17.1 
Q 209.849824 15.3 208.049824 15.3 
L 134.795449 15.3 
Q 132.995449 15.3 132.995449 17.1 
L 132.995449 42.620625 
Q 132.995449 44.420625 134.795449 44.420625 
z
" style="fill:#ffffff;opacity:0.8;stroke:#cccccc;stroke-linejoin:miter;"/>
    </g>
    <g id="line2d_19">
     <path d="M 136.595449 22.588594 
L 154.595449 22.588594 
" style="fill:none;stroke:#000000;stroke-linecap:square;"/>
    </g>
    <g id="line2d_20"/>
    <g id="text_11">
     <!-- simulated -->
     <defs>
      <path d="M 52 44.1875 
Q 55.375 50.25 60.0625 53.125 
Q 64.75 56 71.09375 56 
Q 79.640625 56 84.28125 50.015625 
Q 88.921875 44.046875 88.921875 33.015625 
L 88.921875 0 
L 79.890625 0 
L 79.890625 32.71875 
Q 79.890625 40.578125 77.09375 44.375 
Q 74.3125 48.1875 68.609375 48.1875 
Q 61.625 48.1875 57.5625 43.546875 
Q 53.515625 38.921875 53.515625 30.90625 
L 53.515625 0 
L 44.484375 0 
L 44.484375 32.71875 
Q 44.484375 40.625 41.703125 44.40625 
Q 38.921875 48.1875 33.109375 48.1875 
Q 26.21875 48.1875 22.15625 43.53125 
Q 18.109375 38.875 18.109375 30.90625 
L 18.109375 0 
L 9.078125 0 
L 9.078125 54.6875 
L 18.109375 54.6875 
L 18.109375 46.1875 
Q 21.1875 51.21875 25.484375 53.609375 
Q 29.78125 56 35.6875 56 
Q 41.65625 56 45.828125 52.96875 
Q 50 49.953125 52 44.1875 
z
" id="DejaVuSans-109"/>
      <path d="M 45.40625 46.390625 
L 45.40625 75.984375 
L 54.390625 75.984375 
L 54.390625 0 
L 45.40625 0 
L 45.40625 8.203125 
Q 42.578125 3.328125 38.25 0.953125 
Q 33.9375 -1.421875 27.875 -1.421875 
Q 17.96875 -1.421875 11.734375 6.484375 
Q 5.515625 14.40625 5.515625 27.296875 
Q 5.515625 40.1875 11.734375 48.09375 
Q 17.96875 56 27.875 56 
Q 33.9375 56 38.25 53.625 
Q 42.578125 51.265625 45.40625 46.390625 
z
M 14.796875 27.296875 
Q 14.796875 17.390625 18.875 11.75 
Q 22.953125 6.109375 30.078125 6.109375 
Q 37.203125 6.109375 41.296875 11.75 
Q 45.40625 17.390625 45.40625 27.296875 
Q 45.40625 37.203125 41.296875 42.84375 
Q 37.203125 48.484375 30.078125 48.484375 
Q 22.953125 48.484375 18.875 42.84375 
Q 14.796875 37.203125 14.796875 27.296875 
z
" id="DejaVuSans-100"/>
     </defs>
     <g transform="translate(161.795449 25.738594)scale(0.09 -0.09)">
      <use xlink:href="#DejaVuSans-115"/>
      <use x="52.099609" xlink:href="#DejaVuSans-105"/>
      <use x="79.882812" xlink:href="#DejaVuSans-109"/>
      <use x="177.294922" xlink:href="#DejaVuSans-117"/>
      <use x="240.673828" xlink:href="#DejaVuSans-108"/>
      <use x="268.457031" xlink:href="#DejaVuSans-97"/>
      <use x="329.736328" xlink:href="#DejaVuSans-116"/>
      <use x="368.945312" xlink:href="#DejaVuSans-101"/>
      <use x="430.46875" xlink:href="#DejaVuSans-100"/>
     </g>
    </g>
    <g id="line2d_21">
     <path d="M 136.595449 35.798906 
L 154.595449 35.798906 
" style="fill:none;stroke:#ff0000;stroke-dasharray:3.7,1.6;stroke-dashoffset:0;"/>
    </g>
    <g id="line2d_22"/>
    <g id="text_12">
     <!-- target -->
     <defs>
      <path d="M 45.40625 27.984375 
Q 45.40625 37.75 41.375 43.109375 
Q 37.359375 48.484375 30.078125 48.484375 
Q 22.859375 48.484375 18.828125 43.109375 
Q 14.796875 37.75 14.796875 27.984375 
Q 14.796875 18.265625 18.828125 12.890625 
Q 22.859375 7.515625 30.078125 7.515625 
Q 37.359375 7.515625 41.375 12.890625 
Q 45.40625 18.265625 45.40625 27.984375 
z
M 54.390625 6.78125 
Q 54.390625 -7.171875 48.1875 -13.984375 
Q 42 -20.796875 29.203125 -20.796875 
Q 24.46875 -20.796875 20.265625 -20.09375 
Q 16.0625 -19.390625 12.109375 -17.921875 
L 12.109375 -9.1875 
Q 16.0625 -11.328125 19.921875 -12.34375 
Q 23.78125 -13.375 27.78125 -13.375 
Q 36.625 -13.375 41.015625 -8.765625 
Q 45.40625 -4.15625 45.40625 5.171875 
L 45.40625 9.625 
Q 42.625 4.78125 38.28125 2.390625 
Q 33.9375 0 27.875 0 
Q 17.828125 0 11.671875 7.65625 
Q 5.515625 15.328125 5.515625 27.984375 
Q 5.515625 40.671875 11.671875 48.328125 
Q 17.828125 56 27.875 56 
Q 33.9375 56 38.28125 53.609375 
Q 42.625 51.21875 45.40625 46.390625 
L 45.40625 54.6875 
L 54.390625 54.6875 
z
" id="DejaVuSans-103"/>
     </defs>
     <g transform="translate(161.795449 38.948906)scale(0.09 -0.09)">
      <use xlink:href="#DejaVuSans-116"/>
      <use x="39.208984" xlink:href="#DejaVuSans-97"/>
      <use x="100.488281" xlink:href="#DejaVuSans-114"/>
      <use x="141.585938" xlink:href="#DejaVuSans-103"/>
      <use x="205.0625" xlink:href="#DejaVuSans-101"/>
      <use x="266.585938" xlink:href="#DejaVuSans-116"/>
     </g>
    </g>
   </g>
  </g>
 </g>
 <defs>
  <clipPath id="p9fe169c934">
   <rect height="118.12249" width="170.146699" x="44.203125" y="10.8"/>
  </clipPath>
 </defs>
</svg>
