<?xml version="1.0" encoding="utf-8" standalone="no"?>
<!DOCTYPE svg PUBLIC "-//W3C//DTD SVG 1.1//EN"
  "http://www.w3.org/Graphics/SVG/1.1/DTD/svg11.dtd">
<!-- Created with matplotlib (https://matplotlib.org/) -->
<svg height="170.07874pt" version="1.1" viewBox="0 0 226.771654 170.07874" width="226.771654pt" xmlns="http://www.w3.org/2000/svg" xmlns:xlink="http://www.w3.org/1999/xlink">
 <defs>
  <style type="text/css">
*{stroke-linecap:butt;stroke-linejoin:round;}
  </style>
 </defs>
 <g id="figure_1">
  <g id="patch_1">
   <path d="M 0 170.07874 
L 226.771654 170.07874 
L 226.771654 0 
L 0 0 
z
" style="fill:#ffffff;"/>
  </g>
  <g id="axes_1">
   <g id="patch_2">
    <path d="M 54.978125 128.92249 
L 215.971654 128.92249 
L 215.971654 10.8 
L 54.978125 10.8 
z
" style="fill:#ffffff;"/>
   </g>
   <g id="matplotlib.axis_1">
    <g id="xtick_1">
     <g id="line2d_1">
      <path clip-path="url(#p49a47e1871)" d="M 85.1978 128.92249 
L 85.1978 10.8 
" style="fill:none;stroke:#b0b0b0;stroke-linecap:square;stroke-width:0.8;"/>
     </g>
     <g id="line2d_2">
      <defs>
       <path d="M 0 0 
L 0 3.5 
" id="md3223672d1" style="stroke:#000000;stroke-width:0.8;"/>
      </defs>
      <g>
       <use style="stroke:#000000;stroke-width:0.8;" x="85.1978" xlink:href="#md3223672d1" y="128.92249"/>
      </g>
     </g>
     <g id="text_1">
      <!-- $\mathdefault{10^{-3}}$ -->
      <defs>
       <path d="M 12.40625 8.296875 
L 28.515625 8.296875 
L 28.515625 63.921875 
L 10.984375 60.40625 
L 10.984375 69.390625 
L 28.421875 72.90625 
L 38.28125 72.90625 
L 38.28125 8.296875 
L 54.390625 8.296875 
L 54.390625 0 
L 12.40625 0 
z
" id="DejaVuSans-49"/>
       <path d="M 31.78125 66.40625 
Q 24.171875 66.40625 20.328125 58.90625 
Q 16.5 51.421875 16.5 36.375 
Q 16.5 21.390625 20.328125 13.890625 
Q 24.171875 6.390625 31.78125 6.390625 
Q 39.453125 6.390625 43.28125 13.890625 
Q 47.125 21.390625 47.125 36.375 
Q 47.125 51.421875 43.28125 58.90625 
Q 39.453125 66.40625 31.78125 66.40625 
z
M 31.78125 74.21875 
Q 44.046875 74.21875 50.515625 64.515625 
Q 56.984375 54.828125 56.984375 36.375 
Q 56.984375 17.96875 50.515625 8.265625 
Q 44.046875 -1.421875 31.78125 -1.421875 
Q 19.53125 -1.421875 13.0625 8.265625 
Q 6.59375 17.96875 6.59375 36.375 
Q 6.59375 54.828125 13.0625 64.515625 
Q 19.53125 74.21875 31.78125 74.21875 
z
" id="DejaVuSans-48"/>
       <path d="M 10.59375 35.5 
L 73.1875 35.5 
L 73.1875 27.203125 
L 10.59375 27.203125 
z
" id="DejaVuSans-8722"/>
       <path d="M 40.578125 39.3125 
Q 47.65625 37.796875 51.625 33 
Q 55.609375 28.21875 55.609375 21.1875 
Q 55.609375 10.40625 48.1875 4.484375 
Q 40.765625 -1.421875 27.09375 -1.421875 
Q 22.515625 -1.421875 17.65625 -0.515625 
Q 12.796875 0.390625 7.625 2.203125 
L 7.625 11.71875 
Q 11.71875 9.328125 16.59375 8.109375 
Q 21.484375 6.890625 26.8125 6.890625 
Q 36.078125 6.890625 40.9375 10.546875 
Q 45.796875 14.203125 45.796875 21.1875 
Q 45.796875 27.640625 41.28125 31.265625 
Q 36.765625 34.90625 28.71875 34.90625 
L 20.21875 34.90625 
L 20.21875 43.015625 
L 29.109375 43.015625 
Q 36.375 43.015625 40.234375 45.921875 
Q 44.09375 48.828125 44.09375 54.296875 
Q 44.09375 59.90625 40.109375 62.90625 
Q 36.140625 65.921875 28.71875 65.921875 
Q 24.65625 65.921875 20.015625 65.03125 
Q 15.375 64.15625 9.8125 62.3125 
L 9.8125 71.09375 
Q 15.4375 72.65625 20.34375 73.4375 
Q 25.25 74.21875 29.59375 74.21875 
Q 40.828125 74.21875 47.359375 69.109375 
Q 53.90625 64.015625 53.90625 55.328125 
Q 53.90625 49.265625 50.4375 45.09375 
Q 46.96875 40.921875 40.578125 39.3125 
z
" id="DejaVuSans-51"/>
      </defs>
      <g transform="translate(73.4478 143.520928)scale(0.1 -0.1)">
       <use transform="translate(0 0.765625)" xlink:href="#DejaVuSans-49"/>
       <use transform="translate(63.623047 0.765625)" xlink:href="#DejaVuSans-48"/>
       <use transform="translate(128.203125 39.046875)scale(0.7)" xlink:href="#DejaVuSans-8722"/>
       <use transform="translate(186.855469 39.046875)scale(0.7)" xlink:href="#DejaVuSans-51"/>
      </g>
     </g>
    </g>
    <g id="xtick_2">
     <g id="line2d_3">
      <path clip-path="url(#p49a47e1871)" d="M 122.597026 128.92249 
L 122.597026 10.8 
" style="fill:none;stroke:#b0b0b0;stroke-linecap:square;stroke-width:0.8;"/>
     </g>
     <g id="line2d_4">
      <g>
       <use style="stroke:#000000;stroke-width:0.8;" x="122.597026" xlink:href="#md3223672d1" y="128.92249"/>
      </g>
     </g>
     <g id="text_2">
      <!-- $\mathdefault{10^{-2}}$ -->
      <defs>
       <path d="M 19.1875 8.296875 
L 53.609375 8.296875 
L 53.609375 0 
L 7.328125 0 
L 7.328125 8.296875 
Q 12.9375 14.109375 22.625 23.890625 
Q 32.328125 33.6875 34.8125 36.53125 
Q 39.546875 41.84375 41.421875 45.53125 
Q 43.3125 49.21875 43.3125 52.78125 
Q 43.3125 58.59375 39.234375 62.25 
Q 35.15625 65.921875 28.609375 65.921875 
Q 23.96875 65.921875 18.8125 64.3125 
Q 13.671875 62.703125 7.8125 59.421875 
L 7.8125 69.390625 
Q 13.765625 71.78125 18.9375 73 
Q 24.125 74.21875 28.421875 74.21875 
Q 39.75 74.21875 46.484375 68.546875 
Q 53.21875 62.890625 53.21875 53.421875 
Q 53.21875 48.921875 51.53125 44.890625 
Q 49.859375 40.875 45.40625 35.40625 
Q 44.1875 33.984375 37.640625 27.21875 
Q 31.109375 20.453125 19.1875 8.296875 
z
" id="DejaVuSans-50"/>
      </defs>
      <g transform="translate(110.847026 143.520928)scale(0.1 -0.1)">
       <use transform="translate(0 0.765625)" xlink:href="#DejaVuSans-49"/>
       <use transform="translate(63.623047 0.765625)" xlink:href="#DejaVuSans-48"/>
       <use transform="translate(128.203125 39.046875)scale(0.7)" xlink:href="#DejaVuSans-8722"/>
       <use transform="translate(186.855469 39.046875)scale(0.7)" xlink:href="#DejaVuSans-50"/>
      </g>
     </g>
    </g>
    <g id="xtick_3">
     <g id="line2d_5">
      <path clip-path="url(#p49a47e1871)" d="M 159.996252 128.92249 
L 159.996252 10.8 
" style="fill:none;stroke:#b0b0b0;stroke-linecap:square;stroke-width:0.8;"/>
     </g>
     <g id="line2d_6">
      <g>
       <use style="stroke:#000000;stroke-width:0.8;" x="159.996252" xlink:href="#md3223672d1" y="128.92249"/>
      </g>
     </g>
     <g id="text_3">
      <!-- $\mathdefault{10^{-1}}$ -->
      <g transform="translate(148.246252 143.520928)scale(0.1 -0.1)">
       <use transform="translate(0 0.684375)" xlink:href="#DejaVuSans-49"/>
       <use transform="translate(63.623047 0.684375)" xlink:href="#DejaVuSans-48"/>
       <use transform="translate(128.203125 38.965625)scale(0.7)" xlink:href="#DejaVuSans-8722"/>
       <use transform="translate(186.855469 38.965625)scale(0.7)" xlink:href="#DejaVuSans-49"/>
      </g>
     </g>
    </g>
    <g id="xtick_4">
     <g id="line2d_7">
      <path clip-path="url(#p49a47e1871)" d="M 197.395477 128.92249 
L 197.395477 10.8 
" style="fill:none;stroke:#b0b0b0;stroke-linecap:square;stroke-width:0.8;"/>
     </g>
     <g id="line2d_8">
      <g>
       <use style="stroke:#000000;stroke-width:0.8;" x="197.395477" xlink:href="#md3223672d1" y="128.92249"/>
      </g>
     </g>
     <g id="text_4">
      <!-- $\mathdefault{10^{0}}$ -->
      <g transform="translate(188.595477 143.520928)scale(0.1 -0.1)">
       <use transform="translate(0 0.765625)" xlink:href="#DejaVuSans-49"/>
       <use transform="translate(63.623047 0.765625)" xlink:href="#DejaVuSans-48"/>
       <use transform="translate(128.203125 39.046875)scale(0.7)" xlink:href="#DejaVuSans-48"/>
      </g>
     </g>
    </g>
    <g id="xtick_5">
     <g id="line2d_9">
      <defs>
       <path d="M 0 0 
L 0 2 
" id="m94b7c98212" style="stroke:#000000;stroke-width:0.6;"/>
      </defs>
      <g>
       <use style="stroke:#000000;stroke-width:0.6;" x="59.056864" xlink:href="#m94b7c98212" y="128.92249"/>
      </g>
     </g>
    </g>
    <g id="xtick_6">
     <g id="line2d_10">
      <g>
       <use style="stroke:#000000;stroke-width:0.6;" x="65.64254" xlink:href="#m94b7c98212" y="128.92249"/>
      </g>
     </g>
    </g>
    <g id="xtick_7">
     <g id="line2d_11">
      <g>
       <use style="stroke:#000000;stroke-width:0.6;" x="70.315152" xlink:href="#m94b7c98212" y="128.92249"/>
      </g>
     </g>
    </g>
    <g id="xtick_8">
     <g id="line2d_12">
      <g>
       <use style="stroke:#000000;stroke-width:0.6;" x="73.939512" xlink:href="#m94b7c98212" y="128.92249"/>
      </g>
     </g>
    </g>
    <g id="xtick_9">
     <g id="line2d_13">
      <g>
       <use style="stroke:#000000;stroke-width:0.6;" x="76.900829" xlink:href="#m94b7c98212" y="128.92249"/>
      </g>
     </g>
    </g>
    <g id="xtick_10">
     <g id="line2d_14">
      <g>
       <use style="stroke:#000000;stroke-width:0.6;" x="79.404587" xlink:href="#m94b7c98212" y="128.92249"/>
      </g>
     </g>
    </g>
    <g id="xtick_11">
     <g id="line2d_15">
      <g>
       <use style="stroke:#000000;stroke-width:0.6;" x="81.573441" xlink:href="#m94b7c98212" y="128.92249"/>
      </g>
     </g>
    </g>
    <g id="xtick_12">
     <g id="line2d_16">
      <g>
       <use style="stroke:#000000;stroke-width:0.6;" x="83.486506" xlink:href="#m94b7c98212" y="128.92249"/>
      </g>
     </g>
    </g>
    <g id="xtick_13">
     <g id="line2d_17">
      <g>
       <use style="stroke:#000000;stroke-width:0.6;" x="96.456089" xlink:href="#m94b7c98212" y="128.92249"/>
      </g>
     </g>
    </g>
    <g id="xtick_14">
     <g id="line2d_18">
      <g>
       <use style="stroke:#000000;stroke-width:0.6;" x="103.041766" xlink:href="#m94b7c98212" y="128.92249"/>
      </g>
     </g>
    </g>
    <g id="xtick_15">
     <g id="line2d_19">
      <g>
       <use style="stroke:#000000;stroke-width:0.6;" x="107.714378" xlink:href="#m94b7c98212" y="128.92249"/>
      </g>
     </g>
    </g>
    <g id="xtick_16">
     <g id="line2d_20">
      <g>
       <use style="stroke:#000000;stroke-width:0.6;" x="111.338737" xlink:href="#m94b7c98212" y="128.92249"/>
      </g>
     </g>
    </g>
    <g id="xtick_17">
     <g id="line2d_21">
      <g>
       <use style="stroke:#000000;stroke-width:0.6;" x="114.300055" xlink:href="#m94b7c98212" y="128.92249"/>
      </g>
     </g>
    </g>
    <g id="xtick_18">
     <g id="line2d_22">
      <g>
       <use style="stroke:#000000;stroke-width:0.6;" x="116.803813" xlink:href="#m94b7c98212" y="128.92249"/>
      </g>
     </g>
    </g>
    <g id="xtick_19">
     <g id="line2d_23">
      <g>
       <use style="stroke:#000000;stroke-width:0.6;" x="118.972667" xlink:href="#m94b7c98212" y="128.92249"/>
      </g>
     </g>
    </g>
    <g id="xtick_20">
     <g id="line2d_24">
      <g>
       <use style="stroke:#000000;stroke-width:0.6;" x="120.885731" xlink:href="#m94b7c98212" y="128.92249"/>
      </g>
     </g>
    </g>
    <g id="xtick_21">
     <g id="line2d_25">
      <g>
       <use style="stroke:#000000;stroke-width:0.6;" x="133.855315" xlink:href="#m94b7c98212" y="128.92249"/>
      </g>
     </g>
    </g>
    <g id="xtick_22">
     <g id="line2d_26">
      <g>
       <use style="stroke:#000000;stroke-width:0.6;" x="140.440991" xlink:href="#m94b7c98212" y="128.92249"/>
      </g>
     </g>
    </g>
    <g id="xtick_23">
     <g id="line2d_27">
      <g>
       <use style="stroke:#000000;stroke-width:0.6;" x="145.113603" xlink:href="#m94b7c98212" y="128.92249"/>
      </g>
     </g>
    </g>
    <g id="xtick_24">
     <g id="line2d_28">
      <g>
       <use style="stroke:#000000;stroke-width:0.6;" x="148.737963" xlink:href="#m94b7c98212" y="128.92249"/>
      </g>
     </g>
    </g>
    <g id="xtick_25">
     <g id="line2d_29">
      <g>
       <use style="stroke:#000000;stroke-width:0.6;" x="151.69928" xlink:href="#m94b7c98212" y="128.92249"/>
      </g>
     </g>
    </g>
    <g id="xtick_26">
     <g id="line2d_30">
      <g>
       <use style="stroke:#000000;stroke-width:0.6;" x="154.203038" xlink:href="#m94b7c98212" y="128.92249"/>
      </g>
     </g>
    </g>
    <g id="xtick_27">
     <g id="line2d_31">
      <g>
       <use style="stroke:#000000;stroke-width:0.6;" x="156.371892" xlink:href="#m94b7c98212" y="128.92249"/>
      </g>
     </g>
    </g>
    <g id="xtick_28">
     <g id="line2d_32">
      <g>
       <use style="stroke:#000000;stroke-width:0.6;" x="158.284957" xlink:href="#m94b7c98212" y="128.92249"/>
      </g>
     </g>
    </g>
    <g id="xtick_29">
     <g id="line2d_33">
      <g>
       <use style="stroke:#000000;stroke-width:0.6;" x="171.25454" xlink:href="#m94b7c98212" y="128.92249"/>
      </g>
     </g>
    </g>
    <g id="xtick_30">
     <g id="line2d_34">
      <g>
       <use style="stroke:#000000;stroke-width:0.6;" x="177.840217" xlink:href="#m94b7c98212" y="128.92249"/>
      </g>
     </g>
    </g>
    <g id="xtick_31">
     <g id="line2d_35">
      <g>
       <use style="stroke:#000000;stroke-width:0.6;" x="182.512829" xlink:href="#m94b7c98212" y="128.92249"/>
      </g>
     </g>
    </g>
    <g id="xtick_32">
     <g id="line2d_36">
      <g>
       <use style="stroke:#000000;stroke-width:0.6;" x="186.137188" xlink:href="#m94b7c98212" y="128.92249"/>
      </g>
     </g>
    </g>
    <g id="xtick_33">
     <g id="line2d_37">
      <g>
       <use style="stroke:#000000;stroke-width:0.6;" x="189.098506" xlink:href="#m94b7c98212" y="128.92249"/>
      </g>
     </g>
    </g>
    <g id="xtick_34">
     <g id="line2d_38">
      <g>
       <use style="stroke:#000000;stroke-width:0.6;" x="191.602264" xlink:href="#m94b7c98212" y="128.92249"/>
      </g>
     </g>
    </g>
    <g id="xtick_35">
     <g id="line2d_39">
      <g>
       <use style="stroke:#000000;stroke-width:0.6;" x="193.771118" xlink:href="#m94b7c98212" y="128.92249"/>
      </g>
     </g>
    </g>
    <g id="xtick_36">
     <g id="line2d_40">
      <g>
       <use style="stroke:#000000;stroke-width:0.6;" x="195.684182" xlink:href="#m94b7c98212" y="128.92249"/>
      </g>
     </g>
    </g>
    <g id="xtick_37">
     <g id="line2d_41">
      <g>
       <use style="stroke:#000000;stroke-width:0.6;" x="208.653766" xlink:href="#m94b7c98212" y="128.92249"/>
      </g>
     </g>
    </g>
    <g id="xtick_38">
     <g id="line2d_42">
      <g>
       <use style="stroke:#000000;stroke-width:0.6;" x="215.239443" xlink:href="#m94b7c98212" y="128.92249"/>
      </g>
     </g>
    </g>
    <g id="text_5">
     <!-- f (Hz) -->
     <defs>
      <path d="M 37.109375 75.984375 
L 37.109375 68.5 
L 28.515625 68.5 
Q 23.6875 68.5 21.796875 66.546875 
Q 19.921875 64.59375 19.921875 59.515625 
L 19.921875 54.6875 
L 34.71875 54.6875 
L 34.71875 47.703125 
L 19.921875 47.703125 
L 19.921875 0 
L 10.890625 0 
L 10.890625 47.703125 
L 2.296875 47.703125 
L 2.296875 54.6875 
L 10.890625 54.6875 
L 10.890625 58.5 
Q 10.890625 67.625 15.140625 71.796875 
Q 19.390625 75.984375 28.609375 75.984375 
z
" id="DejaVuSans-102"/>
      <path id="DejaVuSans-32"/>
      <path d="M 31 75.875 
Q 24.46875 64.65625 21.28125 53.65625 
Q 18.109375 42.671875 18.109375 31.390625 
Q 18.109375 20.125 21.3125 9.0625 
Q 24.515625 -2 31 -13.1875 
L 23.1875 -13.1875 
Q 15.875 -1.703125 12.234375 9.375 
Q 8.59375 20.453125 8.59375 31.390625 
Q 8.59375 42.28125 12.203125 53.3125 
Q 15.828125 64.359375 23.1875 75.875 
z
" id="DejaVuSans-40"/>
      <path d="M 9.8125 72.90625 
L 19.671875 72.90625 
L 19.671875 43.015625 
L 55.515625 43.015625 
L 55.515625 72.90625 
L 65.375 72.90625 
L 65.375 0 
L 55.515625 0 
L 55.515625 34.71875 
L 19.671875 34.71875 
L 19.671875 0 
L 9.8125 0 
z
" id="DejaVuSans-72"/>
      <path d="M 5.515625 54.6875 
L 48.1875 54.6875 
L 48.1875 46.484375 
L 14.40625 7.171875 
L 48.1875 7.171875 
L 48.1875 0 
L 4.296875 0 
L 4.296875 8.203125 
L 38.09375 47.515625 
L 5.515625 47.515625 
z
" id="DejaVuSans-122"/>
      <path d="M 8.015625 75.875 
L 15.828125 75.875 
Q 23.140625 64.359375 26.78125 53.3125 
Q 30.421875 42.28125 30.421875 31.390625 
Q 30.421875 20.453125 26.78125 9.375 
Q 23.140625 -1.703125 15.828125 -13.1875 
L 8.015625 -13.1875 
Q 14.5 -2 17.703125 9.0625 
Q 20.90625 20.125 20.90625 31.390625 
Q 20.90625 42.671875 17.703125 53.65625 
Q 14.5 64.65625 8.015625 75.875 
z
" id="DejaVuSans-41"/>
     </defs>
     <g transform="translate(121.839733 157.199053)scale(0.1 -0.1)">
      <use xlink:href="#DejaVuSans-102"/>
      <use x="35.205078" xlink:href="#DejaVuSans-32"/>
      <use x="66.992188" xlink:href="#DejaVuSans-40"/>
      <use x="106.005859" xlink:href="#DejaVuSans-72"/>
      <use x="181.201172" xlink:href="#DejaVuSans-122"/>
      <use x="233.691406" xlink:href="#DejaVuSans-41"/>
     </g>
    </g>
   </g>
   <g id="matplotlib.axis_2">
    <g id="ytick_1">
     <g id="line2d_43">
      <path clip-path="url(#p49a47e1871)" d="M 54.978125 105.134138 
L 215.971654 105.134138 
" style="fill:none;stroke:#b0b0b0;stroke-linecap:square;stroke-width:0.8;"/>
     </g>
     <g id="line2d_44">
      <defs>
       <path d="M 0 0 
L -3.5 0 
" id="m97e7f8b0d5" style="stroke:#000000;stroke-width:0.8;"/>
      </defs>
      <g>
       <use style="stroke:#000000;stroke-width:0.8;" x="54.978125" xlink:href="#m97e7f8b0d5" y="105.134138"/>
      </g>
     </g>
     <g id="text_6">
      <!-- $\mathdefault{10^{-3}}$ -->
      <g transform="translate(24.478125 108.933356)scale(0.1 -0.1)">
       <use transform="translate(0 0.765625)" xlink:href="#DejaVuSans-49"/>
       <use transform="translate(63.623047 0.765625)" xlink:href="#DejaVuSans-48"/>
       <use transform="translate(128.203125 39.046875)scale(0.7)" xlink:href="#DejaVuSans-8722"/>
       <use transform="translate(186.855469 39.046875)scale(0.7)" xlink:href="#DejaVuSans-51"/>
      </g>
     </g>
    </g>
    <g id="ytick_2">
     <g id="line2d_45">
      <path clip-path="url(#p49a47e1871)" d="M 54.978125 77.346899 
L 215.971654 77.346899 
" style="fill:none;stroke:#b0b0b0;stroke-linecap:square;stroke-width:0.8;"/>
     </g>
     <g id="line2d_46">
      <g>
       <use style="stroke:#000000;stroke-width:0.8;" x="54.978125" xlink:href="#m97e7f8b0d5" y="77.346899"/>
      </g>
     </g>
     <g id="text_7">
      <!-- $\mathdefault{10^{-1}}$ -->
      <g transform="translate(24.478125 81.146117)scale(0.1 -0.1)">
       <use transform="translate(0 0.684375)" xlink:href="#DejaVuSans-49"/>
       <use transform="translate(63.623047 0.684375)" xlink:href="#DejaVuSans-48"/>
       <use transform="translate(128.203125 38.965625)scale(0.7)" xlink:href="#DejaVuSans-8722"/>
       <use transform="translate(186.855469 38.965625)scale(0.7)" xlink:href="#DejaVuSans-49"/>
      </g>
     </g>
    </g>
    <g id="ytick_3">
     <g id="line2d_47">
      <path clip-path="url(#p49a47e1871)" d="M 54.978125 49.55966 
L 215.971654 49.55966 
" style="fill:none;stroke:#b0b0b0;stroke-linecap:square;stroke-width:0.8;"/>
     </g>
     <g id="line2d_48">
      <g>
       <use style="stroke:#000000;stroke-width:0.8;" x="54.978125" xlink:href="#m97e7f8b0d5" y="49.55966"/>
      </g>
     </g>
     <g id="text_8">
      <!-- $\mathdefault{10^{1}}$ -->
      <g transform="translate(30.378125 53.358878)scale(0.1 -0.1)">
       <use transform="translate(0 0.684375)" xlink:href="#DejaVuSans-49"/>
       <use transform="translate(63.623047 0.684375)" xlink:href="#DejaVuSans-48"/>
       <use transform="translate(128.203125 38.965625)scale(0.7)" xlink:href="#DejaVuSans-49"/>
      </g>
     </g>
    </g>
    <g id="ytick_4">
     <g id="line2d_49">
      <path clip-path="url(#p49a47e1871)" d="M 54.978125 21.772421 
L 215.971654 21.772421 
" style="fill:none;stroke:#b0b0b0;stroke-linecap:square;stroke-width:0.8;"/>
     </g>
     <g id="line2d_50">
      <g>
       <use style="stroke:#000000;stroke-width:0.8;" x="54.978125" xlink:href="#m97e7f8b0d5" y="21.772421"/>
      </g>
     </g>
     <g id="text_9">
      <!-- $\mathdefault{10^{3}}$ -->
      <g transform="translate(30.378125 25.571639)scale(0.1 -0.1)">
       <use transform="translate(0 0.765625)" xlink:href="#DejaVuSans-49"/>
       <use transform="translate(63.623047 0.765625)" xlink:href="#DejaVuSans-48"/>
       <use transform="translate(128.203125 39.046875)scale(0.7)" xlink:href="#DejaVuSans-51"/>
      </g>
     </g>
    </g>
    <g id="text_10">
     <!-- S(f) (m^2/s) -->
     <defs>
      <path d="M 53.515625 70.515625 
L 53.515625 60.890625 
Q 47.90625 63.578125 42.921875 64.890625 
Q 37.9375 66.21875 33.296875 66.21875 
Q 25.25 66.21875 20.875 63.09375 
Q 16.5 59.96875 16.5 54.203125 
Q 16.5 49.359375 19.40625 46.890625 
Q 22.3125 44.4375 30.421875 42.921875 
L 36.375 41.703125 
Q 47.40625 39.59375 52.65625 34.296875 
Q 57.90625 29 57.90625 20.125 
Q 57.90625 9.515625 50.796875 4.046875 
Q 43.703125 -1.421875 29.984375 -1.421875 
Q 24.8125 -1.421875 18.96875 -0.25 
Q 13.140625 0.921875 6.890625 3.21875 
L 6.890625 13.375 
Q 12.890625 10.015625 18.65625 8.296875 
Q 24.421875 6.59375 29.984375 6.59375 
Q 38.421875 6.59375 43.015625 9.90625 
Q 47.609375 13.234375 47.609375 19.390625 
Q 47.609375 24.75 44.3125 27.78125 
Q 41.015625 30.8125 33.5 32.328125 
L 27.484375 33.5 
Q 16.453125 35.6875 11.515625 40.375 
Q 6.59375 45.0625 6.59375 53.421875 
Q 6.59375 63.09375 13.40625 68.65625 
Q 20.21875 74.21875 32.171875 74.21875 
Q 37.3125 74.21875 42.625 73.28125 
Q 47.953125 72.359375 53.515625 70.515625 
z
" id="DejaVuSans-83"/>
      <path d="M 52 44.1875 
Q 55.375 50.25 60.0625 53.125 
Q 64.75 56 71.09375 56 
Q 79.640625 56 84.28125 50.015625 
Q 88.921875 44.046875 88.921875 33.015625 
L 88.921875 0 
L 79.890625 0 
L 79.890625 32.71875 
Q 79.890625 40.578125 77.09375 44.375 
Q 74.3125 48.1875 68.609375 48.1875 
Q 61.625 48.1875 57.5625 43.546875 
Q 53.515625 38.921875 53.515625 30.90625 
L 53.515625 0 
L 44.484375 0 
L 44.484375 32.71875 
Q 44.484375 40.625 41.703125 44.40625 
Q 38.921875 48.1875 33.109375 48.1875 
Q 26.21875 48.1875 22.15625 43.53125 
Q 18.109375 38.875 18.109375 30.90625 
L 18.109375 0 
L 9.078125 0 
L 9.078125 54.6875 
L 18.109375 54.6875 
L 18.109375 46.1875 
Q 21.1875 51.21875 25.484375 53.609375 
Q 29.78125 56 35.6875 56 
Q 41.65625 56 45.828125 52.96875 
Q 50 49.953125 52 44.1875 
z
" id="DejaVuSans-109"/>
      <path d="M 46.6875 72.90625 
L 73.1875 45.703125 
L 63.375 45.703125 
L 41.890625 64.984375 
L 20.40625 45.703125 
L 10.59375 45.703125 
L 37.109375 72.90625 
z
" id="DejaVuSans-94"/>
      <path d="M 25.390625 72.90625 
L 33.6875 72.90625 
L 8.296875 -9.28125 
L 0 -9.28125 
z
" id="DejaVuSans-47"/>
      <path d="M 44.28125 53.078125 
L 44.28125 44.578125 
Q 40.484375 46.53125 36.375 47.5 
Q 32.28125 48.484375 27.875 48.484375 
Q 21.1875 48.484375 17.84375 46.4375 
Q 14.5 44.390625 14.5 40.28125 
Q 14.5 37.15625 16.890625 35.375 
Q 19.28125 33.59375 26.515625 31.984375 
L 29.59375 31.296875 
Q 39.15625 29.25 43.1875 25.515625 
Q 47.21875 21.78125 47.21875 15.09375 
Q 47.21875 7.46875 41.1875 3.015625 
Q 35.15625 -1.421875 24.609375 -1.421875 
Q 20.21875 -1.421875 15.453125 -0.5625 
Q 10.6875 0.296875 5.421875 2 
L 5.421875 11.28125 
Q 10.40625 8.6875 15.234375 7.390625 
Q 20.0625 6.109375 24.8125 6.109375 
Q 31.15625 6.109375 34.5625 8.28125 
Q 37.984375 10.453125 37.984375 14.40625 
Q 37.984375 18.0625 35.515625 20.015625 
Q 33.0625 21.96875 24.703125 23.78125 
L 21.578125 24.515625 
Q 13.234375 26.265625 9.515625 29.90625 
Q 5.8125 33.546875 5.8125 39.890625 
Q 5.8125 47.609375 11.28125 51.796875 
Q 16.75 56 26.8125 56 
Q 31.78125 56 36.171875 55.265625 
Q 40.578125 54.546875 44.28125 53.078125 
z
" id="DejaVuSans-115"/>
     </defs>
     <g transform="translate(18.398437 100.718276)rotate(-90)scale(0.1 -0.1)">
      <use xlink:href="#DejaVuSans-83"/>
      <use x="63.476562" xlink:href="#DejaVuSans-40"/>
      <use x="102.490234" xlink:href="#DejaVuSans-102"/>
      <use x="137.695312" xlink:href="#DejaVuSans-41"/>
      <use x="176.708984" xlink:href="#DejaVuSans-32"/>
      <use x="208.496094" xlink:href="#DejaVuSans-40"/>
      <use x="247.509766" xlink:href="#DejaVuSans-109"/>
      <use x="344.921875" xlink:href="#DejaVuSans-94"/>
      <use x="428.710938" xlink:href="#DejaVuSans-50"/>
      <use x="492.333984" xlink:href="#DejaVuSans-47"/>
      <use x="526.025391" xlink:href="#DejaVuSans-115"/>
      <use x="578.125" xlink:href="#DejaVuSans-41"/>
     </g>
    </g>
   </g>
   <g id="line2d_51">
    <path clip-path="url(#p49a47e1871)" d="M 62.296013 35.567218 
L 73.554301 43.685275 
L 80.139978 47.21448 
L 84.81259 27.037085 
L 88.43695 22.340681 
L 91.398267 19.954839 
L 93.902025 20.936296 
L 96.070879 28.15374 
L 97.983944 16.169204 
L 99.695238 16.419435 
L 101.243293 22.265123 
L 102.656556 28.94193 
L 103.956631 21.595735 
L 105.160314 30.97903 
L 106.280915 42.511013 
L 107.329167 38.021298 
L 108.313849 30.142767 
L 110.120407 40.842055 
L 110.953527 27.179444 
L 111.74599 24.793484 
L 112.501581 18.326674 
L 113.223579 19.579274 
L 113.914844 18.178732 
L 114.577886 16.57627 
L 115.21492 19.553999 
L 115.827909 23.24449 
L 116.418602 22.909862 
L 116.988565 41.759934 
L 117.539204 25.499498 
L 118.071785 19.502197 
L 118.587456 22.928511 
L 119.087258 28.566351 
L 119.572138 19.114864 
L 120.042962 24.362808 
L 120.500521 60.373082 
L 120.945543 34.214657 
L 121.378696 22.314511 
L 121.800597 24.993743 
L 122.211816 25.826423 
L 122.61288 38.709413 
L 123.004279 25.694899 
L 123.386468 21.510392 
L 123.75987 25.818507 
L 124.12488 33.954184 
L 124.481868 26.606886 
L 124.831178 33.42461 
L 125.173133 35.392819 
L 125.508037 43.926028 
L 125.836175 29.780804 
L 126.157815 30.149907 
L 126.473209 26.506507 
L 126.782595 45.140048 
L 127.384229 33.992524 
L 127.676891 23.308177 
L 127.964372 25.132511 
L 128.246854 28.019402 
L 128.524506 34.972441 
L 128.797492 51.098156 
L 129.330074 23.849053 
L 129.589956 28.238355 
L 129.845745 52.67947 
L 130.097568 30.922929 
L 130.345547 26.657112 
L 130.830427 28.011017 
L 131.30125 32.95995 
L 131.531641 25.112902 
L 131.75881 25.152788 
L 131.982845 28.730284 
L 132.203831 37.571444 
L 132.421852 32.021409 
L 132.636984 31.527222 
L 132.849305 33.387191 
L 133.058885 33.462213 
L 133.265796 32.534395 
L 133.470104 38.765224 
L 133.671874 36.136241 
L 133.871169 28.297251 
L 134.068047 32.204593 
L 134.262568 41.144306 
L 134.454786 29.846866 
L 134.644757 29.274995 
L 134.832531 26.946695 
L 135.018159 27.318693 
L 135.201689 28.794461 
L 135.383169 28.902493 
L 135.562644 28.537799 
L 135.740157 27.38353 
L 135.91575 27.672099 
L 136.261344 36.77372 
L 136.431422 28.520316 
L 136.599737 30.355694 
L 136.766326 34.864391 
L 136.931223 33.432412 
L 137.25608 28.489069 
L 137.416104 30.473286 
L 137.574566 36.114882 
L 137.731497 33.465474 
L 137.886927 36.016305 
L 138.040884 64.624507 
L 138.344486 33.093833 
L 138.494186 32.054501 
L 138.642518 29.132296 
L 138.789508 32.306967 
L 138.93518 38.277171 
L 139.079556 30.01171 
L 139.222661 29.426079 
L 139.364516 29.423099 
L 139.782795 33.347786 
L 140.055781 44.483151 
L 140.324255 30.89515 
L 140.456845 35.853578 
L 140.718823 36.736426 
L 140.848244 32.959477 
L 140.976643 34.837041 
L 141.104034 31.628936 
L 141.230433 31.587394 
L 141.355857 33.713681 
L 141.480319 40.297479 
L 141.603835 35.471099 
L 141.726419 42.367675 
L 141.848085 40.80144 
L 141.968846 67.941534 
L 142.207707 53.137178 
L 142.325833 49.606965 
L 142.559539 31.313909 
L 142.78993 43.471711 
L 142.903911 36.517793 
L 143.017098 58.576715 
L 143.241133 34.964456 
L 143.352003 44.634694 
L 143.46212 36.971719 
L 143.571496 40.089283 
L 143.680141 39.721005 
L 143.895273 34.541937 
L 144.00178 32.32208 
L 144.107594 33.469985 
L 144.317174 51.798983 
L 144.62656 35.314373 
L 144.728393 36.745619 
L 144.829591 36.452337 
L 144.930163 41.716191 
L 145.030116 53.587611 
L 145.228195 43.321052 
L 145.326336 42.430865 
L 145.520856 34.177926 
L 145.61725 34.327164 
L 145.713075 33.958736 
L 145.997204 45.424001 
L 146.090819 37.644974 
L 146.183899 38.093361 
L 146.276447 41.828058 
L 146.368472 37.186654 
L 146.459978 37.679185 
L 146.641458 42.935556 
L 146.731443 39.000486 
L 146.820932 50.510698 
L 146.909931 37.651142 
L 146.998445 38.367951 
L 147.08648 42.180421 
L 147.261129 62.988806 
L 147.433921 39.417686 
L 147.68971 51.954662 
L 147.774086 44.058187 
L 147.858026 45.266628 
L 147.941534 42.836268 
L 148.024615 43.478654 
L 148.107273 51.125847 
L 148.271337 39.182405 
L 148.352752 42.294614 
L 148.433762 36.181725 
L 148.594577 49.208926 
L 148.674392 48.6948 
L 148.753817 46.090162 
L 148.832855 39.508987 
L 148.989786 48.092279 
L 149.067687 42.281295 
L 149.145216 56.636591 
L 149.299172 35.698815 
L 149.451683 43.381636 
L 149.527405 39.558379 
L 149.602775 40.261765 
L 149.677797 59.562319 
L 149.82681 41.342168 
L 149.974468 40.592421 
L 150.120796 36.015628 
L 150.193468 37.876601 
L 150.265817 43.909702 
L 150.409555 37.975276 
L 150.48095 43.574691 
L 150.552032 41.098323 
L 150.622805 41.532405 
L 150.69327 49.83358 
L 150.763431 38.341318 
L 150.833291 39.166688 
L 151.041084 54.655199 
L 151.246252 41.216882 
L 151.31407 43.647396 
L 151.448861 37.452001 
L 151.582543 38.623247 
L 151.846651 50.294791 
L 151.912013 41.602565 
L 151.977112 45.740634 
L 152.041951 41.928776 
L 152.170859 57.411331 
L 152.362322 42.567822 
L 152.425645 52.497717 
L 152.488722 39.976596 
L 152.551555 43.302451 
L 152.614146 70.117153 
L 152.676496 57.340359 
L 152.738608 68.864581 
L 152.862124 44.610625 
L 152.923532 45.920621 
L 153.106374 38.058104 
L 153.166866 37.695139 
L 153.28718 47.297568 
L 153.347004 38.512589 
L 153.406609 39.593594 
L 153.465996 40.731798 
L 153.584122 59.613301 
L 153.642864 56.418555 
L 153.817828 38.581127 
L 153.933432 41.885119 
L 153.990927 40.209839 
L 154.048219 41.430507 
L 154.105309 50.283874 
L 154.1622 44.997004 
L 154.218892 43.945688 
L 154.275387 66.781525 
L 154.331686 46.104906 
L 154.387791 45.489959 
L 154.443702 46.492195 
L 154.499422 40.478806 
L 154.554951 41.167714 
L 154.610291 40.717128 
L 154.720409 56.848475 
L 154.775189 46.475436 
L 154.829785 54.958843 
L 154.884198 78.823007 
L 154.938429 66.480516 
L 155.100045 42.029545 
L 155.153562 42.559217 
L 155.260069 65.759282 
L 155.313062 54.128841 
L 155.365882 41.766625 
L 155.471011 42.124303 
L 155.523321 44.566914 
L 155.575463 60.534547 
L 155.627438 51.812191 
L 155.679248 40.337517 
L 155.730893 41.903836 
L 155.782374 54.316062 
L 155.833692 52.743459 
L 155.986682 44.260734 
L 156.03736 57.688528 
L 156.08788 51.153044 
L 156.138244 48.690196 
L 156.188452 53.640755 
L 156.238505 51.493723 
L 156.288405 50.761343 
L 156.338151 52.915921 
L 156.387746 44.766174 
L 156.486484 46.622057 
L 156.535628 42.000221 
L 156.584625 42.085578 
L 156.633474 45.102639 
L 156.682176 59.730852 
L 156.730733 51.832852 
L 156.779145 44.855805 
L 156.827413 60.653888 
L 156.875539 44.600917 
L 156.923522 45.726192 
L 156.971364 51.241504 
L 157.019065 46.71179 
L 157.066627 42.697184 
L 157.114049 43.21776 
L 157.161334 44.240421 
L 157.208481 43.205612 
L 157.255492 42.880105 
L 157.302368 44.897083 
L 157.349108 44.544031 
L 157.488528 41.348626 
L 157.534736 46.496208 
L 157.626761 66.465768 
L 157.718267 45.702931 
L 157.763827 48.496139 
L 157.854566 42.946792 
L 157.899746 44.529466 
L 157.944801 44.609289 
L 158.034538 51.155822 
L 158.079221 41.237643 
L 158.16822 43.727343 
L 158.212537 42.192037 
L 158.256734 43.514712 
L 158.344768 54.384111 
L 158.388607 41.961942 
L 158.432328 44.525742 
L 158.562789 55.85321 
L 158.606044 45.108519 
L 158.69221 45.29438 
L 158.735122 56.35235 
L 158.777921 44.303025 
L 158.820608 41.539181 
L 158.905646 43.024917 
L 158.990242 58.064379 
L 159.032375 50.396189 
L 159.074399 43.074077 
L 159.116314 43.226556 
L 159.158122 48.362048 
L 159.199822 43.094593 
L 159.365561 51.26984 
L 159.406733 51.054173 
L 159.447801 47.792728 
L 159.488765 57.27216 
L 159.529626 45.630028 
L 159.570385 54.648644 
L 159.651596 45.259136 
L 159.69205 49.561896 
L 159.732404 57.888985 
L 159.772657 53.632078 
L 159.812811 47.511156 
L 159.852866 62.493047 
L 159.892823 51.699191 
L 159.932681 43.095528 
L 159.972442 47.214511 
L 160.012105 55.590163 
L 160.051673 42.930482 
L 160.091143 44.953369 
L 160.169799 69.119532 
L 160.248075 63.671002 
L 160.364786 43.09177 
L 160.403505 48.208381 
L 160.442131 56.063727 
L 160.480665 44.654548 
L 160.557461 45.923911 
L 160.671978 53.83427 
L 160.709972 44.903386 
L 160.747877 47.408598 
L 160.785693 54.596757 
L 160.823422 43.17549 
L 160.861064 42.471389 
L 160.898618 45.812937 
L 160.936086 60.167366 
L 161.010763 50.654055 
L 161.085099 43.845141 
L 161.122139 50.430664 
L 161.232757 71.503299 
L 161.195968 47.794397 
L 161.269463 62.731853 
L 161.379085 46.934215 
L 161.415462 55.188591 
L 161.451757 92.599087 
L 161.487972 53.318163 
L 161.524106 44.655672 
L 161.596134 48.352333 
L 161.632028 60.089503 
L 161.667844 50.505942 
L 161.774819 44.062062 
L 161.916364 61.960373 
L 161.951559 56.72027 
L 161.986677 44.165604 
L 162.056687 55.004012 
L 162.16114 43.812084 
L 162.195808 45.852231 
L 162.264925 44.560692 
L 162.333748 54.31797 
L 162.36805 57.005308 
L 162.436439 56.544836 
L 162.538485 44.259642 
L 162.504541 56.871833 
L 162.572358 45.687003 
L 162.639894 50.948007 
L 162.673557 47.171294 
L 162.70715 45.583729 
L 162.740674 46.071054 
L 162.840832 54.420861 
L 162.973423 45.751735 
L 163.10494 53.845304 
L 163.137653 72.958543 
L 163.202884 48.699794 
L 163.267853 69.989322 
L 163.30024 58.662049 
L 163.364822 44.531403 
L 163.397017 49.790908 
L 163.429148 57.95994 
L 163.49322 57.070494 
L 163.55704 46.542641 
L 163.620611 49.784819 
L 163.652303 75.075223 
L 163.715503 53.726414 
L 163.747011 48.524921 
L 163.778458 55.94831 
L 163.841169 49.237035 
L 163.872434 48.471571 
L 163.903639 51.953625 
L 163.965871 46.727481 
L 164.027864 50.160483 
L 164.089622 49.54736 
L 164.120413 55.671437 
L 164.18182 45.475154 
L 164.242997 47.12297 
L 164.273499 51.439596 
L 164.303943 79.849332 
L 164.364662 49.591797 
L 164.394937 61.428152 
L 164.515474 52.000978 
L 164.545469 75.836118 
L 164.605293 51.621715 
L 164.635123 57.287422 
L 164.664898 50.308456 
L 164.694618 52.499813 
L 164.753897 51.290464 
L 164.783455 46.334239 
L 164.842411 52.142696 
L 164.871809 71.562641 
L 164.930445 50.593689 
L 164.959684 63.6099 
L 165.076117 47.626636 
L 165.105095 48.951689 
L 165.134021 62.462383 
L 165.19172 46.324637 
L 165.220493 45.581644 
L 165.249215 45.631225 
L 165.392068 66.653974 
L 165.420489 62.399202 
L 165.477181 46.013515 
L 165.56185 49.222218 
L 165.589975 45.525007 
L 165.674059 47.811181 
L 165.840934 77.103722 
L 165.757711 46.266053 
L 165.86858 65.818601 
L 166.060798 47.630641 
L 166.088074 51.884092 
L 166.115303 59.688226 
L 166.169625 48.862694 
L 166.196718 58.330304 
L 166.277727 46.231933 
L 166.30464 49.888128 
L 166.331509 65.594303 
L 166.411851 51.496101 
L 166.465191 59.456829 
L 166.491796 56.939909 
L 166.518358 50.076913 
L 166.57135 59.385107 
L 166.597782 54.246606 
L 166.650517 58.763903 
L 166.703081 47.099683 
L 166.755475 51.419237 
L 166.85976 72.005276 
L 166.885727 66.645566 
L 166.937536 52.115946 
L 167.014942 59.594957 
L 167.066342 64.452536 
L 167.194134 50.500691 
L 167.24497 73.142769 
L 167.295648 58.834095 
L 167.37137 50.826029 
L 167.346169 68.044399 
L 167.396532 52.056314 
L 167.421656 62.940673 
L 167.496794 52.480261 
L 167.571586 64.019648 
L 167.59644 50.634269 
L 167.621256 52.834823 
L 167.646035 47.710592 
L 167.670775 47.799063 
L 167.695479 47.805952 
L 167.720144 46.746189 
L 167.769363 48.930817 
L 167.818434 66.101208 
L 167.867356 61.999433 
L 167.916132 48.038045 
L 167.964761 67.464561 
L 167.989022 56.232561 
L 168.013246 71.36231 
L 168.061586 48.816192 
L 168.085702 56.84574 
L 168.133827 59.256061 
L 168.181811 48.407459 
L 168.205749 54.458226 
L 168.229652 77.2008 
L 168.301152 49.591548 
L 168.324915 47.520484 
L 168.348644 51.646997 
L 168.372338 63.011965 
L 168.443214 55.656533 
L 168.513781 51.701655 
L 168.607397 62.694441 
L 168.630717 54.271219 
L 168.654003 48.402722 
L 168.700476 50.984931 
L 168.769937 73.266103 
L 168.81608 57.869897 
L 168.839102 54.809385 
L 168.862092 59.21794 
L 168.885049 65.11939 
L 168.930867 50.027059 
L 169.022116 54.279141 
L 169.044848 68.534009 
L 169.112855 52.51192 
L 169.135461 53.378122 
L 169.180578 63.615893 
L 169.225571 55.382497 
L 169.24802 47.807808 
L 169.33751 52.83516 
L 169.359805 52.111034 
L 169.426509 75.608383 
L 169.470826 57.713759 
L 169.515023 50.021048 
L 169.559099 53.563375 
L 169.646896 71.600469 
L 169.668771 55.06764 
L 169.690617 48.512964 
L 169.73422 60.956267 
L 169.777707 50.97841 
L 169.799407 51.23791 
L 169.821077 53.290141 
L 169.864332 48.880896 
L 169.907473 53.073642 
L 169.950499 48.491139 
L 169.993411 58.050601 
L 170.014825 59.578901 
L 170.03621 48.710511 
L 170.078897 77.203193 
L 170.121472 53.586457 
L 170.142717 77.455929 
L 170.185125 49.136355 
L 170.227423 63.754056 
L 170.269611 54.547418 
L 170.290663 91.489026 
L 170.332687 51.869367 
L 170.374603 64.971613 
L 170.39552 64.905184 
L 170.478921 51.78781 
L 170.437274 65.839197 
L 170.499705 53.881859 
L 170.561896 79.696632 
L 170.603225 52.156324 
L 170.70609 49.368933 
L 170.828673 67.309393 
L 170.86933 49.082832 
L 170.950339 53.667 
L 171.010832 49.280782 
L 171.051035 59.159837 
L 171.131145 50.650405 
L 171.151111 59.898969 
L 171.171053 68.072878 
L 171.23073 51.975541 
L 171.250574 59.652686 
L 171.270394 61.527355 
L 171.309961 49.149365 
L 171.388807 50.964114 
L 171.48683 49.044972 
L 171.525874 61.883319 
L 171.603681 65.201098 
L 171.642446 50.293772 
L 171.700419 66.376003 
L 171.777397 60.250542 
L 171.892184 52.40764 
L 171.81575 68.41129 
L 171.911237 52.433653 
L 171.96826 51.031912 
L 172.062858 63.500515 
L 172.100543 69.266809 
L 172.194375 51.204289 
L 172.213076 50.150975 
L 172.250415 54.171445 
L 172.269052 52.579107 
L 172.343387 85.715061 
L 172.398917 62.065694 
L 172.417384 62.844409 
L 172.509409 50.013141 
L 172.491046 62.950539 
L 172.527751 54.457769 
L 172.619154 73.104002 
L 172.564374 51.614547 
L 172.655572 70.301443 
L 172.691908 57.319629 
L 172.782395 50.529746 
L 172.764338 64.164746 
L 172.800432 53.571232 
L 172.87238 72.063624 
L 172.908235 56.924497 
L 172.944011 71.446957 
L 173.015327 59.165961 
L 173.121718 50.479369 
L 173.086332 63.175646 
L 173.139382 54.129697 
L 173.157027 65.591947 
L 173.19226 51.350747 
L 173.244966 58.682822 
L 173.297502 51.327744 
L 173.332431 63.078946 
L 173.367286 53.43051 
L 173.402066 51.54898 
L 173.419428 53.783963 
L 173.505962 63.811597 
L 173.471404 51.461332 
L 173.523213 59.102478 
L 173.609197 50.685437 
L 173.574858 60.667269 
L 173.626339 55.78583 
L 173.660569 52.893465 
L 173.76283 70.269471 
L 173.847557 50.958576 
L 173.881325 54.615525 
L 173.915023 70.917944 
L 173.965439 53.986671 
L 173.982209 63.782542 
L 174.049119 50.947786 
L 174.099121 53.44336 
L 174.198665 76.470321 
L 174.215197 57.189565 
L 174.248209 50.917507 
L 174.281155 62.955693 
L 174.314034 52.350802 
L 174.363229 60.123444 
L 174.412274 52.66268 
L 174.42859 51.423096 
L 174.477439 55.405989 
L 174.493689 61.063927 
L 174.509924 51.486359 
L 174.574698 59.868845 
L 174.655305 52.165882 
L 174.671379 53.65089 
L 174.687437 65.309279 
L 174.719504 51.343872 
L 174.78345 56.855909 
L 174.847146 67.455773 
L 174.815329 51.571655 
L 174.894754 61.299895 
L 174.973792 52.571541 
L 174.958015 62.429679 
L 174.989553 56.244952 
L 175.083803 72.538809 
L 175.099458 58.473253 
L 175.115098 52.117669 
L 175.177508 67.760133 
L 175.208624 54.954611 
L 175.224159 62.110601 
L 175.255186 52.038233 
L 175.301614 54.260619 
L 175.332493 56.338966 
L 175.347911 51.767198 
L 175.409434 83.509369 
L 175.486013 65.817617 
L 175.501285 51.682614 
L 175.531787 90.427808 
L 175.59262 66.800744 
L 175.653225 51.953776 
L 175.713606 59.18186 
L 175.728666 74.611368 
L 175.758744 53.697519 
L 175.818734 55.47319 
L 175.833697 52.469527 
L 175.878503 56.449657 
L 175.938054 69.221618 
L 175.967747 54.086938 
L 175.997386 65.961145 
L 176.071248 52.722045 
L 176.026971 71.830868 
L 176.130097 56.102268 
L 176.144776 51.993913 
L 176.174094 73.960628 
L 176.20336 60.198327 
L 176.217973 75.874988 
L 176.276293 54.905081 
L 176.319897 70.379041 
L 176.39231 52.677844 
L 176.363383 76.33217 
L 176.435604 53.209169 
L 176.450009 52.044536 
L 176.478782 55.922766 
L 176.536175 54.184508 
L 176.579088 58.432647 
L 176.664573 52.645766 
L 176.678777 54.256108 
L 176.777859 53.19889 
L 176.806058 64.523294 
L 176.848264 53.504122 
L 176.918364 55.573643 
L 176.932348 55.440432 
L 176.94632 55.508 
L 177.057664 84.032508 
L 177.071529 78.708508 
L 177.099222 54.320062 
L 177.19578 57.278536 
L 177.305432 80.433961 
L 177.33273 64.185948 
L 177.427914 55.445154 
L 177.359983 75.223435 
L 177.441466 57.137035 
L 177.482055 87.240679 
L 177.522542 56.566434 
L 177.549478 59.953061 
L 177.562929 55.858572 
L 177.616623 70.600989 
L 177.643403 57.440125 
L 177.736788 87.588836 
L 177.710161 57.240009 
L 177.763371 63.531709 
L 177.84286 53.585027 
L 177.856071 59.121392 
L 177.869271 73.86144 
L 177.908806 53.798473 
L 177.974484 70.66027 
L 178.026836 57.728731 
L 178.000681 71.962402 
L 178.052949 64.874616 
L 178.06599 90.576243 
L 178.09204 53.976347 
L 178.156984 54.552141 
L 178.169941 54.197964 
L 178.182888 54.204804 
L 178.311796 75.886522 
L 178.324631 61.94209 
L 178.337455 53.512406 
L 178.363074 62.088763 
L 178.426945 60.655785 
L 178.465147 53.665065 
L 178.541282 81.065152 
L 178.667388 54.421001 
L 178.692492 66.962562 
L 178.780051 64.824215 
L 178.829874 54.95213 
L 178.867142 75.27004 
L 178.904323 56.286108 
L 178.953767 68.208941 
L 179.003061 54.215279 
L 179.027652 67.741602 
L 179.064469 101.603331 
L 179.150051 54.350612 
L 179.235185 81.810812 
L 179.307803 65.427495 
L 179.356036 56.570234 
L 179.343991 72.572061 
L 179.368071 59.702494 
L 179.380098 98.263485 
L 179.404125 56.529638 
L 179.487941 97.773397 
L 179.571327 55.813349 
L 179.606933 66.592529 
L 179.618784 67.017069 
L 179.642461 83.444084 
L 179.689711 55.303792 
L 179.713285 66.703441 
L 179.725059 56.132967 
L 179.783801 89.230439 
L 179.830643 60.775235 
L 179.842332 60.412374 
L 179.854013 56.564399 
L 179.912292 68.826537 
L 179.923922 59.391926 
L 179.993532 56.454755 
L 180.039774 77.774201 
L 180.074369 55.476072 
L 180.154805 71.951505 
L 180.177713 55.242276 
L 180.20059 90.856939 
L 180.223434 67.289588 
L 180.234844 98.892148 
L 180.280404 54.781313 
L 180.325837 60.070558 
L 180.39375 81.604321 
L 180.371144 58.981264 
L 180.416324 62.343819 
L 180.450127 56.528454 
L 180.495088 69.392102 
L 180.506309 67.078319 
L 180.517522 68.423043 
L 180.528728 67.426934 
L 180.62923 55.723611 
L 180.595798 74.206543 
L 180.640359 61.905029 
L 180.684797 94.08858 
L 180.662593 55.473123 
L 180.740175 69.86304 
L 180.784342 54.957934 
L 180.80638 70.53331 
L 180.839382 58.471938 
L 180.916126 56.465334 
L 180.959817 86.245116 
L 181.090191 56.569333 
L 181.198041 70.856008 
L 181.176529 55.209772 
L 181.230258 61.413715 
L 181.273113 56.188063 
L 181.326524 68.007252 
L 181.337185 80.217675 
L 181.390386 58.753524 
L 181.422224 66.530636 
L 181.496269 58.507292 
L 181.464576 78.137875 
L 181.527899 60.923554 
L 181.538429 74.412318 
L 181.569978 57.760973 
L 181.632892 62.860378 
L 181.73721 56.730575 
L 181.726808 70.782492 
L 181.747605 60.503829 
L 181.809836 81.86445 
L 181.851191 69.570135 
L 181.882139 60.057249 
L 181.923311 81.58083 
L 181.954121 62.649744 
L 182.005342 74.161251 
L 182.046204 59.605304 
L 182.066596 68.741794 
L 182.086962 58.406032 
L 182.158044 61.725414 
L 182.248981 88.060743 
L 182.198524 55.367321 
L 182.26912 64.938916 
L 182.279181 65.367063 
L 182.289235 87.602803 
L 182.389434 65.491248 
L 182.498944 56.027811 
L 182.479088 70.248693 
L 182.508863 59.285131 
L 182.607721 58.851895 
L 182.637261 72.729335 
L 182.686376 57.787017 
L 182.764652 66.507212 
L 182.793909 59.371308 
L 182.87167 76.930093 
L 182.910411 59.525736 
L 182.987618 62.942566 
L 182.997243 76.940356 
L 183.074038 56.309853 
L 183.093181 62.818055 
L 183.121852 68.117566 
L 183.169525 78.040534 
L 183.198062 57.666902 
L 183.226549 62.681849 
L 183.245513 64.450876 
L 183.254986 96.942097 
L 183.34 56.399388 
L 183.349418 61.205711 
L 183.424571 57.418762 
L 183.471365 72.895675 
L 183.508704 56.892444 
L 183.583124 59.72668 
L 183.620207 64.327385 
L 183.601676 58.120296 
L 183.638717 61.576734 
L 183.647964 77.368251 
L 183.675673 56.799685 
L 183.749334 66.446094 
L 183.776871 79.540365 
L 183.795203 59.689512 
L 183.859204 78.696861 
L 183.932039 57.823278 
L 183.968335 58.637633 
L 184.004549 71.845174 
L 184.076737 61.047724 
L 184.157567 81.551685 
L 184.103725 56.960652 
L 184.184421 66.600678 
L 184.202299 57.170847 
L 184.255816 72.379133 
L 184.300279 60.212119 
L 184.34462 70.665371 
L 184.397671 58.478428 
L 184.424131 69.395472 
L 184.468136 59.324453 
L 184.503255 73.770316 
L 184.529544 65.26808 
L 184.599441 78.289266 
L 184.59072 63.170751 
L 184.625575 67.873771 
L 184.695061 68.653875 
L 184.746981 57.739228 
L 184.772878 82.243952 
L 184.858908 60.263968 
L 184.867486 57.811783 
L 184.893192 78.733556 
L 184.918858 70.394056 
L 185.029611 90.182962 
L 185.00412 58.793018 
L 185.038099 78.471771 
L 185.164894 57.892877 
L 185.181725 76.657726 
L 185.290706 67.769823 
L 185.324092 58.232554 
L 185.315752 70.361272 
L 185.39896 64.827967 
L 185.407258 64.380592 
L 185.415551 89.600857 
L 185.498251 58.966611 
L 185.514741 67.839481 
L 185.555892 58.096911 
L 185.572323 71.055201 
L 185.621517 70.78988 
L 185.670563 60.914478 
L 185.637882 85.362137 
L 185.735728 66.515953 
L 185.78443 59.419998 
L 185.768212 70.377063 
L 185.808727 63.640578 
L 185.857211 80.582674 
L 185.897505 60.601597 
L 185.921633 76.462414 
L 185.9858 60.641628 
L 186.009797 85.808562 
L 186.025776 64.504559 
L 186.033759 82.705073 
L 186.057686 58.369452 
L 186.129256 58.680117 
L 186.145117 63.366393 
L 186.224194 59.601495 
L 186.255717 82.563879 
L 186.334258 62.440687 
L 186.365568 67.631021 
L 186.466913 75.078416 
L 186.451362 58.85291 
L 186.474682 68.675275 
L 186.49021 59.39459 
L 186.552174 71.697642 
L 186.583068 64.46933 
L 186.63699 81.137401 
L 186.652364 62.415543 
L 186.690735 71.974883 
L 186.729015 58.225238 
L 186.744302 73.536432 
L 186.805306 64.699925 
L 186.835722 77.555536 
L 186.866081 58.530641 
L 186.911514 61.882561 
L 186.941732 58.726722 
L 186.986955 81.198195 
L 186.994479 99.122595 
L 187.077023 59.063913 
L 187.084506 61.174758 
L 187.1517 90.318945 
L 187.129333 60.376933 
L 187.196342 70.784896 
L 187.203771 59.210232 
L 187.292648 79.989219 
L 187.307414 61.142052 
L 187.314791 59.897575 
L 187.322166 65.586968 
L 187.329537 81.698317 
L 187.395727 60.577735 
L 187.432383 71.080028 
L 187.498156 59.254369 
L 187.468957 85.895023 
L 187.54913 60.262652 
L 187.570926 78.387133 
L 187.657822 63.956945 
L 187.701097 60.580448 
L 187.722691 71.368516 
L 187.729882 63.349076 
L 187.801624 82.369821 
L 187.787301 59.781693 
L 187.837376 75.004702 
L 187.958349 59.921445 
L 188.02203 78.558653 
L 187.986683 59.275595 
L 188.064346 60.976943 
L 188.071388 59.246443 
L 188.092496 78.182269 
L 188.134629 61.832523 
L 188.197624 85.628175 
L 188.162657 59.748075 
L 188.253416 74.575993 
L 188.288188 62.164325 
L 188.350592 82.030061 
L 188.364427 64.407217 
L 188.37134 88.249 
L 188.405861 59.487145 
L 188.474685 70.471649 
L 188.529534 59.764332 
L 188.502133 74.414445 
L 188.591019 64.214698 
L 188.652272 92.876149 
L 188.625077 60.904187 
L 188.699754 63.814385 
L 188.706526 63.35043 
L 188.713295 65.623041 
L 188.7606 60.835575 
L 188.834658 87.935876 
L 188.948451 59.780433 
L 188.95512 65.370459 
L 189.02166 86.205747 
L 189.041569 60.158227 
L 189.054828 64.389797 
L 189.061453 59.963897 
L 189.101149 69.058413 
L 189.127559 65.015899 
L 189.134155 90.413512 
L 189.199967 60.052522 
L 189.239326 68.500337 
L 189.245877 60.063884 
L 189.27859 77.82343 
L 189.34382 65.511184 
L 189.441177 106.214239 
L 189.363338 60.435624 
L 189.447647 71.827227 
L 189.454114 61.449867 
L 189.499312 107.08072 
L 189.563664 63.803301 
L 189.582919 80.35384 
L 189.627761 62.569761 
L 189.672479 63.406576 
L 189.697977 60.839693 
L 189.710711 82.445221 
L 189.742503 65.376449 
L 189.780571 88.707713 
L 189.755202 62.147562 
L 189.850131 65.004128 
L 189.931956 100.825571 
L 189.862746 61.481954 
L 189.944508 74.84695 
L 189.95705 60.513635 
L 189.988364 75.660702 
L 190.044576 65.810875 
L 190.05081 92.96568 
L 190.131633 60.870337 
L 190.156421 74.090101 
L 190.26135 62.536702 
L 190.187353 85.718935 
L 190.267501 65.495735 
L 190.341134 84.800549 
L 190.310494 60.875814 
L 190.390038 73.502672 
L 190.432709 61.327604 
L 190.475268 91.49054 
L 190.493473 75.342104 
L 190.566092 90.184343 
L 190.541922 62.15807 
L 190.584196 67.045033 
L 190.656411 61.418656 
L 190.638387 75.130081 
L 190.668415 66.045423 
L 190.74623 112.20566 
L 190.77606 62.457059 
L 190.817729 61.723379 
L 190.894834 82.59478 
L 190.959791 89.175911 
L 191.00687 62.517695 
L 191.053813 84.503175 
L 191.112302 61.201732 
L 191.118139 62.821225 
L 191.217053 84.581333 
L 191.135638 62.338397 
L 191.24024 73.801863 
L 191.36143 61.88214 
L 191.269177 90.747495 
L 191.367179 62.952958 
L 191.413093 88.467836 
L 191.470305 62.35043 
L 191.481723 69.228673 
L 191.533005 77.55345 
L 191.595465 61.846035 
L 191.635087 83.402129 
L 191.623776 61.681452 
L 191.714042 83.365113 
L 191.775811 62.282152 
L 191.826175 66.731953 
L 191.904209 93.425847 
L 191.887519 62.346089 
L 191.937538 71.365602 
L 192.026082 63.484656 
L 191.96526 82.966208 
L 192.042631 67.422061 
L 192.103164 61.967692 
L 192.152525 89.434914 
L 192.179882 61.562291 
L 192.267119 64.164066 
L 192.353889 84.909276 
L 192.283423 62.28196 
L 192.38091 71.599632 
L 192.391706 61.687652 
L 192.483181 79.684895 
L 192.488546 69.081815 
L 192.584813 85.223269 
L 192.56347 61.975005 
L 192.590144 78.715603 
L 192.675211 62.32815 
L 192.653986 83.543834 
L 192.701703 63.397241 
L 192.722865 83.55128 
L 192.775651 62.685209 
L 192.807241 65.229665 
L 192.844018 62.345935 
L 192.823013 99.125722 
L 192.896412 70.612207 
L 192.901642 83.976786 
L 192.927768 62.725648 
L 193.005894 80.8639 
L 193.10948 63.235255 
L 193.068125 91.323657 
L 193.114642 67.318155 
L 193.130118 97.447521 
L 193.181599 63.634465 
L 193.227793 75.908771 
L 193.319789 62.100391 
L 193.304492 91.901263 
L 193.340162 70.383647 
L 193.390982 62.800285 
L 193.360509 88.644362 
L 193.446702 64.162176 
L 193.466916 88.179432 
L 193.497191 63.018471 
L 193.562593 72.189673 
L 193.657709 62.64915 
L 193.59269 113.540329 
L 193.6627 67.643025 
L 193.722469 97.935145 
L 193.682647 63.157659 
L 193.777065 86.565796 
L 193.836415 63.250496 
L 193.900468 63.909459 
L 193.98385 78.784685 
L 193.949568 62.988875 
L 194.013177 65.987828 
L 194.057069 64.939967 
L 194.037576 76.338642 
L 194.086264 67.914204 
L 194.120259 92.096849 
L 194.178371 64.126414 
L 194.192866 64.452378 
L 194.284372 92.809585 
L 194.202523 63.636922 
L 194.303571 64.618211 
L 194.308367 64.510084 
L 194.322747 66.556551 
L 194.423053 96.39775 
L 194.375366 63.01796 
L 194.446844 71.697194 
L 194.451598 63.543395 
L 194.513275 80.424746 
L 194.56056 64.035416 
L 194.57 69.289593 
L 194.659412 86.673075 
L 194.612414 63.927729 
L 194.678173 82.450941 
L 194.687545 65.021079 
L 194.696912 106.863963 
L 194.790285 69.316662 
L 194.859965 65.599484 
L 194.82284 80.853636 
L 194.869233 70.414371 
L 194.90163 91.522857 
L 194.920113 63.87706 
L 194.98464 80.646035 
L 195.039745 64.349316 
L 195.071804 94.808105 
L 195.099232 71.309439 
L 195.108365 63.538186 
L 195.131174 88.37306 
L 195.208486 65.314376 
L 195.271879 86.248375 
L 195.262838 63.86629 
L 195.321515 76.155693 
L 195.38447 64.314945 
L 195.415856 86.442758 
L 195.433764 68.835452 
L 195.496285 74.928086 
L 195.44271 64.046735 
L 195.509652 70.504815 
L 195.554127 65.490092 
L 195.580753 80.001404 
L 195.607337 72.358332 
L 195.65596 89.132769 
L 195.68242 64.747337 
L 195.717634 70.782826 
L 195.783454 97.871072 
L 195.748383 65.718741 
L 195.827187 75.991219 
L 195.840284 97.142378 
L 195.940343 64.180181 
L 196.04841 82.978297 
L 195.983656 63.914072 
L 196.052717 76.514354 
L 196.104321 64.254115 
L 196.065634 84.163304 
L 196.164319 65.034316 
L 196.202772 83.561619 
L 196.296388 72.926529 
L 196.372583 65.246186 
L 196.359909 101.009982 
L 196.406334 66.334419 
L 196.41476 103.439385 
L 196.427392 64.202326 
L 196.532276 79.849611 
L 196.632331 65.8222 
L 196.615698 96.491268 
L 196.644795 70.357572 
L 196.694554 95.807345 
L 196.669694 64.474245 
L 196.752415 65.419612 
L 196.793618 93.922489 
L 196.81007 65.025884 
L 196.867521 67.953174 
L 196.879806 88.212951 
L 196.949244 64.867177 
L 196.981818 69.649116 
L 197.026501 67.183884 
L 197.054872 80.719111 
L 197.058921 75.373807 
L 197.139688 100.813458 
L 197.075106 66.238444 
L 197.167862 82.767182 
L 197.264089 65.732635 
L 197.256092 95.623064 
L 197.280072 70.151089 
L 197.304016 81.643494 
L 197.383577 65.58986 
L 197.391511 74.040581 
L 197.395477 73.861301 
L 197.431127 64.857557 
L 197.470646 104.125894 
L 197.498252 72.878595 
L 197.60038 84.188376 
L 197.553324 65.628056 
L 197.60821 78.477106 
L 197.694086 66.23357 
L 197.627767 84.15325 
L 197.721315 70.136752 
L 197.794994 98.108039 
L 197.818192 65.212496 
L 197.825917 71.87355 
L 197.829778 66.227598 
L 197.906811 115.918809 
L 197.937522 68.725379 
L 197.994949 65.13349 
L 198.00259 87.016153 
L 198.029308 78.21816 
L 198.048365 85.635999 
L 198.082611 65.488378 
L 198.131951 73.587144 
L 198.154673 65.583276 
L 198.192472 82.873835 
L 198.24148 70.325813 
L 198.252768 87.278803 
L 198.32408 65.592617 
L 198.342795 66.74047 
L 198.346535 65.72981 
L 198.365224 81.740926 
L 198.406263 76.968435 
L 198.458346 66.059429 
L 198.513964 100.517344 
L 198.565702 65.971351 
L 198.624631 71.638703 
L 198.712626 99.990435 
L 198.697993 67.043316 
L 198.73455 82.880858 
L 198.81832 65.897473 
L 198.847357 74.442553 
L 198.944973 100.109733 
L 198.930549 67.481262 
L 198.948578 76.217958 
L 198.991766 66.211277 
L 199.013317 90.288901 
L 199.063491 68.332886 
L 199.113512 91.228858 
L 199.077799 66.04201 
L 199.177598 80.389195 
L 199.202452 66.104786 
L 199.234352 92.198695 
L 199.287379 80.529752 
L 199.347268 106.711023 
L 199.336716 66.392977 
L 199.396424 75.251394 
L 199.410441 67.584117 
L 199.483833 96.995738 
L 199.487319 84.613976 
L 199.490805 122.522018 
L 199.584641 66.694598 
L 199.595034 70.553234 
L 199.667598 88.334848 
L 199.60542 66.486133 
L 199.705479 69.813063 
L 199.750134 67.744335 
L 199.743272 79.664296 
L 199.770702 74.099225 
L 199.828839 67.369481 
L 199.883366 109.406589 
L 199.974968 67.370452 
L 199.995253 77.569498 
L 200.005387 67.177441 
L 200.045858 101.48526 
L 200.099662 77.454995 
L 200.186717 110.941631 
L 200.156635 66.952098 
L 200.213409 83.3633 
L 200.266662 67.71919 
L 200.2334 114.981484 
L 200.326365 75.684204 
L 200.382549 67.022215 
L 200.422092 94.327849 
L 200.43854 71.444302 
L 200.491062 88.151001 
L 200.477947 68.117841 
L 200.553211 77.096783 
L 200.615124 67.341561 
L 200.602109 110.314321 
L 200.660593 83.850874 
L 200.760824 67.012889 
L 200.741473 94.469497 
L 200.770491 73.251069 
L 200.773713 101.115714 
L 200.793026 67.678241 
L 200.879651 81.244264 
L 200.918004 67.315468 
L 200.943522 85.763516 
L 200.994438 71.834109 
L 201.079999 87.340288 
L 201.073677 67.337222 
L 201.102108 68.755575 
L 201.105264 67.641185 
L 201.143088 91.308751 
L 201.146236 102.378399 
L 201.180824 67.311619 
L 201.249781 77.087673 
L 201.355777 101.565902 
L 201.346452 68.110633 
L 201.358884 80.561643 
L 201.396122 67.283989 
L 201.423996 90.888432 
L 201.467259 88.295523 
L 201.522714 67.856526 
L 201.565716 91.466816 
L 201.581046 71.646078 
L 201.5933 93.734792 
L 201.62695 67.80775 
L 201.690998 72.658621 
L 201.721408 67.502193 
L 201.70621 103.73715 
L 201.794162 74.129696 
L 201.803234 85.578193 
L 201.857556 67.987775 
L 201.908694 81.31361 
L 202.013473 67.789519 
L 201.983605 100.088294 
L 202.01944 75.8376 
L 202.061148 67.953297 
L 202.081962 89.67455 
L 202.120546 73.584345 
L 202.12351 100.632517 
L 202.203339 68.450781 
L 202.229862 69.944446 
L 202.232807 69.89335 
L 202.271034 111.345343 
L 202.323816 68.705348 
L 202.344297 78.120498 
L 202.455027 68.530488 
L 202.355988 88.667324 
L 202.45793 69.069306 
L 202.472441 98.84255 
L 202.562122 68.151598 
L 202.573658 94.294177 
L 202.657048 68.481361 
L 202.636958 102.539722 
L 202.685704 79.225015 
L 202.705733 103.891597 
L 202.697152 68.445259 
L 202.791294 81.946515 
L 202.865084 68.422957 
L 202.842415 96.845456 
L 202.904678 69.610847 
L 202.955444 93.689417 
L 202.918796 68.981065 
L 203.022886 74.66946 
L 203.02569 74.678122 
L 203.048105 103.805443 
L 203.059301 68.572398 
L 203.1291 76.149596 
L 203.165278 69.636002 
L 203.184725 99.532297 
L 203.237392 74.779676 
L 203.322958 94.244356 
L 203.306432 68.425168 
L 203.344966 69.810765 
L 203.402597 100.824039 
L 203.394377 68.453628 
L 203.462754 81.653693 
L 203.517249 70.043433 
L 203.484574 96.708445 
L 203.574273 73.971913 
L 203.595943 110.964108 
L 203.622991 69.389875 
L 203.687723 93.798713 
L 203.773633 68.975341 
L 203.800387 80.496958 
L 203.853763 69.973469 
L 203.832434 119.671629 
L 203.912274 78.269094 
L 203.999649 87.129639 
L 204.004929 69.27783 
L 204.023397 80.571134 
L 204.094433 69.429696 
L 204.107554 97.551809 
L 204.133763 73.991278 
L 204.217352 92.999548 
L 204.146853 69.265695 
L 204.243386 79.903799 
L 204.284953 70.768341 
L 204.269377 105.623231 
L 204.352273 83.420828 
L 204.452733 69.738962 
L 204.367769 103.680451 
L 204.473263 72.972416 
L 204.491206 100.371271 
L 204.552575 70.222912 
L 204.578077 71.231206 
L 204.580625 69.491017 
L 204.626421 110.288907 
L 204.672088 76.042289 
L 204.715101 110.360559 
L 204.752959 69.934539 
L 204.780665 71.492851 
L 204.840952 106.390761 
L 204.868509 70.075954 
L 204.891021 76.124169 
L 204.960859 110.646825 
L 205.003114 70.019416 
L 205.037831 104.937029 
L 205.052686 69.708125 
L 205.116905 83.445885 
L 205.131688 69.702955 
L 205.173502 88.67745 
L 205.229904 73.196779 
L 205.269024 110.757052 
L 205.234799 70.312759 
L 205.337259 70.556167 
L 205.344553 75.025079 
L 205.346983 112.742282 
L 205.412471 70.59181 
L 205.45357 77.637044 
L 205.455984 77.703518 
L 205.463225 70.322169 
L 205.484928 96.288047 
L 205.56186 81.913244 
L 205.590616 92.746933 
L 205.640816 70.71784 
L 205.671815 78.720508 
L 205.733636 70.226 
L 205.690862 91.120175 
L 205.781032 77.780606 
L 205.804677 113.259024 
L 205.875409 70.466094 
L 205.889518 72.987047 
L 205.894219 79.877501 
L 205.976256 94.006513 
L 205.905964 70.397011 
L 206.004289 80.310477 
L 206.029942 72.185872 
L 206.071834 105.349488 
L 206.104342 80.375998 
L 206.183019 123.553286 
L 206.159918 70.330617 
L 206.213001 88.313013 
L 206.231425 70.263468 
L 206.286569 101.255152 
L 206.323228 78.765125 
L 206.380343 106.951405 
L 206.346098 71.193442 
L 206.437257 87.4713 
L 206.525648 70.774686 
L 206.496238 94.661713 
L 206.548235 83.163521 
L 206.552748 81.313765 
L 206.555005 102.903145 
L 206.647246 71.270643 
L 206.662942 73.662505 
L 206.683101 70.992988 
L 206.70547 96.06528 
L 206.727808 76.169574 
L 206.801308 121.677952 
L 206.745657 70.508928 
L 206.839042 77.948467 
L 206.889955 103.855393 
L 206.934098 72.588371 
L 206.949519 93.021734 
L 206.956124 70.954272 
L 206.964926 95.522604 
L 207.061437 77.585526 
L 207.063624 111.84263 
L 207.116018 71.174144 
L 207.170417 74.413543 
L 207.272195 71.104834 
L 207.215971 94.481048 
L 207.276512 73.561538 
L 207.280828 98.610532 
L 207.287299 71.096852 
L 207.38835 86.581129 
L 207.461061 71.190322 
L 207.482385 99.915068 
L 207.499424 84.695057 
L 207.516445 117.116501 
L 207.567401 71.226577 
L 207.601283 72.194143 
L 207.605513 72.724148 
L 207.668836 100.96798 
L 207.613971 71.896633 
L 207.719317 84.46494 
L 207.788474 71.543958 
L 207.769642 96.137376 
L 207.830244 76.617801 
L 207.927982 109.626535 
L 207.878147 71.421364 
L 207.938346 77.297344 
L 207.940418 72.988667 
L 207.996258 112.705955 
L 208.039557 77.19122 
L 208.041616 110.311043 
L 208.119664 71.466151 
L 208.15037 72.565339 
L 208.15446 98.763243 
L 208.254337 71.490227 
L 208.262463 85.735586 
L 208.290873 72.262364 
L 208.347544 100.802395 
L 208.373789 76.281757 
L 208.404018 119.43602 
L 208.428161 72.149354 
L 208.484356 77.642536 
L 208.486359 77.660643 
L 208.554327 118.574839 
L 208.51038 72.645317 
L 208.596166 74.570639 
L 208.600145 71.99001 
L 208.612076 96.234208 
L 208.651783 94.350472 
" style="fill:none;stroke:#000000;stroke-linecap:square;stroke-width:0.8;"/>
   </g>
   <g id="line2d_52">
    <path clip-path="url(#p49a47e1871)" d="M 62.296013 36.286792 
L 80.139978 29.895711 
L 88.43695 27.269036 
L 93.902025 25.877196 
L 97.983944 25.140103 
L 101.243293 24.807948 
L 103.956631 24.741517 
L 107.329167 24.956667 
L 110.120407 25.395271 
L 113.223579 26.153426 
L 116.418602 27.205666 
L 120.042962 28.68124 
L 124.12488 30.621327 
L 129.065966 33.243791 
L 135.562644 36.965551 
L 145.713075 43.069882 
L 167.891762 56.733209 
L 208.653766 81.966548 
L 208.653766 81.966548 
" style="fill:none;stroke:#ff0000;stroke-linecap:square;stroke-width:2;"/>
   </g>
   <g id="patch_3">
    <path d="M 54.978125 128.92249 
L 54.978125 10.8 
" style="fill:none;stroke:#000000;stroke-linecap:square;stroke-linejoin:miter;stroke-width:0.8;"/>
   </g>
   <g id="patch_4">
    <path d="M 215.971654 128.92249 
L 215.971654 10.8 
" style="fill:none;stroke:#000000;stroke-linecap:square;stroke-linejoin:miter;stroke-width:0.8;"/>
   </g>
   <g id="patch_5">
    <path d="M 54.978125 128.92249 
L 215.971654 128.92249 
" style="fill:none;stroke:#000000;stroke-linecap:square;stroke-linejoin:miter;stroke-width:0.8;"/>
   </g>
   <g id="patch_6">
    <path d="M 54.978125 10.8 
L 215.971654 10.8 
" style="fill:none;stroke:#000000;stroke-linecap:square;stroke-linejoin:miter;stroke-width:0.8;"/>
   </g>
   <g id="legend_1">
    <g id="patch_7">
     <path d="M 61.978125 123.92249 
L 143.371875 123.92249 
Q 145.371875 123.92249 145.371875 121.92249 
L 145.371875 93.56624 
Q 145.371875 91.56624 143.371875 91.56624 
L 61.978125 91.56624 
Q 59.978125 91.56624 59.978125 93.56624 
L 59.978125 121.92249 
Q 59.978125 123.92249 61.978125 123.92249 
z
" style="fill:#ffffff;opacity:0.8;stroke:#cccccc;stroke-linejoin:miter;"/>
    </g>
    <g id="line2d_53">
     <path d="M 63.978125 99.664678 
L 83.978125 99.664678 
" style="fill:none;stroke:#000000;stroke-linecap:square;stroke-width:0.8;"/>
    </g>
    <g id="line2d_54"/>
    <g id="text_11">
     <!-- simulated -->
     <defs>
      <path d="M 9.421875 54.6875 
L 18.40625 54.6875 
L 18.40625 0 
L 9.421875 0 
z
M 9.421875 75.984375 
L 18.40625 75.984375 
L 18.40625 64.59375 
L 9.421875 64.59375 
z
" id="DejaVuSans-105"/>
      <path d="M 8.5 21.578125 
L 8.5 54.6875 
L 17.484375 54.6875 
L 17.484375 21.921875 
Q 17.484375 14.15625 20.5 10.265625 
Q 23.53125 6.390625 29.59375 6.390625 
Q 36.859375 6.390625 41.078125 11.03125 
Q 45.3125 15.671875 45.3125 23.6875 
L 45.3125 54.6875 
L 54.296875 54.6875 
L 54.296875 0 
L 45.3125 0 
L 45.3125 8.40625 
Q 42.046875 3.421875 37.71875 1 
Q 33.40625 -1.421875 27.6875 -1.421875 
Q 18.265625 -1.421875 13.375 4.4375 
Q 8.5 10.296875 8.5 21.578125 
z
M 31.109375 56 
z
" id="DejaVuSans-117"/>
      <path d="M 9.421875 75.984375 
L 18.40625 75.984375 
L 18.40625 0 
L 9.421875 0 
z
" id="DejaVuSans-108"/>
      <path d="M 34.28125 27.484375 
Q 23.390625 27.484375 19.1875 25 
Q 14.984375 22.515625 14.984375 16.5 
Q 14.984375 11.71875 18.140625 8.90625 
Q 21.296875 6.109375 26.703125 6.109375 
Q 34.1875 6.109375 38.703125 11.40625 
Q 43.21875 16.703125 43.21875 25.484375 
L 43.21875 27.484375 
z
M 52.203125 31.203125 
L 52.203125 0 
L 43.21875 0 
L 43.21875 8.296875 
Q 40.140625 3.328125 35.546875 0.953125 
Q 30.953125 -1.421875 24.3125 -1.421875 
Q 15.921875 -1.421875 10.953125 3.296875 
Q 6 8.015625 6 15.921875 
Q 6 25.140625 12.171875 29.828125 
Q 18.359375 34.515625 30.609375 34.515625 
L 43.21875 34.515625 
L 43.21875 35.40625 
Q 43.21875 41.609375 39.140625 45 
Q 35.0625 48.390625 27.6875 48.390625 
Q 23 48.390625 18.546875 47.265625 
Q 14.109375 46.140625 10.015625 43.890625 
L 10.015625 52.203125 
Q 14.9375 54.109375 19.578125 55.046875 
Q 24.21875 56 28.609375 56 
Q 40.484375 56 46.34375 49.84375 
Q 52.203125 43.703125 52.203125 31.203125 
z
" id="DejaVuSans-97"/>
      <path d="M 18.3125 70.21875 
L 18.3125 54.6875 
L 36.8125 54.6875 
L 36.8125 47.703125 
L 18.3125 47.703125 
L 18.3125 18.015625 
Q 18.3125 11.328125 20.140625 9.421875 
Q 21.96875 7.515625 27.59375 7.515625 
L 36.8125 7.515625 
L 36.8125 0 
L 27.59375 0 
Q 17.1875 0 13.234375 3.875 
Q 9.28125 7.765625 9.28125 18.015625 
L 9.28125 47.703125 
L 2.6875 47.703125 
L 2.6875 54.6875 
L 9.28125 54.6875 
L 9.28125 70.21875 
z
" id="DejaVuSans-116"/>
      <path d="M 56.203125 29.59375 
L 56.203125 25.203125 
L 14.890625 25.203125 
Q 15.484375 15.921875 20.484375 11.0625 
Q 25.484375 6.203125 34.421875 6.203125 
Q 39.59375 6.203125 44.453125 7.46875 
Q 49.3125 8.734375 54.109375 11.28125 
L 54.109375 2.78125 
Q 49.265625 0.734375 44.1875 -0.34375 
Q 39.109375 -1.421875 33.890625 -1.421875 
Q 20.796875 -1.421875 13.15625 6.1875 
Q 5.515625 13.8125 5.515625 26.8125 
Q 5.515625 40.234375 12.765625 48.109375 
Q 20.015625 56 32.328125 56 
Q 43.359375 56 49.78125 48.890625 
Q 56.203125 41.796875 56.203125 29.59375 
z
M 47.21875 32.234375 
Q 47.125 39.59375 43.09375 43.984375 
Q 39.0625 48.390625 32.421875 48.390625 
Q 24.90625 48.390625 20.390625 44.140625 
Q 15.875 39.890625 15.1875 32.171875 
z
" id="DejaVuSans-101"/>
      <path d="M 45.40625 46.390625 
L 45.40625 75.984375 
L 54.390625 75.984375 
L 54.390625 0 
L 45.40625 0 
L 45.40625 8.203125 
Q 42.578125 3.328125 38.25 0.953125 
Q 33.9375 -1.421875 27.875 -1.421875 
Q 17.96875 -1.421875 11.734375 6.484375 
Q 5.515625 14.40625 5.515625 27.296875 
Q 5.515625 40.1875 11.734375 48.09375 
Q 17.96875 56 27.875 56 
Q 33.9375 56 38.25 53.625 
Q 42.578125 51.265625 45.40625 46.390625 
z
M 14.796875 27.296875 
Q 14.796875 17.390625 18.875 11.75 
Q 22.953125 6.109375 30.078125 6.109375 
Q 37.203125 6.109375 41.296875 11.75 
Q 45.40625 17.390625 45.40625 27.296875 
Q 45.40625 37.203125 41.296875 42.84375 
Q 37.203125 48.484375 30.078125 48.484375 
Q 22.953125 48.484375 18.875 42.84375 
Q 14.796875 37.203125 14.796875 27.296875 
z
" id="DejaVuSans-100"/>
     </defs>
     <g transform="translate(91.978125 103.164678)scale(0.1 -0.1)">
      <use xlink:href="#DejaVuSans-115"/>
      <use x="52.099609" xlink:href="#DejaVuSans-105"/>
      <use x="79.882812" xlink:href="#DejaVuSans-109"/>
      <use x="177.294922" xlink:href="#DejaVuSans-117"/>
      <use x="240.673828" xlink:href="#DejaVuSans-108"/>
      <use x="268.457031" xlink:href="#DejaVuSans-97"/>
      <use x="329.736328" xlink:href="#DejaVuSans-116"/>
      <use x="368.945312" xlink:href="#DejaVuSans-101"/>
      <use x="430.46875" xlink:href="#DejaVuSans-100"/>
     </g>
    </g>
    <g id="line2d_55">
     <path d="M 63.978125 114.342803 
L 83.978125 114.342803 
" style="fill:none;stroke:#ff0000;stroke-linecap:square;stroke-width:2;"/>
    </g>
    <g id="line2d_56"/>
    <g id="text_12">
     <!-- target -->
     <defs>
      <path d="M 41.109375 46.296875 
Q 39.59375 47.171875 37.8125 47.578125 
Q 36.03125 48 33.890625 48 
Q 26.265625 48 22.1875 43.046875 
Q 18.109375 38.09375 18.109375 28.8125 
L 18.109375 0 
L 9.078125 0 
L 9.078125 54.6875 
L 18.109375 54.6875 
L 18.109375 46.1875 
Q 20.953125 51.171875 25.484375 53.578125 
Q 30.03125 56 36.53125 56 
Q 37.453125 56 38.578125 55.875 
Q 39.703125 55.765625 41.0625 55.515625 
z
" id="DejaVuSans-114"/>
      <path d="M 45.40625 27.984375 
Q 45.40625 37.75 41.375 43.109375 
Q 37.359375 48.484375 30.078125 48.484375 
Q 22.859375 48.484375 18.828125 43.109375 
Q 14.796875 37.75 14.796875 27.984375 
Q 14.796875 18.265625 18.828125 12.890625 
Q 22.859375 7.515625 30.078125 7.515625 
Q 37.359375 7.515625 41.375 12.890625 
Q 45.40625 18.265625 45.40625 27.984375 
z
M 54.390625 6.78125 
Q 54.390625 -7.171875 48.1875 -13.984375 
Q 42 -20.796875 29.203125 -20.796875 
Q 24.46875 -20.796875 20.265625 -20.09375 
Q 16.0625 -19.390625 12.109375 -17.921875 
L 12.109375 -9.1875 
Q 16.0625 -11.328125 19.921875 -12.34375 
Q 23.78125 -13.375 27.78125 -13.375 
Q 36.625 -13.375 41.015625 -8.765625 
Q 45.40625 -4.15625 45.40625 5.171875 
L 45.40625 9.625 
Q 42.625 4.78125 38.28125 2.390625 
Q 33.9375 0 27.875 0 
Q 17.828125 0 11.671875 7.65625 
Q 5.515625 15.328125 5.515625 27.984375 
Q 5.515625 40.671875 11.671875 48.328125 
Q 17.828125 56 27.875 56 
Q 33.9375 56 38.28125 53.609375 
Q 42.625 51.21875 45.40625 46.390625 
L 45.40625 54.6875 
L 54.390625 54.6875 
z
" id="DejaVuSans-103"/>
     </defs>
     <g transform="translate(91.978125 117.842803)scale(0.1 -0.1)">
      <use xlink:href="#DejaVuSans-116"/>
      <use x="39.208984" xlink:href="#DejaVuSans-97"/>
      <use x="100.488281" xlink:href="#DejaVuSans-114"/>
      <use x="141.585938" xlink:href="#DejaVuSans-103"/>
      <use x="205.0625" xlink:href="#DejaVuSans-101"/>
      <use x="266.585938" xlink:href="#DejaVuSans-116"/>
     </g>
    </g>
   </g>
  </g>
 </g>
 <defs>
  <clipPath id="p49a47e1871">
   <rect height="118.12249" width="160.993529" x="54.978125" y="10.8"/>
  </clipPath>
 </defs>
</svg>
