<?xml version="1.0" encoding="utf-8" standalone="no"?>
<!DOCTYPE svg PUBLIC "-//W3C//DTD SVG 1.1//EN"
  "http://www.w3.org/Graphics/SVG/1.1/DTD/svg11.dtd">
<!-- Created with matplotlib (https://matplotlib.org/) -->
<svg height="170.07874pt" version="1.1" viewBox="0 0 226.771654 170.07874" width="226.771654pt" xmlns="http://www.w3.org/2000/svg" xmlns:xlink="http://www.w3.org/1999/xlink">
 <defs>
  <style type="text/css">
*{stroke-linecap:butt;stroke-linejoin:round;}
  </style>
 </defs>
 <g id="figure_1">
  <g id="patch_1">
   <path d="M 0 170.07874 
L 226.771654 170.07874 
L 226.771654 0 
L 0 0 
z
" style="fill:#ffffff;"/>
  </g>
  <g id="axes_1">
   <g id="patch_2">
    <path d="M 55.8 128.92249 
L 215.971654 128.92249 
L 215.971654 11.549923 
L 55.8 11.549923 
z
" style="fill:#ffffff;"/>
   </g>
   <g id="matplotlib.axis_1">
    <g id="xtick_1">
     <g id="line2d_1">
      <path clip-path="url(#p29823bb206)" d="M 68.112532 128.92249 
L 68.112532 11.549923 
" style="fill:none;stroke:#b0b0b0;stroke-linecap:square;stroke-width:0.8;"/>
     </g>
     <g id="line2d_2">
      <defs>
       <path d="M 0 0 
L 0 3.5 
" id="m18174b821e" style="stroke:#000000;stroke-width:0.8;"/>
      </defs>
      <g>
       <use style="stroke:#000000;stroke-width:0.8;" x="68.112532" xlink:href="#m18174b821e" y="128.92249"/>
      </g>
     </g>
     <g id="text_1">
      <!-- $\mathdefault{10^{-3}}$ -->
      <defs>
       <path d="M 12.40625 8.296875 
L 28.515625 8.296875 
L 28.515625 63.921875 
L 10.984375 60.40625 
L 10.984375 69.390625 
L 28.421875 72.90625 
L 38.28125 72.90625 
L 38.28125 8.296875 
L 54.390625 8.296875 
L 54.390625 0 
L 12.40625 0 
z
" id="DejaVuSans-49"/>
       <path d="M 31.78125 66.40625 
Q 24.171875 66.40625 20.328125 58.90625 
Q 16.5 51.421875 16.5 36.375 
Q 16.5 21.390625 20.328125 13.890625 
Q 24.171875 6.390625 31.78125 6.390625 
Q 39.453125 6.390625 43.28125 13.890625 
Q 47.125 21.390625 47.125 36.375 
Q 47.125 51.421875 43.28125 58.90625 
Q 39.453125 66.40625 31.78125 66.40625 
z
M 31.78125 74.21875 
Q 44.046875 74.21875 50.515625 64.515625 
Q 56.984375 54.828125 56.984375 36.375 
Q 56.984375 17.96875 50.515625 8.265625 
Q 44.046875 -1.421875 31.78125 -1.421875 
Q 19.53125 -1.421875 13.0625 8.265625 
Q 6.59375 17.96875 6.59375 36.375 
Q 6.59375 54.828125 13.0625 64.515625 
Q 19.53125 74.21875 31.78125 74.21875 
z
" id="DejaVuSans-48"/>
       <path d="M 10.59375 35.5 
L 73.1875 35.5 
L 73.1875 27.203125 
L 10.59375 27.203125 
z
" id="DejaVuSans-8722"/>
       <path d="M 40.578125 39.3125 
Q 47.65625 37.796875 51.625 33 
Q 55.609375 28.21875 55.609375 21.1875 
Q 55.609375 10.40625 48.1875 4.484375 
Q 40.765625 -1.421875 27.09375 -1.421875 
Q 22.515625 -1.421875 17.65625 -0.515625 
Q 12.796875 0.390625 7.625 2.203125 
L 7.625 11.71875 
Q 11.71875 9.328125 16.59375 8.109375 
Q 21.484375 6.890625 26.8125 6.890625 
Q 36.078125 6.890625 40.9375 10.546875 
Q 45.796875 14.203125 45.796875 21.1875 
Q 45.796875 27.640625 41.28125 31.265625 
Q 36.765625 34.90625 28.71875 34.90625 
L 20.21875 34.90625 
L 20.21875 43.015625 
L 29.109375 43.015625 
Q 36.375 43.015625 40.234375 45.921875 
Q 44.09375 48.828125 44.09375 54.296875 
Q 44.09375 59.90625 40.109375 62.90625 
Q 36.140625 65.921875 28.71875 65.921875 
Q 24.65625 65.921875 20.015625 65.03125 
Q 15.375 64.15625 9.8125 62.3125 
L 9.8125 71.09375 
Q 15.4375 72.65625 20.34375 73.4375 
Q 25.25 74.21875 29.59375 74.21875 
Q 40.828125 74.21875 47.359375 69.109375 
Q 53.90625 64.015625 53.90625 55.328125 
Q 53.90625 49.265625 50.4375 45.09375 
Q 46.96875 40.921875 40.578125 39.3125 
z
" id="DejaVuSans-51"/>
      </defs>
      <g transform="translate(56.362532 143.520928)scale(0.1 -0.1)">
       <use transform="translate(0 0.765625)" xlink:href="#DejaVuSans-49"/>
       <use transform="translate(63.623047 0.765625)" xlink:href="#DejaVuSans-48"/>
       <use transform="translate(128.203125 39.046875)scale(0.7)" xlink:href="#DejaVuSans-8722"/>
       <use transform="translate(186.855469 39.046875)scale(0.7)" xlink:href="#DejaVuSans-51"/>
      </g>
     </g>
    </g>
    <g id="xtick_2">
     <g id="line2d_3">
      <path clip-path="url(#p29823bb206)" d="M 105.320834 128.92249 
L 105.320834 11.549923 
" style="fill:none;stroke:#b0b0b0;stroke-linecap:square;stroke-width:0.8;"/>
     </g>
     <g id="line2d_4">
      <g>
       <use style="stroke:#000000;stroke-width:0.8;" x="105.320834" xlink:href="#m18174b821e" y="128.92249"/>
      </g>
     </g>
     <g id="text_2">
      <!-- $\mathdefault{10^{-2}}$ -->
      <defs>
       <path d="M 19.1875 8.296875 
L 53.609375 8.296875 
L 53.609375 0 
L 7.328125 0 
L 7.328125 8.296875 
Q 12.9375 14.109375 22.625 23.890625 
Q 32.328125 33.6875 34.8125 36.53125 
Q 39.546875 41.84375 41.421875 45.53125 
Q 43.3125 49.21875 43.3125 52.78125 
Q 43.3125 58.59375 39.234375 62.25 
Q 35.15625 65.921875 28.609375 65.921875 
Q 23.96875 65.921875 18.8125 64.3125 
Q 13.671875 62.703125 7.8125 59.421875 
L 7.8125 69.390625 
Q 13.765625 71.78125 18.9375 73 
Q 24.125 74.21875 28.421875 74.21875 
Q 39.75 74.21875 46.484375 68.546875 
Q 53.21875 62.890625 53.21875 53.421875 
Q 53.21875 48.921875 51.53125 44.890625 
Q 49.859375 40.875 45.40625 35.40625 
Q 44.1875 33.984375 37.640625 27.21875 
Q 31.109375 20.453125 19.1875 8.296875 
z
" id="DejaVuSans-50"/>
      </defs>
      <g transform="translate(93.570834 143.520928)scale(0.1 -0.1)">
       <use transform="translate(0 0.765625)" xlink:href="#DejaVuSans-49"/>
       <use transform="translate(63.623047 0.765625)" xlink:href="#DejaVuSans-48"/>
       <use transform="translate(128.203125 39.046875)scale(0.7)" xlink:href="#DejaVuSans-8722"/>
       <use transform="translate(186.855469 39.046875)scale(0.7)" xlink:href="#DejaVuSans-50"/>
      </g>
     </g>
    </g>
    <g id="xtick_3">
     <g id="line2d_5">
      <path clip-path="url(#p29823bb206)" d="M 142.529135 128.92249 
L 142.529135 11.549923 
" style="fill:none;stroke:#b0b0b0;stroke-linecap:square;stroke-width:0.8;"/>
     </g>
     <g id="line2d_6">
      <g>
       <use style="stroke:#000000;stroke-width:0.8;" x="142.529135" xlink:href="#m18174b821e" y="128.92249"/>
      </g>
     </g>
     <g id="text_3">
      <!-- $\mathdefault{10^{-1}}$ -->
      <g transform="translate(130.779135 143.520928)scale(0.1 -0.1)">
       <use transform="translate(0 0.684375)" xlink:href="#DejaVuSans-49"/>
       <use transform="translate(63.623047 0.684375)" xlink:href="#DejaVuSans-48"/>
       <use transform="translate(128.203125 38.965625)scale(0.7)" xlink:href="#DejaVuSans-8722"/>
       <use transform="translate(186.855469 38.965625)scale(0.7)" xlink:href="#DejaVuSans-49"/>
      </g>
     </g>
    </g>
    <g id="xtick_4">
     <g id="line2d_7">
      <path clip-path="url(#p29823bb206)" d="M 179.737437 128.92249 
L 179.737437 11.549923 
" style="fill:none;stroke:#b0b0b0;stroke-linecap:square;stroke-width:0.8;"/>
     </g>
     <g id="line2d_8">
      <g>
       <use style="stroke:#000000;stroke-width:0.8;" x="179.737437" xlink:href="#m18174b821e" y="128.92249"/>
      </g>
     </g>
     <g id="text_4">
      <!-- $\mathdefault{10^{0}}$ -->
      <g transform="translate(170.937437 143.520928)scale(0.1 -0.1)">
       <use transform="translate(0 0.765625)" xlink:href="#DejaVuSans-49"/>
       <use transform="translate(63.623047 0.765625)" xlink:href="#DejaVuSans-48"/>
       <use transform="translate(128.203125 39.046875)scale(0.7)" xlink:href="#DejaVuSans-48"/>
      </g>
     </g>
    </g>
    <g id="xtick_5">
     <g id="line2d_9">
      <defs>
       <path d="M 0 0 
L 0 2 
" id="mf6035138df" style="stroke:#000000;stroke-width:0.6;"/>
      </defs>
      <g>
       <use style="stroke:#000000;stroke-width:0.6;" x="56.911717" xlink:href="#mf6035138df" y="128.92249"/>
      </g>
     </g>
    </g>
    <g id="xtick_6">
     <g id="line2d_10">
      <g>
       <use style="stroke:#000000;stroke-width:0.6;" x="59.857917" xlink:href="#mf6035138df" y="128.92249"/>
      </g>
     </g>
    </g>
    <g id="xtick_7">
     <g id="line2d_11">
      <g>
       <use style="stroke:#000000;stroke-width:0.6;" x="62.348893" xlink:href="#mf6035138df" y="128.92249"/>
      </g>
     </g>
    </g>
    <g id="xtick_8">
     <g id="line2d_12">
      <g>
       <use style="stroke:#000000;stroke-width:0.6;" x="64.506675" xlink:href="#mf6035138df" y="128.92249"/>
      </g>
     </g>
    </g>
    <g id="xtick_9">
     <g id="line2d_13">
      <g>
       <use style="stroke:#000000;stroke-width:0.6;" x="66.409973" xlink:href="#mf6035138df" y="128.92249"/>
      </g>
     </g>
    </g>
    <g id="xtick_10">
     <g id="line2d_14">
      <g>
       <use style="stroke:#000000;stroke-width:0.6;" x="79.313347" xlink:href="#mf6035138df" y="128.92249"/>
      </g>
     </g>
    </g>
    <g id="xtick_11">
     <g id="line2d_15">
      <g>
       <use style="stroke:#000000;stroke-width:0.6;" x="85.865403" xlink:href="#mf6035138df" y="128.92249"/>
      </g>
     </g>
    </g>
    <g id="xtick_12">
     <g id="line2d_16">
      <g>
       <use style="stroke:#000000;stroke-width:0.6;" x="90.514162" xlink:href="#mf6035138df" y="128.92249"/>
      </g>
     </g>
    </g>
    <g id="xtick_13">
     <g id="line2d_17">
      <g>
       <use style="stroke:#000000;stroke-width:0.6;" x="94.120019" xlink:href="#mf6035138df" y="128.92249"/>
      </g>
     </g>
    </g>
    <g id="xtick_14">
     <g id="line2d_18">
      <g>
       <use style="stroke:#000000;stroke-width:0.6;" x="97.066218" xlink:href="#mf6035138df" y="128.92249"/>
      </g>
     </g>
    </g>
    <g id="xtick_15">
     <g id="line2d_19">
      <g>
       <use style="stroke:#000000;stroke-width:0.6;" x="99.557195" xlink:href="#mf6035138df" y="128.92249"/>
      </g>
     </g>
    </g>
    <g id="xtick_16">
     <g id="line2d_20">
      <g>
       <use style="stroke:#000000;stroke-width:0.6;" x="101.714977" xlink:href="#mf6035138df" y="128.92249"/>
      </g>
     </g>
    </g>
    <g id="xtick_17">
     <g id="line2d_21">
      <g>
       <use style="stroke:#000000;stroke-width:0.6;" x="103.618275" xlink:href="#mf6035138df" y="128.92249"/>
      </g>
     </g>
    </g>
    <g id="xtick_18">
     <g id="line2d_22">
      <g>
       <use style="stroke:#000000;stroke-width:0.6;" x="116.521649" xlink:href="#mf6035138df" y="128.92249"/>
      </g>
     </g>
    </g>
    <g id="xtick_19">
     <g id="line2d_23">
      <g>
       <use style="stroke:#000000;stroke-width:0.6;" x="123.073705" xlink:href="#mf6035138df" y="128.92249"/>
      </g>
     </g>
    </g>
    <g id="xtick_20">
     <g id="line2d_24">
      <g>
       <use style="stroke:#000000;stroke-width:0.6;" x="127.722463" xlink:href="#mf6035138df" y="128.92249"/>
      </g>
     </g>
    </g>
    <g id="xtick_21">
     <g id="line2d_25">
      <g>
       <use style="stroke:#000000;stroke-width:0.6;" x="131.328321" xlink:href="#mf6035138df" y="128.92249"/>
      </g>
     </g>
    </g>
    <g id="xtick_22">
     <g id="line2d_26">
      <g>
       <use style="stroke:#000000;stroke-width:0.6;" x="134.27452" xlink:href="#mf6035138df" y="128.92249"/>
      </g>
     </g>
    </g>
    <g id="xtick_23">
     <g id="line2d_27">
      <g>
       <use style="stroke:#000000;stroke-width:0.6;" x="136.765497" xlink:href="#mf6035138df" y="128.92249"/>
      </g>
     </g>
    </g>
    <g id="xtick_24">
     <g id="line2d_28">
      <g>
       <use style="stroke:#000000;stroke-width:0.6;" x="138.923278" xlink:href="#mf6035138df" y="128.92249"/>
      </g>
     </g>
    </g>
    <g id="xtick_25">
     <g id="line2d_29">
      <g>
       <use style="stroke:#000000;stroke-width:0.6;" x="140.826577" xlink:href="#mf6035138df" y="128.92249"/>
      </g>
     </g>
    </g>
    <g id="xtick_26">
     <g id="line2d_30">
      <g>
       <use style="stroke:#000000;stroke-width:0.6;" x="153.72995" xlink:href="#mf6035138df" y="128.92249"/>
      </g>
     </g>
    </g>
    <g id="xtick_27">
     <g id="line2d_31">
      <g>
       <use style="stroke:#000000;stroke-width:0.6;" x="160.282007" xlink:href="#mf6035138df" y="128.92249"/>
      </g>
     </g>
    </g>
    <g id="xtick_28">
     <g id="line2d_32">
      <g>
       <use style="stroke:#000000;stroke-width:0.6;" x="164.930765" xlink:href="#mf6035138df" y="128.92249"/>
      </g>
     </g>
    </g>
    <g id="xtick_29">
     <g id="line2d_33">
      <g>
       <use style="stroke:#000000;stroke-width:0.6;" x="168.536622" xlink:href="#mf6035138df" y="128.92249"/>
      </g>
     </g>
    </g>
    <g id="xtick_30">
     <g id="line2d_34">
      <g>
       <use style="stroke:#000000;stroke-width:0.6;" x="171.482822" xlink:href="#mf6035138df" y="128.92249"/>
      </g>
     </g>
    </g>
    <g id="xtick_31">
     <g id="line2d_35">
      <g>
       <use style="stroke:#000000;stroke-width:0.6;" x="173.973798" xlink:href="#mf6035138df" y="128.92249"/>
      </g>
     </g>
    </g>
    <g id="xtick_32">
     <g id="line2d_36">
      <g>
       <use style="stroke:#000000;stroke-width:0.6;" x="176.13158" xlink:href="#mf6035138df" y="128.92249"/>
      </g>
     </g>
    </g>
    <g id="xtick_33">
     <g id="line2d_37">
      <g>
       <use style="stroke:#000000;stroke-width:0.6;" x="178.034879" xlink:href="#mf6035138df" y="128.92249"/>
      </g>
     </g>
    </g>
    <g id="xtick_34">
     <g id="line2d_38">
      <g>
       <use style="stroke:#000000;stroke-width:0.6;" x="190.938252" xlink:href="#mf6035138df" y="128.92249"/>
      </g>
     </g>
    </g>
    <g id="xtick_35">
     <g id="line2d_39">
      <g>
       <use style="stroke:#000000;stroke-width:0.6;" x="197.490309" xlink:href="#mf6035138df" y="128.92249"/>
      </g>
     </g>
    </g>
    <g id="xtick_36">
     <g id="line2d_40">
      <g>
       <use style="stroke:#000000;stroke-width:0.6;" x="202.139067" xlink:href="#mf6035138df" y="128.92249"/>
      </g>
     </g>
    </g>
    <g id="xtick_37">
     <g id="line2d_41">
      <g>
       <use style="stroke:#000000;stroke-width:0.6;" x="205.744924" xlink:href="#mf6035138df" y="128.92249"/>
      </g>
     </g>
    </g>
    <g id="xtick_38">
     <g id="line2d_42">
      <g>
       <use style="stroke:#000000;stroke-width:0.6;" x="208.691124" xlink:href="#mf6035138df" y="128.92249"/>
      </g>
     </g>
    </g>
    <g id="xtick_39">
     <g id="line2d_43">
      <g>
       <use style="stroke:#000000;stroke-width:0.6;" x="211.1821" xlink:href="#mf6035138df" y="128.92249"/>
      </g>
     </g>
    </g>
    <g id="xtick_40">
     <g id="line2d_44">
      <g>
       <use style="stroke:#000000;stroke-width:0.6;" x="213.339882" xlink:href="#mf6035138df" y="128.92249"/>
      </g>
     </g>
    </g>
    <g id="xtick_41">
     <g id="line2d_45">
      <g>
       <use style="stroke:#000000;stroke-width:0.6;" x="215.243181" xlink:href="#mf6035138df" y="128.92249"/>
      </g>
     </g>
    </g>
    <g id="text_5">
     <!-- f (Hz) -->
     <defs>
      <path d="M 37.109375 75.984375 
L 37.109375 68.5 
L 28.515625 68.5 
Q 23.6875 68.5 21.796875 66.546875 
Q 19.921875 64.59375 19.921875 59.515625 
L 19.921875 54.6875 
L 34.71875 54.6875 
L 34.71875 47.703125 
L 19.921875 47.703125 
L 19.921875 0 
L 10.890625 0 
L 10.890625 47.703125 
L 2.296875 47.703125 
L 2.296875 54.6875 
L 10.890625 54.6875 
L 10.890625 58.5 
Q 10.890625 67.625 15.140625 71.796875 
Q 19.390625 75.984375 28.609375 75.984375 
z
" id="DejaVuSans-102"/>
      <path id="DejaVuSans-32"/>
      <path d="M 31 75.875 
Q 24.46875 64.65625 21.28125 53.65625 
Q 18.109375 42.671875 18.109375 31.390625 
Q 18.109375 20.125 21.3125 9.0625 
Q 24.515625 -2 31 -13.1875 
L 23.1875 -13.1875 
Q 15.875 -1.703125 12.234375 9.375 
Q 8.59375 20.453125 8.59375 31.390625 
Q 8.59375 42.28125 12.203125 53.3125 
Q 15.828125 64.359375 23.1875 75.875 
z
" id="DejaVuSans-40"/>
      <path d="M 9.8125 72.90625 
L 19.671875 72.90625 
L 19.671875 43.015625 
L 55.515625 43.015625 
L 55.515625 72.90625 
L 65.375 72.90625 
L 65.375 0 
L 55.515625 0 
L 55.515625 34.71875 
L 19.671875 34.71875 
L 19.671875 0 
L 9.8125 0 
z
" id="DejaVuSans-72"/>
      <path d="M 5.515625 54.6875 
L 48.1875 54.6875 
L 48.1875 46.484375 
L 14.40625 7.171875 
L 48.1875 7.171875 
L 48.1875 0 
L 4.296875 0 
L 4.296875 8.203125 
L 38.09375 47.515625 
L 5.515625 47.515625 
z
" id="DejaVuSans-122"/>
      <path d="M 8.015625 75.875 
L 15.828125 75.875 
Q 23.140625 64.359375 26.78125 53.3125 
Q 30.421875 42.28125 30.421875 31.390625 
Q 30.421875 20.453125 26.78125 9.375 
Q 23.140625 -1.703125 15.828125 -13.1875 
L 8.015625 -13.1875 
Q 14.5 -2 17.703125 9.0625 
Q 20.90625 20.125 20.90625 31.390625 
Q 20.90625 42.671875 17.703125 53.65625 
Q 14.5 64.65625 8.015625 75.875 
z
" id="DejaVuSans-41"/>
     </defs>
     <g transform="translate(122.250671 157.199053)scale(0.1 -0.1)">
      <use xlink:href="#DejaVuSans-102"/>
      <use x="35.205078" xlink:href="#DejaVuSans-32"/>
      <use x="66.992188" xlink:href="#DejaVuSans-40"/>
      <use x="106.005859" xlink:href="#DejaVuSans-72"/>
      <use x="181.201172" xlink:href="#DejaVuSans-122"/>
      <use x="233.691406" xlink:href="#DejaVuSans-41"/>
     </g>
    </g>
   </g>
   <g id="matplotlib.axis_2">
    <g id="ytick_1">
     <g id="line2d_46">
      <path clip-path="url(#p29823bb206)" d="M 55.8 94.640094 
L 215.971654 94.640094 
" style="fill:none;stroke:#b0b0b0;stroke-linecap:square;stroke-width:0.8;"/>
     </g>
     <g id="line2d_47">
      <defs>
       <path d="M 0 0 
L -3.5 0 
" id="m01964a01c9" style="stroke:#000000;stroke-width:0.8;"/>
      </defs>
      <g>
       <use style="stroke:#000000;stroke-width:0.8;" x="55.8" xlink:href="#m01964a01c9" y="94.640094"/>
      </g>
     </g>
     <g id="text_6">
      <!-- $\mathdefault{10^{-4}}$ -->
      <defs>
       <path d="M 37.796875 64.3125 
L 12.890625 25.390625 
L 37.796875 25.390625 
z
M 35.203125 72.90625 
L 47.609375 72.90625 
L 47.609375 25.390625 
L 58.015625 25.390625 
L 58.015625 17.1875 
L 47.609375 17.1875 
L 47.609375 0 
L 37.796875 0 
L 37.796875 17.1875 
L 4.890625 17.1875 
L 4.890625 26.703125 
z
" id="DejaVuSans-52"/>
      </defs>
      <g transform="translate(25.3 98.439312)scale(0.1 -0.1)">
       <use transform="translate(0 0.684375)" xlink:href="#DejaVuSans-49"/>
       <use transform="translate(63.623047 0.684375)" xlink:href="#DejaVuSans-48"/>
       <use transform="translate(128.203125 38.965625)scale(0.7)" xlink:href="#DejaVuSans-8722"/>
       <use transform="translate(186.855469 38.965625)scale(0.7)" xlink:href="#DejaVuSans-52"/>
      </g>
     </g>
    </g>
    <g id="ytick_2">
     <g id="line2d_48">
      <path clip-path="url(#p29823bb206)" d="M 55.8 60.201268 
L 215.971654 60.201268 
" style="fill:none;stroke:#b0b0b0;stroke-linecap:square;stroke-width:0.8;"/>
     </g>
     <g id="line2d_49">
      <g>
       <use style="stroke:#000000;stroke-width:0.8;" x="55.8" xlink:href="#m01964a01c9" y="60.201268"/>
      </g>
     </g>
     <g id="text_7">
      <!-- $\mathdefault{10^{-1}}$ -->
      <g transform="translate(25.3 64.000487)scale(0.1 -0.1)">
       <use transform="translate(0 0.684375)" xlink:href="#DejaVuSans-49"/>
       <use transform="translate(63.623047 0.684375)" xlink:href="#DejaVuSans-48"/>
       <use transform="translate(128.203125 38.965625)scale(0.7)" xlink:href="#DejaVuSans-8722"/>
       <use transform="translate(186.855469 38.965625)scale(0.7)" xlink:href="#DejaVuSans-49"/>
      </g>
     </g>
    </g>
    <g id="ytick_3">
     <g id="line2d_50">
      <path clip-path="url(#p29823bb206)" d="M 55.8 25.762442 
L 215.971654 25.762442 
" style="fill:none;stroke:#b0b0b0;stroke-linecap:square;stroke-width:0.8;"/>
     </g>
     <g id="line2d_51">
      <g>
       <use style="stroke:#000000;stroke-width:0.8;" x="55.8" xlink:href="#m01964a01c9" y="25.762442"/>
      </g>
     </g>
     <g id="text_8">
      <!-- $\mathdefault{10^{2}}$ -->
      <g transform="translate(31.2 29.561661)scale(0.1 -0.1)">
       <use transform="translate(0 0.765625)" xlink:href="#DejaVuSans-49"/>
       <use transform="translate(63.623047 0.765625)" xlink:href="#DejaVuSans-48"/>
       <use transform="translate(128.203125 39.046875)scale(0.7)" xlink:href="#DejaVuSans-50"/>
      </g>
     </g>
    </g>
    <g id="text_9">
     <!-- $S(f) (m^2/s)$ -->
     <defs>
      <path d="M 60.296875 70.515625 
L 58.40625 60.890625 
Q 53.46875 63.53125 48.609375 64.875 
Q 43.75 66.21875 39.203125 66.21875 
Q 30.375 66.21875 25.140625 62.359375 
Q 19.921875 58.5 19.921875 52.09375 
Q 19.921875 48.578125 21.84375 46.703125 
Q 23.78125 44.828125 31.78125 42.671875 
L 37.703125 41.21875 
Q 47.703125 38.625 51.609375 34.640625 
Q 55.515625 30.671875 55.515625 23.484375 
Q 55.515625 12.453125 46.84375 5.515625 
Q 38.1875 -1.421875 24.03125 -1.421875 
Q 18.21875 -1.421875 12.359375 -0.265625 
Q 6.5 0.875 0.59375 3.21875 
L 2.59375 13.375 
Q 8.015625 10.015625 13.453125 8.296875 
Q 18.890625 6.59375 24.3125 6.59375 
Q 33.546875 6.59375 39.109375 10.6875 
Q 44.671875 14.796875 44.671875 21.390625 
Q 44.671875 25.78125 42.453125 28.046875 
Q 40.234375 30.328125 32.90625 32.171875 
L 27 33.6875 
Q 16.890625 36.328125 13.203125 39.765625 
Q 9.515625 43.21875 9.515625 49.421875 
Q 9.515625 60.296875 17.890625 67.25 
Q 26.265625 74.21875 39.703125 74.21875 
Q 44.921875 74.21875 50.046875 73.28125 
Q 55.171875 72.359375 60.296875 70.515625 
z
" id="DejaVuSans-Oblique-83"/>
      <path d="M 47.796875 75.984375 
L 46.390625 68.5 
L 37.796875 68.5 
Q 32.90625 68.5 30.6875 66.578125 
Q 28.46875 64.65625 27.390625 59.515625 
L 26.421875 54.6875 
L 41.21875 54.6875 
L 39.890625 47.703125 
L 25.09375 47.703125 
L 15.828125 0 
L 6.78125 0 
L 16.109375 47.703125 
L 7.515625 47.703125 
L 8.796875 54.6875 
L 17.390625 54.6875 
L 18.109375 58.5 
Q 19.96875 68.171875 24.625 72.078125 
Q 29.296875 75.984375 39.3125 75.984375 
z
" id="DejaVuSans-Oblique-102"/>
      <path d="M 89.796875 33.015625 
L 83.40625 0 
L 74.421875 0 
L 80.71875 32.71875 
Q 81.109375 34.8125 81.296875 36.328125 
Q 81.5 37.84375 81.5 38.921875 
Q 81.5 43.3125 79.046875 45.75 
Q 76.609375 48.1875 72.21875 48.1875 
Q 65.671875 48.1875 60.546875 43.28125 
Q 55.421875 38.375 53.90625 30.515625 
L 47.90625 0 
L 38.921875 0 
L 45.3125 32.71875 
Q 45.703125 34.515625 45.890625 36.046875 
Q 46.09375 37.59375 46.09375 38.8125 
Q 46.09375 43.265625 43.65625 45.71875 
Q 41.21875 48.1875 36.921875 48.1875 
Q 30.28125 48.1875 25.140625 43.28125 
Q 20.015625 38.375 18.5 30.515625 
L 12.5 0 
L 3.515625 0 
L 14.203125 54.6875 
L 23.1875 54.6875 
L 21.484375 46.1875 
Q 25.140625 50.984375 30.046875 53.484375 
Q 34.96875 56 40.578125 56 
Q 46.53125 56 50.359375 52.875 
Q 54.203125 49.75 54.984375 44.1875 
Q 59.078125 49.953125 64.46875 52.96875 
Q 69.875 56 75.875 56 
Q 82.90625 56 86.734375 51.953125 
Q 90.578125 47.90625 90.578125 40.484375 
Q 90.578125 38.875 90.375 36.9375 
Q 90.1875 35.015625 89.796875 33.015625 
z
" id="DejaVuSans-Oblique-109"/>
      <path d="M 25.390625 72.90625 
L 33.6875 72.90625 
L 8.296875 -9.28125 
L 0 -9.28125 
z
" id="DejaVuSans-47"/>
      <path d="M 50 53.078125 
L 48.296875 44.578125 
Q 44.734375 46.53125 40.765625 47.5 
Q 36.8125 48.484375 32.625 48.484375 
Q 25.53125 48.484375 21.453125 46.0625 
Q 17.390625 43.65625 17.390625 39.5 
Q 17.390625 34.671875 26.859375 32.078125 
Q 27.59375 31.890625 27.9375 31.78125 
L 30.8125 30.90625 
Q 39.796875 28.421875 42.796875 25.6875 
Q 45.796875 22.953125 45.796875 18.21875 
Q 45.796875 9.515625 38.890625 4.046875 
Q 31.984375 -1.421875 20.796875 -1.421875 
Q 16.453125 -1.421875 11.671875 -0.578125 
Q 6.890625 0.25 1.125 2 
L 2.875 11.28125 
Q 7.8125 8.734375 12.59375 7.421875 
Q 17.390625 6.109375 21.78125 6.109375 
Q 28.375 6.109375 32.5 8.9375 
Q 36.625 11.765625 36.625 16.109375 
Q 36.625 20.796875 25.78125 23.6875 
L 24.859375 23.921875 
L 21.78125 24.703125 
Q 14.9375 26.515625 11.765625 29.46875 
Q 8.59375 32.421875 8.59375 37.015625 
Q 8.59375 45.75 15.15625 50.875 
Q 21.734375 56 33.015625 56 
Q 37.453125 56 41.671875 55.265625 
Q 45.90625 54.546875 50 53.078125 
z
" id="DejaVuSans-Oblique-115"/>
     </defs>
     <g transform="translate(19.220312 94.736207)rotate(-90)scale(0.1 -0.1)">
      <use transform="translate(0 0.765625)" xlink:href="#DejaVuSans-Oblique-83"/>
      <use transform="translate(63.476562 0.765625)" xlink:href="#DejaVuSans-40"/>
      <use transform="translate(102.490234 0.765625)" xlink:href="#DejaVuSans-Oblique-102"/>
      <use transform="translate(137.695312 0.765625)" xlink:href="#DejaVuSans-41"/>
      <use transform="translate(176.708984 0.765625)" xlink:href="#DejaVuSans-40"/>
      <use transform="translate(215.722656 0.765625)" xlink:href="#DejaVuSans-Oblique-109"/>
      <use transform="translate(317.784661 39.046875)scale(0.7)" xlink:href="#DejaVuSans-50"/>
      <use transform="translate(365.055169 0.765625)" xlink:href="#DejaVuSans-47"/>
      <use transform="translate(398.746576 0.765625)" xlink:href="#DejaVuSans-Oblique-115"/>
      <use transform="translate(450.846185 0.765625)" xlink:href="#DejaVuSans-41"/>
     </g>
    </g>
   </g>
   <g id="line2d_52">
    <path clip-path="url(#p29823bb206)" d="M 63.08053 28.939783 
L 74.281345 34.108573 
L 80.833401 38.092574 
L 85.48216 23.289638 
L 89.088017 20.481111 
L 92.034216 20.005584 
L 94.525193 19.918175 
L 96.682975 32.382222 
L 98.586273 20.634524 
L 100.288832 19.025678 
L 101.828983 22.111952 
L 103.235031 23.7138 
L 104.52847 19.330082 
L 105.726008 27.755446 
L 106.840888 41.672616 
L 107.883789 35.901165 
L 108.863445 25.057909 
L 109.787088 35.375571 
L 110.66078 38.657239 
L 111.489646 29.138927 
L 112.278064 27.485591 
L 113.029798 19.9711 
L 114.435846 17.903993 
L 115.095503 16.88504 
L 115.729285 20.403447 
L 116.339145 31.58188 
L 116.926823 29.275086 
L 117.493876 41.433113 
L 118.041703 20.644785 
L 118.571566 19.486815 
L 119.084604 27.400768 
L 119.581855 28.622434 
L 120.064259 18.819261 
L 120.53268 19.903923 
L 120.987903 33.943956 
L 121.430653 29.704185 
L 121.861595 21.890448 
L 122.281342 23.714797 
L 122.690461 22.603821 
L 123.089478 35.079456 
L 123.478879 23.730797 
L 123.859117 20.180668 
L 124.230613 20.566129 
L 124.59376 38.416603 
L 124.948925 24.318733 
L 125.296451 28.164931 
L 125.636661 34.757654 
L 125.969856 35.688409 
L 126.296318 29.628734 
L 126.616316 29.0647 
L 126.9301 24.27495 
L 127.237907 39.188506 
L 127.53996 39.036686 
L 127.83647 29.105941 
L 128.127637 24.163883 
L 128.413651 26.327406 
L 128.970926 27.086067 
L 129.242518 36.764697 
L 129.772381 20.388614 
L 130.030936 21.542619 
L 130.285419 34.51147 
L 130.78267 20.440518 
L 131.265074 35.526446 
L 131.500982 30.916119 
L 131.733494 39.495102 
L 132.188718 24.545664 
L 132.411609 26.810731 
L 132.631468 33.757901 
L 132.848375 23.67204 
L 133.06241 20.815974 
L 133.273646 22.29689 
L 133.482157 22.896971 
L 133.688011 23.058776 
L 133.891276 23.865915 
L 134.092016 34.447294 
L 134.290293 23.163181 
L 134.486167 28.025141 
L 134.679694 46.983626 
L 134.870931 30.537078 
L 135.059932 26.448028 
L 135.246747 27.801874 
L 135.431428 34.583972 
L 135.614021 31.326442 
L 135.973133 22.147226 
L 136.14974 20.465652 
L 136.324437 21.478684 
L 136.497266 32.301413 
L 136.668267 30.055024 
L 136.837476 25.989304 
L 137.004932 28.289967 
L 137.170671 28.173219 
L 137.334726 28.360284 
L 137.497133 31.714972 
L 137.657924 32.119679 
L 137.817131 31.401137 
L 137.974785 24.655568 
L 138.130915 36.086423 
L 138.285551 36.981972 
L 138.438722 36.169984 
L 138.590454 43.731787 
L 138.740775 28.080778 
L 138.88971 29.281532 
L 139.037285 29.387863 
L 139.183524 35.151039 
L 139.328452 32.784992 
L 139.614466 23.018313 
L 139.755597 23.01765 
L 140.171741 40.991186 
L 140.308107 29.39015 
L 140.443333 33.980996 
L 140.710436 24.084829 
L 140.973196 35.321059 
L 141.10299 33.949769 
L 141.359494 26.282215 
L 141.486234 27.147518 
L 141.611989 26.182862 
L 141.736772 23.700858 
L 141.860599 29.386273 
L 141.983485 42.628393 
L 142.226487 30.074191 
L 142.346632 36.836394 
L 142.584273 32.340337 
L 142.701797 32.866668 
L 142.934309 29.919438 
L 143.049323 34.24029 
L 143.163524 29.905759 
L 143.276923 35.043883 
L 143.389533 31.861313 
L 143.501363 35.290105 
L 143.612424 34.532525 
L 143.722727 29.227123 
L 143.832283 29.706775 
L 143.9411 28.365975 
L 144.156562 37.23117 
L 144.369188 25.206743 
L 144.579053 36.79735 
L 144.682972 32.345776 
L 144.786227 37.021443 
L 144.990778 33.62693 
L 145.192773 28.581314 
L 145.392274 36.362246 
L 145.491108 32.502706 
L 145.589342 49.16418 
L 145.784035 31.601385 
L 145.880509 31.693018 
L 145.976411 35.105022 
L 146.166523 30.063585 
L 146.260747 33.287145 
L 146.447562 29.542003 
L 146.540166 38.546536 
L 146.632243 37.356105 
L 146.723797 35.974879 
L 146.814836 37.545034 
L 146.905365 32.594762 
L 146.99539 46.162703 
L 147.173948 26.365787 
L 147.262493 25.590448 
L 147.350555 41.856972 
L 147.43814 38.473624 
L 147.525252 48.676114 
L 147.698081 28.885584 
L 147.783808 31.612963 
L 147.869081 31.110119 
L 147.953908 30.262929 
L 148.038291 39.707961 
L 148.122236 38.759453 
L 148.205747 39.874314 
L 148.288829 38.454345 
L 148.453722 28.889185 
L 148.535541 27.953945 
L 148.616949 34.361106 
L 148.697948 34.34542 
L 148.778544 26.750907 
L 148.858739 28.504094 
L 149.017946 34.909987 
L 149.096965 34.044422 
L 149.1756 35.450443 
L 149.33173 49.566782 
L 149.486366 34.688498 
L 149.639537 43.296631 
L 149.715581 38.823405 
L 149.791269 41.944752 
L 149.941589 28.099574 
L 150.016229 36.837673 
L 150.090525 36.327559 
L 150.311385 33.3446 
L 150.456966 45.953802 
L 150.529267 42.093444 
L 150.601247 32.51716 
L 150.815281 43.644859 
L 150.956412 29.571538 
L 151.165823 32.358411 
L 151.235028 40.14614 
L 151.303938 34.997451 
L 151.372556 38.369439 
L 151.508922 30.483617 
L 151.576677 36.346285 
L 151.644148 28.87039 
L 151.711339 36.66213 
L 151.778251 33.571745 
L 151.844888 31.024389 
L 151.911251 32.771143 
L 151.977342 47.189169 
L 152.10872 31.971299 
L 152.174011 34.077442 
L 152.239038 41.043732 
L 152.303805 38.669076 
L 152.368314 30.797616 
L 152.432566 34.354761 
L 152.496563 54.478727 
L 152.560308 48.139229 
L 152.812804 27.391521 
L 152.875316 32.064313 
L 152.937587 55.20868 
L 152.999619 35.157531 
L 153.061414 36.917719 
L 153.122974 47.591623 
L 153.184299 39.263312 
L 153.306258 42.186392 
L 153.427302 30.452378 
L 153.487486 31.981782 
L 153.607185 39.980224 
L 153.785088 34.636047 
L 153.843957 45.563585 
L 153.902612 31.83918 
L 153.961054 33.746255 
L 154.019286 37.343896 
L 154.077309 35.838265 
L 154.250138 28.494224 
L 154.307339 28.747043 
L 154.364339 32.795121 
L 154.421138 61.342451 
L 154.477738 43.72495 
L 154.534141 36.085023 
L 154.590348 45.528759 
L 154.702178 30.455972 
L 154.757804 30.563837 
L 154.813239 29.584287 
L 154.923542 41.992949 
L 155.033098 32.743414 
L 155.087598 36.825032 
L 155.141915 50.041761 
L 155.19605 36.72386 
L 155.250005 37.934172 
L 155.357377 31.824257 
L 155.410796 33.598966 
L 155.622725 38.803336 
L 155.675276 32.272391 
L 155.779868 32.591562 
L 155.831911 34.281348 
L 155.935497 60.021223 
L 156.038423 32.415341 
L 156.089641 36.630048 
L 156.140698 40.453704 
L 156.191593 38.487182 
L 156.242329 34.287488 
L 156.292906 34.845238 
L 156.343325 35.672877 
L 156.393588 33.036622 
L 156.493646 45.129235 
L 156.543444 38.471722 
L 156.642581 42.675297 
L 156.691923 34.828131 
L 156.741114 37.096106 
L 156.790156 39.03586 
L 156.887796 34.922197 
L 156.936396 35.937526 
L 156.98485 41.669335 
L 157.033159 39.739018 
L 157.081324 32.683206 
L 157.129346 51.399072 
L 157.177226 34.99877 
L 157.224964 32.894866 
L 157.320019 40.037623 
L 157.367338 37.951287 
L 157.414519 35.226892 
L 157.508469 45.269737 
L 157.55524 36.909228 
L 157.601876 45.947045 
L 157.648377 46.0962 
L 157.694746 43.994836 
L 157.740981 47.562535 
L 157.8789 34.45315 
L 157.924612 34.536076 
L 158.015651 51.37058 
L 158.060979 44.316703 
L 158.10618 42.684989 
L 158.151255 54.437956 
L 158.24103 31.193298 
L 158.28573 46.202348 
L 158.330308 32.391297 
L 158.374763 32.476581 
L 158.419096 56.75932 
L 158.463308 38.5383 
L 158.507399 36.92559 
L 158.638955 46.478046 
L 158.68257 45.22671 
L 158.769448 38.914162 
L 158.855862 57.873985 
L 158.941816 32.125979 
L 158.984623 33.561835 
L 159.027316 45.306055 
L 159.069896 41.179852 
L 159.154723 36.163201 
L 159.239106 48.252458 
L 159.281133 40.942378 
L 159.36486 34.468671 
L 159.406562 54.294962 
L 159.489644 42.316835 
L 159.531025 37.080588 
L 159.5723 41.741489 
L 159.695498 49.334352 
L 159.736356 47.356488 
L 159.777111 51.049476 
L 159.898763 35.24942 
L 159.939111 37.140708 
L 160.059554 49.715648 
L 160.019506 35.501609 
L 160.099503 47.324731 
L 160.218761 36.355313 
L 160.258319 43.414361 
L 160.29778 34.756324 
L 160.376415 41.603812 
L 160.415589 47.540144 
L 160.454668 45.423958 
L 160.532545 40.60759 
L 160.571343 51.252699 
L 160.610048 39.67504 
L 160.64866 35.067937 
L 160.802195 56.518871 
L 160.916396 35.739358 
L 160.954284 38.222808 
L 160.992084 42.81341 
L 161.029795 34.181015 
L 161.067419 38.119117 
L 161.104955 54.125 
L 161.179767 46.925337 
L 161.217044 48.098606 
L 161.29134 55.694072 
L 161.365296 35.134951 
L 161.402147 34.585383 
L 161.438915 34.652607 
L 161.585154 44.24069 
L 161.657781 34.611804 
L 161.730082 38.785725 
L 161.766112 42.356243 
L 161.837932 38.699801 
L 161.873722 42.304877 
L 161.909433 38.800716 
L 161.945066 44.887808 
L 162.016096 51.850554 
L 162.051494 51.225929 
L 162.086815 49.789699 
L 162.157227 35.34693 
L 162.192318 37.589692 
L 162.297136 48.926964 
L 162.366638 46.721187 
L 162.401278 73.704292 
L 162.435843 38.411688 
L 162.470335 42.828709 
L 162.573371 42.990496 
L 162.60757 36.26369 
L 162.641698 34.98177 
L 162.709737 50.825985 
L 162.74365 44.267055 
L 162.811262 34.951069 
L 162.844963 38.807079 
L 162.878593 45.037785 
L 162.945645 38.883541 
L 162.979066 37.209798 
L 163.112066 50.189124 
L 163.145145 39.146584 
L 163.178157 51.560272 
L 163.24398 41.660235 
L 163.276791 41.717352 
L 163.374825 36.768612 
L 163.439853 60.089029 
L 163.50462 53.076288 
L 163.633381 35.649742 
L 163.761123 48.153724 
L 163.792902 44.509561 
L 163.824618 62.091858 
L 163.887864 37.47343 
L 163.982272 54.953116 
L 164.013619 47.019698 
L 164.169448 35.204377 
L 164.262229 50.698083 
L 164.293038 36.434194 
L 164.354481 47.558536 
L 164.385114 46.372488 
L 164.476669 34.99332 
L 164.507072 35.69675 
L 164.597941 44.961106 
L 164.658237 42.805785 
L 164.688301 44.368387 
L 164.718309 44.025462 
L 164.748261 40.677468 
L 164.778158 46.94471 
L 164.808 43.343735 
L 164.897197 41.339546 
L 164.92682 53.29766 
L 165.074126 36.954466 
L 165.220101 59.615921 
L 165.307057 39.822492 
L 165.335939 45.154987 
L 165.36477 44.275419 
L 165.393548 59.458536 
L 165.422276 41.073997 
L 165.450953 44.108653 
L 165.479579 38.864977 
L 165.508154 44.582237 
L 165.565154 58.348989 
L 165.593578 39.840601 
L 165.621953 36.775851 
L 165.678553 38.90794 
L 165.763084 51.155236 
L 165.791163 39.480371 
L 165.875108 42.973553 
L 165.958619 55.27839 
L 165.93083 41.734357 
L 165.98636 49.750406 
L 166.014054 43.940679 
L 166.0417 46.582764 
L 166.0693 67.439051 
L 166.124357 37.250742 
L 166.151816 35.457895 
L 166.206593 37.371098 
L 166.233912 37.336561 
L 166.396865 51.759551 
L 166.423865 43.544072 
L 166.531415 44.582679 
L 166.611611 57.672901 
L 166.638255 45.02729 
L 166.69141 36.30891 
L 166.744392 42.618681 
L 166.770818 49.466967 
L 166.7972 42.322601 
L 166.849837 46.202966 
L 166.902302 43.85213 
L 166.928471 59.676352 
L 166.980682 40.708355 
L 167.006725 42.020679 
L 167.032726 37.032043 
L 167.084602 44.402473 
L 167.110477 51.291685 
L 167.136312 40.272762 
L 167.162105 47.203933 
L 167.264867 37.24165 
L 167.290456 38.748759 
L 167.36698 53.365598 
L 167.392408 41.161952 
L 167.417796 40.459419 
L 167.468452 51.088458 
L 167.54414 49.849752 
L 167.594403 41.451809 
L 167.669505 42.658838 
L 167.694461 40.46695 
L 167.744259 44.496631 
L 167.843396 42.47392 
L 167.868086 59.060159 
L 167.990971 37.955869 
L 168.039865 49.855359 
L 168.137211 48.954589 
L 168.161456 40.121449 
L 168.185665 54.221827 
L 168.258074 41.448726 
L 168.354118 53.980669 
L 168.401927 57.537176 
L 168.497123 39.332772 
L 168.59176 49.211371 
L 168.615333 42.864134 
L 168.709283 41.886965 
L 168.756054 52.606377 
L 168.80269 55.496988 
L 168.895561 42.137355 
L 168.918695 56.227848 
L 168.9879 42.438977 
L 169.010903 41.452345 
L 169.079715 39.420215 
L 169.125427 50.317431 
L 169.148235 49.977147 
L 169.193755 38.851772 
L 169.261794 43.775106 
L 169.329548 57.924457 
L 169.35207 50.526376 
L 169.46421 39.493696 
L 169.531123 38.582236 
L 169.575578 44.632587 
L 169.59776 67.580104 
L 169.664123 42.209909 
L 169.686183 42.949144 
L 169.730214 50.842144 
L 169.774125 42.338165 
L 169.796036 42.215994 
L 169.817918 40.245194 
L 169.83977 40.916583 
L 169.970263 52.720052 
L 169.99191 41.985566 
L 170.035117 56.289187 
L 170.078208 43.252213 
L 170.099711 55.891864 
L 170.142631 42.121111 
L 170.185437 42.213643 
L 170.228131 41.877123 
L 170.376675 56.74527 
L 170.29196 40.080819 
L 170.397784 54.044827 
L 170.418866 40.839208 
L 170.50292 42.472989 
L 170.586539 41.800991 
L 170.607377 67.346388 
L 170.628187 41.654037 
L 170.73184 48.66732 
L 170.773115 44.887804 
L 170.834832 70.782115 
L 170.937171 38.888306 
L 170.957561 40.353831 
L 170.977926 71.929557 
L 171.018579 39.000297 
L 171.079366 57.963895 
L 171.180174 39.742625 
L 171.20026 40.112933 
L 171.280356 46.278956 
L 171.340169 43.64815 
L 171.360057 43.792089 
L 171.379921 51.308255 
L 171.459134 44.416887 
L 171.518289 39.403314 
L 171.53796 41.390223 
L 171.596828 68.401257 
L 171.655483 64.897495 
L 171.694468 39.786458 
L 171.75277 55.535108 
L 171.772158 61.618861 
L 171.810863 40.191953 
L 171.830181 39.604582 
L 171.849475 40.390448 
L 171.887996 62.492304 
L 171.983897 59.784532 
L 172.00301 44.089754 
L 172.098233 47.50719 
L 172.117211 55.272558 
L 172.155099 41.022677 
L 172.192899 41.100286 
L 172.211765 42.456201 
L 172.23061 73.838593 
L 172.30577 40.815031 
L 172.324506 48.872711 
L 172.361911 55.056288 
L 172.436465 43.300784 
L 172.492155 48.588156 
L 172.473613 42.002492 
L 172.547653 46.04189 
L 172.602962 39.792146 
L 172.63973 45.817708 
L 172.694725 42.775856 
L 172.731284 61.111971 
L 172.767761 41.864638 
L 172.84047 46.329919 
L 172.858596 48.194998 
L 172.876701 42.519931 
L 172.894787 43.773804 
L 172.912852 67.529733 
L 173.002877 41.129202 
L 173.020822 41.366882 
L 173.056652 55.095446 
L 173.110248 41.271621 
L 173.128074 39.835144 
L 173.145881 41.961524 
L 173.163668 64.292546 
L 173.252309 42.507262 
L 173.28763 58.072699 
L 173.375597 49.63999 
L 173.463087 39.857127 
L 173.480528 41.013235 
L 173.49795 54.850825 
L 173.584782 43.071102 
L 173.705568 51.474085 
L 173.739913 55.238819 
L 173.791294 41.265961 
L 173.808385 54.964759 
L 173.85955 39.532363 
L 173.893569 52.023432 
L 173.944465 56.97737 
L 174.012077 43.670874 
L 174.028936 55.608325 
L 174.112969 42.275363 
L 174.163179 47.068517 
L 174.179881 43.267025 
L 174.296316 61.230707 
L 174.229884 42.986687 
L 174.312881 59.976904 
L 174.428364 41.73803 
L 174.444795 42.856853 
L 174.461208 58.733637 
L 174.493986 42.203616 
L 174.559342 51.669329 
L 174.608187 40.013861 
L 174.640668 55.655194 
L 174.689268 43.8052 
L 174.705435 57.096907 
L 174.769944 42.629791 
L 174.802102 51.15574 
L 174.882218 42.246089 
L 174.850219 63.016993 
L 174.930097 44.253656 
L 174.977835 44.207479 
L 175.072891 65.697954 
L 175.135952 43.103719 
L 175.198768 46.044966 
L 175.230084 45.713455 
L 175.308111 62.94993 
L 175.432176 42.654767 
L 175.447617 54.044173 
L 175.539957 43.223023 
L 175.57062 40.441715 
L 175.585929 41.373886 
L 175.601225 52.644425 
L 175.692693 41.490629 
L 175.707887 41.831507 
L 175.768523 62.217048 
L 175.813851 51.475639 
L 175.828932 43.942866 
L 175.874091 69.246817 
L 175.934107 46.271675 
L 175.964032 60.971495 
L 176.023716 43.543641 
L 176.053475 54.285696 
L 176.157203 44.325216 
L 176.171968 48.905224 
L 176.216179 42.444269 
L 176.245587 47.433969 
L 176.304241 67.408627 
L 176.348093 43.883274 
L 176.449953 65.046279 
L 176.478939 56.724322 
L 176.565584 45.692939 
L 176.551176 61.166316 
L 176.594363 47.082776 
L 176.637436 71.744235 
L 176.680394 44.585937 
L 176.694688 47.201429 
L 176.708969 44.794966 
L 176.723238 52.607213 
L 176.737494 47.057372 
L 176.751738 57.817375 
L 176.836937 42.578183 
L 176.851093 41.783157 
L 176.879368 46.100564 
L 176.977944 60.530816 
L 176.921689 44.678952 
L 176.991978 49.749147 
L 177.089871 43.126576 
L 177.117732 47.308435 
L 177.228698 63.990935 
L 177.311425 43.428793 
L 177.352631 46.702088 
L 177.366342 52.808717 
L 177.407408 43.087154 
L 177.44837 43.566878 
L 177.462001 44.340018 
L 177.489228 57.072412 
L 177.584164 53.116064 
L 177.59768 45.844185 
L 177.62468 59.324765 
L 177.665095 50.78244 
L 177.678545 72.189916 
L 177.745624 44.165836 
L 177.772378 45.267923 
L 177.785738 44.323634 
L 177.799088 46.329158 
L 177.812426 65.354738 
L 177.852375 43.418033 
L 177.905487 44.796444 
L 177.931978 44.26875 
L 177.984829 47.515424 
L 178.01119 42.240872 
L 178.037509 59.364403 
L 178.103117 43.655634 
L 178.116207 44.574069 
L 178.23354 71.268609 
L 178.298359 45.537823 
L 178.350028 47.931622 
L 178.375801 43.962876 
L 178.388672 44.301686 
L 178.50405 69.015023 
L 178.669267 43.43913 
L 178.529578 86.686455 
L 178.681907 44.88682 
L 178.744955 57.4202 
L 178.782667 42.896091 
L 178.807759 56.52275 
L 178.857827 67.897311 
L 178.920194 45.914149 
L 178.945074 63.903426 
L 179.068901 60.456836 
L 179.093553 45.006605 
L 179.155019 61.704512 
L 179.17954 45.217841 
L 179.277254 44.879504 
L 179.30159 72.87764 
L 179.37438 44.37591 
L 179.422725 49.500186 
L 179.470926 53.732628 
L 179.494973 45.122562 
L 179.506983 57.175827 
L 179.590803 44.886146 
L 179.602742 46.426826 
L 179.65041 57.63555 
L 179.674191 46.324678 
L 179.709798 51.244861 
L 179.768968 61.160997 
L 179.827922 44.702136 
L 179.921804 57.279907 
L 179.933501 52.778753 
L 180.026773 44.648627 
L 179.980204 57.692683 
L 180.050007 48.149606 
L 180.084796 76.547506 
L 180.131065 45.187449 
L 180.177201 51.502027 
L 180.20022 44.899301 
L 180.257625 53.731221 
L 180.29197 46.338319 
L 180.326242 52.210925 
L 180.360442 44.703915 
L 180.462609 66.727731 
L 180.473921 52.947201 
L 180.552885 43.922978 
L 180.50781 53.927495 
L 180.586609 48.442933 
L 180.609052 68.73189 
L 180.642659 44.257908 
L 180.698516 57.485019 
L 180.743063 45.619907 
L 180.776393 66.681249 
L 180.820726 48.431279 
L 180.83179 48.800043 
L 180.842847 48.526598 
L 180.886998 61.326732 
L 180.942018 44.909614 
L 180.963974 57.004513 
L 180.97494 47.467635 
L 180.9859 65.167423 
L 181.007796 44.802593 
L 181.084199 56.219502 
L 181.160244 46.686089 
L 181.138553 66.890044 
L 181.192725 48.227253 
L 181.279023 45.600022 
L 181.311267 62.57746 
L 181.364863 44.491216 
L 181.428946 47.36088 
L 181.471526 44.979539 
L 181.535188 69.34173 
L 181.556352 46.507148 
L 181.651253 50.932299 
L 181.661763 50.720603 
L 181.672266 46.052262 
L 181.735143 65.648758 
L 181.776926 48.827282 
L 181.797776 64.412082 
L 181.8186 46.63999 
L 181.880912 47.740771 
L 181.891273 45.53611 
L 181.953306 55.319229 
L 181.963621 74.087015 
L 181.984233 45.844973 
L 182.056166 49.723462 
L 182.127781 71.553352 
L 182.148184 48.335814 
L 182.158376 57.002151 
L 182.239682 45.656849 
L 182.259944 60.057569 
L 182.280181 71.595513 
L 182.300393 45.253019 
L 182.350812 47.065687 
L 182.391035 46.542285 
L 182.471181 61.305877 
L 182.53103 47.800009 
L 182.550931 66.913328 
L 182.570807 50.514004 
L 182.580736 66.439078 
L 182.630289 45.37389 
L 182.679691 53.876613 
L 182.748601 47.438863 
L 182.69941 69.023984 
L 182.768236 50.495392 
L 182.826997 68.730913 
L 182.846537 45.702262 
L 182.885546 59.663545 
L 182.963282 49.360082 
L 182.992337 61.674593 
L 183.00201 52.967794 
L 183.030996 45.66779 
L 183.059929 60.140515 
L 183.117641 47.750575 
L 183.12724 47.301225 
L 183.136833 67.856966 
L 183.241981 58.89485 
L 183.336981 46.560584 
L 183.355914 50.403246 
L 183.422005 84.430013 
L 183.459651 47.012617 
L 183.553383 73.747239 
L 183.572064 50.234302 
L 183.618673 45.798672 
L 183.600046 61.486471 
L 183.655864 47.73162 
L 183.766926 66.75633 
L 183.886387 46.929293 
L 183.99588 65.061357 
L 184.041285 46.57674 
L 184.023138 72.893622 
L 184.113667 48.079229 
L 184.122692 47.823115 
L 184.140727 61.278443 
L 184.221636 45.938159 
L 184.230601 46.343211 
L 184.275352 66.259056 
L 184.373369 51.974174 
L 184.426583 72.563052 
L 184.470794 46.582999 
L 184.506077 81.293935 
L 184.567637 46.362979 
L 184.593948 61.354806 
L 184.602708 70.489766 
L 184.646441 48.251657 
L 184.690056 49.947371 
L 184.698765 49.832061 
L 184.70747 78.604493 
L 184.75092 48.078468 
L 184.811556 65.999109 
L 184.889183 66.658537 
L 184.932149 46.217447 
L 185.043328 60.010179 
L 185.051848 72.937922 
L 185.111367 47.580248 
L 185.14528 51.221348 
L 185.162209 47.584626 
L 185.196016 64.530841 
L 185.238174 56.757375 
L 185.3054 64.177331 
L 185.28862 47.3534 
L 185.338908 52.745649 
L 185.347274 53.370356 
L 185.355636 48.48147 
L 185.363994 51.876375 
L 185.372347 65.359289 
L 185.455643 47.184123 
L 185.472251 58.46693 
L 185.513696 46.666877 
L 185.56329 52.820995 
L 185.637396 70.491733 
L 185.653819 47.012374 
L 185.670224 65.187096 
L 185.776455 47.522139 
L 185.719341 81.90235 
L 185.792737 49.657992 
L 185.800871 49.091985 
L 185.865801 48.040079 
L 185.930471 73.671016 
L 186.026993 47.153727 
L 186.075039 54.198198 
L 186.099008 48.382617 
L 186.186593 84.80551 
L 186.297382 49.377499 
L 186.399582 74.349637 
L 186.360351 48.92529 
L 186.407417 55.771191 
L 186.47776 48.05461 
L 186.446535 80.631485 
L 186.493351 49.309308 
L 186.50114 64.844808 
L 186.602064 60.552729 
L 186.617535 47.59307 
L 186.686971 71.922049 
L 186.717736 50.636776 
L 186.733097 71.991126 
L 186.771435 48.048582 
L 186.824955 53.028061 
L 186.908702 73.055529 
L 186.870689 48.320405 
L 186.916294 50.529443 
L 186.923883 47.514619 
L 186.9542 62.893123 
L 187.00712 51.108901 
L 187.067388 70.271747 
L 187.044814 47.936045 
L 187.112442 56.724108 
L 187.127432 49.415725 
L 187.142408 67.402239 
L 187.22453 49.462483 
L 187.335847 70.934754 
L 187.291412 48.30962 
L 187.343241 55.863216 
L 187.358018 48.69436 
L 187.416994 68.136724 
L 187.431705 59.863202 
L 187.439055 78.690269 
L 187.475756 48.826717 
L 187.541608 75.18907 
L 187.556205 49.191662 
L 187.65802 54.810643 
L 187.715913 51.52063 
L 187.672512 61.321406 
L 187.737569 52.979457 
L 187.751991 76.088926 
L 187.816729 47.6375 
L 187.852583 63.538752 
L 187.888357 48.641433 
L 187.95967 66.895915 
L 187.966784 52.088899 
L 188.044831 65.14956 
L 188.023583 49.461976 
L 188.073119 50.766396 
L 188.087244 53.192136 
L 188.094302 71.188771 
L 188.115458 48.594499 
L 188.192792 69.295985 
L 188.206814 48.054671 
L 188.304622 63.791465 
L 188.34636 49.387826 
L 188.318547 67.936109 
L 188.4226 50.517978 
L 188.429513 50.188509 
L 188.484711 79.023452 
L 188.525987 49.014963 
L 188.539722 51.716125 
L 188.546585 50.582224 
L 188.553446 70.72062 
L 188.567157 48.266872 
L 188.656002 59.241747 
L 188.710433 49.079014 
L 188.669627 74.810267 
L 188.77145 51.45638 
L 188.798495 83.346608 
L 188.825495 49.40447 
L 188.87936 50.387098 
L 188.892798 62.832041 
L 188.906225 48.447065 
L 188.993229 54.630524 
L 189.086405 49.652067 
L 189.059838 69.634054 
L 189.106302 50.122397 
L 189.126174 49.353219 
L 189.22517 78.026929 
L 189.258034 49.467924 
L 189.336637 52.215141 
L 189.382312 60.370914 
L 189.362753 48.8108 
L 189.427859 52.939848 
L 189.466797 75.640915 
L 189.531487 49.891599 
L 189.589486 75.679957 
L 189.640868 51.504305 
L 189.730393 69.530244 
L 189.698477 49.338158 
L 189.755881 56.344057 
L 189.806737 52.775742 
L 189.787685 64.967707 
L 189.844774 55.123681 
L 189.901662 68.814366 
L 189.863759 48.661369 
L 189.958351 59.717352 
L 189.970921 49.009942 
L 190.033627 71.082993 
L 190.071134 51.084595 
L 190.145889 77.544121 
L 190.176935 49.787381 
L 190.282047 49.612002 
L 190.294368 63.22804 
L 190.300525 75.703461 
L 190.32513 50.610412 
L 190.398721 54.468326 
L 190.423177 50.77151 
L 190.435391 71.712116 
L 190.490241 55.296158 
L 190.514559 91.373506 
L 190.569142 49.671153 
L 190.599386 53.465843 
L 190.629573 49.071338 
L 190.641632 63.783733 
L 190.689779 53.209283 
L 190.719799 73.708882 
L 190.791618 50.586731 
L 190.803557 60.174225 
L 190.916539 49.498667 
L 190.875006 84.690946 
L 190.922464 50.694234 
L 191.022851 70.001367 
L 190.934307 50.594778 
L 191.034621 56.726154 
L 191.128468 51.872641 
L 191.064007 80.314838 
L 191.140161 57.246309 
L 191.215958 78.16883 
L 191.192674 50.725774 
L 191.245017 57.048607 
L 191.291402 50.395712 
L 191.314544 68.087643 
L 191.320325 56.984075 
L 191.326103 87.560626 
L 191.406785 52.163593 
L 191.429763 59.431906 
L 191.464169 51.612168 
L 191.446975 102.500496 
L 191.538465 57.143452 
L 191.618096 74.396821 
L 191.57833 50.101596 
L 191.646441 61.329266 
L 191.697337 51.341864 
L 191.702982 70.615702 
L 191.736812 66.423035 
L 191.742443 79.108336 
L 191.837878 50.958402 
L 191.86584 63.595602 
L 191.943878 52.446891 
L 191.971658 77.01205 
L 192.060233 51.505662 
L 191.988302 80.135257 
L 192.087813 54.578026 
L 192.186715 50.679542 
L 192.208611 78.649112 
L 192.241399 50.113517 
L 192.317649 70.026436 
L 192.323081 70.428894 
L 192.328512 64.807055 
L 192.339368 50.206196 
L 192.404352 72.416967 
L 192.436747 55.311692 
L 192.501341 72.930728 
L 192.469076 51.233722 
L 192.544261 59.371076 
L 192.597751 83.781266 
L 192.661707 50.659324 
L 192.672341 58.683223 
L 192.677656 80.913141 
L 192.757167 52.625493 
L 192.778305 72.445836 
L 192.788863 51.098333 
L 192.888823 56.345908 
L 192.982956 93.666761 
L 192.956863 51.678301 
L 192.998591 52.788358 
L 193.014212 70.161065 
L 193.097267 51.097124 
L 193.107619 52.206636 
L 193.117964 73.446686 
L 193.215916 54.348077 
L 193.231327 50.687414 
L 193.262107 68.114021 
L 193.292828 52.914979 
L 193.297943 65.787495 
L 193.394813 51.086541 
L 193.399895 53.813795 
L 193.404976 54.095634 
L 193.410055 51.604965 
L 193.415133 52.717234 
L 193.521395 73.955088 
L 193.480996 50.634887 
L 193.531478 65.700653 
L 193.606907 51.660333 
L 193.561692 67.116966 
L 193.636981 64.577587 
L 193.641987 91.382708 
L 193.686979 52.531462 
L 193.746773 57.974409 
L 193.751746 58.330257 
L 193.756717 56.073173 
L 193.845941 95.816819 
L 193.806347 51.256485 
L 193.865702 51.551977 
L 193.954327 72.855392 
L 193.93959 51.349349 
L 193.983761 56.577417 
L 194.037585 51.476149 
L 193.998458 63.148383 
L 194.08149 55.22283 
L 194.188313 70.09776 
L 194.115556 51.523269 
L 194.193152 58.179781 
L 194.255925 52.475354 
L 194.275191 79.608156 
L 194.289626 57.013331 
L 194.356817 72.105438 
L 194.308852 50.85485 
L 194.399864 54.77048 
L 194.485615 71.486797 
L 194.418959 51.617532 
L 194.509354 63.669169 
L 194.570914 53.080205 
L 194.589808 79.945868 
L 194.608681 64.509318 
L 194.613395 82.406951 
L 194.63224 51.883103 
L 194.71677 53.967562 
L 194.735495 85.246082 
L 194.744849 51.241684 
L 194.824142 60.864442 
L 194.852035 51.621691 
L 194.916932 66.829384 
L 194.930805 55.578831 
L 195.022986 77.872489 
L 194.949283 51.620098 
L 195.04136 63.203017 
L 195.114645 52.522084 
L 195.082623 79.594102 
L 195.155722 54.62253 
L 195.16028 55.003817 
L 195.223953 79.114648 
L 195.269281 52.091382 
L 195.368557 80.059089 
L 195.391035 72.580874 
L 195.422451 51.976901 
L 195.444854 72.973603 
L 195.502958 57.54557 
L 195.574184 95.969869 
L 195.516336 53.958816 
L 195.609679 67.386951 
L 195.706892 53.003517 
L 195.640674 68.429686 
L 195.720103 57.30703 
L 195.799143 71.754243 
L 195.807902 53.256785 
L 195.829777 54.771867 
L 195.847256 52.305373 
L 195.947396 79.225544 
L 196.055543 52.679009 
L 196.059854 52.732421 
L 196.167254 79.535522 
L 196.115791 52.050597 
L 196.171535 56.037209 
L 196.197199 52.531103 
L 196.180094 74.522327 
L 196.28245 55.294024 
L 196.286701 72.445933 
L 196.354562 52.375915 
L 196.392609 56.115685 
L 196.405271 53.143461 
L 196.426353 67.561133 
L 196.476838 63.483884 
L 196.493631 53.247031 
L 196.564809 68.631192 
L 196.606532 52.482532 
L 196.619028 77.945755 
L 196.673066 62.587891 
L 196.677215 82.433542 
L 196.689656 53.68003 
L 196.780602 64.903278 
L 196.862838 53.312139 
L 196.829994 70.128385 
L 196.891522 55.058995 
L 196.993552 69.718459 
L 196.932411 53.062793 
L 196.99762 55.579288 
L 197.013881 53.376051 
L 197.046354 71.581845 
L 197.070665 64.220503 
L 197.155471 82.568319 
L 197.171574 53.187239 
L 197.179619 69.164729 
L 197.235826 52.718188 
L 197.279851 79.225993 
L 197.291837 54.979346 
L 197.351635 52.811591 
L 197.327743 71.268961 
L 197.403282 53.784206 
L 197.454763 77.142718 
L 197.510023 53.04968 
L 197.513963 53.503099 
L 197.592559 91.61476 
L 197.572946 52.809866 
L 197.623891 55.740877 
L 197.643442 53.675052 
L 197.659066 77.299496 
L 197.705849 53.603641 
L 197.760257 91.949387 
L 197.771892 54.490166 
L 197.872382 55.166909 
L 197.876234 53.096 
L 197.93775 71.210769 
L 197.941587 62.864649 
L 197.945423 79.332954 
L 198.02577 54.29271 
L 198.052464 64.09397 
L 198.124697 53.970604 
L 198.079114 92.533428 
L 198.162586 61.040106 
L 198.23433 79.208923 
L 198.173935 53.886773 
L 198.275721 70.846407 
L 198.286991 53.399184 
L 198.305757 96.702308 
L 198.395531 56.64302 
L 198.399261 56.134093 
L 198.406718 68.710824 
L 198.410445 80.119915 
L 198.48481 54.364056 
L 198.518162 74.457512 
L 198.525565 54.450084 
L 198.610449 76.093474 
L 198.63252 57.000812 
L 198.669237 54.427043 
L 198.746073 78.080782 
L 198.775248 82.5477 
L 198.858835 53.751668 
L 198.862459 53.694702 
L 198.974414 80.035648 
L 198.909502 53.689933 
L 198.978012 61.599366 
L 199.060559 53.726399 
L 199.028308 72.165211 
L 199.082024 61.810799 
L 199.110599 54.649037 
L 199.192473 79.942607 
L 199.25626 54.017458 
L 199.295117 84.257744 
L 199.302172 55.332404 
L 199.333881 81.975684 
L 199.379574 53.74099 
L 199.411132 55.883118 
L 199.446124 54.076984 
L 199.418136 69.124878 
L 199.4601 61.61948 
L 199.463592 78.458605 
L 199.494986 53.953346 
L 199.568003 54.619583 
L 199.623415 84.458237 
L 199.640692 54.548237 
L 199.678637 56.98613 
L 199.68897 54.820987 
L 199.737104 77.705881 
L 199.781672 58.423654 
L 199.788518 69.449895 
L 199.829532 54.064057 
L 199.894258 62.659829 
L 199.99931 54.661401 
L 199.965497 83.072417 
L 200.002688 56.241833 
L 200.019564 75.732959 
L 200.09697 54.607859 
L 200.110395 58.959797 
L 200.184029 55.076131 
L 200.13051 68.29459 
L 200.214056 55.624042 
L 200.283902 77.482031 
L 200.273942 54.487384 
L 200.323679 56.944329 
L 200.36666 81.188815 
L 200.34353 54.923542 
L 200.442425 65.260903 
L 200.537452 54.415616 
L 200.501473 77.62046 
L 200.557043 55.898149 
L 200.602663 82.095602 
L 200.667612 79.637032 
L 200.761328 55.383652 
L 200.725844 81.158183 
L 200.780649 61.106721 
L 200.790301 80.519517 
L 200.844888 56.251217 
L 200.889704 61.323659 
L 200.902486 55.247985 
L 200.972606 78.457714 
L 200.9885 56.208607 
L 201.020241 83.430819 
L 201.026582 54.658832 
L 201.099322 55.697341 
L 201.199984 78.355163 
L 201.193711 55.687762 
L 201.212523 60.234056 
L 201.215656 60.272477 
L 201.262581 54.763075 
L 201.253207 72.99881 
L 201.324936 57.263521 
L 201.387052 75.405209 
L 201.40564 55.116104 
L 201.433482 57.850269 
L 201.464362 55.693262 
L 201.470531 70.366564 
L 201.529018 58.457394 
L 201.568914 88.67673 
L 201.633154 55.275839 
L 201.639258 59.067985 
L 201.663655 80.942363 
L 201.684971 55.737673 
L 201.757843 77.407517 
L 201.866539 55.525892 
L 201.833404 78.628736 
L 201.869548 58.261625 
L 201.977497 76.788496 
L 201.923612 55.712822 
L 201.98646 74.48869 
L 201.998404 56.505519 
L 202.016302 80.123958 
L 202.099567 57.455599 
L 202.135121 75.852858 
L 202.197154 55.829393 
L 202.208942 56.952579 
L 202.302944 97.542638 
L 202.288292 56.573737 
L 202.329283 65.479699 
L 202.335131 55.893216 
L 202.381834 76.72223 
L 202.431309 70.84336 
L 202.434215 91.530042 
L 202.454539 56.146624 
L 202.541355 74.317815 
L 202.596099 85.273179 
L 202.659255 55.618095 
L 202.6936 96.536221 
L 202.7763 74.876651 
L 202.886855 55.959674 
L 202.824584 94.293231 
L 202.88968 57.262108 
L 202.937626 83.811767 
L 202.96014 55.809772 
L 202.999464 57.575781 
L 203.00227 56.445279 
L 203.024694 81.867903 
L 203.075034 65.437148 
L 203.11965 91.562417 
L 203.125219 56.264893 
L 203.183571 60.469888 
L 203.186344 58.277237 
L 203.211284 96.854656 
L 203.266567 64.226319 
L 203.324412 90.243001 
L 203.351885 56.600375 
L 203.37657 64.078386 
L 203.401218 57.109225 
L 203.434023 98.61927 
L 203.488551 57.990717 
L 203.542896 79.229541 
L 203.53747 56.348936 
L 203.599762 62.931969 
L 203.642954 55.944887 
L 203.618673 72.771943 
L 203.683343 57.892493 
L 203.715581 82.308275 
L 203.739717 56.457715 
L 203.793225 63.916408 
L 203.881128 55.861103 
L 203.817246 78.729091 
L 203.905018 59.852713 
L 203.973838 89.688443 
L 203.920926 56.242685 
L 204.016043 64.12227 
L 204.084393 78.0266 
L 204.063393 56.396261 
L 204.128927 72.446808 
L 204.196801 57.156953 
L 204.16812 87.234644 
L 204.238429 75.967527 
L 204.326534 86.460396 
L 204.331701 56.358006 
L 204.357515 75.28754 
L 204.444974 56.844438 
L 204.450104 56.56448 
L 204.452669 58.925436 
L 204.511537 79.505819 
L 204.503871 56.904826 
L 204.562553 66.261967 
L 204.608331 56.634379 
L 204.628634 74.356558 
L 204.638777 60.880388 
L 204.666636 95.255767 
L 204.72221 56.935069 
L 204.747407 59.178185 
L 204.787642 57.10585 
L 204.810231 80.418046 
L 204.847808 60.138714 
L 204.852811 95.499083 
L 204.860314 56.711896 
L 204.960017 68.29811 
L 205.068985 56.850526 
L 205.026971 85.065133 
L 205.071453 58.605121 
L 205.140405 87.955878 
L 205.113352 57.073108 
L 205.182125 73.098259 
L 205.235957 83.112447 
L 205.294479 57.499062 
L 205.350365 56.947001 
L 205.420555 88.602338 
L 205.447099 57.432094 
L 205.533667 60.216185 
L 205.636464 103.033799 
L 205.543257 57.137054 
L 205.643611 60.30274 
L 205.700678 80.987873 
L 205.712541 57.933784 
L 205.762274 76.970212 
L 205.8307 57.26539 
L 205.86598 123.587373 
L 205.875375 61.744122 
L 205.917585 57.171053 
L 205.908215 78.830639 
L 205.980694 66.680804 
L 205.983027 72.229586 
L 206.017976 57.576988 
L 206.089966 63.699794 
L 206.096916 57.928105 
L 206.13162 75.109556 
L 206.133931 93.812034 
L 206.239879 58.375458 
L 206.265112 79.035605 
L 206.299457 57.450588 
L 206.351978 60.60817 
L 206.417958 58.233341 
L 206.363373 84.446945 
L 206.45198 61.761127 
L 206.560372 82.766052 
L 206.474622 58.581669 
L 206.562622 61.22723 
L 206.645669 58.469894 
L 206.600832 80.027643 
L 206.652384 59.915006 
L 206.759445 57.576275 
L 206.766112 79.999373 
L 206.797192 57.725662 
L 206.852544 86.531665 
L 206.876839 58.696925 
L 206.88787 81.737136 
L 206.923119 57.852202 
L 206.989004 67.373284 
L 207.017471 58.183569 
L 207.037149 86.818803 
L 207.096041 69.793187 
L 207.098218 90.718785 
L 207.200212 58.09009 
L 207.2067 66.523374 
L 207.247733 58.601435 
L 207.316606 83.147929 
L 207.325195 58.477542 
L 207.350933 86.015749 
L 207.427903 64.386162 
L 207.430036 85.233861 
L 207.449218 59.107971 
L 207.538438 61.821606 
L 207.614522 82.762048 
L 207.620846 58.500049 
L 207.646118 71.514358 
L 207.660842 58.174852 
L 207.736353 89.997172 
L 207.757266 61.459026 
L 207.857273 89.171358 
L 207.832329 57.986547 
L 207.86973 64.6661 
L 207.938075 58.831112 
L 207.894616 79.449066 
L 207.975233 70.8406 
L 208.024643 105.778649 
L 208.043133 58.4508 
L 208.084147 69.055017 
L 208.129142 58.799577 
L 208.104615 92.59845 
L 208.196401 61.819187 
L 208.2086 58.633836 
L 208.216727 79.13186 
L 208.287668 65.573203 
L 208.370376 81.110012 
L 208.313939 59.597713 
L 208.398522 66.375903 
L 208.43664 80.372652 
L 208.406554 58.740478 
L 208.50862 71.730902 
L 208.512609 58.81467 
L 208.615991 88.290177 
L 208.619955 66.949817 
L 208.623917 59.195384 
L 208.635797 79.886259 
L 208.689151 62.503716 
" style="fill:none;stroke:#000000;stroke-linecap:square;stroke-width:0.5;"/>
   </g>
   <g id="line2d_53">
    <path clip-path="url(#p29823bb206)" d="M 63.08053 25.777029 
L 100.288832 25.89999 
L 109.787088 26.165463 
L 115.729285 26.55112 
L 120.53268 27.089148 
L 124.59376 27.766223 
L 128.413651 28.626576 
L 132.188718 29.702837 
L 136.324437 31.126393 
L 140.84235 32.927135 
L 146.354425 35.376793 
L 153.785088 38.942219 
L 165.93083 45.04953 
L 199.056979 62.043467 
L 208.691124 66.996921 
L 208.691124 66.996921 
" style="fill:none;stroke:#ff0000;stroke-linecap:square;stroke-width:2;"/>
   </g>
   <g id="patch_3">
    <path d="M 55.8 128.92249 
L 55.8 11.549923 
" style="fill:none;stroke:#000000;stroke-linecap:square;stroke-linejoin:miter;stroke-width:0.8;"/>
   </g>
   <g id="patch_4">
    <path d="M 215.971654 128.92249 
L 215.971654 11.549923 
" style="fill:none;stroke:#000000;stroke-linecap:square;stroke-linejoin:miter;stroke-width:0.8;"/>
   </g>
   <g id="patch_5">
    <path d="M 55.8 128.92249 
L 215.971654 128.92249 
" style="fill:none;stroke:#000000;stroke-linecap:square;stroke-linejoin:miter;stroke-width:0.8;"/>
   </g>
   <g id="patch_6">
    <path d="M 55.8 11.549923 
L 215.971654 11.549923 
" style="fill:none;stroke:#000000;stroke-linecap:square;stroke-linejoin:miter;stroke-width:0.8;"/>
   </g>
   <g id="legend_1">
    <g id="patch_7">
     <path d="M 62.8 123.92249 
L 144.19375 123.92249 
Q 146.19375 123.92249 146.19375 121.92249 
L 146.19375 93.56624 
Q 146.19375 91.56624 144.19375 91.56624 
L 62.8 91.56624 
Q 60.8 91.56624 60.8 93.56624 
L 60.8 121.92249 
Q 60.8 123.92249 62.8 123.92249 
z
" style="fill:#ffffff;opacity:0.8;stroke:#cccccc;stroke-linejoin:miter;"/>
    </g>
    <g id="line2d_54">
     <path d="M 64.8 99.664678 
L 84.8 99.664678 
" style="fill:none;stroke:#000000;stroke-linecap:square;stroke-width:0.5;"/>
    </g>
    <g id="line2d_55"/>
    <g id="text_10">
     <!-- simulated -->
     <defs>
      <path d="M 44.28125 53.078125 
L 44.28125 44.578125 
Q 40.484375 46.53125 36.375 47.5 
Q 32.28125 48.484375 27.875 48.484375 
Q 21.1875 48.484375 17.84375 46.4375 
Q 14.5 44.390625 14.5 40.28125 
Q 14.5 37.15625 16.890625 35.375 
Q 19.28125 33.59375 26.515625 31.984375 
L 29.59375 31.296875 
Q 39.15625 29.25 43.1875 25.515625 
Q 47.21875 21.78125 47.21875 15.09375 
Q 47.21875 7.46875 41.1875 3.015625 
Q 35.15625 -1.421875 24.609375 -1.421875 
Q 20.21875 -1.421875 15.453125 -0.5625 
Q 10.6875 0.296875 5.421875 2 
L 5.421875 11.28125 
Q 10.40625 8.6875 15.234375 7.390625 
Q 20.0625 6.109375 24.8125 6.109375 
Q 31.15625 6.109375 34.5625 8.28125 
Q 37.984375 10.453125 37.984375 14.40625 
Q 37.984375 18.0625 35.515625 20.015625 
Q 33.0625 21.96875 24.703125 23.78125 
L 21.578125 24.515625 
Q 13.234375 26.265625 9.515625 29.90625 
Q 5.8125 33.546875 5.8125 39.890625 
Q 5.8125 47.609375 11.28125 51.796875 
Q 16.75 56 26.8125 56 
Q 31.78125 56 36.171875 55.265625 
Q 40.578125 54.546875 44.28125 53.078125 
z
" id="DejaVuSans-115"/>
      <path d="M 9.421875 54.6875 
L 18.40625 54.6875 
L 18.40625 0 
L 9.421875 0 
z
M 9.421875 75.984375 
L 18.40625 75.984375 
L 18.40625 64.59375 
L 9.421875 64.59375 
z
" id="DejaVuSans-105"/>
      <path d="M 52 44.1875 
Q 55.375 50.25 60.0625 53.125 
Q 64.75 56 71.09375 56 
Q 79.640625 56 84.28125 50.015625 
Q 88.921875 44.046875 88.921875 33.015625 
L 88.921875 0 
L 79.890625 0 
L 79.890625 32.71875 
Q 79.890625 40.578125 77.09375 44.375 
Q 74.3125 48.1875 68.609375 48.1875 
Q 61.625 48.1875 57.5625 43.546875 
Q 53.515625 38.921875 53.515625 30.90625 
L 53.515625 0 
L 44.484375 0 
L 44.484375 32.71875 
Q 44.484375 40.625 41.703125 44.40625 
Q 38.921875 48.1875 33.109375 48.1875 
Q 26.21875 48.1875 22.15625 43.53125 
Q 18.109375 38.875 18.109375 30.90625 
L 18.109375 0 
L 9.078125 0 
L 9.078125 54.6875 
L 18.109375 54.6875 
L 18.109375 46.1875 
Q 21.1875 51.21875 25.484375 53.609375 
Q 29.78125 56 35.6875 56 
Q 41.65625 56 45.828125 52.96875 
Q 50 49.953125 52 44.1875 
z
" id="DejaVuSans-109"/>
      <path d="M 8.5 21.578125 
L 8.5 54.6875 
L 17.484375 54.6875 
L 17.484375 21.921875 
Q 17.484375 14.15625 20.5 10.265625 
Q 23.53125 6.390625 29.59375 6.390625 
Q 36.859375 6.390625 41.078125 11.03125 
Q 45.3125 15.671875 45.3125 23.6875 
L 45.3125 54.6875 
L 54.296875 54.6875 
L 54.296875 0 
L 45.3125 0 
L 45.3125 8.40625 
Q 42.046875 3.421875 37.71875 1 
Q 33.40625 -1.421875 27.6875 -1.421875 
Q 18.265625 -1.421875 13.375 4.4375 
Q 8.5 10.296875 8.5 21.578125 
z
M 31.109375 56 
z
" id="DejaVuSans-117"/>
      <path d="M 9.421875 75.984375 
L 18.40625 75.984375 
L 18.40625 0 
L 9.421875 0 
z
" id="DejaVuSans-108"/>
      <path d="M 34.28125 27.484375 
Q 23.390625 27.484375 19.1875 25 
Q 14.984375 22.515625 14.984375 16.5 
Q 14.984375 11.71875 18.140625 8.90625 
Q 21.296875 6.109375 26.703125 6.109375 
Q 34.1875 6.109375 38.703125 11.40625 
Q 43.21875 16.703125 43.21875 25.484375 
L 43.21875 27.484375 
z
M 52.203125 31.203125 
L 52.203125 0 
L 43.21875 0 
L 43.21875 8.296875 
Q 40.140625 3.328125 35.546875 0.953125 
Q 30.953125 -1.421875 24.3125 -1.421875 
Q 15.921875 -1.421875 10.953125 3.296875 
Q 6 8.015625 6 15.921875 
Q 6 25.140625 12.171875 29.828125 
Q 18.359375 34.515625 30.609375 34.515625 
L 43.21875 34.515625 
L 43.21875 35.40625 
Q 43.21875 41.609375 39.140625 45 
Q 35.0625 48.390625 27.6875 48.390625 
Q 23 48.390625 18.546875 47.265625 
Q 14.109375 46.140625 10.015625 43.890625 
L 10.015625 52.203125 
Q 14.9375 54.109375 19.578125 55.046875 
Q 24.21875 56 28.609375 56 
Q 40.484375 56 46.34375 49.84375 
Q 52.203125 43.703125 52.203125 31.203125 
z
" id="DejaVuSans-97"/>
      <path d="M 18.3125 70.21875 
L 18.3125 54.6875 
L 36.8125 54.6875 
L 36.8125 47.703125 
L 18.3125 47.703125 
L 18.3125 18.015625 
Q 18.3125 11.328125 20.140625 9.421875 
Q 21.96875 7.515625 27.59375 7.515625 
L 36.8125 7.515625 
L 36.8125 0 
L 27.59375 0 
Q 17.1875 0 13.234375 3.875 
Q 9.28125 7.765625 9.28125 18.015625 
L 9.28125 47.703125 
L 2.6875 47.703125 
L 2.6875 54.6875 
L 9.28125 54.6875 
L 9.28125 70.21875 
z
" id="DejaVuSans-116"/>
      <path d="M 56.203125 29.59375 
L 56.203125 25.203125 
L 14.890625 25.203125 
Q 15.484375 15.921875 20.484375 11.0625 
Q 25.484375 6.203125 34.421875 6.203125 
Q 39.59375 6.203125 44.453125 7.46875 
Q 49.3125 8.734375 54.109375 11.28125 
L 54.109375 2.78125 
Q 49.265625 0.734375 44.1875 -0.34375 
Q 39.109375 -1.421875 33.890625 -1.421875 
Q 20.796875 -1.421875 13.15625 6.1875 
Q 5.515625 13.8125 5.515625 26.8125 
Q 5.515625 40.234375 12.765625 48.109375 
Q 20.015625 56 32.328125 56 
Q 43.359375 56 49.78125 48.890625 
Q 56.203125 41.796875 56.203125 29.59375 
z
M 47.21875 32.234375 
Q 47.125 39.59375 43.09375 43.984375 
Q 39.0625 48.390625 32.421875 48.390625 
Q 24.90625 48.390625 20.390625 44.140625 
Q 15.875 39.890625 15.1875 32.171875 
z
" id="DejaVuSans-101"/>
      <path d="M 45.40625 46.390625 
L 45.40625 75.984375 
L 54.390625 75.984375 
L 54.390625 0 
L 45.40625 0 
L 45.40625 8.203125 
Q 42.578125 3.328125 38.25 0.953125 
Q 33.9375 -1.421875 27.875 -1.421875 
Q 17.96875 -1.421875 11.734375 6.484375 
Q 5.515625 14.40625 5.515625 27.296875 
Q 5.515625 40.1875 11.734375 48.09375 
Q 17.96875 56 27.875 56 
Q 33.9375 56 38.25 53.625 
Q 42.578125 51.265625 45.40625 46.390625 
z
M 14.796875 27.296875 
Q 14.796875 17.390625 18.875 11.75 
Q 22.953125 6.109375 30.078125 6.109375 
Q 37.203125 6.109375 41.296875 11.75 
Q 45.40625 17.390625 45.40625 27.296875 
Q 45.40625 37.203125 41.296875 42.84375 
Q 37.203125 48.484375 30.078125 48.484375 
Q 22.953125 48.484375 18.875 42.84375 
Q 14.796875 37.203125 14.796875 27.296875 
z
" id="DejaVuSans-100"/>
     </defs>
     <g transform="translate(92.8 103.164678)scale(0.1 -0.1)">
      <use xlink:href="#DejaVuSans-115"/>
      <use x="52.099609" xlink:href="#DejaVuSans-105"/>
      <use x="79.882812" xlink:href="#DejaVuSans-109"/>
      <use x="177.294922" xlink:href="#DejaVuSans-117"/>
      <use x="240.673828" xlink:href="#DejaVuSans-108"/>
      <use x="268.457031" xlink:href="#DejaVuSans-97"/>
      <use x="329.736328" xlink:href="#DejaVuSans-116"/>
      <use x="368.945312" xlink:href="#DejaVuSans-101"/>
      <use x="430.46875" xlink:href="#DejaVuSans-100"/>
     </g>
    </g>
    <g id="line2d_56">
     <path d="M 64.8 114.342803 
L 84.8 114.342803 
" style="fill:none;stroke:#ff0000;stroke-linecap:square;stroke-width:2;"/>
    </g>
    <g id="line2d_57"/>
    <g id="text_11">
     <!-- target -->
     <defs>
      <path d="M 41.109375 46.296875 
Q 39.59375 47.171875 37.8125 47.578125 
Q 36.03125 48 33.890625 48 
Q 26.265625 48 22.1875 43.046875 
Q 18.109375 38.09375 18.109375 28.8125 
L 18.109375 0 
L 9.078125 0 
L 9.078125 54.6875 
L 18.109375 54.6875 
L 18.109375 46.1875 
Q 20.953125 51.171875 25.484375 53.578125 
Q 30.03125 56 36.53125 56 
Q 37.453125 56 38.578125 55.875 
Q 39.703125 55.765625 41.0625 55.515625 
z
" id="DejaVuSans-114"/>
      <path d="M 45.40625 27.984375 
Q 45.40625 37.75 41.375 43.109375 
Q 37.359375 48.484375 30.078125 48.484375 
Q 22.859375 48.484375 18.828125 43.109375 
Q 14.796875 37.75 14.796875 27.984375 
Q 14.796875 18.265625 18.828125 12.890625 
Q 22.859375 7.515625 30.078125 7.515625 
Q 37.359375 7.515625 41.375 12.890625 
Q 45.40625 18.265625 45.40625 27.984375 
z
M 54.390625 6.78125 
Q 54.390625 -7.171875 48.1875 -13.984375 
Q 42 -20.796875 29.203125 -20.796875 
Q 24.46875 -20.796875 20.265625 -20.09375 
Q 16.0625 -19.390625 12.109375 -17.921875 
L 12.109375 -9.1875 
Q 16.0625 -11.328125 19.921875 -12.34375 
Q 23.78125 -13.375 27.78125 -13.375 
Q 36.625 -13.375 41.015625 -8.765625 
Q 45.40625 -4.15625 45.40625 5.171875 
L 45.40625 9.625 
Q 42.625 4.78125 38.28125 2.390625 
Q 33.9375 0 27.875 0 
Q 17.828125 0 11.671875 7.65625 
Q 5.515625 15.328125 5.515625 27.984375 
Q 5.515625 40.671875 11.671875 48.328125 
Q 17.828125 56 27.875 56 
Q 33.9375 56 38.28125 53.609375 
Q 42.625 51.21875 45.40625 46.390625 
L 45.40625 54.6875 
L 54.390625 54.6875 
z
" id="DejaVuSans-103"/>
     </defs>
     <g transform="translate(92.8 117.842803)scale(0.1 -0.1)">
      <use xlink:href="#DejaVuSans-116"/>
      <use x="39.208984" xlink:href="#DejaVuSans-97"/>
      <use x="100.488281" xlink:href="#DejaVuSans-114"/>
      <use x="141.585938" xlink:href="#DejaVuSans-103"/>
      <use x="205.0625" xlink:href="#DejaVuSans-101"/>
      <use x="266.585938" xlink:href="#DejaVuSans-116"/>
     </g>
    </g>
   </g>
  </g>
 </g>
 <defs>
  <clipPath id="p29823bb206">
   <rect height="117.372567" width="160.171654" x="55.8" y="11.549923"/>
  </clipPath>
 </defs>
</svg>
