<?xml version="1.0" encoding="utf-8" standalone="no"?>
<!DOCTYPE svg PUBLIC "-//W3C//DTD SVG 1.1//EN"
  "http://www.w3.org/Graphics/SVG/1.1/DTD/svg11.dtd">
<!-- Created with matplotlib (https://matplotlib.org/) -->
<svg height="170.07874pt" version="1.1" viewBox="0 0 226.771654 170.07874" width="226.771654pt" xmlns="http://www.w3.org/2000/svg" xmlns:xlink="http://www.w3.org/1999/xlink">
 <defs>
  <style type="text/css">
*{stroke-linecap:butt;stroke-linejoin:round;}
  </style>
 </defs>
 <g id="figure_1">
  <g id="patch_1">
   <path d="M 0 170.07874 
L 226.771654 170.07874 
L 226.771654 0 
L 0 0 
z
" style="fill:#ffffff;"/>
  </g>
  <g id="axes_1">
   <g id="patch_2">
    <path d="M 54.978125 128.92249 
L 215.971654 128.92249 
L 215.971654 13.405289 
L 54.978125 13.405289 
z
" style="fill:#ffffff;"/>
   </g>
   <g id="matplotlib.axis_1">
    <g id="xtick_1">
     <g id="line2d_1">
      <path clip-path="url(#pe02cfc304e)" d="M 88.182243 128.92249 
L 88.182243 13.405289 
" style="fill:none;stroke:#b0b0b0;stroke-linecap:square;stroke-width:0.8;"/>
     </g>
     <g id="line2d_2">
      <defs>
       <path d="M 0 0 
L 0 3.5 
" id="mfecf10ee42" style="stroke:#000000;stroke-width:0.8;"/>
      </defs>
      <g>
       <use style="stroke:#000000;stroke-width:0.8;" x="88.182243" xlink:href="#mfecf10ee42" y="128.92249"/>
      </g>
     </g>
     <g id="text_1">
      <!-- $\mathdefault{10^{-3}}$ -->
      <defs>
       <path d="M 12.40625 8.296875 
L 28.515625 8.296875 
L 28.515625 63.921875 
L 10.984375 60.40625 
L 10.984375 69.390625 
L 28.421875 72.90625 
L 38.28125 72.90625 
L 38.28125 8.296875 
L 54.390625 8.296875 
L 54.390625 0 
L 12.40625 0 
z
" id="DejaVuSans-49"/>
       <path d="M 31.78125 66.40625 
Q 24.171875 66.40625 20.328125 58.90625 
Q 16.5 51.421875 16.5 36.375 
Q 16.5 21.390625 20.328125 13.890625 
Q 24.171875 6.390625 31.78125 6.390625 
Q 39.453125 6.390625 43.28125 13.890625 
Q 47.125 21.390625 47.125 36.375 
Q 47.125 51.421875 43.28125 58.90625 
Q 39.453125 66.40625 31.78125 66.40625 
z
M 31.78125 74.21875 
Q 44.046875 74.21875 50.515625 64.515625 
Q 56.984375 54.828125 56.984375 36.375 
Q 56.984375 17.96875 50.515625 8.265625 
Q 44.046875 -1.421875 31.78125 -1.421875 
Q 19.53125 -1.421875 13.0625 8.265625 
Q 6.59375 17.96875 6.59375 36.375 
Q 6.59375 54.828125 13.0625 64.515625 
Q 19.53125 74.21875 31.78125 74.21875 
z
" id="DejaVuSans-48"/>
       <path d="M 10.59375 35.5 
L 73.1875 35.5 
L 73.1875 27.203125 
L 10.59375 27.203125 
z
" id="DejaVuSans-8722"/>
       <path d="M 40.578125 39.3125 
Q 47.65625 37.796875 51.625 33 
Q 55.609375 28.21875 55.609375 21.1875 
Q 55.609375 10.40625 48.1875 4.484375 
Q 40.765625 -1.421875 27.09375 -1.421875 
Q 22.515625 -1.421875 17.65625 -0.515625 
Q 12.796875 0.390625 7.625 2.203125 
L 7.625 11.71875 
Q 11.71875 9.328125 16.59375 8.109375 
Q 21.484375 6.890625 26.8125 6.890625 
Q 36.078125 6.890625 40.9375 10.546875 
Q 45.796875 14.203125 45.796875 21.1875 
Q 45.796875 27.640625 41.28125 31.265625 
Q 36.765625 34.90625 28.71875 34.90625 
L 20.21875 34.90625 
L 20.21875 43.015625 
L 29.109375 43.015625 
Q 36.375 43.015625 40.234375 45.921875 
Q 44.09375 48.828125 44.09375 54.296875 
Q 44.09375 59.90625 40.109375 62.90625 
Q 36.140625 65.921875 28.71875 65.921875 
Q 24.65625 65.921875 20.015625 65.03125 
Q 15.375 64.15625 9.8125 62.3125 
L 9.8125 71.09375 
Q 15.4375 72.65625 20.34375 73.4375 
Q 25.25 74.21875 29.59375 74.21875 
Q 40.828125 74.21875 47.359375 69.109375 
Q 53.90625 64.015625 53.90625 55.328125 
Q 53.90625 49.265625 50.4375 45.09375 
Q 46.96875 40.921875 40.578125 39.3125 
z
" id="DejaVuSans-51"/>
      </defs>
      <g transform="translate(76.432243 143.520928)scale(0.1 -0.1)">
       <use transform="translate(0 0.765625)" xlink:href="#DejaVuSans-49"/>
       <use transform="translate(63.623047 0.765625)" xlink:href="#DejaVuSans-48"/>
       <use transform="translate(128.203125 39.046875)scale(0.7)" xlink:href="#DejaVuSans-8722"/>
       <use transform="translate(186.855469 39.046875)scale(0.7)" xlink:href="#DejaVuSans-51"/>
      </g>
     </g>
    </g>
    <g id="xtick_2">
     <g id="line2d_3">
      <path clip-path="url(#pe02cfc304e)" d="M 124.679251 128.92249 
L 124.679251 13.405289 
" style="fill:none;stroke:#b0b0b0;stroke-linecap:square;stroke-width:0.8;"/>
     </g>
     <g id="line2d_4">
      <g>
       <use style="stroke:#000000;stroke-width:0.8;" x="124.679251" xlink:href="#mfecf10ee42" y="128.92249"/>
      </g>
     </g>
     <g id="text_2">
      <!-- $\mathdefault{10^{-2}}$ -->
      <defs>
       <path d="M 19.1875 8.296875 
L 53.609375 8.296875 
L 53.609375 0 
L 7.328125 0 
L 7.328125 8.296875 
Q 12.9375 14.109375 22.625 23.890625 
Q 32.328125 33.6875 34.8125 36.53125 
Q 39.546875 41.84375 41.421875 45.53125 
Q 43.3125 49.21875 43.3125 52.78125 
Q 43.3125 58.59375 39.234375 62.25 
Q 35.15625 65.921875 28.609375 65.921875 
Q 23.96875 65.921875 18.8125 64.3125 
Q 13.671875 62.703125 7.8125 59.421875 
L 7.8125 69.390625 
Q 13.765625 71.78125 18.9375 73 
Q 24.125 74.21875 28.421875 74.21875 
Q 39.75 74.21875 46.484375 68.546875 
Q 53.21875 62.890625 53.21875 53.421875 
Q 53.21875 48.921875 51.53125 44.890625 
Q 49.859375 40.875 45.40625 35.40625 
Q 44.1875 33.984375 37.640625 27.21875 
Q 31.109375 20.453125 19.1875 8.296875 
z
" id="DejaVuSans-50"/>
      </defs>
      <g transform="translate(112.929251 143.520928)scale(0.1 -0.1)">
       <use transform="translate(0 0.765625)" xlink:href="#DejaVuSans-49"/>
       <use transform="translate(63.623047 0.765625)" xlink:href="#DejaVuSans-48"/>
       <use transform="translate(128.203125 39.046875)scale(0.7)" xlink:href="#DejaVuSans-8722"/>
       <use transform="translate(186.855469 39.046875)scale(0.7)" xlink:href="#DejaVuSans-50"/>
      </g>
     </g>
    </g>
    <g id="xtick_3">
     <g id="line2d_5">
      <path clip-path="url(#pe02cfc304e)" d="M 161.176258 128.92249 
L 161.176258 13.405289 
" style="fill:none;stroke:#b0b0b0;stroke-linecap:square;stroke-width:0.8;"/>
     </g>
     <g id="line2d_6">
      <g>
       <use style="stroke:#000000;stroke-width:0.8;" x="161.176258" xlink:href="#mfecf10ee42" y="128.92249"/>
      </g>
     </g>
     <g id="text_3">
      <!-- $\mathdefault{10^{-1}}$ -->
      <g transform="translate(149.426258 143.520928)scale(0.1 -0.1)">
       <use transform="translate(0 0.684375)" xlink:href="#DejaVuSans-49"/>
       <use transform="translate(63.623047 0.684375)" xlink:href="#DejaVuSans-48"/>
       <use transform="translate(128.203125 38.965625)scale(0.7)" xlink:href="#DejaVuSans-8722"/>
       <use transform="translate(186.855469 38.965625)scale(0.7)" xlink:href="#DejaVuSans-49"/>
      </g>
     </g>
    </g>
    <g id="xtick_4">
     <g id="line2d_7">
      <path clip-path="url(#pe02cfc304e)" d="M 197.673265 128.92249 
L 197.673265 13.405289 
" style="fill:none;stroke:#b0b0b0;stroke-linecap:square;stroke-width:0.8;"/>
     </g>
     <g id="line2d_8">
      <g>
       <use style="stroke:#000000;stroke-width:0.8;" x="197.673265" xlink:href="#mfecf10ee42" y="128.92249"/>
      </g>
     </g>
     <g id="text_4">
      <!-- $\mathdefault{10^{0}}$ -->
      <g transform="translate(188.873265 143.520928)scale(0.1 -0.1)">
       <use transform="translate(0 0.765625)" xlink:href="#DejaVuSans-49"/>
       <use transform="translate(63.623047 0.765625)" xlink:href="#DejaVuSans-48"/>
       <use transform="translate(128.203125 39.046875)scale(0.7)" xlink:href="#DejaVuSans-48"/>
      </g>
     </g>
    </g>
    <g id="xtick_5">
     <g id="line2d_9">
      <defs>
       <path d="M 0 0 
L 0 2 
" id="m4108af4210" style="stroke:#000000;stroke-width:0.6;"/>
      </defs>
      <g>
       <use style="stroke:#000000;stroke-width:0.6;" x="62.67193" xlink:href="#m4108af4210" y="128.92249"/>
      </g>
     </g>
    </g>
    <g id="xtick_6">
     <g id="line2d_10">
      <g>
       <use style="stroke:#000000;stroke-width:0.6;" x="69.098734" xlink:href="#m4108af4210" y="128.92249"/>
      </g>
     </g>
    </g>
    <g id="xtick_7">
     <g id="line2d_11">
      <g>
       <use style="stroke:#000000;stroke-width:0.6;" x="73.658624" xlink:href="#m4108af4210" y="128.92249"/>
      </g>
     </g>
    </g>
    <g id="xtick_8">
     <g id="line2d_12">
      <g>
       <use style="stroke:#000000;stroke-width:0.6;" x="77.19555" xlink:href="#m4108af4210" y="128.92249"/>
      </g>
     </g>
    </g>
    <g id="xtick_9">
     <g id="line2d_13">
      <g>
       <use style="stroke:#000000;stroke-width:0.6;" x="80.085428" xlink:href="#m4108af4210" y="128.92249"/>
      </g>
     </g>
    </g>
    <g id="xtick_10">
     <g id="line2d_14">
      <g>
       <use style="stroke:#000000;stroke-width:0.6;" x="82.528786" xlink:href="#m4108af4210" y="128.92249"/>
      </g>
     </g>
    </g>
    <g id="xtick_11">
     <g id="line2d_15">
      <g>
       <use style="stroke:#000000;stroke-width:0.6;" x="84.645318" xlink:href="#m4108af4210" y="128.92249"/>
      </g>
     </g>
    </g>
    <g id="xtick_12">
     <g id="line2d_16">
      <g>
       <use style="stroke:#000000;stroke-width:0.6;" x="86.512232" xlink:href="#m4108af4210" y="128.92249"/>
      </g>
     </g>
    </g>
    <g id="xtick_13">
     <g id="line2d_17">
      <g>
       <use style="stroke:#000000;stroke-width:0.6;" x="99.168937" xlink:href="#m4108af4210" y="128.92249"/>
      </g>
     </g>
    </g>
    <g id="xtick_14">
     <g id="line2d_18">
      <g>
       <use style="stroke:#000000;stroke-width:0.6;" x="105.595741" xlink:href="#m4108af4210" y="128.92249"/>
      </g>
     </g>
    </g>
    <g id="xtick_15">
     <g id="line2d_19">
      <g>
       <use style="stroke:#000000;stroke-width:0.6;" x="110.155631" xlink:href="#m4108af4210" y="128.92249"/>
      </g>
     </g>
    </g>
    <g id="xtick_16">
     <g id="line2d_20">
      <g>
       <use style="stroke:#000000;stroke-width:0.6;" x="113.692557" xlink:href="#m4108af4210" y="128.92249"/>
      </g>
     </g>
    </g>
    <g id="xtick_17">
     <g id="line2d_21">
      <g>
       <use style="stroke:#000000;stroke-width:0.6;" x="116.582435" xlink:href="#m4108af4210" y="128.92249"/>
      </g>
     </g>
    </g>
    <g id="xtick_18">
     <g id="line2d_22">
      <g>
       <use style="stroke:#000000;stroke-width:0.6;" x="119.025793" xlink:href="#m4108af4210" y="128.92249"/>
      </g>
     </g>
    </g>
    <g id="xtick_19">
     <g id="line2d_23">
      <g>
       <use style="stroke:#000000;stroke-width:0.6;" x="121.142325" xlink:href="#m4108af4210" y="128.92249"/>
      </g>
     </g>
    </g>
    <g id="xtick_20">
     <g id="line2d_24">
      <g>
       <use style="stroke:#000000;stroke-width:0.6;" x="123.009239" xlink:href="#m4108af4210" y="128.92249"/>
      </g>
     </g>
    </g>
    <g id="xtick_21">
     <g id="line2d_25">
      <g>
       <use style="stroke:#000000;stroke-width:0.6;" x="135.665944" xlink:href="#m4108af4210" y="128.92249"/>
      </g>
     </g>
    </g>
    <g id="xtick_22">
     <g id="line2d_26">
      <g>
       <use style="stroke:#000000;stroke-width:0.6;" x="142.092748" xlink:href="#m4108af4210" y="128.92249"/>
      </g>
     </g>
    </g>
    <g id="xtick_23">
     <g id="line2d_27">
      <g>
       <use style="stroke:#000000;stroke-width:0.6;" x="146.652638" xlink:href="#m4108af4210" y="128.92249"/>
      </g>
     </g>
    </g>
    <g id="xtick_24">
     <g id="line2d_28">
      <g>
       <use style="stroke:#000000;stroke-width:0.6;" x="150.189564" xlink:href="#m4108af4210" y="128.92249"/>
      </g>
     </g>
    </g>
    <g id="xtick_25">
     <g id="line2d_29">
      <g>
       <use style="stroke:#000000;stroke-width:0.6;" x="153.079442" xlink:href="#m4108af4210" y="128.92249"/>
      </g>
     </g>
    </g>
    <g id="xtick_26">
     <g id="line2d_30">
      <g>
       <use style="stroke:#000000;stroke-width:0.6;" x="155.5228" xlink:href="#m4108af4210" y="128.92249"/>
      </g>
     </g>
    </g>
    <g id="xtick_27">
     <g id="line2d_31">
      <g>
       <use style="stroke:#000000;stroke-width:0.6;" x="157.639332" xlink:href="#m4108af4210" y="128.92249"/>
      </g>
     </g>
    </g>
    <g id="xtick_28">
     <g id="line2d_32">
      <g>
       <use style="stroke:#000000;stroke-width:0.6;" x="159.506246" xlink:href="#m4108af4210" y="128.92249"/>
      </g>
     </g>
    </g>
    <g id="xtick_29">
     <g id="line2d_33">
      <g>
       <use style="stroke:#000000;stroke-width:0.6;" x="172.162952" xlink:href="#m4108af4210" y="128.92249"/>
      </g>
     </g>
    </g>
    <g id="xtick_30">
     <g id="line2d_34">
      <g>
       <use style="stroke:#000000;stroke-width:0.6;" x="178.589756" xlink:href="#m4108af4210" y="128.92249"/>
      </g>
     </g>
    </g>
    <g id="xtick_31">
     <g id="line2d_35">
      <g>
       <use style="stroke:#000000;stroke-width:0.6;" x="183.149645" xlink:href="#m4108af4210" y="128.92249"/>
      </g>
     </g>
    </g>
    <g id="xtick_32">
     <g id="line2d_36">
      <g>
       <use style="stroke:#000000;stroke-width:0.6;" x="186.686571" xlink:href="#m4108af4210" y="128.92249"/>
      </g>
     </g>
    </g>
    <g id="xtick_33">
     <g id="line2d_37">
      <g>
       <use style="stroke:#000000;stroke-width:0.6;" x="189.576449" xlink:href="#m4108af4210" y="128.92249"/>
      </g>
     </g>
    </g>
    <g id="xtick_34">
     <g id="line2d_38">
      <g>
       <use style="stroke:#000000;stroke-width:0.6;" x="192.019807" xlink:href="#m4108af4210" y="128.92249"/>
      </g>
     </g>
    </g>
    <g id="xtick_35">
     <g id="line2d_39">
      <g>
       <use style="stroke:#000000;stroke-width:0.6;" x="194.136339" xlink:href="#m4108af4210" y="128.92249"/>
      </g>
     </g>
    </g>
    <g id="xtick_36">
     <g id="line2d_40">
      <g>
       <use style="stroke:#000000;stroke-width:0.6;" x="196.003253" xlink:href="#m4108af4210" y="128.92249"/>
      </g>
     </g>
    </g>
    <g id="xtick_37">
     <g id="line2d_41">
      <g>
       <use style="stroke:#000000;stroke-width:0.6;" x="208.659959" xlink:href="#m4108af4210" y="128.92249"/>
      </g>
     </g>
    </g>
    <g id="xtick_38">
     <g id="line2d_42">
      <g>
       <use style="stroke:#000000;stroke-width:0.6;" x="215.086763" xlink:href="#m4108af4210" y="128.92249"/>
      </g>
     </g>
    </g>
    <g id="text_5">
     <!-- f (Hz) -->
     <defs>
      <path d="M 37.109375 75.984375 
L 37.109375 68.5 
L 28.515625 68.5 
Q 23.6875 68.5 21.796875 66.546875 
Q 19.921875 64.59375 19.921875 59.515625 
L 19.921875 54.6875 
L 34.71875 54.6875 
L 34.71875 47.703125 
L 19.921875 47.703125 
L 19.921875 0 
L 10.890625 0 
L 10.890625 47.703125 
L 2.296875 47.703125 
L 2.296875 54.6875 
L 10.890625 54.6875 
L 10.890625 58.5 
Q 10.890625 67.625 15.140625 71.796875 
Q 19.390625 75.984375 28.609375 75.984375 
z
" id="DejaVuSans-102"/>
      <path id="DejaVuSans-32"/>
      <path d="M 31 75.875 
Q 24.46875 64.65625 21.28125 53.65625 
Q 18.109375 42.671875 18.109375 31.390625 
Q 18.109375 20.125 21.3125 9.0625 
Q 24.515625 -2 31 -13.1875 
L 23.1875 -13.1875 
Q 15.875 -1.703125 12.234375 9.375 
Q 8.59375 20.453125 8.59375 31.390625 
Q 8.59375 42.28125 12.203125 53.3125 
Q 15.828125 64.359375 23.1875 75.875 
z
" id="DejaVuSans-40"/>
      <path d="M 9.8125 72.90625 
L 19.671875 72.90625 
L 19.671875 43.015625 
L 55.515625 43.015625 
L 55.515625 72.90625 
L 65.375 72.90625 
L 65.375 0 
L 55.515625 0 
L 55.515625 34.71875 
L 19.671875 34.71875 
L 19.671875 0 
L 9.8125 0 
z
" id="DejaVuSans-72"/>
      <path d="M 5.515625 54.6875 
L 48.1875 54.6875 
L 48.1875 46.484375 
L 14.40625 7.171875 
L 48.1875 7.171875 
L 48.1875 0 
L 4.296875 0 
L 4.296875 8.203125 
L 38.09375 47.515625 
L 5.515625 47.515625 
z
" id="DejaVuSans-122"/>
      <path d="M 8.015625 75.875 
L 15.828125 75.875 
Q 23.140625 64.359375 26.78125 53.3125 
Q 30.421875 42.28125 30.421875 31.390625 
Q 30.421875 20.453125 26.78125 9.375 
Q 23.140625 -1.703125 15.828125 -13.1875 
L 8.015625 -13.1875 
Q 14.5 -2 17.703125 9.0625 
Q 20.90625 20.125 20.90625 31.390625 
Q 20.90625 42.671875 17.703125 53.65625 
Q 14.5 64.65625 8.015625 75.875 
z
" id="DejaVuSans-41"/>
     </defs>
     <g transform="translate(121.839733 157.199053)scale(0.1 -0.1)">
      <use xlink:href="#DejaVuSans-102"/>
      <use x="35.205078" xlink:href="#DejaVuSans-32"/>
      <use x="66.992188" xlink:href="#DejaVuSans-40"/>
      <use x="106.005859" xlink:href="#DejaVuSans-72"/>
      <use x="181.201172" xlink:href="#DejaVuSans-122"/>
      <use x="233.691406" xlink:href="#DejaVuSans-41"/>
     </g>
    </g>
   </g>
   <g id="matplotlib.axis_2">
    <g id="ytick_1">
     <g id="line2d_43">
      <path clip-path="url(#pe02cfc304e)" d="M 54.978125 104.646876 
L 215.971654 104.646876 
" style="fill:none;stroke:#b0b0b0;stroke-linecap:square;stroke-width:0.8;"/>
     </g>
     <g id="line2d_44">
      <defs>
       <path d="M 0 0 
L -3.5 0 
" id="m66f92cd8df" style="stroke:#000000;stroke-width:0.8;"/>
      </defs>
      <g>
       <use style="stroke:#000000;stroke-width:0.8;" x="54.978125" xlink:href="#m66f92cd8df" y="104.646876"/>
      </g>
     </g>
     <g id="text_6">
      <!-- $\mathdefault{10^{-2}}$ -->
      <g transform="translate(24.478125 108.446095)scale(0.1 -0.1)">
       <use transform="translate(0 0.765625)" xlink:href="#DejaVuSans-49"/>
       <use transform="translate(63.623047 0.765625)" xlink:href="#DejaVuSans-48"/>
       <use transform="translate(128.203125 39.046875)scale(0.7)" xlink:href="#DejaVuSans-8722"/>
       <use transform="translate(186.855469 39.046875)scale(0.7)" xlink:href="#DejaVuSans-50"/>
      </g>
     </g>
    </g>
    <g id="ytick_2">
     <g id="line2d_45">
      <path clip-path="url(#pe02cfc304e)" d="M 54.978125 74.584059 
L 215.971654 74.584059 
" style="fill:none;stroke:#b0b0b0;stroke-linecap:square;stroke-width:0.8;"/>
     </g>
     <g id="line2d_46">
      <g>
       <use style="stroke:#000000;stroke-width:0.8;" x="54.978125" xlink:href="#m66f92cd8df" y="74.584059"/>
      </g>
     </g>
     <g id="text_7">
      <!-- $\mathdefault{10^{0}}$ -->
      <g transform="translate(30.378125 78.383278)scale(0.1 -0.1)">
       <use transform="translate(0 0.765625)" xlink:href="#DejaVuSans-49"/>
       <use transform="translate(63.623047 0.765625)" xlink:href="#DejaVuSans-48"/>
       <use transform="translate(128.203125 39.046875)scale(0.7)" xlink:href="#DejaVuSans-48"/>
      </g>
     </g>
    </g>
    <g id="ytick_3">
     <g id="line2d_47">
      <path clip-path="url(#pe02cfc304e)" d="M 54.978125 44.521242 
L 215.971654 44.521242 
" style="fill:none;stroke:#b0b0b0;stroke-linecap:square;stroke-width:0.8;"/>
     </g>
     <g id="line2d_48">
      <g>
       <use style="stroke:#000000;stroke-width:0.8;" x="54.978125" xlink:href="#m66f92cd8df" y="44.521242"/>
      </g>
     </g>
     <g id="text_8">
      <!-- $\mathdefault{10^{2}}$ -->
      <g transform="translate(30.378125 48.320461)scale(0.1 -0.1)">
       <use transform="translate(0 0.765625)" xlink:href="#DejaVuSans-49"/>
       <use transform="translate(63.623047 0.765625)" xlink:href="#DejaVuSans-48"/>
       <use transform="translate(128.203125 39.046875)scale(0.7)" xlink:href="#DejaVuSans-50"/>
      </g>
     </g>
    </g>
    <g id="ytick_4">
     <g id="line2d_49">
      <path clip-path="url(#pe02cfc304e)" d="M 54.978125 14.458425 
L 215.971654 14.458425 
" style="fill:none;stroke:#b0b0b0;stroke-linecap:square;stroke-width:0.8;"/>
     </g>
     <g id="line2d_50">
      <g>
       <use style="stroke:#000000;stroke-width:0.8;" x="54.978125" xlink:href="#m66f92cd8df" y="14.458425"/>
      </g>
     </g>
     <g id="text_9">
      <!-- $\mathdefault{10^{4}}$ -->
      <defs>
       <path d="M 37.796875 64.3125 
L 12.890625 25.390625 
L 37.796875 25.390625 
z
M 35.203125 72.90625 
L 47.609375 72.90625 
L 47.609375 25.390625 
L 58.015625 25.390625 
L 58.015625 17.1875 
L 47.609375 17.1875 
L 47.609375 0 
L 37.796875 0 
L 37.796875 17.1875 
L 4.890625 17.1875 
L 4.890625 26.703125 
z
" id="DejaVuSans-52"/>
      </defs>
      <g transform="translate(30.378125 18.257644)scale(0.1 -0.1)">
       <use transform="translate(0 0.684375)" xlink:href="#DejaVuSans-49"/>
       <use transform="translate(63.623047 0.684375)" xlink:href="#DejaVuSans-48"/>
       <use transform="translate(128.203125 38.965625)scale(0.7)" xlink:href="#DejaVuSans-52"/>
      </g>
     </g>
    </g>
    <g id="text_10">
     <!-- S(f) (m^2/s) -->
     <defs>
      <path d="M 53.515625 70.515625 
L 53.515625 60.890625 
Q 47.90625 63.578125 42.921875 64.890625 
Q 37.9375 66.21875 33.296875 66.21875 
Q 25.25 66.21875 20.875 63.09375 
Q 16.5 59.96875 16.5 54.203125 
Q 16.5 49.359375 19.40625 46.890625 
Q 22.3125 44.4375 30.421875 42.921875 
L 36.375 41.703125 
Q 47.40625 39.59375 52.65625 34.296875 
Q 57.90625 29 57.90625 20.125 
Q 57.90625 9.515625 50.796875 4.046875 
Q 43.703125 -1.421875 29.984375 -1.421875 
Q 24.8125 -1.421875 18.96875 -0.25 
Q 13.140625 0.921875 6.890625 3.21875 
L 6.890625 13.375 
Q 12.890625 10.015625 18.65625 8.296875 
Q 24.421875 6.59375 29.984375 6.59375 
Q 38.421875 6.59375 43.015625 9.90625 
Q 47.609375 13.234375 47.609375 19.390625 
Q 47.609375 24.75 44.3125 27.78125 
Q 41.015625 30.8125 33.5 32.328125 
L 27.484375 33.5 
Q 16.453125 35.6875 11.515625 40.375 
Q 6.59375 45.0625 6.59375 53.421875 
Q 6.59375 63.09375 13.40625 68.65625 
Q 20.21875 74.21875 32.171875 74.21875 
Q 37.3125 74.21875 42.625 73.28125 
Q 47.953125 72.359375 53.515625 70.515625 
z
" id="DejaVuSans-83"/>
      <path d="M 52 44.1875 
Q 55.375 50.25 60.0625 53.125 
Q 64.75 56 71.09375 56 
Q 79.640625 56 84.28125 50.015625 
Q 88.921875 44.046875 88.921875 33.015625 
L 88.921875 0 
L 79.890625 0 
L 79.890625 32.71875 
Q 79.890625 40.578125 77.09375 44.375 
Q 74.3125 48.1875 68.609375 48.1875 
Q 61.625 48.1875 57.5625 43.546875 
Q 53.515625 38.921875 53.515625 30.90625 
L 53.515625 0 
L 44.484375 0 
L 44.484375 32.71875 
Q 44.484375 40.625 41.703125 44.40625 
Q 38.921875 48.1875 33.109375 48.1875 
Q 26.21875 48.1875 22.15625 43.53125 
Q 18.109375 38.875 18.109375 30.90625 
L 18.109375 0 
L 9.078125 0 
L 9.078125 54.6875 
L 18.109375 54.6875 
L 18.109375 46.1875 
Q 21.1875 51.21875 25.484375 53.609375 
Q 29.78125 56 35.6875 56 
Q 41.65625 56 45.828125 52.96875 
Q 50 49.953125 52 44.1875 
z
" id="DejaVuSans-109"/>
      <path d="M 46.6875 72.90625 
L 73.1875 45.703125 
L 63.375 45.703125 
L 41.890625 64.984375 
L 20.40625 45.703125 
L 10.59375 45.703125 
L 37.109375 72.90625 
z
" id="DejaVuSans-94"/>
      <path d="M 25.390625 72.90625 
L 33.6875 72.90625 
L 8.296875 -9.28125 
L 0 -9.28125 
z
" id="DejaVuSans-47"/>
      <path d="M 44.28125 53.078125 
L 44.28125 44.578125 
Q 40.484375 46.53125 36.375 47.5 
Q 32.28125 48.484375 27.875 48.484375 
Q 21.1875 48.484375 17.84375 46.4375 
Q 14.5 44.390625 14.5 40.28125 
Q 14.5 37.15625 16.890625 35.375 
Q 19.28125 33.59375 26.515625 31.984375 
L 29.59375 31.296875 
Q 39.15625 29.25 43.1875 25.515625 
Q 47.21875 21.78125 47.21875 15.09375 
Q 47.21875 7.46875 41.1875 3.015625 
Q 35.15625 -1.421875 24.609375 -1.421875 
Q 20.21875 -1.421875 15.453125 -0.5625 
Q 10.6875 0.296875 5.421875 2 
L 5.421875 11.28125 
Q 10.40625 8.6875 15.234375 7.390625 
Q 20.0625 6.109375 24.8125 6.109375 
Q 31.15625 6.109375 34.5625 8.28125 
Q 37.984375 10.453125 37.984375 14.40625 
Q 37.984375 18.0625 35.515625 20.015625 
Q 33.0625 21.96875 24.703125 23.78125 
L 21.578125 24.515625 
Q 13.234375 26.265625 9.515625 29.90625 
Q 5.8125 33.546875 5.8125 39.890625 
Q 5.8125 47.609375 11.28125 51.796875 
Q 16.75 56 26.8125 56 
Q 31.78125 56 36.171875 55.265625 
Q 40.578125 54.546875 44.28125 53.078125 
z
" id="DejaVuSans-115"/>
     </defs>
     <g transform="translate(18.398437 102.020921)rotate(-90)scale(0.1 -0.1)">
      <use xlink:href="#DejaVuSans-83"/>
      <use x="63.476562" xlink:href="#DejaVuSans-40"/>
      <use x="102.490234" xlink:href="#DejaVuSans-102"/>
      <use x="137.695312" xlink:href="#DejaVuSans-41"/>
      <use x="176.708984" xlink:href="#DejaVuSans-32"/>
      <use x="208.496094" xlink:href="#DejaVuSans-40"/>
      <use x="247.509766" xlink:href="#DejaVuSans-109"/>
      <use x="344.921875" xlink:href="#DejaVuSans-94"/>
      <use x="428.710938" xlink:href="#DejaVuSans-50"/>
      <use x="492.333984" xlink:href="#DejaVuSans-47"/>
      <use x="526.025391" xlink:href="#DejaVuSans-115"/>
      <use x="578.125" xlink:href="#DejaVuSans-41"/>
     </g>
    </g>
   </g>
   <g id="line2d_51">
    <path clip-path="url(#pe02cfc304e)" d="M 87.806326 31.974128 
L 98.79302 38.26124 
L 105.219824 45.227605 
L 109.779714 33.344619 
L 113.316639 24.746822 
L 116.206518 28.216167 
L 118.649875 29.744113 
L 120.766408 36.464964 
L 122.633322 21.198076 
L 124.303333 18.656071 
L 125.814042 23.051817 
L 127.193211 23.67165 
L 128.461924 24.912354 
L 129.636569 35.059633 
L 130.730137 33.907744 
L 131.753101 33.563277 
L 132.714029 34.450682 
L 133.620015 35.634791 
L 134.477005 34.033197 
L 135.290027 34.423432 
L 136.063373 26.122768 
L 136.800736 21.684103 
L 137.505316 25.209934 
L 138.179905 24.902237 
L 138.826952 21.964008 
L 139.448618 22.512301 
L 140.046819 34.499405 
L 140.623263 39.294993 
L 141.179476 32.632428 
L 141.716831 31.80272 
L 142.236564 38.821774 
L 142.739795 24.989159 
L 143.22754 35.083856 
L 143.700723 37.041534 
L 144.160188 29.730319 
L 144.606709 30.858721 
L 145.040995 37.406138 
L 145.463699 39.713355 
L 146.276721 35.910586 
L 146.66811 58.833548 
L 147.050067 40.468432 
L 147.78743 34.312243 
L 148.143635 39.057613 
L 148.49201 31.633489 
L 148.832893 35.089907 
L 149.166599 31.803285 
L 149.493424 30.793897 
L 149.813646 32.227289 
L 150.127527 32.768584 
L 150.435312 61.878231 
L 150.737235 39.302183 
L 151.033513 55.711891 
L 151.324355 35.087528 
L 151.609957 35.947003 
L 151.890503 41.949193 
L 152.16617 33.880608 
L 152.437124 34.727417 
L 153.223258 40.615894 
L 153.476871 39.360937 
L 153.726489 34.734495 
L 153.972238 51.487552 
L 154.214234 43.437928 
L 154.452591 59.743818 
L 155.371715 28.942582 
L 155.593403 33.870076 
L 155.812034 56.924713 
L 156.027689 43.973164 
L 156.24045 41.322447 
L 156.450393 34.733146 
L 156.657591 32.478596 
L 156.862116 46.896826 
L 157.064035 38.563764 
L 157.263415 47.341019 
L 157.460317 35.871138 
L 157.654804 40.651073 
L 157.846933 42.588894 
L 158.036761 40.625672 
L 158.224342 43.612575 
L 158.40973 56.505622 
L 158.592974 55.204364 
L 158.774124 39.447573 
L 158.953227 35.728401 
L 159.130329 43.134934 
L 159.478704 31.383135 
L 159.650062 31.889507 
L 159.819587 30.742262 
L 159.987318 42.019498 
L 160.153293 42.891676 
L 160.317548 40.589958 
L 160.480118 60.463508 
L 160.641038 46.053052 
L 160.80034 48.041497 
L 160.958057 41.801372 
L 161.114221 64.560513 
L 161.26886 42.911427 
L 161.573686 54.605022 
L 161.723928 54.521189 
L 162.020207 36.07719 
L 162.166295 37.036246 
L 162.311049 39.80507 
L 162.454493 38.653945 
L 162.737544 43.11687 
L 162.877197 39.10484 
L 163.01563 40.528191 
L 163.152864 38.562494 
L 163.28892 42.082375 
L 163.423818 69.767316 
L 163.557578 49.426469 
L 163.690219 50.58063 
L 163.821758 49.930533 
L 163.952215 43.322794 
L 164.081608 42.844567 
L 164.209952 43.855917 
L 164.337266 56.798092 
L 164.463565 43.30618 
L 164.588865 43.42438 
L 164.713183 46.885792 
L 164.836534 61.943167 
L 164.958931 50.260427 
L 165.080391 61.686597 
L 165.320554 41.165118 
L 165.439285 41.465056 
L 165.557133 40.916651 
L 165.905508 61.122732 
L 166.019952 39.329351 
L 166.133576 40.937773 
L 166.358409 37.287414 
L 166.798727 47.893671 
L 166.906922 63.090946 
L 167.227144 45.499097 
L 167.332463 50.024841 
L 167.541025 35.354448 
L 167.644285 34.732343 
L 167.746877 37.583344 
L 167.950091 58.77278 
L 168.250109 38.134903 
L 168.348866 37.304866 
L 168.641498 54.654497 
L 168.737853 57.952628 
L 168.928825 45.906091 
L 169.117523 53.980286 
L 169.304001 38.939639 
L 169.396423 48.846734 
L 169.48831 46.519305 
L 169.579668 63.124677 
L 169.760818 43.00909 
L 169.850622 40.575114 
L 169.939921 40.616124 
L 170.117023 50.376069 
L 170.204837 51.49734 
L 170.379019 42.795543 
L 170.551309 61.723008 
L 170.636756 52.468947 
L 170.721745 55.201253 
L 170.890369 57.167795 
L 171.139987 40.037754 
L 171.304242 45.762029 
L 171.385735 47.816552 
L 171.627732 40.040904 
L 171.707583 44.171104 
L 171.787034 61.354317 
L 171.944751 49.219868 
L 172.023025 55.104481 
L 172.178423 40.829915 
L 172.255554 61.822244 
L 172.4087 42.625706 
L 172.484721 41.314747 
L 172.56038 44.813181 
L 172.635679 76.425026 
L 172.710622 48.441511 
L 172.785213 83.114538 
L 172.859454 45.862033 
L 172.933349 53.795637 
L 173.080113 45.849039 
L 173.152989 62.312887 
L 173.225531 52.155189 
L 173.297743 57.652617 
L 173.369627 50.608869 
L 173.441187 73.692209 
L 173.512425 60.919876 
L 173.653948 41.783892 
L 173.724238 44.121613 
L 173.794218 56.8066 
L 173.933258 41.995495 
L 174.002323 41.812224 
L 174.139558 53.670664 
L 174.275614 42.92168 
L 174.343206 43.775112 
L 174.410512 44.962916 
L 174.477533 44.301092 
L 174.544272 54.961557 
L 174.742819 43.078412 
L 174.808452 40.576657 
L 174.873815 42.240077 
L 175.003737 45.374676 
L 175.068301 44.451492 
L 175.132604 41.226707 
L 175.196646 42.662976 
L 175.323959 57.394461 
L 175.387235 51.080177 
L 175.450258 65.009404 
L 175.513033 57.287456 
L 175.63784 46.367661 
L 175.699877 60.73132 
L 175.761672 50.850866 
L 175.884545 47.850962 
L 175.945625 48.600633 
L 176.006472 58.187963 
L 176.067085 55.877905 
L 176.187622 63.646948 
L 176.247548 59.441817 
L 176.366725 47.556472 
L 176.425979 46.560491 
L 176.485012 54.638911 
L 176.543826 48.807353 
L 176.602423 46.838975 
L 176.660804 50.760851 
L 176.776925 45.931345 
L 176.834669 52.114443 
L 176.892202 49.595605 
L 177.006646 44.386708 
L 177.06356 45.409504 
L 177.176778 67.874696 
L 177.233085 52.73577 
L 177.289193 72.655088 
L 177.345103 58.33535 
L 177.400816 70.78772 
L 177.456334 54.109572 
L 177.511659 54.928524 
L 177.566791 63.310925 
L 177.621732 61.410601 
L 177.731046 48.563693 
L 177.785421 61.242584 
L 177.839611 56.214271 
L 177.893616 50.269007 
L 178.001077 77.959549 
L 178.107814 47.022774 
L 178.160915 47.496814 
L 178.266585 78.523471 
L 178.371555 47.509125 
L 178.423781 48.882192 
L 178.475835 51.728833 
L 178.527718 46.359985 
L 178.579433 48.043294 
L 178.682358 69.403349 
L 178.733571 49.644297 
L 178.835504 50.773567 
L 178.886225 60.457705 
L 178.936785 54.580817 
L 178.987184 49.457118 
L 179.037423 50.072319 
L 179.087504 66.766359 
L 179.137426 49.581234 
L 179.187192 48.636019 
L 179.236802 52.375665 
L 179.286258 48.282266 
L 179.335559 49.217 
L 179.482551 72.707339 
L 179.579793 49.325517 
L 179.628191 71.491999 
L 179.676442 51.491671 
L 179.772506 48.383729 
L 179.915519 58.817516 
L 179.962904 54.513817 
L 180.104217 49.40649 
L 180.151042 53.650872 
L 180.19773 48.397272 
L 180.336973 50.436763 
L 180.475004 65.711511 
L 180.429127 49.839534 
L 180.520749 63.686897 
L 180.611844 49.344065 
L 180.747512 63.995209 
L 180.926615 48.070099 
L 181.059626 53.203702 
L 181.147684 59.2365 
L 181.191531 56.26723 
L 181.235256 54.813369 
L 181.278861 62.446648 
L 181.322347 55.838333 
L 181.408961 48.114579 
L 181.452092 51.445159 
L 181.495105 58.09102 
L 181.538002 56.152452 
L 181.62345 50.062765 
L 181.666001 52.091166 
L 181.708439 61.925288 
L 181.750763 50.632929 
L 181.792975 50.783141 
L 181.835074 73.983565 
L 181.877062 56.099818 
L 182.043911 50.572819 
L 182.126681 61.735433 
L 182.167904 52.743296 
L 182.209021 51.399944 
L 182.250031 53.212281 
L 182.290936 53.160959 
L 182.413019 68.097782 
L 182.453506 63.913177 
L 182.493889 81.767297 
L 182.53417 58.685401 
L 182.574349 57.67134 
L 182.614426 52.091569 
L 182.654401 55.487453 
L 182.694277 58.021253 
L 182.734052 68.404514 
L 182.773728 53.497778 
L 182.813305 53.752277 
L 182.852783 52.697406 
L 182.892163 57.448744 
L 182.931445 77.839547 
L 182.97063 54.815546 
L 183.009719 50.251245 
L 183.048712 52.851941 
L 183.087608 90.571189 
L 183.12641 52.826801 
L 183.165117 64.019316 
L 183.203729 66.319724 
L 183.242248 52.887959 
L 183.319006 52.984878 
L 183.357246 66.577266 
L 183.395394 53.169222 
L 183.471415 48.877491 
L 183.50929 48.922539 
L 183.622373 57.155556 
L 183.659889 50.926693 
L 183.697316 50.058032 
L 183.771907 58.486381 
L 183.809071 52.138077 
L 183.846148 51.842395 
L 183.920043 101.054478 
L 183.956862 61.57842 
L 183.993595 54.598502 
L 184.030243 64.469313 
L 184.066807 60.051862 
L 184.103287 55.507317 
L 184.139683 68.065154 
L 184.212225 57.424444 
L 184.248372 59.943361 
L 184.32042 51.577607 
L 184.392141 52.393194 
L 184.427881 54.938146 
L 184.46354 74.63197 
L 184.499119 52.889833 
L 184.534618 49.602167 
L 184.570038 49.806546 
L 184.640642 60.92217 
L 184.675826 90.082314 
L 184.710932 52.907029 
L 184.745961 52.69505 
L 184.850585 55.39699 
L 184.885306 74.730966 
L 184.954522 54.712507 
L 185.023437 54.620239 
L 185.057783 66.640368 
L 185.092054 55.399594 
L 185.160375 56.043444 
L 185.194426 67.282944 
L 185.262308 55.879721 
L 185.397206 74.460877 
L 185.430752 55.883395 
L 185.497632 66.912941 
L 185.530966 67.586871 
L 185.56423 61.089158 
L 185.597425 71.939344 
L 185.63055 69.941406 
L 185.762363 50.221711 
L 185.925603 64.292499 
L 185.95805 60.735272 
L 185.990431 57.566382 
L 186.022746 73.179813 
L 186.087179 54.083371 
L 186.151351 56.271886 
L 186.215264 51.973403 
L 186.310653 72.724616 
L 186.373929 51.720178 
L 186.405472 54.071643 
L 186.531021 82.071566 
L 186.562253 79.461354 
L 186.717499 56.102296 
L 186.779174 83.403182 
L 186.809921 56.403272 
L 186.84061 57.996205 
L 186.962772 51.189747 
L 186.993166 55.314706 
L 187.053779 80.683293 
L 187.114162 77.874991 
L 187.174315 56.838654 
L 187.204307 71.080701 
L 187.234242 75.706976 
L 187.323708 55.432855 
L 187.353419 57.719427 
L 187.383073 88.263868 
L 187.412673 56.365021 
L 187.442217 61.632332 
L 187.50114 62.644287 
L 187.589117 53.982677 
L 187.676608 65.41591 
L 187.734669 54.308756 
L 187.763619 61.287429 
L 187.792517 63.809593 
L 187.821362 56.417571 
L 187.850155 65.427632 
L 187.878896 59.980635 
L 187.907584 76.948975 
L 187.964806 68.775433 
L 188.021822 53.903907 
L 188.106964 54.023029 
L 188.219779 83.721439 
L 188.247858 79.443773 
L 188.359678 55.403702 
L 188.38751 60.857655 
L 188.443028 57.800575 
L 188.470715 76.136889 
L 188.580979 53.961989 
L 188.608426 54.641149 
L 188.635825 54.526913 
L 188.663177 52.908146 
L 188.690482 55.330097 
L 188.71774 56.726852 
L 188.744951 53.300744 
L 188.772115 54.492908 
L 188.799233 78.624863 
L 188.85333 52.944021 
L 188.88031 55.20616 
L 188.907243 71.366943 
L 188.960974 54.822004 
L 188.987771 52.813897 
L 189.041229 54.835028 
L 189.067891 65.967946 
L 189.121081 52.445464 
L 189.147609 54.304575 
L 189.200532 67.27306 
L 189.253279 59.852646 
L 189.305851 53.614459 
L 189.358249 56.217086 
L 189.384383 57.888241 
L 189.436523 54.509435 
L 189.462529 56.129171 
L 189.540291 54.118793 
L 189.514412 58.14402 
L 189.566127 56.30431 
L 189.591921 70.571901 
L 189.694679 68.748501 
L 189.796776 54.027661 
L 189.74581 74.369263 
L 189.822198 54.193131 
L 189.872919 57.836446 
L 189.923479 56.227859 
L 189.948698 55.82618 
L 189.999017 61.491172 
L 190.049177 56.176581 
L 190.12412 57.597939 
L 190.149023 72.645575 
L 190.198711 54.363809 
L 190.223496 56.701547 
L 190.272952 71.28123 
L 190.371402 68.06975 
L 190.395919 68.0901 
L 190.420399 59.987203 
L 190.469245 68.876669 
L 190.493611 60.13425 
L 190.590705 69.634115 
L 190.542232 57.48922 
L 190.614885 64.861231 
L 190.639029 58.374322 
L 190.663136 60.257324 
L 190.687207 83.360646 
L 190.7592 54.760896 
L 190.996842 65.839709 
L 191.020412 95.348409 
L 191.043946 61.760464 
L 191.114341 79.382252 
L 191.137736 99.190111 
L 191.184424 59.301727 
L 191.207716 59.850805 
L 191.230974 59.00872 
L 191.346756 95.25213 
L 191.392833 56.500014 
L 191.461698 60.92023 
L 191.484587 59.362566 
L 191.507443 61.909693 
L 191.598537 58.944728 
L 191.643889 91.529191 
L 191.779171 56.364019 
L 191.891031 84.03544 
L 191.979954 55.502161 
L 192.024229 59.074188 
L 192.134378 63.983082 
L 192.156317 63.27653 
L 192.22195 77.775703 
L 192.200102 61.690114 
L 192.265555 64.251963 
L 192.287313 66.556525 
L 192.309041 59.802045 
L 192.330739 64.600453 
L 192.438786 55.668365 
L 192.460307 57.851586 
L 192.481799 80.184642 
L 192.567478 65.779212 
L 192.610144 74.814517 
L 192.631434 58.393906 
L 192.652695 55.130895 
L 192.716309 57.956954 
L 192.779669 86.961089 
L 192.821768 61.166418 
L 192.842776 65.935069 
L 192.884709 56.712408 
L 192.905633 57.578708 
L 192.9474 55.902138 
L 192.989057 56.626296 
L 193.030605 73.102034 
L 193.051338 97.43526 
L 193.092723 61.023644 
L 193.134 82.251283 
L 193.154598 59.865329 
L 193.236725 64.221228 
L 193.27763 83.894951 
L 193.338789 58.55553 
L 193.399713 88.755342 
L 193.460404 63.225241 
L 193.561042 57.357512 
L 193.62112 57.858511 
L 193.641095 83.687256 
L 193.680971 56.577385 
L 193.720746 67.156484 
L 193.740596 63.108718 
L 193.799998 63.288035 
L 193.81975 75.29028 
L 193.878857 61.294638 
L 193.918139 67.862623 
L 193.937744 73.535254 
L 193.996413 59.908272 
L 194.035405 75.707178 
L 194.074302 59.941378 
L 194.093715 56.75832 
L 194.132469 66.169989 
L 194.151811 84.879374 
L 194.228942 58.455842 
L 194.34394 64.574705 
L 194.3057 56.939441 
L 194.363025 63.715604 
L 194.382088 57.770247 
L 194.420144 70.403348 
L 194.458109 59.96527 
L 194.533768 82.863656 
L 194.552626 62.68488 
L 194.571462 58.189531 
L 194.627836 66.529537 
L 194.646583 66.012537 
L 194.702691 58.886916 
L 194.739986 87.399031 
L 194.832842 58.08069 
L 194.869832 59.742958 
L 194.961933 89.078852 
L 194.998624 69.246096 
L 195.016937 70.482421 
L 195.126377 58.890834 
L 195.217003 77.530406 
L 195.253109 75.320898 
L 195.378835 59.187734 
L 195.396715 57.846442 
L 195.432414 60.357929 
L 195.485813 71.28405 
L 195.539032 112.551618 
L 195.574413 75.894135 
L 195.609714 58.601517 
L 195.644938 82.445058 
L 195.697626 58.794027 
L 195.819889 81.455768 
L 195.872 62.878425 
L 195.854649 87.660804 
L 195.923941 64.60841 
L 195.941216 82.980664 
L 195.992931 61.329936 
L 196.027313 61.917332 
L 196.044477 63.065435 
L 196.112945 93.955533 
L 196.147069 58.743506 
L 196.164103 72.943143 
L 196.198117 61.724339 
L 196.249002 76.668177 
L 196.265927 92.07534 
L 196.316594 60.57364 
L 196.333447 83.906133 
L 196.3671 57.565447 
L 196.434192 78.460863 
L 196.450921 90.131202 
L 196.501001 62.012241 
L 196.51766 67.588263 
L 196.550924 58.515145 
L 196.633781 61.767442 
L 196.716207 81.605144 
L 196.73264 65.887154 
L 196.765457 60.516848 
L 196.78184 70.393298 
L 196.830887 69.878192 
L 196.847203 105.281517 
L 196.928529 60.980229 
L 196.944744 61.115742 
L 196.960943 60.556264 
L 197.041689 81.602124 
L 197.00944 60.540427 
L 197.073873 66.067126 
L 197.122026 71.558263 
L 197.154047 60.215031 
L 197.170034 58.604016 
L 197.186004 60.502363 
L 197.31319 83.395294 
L 197.376402 59.33333 
L 197.439363 66.644657 
L 197.517714 59.979427 
L 197.548947 61.078896 
L 197.62676 75.319039 
L 197.657778 62.987032 
L 197.704192 64.225049 
L 197.73506 59.613603 
L 197.750471 72.695567 
L 197.857932 69.860295 
L 197.934247 59.442685 
L 197.949465 61.02829 
L 198.025341 90.338736 
L 198.05559 62.157322 
L 198.085782 59.897141 
L 198.100856 60.688109 
L 198.115916 89.476718 
L 198.161009 59.83835 
L 198.205975 72.650385 
L 198.310402 63.556472 
L 198.280636 90.406876 
L 198.325264 64.807483 
L 198.340112 63.947305 
L 198.354947 64.9655 
L 198.414145 81.075983 
L 198.4584 59.759259 
L 198.487834 70.628662 
L 198.590427 70.188614 
L 198.605029 64.78434 
L 198.634192 66.207117 
L 198.648754 98.980933 
L 198.735845 62.73728 
L 198.750313 61.829846 
L 198.764769 65.321452 
L 198.779211 92.409141 
L 198.86559 61.215915 
L 198.879941 62.402566 
L 198.894278 77.158503 
L 198.980034 61.806956 
L 198.994282 61.080997 
L 199.008516 65.213618 
L 199.093658 80.568639 
L 199.036948 63.137269 
L 199.121937 75.123787 
L 199.206473 60.241627 
L 199.164261 81.988527 
L 199.234552 61.877073 
L 199.262581 87.903507 
L 199.346372 77.009316 
L 199.429722 59.609713 
L 199.485047 61.248763 
L 199.608825 81.82933 
L 199.677176 61.842923 
L 199.731645 63.943 
L 199.758809 91.799155 
L 199.840024 65.443656 
L 199.880476 62.297074 
L 199.893937 67.741335 
L 199.907387 123.671708 
L 200.001217 61.238352 
L 200.014576 87.170295 
L 200.107775 74.067667 
L 200.134303 64.009104 
L 200.187226 80.581485 
L 200.226802 67.204339 
L 200.239973 67.660426 
L 200.253132 63.286519 
L 200.26628 88.924882 
L 200.344943 63.568141 
L 200.358015 72.788583 
L 200.436225 61.162268 
L 200.449223 61.162948 
L 200.475186 63.848888 
L 200.514051 63.267426 
L 200.604367 79.363591 
L 200.719737 63.639797 
L 200.694171 82.709622 
L 200.732504 64.303794 
L 200.78347 84.20572 
L 200.821587 65.201528 
L 200.834273 60.827143 
L 200.872268 76.900828 
L 200.922788 62.688763 
L 201.010811 62.324363 
L 201.035871 87.0362 
L 201.085872 65.595076 
L 201.148153 74.750408 
L 201.16058 66.732404 
L 201.172997 75.114145 
L 201.21019 70.855267 
L 201.222569 98.562006 
L 201.308947 63.72218 
L 201.321249 62.519354 
L 201.345823 63.369185 
L 201.358096 81.448303 
L 201.394858 61.825621 
L 201.455939 66.213622 
L 201.480305 79.004296 
L 201.528926 63.794467 
L 201.565294 67.614877 
L 201.601579 85.742323 
L 201.625723 63.446152 
L 201.685922 62.29187 
L 201.745894 87.203444 
L 201.793708 64.612839 
L 201.769819 88.080466 
L 201.853274 76.481252 
L 201.86516 92.084964 
L 201.948116 64.982896 
L 201.959932 63.859326 
L 201.971738 65.058257 
L 201.995325 84.685923 
L 202.018877 62.276595 
L 202.077604 64.258008 
L 202.089324 64.485753 
L 202.112737 80.982258 
L 202.136115 63.826 
L 202.19441 66.213621 
L 202.206043 62.086725 
L 202.252492 66.429521 
L 202.275665 64.008866 
L 202.287239 85.249191 
L 202.391025 79.0075 
L 202.436935 65.944966 
L 202.448392 81.720177 
L 202.471281 69.132545 
L 202.516959 88.550278 
L 202.505552 65.796555 
L 202.573873 84.255913 
L 202.664512 63.870523 
L 202.687091 67.042017 
L 202.732153 78.489047 
L 202.754636 62.171505 
L 202.7883 67.744654 
L 202.866574 64.179495 
L 202.821894 76.453355 
L 202.877725 66.37498 
L 202.888868 86.086281 
L 202.911129 66.071158 
L 202.988801 67.698452 
L 203.010923 91.534305 
L 203.066093 66.955481 
L 203.110092 72.459295 
L 203.121072 72.57847 
L 203.219556 63.720602 
L 203.197724 88.179585 
L 203.230461 65.853412 
L 203.252249 95.008511 
L 203.339101 71.26846 
L 203.414708 71.69456 
L 203.447001 64.576032 
L 203.51139 106.780041 
L 203.554171 66.399607 
L 203.564849 65.26877 
L 203.575519 65.958558 
L 203.618128 92.022161 
L 203.681827 64.437492 
L 203.703003 63.239822 
L 203.713581 65.58319 
L 203.766363 94.184899 
L 203.81897 75.198873 
L 203.892327 65.919341 
L 203.85045 111.984301 
L 203.934094 71.635155 
L 203.975751 65.31839 
L 203.965347 77.75686 
L 203.986148 65.346861 
L 203.996538 88.979643 
L 204.079417 62.884232 
L 204.089746 64.258114 
L 204.120694 86.236123 
L 204.213177 79.910558 
L 204.254107 68.45873 
L 204.243885 92.513294 
L 204.325483 74.482271 
L 204.416782 63.583596 
L 204.355974 91.641058 
L 204.447098 67.736022 
L 204.52766 81.343497 
L 204.477357 66.096281 
L 204.547736 68.465047 
L 204.557765 64.919 
L 204.577804 79.739786 
L 204.587813 95.754102 
L 204.667665 67.909256 
L 204.677618 73.207216 
L 204.687565 71.955369 
L 204.757019 89.252557 
L 204.737206 66.711032 
L 204.796571 74.028345 
L 204.81631 86.820591 
L 204.836025 65.409968 
L 204.895021 67.510312 
L 204.934231 64.025603 
L 204.953799 71.24394 
L 204.963575 97.385815 
L 205.002615 63.935287 
L 205.060996 88.732308 
L 205.177117 64.769297 
L 205.090106 89.145432 
L 205.186756 68.842557 
L 205.23486 121.014236 
L 205.273239 65.876238 
L 205.301962 98.829601 
L 205.321082 65.429382 
L 205.416338 69.80591 
L 205.463752 115.571693 
L 205.501581 65.671119 
L 205.511024 65.927989 
L 205.520462 66.68069 
L 205.61453 78.982634 
L 205.57697 65.52592 
L 205.633277 71.591873 
L 205.652001 66.022483 
L 205.689385 78.225278 
L 205.717364 76.565751 
L 205.763887 93.803031 
L 205.791736 64.8175 
L 205.828791 83.624787 
L 205.930249 64.688538 
L 205.976153 68.998526 
L 206.076675 67.069525 
L 206.085782 85.857941 
L 206.140313 65.669217 
L 206.122157 105.957435 
L 206.194658 68.831908 
L 206.239803 89.152415 
L 206.302791 68.005615 
L 206.392341 93.974656 
L 206.356582 66.270264 
L 206.419108 93.607319 
L 206.525726 65.446214 
L 206.534579 65.528837 
L 206.657998 95.557282 
L 206.596408 65.026853 
L 206.666777 72.756843 
L 206.719349 66.383766 
L 206.7543 75.728173 
L 206.771747 66.929819 
L 206.806583 84.615106 
L 206.876026 64.694483 
L 206.89334 77.967872 
L 206.90199 101.961407 
L 206.92791 67.723848 
L 206.996825 68.561802 
L 207.005419 66.145926 
L 207.039746 87.54419 
L 207.048316 86.608453 
L 207.065442 66.506926 
L 207.125239 95.456956 
L 207.150797 74.3627 
L 207.159308 95.647045 
L 207.193303 67.874671 
L 207.252621 94.123436 
L 207.269528 67.029333 
L 207.362196 79.95746 
L 207.40414 104.125672 
L 207.437615 69.380649 
L 207.471019 85.102455 
L 207.56252 101.335849 
L 207.587384 68.35459 
L 207.595663 67.098576 
L 207.603938 79.901872 
L 207.612208 96.284426 
L 207.628737 66.671753 
L 207.719334 92.10524 
L 207.727545 70.836168 
L 207.743953 95.232506 
L 207.833897 71.117433 
L 207.866477 66.722893 
L 207.890869 77.431208 
L 207.898991 69.495517 
L 207.907109 86.30517 
L 207.93954 67.083204 
L 208.004202 67.798869 
L 208.044483 65.762785 
L 208.020327 70.182774 
L 208.052527 67.871563 
L 208.172698 93.694638 
L 208.196623 67.706287 
L 208.228467 98.41379 
L 208.291964 68.194133 
L 208.37886 91.480862 
L 208.402476 78.712934 
L 208.449603 66.979974 
L 208.465281 93.733431 
L 208.504408 71.78834 
L 208.551234 102.38433 
L 208.527838 67.455674 
L 208.613454 71.568646 
L 208.636723 92.170546 
L 208.652217 68.20152 
L 208.652217 68.20152 
" style="fill:none;stroke:#000000;stroke-linecap:square;stroke-width:0.8;"/>
   </g>
   <g id="line2d_52">
    <path clip-path="url(#pe02cfc304e)" d="M 62.296013 28.762387 
L 106.242788 28.856808 
L 116.726251 29.109637 
L 122.981697 29.500019 
L 127.455208 29.999812 
L 130.94008 30.579236 
L 134.64298 31.429291 
L 138.311445 32.547212 
L 141.82215 33.887628 
L 145.546904 35.584795 
L 149.557988 37.683834 
L 154.262193 40.418749 
L 160.186281 44.138323 
L 168.852712 49.868596 
L 185.370318 61.107364 
L 208.653766 77.076135 
L 208.653766 77.076135 
" style="fill:none;stroke:#ff0000;stroke-linecap:square;stroke-width:2;"/>
   </g>
   <g id="patch_3">
    <path d="M 54.978125 128.92249 
L 54.978125 13.405289 
" style="fill:none;stroke:#000000;stroke-linecap:square;stroke-linejoin:miter;stroke-width:0.8;"/>
   </g>
   <g id="patch_4">
    <path d="M 215.971654 128.92249 
L 215.971654 13.405289 
" style="fill:none;stroke:#000000;stroke-linecap:square;stroke-linejoin:miter;stroke-width:0.8;"/>
   </g>
   <g id="patch_5">
    <path d="M 54.978125 128.92249 
L 215.971654 128.92249 
" style="fill:none;stroke:#000000;stroke-linecap:square;stroke-linejoin:miter;stroke-width:0.8;"/>
   </g>
   <g id="patch_6">
    <path d="M 54.978125 13.405289 
L 215.971654 13.405289 
" style="fill:none;stroke:#000000;stroke-linecap:square;stroke-linejoin:miter;stroke-width:0.8;"/>
   </g>
   <g id="legend_1">
    <g id="patch_7">
     <path d="M 61.978125 123.92249 
L 143.371875 123.92249 
Q 145.371875 123.92249 145.371875 121.92249 
L 145.371875 93.56624 
Q 145.371875 91.56624 143.371875 91.56624 
L 61.978125 91.56624 
Q 59.978125 91.56624 59.978125 93.56624 
L 59.978125 121.92249 
Q 59.978125 123.92249 61.978125 123.92249 
z
" style="fill:#ffffff;opacity:0.8;stroke:#cccccc;stroke-linejoin:miter;"/>
    </g>
    <g id="line2d_53">
     <path d="M 63.978125 99.664678 
L 83.978125 99.664678 
" style="fill:none;stroke:#000000;stroke-linecap:square;stroke-width:0.8;"/>
    </g>
    <g id="line2d_54"/>
    <g id="text_11">
     <!-- simulated -->
     <defs>
      <path d="M 9.421875 54.6875 
L 18.40625 54.6875 
L 18.40625 0 
L 9.421875 0 
z
M 9.421875 75.984375 
L 18.40625 75.984375 
L 18.40625 64.59375 
L 9.421875 64.59375 
z
" id="DejaVuSans-105"/>
      <path d="M 8.5 21.578125 
L 8.5 54.6875 
L 17.484375 54.6875 
L 17.484375 21.921875 
Q 17.484375 14.15625 20.5 10.265625 
Q 23.53125 6.390625 29.59375 6.390625 
Q 36.859375 6.390625 41.078125 11.03125 
Q 45.3125 15.671875 45.3125 23.6875 
L 45.3125 54.6875 
L 54.296875 54.6875 
L 54.296875 0 
L 45.3125 0 
L 45.3125 8.40625 
Q 42.046875 3.421875 37.71875 1 
Q 33.40625 -1.421875 27.6875 -1.421875 
Q 18.265625 -1.421875 13.375 4.4375 
Q 8.5 10.296875 8.5 21.578125 
z
M 31.109375 56 
z
" id="DejaVuSans-117"/>
      <path d="M 9.421875 75.984375 
L 18.40625 75.984375 
L 18.40625 0 
L 9.421875 0 
z
" id="DejaVuSans-108"/>
      <path d="M 34.28125 27.484375 
Q 23.390625 27.484375 19.1875 25 
Q 14.984375 22.515625 14.984375 16.5 
Q 14.984375 11.71875 18.140625 8.90625 
Q 21.296875 6.109375 26.703125 6.109375 
Q 34.1875 6.109375 38.703125 11.40625 
Q 43.21875 16.703125 43.21875 25.484375 
L 43.21875 27.484375 
z
M 52.203125 31.203125 
L 52.203125 0 
L 43.21875 0 
L 43.21875 8.296875 
Q 40.140625 3.328125 35.546875 0.953125 
Q 30.953125 -1.421875 24.3125 -1.421875 
Q 15.921875 -1.421875 10.953125 3.296875 
Q 6 8.015625 6 15.921875 
Q 6 25.140625 12.171875 29.828125 
Q 18.359375 34.515625 30.609375 34.515625 
L 43.21875 34.515625 
L 43.21875 35.40625 
Q 43.21875 41.609375 39.140625 45 
Q 35.0625 48.390625 27.6875 48.390625 
Q 23 48.390625 18.546875 47.265625 
Q 14.109375 46.140625 10.015625 43.890625 
L 10.015625 52.203125 
Q 14.9375 54.109375 19.578125 55.046875 
Q 24.21875 56 28.609375 56 
Q 40.484375 56 46.34375 49.84375 
Q 52.203125 43.703125 52.203125 31.203125 
z
" id="DejaVuSans-97"/>
      <path d="M 18.3125 70.21875 
L 18.3125 54.6875 
L 36.8125 54.6875 
L 36.8125 47.703125 
L 18.3125 47.703125 
L 18.3125 18.015625 
Q 18.3125 11.328125 20.140625 9.421875 
Q 21.96875 7.515625 27.59375 7.515625 
L 36.8125 7.515625 
L 36.8125 0 
L 27.59375 0 
Q 17.1875 0 13.234375 3.875 
Q 9.28125 7.765625 9.28125 18.015625 
L 9.28125 47.703125 
L 2.6875 47.703125 
L 2.6875 54.6875 
L 9.28125 54.6875 
L 9.28125 70.21875 
z
" id="DejaVuSans-116"/>
      <path d="M 56.203125 29.59375 
L 56.203125 25.203125 
L 14.890625 25.203125 
Q 15.484375 15.921875 20.484375 11.0625 
Q 25.484375 6.203125 34.421875 6.203125 
Q 39.59375 6.203125 44.453125 7.46875 
Q 49.3125 8.734375 54.109375 11.28125 
L 54.109375 2.78125 
Q 49.265625 0.734375 44.1875 -0.34375 
Q 39.109375 -1.421875 33.890625 -1.421875 
Q 20.796875 -1.421875 13.15625 6.1875 
Q 5.515625 13.8125 5.515625 26.8125 
Q 5.515625 40.234375 12.765625 48.109375 
Q 20.015625 56 32.328125 56 
Q 43.359375 56 49.78125 48.890625 
Q 56.203125 41.796875 56.203125 29.59375 
z
M 47.21875 32.234375 
Q 47.125 39.59375 43.09375 43.984375 
Q 39.0625 48.390625 32.421875 48.390625 
Q 24.90625 48.390625 20.390625 44.140625 
Q 15.875 39.890625 15.1875 32.171875 
z
" id="DejaVuSans-101"/>
      <path d="M 45.40625 46.390625 
L 45.40625 75.984375 
L 54.390625 75.984375 
L 54.390625 0 
L 45.40625 0 
L 45.40625 8.203125 
Q 42.578125 3.328125 38.25 0.953125 
Q 33.9375 -1.421875 27.875 -1.421875 
Q 17.96875 -1.421875 11.734375 6.484375 
Q 5.515625 14.40625 5.515625 27.296875 
Q 5.515625 40.1875 11.734375 48.09375 
Q 17.96875 56 27.875 56 
Q 33.9375 56 38.25 53.625 
Q 42.578125 51.265625 45.40625 46.390625 
z
M 14.796875 27.296875 
Q 14.796875 17.390625 18.875 11.75 
Q 22.953125 6.109375 30.078125 6.109375 
Q 37.203125 6.109375 41.296875 11.75 
Q 45.40625 17.390625 45.40625 27.296875 
Q 45.40625 37.203125 41.296875 42.84375 
Q 37.203125 48.484375 30.078125 48.484375 
Q 22.953125 48.484375 18.875 42.84375 
Q 14.796875 37.203125 14.796875 27.296875 
z
" id="DejaVuSans-100"/>
     </defs>
     <g transform="translate(91.978125 103.164678)scale(0.1 -0.1)">
      <use xlink:href="#DejaVuSans-115"/>
      <use x="52.099609" xlink:href="#DejaVuSans-105"/>
      <use x="79.882812" xlink:href="#DejaVuSans-109"/>
      <use x="177.294922" xlink:href="#DejaVuSans-117"/>
      <use x="240.673828" xlink:href="#DejaVuSans-108"/>
      <use x="268.457031" xlink:href="#DejaVuSans-97"/>
      <use x="329.736328" xlink:href="#DejaVuSans-116"/>
      <use x="368.945312" xlink:href="#DejaVuSans-101"/>
      <use x="430.46875" xlink:href="#DejaVuSans-100"/>
     </g>
    </g>
    <g id="line2d_55">
     <path d="M 63.978125 114.342803 
L 83.978125 114.342803 
" style="fill:none;stroke:#ff0000;stroke-linecap:square;stroke-width:2;"/>
    </g>
    <g id="line2d_56"/>
    <g id="text_12">
     <!-- target -->
     <defs>
      <path d="M 41.109375 46.296875 
Q 39.59375 47.171875 37.8125 47.578125 
Q 36.03125 48 33.890625 48 
Q 26.265625 48 22.1875 43.046875 
Q 18.109375 38.09375 18.109375 28.8125 
L 18.109375 0 
L 9.078125 0 
L 9.078125 54.6875 
L 18.109375 54.6875 
L 18.109375 46.1875 
Q 20.953125 51.171875 25.484375 53.578125 
Q 30.03125 56 36.53125 56 
Q 37.453125 56 38.578125 55.875 
Q 39.703125 55.765625 41.0625 55.515625 
z
" id="DejaVuSans-114"/>
      <path d="M 45.40625 27.984375 
Q 45.40625 37.75 41.375 43.109375 
Q 37.359375 48.484375 30.078125 48.484375 
Q 22.859375 48.484375 18.828125 43.109375 
Q 14.796875 37.75 14.796875 27.984375 
Q 14.796875 18.265625 18.828125 12.890625 
Q 22.859375 7.515625 30.078125 7.515625 
Q 37.359375 7.515625 41.375 12.890625 
Q 45.40625 18.265625 45.40625 27.984375 
z
M 54.390625 6.78125 
Q 54.390625 -7.171875 48.1875 -13.984375 
Q 42 -20.796875 29.203125 -20.796875 
Q 24.46875 -20.796875 20.265625 -20.09375 
Q 16.0625 -19.390625 12.109375 -17.921875 
L 12.109375 -9.1875 
Q 16.0625 -11.328125 19.921875 -12.34375 
Q 23.78125 -13.375 27.78125 -13.375 
Q 36.625 -13.375 41.015625 -8.765625 
Q 45.40625 -4.15625 45.40625 5.171875 
L 45.40625 9.625 
Q 42.625 4.78125 38.28125 2.390625 
Q 33.9375 0 27.875 0 
Q 17.828125 0 11.671875 7.65625 
Q 5.515625 15.328125 5.515625 27.984375 
Q 5.515625 40.671875 11.671875 48.328125 
Q 17.828125 56 27.875 56 
Q 33.9375 56 38.28125 53.609375 
Q 42.625 51.21875 45.40625 46.390625 
L 45.40625 54.6875 
L 54.390625 54.6875 
z
" id="DejaVuSans-103"/>
     </defs>
     <g transform="translate(91.978125 117.842803)scale(0.1 -0.1)">
      <use xlink:href="#DejaVuSans-116"/>
      <use x="39.208984" xlink:href="#DejaVuSans-97"/>
      <use x="100.488281" xlink:href="#DejaVuSans-114"/>
      <use x="141.585938" xlink:href="#DejaVuSans-103"/>
      <use x="205.0625" xlink:href="#DejaVuSans-101"/>
      <use x="266.585938" xlink:href="#DejaVuSans-116"/>
     </g>
    </g>
   </g>
  </g>
 </g>
 <defs>
  <clipPath id="pe02cfc304e">
   <rect height="115.517202" width="160.993529" x="54.978125" y="13.405289"/>
  </clipPath>
 </defs>
</svg>
