<?xml version="1.0" encoding="utf-8" standalone="no"?>
<!DOCTYPE svg PUBLIC "-//W3C//DTD SVG 1.1//EN"
  "http://www.w3.org/Graphics/SVG/1.1/DTD/svg11.dtd">
<!-- Created with matplotlib (https://matplotlib.org/) -->
<svg height="170.07874pt" version="1.1" viewBox="0 0 226.771654 170.07874" width="226.771654pt" xmlns="http://www.w3.org/2000/svg" xmlns:xlink="http://www.w3.org/1999/xlink">
 <defs>
  <style type="text/css">
*{stroke-linecap:butt;stroke-linejoin:round;}
  </style>
 </defs>
 <g id="figure_1">
  <g id="patch_1">
   <path d="M 0 170.07874 
L 226.771654 170.07874 
L 226.771654 0 
L 0 0 
z
" style="fill:#ffffff;"/>
  </g>
  <g id="axes_1">
   <g id="patch_2">
    <path d="M 55.8 128.92249 
L 215.971654 128.92249 
L 215.971654 10.8 
L 55.8 10.8 
z
" style="fill:#ffffff;"/>
   </g>
   <g id="matplotlib.axis_1">
    <g id="xtick_1">
     <g id="line2d_1">
      <path clip-path="url(#pd0941bd139)" d="M 99.763562 128.92249 
L 99.763562 10.8 
" style="fill:none;stroke:#b0b0b0;stroke-linecap:square;stroke-width:0.8;"/>
     </g>
     <g id="line2d_2">
      <defs>
       <path d="M 0 0 
L 0 3.5 
" id="m49a5e2f3f7" style="stroke:#000000;stroke-width:0.8;"/>
      </defs>
      <g>
       <use style="stroke:#000000;stroke-width:0.8;" x="99.763562" xlink:href="#m49a5e2f3f7" y="128.92249"/>
      </g>
     </g>
     <g id="text_1">
      <!-- $\mathdefault{10^{-2}}$ -->
      <defs>
       <path d="M 12.40625 8.296875 
L 28.515625 8.296875 
L 28.515625 63.921875 
L 10.984375 60.40625 
L 10.984375 69.390625 
L 28.421875 72.90625 
L 38.28125 72.90625 
L 38.28125 8.296875 
L 54.390625 8.296875 
L 54.390625 0 
L 12.40625 0 
z
" id="DejaVuSans-49"/>
       <path d="M 31.78125 66.40625 
Q 24.171875 66.40625 20.328125 58.90625 
Q 16.5 51.421875 16.5 36.375 
Q 16.5 21.390625 20.328125 13.890625 
Q 24.171875 6.390625 31.78125 6.390625 
Q 39.453125 6.390625 43.28125 13.890625 
Q 47.125 21.390625 47.125 36.375 
Q 47.125 51.421875 43.28125 58.90625 
Q 39.453125 66.40625 31.78125 66.40625 
z
M 31.78125 74.21875 
Q 44.046875 74.21875 50.515625 64.515625 
Q 56.984375 54.828125 56.984375 36.375 
Q 56.984375 17.96875 50.515625 8.265625 
Q 44.046875 -1.421875 31.78125 -1.421875 
Q 19.53125 -1.421875 13.0625 8.265625 
Q 6.59375 17.96875 6.59375 36.375 
Q 6.59375 54.828125 13.0625 64.515625 
Q 19.53125 74.21875 31.78125 74.21875 
z
" id="DejaVuSans-48"/>
       <path d="M 10.59375 35.5 
L 73.1875 35.5 
L 73.1875 27.203125 
L 10.59375 27.203125 
z
" id="DejaVuSans-8722"/>
       <path d="M 19.1875 8.296875 
L 53.609375 8.296875 
L 53.609375 0 
L 7.328125 0 
L 7.328125 8.296875 
Q 12.9375 14.109375 22.625 23.890625 
Q 32.328125 33.6875 34.8125 36.53125 
Q 39.546875 41.84375 41.421875 45.53125 
Q 43.3125 49.21875 43.3125 52.78125 
Q 43.3125 58.59375 39.234375 62.25 
Q 35.15625 65.921875 28.609375 65.921875 
Q 23.96875 65.921875 18.8125 64.3125 
Q 13.671875 62.703125 7.8125 59.421875 
L 7.8125 69.390625 
Q 13.765625 71.78125 18.9375 73 
Q 24.125 74.21875 28.421875 74.21875 
Q 39.75 74.21875 46.484375 68.546875 
Q 53.21875 62.890625 53.21875 53.421875 
Q 53.21875 48.921875 51.53125 44.890625 
Q 49.859375 40.875 45.40625 35.40625 
Q 44.1875 33.984375 37.640625 27.21875 
Q 31.109375 20.453125 19.1875 8.296875 
z
" id="DejaVuSans-50"/>
      </defs>
      <g transform="translate(88.013562 143.520928)scale(0.1 -0.1)">
       <use transform="translate(0 0.765625)" xlink:href="#DejaVuSans-49"/>
       <use transform="translate(63.623047 0.765625)" xlink:href="#DejaVuSans-48"/>
       <use transform="translate(128.203125 39.046875)scale(0.7)" xlink:href="#DejaVuSans-8722"/>
       <use transform="translate(186.855469 39.046875)scale(0.7)" xlink:href="#DejaVuSans-50"/>
      </g>
     </g>
    </g>
    <g id="xtick_2">
     <g id="line2d_3">
      <path clip-path="url(#pd0941bd139)" d="M 143.73701 128.92249 
L 143.73701 10.8 
" style="fill:none;stroke:#b0b0b0;stroke-linecap:square;stroke-width:0.8;"/>
     </g>
     <g id="line2d_4">
      <g>
       <use style="stroke:#000000;stroke-width:0.8;" x="143.73701" xlink:href="#m49a5e2f3f7" y="128.92249"/>
      </g>
     </g>
     <g id="text_2">
      <!-- $\mathdefault{10^{-1}}$ -->
      <g transform="translate(131.98701 143.520928)scale(0.1 -0.1)">
       <use transform="translate(0 0.684375)" xlink:href="#DejaVuSans-49"/>
       <use transform="translate(63.623047 0.684375)" xlink:href="#DejaVuSans-48"/>
       <use transform="translate(128.203125 38.965625)scale(0.7)" xlink:href="#DejaVuSans-8722"/>
       <use transform="translate(186.855469 38.965625)scale(0.7)" xlink:href="#DejaVuSans-49"/>
      </g>
     </g>
    </g>
    <g id="xtick_3">
     <g id="line2d_5">
      <path clip-path="url(#pd0941bd139)" d="M 187.710457 128.92249 
L 187.710457 10.8 
" style="fill:none;stroke:#b0b0b0;stroke-linecap:square;stroke-width:0.8;"/>
     </g>
     <g id="line2d_6">
      <g>
       <use style="stroke:#000000;stroke-width:0.8;" x="187.710457" xlink:href="#m49a5e2f3f7" y="128.92249"/>
      </g>
     </g>
     <g id="text_3">
      <!-- $\mathdefault{10^{0}}$ -->
      <g transform="translate(178.910457 143.520928)scale(0.1 -0.1)">
       <use transform="translate(0 0.765625)" xlink:href="#DejaVuSans-49"/>
       <use transform="translate(63.623047 0.765625)" xlink:href="#DejaVuSans-48"/>
       <use transform="translate(128.203125 39.046875)scale(0.7)" xlink:href="#DejaVuSans-48"/>
      </g>
     </g>
    </g>
    <g id="xtick_4">
     <g id="line2d_7">
      <defs>
       <path d="M 0 0 
L 0 2 
" id="mee9373b4d8" style="stroke:#000000;stroke-width:0.6;"/>
      </defs>
      <g>
       <use style="stroke:#000000;stroke-width:0.6;" x="69.027441" xlink:href="#mee9373b4d8" y="128.92249"/>
      </g>
     </g>
    </g>
    <g id="xtick_5">
     <g id="line2d_8">
      <g>
       <use style="stroke:#000000;stroke-width:0.6;" x="76.770781" xlink:href="#mee9373b4d8" y="128.92249"/>
      </g>
     </g>
    </g>
    <g id="xtick_6">
     <g id="line2d_9">
      <g>
       <use style="stroke:#000000;stroke-width:0.6;" x="82.264768" xlink:href="#mee9373b4d8" y="128.92249"/>
      </g>
     </g>
    </g>
    <g id="xtick_7">
     <g id="line2d_10">
      <g>
       <use style="stroke:#000000;stroke-width:0.6;" x="86.526235" xlink:href="#mee9373b4d8" y="128.92249"/>
      </g>
     </g>
    </g>
    <g id="xtick_8">
     <g id="line2d_11">
      <g>
       <use style="stroke:#000000;stroke-width:0.6;" x="90.008108" xlink:href="#mee9373b4d8" y="128.92249"/>
      </g>
     </g>
    </g>
    <g id="xtick_9">
     <g id="line2d_12">
      <g>
       <use style="stroke:#000000;stroke-width:0.6;" x="92.951989" xlink:href="#mee9373b4d8" y="128.92249"/>
      </g>
     </g>
    </g>
    <g id="xtick_10">
     <g id="line2d_13">
      <g>
       <use style="stroke:#000000;stroke-width:0.6;" x="95.502095" xlink:href="#mee9373b4d8" y="128.92249"/>
      </g>
     </g>
    </g>
    <g id="xtick_11">
     <g id="line2d_14">
      <g>
       <use style="stroke:#000000;stroke-width:0.6;" x="97.751448" xlink:href="#mee9373b4d8" y="128.92249"/>
      </g>
     </g>
    </g>
    <g id="xtick_12">
     <g id="line2d_15">
      <g>
       <use style="stroke:#000000;stroke-width:0.6;" x="113.000889" xlink:href="#mee9373b4d8" y="128.92249"/>
      </g>
     </g>
    </g>
    <g id="xtick_13">
     <g id="line2d_16">
      <g>
       <use style="stroke:#000000;stroke-width:0.6;" x="120.744229" xlink:href="#mee9373b4d8" y="128.92249"/>
      </g>
     </g>
    </g>
    <g id="xtick_14">
     <g id="line2d_17">
      <g>
       <use style="stroke:#000000;stroke-width:0.6;" x="126.238216" xlink:href="#mee9373b4d8" y="128.92249"/>
      </g>
     </g>
    </g>
    <g id="xtick_15">
     <g id="line2d_18">
      <g>
       <use style="stroke:#000000;stroke-width:0.6;" x="130.499683" xlink:href="#mee9373b4d8" y="128.92249"/>
      </g>
     </g>
    </g>
    <g id="xtick_16">
     <g id="line2d_19">
      <g>
       <use style="stroke:#000000;stroke-width:0.6;" x="133.981555" xlink:href="#mee9373b4d8" y="128.92249"/>
      </g>
     </g>
    </g>
    <g id="xtick_17">
     <g id="line2d_20">
      <g>
       <use style="stroke:#000000;stroke-width:0.6;" x="136.925437" xlink:href="#mee9373b4d8" y="128.92249"/>
      </g>
     </g>
    </g>
    <g id="xtick_18">
     <g id="line2d_21">
      <g>
       <use style="stroke:#000000;stroke-width:0.6;" x="139.475542" xlink:href="#mee9373b4d8" y="128.92249"/>
      </g>
     </g>
    </g>
    <g id="xtick_19">
     <g id="line2d_22">
      <g>
       <use style="stroke:#000000;stroke-width:0.6;" x="141.724895" xlink:href="#mee9373b4d8" y="128.92249"/>
      </g>
     </g>
    </g>
    <g id="xtick_20">
     <g id="line2d_23">
      <g>
       <use style="stroke:#000000;stroke-width:0.6;" x="156.974336" xlink:href="#mee9373b4d8" y="128.92249"/>
      </g>
     </g>
    </g>
    <g id="xtick_21">
     <g id="line2d_24">
      <g>
       <use style="stroke:#000000;stroke-width:0.6;" x="164.717676" xlink:href="#mee9373b4d8" y="128.92249"/>
      </g>
     </g>
    </g>
    <g id="xtick_22">
     <g id="line2d_25">
      <g>
       <use style="stroke:#000000;stroke-width:0.6;" x="170.211663" xlink:href="#mee9373b4d8" y="128.92249"/>
      </g>
     </g>
    </g>
    <g id="xtick_23">
     <g id="line2d_26">
      <g>
       <use style="stroke:#000000;stroke-width:0.6;" x="174.473131" xlink:href="#mee9373b4d8" y="128.92249"/>
      </g>
     </g>
    </g>
    <g id="xtick_24">
     <g id="line2d_27">
      <g>
       <use style="stroke:#000000;stroke-width:0.6;" x="177.955003" xlink:href="#mee9373b4d8" y="128.92249"/>
      </g>
     </g>
    </g>
    <g id="xtick_25">
     <g id="line2d_28">
      <g>
       <use style="stroke:#000000;stroke-width:0.6;" x="180.898884" xlink:href="#mee9373b4d8" y="128.92249"/>
      </g>
     </g>
    </g>
    <g id="xtick_26">
     <g id="line2d_29">
      <g>
       <use style="stroke:#000000;stroke-width:0.6;" x="183.44899" xlink:href="#mee9373b4d8" y="128.92249"/>
      </g>
     </g>
    </g>
    <g id="xtick_27">
     <g id="line2d_30">
      <g>
       <use style="stroke:#000000;stroke-width:0.6;" x="185.698343" xlink:href="#mee9373b4d8" y="128.92249"/>
      </g>
     </g>
    </g>
    <g id="xtick_28">
     <g id="line2d_31">
      <g>
       <use style="stroke:#000000;stroke-width:0.6;" x="200.947784" xlink:href="#mee9373b4d8" y="128.92249"/>
      </g>
     </g>
    </g>
    <g id="xtick_29">
     <g id="line2d_32">
      <g>
       <use style="stroke:#000000;stroke-width:0.6;" x="208.691124" xlink:href="#mee9373b4d8" y="128.92249"/>
      </g>
     </g>
    </g>
    <g id="xtick_30">
     <g id="line2d_33">
      <g>
       <use style="stroke:#000000;stroke-width:0.6;" x="214.185111" xlink:href="#mee9373b4d8" y="128.92249"/>
      </g>
     </g>
    </g>
    <g id="text_4">
     <!-- f (Hz) -->
     <defs>
      <path d="M 37.109375 75.984375 
L 37.109375 68.5 
L 28.515625 68.5 
Q 23.6875 68.5 21.796875 66.546875 
Q 19.921875 64.59375 19.921875 59.515625 
L 19.921875 54.6875 
L 34.71875 54.6875 
L 34.71875 47.703125 
L 19.921875 47.703125 
L 19.921875 0 
L 10.890625 0 
L 10.890625 47.703125 
L 2.296875 47.703125 
L 2.296875 54.6875 
L 10.890625 54.6875 
L 10.890625 58.5 
Q 10.890625 67.625 15.140625 71.796875 
Q 19.390625 75.984375 28.609375 75.984375 
z
" id="DejaVuSans-102"/>
      <path id="DejaVuSans-32"/>
      <path d="M 31 75.875 
Q 24.46875 64.65625 21.28125 53.65625 
Q 18.109375 42.671875 18.109375 31.390625 
Q 18.109375 20.125 21.3125 9.0625 
Q 24.515625 -2 31 -13.1875 
L 23.1875 -13.1875 
Q 15.875 -1.703125 12.234375 9.375 
Q 8.59375 20.453125 8.59375 31.390625 
Q 8.59375 42.28125 12.203125 53.3125 
Q 15.828125 64.359375 23.1875 75.875 
z
" id="DejaVuSans-40"/>
      <path d="M 9.8125 72.90625 
L 19.671875 72.90625 
L 19.671875 43.015625 
L 55.515625 43.015625 
L 55.515625 72.90625 
L 65.375 72.90625 
L 65.375 0 
L 55.515625 0 
L 55.515625 34.71875 
L 19.671875 34.71875 
L 19.671875 0 
L 9.8125 0 
z
" id="DejaVuSans-72"/>
      <path d="M 5.515625 54.6875 
L 48.1875 54.6875 
L 48.1875 46.484375 
L 14.40625 7.171875 
L 48.1875 7.171875 
L 48.1875 0 
L 4.296875 0 
L 4.296875 8.203125 
L 38.09375 47.515625 
L 5.515625 47.515625 
z
" id="DejaVuSans-122"/>
      <path d="M 8.015625 75.875 
L 15.828125 75.875 
Q 23.140625 64.359375 26.78125 53.3125 
Q 30.421875 42.28125 30.421875 31.390625 
Q 30.421875 20.453125 26.78125 9.375 
Q 23.140625 -1.703125 15.828125 -13.1875 
L 8.015625 -13.1875 
Q 14.5 -2 17.703125 9.0625 
Q 20.90625 20.125 20.90625 31.390625 
Q 20.90625 42.671875 17.703125 53.65625 
Q 14.5 64.65625 8.015625 75.875 
z
" id="DejaVuSans-41"/>
     </defs>
     <g transform="translate(122.250671 157.199053)scale(0.1 -0.1)">
      <use xlink:href="#DejaVuSans-102"/>
      <use x="35.205078" xlink:href="#DejaVuSans-32"/>
      <use x="66.992188" xlink:href="#DejaVuSans-40"/>
      <use x="106.005859" xlink:href="#DejaVuSans-72"/>
      <use x="181.201172" xlink:href="#DejaVuSans-122"/>
      <use x="233.691406" xlink:href="#DejaVuSans-41"/>
     </g>
    </g>
   </g>
   <g id="matplotlib.axis_2">
    <g id="ytick_1">
     <g id="line2d_34">
      <path clip-path="url(#pd0941bd139)" d="M 55.8 98.028626 
L 215.971654 98.028626 
" style="fill:none;stroke:#b0b0b0;stroke-linecap:square;stroke-width:0.8;"/>
     </g>
     <g id="line2d_35">
      <defs>
       <path d="M 0 0 
L -3.5 0 
" id="m7aad11e7bc" style="stroke:#000000;stroke-width:0.8;"/>
      </defs>
      <g>
       <use style="stroke:#000000;stroke-width:0.8;" x="55.8" xlink:href="#m7aad11e7bc" y="98.028626"/>
      </g>
     </g>
     <g id="text_5">
      <!-- $\mathdefault{10^{-2}}$ -->
      <g transform="translate(25.3 101.827845)scale(0.1 -0.1)">
       <use transform="translate(0 0.765625)" xlink:href="#DejaVuSans-49"/>
       <use transform="translate(63.623047 0.765625)" xlink:href="#DejaVuSans-48"/>
       <use transform="translate(128.203125 39.046875)scale(0.7)" xlink:href="#DejaVuSans-8722"/>
       <use transform="translate(186.855469 39.046875)scale(0.7)" xlink:href="#DejaVuSans-50"/>
      </g>
     </g>
    </g>
    <g id="ytick_2">
     <g id="line2d_36">
      <path clip-path="url(#pd0941bd139)" d="M 55.8 62.386502 
L 215.971654 62.386502 
" style="fill:none;stroke:#b0b0b0;stroke-linecap:square;stroke-width:0.8;"/>
     </g>
     <g id="line2d_37">
      <g>
       <use style="stroke:#000000;stroke-width:0.8;" x="55.8" xlink:href="#m7aad11e7bc" y="62.386502"/>
      </g>
     </g>
     <g id="text_6">
      <!-- $\mathdefault{10^{0}}$ -->
      <g transform="translate(31.2 66.185721)scale(0.1 -0.1)">
       <use transform="translate(0 0.765625)" xlink:href="#DejaVuSans-49"/>
       <use transform="translate(63.623047 0.765625)" xlink:href="#DejaVuSans-48"/>
       <use transform="translate(128.203125 39.046875)scale(0.7)" xlink:href="#DejaVuSans-48"/>
      </g>
     </g>
    </g>
    <g id="ytick_3">
     <g id="line2d_38">
      <path clip-path="url(#pd0941bd139)" d="M 55.8 26.744378 
L 215.971654 26.744378 
" style="fill:none;stroke:#b0b0b0;stroke-linecap:square;stroke-width:0.8;"/>
     </g>
     <g id="line2d_39">
      <g>
       <use style="stroke:#000000;stroke-width:0.8;" x="55.8" xlink:href="#m7aad11e7bc" y="26.744378"/>
      </g>
     </g>
     <g id="text_7">
      <!-- $\mathdefault{10^{2}}$ -->
      <g transform="translate(31.2 30.543597)scale(0.1 -0.1)">
       <use transform="translate(0 0.765625)" xlink:href="#DejaVuSans-49"/>
       <use transform="translate(63.623047 0.765625)" xlink:href="#DejaVuSans-48"/>
       <use transform="translate(128.203125 39.046875)scale(0.7)" xlink:href="#DejaVuSans-50"/>
      </g>
     </g>
    </g>
    <g id="text_8">
     <!-- $S(f) (m^2/s)$ -->
     <defs>
      <path d="M 60.296875 70.515625 
L 58.40625 60.890625 
Q 53.46875 63.53125 48.609375 64.875 
Q 43.75 66.21875 39.203125 66.21875 
Q 30.375 66.21875 25.140625 62.359375 
Q 19.921875 58.5 19.921875 52.09375 
Q 19.921875 48.578125 21.84375 46.703125 
Q 23.78125 44.828125 31.78125 42.671875 
L 37.703125 41.21875 
Q 47.703125 38.625 51.609375 34.640625 
Q 55.515625 30.671875 55.515625 23.484375 
Q 55.515625 12.453125 46.84375 5.515625 
Q 38.1875 -1.421875 24.03125 -1.421875 
Q 18.21875 -1.421875 12.359375 -0.265625 
Q 6.5 0.875 0.59375 3.21875 
L 2.59375 13.375 
Q 8.015625 10.015625 13.453125 8.296875 
Q 18.890625 6.59375 24.3125 6.59375 
Q 33.546875 6.59375 39.109375 10.6875 
Q 44.671875 14.796875 44.671875 21.390625 
Q 44.671875 25.78125 42.453125 28.046875 
Q 40.234375 30.328125 32.90625 32.171875 
L 27 33.6875 
Q 16.890625 36.328125 13.203125 39.765625 
Q 9.515625 43.21875 9.515625 49.421875 
Q 9.515625 60.296875 17.890625 67.25 
Q 26.265625 74.21875 39.703125 74.21875 
Q 44.921875 74.21875 50.046875 73.28125 
Q 55.171875 72.359375 60.296875 70.515625 
z
" id="DejaVuSans-Oblique-83"/>
      <path d="M 47.796875 75.984375 
L 46.390625 68.5 
L 37.796875 68.5 
Q 32.90625 68.5 30.6875 66.578125 
Q 28.46875 64.65625 27.390625 59.515625 
L 26.421875 54.6875 
L 41.21875 54.6875 
L 39.890625 47.703125 
L 25.09375 47.703125 
L 15.828125 0 
L 6.78125 0 
L 16.109375 47.703125 
L 7.515625 47.703125 
L 8.796875 54.6875 
L 17.390625 54.6875 
L 18.109375 58.5 
Q 19.96875 68.171875 24.625 72.078125 
Q 29.296875 75.984375 39.3125 75.984375 
z
" id="DejaVuSans-Oblique-102"/>
      <path d="M 89.796875 33.015625 
L 83.40625 0 
L 74.421875 0 
L 80.71875 32.71875 
Q 81.109375 34.8125 81.296875 36.328125 
Q 81.5 37.84375 81.5 38.921875 
Q 81.5 43.3125 79.046875 45.75 
Q 76.609375 48.1875 72.21875 48.1875 
Q 65.671875 48.1875 60.546875 43.28125 
Q 55.421875 38.375 53.90625 30.515625 
L 47.90625 0 
L 38.921875 0 
L 45.3125 32.71875 
Q 45.703125 34.515625 45.890625 36.046875 
Q 46.09375 37.59375 46.09375 38.8125 
Q 46.09375 43.265625 43.65625 45.71875 
Q 41.21875 48.1875 36.921875 48.1875 
Q 30.28125 48.1875 25.140625 43.28125 
Q 20.015625 38.375 18.5 30.515625 
L 12.5 0 
L 3.515625 0 
L 14.203125 54.6875 
L 23.1875 54.6875 
L 21.484375 46.1875 
Q 25.140625 50.984375 30.046875 53.484375 
Q 34.96875 56 40.578125 56 
Q 46.53125 56 50.359375 52.875 
Q 54.203125 49.75 54.984375 44.1875 
Q 59.078125 49.953125 64.46875 52.96875 
Q 69.875 56 75.875 56 
Q 82.90625 56 86.734375 51.953125 
Q 90.578125 47.90625 90.578125 40.484375 
Q 90.578125 38.875 90.375 36.9375 
Q 90.1875 35.015625 89.796875 33.015625 
z
" id="DejaVuSans-Oblique-109"/>
      <path d="M 25.390625 72.90625 
L 33.6875 72.90625 
L 8.296875 -9.28125 
L 0 -9.28125 
z
" id="DejaVuSans-47"/>
      <path d="M 50 53.078125 
L 48.296875 44.578125 
Q 44.734375 46.53125 40.765625 47.5 
Q 36.8125 48.484375 32.625 48.484375 
Q 25.53125 48.484375 21.453125 46.0625 
Q 17.390625 43.65625 17.390625 39.5 
Q 17.390625 34.671875 26.859375 32.078125 
Q 27.59375 31.890625 27.9375 31.78125 
L 30.8125 30.90625 
Q 39.796875 28.421875 42.796875 25.6875 
Q 45.796875 22.953125 45.796875 18.21875 
Q 45.796875 9.515625 38.890625 4.046875 
Q 31.984375 -1.421875 20.796875 -1.421875 
Q 16.453125 -1.421875 11.671875 -0.578125 
Q 6.890625 0.25 1.125 2 
L 2.875 11.28125 
Q 7.8125 8.734375 12.59375 7.421875 
Q 17.390625 6.109375 21.78125 6.109375 
Q 28.375 6.109375 32.5 8.9375 
Q 36.625 11.765625 36.625 16.109375 
Q 36.625 20.796875 25.78125 23.6875 
L 24.859375 23.921875 
L 21.78125 24.703125 
Q 14.9375 26.515625 11.765625 29.46875 
Q 8.59375 32.421875 8.59375 37.015625 
Q 8.59375 45.75 15.15625 50.875 
Q 21.734375 56 33.015625 56 
Q 37.453125 56 41.671875 55.265625 
Q 45.90625 54.546875 50 53.078125 
z
" id="DejaVuSans-Oblique-115"/>
     </defs>
     <g transform="translate(19.220312 94.361245)rotate(-90)scale(0.1 -0.1)">
      <use transform="translate(0 0.765625)" xlink:href="#DejaVuSans-Oblique-83"/>
      <use transform="translate(63.476562 0.765625)" xlink:href="#DejaVuSans-40"/>
      <use transform="translate(102.490234 0.765625)" xlink:href="#DejaVuSans-Oblique-102"/>
      <use transform="translate(137.695312 0.765625)" xlink:href="#DejaVuSans-41"/>
      <use transform="translate(176.708984 0.765625)" xlink:href="#DejaVuSans-40"/>
      <use transform="translate(215.722656 0.765625)" xlink:href="#DejaVuSans-Oblique-109"/>
      <use transform="translate(317.784661 39.046875)scale(0.7)" xlink:href="#DejaVuSans-50"/>
      <use transform="translate(365.055169 0.765625)" xlink:href="#DejaVuSans-47"/>
      <use transform="translate(398.746576 0.765625)" xlink:href="#DejaVuSans-Oblique-115"/>
      <use transform="translate(450.846185 0.765625)" xlink:href="#DejaVuSans-41"/>
     </g>
    </g>
   </g>
   <g id="line2d_40">
    <path clip-path="url(#pd0941bd139)" d="M 63.08053 42.09713 
L 76.317856 57.987486 
L 84.061196 53.028486 
L 89.555183 30.681915 
L 93.816651 27.664576 
L 97.298523 21.472821 
L 100.242404 23.870415 
L 102.79251 27.888093 
L 105.041863 18.068245 
L 107.053977 18.960129 
L 108.874156 30.687629 
L 110.53585 24.58 
L 112.064459 25.314959 
L 113.479731 42.376094 
L 114.797317 47.339785 
L 116.029837 31.803812 
L 117.187611 35.2822 
L 118.279189 34.363209 
L 119.311734 42.246534 
L 120.291304 31.73321 
L 121.223071 23.225746 
L 122.111483 16.169204 
L 122.960397 21.428281 
L 123.773176 21.50852 
L 124.552771 19.822806 
L 125.301786 23.025375 
L 126.022529 28.655364 
L 126.717058 25.441735 
L 127.387211 37.216839 
L 128.660845 18.239529 
L 129.267163 23.019417 
L 129.854823 37.545012 
L 130.424938 18.842684 
L 130.978525 26.006346 
L 131.516516 55.786663 
L 132.039766 29.417809 
L 132.549061 20.340557 
L 133.045126 31.60193 
L 133.528631 48.033701 
L 134.000196 32.773676 
L 134.909769 20.755776 
L 135.34881 29.132949 
L 135.777984 27.833993 
L 136.197724 28.928549 
L 136.608437 33.701525 
L 137.010503 35.188932 
L 137.404278 32.972434 
L 137.790098 31.905457 
L 138.168277 45.650357 
L 138.539113 32.167685 
L 138.902884 54.32936 
L 139.259856 52.10983 
L 139.954384 29.49561 
L 140.292401 33.521046 
L 140.624538 29.939872 
L 140.950998 35.00723 
L 141.271971 50.902813 
L 141.898172 26.952801 
L 142.203737 35.639266 
L 142.50449 57.117569 
L 142.80058 32.035769 
L 143.09215 24.989634 
L 143.379334 28.98849 
L 143.662264 30.748126 
L 143.941064 43.688235 
L 144.215852 37.466539 
L 144.486742 25.920101 
L 144.753843 26.465997 
L 145.01726 28.926132 
L 145.277093 35.441337 
L 145.533438 48.557854 
L 145.786388 80.385676 
L 146.282453 34.33108 
L 146.525735 29.741276 
L 146.765958 42.371696 
L 147.237523 27.777864 
L 147.46901 35.18717 
L 147.697724 37.409537 
L 147.923732 32.971976 
L 148.147096 32.814136 
L 148.367878 27.506188 
L 148.586137 26.642194 
L 148.801929 34.52795 
L 149.01531 35.387458 
L 149.226334 34.942095 
L 149.641511 29.749654 
L 150.047855 43.382852 
L 150.24783 32.628602 
L 150.445732 37.487706 
L 150.641605 35.459251 
L 150.835489 30.8926 
L 151.027425 32.083955 
L 151.217451 30.907228 
L 151.405604 33.590295 
L 151.591922 33.25115 
L 151.77644 31.92824 
L 151.959191 40.329148 
L 152.140211 70.830347 
L 152.319531 62.463072 
L 152.673197 39.704011 
L 152.847604 36.577229 
L 153.020433 41.22058 
L 153.191711 49.881456 
L 153.696518 39.250183 
L 153.861865 37.21672 
L 154.025792 44.853247 
L 154.188325 46.847236 
L 154.824964 29.474726 
L 154.980863 35.15162 
L 155.135498 36.614967 
L 155.288892 43.23917 
L 155.441064 35.234141 
L 155.592032 38.186591 
L 155.741817 32.641225 
L 155.890436 31.279203 
L 156.184248 47.112678 
L 156.329476 43.973422 
L 156.473609 43.339438 
L 156.616661 38.15943 
L 157.0395 61.75612 
L 157.316279 38.871214 
L 157.589104 46.100653 
L 157.724068 53.076078 
L 157.858086 53.721124 
L 157.99117 51.79888 
L 158.123332 58.022753 
L 158.254587 54.500796 
L 158.384945 64.806594 
L 158.51442 40.174081 
L 158.897658 45.993564 
L 159.148944 32.490916 
L 159.273357 33.853266 
L 159.519779 52.823334 
L 159.641808 52.195455 
L 159.763062 49.043583 
L 159.883551 51.003733 
L 160.122272 40.461568 
L 160.358045 49.03039 
L 160.47485 48.500322 
L 160.590944 42.036874 
L 160.706336 44.986736 
L 160.821036 43.412617 
L 160.935051 38.918934 
L 161.048389 39.905016 
L 161.161058 42.4162 
L 161.273067 40.216294 
L 161.495133 56.636547 
L 161.605205 45.425759 
L 161.823463 58.143908 
L 161.931664 57.1471 
L 162.146244 53.826825 
L 162.252637 44.282731 
L 162.35844 53.112474 
L 162.568304 41.352623 
L 162.672378 63.113169 
L 162.878838 44.060374 
L 162.981238 55.27875 
L 163.184404 49.972149 
L 163.285182 63.053296 
L 163.485157 48.592655 
L 163.584364 50.373458 
L 163.683059 62.895077 
L 163.781247 60.432494 
L 164.072816 42.928314 
L 164.169025 78.836922 
L 164.360001 38.160176 
L 164.454777 46.485594 
L 164.549086 80.431279 
L 164.736317 41.916095 
L 164.829249 46.273514 
L 164.92173 56.098957 
L 165.013766 44.456261 
L 165.105361 45.655292 
L 165.196518 53.607773 
L 165.287242 40.227329 
L 165.377538 42.670366 
L 165.467408 47.263874 
L 165.64589 44.787991 
L 165.734509 41.273139 
L 165.822719 52.496504 
L 165.997926 39.003501 
L 166.17154 49.937224 
L 166.343591 41.680123 
L 166.429038 55.098387 
L 166.514104 54.962697 
L 166.598794 56.66879 
L 166.683109 69.004964 
L 166.850632 51.570918 
L 166.933845 68.278008 
L 167.099192 40.778692 
L 167.263119 53.427336 
L 167.425651 46.572031 
L 167.506402 48.6803 
L 167.746624 61.09209 
L 167.90511 37.412673 
L 167.983862 39.352597 
L 168.140399 65.290159 
L 168.295664 42.751447 
L 168.372825 66.363723 
L 168.449676 53.980873 
L 168.602456 72.523323 
L 168.678391 62.617296 
L 168.754024 68.965266 
L 168.904398 52.240647 
L 168.979144 58.237952 
L 169.127762 39.562914 
L 169.20164 41.075815 
L 169.421575 70.570002 
L 169.566803 43.249512 
L 169.710935 60.165437 
L 169.853988 46.640141 
L 169.925114 46.816569 
L 169.995977 69.024311 
L 170.136918 48.521061 
L 170.276826 56.779924 
L 170.346398 51.534863 
L 170.484786 77.623059 
L 170.622178 59.239015 
L 170.690505 63.381501 
L 170.758589 58.492948 
L 170.82643 43.892616 
L 170.894032 45.617896 
L 170.961395 48.707331 
L 171.028522 58.301458 
L 171.095413 45.214103 
L 171.16207 46.160499 
L 171.228496 60.788853 
L 171.294692 53.577511 
L 171.360659 44.634665 
L 171.491913 60.155534 
L 171.622272 45.870392 
L 171.687119 62.769686 
L 171.751746 62.392282 
L 171.816156 57.406743 
L 171.944327 69.736469 
L 172.071644 51.132953 
L 172.134985 60.701994 
L 172.198117 53.546793 
L 172.261041 45.80687 
L 172.323759 51.469381 
L 172.448579 48.151838 
L 172.510684 50.536714 
L 172.572588 49.005472 
L 172.634293 45.61204 
L 172.757106 60.915286 
L 172.818218 50.398282 
L 172.879135 68.151248 
L 172.939858 58.79002 
L 173.000389 69.545536 
L 173.120878 46.177672 
L 173.180838 71.771103 
L 173.240611 58.196206 
L 173.359598 65.98859 
L 173.536701 52.095963 
L 173.595372 67.246282 
L 173.653864 58.073487 
L 173.712176 50.930842 
L 173.770312 56.818588 
L 173.943663 44.128499 
L 174.001099 45.125946 
L 174.115455 65.865141 
L 174.172378 56.006113 
L 174.229131 61.846665 
L 174.342134 49.416802 
L 174.454472 68.966444 
L 174.510394 61.921958 
L 174.732459 46.104931 
L 174.787575 51.595754 
L 174.842531 79.704165 
L 174.89733 67.138841 
L 174.951973 52.47984 
L 175.006459 60.712161 
L 175.06079 71.265376 
L 175.114967 62.17716 
L 175.168991 54.045576 
L 175.222863 54.46992 
L 175.276582 59.434457 
L 175.330152 52.366848 
L 175.383571 66.957897 
L 175.436842 51.749942 
L 175.489964 51.246674 
L 175.595767 49.230439 
L 175.64845 83.122294 
L 175.700987 55.482226 
L 175.753381 56.596397 
L 175.805631 53.658034 
L 175.961529 84.559492 
L 176.064759 56.919645 
L 176.116165 114.311056 
L 176.167433 50.996094 
L 176.218564 47.432072 
L 176.320417 59.752139 
L 176.371141 52.743037 
L 176.42173 54.993627 
L 176.472186 47.14771 
L 176.522509 48.049631 
L 176.722483 66.509644 
L 176.772152 60.660693 
L 176.871102 51.434659 
L 176.920386 66.364364 
L 176.969543 53.112058 
L 177.018573 45.750752 
L 177.067479 45.863628 
L 177.116259 48.263287 
L 177.164915 56.397628 
L 177.213447 94.719465 
L 177.261856 54.582617 
L 177.310143 49.349966 
L 177.454275 65.300358 
L 177.549762 48.358268 
L 177.597328 58.701318 
L 177.644775 56.744945 
L 177.692104 46.574596 
L 177.739317 50.994472 
L 177.786413 60.125185 
L 177.833393 54.258714 
L 177.880258 49.160347 
L 177.927008 55.401509 
L 177.973644 55.319398 
L 178.020166 52.565955 
L 178.20513 90.787224 
L 178.388321 46.437396 
L 178.56977 59.722465 
L 178.659853 46.729798 
L 178.704735 47.565399 
L 178.794184 79.31822 
L 178.838752 59.28698 
L 178.883217 60.324507 
L 178.971836 46.372753 
L 179.147851 61.882264 
L 179.191602 65.484144 
L 179.322257 50.827489 
L 179.408867 63.452381 
L 179.53805 49.11906 
L 179.623689 56.613744 
L 179.666365 69.628566 
L 179.708945 56.434169 
L 179.751431 47.662321 
L 179.793823 55.187516 
L 179.836121 69.444517 
L 179.878325 51.056661 
L 180.046215 56.978432 
L 180.12961 76.677322 
L 180.171172 55.795301 
L 180.212643 60.617317 
L 180.254024 77.724884 
L 180.295316 53.194438 
L 180.336518 49.155429 
L 180.418658 69.802067 
L 180.459596 55.746079 
L 180.500446 53.770905 
L 180.581885 74.060313 
L 180.622474 63.865651 
L 180.662978 60.069354 
L 180.703396 66.254568 
L 180.743728 66.709418 
L 180.904212 51.096068 
L 180.944123 55.272604 
L 181.023696 65.452016 
L 181.063358 58.028065 
L 181.102938 55.141214 
L 181.221189 78.55109 
L 181.338712 51.308761 
L 181.377726 59.619879 
L 181.416661 59.212814 
L 181.455516 55.779266 
L 181.494293 57.694073 
L 181.532991 70.541263 
L 181.57161 56.332421 
L 181.648616 59.414091 
L 181.725313 50.932283 
L 181.763546 53.085625 
L 181.839783 51.758397 
L 181.915717 69.168916 
L 181.991351 54.306982 
L 182.066686 55.279952 
L 182.104242 55.284662 
L 182.141725 79.053833 
L 182.21647 57.771324 
L 182.290924 61.79706 
L 182.328043 100.430024 
L 182.402064 63.733686 
L 182.51256 76.801108 
L 182.549251 73.058202 
L 182.585871 73.485938 
L 182.695312 55.309893 
L 182.767926 57.222336 
L 182.80413 57.732408 
L 182.876332 71.793152 
L 182.912331 60.425761 
L 182.948262 58.003846 
L 183.019922 65.561089 
L 183.091315 52.194499 
L 183.126911 54.302915 
L 183.233304 84.542656 
L 183.268636 61.627859 
L 183.339107 50.829011 
L 183.374245 56.302811 
L 183.514153 72.594741 
L 183.618416 73.714221 
L 183.653044 54.342585 
L 183.756553 72.995602 
L 183.790932 53.574797 
L 183.893699 54.60735 
L 184.029866 63.294217 
L 184.063757 57.547966 
L 184.131359 58.679657 
L 184.16507 60.14291 
L 184.198722 56.788524 
L 184.332739 53.338205 
L 184.366097 50.879312 
L 184.399397 55.360178 
L 184.432639 81.437655 
L 184.532019 80.198449 
L 184.630884 66.666912 
L 184.663726 80.932674 
L 184.696511 54.570764 
L 184.761913 54.160017 
L 184.79453 69.838495 
L 184.859598 61.00753 
L 184.956787 53.603992 
L 184.989073 54.897824 
L 185.053483 69.270658 
L 185.117676 62.272428 
L 185.213563 59.924657 
L 185.277221 53.660243 
L 185.30897 60.328648 
L 185.372312 71.394193 
L 185.403904 89.94984 
L 185.466932 69.678773 
L 185.561085 62.653564 
L 185.623597 88.604433 
L 185.654777 71.574177 
L 185.685905 58.790823 
L 185.778988 60.154426 
L 185.809915 59.031694 
L 185.840792 60.409935 
L 185.871619 60.970074 
L 185.902397 69.263537 
L 185.963803 56.165348 
L 185.994433 56.073332 
L 186.207474 81.819683 
L 186.267909 63.377735 
L 186.328153 69.408711 
L 186.418165 58.608192 
L 186.507754 63.425074 
L 186.537524 91.274718 
L 186.596925 62.913989 
L 186.685682 60.447777 
L 186.744625 80.242735 
L 186.832699 61.03042 
L 186.861967 67.406238 
L 186.920369 66.29619 
L 187.007638 60.124735 
L 187.03664 62.707551 
L 187.209729 87.501202 
L 187.352782 56.676882 
L 187.409704 77.897025 
L 187.438102 64.715241 
L 187.466457 55.656173 
L 187.551272 59.077993 
L 187.57946 67.073416 
L 187.663776 66.190703 
L 187.831298 59.803424 
L 187.859076 81.296055 
L 187.942169 64.277795 
L 187.969786 66.118952 
L 187.997364 58.971344 
L 188.079858 63.980684 
L 188.107277 73.355779 
L 188.134657 61.287242 
L 188.189299 73.184298 
L 188.27097 60.600242 
L 188.298117 65.095696 
L 188.352294 64.423629 
L 188.433273 96.48962 
L 188.487068 55.737261 
L 188.540713 62.889893 
L 188.594207 56.181415 
L 188.647552 77.276366 
L 188.700748 60.25519 
L 188.727291 79.15622 
L 188.780265 61.000677 
L 188.885776 89.609832 
L 188.938314 54.068862 
L 189.01685 57.326369 
L 189.147031 71.881626 
L 189.198856 55.2833 
L 189.27633 61.470948 
L 189.327806 73.372414 
L 189.40476 66.110764 
L 189.455891 56.347111 
L 189.506886 62.714737 
L 189.532332 64.188534 
L 189.659057 105.74996 
L 189.709513 57.3875 
L 189.784947 76.993607 
L 189.910012 57.206687 
L 189.95981 58.812249 
L 189.98466 70.621647 
L 190.034264 57.83245 
L 190.059018 62.731914 
L 190.108429 61.329353 
L 190.133087 65.867052 
L 190.182307 56.665652 
L 190.2559 60.387899 
L 190.353585 60.040418 
L 190.402241 78.253966 
L 190.450774 85.351216 
L 190.54747 58.250095 
L 190.595635 69.262818 
L 190.643678 56.988707 
L 190.691602 65.155786 
L 190.715518 59.165301 
L 190.763262 72.302668 
L 190.810887 61.290938 
L 190.858393 64.675337 
L 190.882101 82.499079 
L 190.976643 75.827987 
L 191.047244 57.654295 
L 191.094166 63.186875 
L 191.117584 64.155576 
L 191.140974 60.35684 
L 191.187667 70.230935 
L 191.21097 66.891244 
L 191.280712 56.517695 
L 191.303902 64.641157 
L 191.327065 83.137309 
L 191.373305 60.265104 
L 191.396384 81.724129 
L 191.442457 59.081828 
L 191.51136 60.005388 
L 191.648423 77.344519 
L 191.693893 57.867529 
L 191.761896 71.152572 
L 191.807097 78.597248 
L 191.852191 73.75055 
L 191.897179 56.689805 
L 191.986839 63.042373 
L 192.009188 62.752689 
L 192.120544 77.939268 
L 192.076079 61.688412 
L 192.142737 75.20566 
L 192.209163 58.72414 
L 192.253319 73.437305 
L 192.275359 82.536814 
L 192.319362 60.337186 
L 192.341326 59.901127 
L 192.407065 112.329727 
L 192.450767 68.784223 
L 192.494368 60.038376 
L 192.53787 73.788133 
L 192.559584 65.772007 
L 192.581273 73.865183 
L 192.646194 73.185349 
L 192.667785 58.31458 
L 192.753907 75.474314 
L 192.882365 60.578625 
L 192.903691 65.080417 
L 192.967527 75.302122 
L 192.988758 63.42811 
L 193.03115 70.385095 
L 193.073447 59.438909 
L 193.094561 70.287157 
L 193.178784 58.381782 
L 193.199781 60.439619 
L 193.220756 73.466328 
L 193.304425 66.620316 
L 193.346122 75.283781 
L 193.366937 88.264236 
L 193.429245 62.280456 
L 193.470671 57.207032 
L 193.491351 64.873567 
L 193.512008 89.192441 
L 193.594413 62.868965 
L 193.655985 57.46293 
L 193.737773 57.984852 
L 193.819212 73.90746 
L 193.839517 63.230739 
L 193.859801 58.285351 
L 193.900305 65.225404 
L 193.940723 63.328224 
L 194.001189 65.627291 
L 194.061465 64.0184 
L 194.121552 87.710874 
L 194.261022 57.138075 
L 194.320485 77.125588 
L 194.379763 60.926063 
L 194.458516 58.870136 
L 194.41918 61.923098 
L 194.478153 60.082688 
L 194.595556 82.507691 
L 194.615053 71.702415 
L 194.750978 59.235179 
L 194.847479 83.443246 
L 194.86672 63.366452 
L 194.885943 58.537654 
L 194.905146 68.484294 
L 194.962639 83.180138 
L 195.000872 64.446837 
L 195.058079 73.171671 
L 195.115115 69.870818 
L 195.17198 64.637768 
L 195.153044 79.892127 
L 195.190898 70.804196 
L 195.209797 86.695503 
L 195.285207 59.269912 
L 195.3228 71.218574 
L 195.397765 64.799866 
L 195.416461 63.03251 
L 195.435138 71.362265 
L 195.453797 79.682946 
L 195.509665 61.459346 
L 195.528251 61.271964 
L 195.546819 73.985581 
L 195.620912 60.98611 
L 195.639391 59.943844 
L 195.694719 77.662971 
L 195.749887 62.020009 
L 195.768241 60.681389 
L 195.804897 90.367948 
L 195.896228 72.016339 
L 195.914442 73.575952 
L 195.987125 62.646889 
L 196.023363 68.678305 
L 196.077592 93.43075 
L 196.113659 67.50021 
L 196.149658 71.558478 
L 196.167632 61.040933 
L 196.239359 84.047439 
L 196.257249 69.802134 
L 196.310818 63.017272 
L 196.328641 73.096843 
L 196.364238 65.513461 
L 196.488305 103.737507 
L 196.576433 60.948299 
L 196.611571 78.332095 
L 196.646645 95.201483 
L 196.664157 77.727824 
L 196.681654 82.178922 
L 196.786297 61.588353 
L 196.855743 85.881355 
L 196.890371 63.405299 
L 196.907661 62.180206 
L 196.99388 73.696319 
L 197.011077 64.599446 
L 197.028259 62.747071 
L 197.045425 69.409622 
L 197.062576 87.075402 
L 197.113936 68.581954 
L 197.1481 70.488388 
L 197.233242 61.890267 
L 197.182202 78.127716 
L 197.267193 65.679727 
L 197.301084 77.377082 
L 197.318007 97.467236 
L 197.368686 73.240624 
L 197.402397 76.122759 
L 197.41923 75.093886 
L 197.436049 83.410354 
L 197.486416 60.69756 
L 197.51992 74.602379 
L 197.570066 67.635779 
L 197.603424 79.190936 
L 197.620081 81.091462 
L 197.71972 61.164179 
L 197.669966 89.497406 
L 197.736276 66.957672 
L 197.769346 64.713287 
L 197.835313 74.599139 
L 197.901052 63.745875 
L 197.917452 76.984167 
L 197.933838 89.860944 
L 197.99924 66.590928 
L 198.015556 73.961393 
L 198.031857 73.671703 
L 198.064419 62.022544 
L 198.096925 78.950222 
L 198.145581 69.256632 
L 198.161772 62.094994 
L 198.194113 83.755927 
L 198.2264 72.005232 
L 198.242523 100.231245 
L 198.290809 68.904373 
L 198.322933 75.442677 
L 198.338974 71.826473 
L 198.355002 75.784757 
L 198.371017 120.23926 
L 198.434942 64.240252 
L 198.450889 65.923753 
L 198.482745 100.643804 
L 198.546297 73.781072 
L 198.562152 62.30894 
L 198.609639 85.025837 
L 198.657007 64.178292 
L 198.767079 96.952837 
L 198.814059 84.050873 
L 198.87652 66.558428 
L 198.923232 68.308158 
L 198.95431 91.849152 
L 199.031785 66.6893 
L 199.108946 84.834629 
L 199.078119 63.316808 
L 199.124341 68.230139 
L 199.139724 63.739183 
L 199.20113 72.764856 
L 199.216451 70.659973 
L 199.23176 78.133392 
L 199.277612 64.807526 
L 199.308119 66.324475 
L 199.323354 62.446705 
L 199.384174 70.99454 
L 199.414511 64.603388 
L 199.429662 78.461933 
L 199.490145 62.928221 
L 199.520315 71.823038 
L 199.535382 66.737839 
L 199.580511 78.191651 
L 199.595531 84.959632 
L 199.625535 65.332097 
L 199.655492 70.165658 
L 199.670452 64.610417 
L 199.745081 73.424861 
L 199.759972 73.771249 
L 199.804575 65.101265 
L 199.863883 65.596841 
L 199.937761 87.555126 
L 199.981951 76.858791 
L 199.996659 76.081968 
L 200.011355 98.026621 
L 200.026039 70.34992 
L 200.099294 81.636581 
L 200.128517 64.701012 
L 200.157696 97.90763 
L 200.21592 65.348439 
L 200.259471 63.643947 
L 200.375126 76.78226 
L 200.403931 65.813085 
L 200.432692 80.418545 
L 200.475753 79.380918 
L 200.518716 96.780313 
L 200.533016 78.220343 
L 200.661235 63.318579 
L 200.675429 64.50692 
L 200.717946 71.444226 
L 200.746239 79.168051 
L 200.774489 62.865827 
L 200.816787 75.64234 
L 200.873039 66.314725 
L 200.844934 79.409497 
L 200.901103 75.463953 
L 200.915119 107.393386 
L 200.999002 64.246705 
L 201.137994 81.061112 
L 201.248464 64.569908 
L 201.179496 84.490786 
L 201.262228 65.255238 
L 201.358299 83.022391 
L 201.303461 63.690714 
L 201.371984 71.654567 
L 201.385659 64.771096 
L 201.41298 76.172016 
L 201.481112 66.371051 
L 201.603141 101.596027 
L 201.549002 65.919831 
L 201.616652 74.937187 
L 201.630153 73.377918 
L 201.71096 117.420393 
L 201.684062 66.645445 
L 201.73782 72.074951 
L 201.831534 65.691889 
L 201.778039 92.047928 
L 201.844884 73.608398 
L 201.858225 83.764098 
L 201.871556 71.486994 
L 201.951351 80.327053 
L 201.977875 69.848886 
L 202.057227 72.570061 
L 202.109946 87.390878 
L 202.083605 71.724479 
L 202.16252 75.432549 
L 202.254177 66.059009 
L 202.201855 78.380453 
L 202.267235 66.549121 
L 202.293325 94.866337 
L 202.345397 64.980561 
L 202.384358 72.214916 
L 202.397327 65.560197 
L 202.410288 76.791058 
L 202.462042 76.394131 
L 202.513657 91.649943 
L 202.552277 71.065706 
L 202.565133 74.300847 
L 202.57798 67.802661 
L 202.603648 78.229662 
L 202.629283 72.536427 
L 202.680448 66.293772 
L 202.744212 113.503305 
L 202.871106 64.708996 
L 202.934238 90.240788 
L 202.984594 72.710715 
L 203.034817 67.128292 
L 203.072398 75.513823 
L 203.097411 89.220175 
L 203.122391 68.77531 
L 203.134869 69.548153 
L 203.147339 67.456372 
L 203.172254 81.055741 
L 203.1847 95.287696 
L 203.221987 72.437842 
L 203.271591 76.579373 
L 203.283972 65.033765 
L 203.321066 116.563069 
L 203.38273 71.015852 
L 203.419634 97.626639 
L 203.468727 68.069503 
L 203.505465 81.090059 
L 203.627416 66.025555 
L 203.566538 95.180499 
L 203.639568 66.532831 
L 203.66385 74.007846 
L 203.71232 107.444094 
L 203.6881 69.262939 
L 203.760668 74.283274 
L 203.784796 65.843403 
L 203.869006 68.586987 
L 203.928929 79.2905 
L 203.976732 67.743707 
L 204.000589 83.964679 
L 204.083854 68.25203 
L 204.095719 68.610774 
L 204.154936 80.279526 
L 204.131271 68.301508 
L 204.202178 76.995674 
L 204.21397 71.468381 
L 204.237533 85.012633 
L 204.284571 73.589221 
L 204.354911 100.133464 
L 204.331493 67.404905 
L 204.389984 80.352193 
L 204.424993 67.83361 
L 204.471573 72.37569 
L 204.4832 90.797121 
L 204.564391 68.386373 
L 204.575962 69.975815 
L 204.599082 69.445789 
L 204.622175 74.668932 
L 204.679784 105.209229 
L 204.714266 70.764893 
L 204.73722 86.323776 
L 204.748686 89.523583 
L 204.783045 71.089044 
L 204.805916 77.740152 
L 204.817341 74.745479 
L 204.82876 92.060177 
L 204.840171 111.825784 
L 204.919863 66.856161 
L 204.953914 83.746354 
L 205.033133 70.540599 
L 205.066984 73.757857 
L 205.100775 66.610083 
L 205.123269 87.81812 
L 205.20179 66.610108 
L 205.212981 66.666433 
L 205.313406 86.639013 
L 205.324532 77.554129 
L 205.402231 69.193893 
L 205.380064 96.346265 
L 205.413306 75.725343 
L 205.424373 86.142688 
L 205.490646 69.143064 
L 205.512685 69.572377 
L 205.523696 66.372125 
L 205.567674 72.310593 
L 205.589625 69.727044 
L 205.600591 80.790564 
L 205.622504 68.227352 
L 205.699003 73.083884 
L 205.775197 86.516015 
L 205.753458 70.436177 
L 205.8186 79.887319 
L 205.883521 68.306858 
L 205.905112 87.349588 
L 205.926679 71.079727 
L 206.044863 96.774301 
L 206.055571 81.707717 
L 206.087658 68.511245 
L 206.10902 87.905509 
L 206.16232 82.235998 
L 206.172962 120.181065 
L 206.204853 69.081712 
L 206.268476 80.46749 
L 206.331888 67.43328 
L 206.310774 104.163165 
L 206.352978 78.686728 
L 206.363515 99.572301 
L 206.447598 68.560209 
L 206.458083 71.002461 
L 206.593859 103.335142 
L 206.625056 87.911552 
L 206.728677 88.879297 
L 206.749334 69.286573 
L 206.80088 84.099903 
L 206.811172 123.553286 
L 206.903554 69.528067 
L 207.00568 96.642236 
L 206.94447 68.049996 
L 207.026039 78.12893 
L 207.086989 86.846021 
L 207.097128 76.285488 
L 207.147744 69.138737 
L 207.178049 78.916674 
L 207.198226 77.041106 
L 207.248575 101.604436 
L 207.288759 68.722287 
L 207.30882 82.9435 
L 207.408806 68.989263 
L 207.338871 84.774395 
L 207.428741 72.691049 
L 207.438701 73.170817 
L 207.458604 102.827667 
L 207.488421 70.332069 
L 207.547914 74.252587 
L 207.567704 85.907506 
L 207.626952 68.015872 
L 207.64666 82.080248 
L 207.666348 70.559518 
L 207.686016 97.055376 
L 207.754694 80.528597 
L 207.764485 79.941612 
L 207.774271 82.822433 
L 207.784052 70.754897 
L 207.871857 87.613676 
L 207.881588 83.296366 
L 207.901035 87.795058 
L 207.93017 70.524474 
L 207.949568 80.009043 
L 208.026964 70.900632 
L 207.997977 101.105598 
L 208.055906 75.504245 
L 208.084805 108.095034 
L 208.161656 71.486917 
L 208.238199 90.086939 
L 208.257287 69.810292 
L 208.276356 75.595457 
L 208.285883 70.945665 
L 208.304924 94.577802 
L 208.352441 77.808396 
L 208.361931 105.949474 
L 208.380895 69.417518 
L 208.456566 73.753143 
L 208.475437 95.076503 
L 208.550735 72.06213 
L 208.569514 79.915806 
L 208.616378 69.920257 
L 208.672465 74.451945 
L 208.681797 80.631479 
L 208.681797 80.631479 
" style="fill:none;stroke:#000000;stroke-linecap:square;stroke-width:0.5;"/>
   </g>
   <g id="line2d_41">
    <path clip-path="url(#pd0941bd139)" d="M 63.08053 42.118537 
L 84.061196 33.894396 
L 93.816651 30.47654 
L 100.242404 28.627177 
L 105.041863 27.609616 
L 108.874156 27.109698 
L 112.064459 26.953296 
L 114.797317 27.030596 
L 118.279189 27.429854 
L 121.223071 28.033282 
L 124.552771 28.997082 
L 128.034644 30.294471 
L 131.516516 31.845012 
L 135.777984 34.018131 
L 140.624538 36.761828 
L 146.765958 40.51239 
L 155.288892 46.000509 
L 169.566803 55.496933 
L 208.691124 81.88105 
L 208.691124 81.88105 
" style="fill:none;stroke:#ff0000;stroke-dasharray:7.4,3.2;stroke-dashoffset:0;stroke-width:2;"/>
   </g>
   <g id="patch_3">
    <path d="M 55.8 128.92249 
L 55.8 10.8 
" style="fill:none;stroke:#000000;stroke-linecap:square;stroke-linejoin:miter;stroke-width:0.8;"/>
   </g>
   <g id="patch_4">
    <path d="M 215.971654 128.92249 
L 215.971654 10.8 
" style="fill:none;stroke:#000000;stroke-linecap:square;stroke-linejoin:miter;stroke-width:0.8;"/>
   </g>
   <g id="patch_5">
    <path d="M 55.8 128.92249 
L 215.971654 128.92249 
" style="fill:none;stroke:#000000;stroke-linecap:square;stroke-linejoin:miter;stroke-width:0.8;"/>
   </g>
   <g id="patch_6">
    <path d="M 55.8 10.8 
L 215.971654 10.8 
" style="fill:none;stroke:#000000;stroke-linecap:square;stroke-linejoin:miter;stroke-width:0.8;"/>
   </g>
   <g id="legend_1">
    <g id="patch_7">
     <path d="M 62.8 123.92249 
L 144.19375 123.92249 
Q 146.19375 123.92249 146.19375 121.92249 
L 146.19375 93.56624 
Q 146.19375 91.56624 144.19375 91.56624 
L 62.8 91.56624 
Q 60.8 91.56624 60.8 93.56624 
L 60.8 121.92249 
Q 60.8 123.92249 62.8 123.92249 
z
" style="fill:#ffffff;opacity:0.8;stroke:#cccccc;stroke-linejoin:miter;"/>
    </g>
    <g id="line2d_42">
     <path d="M 64.8 99.664678 
L 84.8 99.664678 
" style="fill:none;stroke:#000000;stroke-linecap:square;stroke-width:0.5;"/>
    </g>
    <g id="line2d_43"/>
    <g id="text_9">
     <!-- simulated -->
     <defs>
      <path d="M 44.28125 53.078125 
L 44.28125 44.578125 
Q 40.484375 46.53125 36.375 47.5 
Q 32.28125 48.484375 27.875 48.484375 
Q 21.1875 48.484375 17.84375 46.4375 
Q 14.5 44.390625 14.5 40.28125 
Q 14.5 37.15625 16.890625 35.375 
Q 19.28125 33.59375 26.515625 31.984375 
L 29.59375 31.296875 
Q 39.15625 29.25 43.1875 25.515625 
Q 47.21875 21.78125 47.21875 15.09375 
Q 47.21875 7.46875 41.1875 3.015625 
Q 35.15625 -1.421875 24.609375 -1.421875 
Q 20.21875 -1.421875 15.453125 -0.5625 
Q 10.6875 0.296875 5.421875 2 
L 5.421875 11.28125 
Q 10.40625 8.6875 15.234375 7.390625 
Q 20.0625 6.109375 24.8125 6.109375 
Q 31.15625 6.109375 34.5625 8.28125 
Q 37.984375 10.453125 37.984375 14.40625 
Q 37.984375 18.0625 35.515625 20.015625 
Q 33.0625 21.96875 24.703125 23.78125 
L 21.578125 24.515625 
Q 13.234375 26.265625 9.515625 29.90625 
Q 5.8125 33.546875 5.8125 39.890625 
Q 5.8125 47.609375 11.28125 51.796875 
Q 16.75 56 26.8125 56 
Q 31.78125 56 36.171875 55.265625 
Q 40.578125 54.546875 44.28125 53.078125 
z
" id="DejaVuSans-115"/>
      <path d="M 9.421875 54.6875 
L 18.40625 54.6875 
L 18.40625 0 
L 9.421875 0 
z
M 9.421875 75.984375 
L 18.40625 75.984375 
L 18.40625 64.59375 
L 9.421875 64.59375 
z
" id="DejaVuSans-105"/>
      <path d="M 52 44.1875 
Q 55.375 50.25 60.0625 53.125 
Q 64.75 56 71.09375 56 
Q 79.640625 56 84.28125 50.015625 
Q 88.921875 44.046875 88.921875 33.015625 
L 88.921875 0 
L 79.890625 0 
L 79.890625 32.71875 
Q 79.890625 40.578125 77.09375 44.375 
Q 74.3125 48.1875 68.609375 48.1875 
Q 61.625 48.1875 57.5625 43.546875 
Q 53.515625 38.921875 53.515625 30.90625 
L 53.515625 0 
L 44.484375 0 
L 44.484375 32.71875 
Q 44.484375 40.625 41.703125 44.40625 
Q 38.921875 48.1875 33.109375 48.1875 
Q 26.21875 48.1875 22.15625 43.53125 
Q 18.109375 38.875 18.109375 30.90625 
L 18.109375 0 
L 9.078125 0 
L 9.078125 54.6875 
L 18.109375 54.6875 
L 18.109375 46.1875 
Q 21.1875 51.21875 25.484375 53.609375 
Q 29.78125 56 35.6875 56 
Q 41.65625 56 45.828125 52.96875 
Q 50 49.953125 52 44.1875 
z
" id="DejaVuSans-109"/>
      <path d="M 8.5 21.578125 
L 8.5 54.6875 
L 17.484375 54.6875 
L 17.484375 21.921875 
Q 17.484375 14.15625 20.5 10.265625 
Q 23.53125 6.390625 29.59375 6.390625 
Q 36.859375 6.390625 41.078125 11.03125 
Q 45.3125 15.671875 45.3125 23.6875 
L 45.3125 54.6875 
L 54.296875 54.6875 
L 54.296875 0 
L 45.3125 0 
L 45.3125 8.40625 
Q 42.046875 3.421875 37.71875 1 
Q 33.40625 -1.421875 27.6875 -1.421875 
Q 18.265625 -1.421875 13.375 4.4375 
Q 8.5 10.296875 8.5 21.578125 
z
M 31.109375 56 
z
" id="DejaVuSans-117"/>
      <path d="M 9.421875 75.984375 
L 18.40625 75.984375 
L 18.40625 0 
L 9.421875 0 
z
" id="DejaVuSans-108"/>
      <path d="M 34.28125 27.484375 
Q 23.390625 27.484375 19.1875 25 
Q 14.984375 22.515625 14.984375 16.5 
Q 14.984375 11.71875 18.140625 8.90625 
Q 21.296875 6.109375 26.703125 6.109375 
Q 34.1875 6.109375 38.703125 11.40625 
Q 43.21875 16.703125 43.21875 25.484375 
L 43.21875 27.484375 
z
M 52.203125 31.203125 
L 52.203125 0 
L 43.21875 0 
L 43.21875 8.296875 
Q 40.140625 3.328125 35.546875 0.953125 
Q 30.953125 -1.421875 24.3125 -1.421875 
Q 15.921875 -1.421875 10.953125 3.296875 
Q 6 8.015625 6 15.921875 
Q 6 25.140625 12.171875 29.828125 
Q 18.359375 34.515625 30.609375 34.515625 
L 43.21875 34.515625 
L 43.21875 35.40625 
Q 43.21875 41.609375 39.140625 45 
Q 35.0625 48.390625 27.6875 48.390625 
Q 23 48.390625 18.546875 47.265625 
Q 14.109375 46.140625 10.015625 43.890625 
L 10.015625 52.203125 
Q 14.9375 54.109375 19.578125 55.046875 
Q 24.21875 56 28.609375 56 
Q 40.484375 56 46.34375 49.84375 
Q 52.203125 43.703125 52.203125 31.203125 
z
" id="DejaVuSans-97"/>
      <path d="M 18.3125 70.21875 
L 18.3125 54.6875 
L 36.8125 54.6875 
L 36.8125 47.703125 
L 18.3125 47.703125 
L 18.3125 18.015625 
Q 18.3125 11.328125 20.140625 9.421875 
Q 21.96875 7.515625 27.59375 7.515625 
L 36.8125 7.515625 
L 36.8125 0 
L 27.59375 0 
Q 17.1875 0 13.234375 3.875 
Q 9.28125 7.765625 9.28125 18.015625 
L 9.28125 47.703125 
L 2.6875 47.703125 
L 2.6875 54.6875 
L 9.28125 54.6875 
L 9.28125 70.21875 
z
" id="DejaVuSans-116"/>
      <path d="M 56.203125 29.59375 
L 56.203125 25.203125 
L 14.890625 25.203125 
Q 15.484375 15.921875 20.484375 11.0625 
Q 25.484375 6.203125 34.421875 6.203125 
Q 39.59375 6.203125 44.453125 7.46875 
Q 49.3125 8.734375 54.109375 11.28125 
L 54.109375 2.78125 
Q 49.265625 0.734375 44.1875 -0.34375 
Q 39.109375 -1.421875 33.890625 -1.421875 
Q 20.796875 -1.421875 13.15625 6.1875 
Q 5.515625 13.8125 5.515625 26.8125 
Q 5.515625 40.234375 12.765625 48.109375 
Q 20.015625 56 32.328125 56 
Q 43.359375 56 49.78125 48.890625 
Q 56.203125 41.796875 56.203125 29.59375 
z
M 47.21875 32.234375 
Q 47.125 39.59375 43.09375 43.984375 
Q 39.0625 48.390625 32.421875 48.390625 
Q 24.90625 48.390625 20.390625 44.140625 
Q 15.875 39.890625 15.1875 32.171875 
z
" id="DejaVuSans-101"/>
      <path d="M 45.40625 46.390625 
L 45.40625 75.984375 
L 54.390625 75.984375 
L 54.390625 0 
L 45.40625 0 
L 45.40625 8.203125 
Q 42.578125 3.328125 38.25 0.953125 
Q 33.9375 -1.421875 27.875 -1.421875 
Q 17.96875 -1.421875 11.734375 6.484375 
Q 5.515625 14.40625 5.515625 27.296875 
Q 5.515625 40.1875 11.734375 48.09375 
Q 17.96875 56 27.875 56 
Q 33.9375 56 38.25 53.625 
Q 42.578125 51.265625 45.40625 46.390625 
z
M 14.796875 27.296875 
Q 14.796875 17.390625 18.875 11.75 
Q 22.953125 6.109375 30.078125 6.109375 
Q 37.203125 6.109375 41.296875 11.75 
Q 45.40625 17.390625 45.40625 27.296875 
Q 45.40625 37.203125 41.296875 42.84375 
Q 37.203125 48.484375 30.078125 48.484375 
Q 22.953125 48.484375 18.875 42.84375 
Q 14.796875 37.203125 14.796875 27.296875 
z
" id="DejaVuSans-100"/>
     </defs>
     <g transform="translate(92.8 103.164678)scale(0.1 -0.1)">
      <use xlink:href="#DejaVuSans-115"/>
      <use x="52.099609" xlink:href="#DejaVuSans-105"/>
      <use x="79.882812" xlink:href="#DejaVuSans-109"/>
      <use x="177.294922" xlink:href="#DejaVuSans-117"/>
      <use x="240.673828" xlink:href="#DejaVuSans-108"/>
      <use x="268.457031" xlink:href="#DejaVuSans-97"/>
      <use x="329.736328" xlink:href="#DejaVuSans-116"/>
      <use x="368.945312" xlink:href="#DejaVuSans-101"/>
      <use x="430.46875" xlink:href="#DejaVuSans-100"/>
     </g>
    </g>
    <g id="line2d_44">
     <path d="M 64.8 114.342803 
L 84.8 114.342803 
" style="fill:none;stroke:#ff0000;stroke-dasharray:7.4,3.2;stroke-dashoffset:0;stroke-width:2;"/>
    </g>
    <g id="line2d_45"/>
    <g id="text_10">
     <!-- target -->
     <defs>
      <path d="M 41.109375 46.296875 
Q 39.59375 47.171875 37.8125 47.578125 
Q 36.03125 48 33.890625 48 
Q 26.265625 48 22.1875 43.046875 
Q 18.109375 38.09375 18.109375 28.8125 
L 18.109375 0 
L 9.078125 0 
L 9.078125 54.6875 
L 18.109375 54.6875 
L 18.109375 46.1875 
Q 20.953125 51.171875 25.484375 53.578125 
Q 30.03125 56 36.53125 56 
Q 37.453125 56 38.578125 55.875 
Q 39.703125 55.765625 41.0625 55.515625 
z
" id="DejaVuSans-114"/>
      <path d="M 45.40625 27.984375 
Q 45.40625 37.75 41.375 43.109375 
Q 37.359375 48.484375 30.078125 48.484375 
Q 22.859375 48.484375 18.828125 43.109375 
Q 14.796875 37.75 14.796875 27.984375 
Q 14.796875 18.265625 18.828125 12.890625 
Q 22.859375 7.515625 30.078125 7.515625 
Q 37.359375 7.515625 41.375 12.890625 
Q 45.40625 18.265625 45.40625 27.984375 
z
M 54.390625 6.78125 
Q 54.390625 -7.171875 48.1875 -13.984375 
Q 42 -20.796875 29.203125 -20.796875 
Q 24.46875 -20.796875 20.265625 -20.09375 
Q 16.0625 -19.390625 12.109375 -17.921875 
L 12.109375 -9.1875 
Q 16.0625 -11.328125 19.921875 -12.34375 
Q 23.78125 -13.375 27.78125 -13.375 
Q 36.625 -13.375 41.015625 -8.765625 
Q 45.40625 -4.15625 45.40625 5.171875 
L 45.40625 9.625 
Q 42.625 4.78125 38.28125 2.390625 
Q 33.9375 0 27.875 0 
Q 17.828125 0 11.671875 7.65625 
Q 5.515625 15.328125 5.515625 27.984375 
Q 5.515625 40.671875 11.671875 48.328125 
Q 17.828125 56 27.875 56 
Q 33.9375 56 38.28125 53.609375 
Q 42.625 51.21875 45.40625 46.390625 
L 45.40625 54.6875 
L 54.390625 54.6875 
z
" id="DejaVuSans-103"/>
     </defs>
     <g transform="translate(92.8 117.842803)scale(0.1 -0.1)">
      <use xlink:href="#DejaVuSans-116"/>
      <use x="39.208984" xlink:href="#DejaVuSans-97"/>
      <use x="100.488281" xlink:href="#DejaVuSans-114"/>
      <use x="141.585938" xlink:href="#DejaVuSans-103"/>
      <use x="205.0625" xlink:href="#DejaVuSans-101"/>
      <use x="266.585938" xlink:href="#DejaVuSans-116"/>
     </g>
    </g>
   </g>
  </g>
 </g>
 <defs>
  <clipPath id="pd0941bd139">
   <rect height="118.12249" width="160.171654" x="55.8" y="10.8"/>
  </clipPath>
 </defs>
</svg>
