<?xml version="1.0" encoding="utf-8" standalone="no"?>
<!DOCTYPE svg PUBLIC "-//W3C//DTD SVG 1.1//EN"
  "http://www.w3.org/Graphics/SVG/1.1/DTD/svg11.dtd">
<!-- Created with matplotlib (https://matplotlib.org/) -->
<svg height="170.07874pt" version="1.1" viewBox="0 0 226.771654 170.07874" width="226.771654pt" xmlns="http://www.w3.org/2000/svg" xmlns:xlink="http://www.w3.org/1999/xlink">
 <defs>
  <style type="text/css">
*{stroke-linecap:butt;stroke-linejoin:round;}
  </style>
 </defs>
 <g id="figure_1">
  <g id="patch_1">
   <path d="M 0 170.07874 
L 226.771654 170.07874 
L 226.771654 0 
L 0 0 
z
" style="fill:#ffffff;"/>
  </g>
  <g id="axes_1">
   <g id="patch_2">
    <path d="M 55.8 128.92249 
L 215.971654 128.92249 
L 215.971654 10.8 
L 55.8 10.8 
z
" style="fill:#ffffff;"/>
   </g>
   <g id="matplotlib.axis_1">
    <g id="xtick_1">
     <g id="line2d_1">
      <path clip-path="url(#pe1f1459328)" d="M 99.763562 128.92249 
L 99.763562 10.8 
" style="fill:none;stroke:#b0b0b0;stroke-linecap:square;stroke-width:0.8;"/>
     </g>
     <g id="line2d_2">
      <defs>
       <path d="M 0 0 
L 0 3.5 
" id="m2eb079f121" style="stroke:#000000;stroke-width:0.8;"/>
      </defs>
      <g>
       <use style="stroke:#000000;stroke-width:0.8;" x="99.763562" xlink:href="#m2eb079f121" y="128.92249"/>
      </g>
     </g>
     <g id="text_1">
      <!-- $\mathdefault{10^{-2}}$ -->
      <defs>
       <path d="M 12.40625 8.296875 
L 28.515625 8.296875 
L 28.515625 63.921875 
L 10.984375 60.40625 
L 10.984375 69.390625 
L 28.421875 72.90625 
L 38.28125 72.90625 
L 38.28125 8.296875 
L 54.390625 8.296875 
L 54.390625 0 
L 12.40625 0 
z
" id="DejaVuSans-49"/>
       <path d="M 31.78125 66.40625 
Q 24.171875 66.40625 20.328125 58.90625 
Q 16.5 51.421875 16.5 36.375 
Q 16.5 21.390625 20.328125 13.890625 
Q 24.171875 6.390625 31.78125 6.390625 
Q 39.453125 6.390625 43.28125 13.890625 
Q 47.125 21.390625 47.125 36.375 
Q 47.125 51.421875 43.28125 58.90625 
Q 39.453125 66.40625 31.78125 66.40625 
z
M 31.78125 74.21875 
Q 44.046875 74.21875 50.515625 64.515625 
Q 56.984375 54.828125 56.984375 36.375 
Q 56.984375 17.96875 50.515625 8.265625 
Q 44.046875 -1.421875 31.78125 -1.421875 
Q 19.53125 -1.421875 13.0625 8.265625 
Q 6.59375 17.96875 6.59375 36.375 
Q 6.59375 54.828125 13.0625 64.515625 
Q 19.53125 74.21875 31.78125 74.21875 
z
" id="DejaVuSans-48"/>
       <path d="M 10.59375 35.5 
L 73.1875 35.5 
L 73.1875 27.203125 
L 10.59375 27.203125 
z
" id="DejaVuSans-8722"/>
       <path d="M 19.1875 8.296875 
L 53.609375 8.296875 
L 53.609375 0 
L 7.328125 0 
L 7.328125 8.296875 
Q 12.9375 14.109375 22.625 23.890625 
Q 32.328125 33.6875 34.8125 36.53125 
Q 39.546875 41.84375 41.421875 45.53125 
Q 43.3125 49.21875 43.3125 52.78125 
Q 43.3125 58.59375 39.234375 62.25 
Q 35.15625 65.921875 28.609375 65.921875 
Q 23.96875 65.921875 18.8125 64.3125 
Q 13.671875 62.703125 7.8125 59.421875 
L 7.8125 69.390625 
Q 13.765625 71.78125 18.9375 73 
Q 24.125 74.21875 28.421875 74.21875 
Q 39.75 74.21875 46.484375 68.546875 
Q 53.21875 62.890625 53.21875 53.421875 
Q 53.21875 48.921875 51.53125 44.890625 
Q 49.859375 40.875 45.40625 35.40625 
Q 44.1875 33.984375 37.640625 27.21875 
Q 31.109375 20.453125 19.1875 8.296875 
z
" id="DejaVuSans-50"/>
      </defs>
      <g transform="translate(88.013562 143.520928)scale(0.1 -0.1)">
       <use transform="translate(0 0.765625)" xlink:href="#DejaVuSans-49"/>
       <use transform="translate(63.623047 0.765625)" xlink:href="#DejaVuSans-48"/>
       <use transform="translate(128.203125 39.046875)scale(0.7)" xlink:href="#DejaVuSans-8722"/>
       <use transform="translate(186.855469 39.046875)scale(0.7)" xlink:href="#DejaVuSans-50"/>
      </g>
     </g>
    </g>
    <g id="xtick_2">
     <g id="line2d_3">
      <path clip-path="url(#pe1f1459328)" d="M 143.73701 128.92249 
L 143.73701 10.8 
" style="fill:none;stroke:#b0b0b0;stroke-linecap:square;stroke-width:0.8;"/>
     </g>
     <g id="line2d_4">
      <g>
       <use style="stroke:#000000;stroke-width:0.8;" x="143.73701" xlink:href="#m2eb079f121" y="128.92249"/>
      </g>
     </g>
     <g id="text_2">
      <!-- $\mathdefault{10^{-1}}$ -->
      <g transform="translate(131.98701 143.520928)scale(0.1 -0.1)">
       <use transform="translate(0 0.684375)" xlink:href="#DejaVuSans-49"/>
       <use transform="translate(63.623047 0.684375)" xlink:href="#DejaVuSans-48"/>
       <use transform="translate(128.203125 38.965625)scale(0.7)" xlink:href="#DejaVuSans-8722"/>
       <use transform="translate(186.855469 38.965625)scale(0.7)" xlink:href="#DejaVuSans-49"/>
      </g>
     </g>
    </g>
    <g id="xtick_3">
     <g id="line2d_5">
      <path clip-path="url(#pe1f1459328)" d="M 187.710457 128.92249 
L 187.710457 10.8 
" style="fill:none;stroke:#b0b0b0;stroke-linecap:square;stroke-width:0.8;"/>
     </g>
     <g id="line2d_6">
      <g>
       <use style="stroke:#000000;stroke-width:0.8;" x="187.710457" xlink:href="#m2eb079f121" y="128.92249"/>
      </g>
     </g>
     <g id="text_3">
      <!-- $\mathdefault{10^{0}}$ -->
      <g transform="translate(178.910457 143.520928)scale(0.1 -0.1)">
       <use transform="translate(0 0.765625)" xlink:href="#DejaVuSans-49"/>
       <use transform="translate(63.623047 0.765625)" xlink:href="#DejaVuSans-48"/>
       <use transform="translate(128.203125 39.046875)scale(0.7)" xlink:href="#DejaVuSans-48"/>
      </g>
     </g>
    </g>
    <g id="xtick_4">
     <g id="line2d_7">
      <defs>
       <path d="M 0 0 
L 0 2 
" id="madb0248662" style="stroke:#000000;stroke-width:0.6;"/>
      </defs>
      <g>
       <use style="stroke:#000000;stroke-width:0.6;" x="69.027441" xlink:href="#madb0248662" y="128.92249"/>
      </g>
     </g>
    </g>
    <g id="xtick_5">
     <g id="line2d_8">
      <g>
       <use style="stroke:#000000;stroke-width:0.6;" x="76.770781" xlink:href="#madb0248662" y="128.92249"/>
      </g>
     </g>
    </g>
    <g id="xtick_6">
     <g id="line2d_9">
      <g>
       <use style="stroke:#000000;stroke-width:0.6;" x="82.264768" xlink:href="#madb0248662" y="128.92249"/>
      </g>
     </g>
    </g>
    <g id="xtick_7">
     <g id="line2d_10">
      <g>
       <use style="stroke:#000000;stroke-width:0.6;" x="86.526235" xlink:href="#madb0248662" y="128.92249"/>
      </g>
     </g>
    </g>
    <g id="xtick_8">
     <g id="line2d_11">
      <g>
       <use style="stroke:#000000;stroke-width:0.6;" x="90.008108" xlink:href="#madb0248662" y="128.92249"/>
      </g>
     </g>
    </g>
    <g id="xtick_9">
     <g id="line2d_12">
      <g>
       <use style="stroke:#000000;stroke-width:0.6;" x="92.951989" xlink:href="#madb0248662" y="128.92249"/>
      </g>
     </g>
    </g>
    <g id="xtick_10">
     <g id="line2d_13">
      <g>
       <use style="stroke:#000000;stroke-width:0.6;" x="95.502095" xlink:href="#madb0248662" y="128.92249"/>
      </g>
     </g>
    </g>
    <g id="xtick_11">
     <g id="line2d_14">
      <g>
       <use style="stroke:#000000;stroke-width:0.6;" x="97.751448" xlink:href="#madb0248662" y="128.92249"/>
      </g>
     </g>
    </g>
    <g id="xtick_12">
     <g id="line2d_15">
      <g>
       <use style="stroke:#000000;stroke-width:0.6;" x="113.000889" xlink:href="#madb0248662" y="128.92249"/>
      </g>
     </g>
    </g>
    <g id="xtick_13">
     <g id="line2d_16">
      <g>
       <use style="stroke:#000000;stroke-width:0.6;" x="120.744229" xlink:href="#madb0248662" y="128.92249"/>
      </g>
     </g>
    </g>
    <g id="xtick_14">
     <g id="line2d_17">
      <g>
       <use style="stroke:#000000;stroke-width:0.6;" x="126.238216" xlink:href="#madb0248662" y="128.92249"/>
      </g>
     </g>
    </g>
    <g id="xtick_15">
     <g id="line2d_18">
      <g>
       <use style="stroke:#000000;stroke-width:0.6;" x="130.499683" xlink:href="#madb0248662" y="128.92249"/>
      </g>
     </g>
    </g>
    <g id="xtick_16">
     <g id="line2d_19">
      <g>
       <use style="stroke:#000000;stroke-width:0.6;" x="133.981555" xlink:href="#madb0248662" y="128.92249"/>
      </g>
     </g>
    </g>
    <g id="xtick_17">
     <g id="line2d_20">
      <g>
       <use style="stroke:#000000;stroke-width:0.6;" x="136.925437" xlink:href="#madb0248662" y="128.92249"/>
      </g>
     </g>
    </g>
    <g id="xtick_18">
     <g id="line2d_21">
      <g>
       <use style="stroke:#000000;stroke-width:0.6;" x="139.475542" xlink:href="#madb0248662" y="128.92249"/>
      </g>
     </g>
    </g>
    <g id="xtick_19">
     <g id="line2d_22">
      <g>
       <use style="stroke:#000000;stroke-width:0.6;" x="141.724895" xlink:href="#madb0248662" y="128.92249"/>
      </g>
     </g>
    </g>
    <g id="xtick_20">
     <g id="line2d_23">
      <g>
       <use style="stroke:#000000;stroke-width:0.6;" x="156.974336" xlink:href="#madb0248662" y="128.92249"/>
      </g>
     </g>
    </g>
    <g id="xtick_21">
     <g id="line2d_24">
      <g>
       <use style="stroke:#000000;stroke-width:0.6;" x="164.717676" xlink:href="#madb0248662" y="128.92249"/>
      </g>
     </g>
    </g>
    <g id="xtick_22">
     <g id="line2d_25">
      <g>
       <use style="stroke:#000000;stroke-width:0.6;" x="170.211663" xlink:href="#madb0248662" y="128.92249"/>
      </g>
     </g>
    </g>
    <g id="xtick_23">
     <g id="line2d_26">
      <g>
       <use style="stroke:#000000;stroke-width:0.6;" x="174.473131" xlink:href="#madb0248662" y="128.92249"/>
      </g>
     </g>
    </g>
    <g id="xtick_24">
     <g id="line2d_27">
      <g>
       <use style="stroke:#000000;stroke-width:0.6;" x="177.955003" xlink:href="#madb0248662" y="128.92249"/>
      </g>
     </g>
    </g>
    <g id="xtick_25">
     <g id="line2d_28">
      <g>
       <use style="stroke:#000000;stroke-width:0.6;" x="180.898884" xlink:href="#madb0248662" y="128.92249"/>
      </g>
     </g>
    </g>
    <g id="xtick_26">
     <g id="line2d_29">
      <g>
       <use style="stroke:#000000;stroke-width:0.6;" x="183.44899" xlink:href="#madb0248662" y="128.92249"/>
      </g>
     </g>
    </g>
    <g id="xtick_27">
     <g id="line2d_30">
      <g>
       <use style="stroke:#000000;stroke-width:0.6;" x="185.698343" xlink:href="#madb0248662" y="128.92249"/>
      </g>
     </g>
    </g>
    <g id="xtick_28">
     <g id="line2d_31">
      <g>
       <use style="stroke:#000000;stroke-width:0.6;" x="200.947784" xlink:href="#madb0248662" y="128.92249"/>
      </g>
     </g>
    </g>
    <g id="xtick_29">
     <g id="line2d_32">
      <g>
       <use style="stroke:#000000;stroke-width:0.6;" x="208.691124" xlink:href="#madb0248662" y="128.92249"/>
      </g>
     </g>
    </g>
    <g id="xtick_30">
     <g id="line2d_33">
      <g>
       <use style="stroke:#000000;stroke-width:0.6;" x="214.185111" xlink:href="#madb0248662" y="128.92249"/>
      </g>
     </g>
    </g>
    <g id="text_4">
     <!-- f (Hz) -->
     <defs>
      <path d="M 37.109375 75.984375 
L 37.109375 68.5 
L 28.515625 68.5 
Q 23.6875 68.5 21.796875 66.546875 
Q 19.921875 64.59375 19.921875 59.515625 
L 19.921875 54.6875 
L 34.71875 54.6875 
L 34.71875 47.703125 
L 19.921875 47.703125 
L 19.921875 0 
L 10.890625 0 
L 10.890625 47.703125 
L 2.296875 47.703125 
L 2.296875 54.6875 
L 10.890625 54.6875 
L 10.890625 58.5 
Q 10.890625 67.625 15.140625 71.796875 
Q 19.390625 75.984375 28.609375 75.984375 
z
" id="DejaVuSans-102"/>
      <path id="DejaVuSans-32"/>
      <path d="M 31 75.875 
Q 24.46875 64.65625 21.28125 53.65625 
Q 18.109375 42.671875 18.109375 31.390625 
Q 18.109375 20.125 21.3125 9.0625 
Q 24.515625 -2 31 -13.1875 
L 23.1875 -13.1875 
Q 15.875 -1.703125 12.234375 9.375 
Q 8.59375 20.453125 8.59375 31.390625 
Q 8.59375 42.28125 12.203125 53.3125 
Q 15.828125 64.359375 23.1875 75.875 
z
" id="DejaVuSans-40"/>
      <path d="M 9.8125 72.90625 
L 19.671875 72.90625 
L 19.671875 43.015625 
L 55.515625 43.015625 
L 55.515625 72.90625 
L 65.375 72.90625 
L 65.375 0 
L 55.515625 0 
L 55.515625 34.71875 
L 19.671875 34.71875 
L 19.671875 0 
L 9.8125 0 
z
" id="DejaVuSans-72"/>
      <path d="M 5.515625 54.6875 
L 48.1875 54.6875 
L 48.1875 46.484375 
L 14.40625 7.171875 
L 48.1875 7.171875 
L 48.1875 0 
L 4.296875 0 
L 4.296875 8.203125 
L 38.09375 47.515625 
L 5.515625 47.515625 
z
" id="DejaVuSans-122"/>
      <path d="M 8.015625 75.875 
L 15.828125 75.875 
Q 23.140625 64.359375 26.78125 53.3125 
Q 30.421875 42.28125 30.421875 31.390625 
Q 30.421875 20.453125 26.78125 9.375 
Q 23.140625 -1.703125 15.828125 -13.1875 
L 8.015625 -13.1875 
Q 14.5 -2 17.703125 9.0625 
Q 20.90625 20.125 20.90625 31.390625 
Q 20.90625 42.671875 17.703125 53.65625 
Q 14.5 64.65625 8.015625 75.875 
z
" id="DejaVuSans-41"/>
     </defs>
     <g transform="translate(122.250671 157.199053)scale(0.1 -0.1)">
      <use xlink:href="#DejaVuSans-102"/>
      <use x="35.205078" xlink:href="#DejaVuSans-32"/>
      <use x="66.992188" xlink:href="#DejaVuSans-40"/>
      <use x="106.005859" xlink:href="#DejaVuSans-72"/>
      <use x="181.201172" xlink:href="#DejaVuSans-122"/>
      <use x="233.691406" xlink:href="#DejaVuSans-41"/>
     </g>
    </g>
   </g>
   <g id="matplotlib.axis_2">
    <g id="ytick_1">
     <g id="line2d_34">
      <path clip-path="url(#pe1f1459328)" d="M 55.8 99.445835 
L 215.971654 99.445835 
" style="fill:none;stroke:#b0b0b0;stroke-linecap:square;stroke-width:0.8;"/>
     </g>
     <g id="line2d_35">
      <defs>
       <path d="M 0 0 
L -3.5 0 
" id="mdd1cc706e6" style="stroke:#000000;stroke-width:0.8;"/>
      </defs>
      <g>
       <use style="stroke:#000000;stroke-width:0.8;" x="55.8" xlink:href="#mdd1cc706e6" y="99.445835"/>
      </g>
     </g>
     <g id="text_5">
      <!-- $\mathdefault{10^{-2}}$ -->
      <g transform="translate(25.3 103.245054)scale(0.1 -0.1)">
       <use transform="translate(0 0.765625)" xlink:href="#DejaVuSans-49"/>
       <use transform="translate(63.623047 0.765625)" xlink:href="#DejaVuSans-48"/>
       <use transform="translate(128.203125 39.046875)scale(0.7)" xlink:href="#DejaVuSans-8722"/>
       <use transform="translate(186.855469 39.046875)scale(0.7)" xlink:href="#DejaVuSans-50"/>
      </g>
     </g>
    </g>
    <g id="ytick_2">
     <g id="line2d_36">
      <path clip-path="url(#pe1f1459328)" d="M 55.8 63.240914 
L 215.971654 63.240914 
" style="fill:none;stroke:#b0b0b0;stroke-linecap:square;stroke-width:0.8;"/>
     </g>
     <g id="line2d_37">
      <g>
       <use style="stroke:#000000;stroke-width:0.8;" x="55.8" xlink:href="#mdd1cc706e6" y="63.240914"/>
      </g>
     </g>
     <g id="text_6">
      <!-- $\mathdefault{10^{0}}$ -->
      <g transform="translate(31.2 67.040133)scale(0.1 -0.1)">
       <use transform="translate(0 0.765625)" xlink:href="#DejaVuSans-49"/>
       <use transform="translate(63.623047 0.765625)" xlink:href="#DejaVuSans-48"/>
       <use transform="translate(128.203125 39.046875)scale(0.7)" xlink:href="#DejaVuSans-48"/>
      </g>
     </g>
    </g>
    <g id="ytick_3">
     <g id="line2d_38">
      <path clip-path="url(#pe1f1459328)" d="M 55.8 27.035992 
L 215.971654 27.035992 
" style="fill:none;stroke:#b0b0b0;stroke-linecap:square;stroke-width:0.8;"/>
     </g>
     <g id="line2d_39">
      <g>
       <use style="stroke:#000000;stroke-width:0.8;" x="55.8" xlink:href="#mdd1cc706e6" y="27.035992"/>
      </g>
     </g>
     <g id="text_7">
      <!-- $\mathdefault{10^{2}}$ -->
      <g transform="translate(31.2 30.835211)scale(0.1 -0.1)">
       <use transform="translate(0 0.765625)" xlink:href="#DejaVuSans-49"/>
       <use transform="translate(63.623047 0.765625)" xlink:href="#DejaVuSans-48"/>
       <use transform="translate(128.203125 39.046875)scale(0.7)" xlink:href="#DejaVuSans-50"/>
      </g>
     </g>
    </g>
    <g id="text_8">
     <!-- $S(f) (m^2/s)$ -->
     <defs>
      <path d="M 60.296875 70.515625 
L 58.40625 60.890625 
Q 53.46875 63.53125 48.609375 64.875 
Q 43.75 66.21875 39.203125 66.21875 
Q 30.375 66.21875 25.140625 62.359375 
Q 19.921875 58.5 19.921875 52.09375 
Q 19.921875 48.578125 21.84375 46.703125 
Q 23.78125 44.828125 31.78125 42.671875 
L 37.703125 41.21875 
Q 47.703125 38.625 51.609375 34.640625 
Q 55.515625 30.671875 55.515625 23.484375 
Q 55.515625 12.453125 46.84375 5.515625 
Q 38.1875 -1.421875 24.03125 -1.421875 
Q 18.21875 -1.421875 12.359375 -0.265625 
Q 6.5 0.875 0.59375 3.21875 
L 2.59375 13.375 
Q 8.015625 10.015625 13.453125 8.296875 
Q 18.890625 6.59375 24.3125 6.59375 
Q 33.546875 6.59375 39.109375 10.6875 
Q 44.671875 14.796875 44.671875 21.390625 
Q 44.671875 25.78125 42.453125 28.046875 
Q 40.234375 30.328125 32.90625 32.171875 
L 27 33.6875 
Q 16.890625 36.328125 13.203125 39.765625 
Q 9.515625 43.21875 9.515625 49.421875 
Q 9.515625 60.296875 17.890625 67.25 
Q 26.265625 74.21875 39.703125 74.21875 
Q 44.921875 74.21875 50.046875 73.28125 
Q 55.171875 72.359375 60.296875 70.515625 
z
" id="DejaVuSans-Oblique-83"/>
      <path d="M 47.796875 75.984375 
L 46.390625 68.5 
L 37.796875 68.5 
Q 32.90625 68.5 30.6875 66.578125 
Q 28.46875 64.65625 27.390625 59.515625 
L 26.421875 54.6875 
L 41.21875 54.6875 
L 39.890625 47.703125 
L 25.09375 47.703125 
L 15.828125 0 
L 6.78125 0 
L 16.109375 47.703125 
L 7.515625 47.703125 
L 8.796875 54.6875 
L 17.390625 54.6875 
L 18.109375 58.5 
Q 19.96875 68.171875 24.625 72.078125 
Q 29.296875 75.984375 39.3125 75.984375 
z
" id="DejaVuSans-Oblique-102"/>
      <path d="M 89.796875 33.015625 
L 83.40625 0 
L 74.421875 0 
L 80.71875 32.71875 
Q 81.109375 34.8125 81.296875 36.328125 
Q 81.5 37.84375 81.5 38.921875 
Q 81.5 43.3125 79.046875 45.75 
Q 76.609375 48.1875 72.21875 48.1875 
Q 65.671875 48.1875 60.546875 43.28125 
Q 55.421875 38.375 53.90625 30.515625 
L 47.90625 0 
L 38.921875 0 
L 45.3125 32.71875 
Q 45.703125 34.515625 45.890625 36.046875 
Q 46.09375 37.59375 46.09375 38.8125 
Q 46.09375 43.265625 43.65625 45.71875 
Q 41.21875 48.1875 36.921875 48.1875 
Q 30.28125 48.1875 25.140625 43.28125 
Q 20.015625 38.375 18.5 30.515625 
L 12.5 0 
L 3.515625 0 
L 14.203125 54.6875 
L 23.1875 54.6875 
L 21.484375 46.1875 
Q 25.140625 50.984375 30.046875 53.484375 
Q 34.96875 56 40.578125 56 
Q 46.53125 56 50.359375 52.875 
Q 54.203125 49.75 54.984375 44.1875 
Q 59.078125 49.953125 64.46875 52.96875 
Q 69.875 56 75.875 56 
Q 82.90625 56 86.734375 51.953125 
Q 90.578125 47.90625 90.578125 40.484375 
Q 90.578125 38.875 90.375 36.9375 
Q 90.1875 35.015625 89.796875 33.015625 
z
" id="DejaVuSans-Oblique-109"/>
      <path d="M 25.390625 72.90625 
L 33.6875 72.90625 
L 8.296875 -9.28125 
L 0 -9.28125 
z
" id="DejaVuSans-47"/>
      <path d="M 50 53.078125 
L 48.296875 44.578125 
Q 44.734375 46.53125 40.765625 47.5 
Q 36.8125 48.484375 32.625 48.484375 
Q 25.53125 48.484375 21.453125 46.0625 
Q 17.390625 43.65625 17.390625 39.5 
Q 17.390625 34.671875 26.859375 32.078125 
Q 27.59375 31.890625 27.9375 31.78125 
L 30.8125 30.90625 
Q 39.796875 28.421875 42.796875 25.6875 
Q 45.796875 22.953125 45.796875 18.21875 
Q 45.796875 9.515625 38.890625 4.046875 
Q 31.984375 -1.421875 20.796875 -1.421875 
Q 16.453125 -1.421875 11.671875 -0.578125 
Q 6.890625 0.25 1.125 2 
L 2.875 11.28125 
Q 7.8125 8.734375 12.59375 7.421875 
Q 17.390625 6.109375 21.78125 6.109375 
Q 28.375 6.109375 32.5 8.9375 
Q 36.625 11.765625 36.625 16.109375 
Q 36.625 20.796875 25.78125 23.6875 
L 24.859375 23.921875 
L 21.78125 24.703125 
Q 14.9375 26.515625 11.765625 29.46875 
Q 8.59375 32.421875 8.59375 37.015625 
Q 8.59375 45.75 15.15625 50.875 
Q 21.734375 56 33.015625 56 
Q 37.453125 56 41.671875 55.265625 
Q 45.90625 54.546875 50 53.078125 
z
" id="DejaVuSans-Oblique-115"/>
     </defs>
     <g transform="translate(19.220312 94.361245)rotate(-90)scale(0.1 -0.1)">
      <use transform="translate(0 0.765625)" xlink:href="#DejaVuSans-Oblique-83"/>
      <use transform="translate(63.476562 0.765625)" xlink:href="#DejaVuSans-40"/>
      <use transform="translate(102.490234 0.765625)" xlink:href="#DejaVuSans-Oblique-102"/>
      <use transform="translate(137.695312 0.765625)" xlink:href="#DejaVuSans-41"/>
      <use transform="translate(176.708984 0.765625)" xlink:href="#DejaVuSans-40"/>
      <use transform="translate(215.722656 0.765625)" xlink:href="#DejaVuSans-Oblique-109"/>
      <use transform="translate(317.784661 39.046875)scale(0.7)" xlink:href="#DejaVuSans-50"/>
      <use transform="translate(365.055169 0.765625)" xlink:href="#DejaVuSans-47"/>
      <use transform="translate(398.746576 0.765625)" xlink:href="#DejaVuSans-Oblique-115"/>
      <use transform="translate(450.846185 0.765625)" xlink:href="#DejaVuSans-41"/>
     </g>
    </g>
   </g>
   <g id="line2d_40">
    <path clip-path="url(#pe1f1459328)" d="M 63.08053 40.676611 
L 76.317856 51.759003 
L 84.061196 56.122672 
L 89.555183 29.521589 
L 93.816651 28.583698 
L 97.298523 23.280585 
L 100.242404 23.110477 
L 102.79251 33.890955 
L 105.041863 18.566697 
L 107.053977 19.74476 
L 108.874156 38.788266 
L 110.53585 25.979333 
L 112.064459 30.146652 
L 113.479731 66.956407 
L 114.797317 38.723187 
L 116.029837 31.681694 
L 117.187611 35.393307 
L 118.279189 30.708395 
L 119.311734 45.589832 
L 120.291304 28.228631 
L 121.223071 24.784976 
L 122.111483 16.169204 
L 122.960397 22.614748 
L 123.773176 23.318751 
L 124.552771 19.413456 
L 125.301786 22.138733 
L 126.022529 32.124498 
L 126.717058 25.699676 
L 127.387211 34.681412 
L 128.034644 36.653938 
L 128.660845 17.870716 
L 129.267163 21.078089 
L 129.854823 29.658421 
L 130.424938 20.173281 
L 130.978525 27.071652 
L 131.516516 41.406321 
L 132.039766 34.257555 
L 132.549061 22.319534 
L 133.045126 25.925709 
L 133.528631 31.654743 
L 134.000196 39.033883 
L 134.460397 25.941947 
L 134.909769 19.796781 
L 135.34881 25.988964 
L 135.777984 27.456944 
L 136.197724 26.636303 
L 136.608437 31.712753 
L 137.010503 31.390665 
L 137.404278 30.06791 
L 137.790098 30.703762 
L 138.168277 66.997719 
L 138.539113 33.064465 
L 138.902884 45.30352 
L 139.259856 41.568308 
L 139.610277 39.464108 
L 139.954384 36.480577 
L 140.292401 30.510708 
L 140.624538 27.120534 
L 141.271971 43.114268 
L 141.587638 33.819817 
L 141.898172 32.411616 
L 142.203737 51.521864 
L 142.50449 38.035117 
L 142.80058 34.960366 
L 143.09215 30.023101 
L 143.379334 36.105429 
L 143.662264 37.18745 
L 143.941064 37.460997 
L 144.215852 33.990612 
L 144.486742 24.576424 
L 144.753843 29.187542 
L 145.01726 37.229809 
L 145.277093 50.025555 
L 145.533438 37.132269 
L 145.786388 39.60857 
L 146.036031 40.668548 
L 146.282453 35.162495 
L 146.525735 35.153996 
L 146.765958 53.755693 
L 147.003196 34.688586 
L 147.237523 31.947194 
L 147.46901 35.442659 
L 147.697724 35.489154 
L 147.923732 33.180429 
L 148.147096 35.912285 
L 148.367878 29.76388 
L 148.586137 26.908941 
L 148.801929 29.615376 
L 149.226334 51.282247 
L 149.435051 37.78828 
L 149.641511 33.155929 
L 149.845764 36.605583 
L 150.047855 63.868706 
L 150.24783 52.243093 
L 150.445732 51.626789 
L 150.641605 36.212081 
L 150.835489 35.869597 
L 151.027425 37.403502 
L 151.217451 34.762532 
L 151.405604 36.276419 
L 151.591922 33.649475 
L 151.77644 39.291345 
L 151.959191 51.624623 
L 152.140211 48.209039 
L 152.319531 38.281447 
L 152.497183 35.99 
L 152.673197 37.825152 
L 152.847604 45.552181 
L 153.020433 73.90484 
L 153.191711 41.865187 
L 153.361467 34.853202 
L 153.529727 35.592192 
L 153.861865 46.200249 
L 154.025792 50.83067 
L 154.188325 45.311911 
L 154.349485 48.964072 
L 154.509297 46.166138 
L 154.667783 34.820557 
L 154.824964 32.548942 
L 154.980863 38.452928 
L 155.135498 49.665202 
L 155.288892 48.798574 
L 155.441064 55.522391 
L 155.592032 52.094771 
L 155.890436 36.554656 
L 156.184248 50.799803 
L 156.473609 36.044673 
L 156.616661 36.01207 
L 156.75865 43.584997 
L 156.899591 60.986484 
L 157.0395 55.915811 
L 157.316279 34.263828 
L 157.453178 34.527377 
L 157.589104 36.31833 
L 157.858086 43.230109 
L 157.99117 43.699865 
L 158.123332 52.908372 
L 158.384945 80.741708 
L 158.51442 44.601149 
L 158.643022 44.04501 
L 158.770765 63.15975 
L 159.023714 33.167355 
L 159.148944 30.010976 
L 159.273357 32.346657 
L 159.519779 53.753136 
L 159.641808 50.871984 
L 159.763062 67.338647 
L 160.003284 35.998054 
L 160.122272 35.597426 
L 160.47485 62.742127 
L 160.590944 54.586872 
L 160.706336 62.960302 
L 160.935051 46.685268 
L 161.048389 43.85789 
L 161.161058 36.146739 
L 161.273067 37.823504 
L 161.495133 55.118824 
L 161.931664 40.259323 
L 162.039256 44.792146 
L 162.146244 56.865029 
L 162.252637 41.940208 
L 162.35844 72.164521 
L 162.46366 38.604502 
L 162.568304 40.026388 
L 162.672378 73.220919 
L 162.878838 45.796023 
L 162.981238 65.7511 
L 163.184404 49.731684 
L 163.285182 48.325327 
L 163.385431 39.905751 
L 163.485157 45.063818 
L 163.584364 63.840022 
L 163.781247 49.668532 
L 163.878932 46.741748 
L 164.072816 37.797595 
L 164.169025 54.952248 
L 164.360001 39.31578 
L 164.549086 55.587899 
L 164.642931 40.27667 
L 164.736317 40.54765 
L 164.829249 62.588284 
L 165.013766 45.989358 
L 165.105361 46.196624 
L 165.196518 56.175077 
L 165.287242 47.616697 
L 165.377538 49.251356 
L 165.556858 43.058114 
L 165.64589 46.085171 
L 165.734509 42.652079 
L 165.910524 61.529098 
L 165.997926 59.262571 
L 166.084931 51.418364 
L 166.17154 56.095378 
L 166.257759 46.980596 
L 166.429038 53.962176 
L 166.514104 41.792903 
L 166.683109 51.527285 
L 166.850632 43.338964 
L 167.016697 47.604247 
L 167.099192 59.651895 
L 167.344558 41.75926 
L 167.425651 41.037026 
L 167.586812 54.301468 
L 167.746624 52.119875 
L 167.90511 37.124098 
L 168.062291 51.074835 
L 168.140399 49.34 
L 168.295664 37.584774 
L 168.449676 63.814693 
L 168.526219 51.063541 
L 168.602456 68.962004 
L 168.829359 46.907206 
L 168.979144 57.617942 
L 169.127762 44.467088 
L 169.20164 45.138034 
L 169.275234 48.607958 
L 169.348544 95.905773 
L 169.421575 56.061155 
L 169.494327 65.286156 
L 169.639005 49.0458 
L 169.710935 58.823888 
L 169.782595 46.526309 
L 169.853988 47.148683 
L 169.925114 76.999472 
L 169.995977 52.343114 
L 170.066577 54.075547 
L 170.207 43.234607 
L 170.346398 75.474555 
L 170.484786 47.525646 
L 170.553605 47.071914 
L 170.622178 50.290688 
L 170.690505 72.387385 
L 170.758589 62.707661 
L 170.82643 61.675971 
L 170.894032 50.164946 
L 170.961395 54.368926 
L 171.028522 71.217653 
L 171.095413 53.022872 
L 171.16207 60.317644 
L 171.294692 91.67785 
L 171.360659 52.015904 
L 171.426399 55.19627 
L 171.491913 62.075574 
L 171.557204 45.095642 
L 171.622272 50.299898 
L 171.687119 70.655607 
L 171.751746 63.647568 
L 171.880349 46.909493 
L 172.071644 68.273936 
L 172.134985 50.912899 
L 172.198117 58.547278 
L 172.323759 50.081388 
L 172.386271 51.941451 
L 172.510684 67.109307 
L 172.634293 45.756247 
L 172.818218 70.491535 
L 172.939858 51.843332 
L 173.060728 70.313688 
L 173.120878 50.350798 
L 173.180838 55.135134 
L 173.240611 58.174165 
L 173.300197 54.119164 
L 173.418815 68.647102 
L 173.595372 53.223433 
L 173.653864 68.590674 
L 173.770312 47.626029 
L 173.82827 47.875344 
L 173.886054 43.956716 
L 174.001099 54.46488 
L 174.058363 54.192183 
L 174.172378 50.573207 
L 174.342134 60.461989 
L 174.398385 51.714123 
L 174.454472 52.717778 
L 174.510394 55.918261 
L 174.621749 46.594659 
L 174.677185 47.811865 
L 174.732459 54.365214 
L 174.787575 51.227324 
L 174.842531 51.660969 
L 174.89733 57.005533 
L 174.951973 83.299866 
L 175.006459 64.481847 
L 175.06079 66.164672 
L 175.114967 55.121572 
L 175.168991 59.01773 
L 175.222863 59.765036 
L 175.330152 50.306658 
L 175.542939 80.219227 
L 175.595767 60.566771 
L 175.64845 61.898955 
L 175.700987 85.739341 
L 175.805631 45.821689 
L 175.857738 48.814676 
L 175.961529 63.022611 
L 176.064759 53.07343 
L 176.116165 53.445903 
L 176.167433 63.071242 
L 176.218564 61.902829 
L 176.269559 51.989311 
L 176.320417 67.460561 
L 176.371141 55.385716 
L 176.42173 53.51036 
L 176.472186 58.110196 
L 176.572699 47.772867 
L 176.622758 49.250746 
L 176.772152 57.67817 
L 176.871102 52.922104 
L 176.920386 59.360074 
L 176.969543 55.771618 
L 177.067479 54.124309 
L 177.213447 61.512362 
L 177.310143 50.078448 
L 177.358308 74.060222 
L 177.454275 70.222181 
L 177.502078 52.626747 
L 177.549762 57.733522 
L 177.692104 73.150031 
L 177.786413 56.528352 
L 177.833393 86.547247 
L 177.880258 51.027101 
L 177.927008 52.759519 
L 177.973644 67.785576 
L 178.020166 52.399245 
L 178.20513 61.434803 
L 178.388321 44.498706 
L 178.659853 78.591444 
L 178.749512 58.007058 
L 178.794184 62.117825 
L 178.838752 73.849023 
L 178.883217 65.128947 
L 178.971836 51.956037 
L 179.015992 58.684902 
L 179.103999 64.072617 
L 179.147851 59.512047 
L 179.191602 60.261822 
L 179.235253 67.220995 
L 179.322257 52.13533 
L 179.365611 61.998183 
L 179.408867 61.186043 
L 179.452025 53.661198 
L 179.495086 66.964237 
L 179.53805 52.661264 
L 179.580917 48.335056 
L 179.623689 48.562775 
L 179.793823 67.009512 
L 179.836121 51.892726 
L 179.920436 59.354072 
L 179.962455 54.204497 
L 180.046215 65.323775 
L 180.087958 62.304377 
L 180.12961 58.379516 
L 180.212643 69.930295 
L 180.254024 62.819275 
L 180.295316 51.566825 
L 180.336518 54.675101 
L 180.377632 70.382137 
L 180.418658 65.343798 
L 180.500446 54.621864 
L 180.541209 59.675403 
L 180.622474 73.819177 
L 180.662978 58.379719 
L 180.703396 59.578141 
L 180.783976 77.555426 
L 180.824139 75.233726 
L 180.904212 66.35086 
L 180.944123 74.243086 
L 180.983951 62.608418 
L 181.102938 50.155315 
L 181.142437 55.483226 
L 181.181853 72.830856 
L 181.260444 59.906371 
L 181.299618 67.68565 
L 181.338712 53.383058 
L 181.377726 64.071838 
L 181.416661 81.542203 
L 181.455516 56.053737 
L 181.494293 52.580204 
L 181.57161 63.401688 
L 181.610152 58.424908 
L 181.648616 57.313014 
L 181.687003 71.471054 
L 181.763546 58.855167 
L 181.839783 63.708108 
L 181.877788 78.323748 
L 181.915717 62.186608 
L 181.953571 55.592388 
L 181.991351 61.174889 
L 182.029055 76.115843 
L 182.066686 63.282991 
L 182.104242 57.339221 
L 182.141725 66.388399 
L 182.179134 70.353232 
L 182.21647 68.666121 
L 182.253734 60.703256 
L 182.290924 73.130492 
L 182.328043 65.269259 
L 182.365089 64.397949 
L 182.51256 52.529731 
L 182.549251 53.695537 
L 182.622421 81.779565 
L 182.658902 60.662097 
L 182.695312 59.94188 
L 182.767926 56.315864 
L 182.80413 64.307803 
L 182.840265 101.309908 
L 182.912331 69.381357 
L 182.984126 59.556078 
L 183.019922 84.295691 
L 183.055652 56.255698 
L 183.091315 53.203846 
L 183.126911 57.377153 
L 183.197905 68.166886 
L 183.233304 61.931506 
L 183.268636 59.127219 
L 183.303904 66.181471 
L 183.339107 54.152309 
L 183.374245 55.35682 
L 183.514153 68.67827 
L 183.548971 67.197677 
L 183.583725 64.345892 
L 183.618416 69.139399 
L 183.653044 71.380843 
L 183.68761 62.297835 
L 183.790932 63.864393 
L 183.859505 65.802806 
L 183.893699 58.257472 
L 183.995915 81.55971 
L 184.063757 74.665639 
L 184.198722 53.519201 
L 184.232315 55.784391 
L 184.332739 89.323774 
L 184.399397 54.383682 
L 184.465823 57.99425 
L 184.532019 59.340911 
L 184.565031 54.599694 
L 184.630884 62.350346 
L 184.663726 56.338371 
L 184.696511 50.491126 
L 184.72924 59.026151 
L 184.761913 60.328754 
L 184.79453 54.756691 
L 184.827092 58.875847 
L 184.859598 73.140287 
L 184.924445 57.935314 
L 184.956787 54.65142 
L 184.989073 60.253068 
L 185.021305 59.843997 
L 185.053483 63.436053 
L 185.085606 60.055351 
L 185.117676 52.290626 
L 185.181654 56.071479 
L 185.245418 77.139053 
L 185.277221 69.622858 
L 185.372312 58.021744 
L 185.403904 58.75835 
L 185.466932 57.323858 
L 185.498368 53.654744 
L 185.561085 54.045245 
L 185.716983 70.682636 
L 185.748011 69.258434 
L 185.778988 65.957939 
L 185.840792 66.411074 
L 185.871619 75.665264 
L 185.933125 61.20878 
L 185.963803 58.063244 
L 185.994433 61.410466 
L 186.025013 65.626532 
L 186.055545 61.871854 
L 186.146847 58.034877 
L 186.177185 67.562429 
L 186.237715 59.84522 
L 186.267909 54.582141 
L 186.328153 60.957278 
L 186.358204 69.707947 
L 186.418165 59.933868 
L 186.448075 59.070214 
L 186.477938 61.259445 
L 186.626557 71.257905 
L 186.656142 74.726118 
L 186.685682 69.19453 
L 186.744625 72.199893 
L 186.774028 61.565075 
L 186.803386 69.321699 
L 186.832699 57.926827 
L 186.89119 66.558163 
L 186.920369 67.348993 
L 186.949503 60.374826 
L 186.978593 61.498196 
L 187.007638 87.955429 
L 187.065597 60.976897 
L 187.094511 56.286371 
L 187.152207 59.399587 
L 187.209729 65.052431 
L 187.238426 62.777992 
L 187.295689 58.785315 
L 187.381264 77.418782 
L 187.409704 73.404164 
L 187.466457 59.249262 
L 187.523042 64.456259 
L 187.57946 86.128388 
L 187.607607 64.277288 
L 187.663776 58.482885 
L 187.691798 64.309775 
L 187.831298 76.577193 
L 187.859076 59.402763 
L 187.942169 71.809406 
L 188.079858 62.740865 
L 188.107277 64.927654 
L 188.134657 59.781901 
L 188.161998 81.930954 
L 188.243786 70.32555 
L 188.325225 59.438363 
L 188.379325 63.771813 
L 188.406318 63.353341 
L 188.460189 100.777555 
L 188.487068 60.371623 
L 188.540713 63.608578 
L 188.567478 57.666685 
L 188.594207 63.754021 
L 188.620898 71.069152 
L 188.647552 63.381691 
L 188.700748 66.597328 
L 188.753796 68.275341 
L 188.780265 62.135717 
L 188.885776 92.594919 
L 188.912063 75.548734 
L 189.042958 58.461588 
L 189.069029 66.316424 
L 189.147031 59.512225 
L 189.172961 77.023575 
L 189.224716 60.809397 
L 189.302085 68.778806 
L 189.327806 83.048383 
L 189.379143 56.708165 
L 189.430343 56.150575 
L 189.455891 54.807947 
L 189.557744 81.508233 
L 189.608468 68.75167 
L 189.684301 58.748092 
L 189.734691 61.584794 
L 189.810026 57.970778 
L 189.885065 86.872378 
L 189.95981 78.545026 
L 190.009478 59.083668 
L 190.059018 72.390502 
L 190.108429 84.44536 
L 190.157713 81.024818 
L 190.20687 63.244392 
L 190.2559 67.175052 
L 190.304805 83.500216 
L 190.353585 65.970716 
L 190.402241 66.806767 
L 190.450774 59.368505 
L 190.499183 63.90373 
L 190.523341 66.173253 
L 190.54747 57.511629 
L 190.595635 69.27697 
L 190.619672 62.085207 
L 190.667655 76.838837 
L 190.739405 76.797711 
L 190.858393 65.914725 
L 190.882101 67.389797 
L 190.905781 77.232632 
L 190.976643 66.017858 
L 191.000206 60.402405 
L 191.047244 65.035479 
L 191.070719 71.826064 
L 191.117584 57.688398 
L 191.140974 56.656268 
L 191.187667 82.976689 
L 191.21097 106.787976 
L 191.257493 67.995271 
L 191.373305 55.848641 
L 191.534272 91.417767 
L 191.602844 66.064678 
L 191.625647 66.773282 
L 191.648423 115.43024 
L 191.716588 64.408213 
L 191.739255 61.167601 
L 191.761896 65.371569 
L 191.807097 75.722666 
L 191.852191 61.47006 
L 191.897179 88.706618 
L 191.942062 58.446895 
L 192.076079 72.762033 
L 192.187047 89.79784 
L 192.275359 63.601168 
L 192.297373 74.484284 
L 192.319362 74.168708 
L 192.363264 59.671718 
L 192.450767 63.929808 
L 192.516132 75.66443 
L 192.53787 66.66007 
L 192.559584 58.815622 
L 192.624578 66.281111 
L 192.646194 67.825342 
L 192.667785 64.203632 
L 192.710895 61.368359 
L 192.753907 65.472766 
L 192.775377 66.136408 
L 192.839642 99.748463 
L 192.903691 85.784591 
L 192.946272 60.027599 
L 192.988758 98.356259 
L 193.03115 67.10412 
L 193.05231 59.46332 
L 193.094561 82.450695 
L 193.136719 64.345575 
L 193.220756 84.689187 
L 193.178784 63.513986 
L 193.304425 81.277882 
L 193.470671 60.349551 
L 193.553255 84.335471 
L 193.573845 74.23123 
L 193.594413 60.451425 
L 193.676465 67.819629 
L 193.737773 88.924908 
L 193.778535 70.342546 
L 193.859801 57.367848 
L 193.819212 70.743368 
L 193.900305 59.293251 
L 193.920524 60.446754 
L 193.9609 84.848939 
L 194.041395 72.692192 
L 194.081515 59.79962 
L 194.161505 68.42894 
L 194.18145 65.876678 
L 194.201374 72.751523 
L 194.221277 93.048348 
L 194.261022 61.604976 
L 194.300685 83.201645 
L 194.340265 63.380192 
L 194.41918 72.507864 
L 194.458516 80.565802 
L 194.49777 63.888538 
L 194.517368 67.83676 
L 194.556502 63.827762 
L 194.595556 69.426191 
L 194.673425 80.042514 
L 194.653987 63.864621 
L 194.731619 76.827117 
L 194.828218 60.023981 
L 194.770317 78.513488 
L 194.847479 61.620689 
L 194.943494 80.309358 
L 194.962639 76.783911 
L 195.07711 60.362156 
L 195.000872 86.60162 
L 195.096122 63.929576 
L 195.134089 72.740756 
L 195.190898 62.927403 
L 195.209797 66.272639 
L 195.228677 66.716142 
L 195.285207 61.002003 
L 195.304013 66.066283 
L 195.379052 84.156204 
L 195.397765 74.187597 
L 195.509665 61.943928 
L 195.620912 81.133103 
L 195.639391 71.553829 
L 195.694719 65.892505 
L 195.768241 59.209043 
L 195.804897 79.652002 
L 195.914442 63.747044 
L 195.859748 95.619981 
L 195.932639 65.172792 
L 195.950818 64.064214 
L 196.023363 61.649208 
L 196.077592 82.157288 
L 196.131667 70.534898 
L 196.167632 87.955106 
L 196.185589 87.614884 
L 196.221452 67.354043 
L 196.310818 70.291241 
L 196.346448 76.084798 
L 196.382011 62.042162 
L 196.399768 63.449625 
L 196.435232 76.38852 
L 196.505963 74.881676 
L 196.523605 65.420884 
L 196.611571 76.845029 
L 196.716599 64.867456 
L 196.681654 79.593894 
L 196.75148 67.311246 
L 196.838405 82.105878 
L 196.855743 69.843138 
L 196.890371 66.325661 
L 196.907661 77.590172 
L 196.924936 87.379564 
L 196.959439 68.958327 
L 196.99388 73.07473 
L 197.028259 64.690345 
L 197.062576 78.756955 
L 197.096831 68.403926 
L 197.1481 82.056652 
L 197.199231 81.950133 
L 197.284146 61.906282 
L 197.318007 63.583066 
L 197.351808 96.606567 
L 197.436049 75.239671 
L 197.51992 69.263044 
L 197.53665 74.108696 
L 197.553365 63.20199 
L 197.653352 68.863317 
L 197.71972 106.116567 
L 197.752818 65.581533 
L 197.769346 77.020863 
L 197.851769 62.753645 
L 197.884639 68.745443 
L 197.950209 100.134205 
L 197.98291 68.410368 
L 198.015556 72.259191 
L 198.031857 91.822513 
L 198.064419 64.740075 
L 198.129376 84.465805 
L 198.242523 63.081665 
L 198.210263 92.02842 
L 198.258632 72.210459 
L 198.274727 79.036724 
L 198.338974 70.134356 
L 198.355002 64.568225 
L 198.371017 74.04383 
L 198.41898 70.588302 
L 198.466824 100.194647 
L 198.498653 68.345357 
L 198.530429 74.916344 
L 198.546297 66.366763 
L 198.593823 71.395544 
L 198.609639 101.799708 
L 198.641231 67.401184 
L 198.688521 74.437464 
L 198.782752 63.364933 
L 198.735695 75.486492 
L 198.814059 66.004071 
L 198.860924 65.591941 
L 198.938778 75.440215 
L 199.000833 68.567424 
L 198.96983 81.597912 
L 199.016315 73.759632 
L 199.093539 84.321137 
L 199.108946 68.354033 
L 199.124341 65.957565 
L 199.170452 73.126073 
L 199.185797 105.81395 
L 199.26234 62.232202 
L 199.277612 66.118073 
L 199.292871 83.360847 
L 199.353788 66.098639 
L 199.384174 73.3891 
L 199.399349 66.110044 
L 199.444801 79.658555 
L 199.475042 66.921771 
L 199.580511 86.796832 
L 199.595531 74.915172 
L 199.610539 69.225252 
L 199.670452 80.079491 
L 199.700339 72.285508 
L 199.715264 80.867868 
L 199.774851 69.111524 
L 199.804575 74.495509 
L 199.908244 64.491583 
L 199.893469 74.6465 
L 199.937761 64.5402 
L 200.026039 85.436876 
L 200.040713 70.897649 
L 200.055375 66.004854 
L 200.113911 81.699405 
L 200.143112 67.552432 
L 200.172268 87.610305 
L 200.20138 64.260599 
L 200.244965 70.857162 
L 200.288451 65.442611 
L 200.302924 75.512645 
L 200.317386 86.356585 
L 200.389534 77.778723 
L 200.418317 67.358959 
L 200.475753 94.086542 
L 200.604355 65.133712 
L 200.547305 101.053672 
L 200.618591 66.839675 
L 200.647031 82.501767 
L 200.689612 63.610241 
L 200.732098 68.717917 
L 200.760369 66.659897 
L 200.774489 73.612808 
L 200.788599 87.109367 
L 200.816787 65.881265 
L 200.887076 75.348168 
L 200.915119 64.952354 
L 200.999002 72.284472 
L 201.012947 87.90615 
L 201.068625 70.654795 
L 201.110277 73.326041 
L 201.207113 94.228896 
L 201.179496 71.536501 
L 201.220907 74.70068 
L 201.248464 95.354733 
L 201.262228 73.725836 
L 201.317185 77.259129 
L 201.426626 67.286955 
L 201.358299 84.619974 
L 201.453889 67.336233 
L 201.508297 79.149943 
L 201.549002 77.195144 
L 201.562551 66.730535 
L 201.643645 80.294686 
L 201.657127 82.670548 
L 201.684062 69.851213 
L 201.697516 67.795179 
L 201.724395 77.493722 
L 201.73782 115.324734 
L 201.764642 68.794622 
L 201.831534 70.672657 
L 201.858225 73.476244 
L 201.924789 107.192056 
L 201.951351 68.626307 
L 201.964617 81.076165 
L 202.030813 68.476753 
L 202.004362 82.469481 
L 202.083605 75.681511 
L 202.09678 99.213247 
L 202.123103 66.765962 
L 202.188753 75.807005 
L 202.201855 76.022179 
L 202.228034 73.530717 
L 202.24111 78.941858 
L 202.254177 75.587133 
L 202.267235 82.066459 
L 202.293325 70.467854 
L 202.345397 70.509671 
L 202.37138 71.995544 
L 202.384358 67.174465 
L 202.462042 73.904798 
L 202.513657 89.300408 
L 202.552277 67.787701 
L 202.57798 81.283397 
L 202.603648 91.805815 
L 202.705979 65.797354 
L 202.731476 71.629742 
L 202.782369 104.349074 
L 202.75694 69.01783 
L 202.845795 91.472469 
L 202.946839 70.425182 
L 202.883749 97.439937 
L 202.959432 85.621274 
L 203.047352 66.183958 
L 203.022274 89.0148 
L 203.072398 80.182558 
L 203.109905 74.740311 
L 203.122391 81.449195 
L 203.147339 75.775827 
L 203.159801 65.880591 
L 203.221987 90.15801 
L 203.259202 73.557925 
L 203.358089 123.553286 
L 203.370413 78.841527 
L 203.395039 82.610168 
L 203.40734 76.167274 
L 203.493227 102.877093 
L 203.505465 85.89565 
L 203.578729 66.964429 
L 203.542132 95.396031 
L 203.615256 76.284969 
L 203.627416 90.060692 
L 203.651713 69.626401 
L 203.71232 81.08369 
L 203.748593 67.200897 
L 203.772736 103.307967 
L 203.820931 79.070748 
L 203.856998 95.614274 
L 203.881005 75.782239 
L 203.916959 79.145759 
L 203.928929 70.607862 
L 203.976732 91.665704 
L 204.024416 80.900285 
L 204.036318 80.989899 
L 204.048213 98.152988 
L 204.071981 67.703795 
L 204.143107 78.526533 
L 204.190378 67.858743 
L 204.225755 86.786902 
L 204.261066 67.927764 
L 204.284571 67.727004 
L 204.354911 99.096965 
L 204.413331 74.279164 
L 204.4832 67.435738 
L 204.459938 76.361342 
L 204.506432 75.872738 
L 204.529637 101.532371 
L 204.599082 73.322457 
L 204.668276 67.976897 
L 204.633711 87.373639 
L 204.679784 76.878491 
L 204.725747 85.618923 
L 204.702779 71.121095 
L 204.783045 76.287528 
L 204.874365 68.451196 
L 204.817341 92.980006 
L 204.897127 69.302392 
L 204.965252 69.262976 
L 205.021837 88.13804 
L 205.055707 69.35338 
L 205.134506 82.378223 
L 205.190593 111.704701 
L 205.20179 81.889807 
L 205.235343 67.48933 
L 205.27999 99.882827 
L 205.313406 75.962027 
L 205.402231 67.7606 
L 205.346764 82.375463 
L 205.435435 70.918586 
L 205.490646 84.037437 
L 205.523696 69.403364 
L 205.556689 75.859064 
L 205.655327 69.933024 
L 205.611551 88.254065 
L 205.666255 73.169014 
L 205.731695 101.697167 
L 205.753458 70.358887 
L 205.786057 83.570127 
L 205.851088 71.771958 
L 205.807759 85.373123 
L 205.872716 79.770555 
L 205.948221 94.761717 
L 205.905112 69.425031 
L 205.98049 80.655438 
L 206.119692 68.801816 
L 206.044863 86.77945 
L 206.130358 70.343542 
L 206.204853 67.543583 
L 206.268476 107.487506 
L 206.352978 69.67012 
L 206.38457 77.736043 
L 206.405603 69.791251 
L 206.426612 78.371937 
L 206.437108 71.443379 
L 206.531313 68.965382 
L 206.573033 105.767771 
L 206.687296 69.053927 
L 206.69765 70.836942 
L 206.739009 94.028277 
L 206.759655 70.011163 
L 206.83174 90.537315 
L 206.913791 71.499205 
L 206.883063 102.694826 
L 206.934249 91.470525 
L 206.94447 99.890843 
L 207.00568 70.190696 
L 207.036211 85.592861 
L 207.056538 71.004911 
L 207.107262 87.504263 
L 207.11739 83.177532 
L 207.127514 104.800829 
L 207.208307 74.578641 
L 207.228452 94.260954 
L 207.268678 73.815955 
L 207.298792 112.942282 
L 207.338871 78.29765 
L 207.358879 107.94111 
L 207.438701 69.084705 
L 207.547914 103.594286 
L 207.557812 83.513731 
L 207.567704 73.471591 
L 207.636809 108.979773 
L 207.656507 80.762875 
L 207.666348 87.640325 
L 207.725291 69.947303 
L 207.754694 81.29112 
L 207.823126 70.103544 
L 207.784052 91.238789 
L 207.862121 79.891705 
L 207.871857 83.730389 
L 207.939871 69.913853 
L 207.949568 69.872645 
L 208.046264 86.256372 
L 208.065544 75.428873 
L 208.161656 122.472012 
L 208.132873 72.507565 
L 208.171241 84.927124 
L 208.238199 70.726706 
L 208.199966 106.250613 
L 208.285883 74.490082 
L 208.304924 76.549257 
L 208.323945 75.778286 
L 208.342947 86.244326 
L 208.390371 74.411775 
L 208.418768 82.11808 
L 208.447124 86.427702 
L 208.522533 70.127117 
L 208.578896 93.055453 
L 208.644442 82.539077 
L 208.663129 85.677935 
L 208.672465 73.325198 
L 208.681797 74.229442 
" style="fill:none;stroke:#000000;stroke-linecap:square;stroke-width:0.5;"/>
   </g>
   <g id="line2d_41">
    <path clip-path="url(#pe1f1459328)" d="M 63.08053 42.652913 
L 84.061196 34.298911 
L 93.816651 30.827086 
L 100.242404 28.948522 
L 105.041863 27.914893 
L 108.874156 27.407081 
L 112.064459 27.24821 
L 114.797317 27.32673 
L 117.187611 27.567731 
L 120.291304 28.124844 
L 122.960397 28.819632 
L 126.022529 29.846192 
L 129.267163 31.172741 
L 133.045126 32.977482 
L 137.404278 35.331937 
L 142.50449 38.351132 
L 149.226334 42.605339 
L 159.023714 49.096412 
L 177.067479 61.365106 
L 208.691124 83.043286 
L 208.691124 83.043286 
" style="fill:none;stroke:#ff0000;stroke-dasharray:7.4,3.2;stroke-dashoffset:0;stroke-width:2;"/>
   </g>
   <g id="patch_3">
    <path d="M 55.8 128.92249 
L 55.8 10.8 
" style="fill:none;stroke:#000000;stroke-linecap:square;stroke-linejoin:miter;stroke-width:0.8;"/>
   </g>
   <g id="patch_4">
    <path d="M 215.971654 128.92249 
L 215.971654 10.8 
" style="fill:none;stroke:#000000;stroke-linecap:square;stroke-linejoin:miter;stroke-width:0.8;"/>
   </g>
   <g id="patch_5">
    <path d="M 55.8 128.92249 
L 215.971654 128.92249 
" style="fill:none;stroke:#000000;stroke-linecap:square;stroke-linejoin:miter;stroke-width:0.8;"/>
   </g>
   <g id="patch_6">
    <path d="M 55.8 10.8 
L 215.971654 10.8 
" style="fill:none;stroke:#000000;stroke-linecap:square;stroke-linejoin:miter;stroke-width:0.8;"/>
   </g>
   <g id="legend_1">
    <g id="patch_7">
     <path d="M 62.8 123.92249 
L 144.19375 123.92249 
Q 146.19375 123.92249 146.19375 121.92249 
L 146.19375 93.56624 
Q 146.19375 91.56624 144.19375 91.56624 
L 62.8 91.56624 
Q 60.8 91.56624 60.8 93.56624 
L 60.8 121.92249 
Q 60.8 123.92249 62.8 123.92249 
z
" style="fill:#ffffff;opacity:0.8;stroke:#cccccc;stroke-linejoin:miter;"/>
    </g>
    <g id="line2d_42">
     <path d="M 64.8 99.664678 
L 84.8 99.664678 
" style="fill:none;stroke:#000000;stroke-linecap:square;stroke-width:0.5;"/>
    </g>
    <g id="line2d_43"/>
    <g id="text_9">
     <!-- simulated -->
     <defs>
      <path d="M 44.28125 53.078125 
L 44.28125 44.578125 
Q 40.484375 46.53125 36.375 47.5 
Q 32.28125 48.484375 27.875 48.484375 
Q 21.1875 48.484375 17.84375 46.4375 
Q 14.5 44.390625 14.5 40.28125 
Q 14.5 37.15625 16.890625 35.375 
Q 19.28125 33.59375 26.515625 31.984375 
L 29.59375 31.296875 
Q 39.15625 29.25 43.1875 25.515625 
Q 47.21875 21.78125 47.21875 15.09375 
Q 47.21875 7.46875 41.1875 3.015625 
Q 35.15625 -1.421875 24.609375 -1.421875 
Q 20.21875 -1.421875 15.453125 -0.5625 
Q 10.6875 0.296875 5.421875 2 
L 5.421875 11.28125 
Q 10.40625 8.6875 15.234375 7.390625 
Q 20.0625 6.109375 24.8125 6.109375 
Q 31.15625 6.109375 34.5625 8.28125 
Q 37.984375 10.453125 37.984375 14.40625 
Q 37.984375 18.0625 35.515625 20.015625 
Q 33.0625 21.96875 24.703125 23.78125 
L 21.578125 24.515625 
Q 13.234375 26.265625 9.515625 29.90625 
Q 5.8125 33.546875 5.8125 39.890625 
Q 5.8125 47.609375 11.28125 51.796875 
Q 16.75 56 26.8125 56 
Q 31.78125 56 36.171875 55.265625 
Q 40.578125 54.546875 44.28125 53.078125 
z
" id="DejaVuSans-115"/>
      <path d="M 9.421875 54.6875 
L 18.40625 54.6875 
L 18.40625 0 
L 9.421875 0 
z
M 9.421875 75.984375 
L 18.40625 75.984375 
L 18.40625 64.59375 
L 9.421875 64.59375 
z
" id="DejaVuSans-105"/>
      <path d="M 52 44.1875 
Q 55.375 50.25 60.0625 53.125 
Q 64.75 56 71.09375 56 
Q 79.640625 56 84.28125 50.015625 
Q 88.921875 44.046875 88.921875 33.015625 
L 88.921875 0 
L 79.890625 0 
L 79.890625 32.71875 
Q 79.890625 40.578125 77.09375 44.375 
Q 74.3125 48.1875 68.609375 48.1875 
Q 61.625 48.1875 57.5625 43.546875 
Q 53.515625 38.921875 53.515625 30.90625 
L 53.515625 0 
L 44.484375 0 
L 44.484375 32.71875 
Q 44.484375 40.625 41.703125 44.40625 
Q 38.921875 48.1875 33.109375 48.1875 
Q 26.21875 48.1875 22.15625 43.53125 
Q 18.109375 38.875 18.109375 30.90625 
L 18.109375 0 
L 9.078125 0 
L 9.078125 54.6875 
L 18.109375 54.6875 
L 18.109375 46.1875 
Q 21.1875 51.21875 25.484375 53.609375 
Q 29.78125 56 35.6875 56 
Q 41.65625 56 45.828125 52.96875 
Q 50 49.953125 52 44.1875 
z
" id="DejaVuSans-109"/>
      <path d="M 8.5 21.578125 
L 8.5 54.6875 
L 17.484375 54.6875 
L 17.484375 21.921875 
Q 17.484375 14.15625 20.5 10.265625 
Q 23.53125 6.390625 29.59375 6.390625 
Q 36.859375 6.390625 41.078125 11.03125 
Q 45.3125 15.671875 45.3125 23.6875 
L 45.3125 54.6875 
L 54.296875 54.6875 
L 54.296875 0 
L 45.3125 0 
L 45.3125 8.40625 
Q 42.046875 3.421875 37.71875 1 
Q 33.40625 -1.421875 27.6875 -1.421875 
Q 18.265625 -1.421875 13.375 4.4375 
Q 8.5 10.296875 8.5 21.578125 
z
M 31.109375 56 
z
" id="DejaVuSans-117"/>
      <path d="M 9.421875 75.984375 
L 18.40625 75.984375 
L 18.40625 0 
L 9.421875 0 
z
" id="DejaVuSans-108"/>
      <path d="M 34.28125 27.484375 
Q 23.390625 27.484375 19.1875 25 
Q 14.984375 22.515625 14.984375 16.5 
Q 14.984375 11.71875 18.140625 8.90625 
Q 21.296875 6.109375 26.703125 6.109375 
Q 34.1875 6.109375 38.703125 11.40625 
Q 43.21875 16.703125 43.21875 25.484375 
L 43.21875 27.484375 
z
M 52.203125 31.203125 
L 52.203125 0 
L 43.21875 0 
L 43.21875 8.296875 
Q 40.140625 3.328125 35.546875 0.953125 
Q 30.953125 -1.421875 24.3125 -1.421875 
Q 15.921875 -1.421875 10.953125 3.296875 
Q 6 8.015625 6 15.921875 
Q 6 25.140625 12.171875 29.828125 
Q 18.359375 34.515625 30.609375 34.515625 
L 43.21875 34.515625 
L 43.21875 35.40625 
Q 43.21875 41.609375 39.140625 45 
Q 35.0625 48.390625 27.6875 48.390625 
Q 23 48.390625 18.546875 47.265625 
Q 14.109375 46.140625 10.015625 43.890625 
L 10.015625 52.203125 
Q 14.9375 54.109375 19.578125 55.046875 
Q 24.21875 56 28.609375 56 
Q 40.484375 56 46.34375 49.84375 
Q 52.203125 43.703125 52.203125 31.203125 
z
" id="DejaVuSans-97"/>
      <path d="M 18.3125 70.21875 
L 18.3125 54.6875 
L 36.8125 54.6875 
L 36.8125 47.703125 
L 18.3125 47.703125 
L 18.3125 18.015625 
Q 18.3125 11.328125 20.140625 9.421875 
Q 21.96875 7.515625 27.59375 7.515625 
L 36.8125 7.515625 
L 36.8125 0 
L 27.59375 0 
Q 17.1875 0 13.234375 3.875 
Q 9.28125 7.765625 9.28125 18.015625 
L 9.28125 47.703125 
L 2.6875 47.703125 
L 2.6875 54.6875 
L 9.28125 54.6875 
L 9.28125 70.21875 
z
" id="DejaVuSans-116"/>
      <path d="M 56.203125 29.59375 
L 56.203125 25.203125 
L 14.890625 25.203125 
Q 15.484375 15.921875 20.484375 11.0625 
Q 25.484375 6.203125 34.421875 6.203125 
Q 39.59375 6.203125 44.453125 7.46875 
Q 49.3125 8.734375 54.109375 11.28125 
L 54.109375 2.78125 
Q 49.265625 0.734375 44.1875 -0.34375 
Q 39.109375 -1.421875 33.890625 -1.421875 
Q 20.796875 -1.421875 13.15625 6.1875 
Q 5.515625 13.8125 5.515625 26.8125 
Q 5.515625 40.234375 12.765625 48.109375 
Q 20.015625 56 32.328125 56 
Q 43.359375 56 49.78125 48.890625 
Q 56.203125 41.796875 56.203125 29.59375 
z
M 47.21875 32.234375 
Q 47.125 39.59375 43.09375 43.984375 
Q 39.0625 48.390625 32.421875 48.390625 
Q 24.90625 48.390625 20.390625 44.140625 
Q 15.875 39.890625 15.1875 32.171875 
z
" id="DejaVuSans-101"/>
      <path d="M 45.40625 46.390625 
L 45.40625 75.984375 
L 54.390625 75.984375 
L 54.390625 0 
L 45.40625 0 
L 45.40625 8.203125 
Q 42.578125 3.328125 38.25 0.953125 
Q 33.9375 -1.421875 27.875 -1.421875 
Q 17.96875 -1.421875 11.734375 6.484375 
Q 5.515625 14.40625 5.515625 27.296875 
Q 5.515625 40.1875 11.734375 48.09375 
Q 17.96875 56 27.875 56 
Q 33.9375 56 38.25 53.625 
Q 42.578125 51.265625 45.40625 46.390625 
z
M 14.796875 27.296875 
Q 14.796875 17.390625 18.875 11.75 
Q 22.953125 6.109375 30.078125 6.109375 
Q 37.203125 6.109375 41.296875 11.75 
Q 45.40625 17.390625 45.40625 27.296875 
Q 45.40625 37.203125 41.296875 42.84375 
Q 37.203125 48.484375 30.078125 48.484375 
Q 22.953125 48.484375 18.875 42.84375 
Q 14.796875 37.203125 14.796875 27.296875 
z
" id="DejaVuSans-100"/>
     </defs>
     <g transform="translate(92.8 103.164678)scale(0.1 -0.1)">
      <use xlink:href="#DejaVuSans-115"/>
      <use x="52.099609" xlink:href="#DejaVuSans-105"/>
      <use x="79.882812" xlink:href="#DejaVuSans-109"/>
      <use x="177.294922" xlink:href="#DejaVuSans-117"/>
      <use x="240.673828" xlink:href="#DejaVuSans-108"/>
      <use x="268.457031" xlink:href="#DejaVuSans-97"/>
      <use x="329.736328" xlink:href="#DejaVuSans-116"/>
      <use x="368.945312" xlink:href="#DejaVuSans-101"/>
      <use x="430.46875" xlink:href="#DejaVuSans-100"/>
     </g>
    </g>
    <g id="line2d_44">
     <path d="M 64.8 114.342803 
L 84.8 114.342803 
" style="fill:none;stroke:#ff0000;stroke-dasharray:7.4,3.2;stroke-dashoffset:0;stroke-width:2;"/>
    </g>
    <g id="line2d_45"/>
    <g id="text_10">
     <!-- target -->
     <defs>
      <path d="M 41.109375 46.296875 
Q 39.59375 47.171875 37.8125 47.578125 
Q 36.03125 48 33.890625 48 
Q 26.265625 48 22.1875 43.046875 
Q 18.109375 38.09375 18.109375 28.8125 
L 18.109375 0 
L 9.078125 0 
L 9.078125 54.6875 
L 18.109375 54.6875 
L 18.109375 46.1875 
Q 20.953125 51.171875 25.484375 53.578125 
Q 30.03125 56 36.53125 56 
Q 37.453125 56 38.578125 55.875 
Q 39.703125 55.765625 41.0625 55.515625 
z
" id="DejaVuSans-114"/>
      <path d="M 45.40625 27.984375 
Q 45.40625 37.75 41.375 43.109375 
Q 37.359375 48.484375 30.078125 48.484375 
Q 22.859375 48.484375 18.828125 43.109375 
Q 14.796875 37.75 14.796875 27.984375 
Q 14.796875 18.265625 18.828125 12.890625 
Q 22.859375 7.515625 30.078125 7.515625 
Q 37.359375 7.515625 41.375 12.890625 
Q 45.40625 18.265625 45.40625 27.984375 
z
M 54.390625 6.78125 
Q 54.390625 -7.171875 48.1875 -13.984375 
Q 42 -20.796875 29.203125 -20.796875 
Q 24.46875 -20.796875 20.265625 -20.09375 
Q 16.0625 -19.390625 12.109375 -17.921875 
L 12.109375 -9.1875 
Q 16.0625 -11.328125 19.921875 -12.34375 
Q 23.78125 -13.375 27.78125 -13.375 
Q 36.625 -13.375 41.015625 -8.765625 
Q 45.40625 -4.15625 45.40625 5.171875 
L 45.40625 9.625 
Q 42.625 4.78125 38.28125 2.390625 
Q 33.9375 0 27.875 0 
Q 17.828125 0 11.671875 7.65625 
Q 5.515625 15.328125 5.515625 27.984375 
Q 5.515625 40.671875 11.671875 48.328125 
Q 17.828125 56 27.875 56 
Q 33.9375 56 38.28125 53.609375 
Q 42.625 51.21875 45.40625 46.390625 
L 45.40625 54.6875 
L 54.390625 54.6875 
z
" id="DejaVuSans-103"/>
     </defs>
     <g transform="translate(92.8 117.842803)scale(0.1 -0.1)">
      <use xlink:href="#DejaVuSans-116"/>
      <use x="39.208984" xlink:href="#DejaVuSans-97"/>
      <use x="100.488281" xlink:href="#DejaVuSans-114"/>
      <use x="141.585938" xlink:href="#DejaVuSans-103"/>
      <use x="205.0625" xlink:href="#DejaVuSans-101"/>
      <use x="266.585938" xlink:href="#DejaVuSans-116"/>
     </g>
    </g>
   </g>
  </g>
 </g>
 <defs>
  <clipPath id="pe1f1459328">
   <rect height="118.12249" width="160.171654" x="55.8" y="10.8"/>
  </clipPath>
 </defs>
</svg>
