<?xml version="1.0" encoding="utf-8" standalone="no"?>
<!DOCTYPE svg PUBLIC "-//W3C//DTD SVG 1.1//EN"
  "http://www.w3.org/Graphics/SVG/1.1/DTD/svg11.dtd">
<!-- Created with matplotlib (https://matplotlib.org/) -->
<svg height="170.07874pt" version="1.1" viewBox="0 0 226.771654 170.07874" width="226.771654pt" xmlns="http://www.w3.org/2000/svg" xmlns:xlink="http://www.w3.org/1999/xlink">
 <defs>
  <style type="text/css">
*{stroke-linecap:butt;stroke-linejoin:round;}
  </style>
 </defs>
 <g id="figure_1">
  <g id="patch_1">
   <path d="M 0 170.07874 
L 226.771654 170.07874 
L 226.771654 0 
L 0 0 
z
" style="fill:#ffffff;"/>
  </g>
  <g id="axes_1">
   <g id="patch_2">
    <path d="M 54.978125 128.92249 
L 215.971654 128.92249 
L 215.971654 10.8 
L 54.978125 10.8 
z
" style="fill:#ffffff;"/>
   </g>
   <g id="matplotlib.axis_1">
    <g id="xtick_1">
     <g id="line2d_1">
      <path clip-path="url(#pc2b4d3e531)" d="M 88.182243 128.92249 
L 88.182243 10.8 
" style="fill:none;stroke:#b0b0b0;stroke-linecap:square;stroke-width:0.8;"/>
     </g>
     <g id="line2d_2">
      <defs>
       <path d="M 0 0 
L 0 3.5 
" id="m757c5830c0" style="stroke:#000000;stroke-width:0.8;"/>
      </defs>
      <g>
       <use style="stroke:#000000;stroke-width:0.8;" x="88.182243" xlink:href="#m757c5830c0" y="128.92249"/>
      </g>
     </g>
     <g id="text_1">
      <!-- $\mathdefault{10^{-3}}$ -->
      <defs>
       <path d="M 12.40625 8.296875 
L 28.515625 8.296875 
L 28.515625 63.921875 
L 10.984375 60.40625 
L 10.984375 69.390625 
L 28.421875 72.90625 
L 38.28125 72.90625 
L 38.28125 8.296875 
L 54.390625 8.296875 
L 54.390625 0 
L 12.40625 0 
z
" id="DejaVuSans-49"/>
       <path d="M 31.78125 66.40625 
Q 24.171875 66.40625 20.328125 58.90625 
Q 16.5 51.421875 16.5 36.375 
Q 16.5 21.390625 20.328125 13.890625 
Q 24.171875 6.390625 31.78125 6.390625 
Q 39.453125 6.390625 43.28125 13.890625 
Q 47.125 21.390625 47.125 36.375 
Q 47.125 51.421875 43.28125 58.90625 
Q 39.453125 66.40625 31.78125 66.40625 
z
M 31.78125 74.21875 
Q 44.046875 74.21875 50.515625 64.515625 
Q 56.984375 54.828125 56.984375 36.375 
Q 56.984375 17.96875 50.515625 8.265625 
Q 44.046875 -1.421875 31.78125 -1.421875 
Q 19.53125 -1.421875 13.0625 8.265625 
Q 6.59375 17.96875 6.59375 36.375 
Q 6.59375 54.828125 13.0625 64.515625 
Q 19.53125 74.21875 31.78125 74.21875 
z
" id="DejaVuSans-48"/>
       <path d="M 10.59375 35.5 
L 73.1875 35.5 
L 73.1875 27.203125 
L 10.59375 27.203125 
z
" id="DejaVuSans-8722"/>
       <path d="M 40.578125 39.3125 
Q 47.65625 37.796875 51.625 33 
Q 55.609375 28.21875 55.609375 21.1875 
Q 55.609375 10.40625 48.1875 4.484375 
Q 40.765625 -1.421875 27.09375 -1.421875 
Q 22.515625 -1.421875 17.65625 -0.515625 
Q 12.796875 0.390625 7.625 2.203125 
L 7.625 11.71875 
Q 11.71875 9.328125 16.59375 8.109375 
Q 21.484375 6.890625 26.8125 6.890625 
Q 36.078125 6.890625 40.9375 10.546875 
Q 45.796875 14.203125 45.796875 21.1875 
Q 45.796875 27.640625 41.28125 31.265625 
Q 36.765625 34.90625 28.71875 34.90625 
L 20.21875 34.90625 
L 20.21875 43.015625 
L 29.109375 43.015625 
Q 36.375 43.015625 40.234375 45.921875 
Q 44.09375 48.828125 44.09375 54.296875 
Q 44.09375 59.90625 40.109375 62.90625 
Q 36.140625 65.921875 28.71875 65.921875 
Q 24.65625 65.921875 20.015625 65.03125 
Q 15.375 64.15625 9.8125 62.3125 
L 9.8125 71.09375 
Q 15.4375 72.65625 20.34375 73.4375 
Q 25.25 74.21875 29.59375 74.21875 
Q 40.828125 74.21875 47.359375 69.109375 
Q 53.90625 64.015625 53.90625 55.328125 
Q 53.90625 49.265625 50.4375 45.09375 
Q 46.96875 40.921875 40.578125 39.3125 
z
" id="DejaVuSans-51"/>
      </defs>
      <g transform="translate(76.432243 143.520928)scale(0.1 -0.1)">
       <use transform="translate(0 0.765625)" xlink:href="#DejaVuSans-49"/>
       <use transform="translate(63.623047 0.765625)" xlink:href="#DejaVuSans-48"/>
       <use transform="translate(128.203125 39.046875)scale(0.7)" xlink:href="#DejaVuSans-8722"/>
       <use transform="translate(186.855469 39.046875)scale(0.7)" xlink:href="#DejaVuSans-51"/>
      </g>
     </g>
    </g>
    <g id="xtick_2">
     <g id="line2d_3">
      <path clip-path="url(#pc2b4d3e531)" d="M 124.679251 128.92249 
L 124.679251 10.8 
" style="fill:none;stroke:#b0b0b0;stroke-linecap:square;stroke-width:0.8;"/>
     </g>
     <g id="line2d_4">
      <g>
       <use style="stroke:#000000;stroke-width:0.8;" x="124.679251" xlink:href="#m757c5830c0" y="128.92249"/>
      </g>
     </g>
     <g id="text_2">
      <!-- $\mathdefault{10^{-2}}$ -->
      <defs>
       <path d="M 19.1875 8.296875 
L 53.609375 8.296875 
L 53.609375 0 
L 7.328125 0 
L 7.328125 8.296875 
Q 12.9375 14.109375 22.625 23.890625 
Q 32.328125 33.6875 34.8125 36.53125 
Q 39.546875 41.84375 41.421875 45.53125 
Q 43.3125 49.21875 43.3125 52.78125 
Q 43.3125 58.59375 39.234375 62.25 
Q 35.15625 65.921875 28.609375 65.921875 
Q 23.96875 65.921875 18.8125 64.3125 
Q 13.671875 62.703125 7.8125 59.421875 
L 7.8125 69.390625 
Q 13.765625 71.78125 18.9375 73 
Q 24.125 74.21875 28.421875 74.21875 
Q 39.75 74.21875 46.484375 68.546875 
Q 53.21875 62.890625 53.21875 53.421875 
Q 53.21875 48.921875 51.53125 44.890625 
Q 49.859375 40.875 45.40625 35.40625 
Q 44.1875 33.984375 37.640625 27.21875 
Q 31.109375 20.453125 19.1875 8.296875 
z
" id="DejaVuSans-50"/>
      </defs>
      <g transform="translate(112.929251 143.520928)scale(0.1 -0.1)">
       <use transform="translate(0 0.765625)" xlink:href="#DejaVuSans-49"/>
       <use transform="translate(63.623047 0.765625)" xlink:href="#DejaVuSans-48"/>
       <use transform="translate(128.203125 39.046875)scale(0.7)" xlink:href="#DejaVuSans-8722"/>
       <use transform="translate(186.855469 39.046875)scale(0.7)" xlink:href="#DejaVuSans-50"/>
      </g>
     </g>
    </g>
    <g id="xtick_3">
     <g id="line2d_5">
      <path clip-path="url(#pc2b4d3e531)" d="M 161.176258 128.92249 
L 161.176258 10.8 
" style="fill:none;stroke:#b0b0b0;stroke-linecap:square;stroke-width:0.8;"/>
     </g>
     <g id="line2d_6">
      <g>
       <use style="stroke:#000000;stroke-width:0.8;" x="161.176258" xlink:href="#m757c5830c0" y="128.92249"/>
      </g>
     </g>
     <g id="text_3">
      <!-- $\mathdefault{10^{-1}}$ -->
      <g transform="translate(149.426258 143.520928)scale(0.1 -0.1)">
       <use transform="translate(0 0.684375)" xlink:href="#DejaVuSans-49"/>
       <use transform="translate(63.623047 0.684375)" xlink:href="#DejaVuSans-48"/>
       <use transform="translate(128.203125 38.965625)scale(0.7)" xlink:href="#DejaVuSans-8722"/>
       <use transform="translate(186.855469 38.965625)scale(0.7)" xlink:href="#DejaVuSans-49"/>
      </g>
     </g>
    </g>
    <g id="xtick_4">
     <g id="line2d_7">
      <path clip-path="url(#pc2b4d3e531)" d="M 197.673265 128.92249 
L 197.673265 10.8 
" style="fill:none;stroke:#b0b0b0;stroke-linecap:square;stroke-width:0.8;"/>
     </g>
     <g id="line2d_8">
      <g>
       <use style="stroke:#000000;stroke-width:0.8;" x="197.673265" xlink:href="#m757c5830c0" y="128.92249"/>
      </g>
     </g>
     <g id="text_4">
      <!-- $\mathdefault{10^{0}}$ -->
      <g transform="translate(188.873265 143.520928)scale(0.1 -0.1)">
       <use transform="translate(0 0.765625)" xlink:href="#DejaVuSans-49"/>
       <use transform="translate(63.623047 0.765625)" xlink:href="#DejaVuSans-48"/>
       <use transform="translate(128.203125 39.046875)scale(0.7)" xlink:href="#DejaVuSans-48"/>
      </g>
     </g>
    </g>
    <g id="xtick_5">
     <g id="line2d_9">
      <defs>
       <path d="M 0 0 
L 0 2 
" id="m6e5ae8fbff" style="stroke:#000000;stroke-width:0.6;"/>
      </defs>
      <g>
       <use style="stroke:#000000;stroke-width:0.6;" x="62.67193" xlink:href="#m6e5ae8fbff" y="128.92249"/>
      </g>
     </g>
    </g>
    <g id="xtick_6">
     <g id="line2d_10">
      <g>
       <use style="stroke:#000000;stroke-width:0.6;" x="69.098734" xlink:href="#m6e5ae8fbff" y="128.92249"/>
      </g>
     </g>
    </g>
    <g id="xtick_7">
     <g id="line2d_11">
      <g>
       <use style="stroke:#000000;stroke-width:0.6;" x="73.658624" xlink:href="#m6e5ae8fbff" y="128.92249"/>
      </g>
     </g>
    </g>
    <g id="xtick_8">
     <g id="line2d_12">
      <g>
       <use style="stroke:#000000;stroke-width:0.6;" x="77.19555" xlink:href="#m6e5ae8fbff" y="128.92249"/>
      </g>
     </g>
    </g>
    <g id="xtick_9">
     <g id="line2d_13">
      <g>
       <use style="stroke:#000000;stroke-width:0.6;" x="80.085428" xlink:href="#m6e5ae8fbff" y="128.92249"/>
      </g>
     </g>
    </g>
    <g id="xtick_10">
     <g id="line2d_14">
      <g>
       <use style="stroke:#000000;stroke-width:0.6;" x="82.528786" xlink:href="#m6e5ae8fbff" y="128.92249"/>
      </g>
     </g>
    </g>
    <g id="xtick_11">
     <g id="line2d_15">
      <g>
       <use style="stroke:#000000;stroke-width:0.6;" x="84.645318" xlink:href="#m6e5ae8fbff" y="128.92249"/>
      </g>
     </g>
    </g>
    <g id="xtick_12">
     <g id="line2d_16">
      <g>
       <use style="stroke:#000000;stroke-width:0.6;" x="86.512232" xlink:href="#m6e5ae8fbff" y="128.92249"/>
      </g>
     </g>
    </g>
    <g id="xtick_13">
     <g id="line2d_17">
      <g>
       <use style="stroke:#000000;stroke-width:0.6;" x="99.168937" xlink:href="#m6e5ae8fbff" y="128.92249"/>
      </g>
     </g>
    </g>
    <g id="xtick_14">
     <g id="line2d_18">
      <g>
       <use style="stroke:#000000;stroke-width:0.6;" x="105.595741" xlink:href="#m6e5ae8fbff" y="128.92249"/>
      </g>
     </g>
    </g>
    <g id="xtick_15">
     <g id="line2d_19">
      <g>
       <use style="stroke:#000000;stroke-width:0.6;" x="110.155631" xlink:href="#m6e5ae8fbff" y="128.92249"/>
      </g>
     </g>
    </g>
    <g id="xtick_16">
     <g id="line2d_20">
      <g>
       <use style="stroke:#000000;stroke-width:0.6;" x="113.692557" xlink:href="#m6e5ae8fbff" y="128.92249"/>
      </g>
     </g>
    </g>
    <g id="xtick_17">
     <g id="line2d_21">
      <g>
       <use style="stroke:#000000;stroke-width:0.6;" x="116.582435" xlink:href="#m6e5ae8fbff" y="128.92249"/>
      </g>
     </g>
    </g>
    <g id="xtick_18">
     <g id="line2d_22">
      <g>
       <use style="stroke:#000000;stroke-width:0.6;" x="119.025793" xlink:href="#m6e5ae8fbff" y="128.92249"/>
      </g>
     </g>
    </g>
    <g id="xtick_19">
     <g id="line2d_23">
      <g>
       <use style="stroke:#000000;stroke-width:0.6;" x="121.142325" xlink:href="#m6e5ae8fbff" y="128.92249"/>
      </g>
     </g>
    </g>
    <g id="xtick_20">
     <g id="line2d_24">
      <g>
       <use style="stroke:#000000;stroke-width:0.6;" x="123.009239" xlink:href="#m6e5ae8fbff" y="128.92249"/>
      </g>
     </g>
    </g>
    <g id="xtick_21">
     <g id="line2d_25">
      <g>
       <use style="stroke:#000000;stroke-width:0.6;" x="135.665944" xlink:href="#m6e5ae8fbff" y="128.92249"/>
      </g>
     </g>
    </g>
    <g id="xtick_22">
     <g id="line2d_26">
      <g>
       <use style="stroke:#000000;stroke-width:0.6;" x="142.092748" xlink:href="#m6e5ae8fbff" y="128.92249"/>
      </g>
     </g>
    </g>
    <g id="xtick_23">
     <g id="line2d_27">
      <g>
       <use style="stroke:#000000;stroke-width:0.6;" x="146.652638" xlink:href="#m6e5ae8fbff" y="128.92249"/>
      </g>
     </g>
    </g>
    <g id="xtick_24">
     <g id="line2d_28">
      <g>
       <use style="stroke:#000000;stroke-width:0.6;" x="150.189564" xlink:href="#m6e5ae8fbff" y="128.92249"/>
      </g>
     </g>
    </g>
    <g id="xtick_25">
     <g id="line2d_29">
      <g>
       <use style="stroke:#000000;stroke-width:0.6;" x="153.079442" xlink:href="#m6e5ae8fbff" y="128.92249"/>
      </g>
     </g>
    </g>
    <g id="xtick_26">
     <g id="line2d_30">
      <g>
       <use style="stroke:#000000;stroke-width:0.6;" x="155.5228" xlink:href="#m6e5ae8fbff" y="128.92249"/>
      </g>
     </g>
    </g>
    <g id="xtick_27">
     <g id="line2d_31">
      <g>
       <use style="stroke:#000000;stroke-width:0.6;" x="157.639332" xlink:href="#m6e5ae8fbff" y="128.92249"/>
      </g>
     </g>
    </g>
    <g id="xtick_28">
     <g id="line2d_32">
      <g>
       <use style="stroke:#000000;stroke-width:0.6;" x="159.506246" xlink:href="#m6e5ae8fbff" y="128.92249"/>
      </g>
     </g>
    </g>
    <g id="xtick_29">
     <g id="line2d_33">
      <g>
       <use style="stroke:#000000;stroke-width:0.6;" x="172.162952" xlink:href="#m6e5ae8fbff" y="128.92249"/>
      </g>
     </g>
    </g>
    <g id="xtick_30">
     <g id="line2d_34">
      <g>
       <use style="stroke:#000000;stroke-width:0.6;" x="178.589756" xlink:href="#m6e5ae8fbff" y="128.92249"/>
      </g>
     </g>
    </g>
    <g id="xtick_31">
     <g id="line2d_35">
      <g>
       <use style="stroke:#000000;stroke-width:0.6;" x="183.149645" xlink:href="#m6e5ae8fbff" y="128.92249"/>
      </g>
     </g>
    </g>
    <g id="xtick_32">
     <g id="line2d_36">
      <g>
       <use style="stroke:#000000;stroke-width:0.6;" x="186.686571" xlink:href="#m6e5ae8fbff" y="128.92249"/>
      </g>
     </g>
    </g>
    <g id="xtick_33">
     <g id="line2d_37">
      <g>
       <use style="stroke:#000000;stroke-width:0.6;" x="189.576449" xlink:href="#m6e5ae8fbff" y="128.92249"/>
      </g>
     </g>
    </g>
    <g id="xtick_34">
     <g id="line2d_38">
      <g>
       <use style="stroke:#000000;stroke-width:0.6;" x="192.019807" xlink:href="#m6e5ae8fbff" y="128.92249"/>
      </g>
     </g>
    </g>
    <g id="xtick_35">
     <g id="line2d_39">
      <g>
       <use style="stroke:#000000;stroke-width:0.6;" x="194.136339" xlink:href="#m6e5ae8fbff" y="128.92249"/>
      </g>
     </g>
    </g>
    <g id="xtick_36">
     <g id="line2d_40">
      <g>
       <use style="stroke:#000000;stroke-width:0.6;" x="196.003253" xlink:href="#m6e5ae8fbff" y="128.92249"/>
      </g>
     </g>
    </g>
    <g id="xtick_37">
     <g id="line2d_41">
      <g>
       <use style="stroke:#000000;stroke-width:0.6;" x="208.659959" xlink:href="#m6e5ae8fbff" y="128.92249"/>
      </g>
     </g>
    </g>
    <g id="xtick_38">
     <g id="line2d_42">
      <g>
       <use style="stroke:#000000;stroke-width:0.6;" x="215.086763" xlink:href="#m6e5ae8fbff" y="128.92249"/>
      </g>
     </g>
    </g>
    <g id="text_5">
     <!-- f (Hz) -->
     <defs>
      <path d="M 37.109375 75.984375 
L 37.109375 68.5 
L 28.515625 68.5 
Q 23.6875 68.5 21.796875 66.546875 
Q 19.921875 64.59375 19.921875 59.515625 
L 19.921875 54.6875 
L 34.71875 54.6875 
L 34.71875 47.703125 
L 19.921875 47.703125 
L 19.921875 0 
L 10.890625 0 
L 10.890625 47.703125 
L 2.296875 47.703125 
L 2.296875 54.6875 
L 10.890625 54.6875 
L 10.890625 58.5 
Q 10.890625 67.625 15.140625 71.796875 
Q 19.390625 75.984375 28.609375 75.984375 
z
" id="DejaVuSans-102"/>
      <path id="DejaVuSans-32"/>
      <path d="M 31 75.875 
Q 24.46875 64.65625 21.28125 53.65625 
Q 18.109375 42.671875 18.109375 31.390625 
Q 18.109375 20.125 21.3125 9.0625 
Q 24.515625 -2 31 -13.1875 
L 23.1875 -13.1875 
Q 15.875 -1.703125 12.234375 9.375 
Q 8.59375 20.453125 8.59375 31.390625 
Q 8.59375 42.28125 12.203125 53.3125 
Q 15.828125 64.359375 23.1875 75.875 
z
" id="DejaVuSans-40"/>
      <path d="M 9.8125 72.90625 
L 19.671875 72.90625 
L 19.671875 43.015625 
L 55.515625 43.015625 
L 55.515625 72.90625 
L 65.375 72.90625 
L 65.375 0 
L 55.515625 0 
L 55.515625 34.71875 
L 19.671875 34.71875 
L 19.671875 0 
L 9.8125 0 
z
" id="DejaVuSans-72"/>
      <path d="M 5.515625 54.6875 
L 48.1875 54.6875 
L 48.1875 46.484375 
L 14.40625 7.171875 
L 48.1875 7.171875 
L 48.1875 0 
L 4.296875 0 
L 4.296875 8.203125 
L 38.09375 47.515625 
L 5.515625 47.515625 
z
" id="DejaVuSans-122"/>
      <path d="M 8.015625 75.875 
L 15.828125 75.875 
Q 23.140625 64.359375 26.78125 53.3125 
Q 30.421875 42.28125 30.421875 31.390625 
Q 30.421875 20.453125 26.78125 9.375 
Q 23.140625 -1.703125 15.828125 -13.1875 
L 8.015625 -13.1875 
Q 14.5 -2 17.703125 9.0625 
Q 20.90625 20.125 20.90625 31.390625 
Q 20.90625 42.671875 17.703125 53.65625 
Q 14.5 64.65625 8.015625 75.875 
z
" id="DejaVuSans-41"/>
     </defs>
     <g transform="translate(121.839733 157.199053)scale(0.1 -0.1)">
      <use xlink:href="#DejaVuSans-102"/>
      <use x="35.205078" xlink:href="#DejaVuSans-32"/>
      <use x="66.992188" xlink:href="#DejaVuSans-40"/>
      <use x="106.005859" xlink:href="#DejaVuSans-72"/>
      <use x="181.201172" xlink:href="#DejaVuSans-122"/>
      <use x="233.691406" xlink:href="#DejaVuSans-41"/>
     </g>
    </g>
   </g>
   <g id="matplotlib.axis_2">
    <g id="ytick_1">
     <g id="line2d_43">
      <path clip-path="url(#pc2b4d3e531)" d="M 54.978125 96.22036 
L 215.971654 96.22036 
" style="fill:none;stroke:#b0b0b0;stroke-linecap:square;stroke-width:0.8;"/>
     </g>
     <g id="line2d_44">
      <defs>
       <path d="M 0 0 
L -3.5 0 
" id="m19df0f0826" style="stroke:#000000;stroke-width:0.8;"/>
      </defs>
      <g>
       <use style="stroke:#000000;stroke-width:0.8;" x="54.978125" xlink:href="#m19df0f0826" y="96.22036"/>
      </g>
     </g>
     <g id="text_6">
      <!-- $\mathdefault{10^{-1}}$ -->
      <g transform="translate(24.478125 100.019578)scale(0.1 -0.1)">
       <use transform="translate(0 0.684375)" xlink:href="#DejaVuSans-49"/>
       <use transform="translate(63.623047 0.684375)" xlink:href="#DejaVuSans-48"/>
       <use transform="translate(128.203125 38.965625)scale(0.7)" xlink:href="#DejaVuSans-8722"/>
       <use transform="translate(186.855469 38.965625)scale(0.7)" xlink:href="#DejaVuSans-49"/>
      </g>
     </g>
    </g>
    <g id="ytick_2">
     <g id="line2d_45">
      <path clip-path="url(#pc2b4d3e531)" d="M 54.978125 61.674757 
L 215.971654 61.674757 
" style="fill:none;stroke:#b0b0b0;stroke-linecap:square;stroke-width:0.8;"/>
     </g>
     <g id="line2d_46">
      <g>
       <use style="stroke:#000000;stroke-width:0.8;" x="54.978125" xlink:href="#m19df0f0826" y="61.674757"/>
      </g>
     </g>
     <g id="text_7">
      <!-- $\mathdefault{10^{1}}$ -->
      <g transform="translate(30.378125 65.473976)scale(0.1 -0.1)">
       <use transform="translate(0 0.684375)" xlink:href="#DejaVuSans-49"/>
       <use transform="translate(63.623047 0.684375)" xlink:href="#DejaVuSans-48"/>
       <use transform="translate(128.203125 38.965625)scale(0.7)" xlink:href="#DejaVuSans-49"/>
      </g>
     </g>
    </g>
    <g id="ytick_3">
     <g id="line2d_47">
      <path clip-path="url(#pc2b4d3e531)" d="M 54.978125 27.129155 
L 215.971654 27.129155 
" style="fill:none;stroke:#b0b0b0;stroke-linecap:square;stroke-width:0.8;"/>
     </g>
     <g id="line2d_48">
      <g>
       <use style="stroke:#000000;stroke-width:0.8;" x="54.978125" xlink:href="#m19df0f0826" y="27.129155"/>
      </g>
     </g>
     <g id="text_8">
      <!-- $\mathdefault{10^{3}}$ -->
      <g transform="translate(30.378125 30.928374)scale(0.1 -0.1)">
       <use transform="translate(0 0.765625)" xlink:href="#DejaVuSans-49"/>
       <use transform="translate(63.623047 0.765625)" xlink:href="#DejaVuSans-48"/>
       <use transform="translate(128.203125 39.046875)scale(0.7)" xlink:href="#DejaVuSans-51"/>
      </g>
     </g>
    </g>
    <g id="text_9">
     <!-- S(f) (m^2/s) -->
     <defs>
      <path d="M 53.515625 70.515625 
L 53.515625 60.890625 
Q 47.90625 63.578125 42.921875 64.890625 
Q 37.9375 66.21875 33.296875 66.21875 
Q 25.25 66.21875 20.875 63.09375 
Q 16.5 59.96875 16.5 54.203125 
Q 16.5 49.359375 19.40625 46.890625 
Q 22.3125 44.4375 30.421875 42.921875 
L 36.375 41.703125 
Q 47.40625 39.59375 52.65625 34.296875 
Q 57.90625 29 57.90625 20.125 
Q 57.90625 9.515625 50.796875 4.046875 
Q 43.703125 -1.421875 29.984375 -1.421875 
Q 24.8125 -1.421875 18.96875 -0.25 
Q 13.140625 0.921875 6.890625 3.21875 
L 6.890625 13.375 
Q 12.890625 10.015625 18.65625 8.296875 
Q 24.421875 6.59375 29.984375 6.59375 
Q 38.421875 6.59375 43.015625 9.90625 
Q 47.609375 13.234375 47.609375 19.390625 
Q 47.609375 24.75 44.3125 27.78125 
Q 41.015625 30.8125 33.5 32.328125 
L 27.484375 33.5 
Q 16.453125 35.6875 11.515625 40.375 
Q 6.59375 45.0625 6.59375 53.421875 
Q 6.59375 63.09375 13.40625 68.65625 
Q 20.21875 74.21875 32.171875 74.21875 
Q 37.3125 74.21875 42.625 73.28125 
Q 47.953125 72.359375 53.515625 70.515625 
z
" id="DejaVuSans-83"/>
      <path d="M 52 44.1875 
Q 55.375 50.25 60.0625 53.125 
Q 64.75 56 71.09375 56 
Q 79.640625 56 84.28125 50.015625 
Q 88.921875 44.046875 88.921875 33.015625 
L 88.921875 0 
L 79.890625 0 
L 79.890625 32.71875 
Q 79.890625 40.578125 77.09375 44.375 
Q 74.3125 48.1875 68.609375 48.1875 
Q 61.625 48.1875 57.5625 43.546875 
Q 53.515625 38.921875 53.515625 30.90625 
L 53.515625 0 
L 44.484375 0 
L 44.484375 32.71875 
Q 44.484375 40.625 41.703125 44.40625 
Q 38.921875 48.1875 33.109375 48.1875 
Q 26.21875 48.1875 22.15625 43.53125 
Q 18.109375 38.875 18.109375 30.90625 
L 18.109375 0 
L 9.078125 0 
L 9.078125 54.6875 
L 18.109375 54.6875 
L 18.109375 46.1875 
Q 21.1875 51.21875 25.484375 53.609375 
Q 29.78125 56 35.6875 56 
Q 41.65625 56 45.828125 52.96875 
Q 50 49.953125 52 44.1875 
z
" id="DejaVuSans-109"/>
      <path d="M 46.6875 72.90625 
L 73.1875 45.703125 
L 63.375 45.703125 
L 41.890625 64.984375 
L 20.40625 45.703125 
L 10.59375 45.703125 
L 37.109375 72.90625 
z
" id="DejaVuSans-94"/>
      <path d="M 25.390625 72.90625 
L 33.6875 72.90625 
L 8.296875 -9.28125 
L 0 -9.28125 
z
" id="DejaVuSans-47"/>
      <path d="M 44.28125 53.078125 
L 44.28125 44.578125 
Q 40.484375 46.53125 36.375 47.5 
Q 32.28125 48.484375 27.875 48.484375 
Q 21.1875 48.484375 17.84375 46.4375 
Q 14.5 44.390625 14.5 40.28125 
Q 14.5 37.15625 16.890625 35.375 
Q 19.28125 33.59375 26.515625 31.984375 
L 29.59375 31.296875 
Q 39.15625 29.25 43.1875 25.515625 
Q 47.21875 21.78125 47.21875 15.09375 
Q 47.21875 7.46875 41.1875 3.015625 
Q 35.15625 -1.421875 24.609375 -1.421875 
Q 20.21875 -1.421875 15.453125 -0.5625 
Q 10.6875 0.296875 5.421875 2 
L 5.421875 11.28125 
Q 10.40625 8.6875 15.234375 7.390625 
Q 20.0625 6.109375 24.8125 6.109375 
Q 31.15625 6.109375 34.5625 8.28125 
Q 37.984375 10.453125 37.984375 14.40625 
Q 37.984375 18.0625 35.515625 20.015625 
Q 33.0625 21.96875 24.703125 23.78125 
L 21.578125 24.515625 
Q 13.234375 26.265625 9.515625 29.90625 
Q 5.8125 33.546875 5.8125 39.890625 
Q 5.8125 47.609375 11.28125 51.796875 
Q 16.75 56 26.8125 56 
Q 31.78125 56 36.171875 55.265625 
Q 40.578125 54.546875 44.28125 53.078125 
z
" id="DejaVuSans-115"/>
     </defs>
     <g transform="translate(18.398437 100.718276)rotate(-90)scale(0.1 -0.1)">
      <use xlink:href="#DejaVuSans-83"/>
      <use x="63.476562" xlink:href="#DejaVuSans-40"/>
      <use x="102.490234" xlink:href="#DejaVuSans-102"/>
      <use x="137.695312" xlink:href="#DejaVuSans-41"/>
      <use x="176.708984" xlink:href="#DejaVuSans-32"/>
      <use x="208.496094" xlink:href="#DejaVuSans-40"/>
      <use x="247.509766" xlink:href="#DejaVuSans-109"/>
      <use x="344.921875" xlink:href="#DejaVuSans-94"/>
      <use x="428.710938" xlink:href="#DejaVuSans-50"/>
      <use x="492.333984" xlink:href="#DejaVuSans-47"/>
      <use x="526.025391" xlink:href="#DejaVuSans-115"/>
      <use x="578.125" xlink:href="#DejaVuSans-41"/>
     </g>
    </g>
   </g>
   <g id="line2d_49">
    <path clip-path="url(#pc2b4d3e531)" d="M 87.806326 30.915511 
L 98.79302 40.430098 
L 105.219824 54.098943 
L 109.779714 26.501148 
L 113.316639 21.156431 
L 116.206518 19.353105 
L 118.649875 20.797926 
L 120.766408 31.443873 
L 122.633322 16.169204 
L 124.303333 16.773553 
L 125.814042 24.257088 
L 127.193211 33.233949 
L 128.461924 23.878777 
L 129.636569 35.667381 
L 130.730137 50.31647 
L 131.753101 44.855555 
L 132.714029 34.913912 
L 134.477005 48.323503 
L 135.290027 31.383573 
L 136.063373 28.424575 
L 136.800736 20.39366 
L 137.505316 21.952852 
L 138.179905 20.213217 
L 138.826952 18.216578 
L 139.448618 21.916061 
L 140.046819 26.491326 
L 140.623263 26.073854 
L 141.179476 49.498171 
L 141.716831 29.26236 
L 142.236564 21.80174 
L 142.739795 26.054016 
L 143.22754 33.039002 
L 143.700723 21.285054 
L 144.160188 27.806491 
L 144.606709 72.610411 
L 145.040995 40.00821 
L 145.463699 25.219457 
L 145.875422 28.540841 
L 146.276721 29.568975 
L 146.66811 45.556687 
L 147.050067 29.381867 
L 147.423036 24.171276 
L 147.78743 29.523961 
L 148.143635 39.610375 
L 148.49201 30.487234 
L 148.832893 38.948086 
L 149.166599 41.396722 
L 149.493424 51.97722 
L 149.813646 34.400169 
L 150.127527 34.849272 
L 150.435312 30.318974 
L 150.737235 53.486191 
L 151.324355 39.600951 
L 151.609957 26.318222 
L 151.890503 28.583267 
L 152.16617 32.165764 
L 152.437124 40.809558 
L 152.703525 60.85282 
L 153.223258 26.964033 
L 153.476871 32.420034 
L 153.726489 62.787413 
L 153.972238 35.746245 
L 154.214234 30.441678 
L 154.687417 32.118242 
L 155.146882 38.263666 
L 155.371715 28.506744 
L 155.593403 28.554201 
L 155.812034 32.999742 
L 156.027689 43.986616 
L 156.24045 37.086462 
L 156.450393 36.469755 
L 156.657591 38.779833 
L 156.862116 38.871016 
L 157.064035 37.715504 
L 157.263415 45.461272 
L 157.460317 42.188354 
L 157.654804 32.442526 
L 157.846933 37.299277 
L 158.036761 48.409572 
L 158.224342 34.364415 
L 158.40973 33.651774 
L 158.592974 30.755942 
L 158.774124 31.21717 
L 158.953227 33.050494 
L 159.130329 33.183638 
L 159.305473 32.728895 
L 159.478704 31.292862 
L 159.650062 31.650424 
L 159.987318 42.962986 
L 160.153293 32.701815 
L 160.317548 34.982996 
L 160.480118 40.587132 
L 160.641038 38.805778 
L 160.958057 32.658603 
L 161.114221 35.124811 
L 161.26886 42.137592 
L 161.422006 38.843044 
L 161.573686 42.014059 
L 161.723928 77.579982 
L 162.020207 38.378447 
L 162.166295 37.085574 
L 162.311049 33.452151 
L 162.454493 37.398563 
L 162.596651 44.819813 
L 162.737544 34.543775 
L 162.877197 33.815258 
L 163.01563 33.811031 
L 163.423818 38.688985 
L 163.690219 52.531445 
L 163.952215 35.638164 
L 164.081608 41.802305 
L 164.337266 42.898958 
L 164.463565 38.203192 
L 164.588865 40.537081 
L 164.713183 36.548382 
L 164.836534 36.496481 
L 164.958931 39.139648 
L 165.080391 47.324424 
L 165.200928 41.323953 
L 165.320554 49.897581 
L 165.439285 47.950354 
L 165.557133 81.691545 
L 165.790232 63.285596 
L 165.905508 58.89614 
L 166.133576 36.153837 
L 166.358409 51.268017 
L 166.469641 42.622945 
L 166.580097 70.046935 
L 166.798727 40.691278 
L 166.906922 52.713362 
L 167.014383 43.186373 
L 167.121121 47.062178 
L 167.227144 46.604067 
L 167.437087 40.165147 
L 167.541025 37.405253 
L 167.644285 38.832271 
L 167.84881 61.61876 
L 168.150732 41.124728 
L 168.250109 42.904007 
L 168.348866 42.539292 
L 168.447011 49.083371 
L 168.544553 63.842113 
L 168.737853 51.078293 
L 168.833627 49.971532 
L 169.023455 39.711219 
L 169.117523 39.896714 
L 169.211036 39.438604 
L 169.48831 53.692305 
L 169.579668 44.021205 
L 169.670501 44.578654 
L 169.760818 49.221605 
L 169.850622 43.451331 
L 169.939921 44.063599 
L 170.117023 50.598355 
L 170.204837 45.706196 
L 170.292167 60.015801 
L 170.379019 44.02862 
L 170.465398 44.919743 
L 170.551309 49.659463 
L 170.721745 75.528708 
L 170.890369 46.224727 
L 171.139987 61.810885 
L 171.222327 51.993838 
L 171.304242 53.496179 
L 171.385735 50.474716 
L 171.466812 51.273353 
L 171.547476 60.780468 
L 171.707583 45.932166 
L 171.787034 49.801337 
L 171.866089 42.201674 
L 172.023025 58.397351 
L 172.100915 57.758173 
L 172.178423 54.520075 
L 172.255554 46.338221 
L 172.4087 57.00916 
L 172.484721 49.78484 
L 172.56038 67.631662 
L 172.710622 41.601425 
L 172.859454 51.152885 
L 172.933349 46.399758 
L 173.006901 47.274233 
L 173.080113 71.269124 
L 173.225531 48.617475 
L 173.369627 47.685419 
L 173.512425 41.995504 
L 173.583345 44.309125 
L 173.653948 51.809609 
L 173.794218 44.431873 
L 173.863891 51.393185 
L 173.933258 48.314558 
L 174.002323 48.854226 
L 174.071089 59.174474 
L 174.139558 44.887075 
L 174.207732 45.913211 
L 174.410512 65.168913 
L 174.610731 48.462221 
L 174.676912 51.483916 
L 174.808452 43.781748 
L 174.938909 45.237923 
L 175.196646 59.748385 
L 175.26043 48.942019 
L 175.323959 54.08661 
L 175.387235 49.347639 
L 175.513033 68.595948 
L 175.575559 62.691019 
L 175.699877 50.142269 
L 175.761672 62.487418 
L 175.823227 46.920901 
L 175.884545 51.055683 
L 175.945625 84.392462 
L 176.006472 68.507925 
L 176.067085 82.835131 
L 176.307248 46.030048 
L 176.366725 46.538692 
L 176.485012 44.084943 
L 176.602423 56.022956 
L 176.660804 45.101322 
L 176.718971 46.445276 
L 176.776925 47.860357 
L 176.892202 71.334317 
L 176.949527 67.362517 
L 177.12027 45.186826 
L 177.233085 49.294485 
L 177.289193 47.211777 
L 177.345103 48.729366 
L 177.400816 59.736064 
L 177.456334 53.163403 
L 177.511659 51.856379 
L 177.566791 80.246469 
L 177.621732 54.54087 
L 177.676483 53.776376 
L 177.731046 55.022426 
L 177.785421 47.5465 
L 177.893616 47.842859 
L 178.160915 95.217161 
L 178.213838 79.872682 
L 178.371555 49.474821 
L 178.423781 50.133346 
L 178.527718 78.976151 
L 178.579433 64.517091 
L 178.630979 49.148138 
L 178.733571 49.59289 
L 178.78462 52.629603 
L 178.835504 72.480879 
L 178.886225 61.637212 
L 178.936785 47.37167 
L 178.987184 49.318973 
L 179.037423 64.750101 
L 179.087504 62.795102 
L 179.236802 52.249292 
L 179.286258 68.942986 
L 179.335559 60.818053 
L 179.384708 57.756185 
L 179.433705 63.910896 
L 179.482551 61.241673 
L 179.531246 60.331184 
L 179.579793 63.009912 
L 179.628191 52.877958 
L 179.724547 55.185327 
L 179.772506 49.439395 
L 179.82032 49.545556 
L 179.867991 53.296435 
L 179.915519 71.482531 
L 179.962904 61.663702 
L 180.010148 52.989681 
L 180.057252 72.630212 
L 180.104217 52.672892 
L 180.151042 54.07187 
L 180.19773 60.928657 
L 180.24428 55.297276 
L 180.290695 50.306276 
L 180.383117 52.224924 
L 180.475004 50.533817 
L 180.520749 53.041409 
L 180.566362 52.60252 
L 180.702418 48.630042 
L 180.747512 55.029619 
L 180.837316 79.856311 
L 180.926615 54.043552 
L 180.971076 57.516178 
L 181.059626 50.617182 
L 181.103716 52.584834 
L 181.147684 52.684105 
L 181.235256 60.822974 
L 181.278861 48.492516 
L 181.365713 51.587823 
L 181.408961 49.67914 
L 181.452092 51.323537 
L 181.538002 64.836692 
L 181.580784 49.393218 
L 181.62345 52.580595 
L 181.750763 66.663287 
L 181.792975 53.305253 
L 181.877062 53.536383 
L 181.918939 67.283911 
L 181.960706 52.303996 
L 182.002363 48.867963 
L 182.08535 50.715118 
L 182.167904 69.412529 
L 182.209021 59.879336 
L 182.250031 50.776373 
L 182.290936 50.965958 
L 182.331735 57.350538 
L 182.372429 50.801974 
L 182.413019 52.762421 
L 182.53417 60.965704 
L 182.574349 60.697654 
L 182.614426 56.642953 
L 182.654401 68.428067 
L 182.694277 53.95432 
L 182.734052 65.16646 
L 182.813305 53.493309 
L 182.852783 58.842619 
L 182.892163 69.195019 
L 182.931445 63.902849 
L 182.97063 56.293184 
L 183.009719 74.918956 
L 183.048712 61.499925 
L 183.087608 50.803703 
L 183.12641 55.924507 
L 183.165117 66.337371 
L 183.203729 50.598605 
L 183.242248 53.113517 
L 183.319006 83.157384 
L 183.395394 76.383731 
L 183.50929 50.799363 
L 183.547074 57.160436 
L 183.584768 66.926449 
L 183.622373 52.742322 
L 183.697316 54.320469 
L 183.809071 64.154891 
L 183.846148 53.051866 
L 183.883138 56.1664 
L 183.920043 65.102935 
L 183.956862 50.903797 
L 183.993595 50.028475 
L 184.030243 54.182767 
L 184.066807 72.02846 
L 184.139683 60.201436 
L 184.212225 51.736518 
L 184.248372 59.923773 
L 184.356321 86.121749 
L 184.32042 56.64638 
L 184.392141 75.216988 
L 184.499119 55.577129 
L 184.534618 65.83914 
L 184.570038 112.348929 
L 184.605379 63.513888 
L 184.640642 52.744523 
L 184.710932 57.34033 
L 184.745961 71.932211 
L 184.780912 60.017804 
L 184.885306 52.006725 
L 185.023437 74.25832 
L 185.057783 67.743815 
L 185.092054 52.135616 
L 185.160375 65.610194 
L 185.262308 51.696243 
L 185.29614 54.232612 
L 185.363589 52.627002 
L 185.430752 64.757461 
L 185.464227 68.098474 
L 185.530966 67.526068 
L 185.63055 52.252939 
L 185.597425 67.932663 
L 185.696594 59.811348 
L 185.729513 60.568119 
L 185.795146 53.899197 
L 185.860509 56.67544 
L 185.893089 57.461659 
L 185.925603 64.885806 
L 185.990431 55.063034 
L 186.054995 54.108266 
L 186.119297 60.433551 
L 186.151351 57.449869 
L 186.18334 64.17042 
L 186.215264 87.932437 
L 186.278921 57.773509 
L 186.342323 84.241135 
L 186.373929 70.158848 
L 186.436952 52.591413 
L 186.468371 59.130135 
L 186.499727 69.286077 
L 186.562253 68.18033 
L 186.624534 55.091961 
L 186.686571 59.122732 
L 186.717499 90.56419 
L 186.779174 64.023096 
L 186.809921 57.556502 
L 186.84061 66.785441 
L 186.901808 58.441897 
L 186.932319 57.490271 
L 186.962772 61.819251 
L 187.023501 55.322058 
L 187.083999 59.590066 
L 187.144267 58.827867 
L 187.174315 66.44147 
L 187.234242 53.765299 
L 187.293942 55.813942 
L 187.323708 61.180455 
L 187.353419 96.500026 
L 187.412673 58.883307 
L 187.442217 73.598497 
L 187.559846 61.878549 
L 187.589117 91.510853 
L 187.647498 61.407111 
L 187.676608 68.450881 
L 187.821362 54.83376 
L 187.878896 62.054971 
L 187.907584 86.198289 
L 187.964806 60.129286 
L 187.99334 76.311311 
L 188.106964 56.440705 
L 188.135243 58.088047 
L 188.163472 74.884795 
L 188.219779 54.822117 
L 188.247858 53.898432 
L 188.275887 53.960094 
L 188.415294 80.096061 
L 188.443028 74.806481 
L 188.498353 54.435523 
L 188.580979 58.424705 
L 188.608426 53.828282 
L 188.690482 56.670548 
L 188.85333 93.087678 
L 188.772115 54.74968 
L 188.88031 79.057871 
L 189.067891 56.446372 
L 189.094508 61.734345 
L 189.121081 71.436616 
L 189.174092 57.978154 
L 189.200532 69.74847 
L 189.279587 54.707621 
L 189.305851 59.253078 
L 189.332072 78.779311 
L 189.410475 61.252217 
L 189.462529 71.149182 
L 189.514412 59.48793 
L 189.540291 69.14411 
L 189.566127 71.060104 
L 189.694679 55.786712 
L 189.720265 56.891739 
L 189.847579 86.749899 
L 189.898219 71.132692 
L 189.923479 62.023175 
L 189.948698 72.923244 
L 189.999017 71.321271 
L 190.049177 77.36037 
L 190.173886 60.01523 
L 190.223496 88.164297 
L 190.272952 70.375567 
L 190.346847 60.419824 
L 190.322253 81.826038 
L 190.371402 61.949338 
L 190.395919 75.481015 
L 190.469245 62.476463 
L 190.542232 76.822531 
L 190.566487 60.181565 
L 190.590705 62.917355 
L 190.614885 56.546831 
L 190.639029 56.656835 
L 190.663136 56.665416 
L 190.687207 55.347915 
L 190.735239 58.063915 
L 190.783125 79.410482 
L 190.830868 74.311143 
L 190.878467 56.954103 
L 190.925923 81.10556 
L 190.949598 67.141715 
L 190.973238 85.951362 
L 191.020412 57.921602 
L 191.043946 67.904089 
L 191.090911 70.900691 
L 191.137736 57.413535 
L 191.161097 64.935964 
L 191.184424 93.210001 
L 191.254198 58.885694 
L 191.277389 56.310925 
L 191.300545 61.441087 
L 191.323667 75.57024 
L 191.392833 66.425889 
L 191.461698 61.509146 
L 191.553055 75.175643 
L 191.575813 64.703762 
L 191.598537 57.407946 
L 191.643889 60.61822 
L 191.711675 88.318662 
L 191.756704 69.177815 
L 191.779171 65.372945 
L 191.801606 70.853744 
L 191.82401 78.190575 
L 191.868722 59.427526 
L 191.95777 64.713843 
L 191.979954 82.435813 
L 192.04632 62.516869 
L 192.06838 63.593748 
L 192.11241 76.321558 
L 192.156317 66.085694 
L 192.178225 56.668711 
L 192.265555 62.918862 
L 192.287313 62.018623 
L 192.352407 91.231017 
L 192.395655 68.984099 
L 192.438786 59.420411 
L 192.481799 63.824318 
L 192.567478 86.248455 
L 192.588825 65.694529 
L 192.610144 57.545643 
L 192.652695 73.015402 
L 192.695133 60.610785 
L 192.716309 60.933408 
L 192.737457 63.484796 
L 192.779669 58.003168 
L 192.821768 63.215693 
L 192.863756 57.518665 
L 192.905633 69.403181 
L 192.92653 71.303228 
L 192.9474 57.791446 
L 192.989057 93.21412 
L 193.030605 63.853354 
L 193.051338 93.528309 
L 193.092723 58.320952 
L 193.134 76.49396 
L 193.17517 65.048125 
L 193.195715 110.974545 
L 193.236725 61.718772 
L 193.27763 78.007733 
L 193.298042 77.925195 
L 193.379431 61.617464 
L 193.338789 79.086403 
L 193.399713 64.220827 
L 193.460404 96.314318 
L 193.500736 62.07568 
L 193.601119 58.610403 
L 193.720746 80.914403 
L 193.760422 58.254812 
L 193.839477 63.953974 
L 193.89851 58.500989 
L 193.937744 70.782842 
L 194.015921 60.203797 
L 194.035405 71.701783 
L 194.054866 81.86375 
L 194.113104 61.851287 
L 194.132469 71.395657 
L 194.151811 73.726316 
L 194.190423 58.337778 
L 194.267367 60.593954 
L 194.363025 58.208095 
L 194.401127 74.168988 
L 194.477058 78.29376 
L 194.514887 59.760713 
L 194.571462 79.754492 
L 194.646583 72.139233 
L 194.758601 62.388853 
L 194.68401 82.284851 
L 194.777193 62.421202 
L 194.832842 60.678564 
L 194.925157 76.179829 
L 194.961933 83.34862 
L 195.053501 60.892991 
L 195.071752 59.583502 
L 195.108189 64.581844 
L 195.126377 62.602229 
L 195.198919 103.797532 
L 195.253109 74.396191 
L 195.271131 75.364338 
L 195.360935 59.412306 
L 195.343015 75.49632 
L 195.378835 64.937951 
L 195.468033 88.119336 
L 195.414575 61.403232 
L 195.521312 82.553591 
L 195.627336 60.054705 
L 195.644938 63.835941 
L 195.71515 86.826087 
L 195.767606 78.863205 
L 195.785053 86.059468 
L 195.802481 68.395116 
L 195.854649 70.791532 
L 195.958473 59.992254 
L 195.923941 75.776493 
L 195.975711 64.530415 
L 195.992931 78.780499 
L 196.027313 61.075604 
L 196.078748 70.191005 
L 196.130016 61.047061 
L 196.164103 75.656393 
L 196.198117 63.661296 
L 196.232058 61.322161 
L 196.249002 64.100737 
L 196.333447 76.567327 
L 196.299723 61.21323 
L 196.350283 70.712874 
L 196.434192 60.248695 
L 196.400682 72.658282 
L 196.450921 66.589601 
L 196.484325 62.99378 
L 196.584119 84.595995 
L 196.666803 60.588389 
L 196.699756 65.134788 
L 196.73264 85.402287 
L 196.78184 64.35303 
L 196.814555 69.174674 
L 196.863501 60.575076 
L 196.896049 70.820272 
L 196.912297 63.677643 
L 197.00944 92.305245 
L 197.025573 68.335055 
L 197.057789 60.537532 
L 197.08994 75.50365 
L 197.122026 62.319461 
L 197.170034 71.982582 
L 197.217896 62.707245 
L 197.233818 61.166179 
L 197.281489 66.117804 
L 197.297347 73.151875 
L 197.31319 61.24487 
L 197.376402 71.666163 
L 197.455064 62.089736 
L 197.47075 63.93593 
L 197.48642 78.429859 
L 197.517714 61.06783 
L 197.580118 67.920522 
L 197.642277 81.098515 
L 197.611228 61.35106 
L 197.688736 73.445431 
L 197.765867 62.594215 
L 197.750471 74.850027 
L 197.781249 67.161068 
L 197.873225 87.417945 
L 197.888502 69.931393 
L 197.903765 62.030019 
L 197.96467 81.477057 
L 197.995035 65.557 
L 198.010195 74.453464 
L 198.040473 61.93133 
L 198.100856 63.992254 
L 198.191001 101.056911 
L 198.130961 61.594418 
L 198.220936 69.873737 
L 198.280636 61.489335 
L 198.265732 79.062234 
L 198.295526 68.079797 
L 198.310402 109.658105 
L 198.354947 67.565234 
L 198.399366 68.416297 
L 198.502531 89.994882 
L 198.428911 61.82652 
L 198.517214 71.674078 
L 198.605029 62.467794 
L 198.575811 84.322422 
L 198.634192 66.307326 
L 198.648754 67.415982 
L 198.706868 83.294348 
L 198.735845 64.478651 
L 198.764769 79.240906 
L 198.836849 62.781839 
L 198.79364 86.538272 
L 198.894278 66.984222 
L 198.908603 61.876645 
L 198.937214 89.186097 
L 198.965774 72.076547 
L 198.980034 91.566077 
L 199.036948 65.495924 
L 199.079499 84.733461 
L 199.121937 92.134512 
L 199.206473 61.939719 
L 199.220518 62.091696 
L 199.332437 69.881594 
L 199.415861 62.687275 
L 199.443571 69.103284 
L 199.526414 63.374979 
L 199.553932 77.453706 
L 199.59512 63.754481 
L 199.677176 66.161775 
L 199.690811 66.24578 
L 199.799469 101.708007 
L 199.812999 95.08913 
L 199.840024 64.768982 
L 199.934252 68.447053 
L 200.04126 97.234335 
L 200.067899 77.034539 
L 200.160786 66.16786 
L 200.094494 90.756542 
L 200.174011 68.27124 
L 200.213621 105.696639 
L 200.253132 67.561895 
L 200.279418 71.772223 
L 200.292545 66.681886 
L 200.344943 85.00996 
L 200.371077 68.648133 
L 200.462209 106.12959 
L 200.436225 68.399377 
L 200.488151 76.221356 
L 200.565723 63.855491 
L 200.578615 70.738403 
L 200.591496 89.063506 
L 200.630077 64.120879 
L 200.694171 85.083808 
L 200.745261 69.007097 
L 200.719737 86.702648 
L 200.770744 77.890998 
L 200.78347 109.843746 
L 200.808892 64.342091 
L 200.872268 65.057957 
L 200.884913 64.617642 
L 200.897548 64.626151 
L 201.023346 91.581318 
L 201.035871 74.245347 
L 201.048386 63.765413 
L 201.073387 74.427705 
L 201.135717 72.646225 
L 201.172997 63.955253 
L 201.247296 98.019588 
L 201.370359 64.895129 
L 201.394858 80.487034 
L 201.504634 74.414055 
L 201.528926 65.555503 
L 201.565294 90.81511 
L 201.613656 71.445128 
L 201.64983 82.036658 
L 201.685922 68.89908 
L 201.697935 64.639506 
L 201.721932 81.455692 
L 201.745894 70.431098 
L 201.757861 123.553286 
L 201.841379 64.807812 
L 201.853274 67.430064 
L 201.888906 66.74272 
L 201.912617 74.041495 
L 201.924459 98.94686 
L 201.971738 69.773768 
L 202.018877 80.059805 
L 202.065876 119.401203 
L 202.089324 67.516915 
L 202.12443 85.126045 
L 202.19441 66.973689 
L 202.171118 118.791968 
L 202.240892 74.787289 
L 202.252492 66.626479 
L 202.275665 88.25381 
L 202.310361 86.752239 
L 202.32191 100.977541 
L 202.36802 65.993032 
L 202.402515 67.023891 
L 202.42547 74.073945 
L 202.436935 71.410743 
L 202.459841 108.171311 
L 202.528358 67.560304 
L 202.539749 71.201369 
L 202.607923 93.499873 
L 202.596581 71.075562 
L 202.65321 73.139201 
L 202.743398 66.20736 
L 202.709638 93.928786 
L 202.754636 70.673768 
L 202.866574 110.19353 
L 202.84425 65.916739 
L 202.877725 92.165513 
L 202.944464 65.343699 
L 202.900002 120.183083 
L 202.999866 76.584472 
L 203.055074 98.690612 
L 203.088108 67.793885 
L 203.099103 72.065486 
L 203.197724 66.63898 
L 203.153968 83.508175 
L 203.208644 71.948402 
L 203.252249 89.493614 
L 203.284874 66.515309 
L 203.306587 80.759684 
L 203.317433 66.20391 
L 203.339101 114.211367 
L 203.414708 71.057952 
L 203.42548 72.020221 
L 203.436244 65.563462 
L 203.447001 70.860857 
L 203.500677 87.588132 
L 203.479228 67.212789 
L 203.554171 69.578997 
L 203.564849 67.437538 
L 203.596838 72.701481 
L 203.607486 104.460319 
L 203.639389 68.071701 
L 203.703003 82.231602 
L 203.81897 65.876692 
L 203.82947 70.184681 
L 203.839964 85.328387 
L 203.913224 67.092956 
L 203.934094 69.492291 
L 203.944518 70.167281 
L 203.954936 70.164026 
L 203.975751 96.967037 
L 204.058738 79.951085 
L 204.130996 69.976341 
L 204.100069 94.381436 
L 204.161864 72.980293 
L 204.17214 89.749784 
L 204.202927 69.04853 
L 204.264324 75.388227 
L 204.366125 67.767579 
L 204.355974 85.23718 
L 204.376269 72.458558 
L 204.436999 99.014502 
L 204.497497 93.992312 
L 204.507558 71.903411 
L 204.547736 98.661935 
L 204.617805 73.499519 
L 204.627789 89.437806 
L 204.70744 69.850656 
L 204.72729 81.314238 
L 204.81631 66.072913 
L 204.786692 96.696273 
L 204.836025 76.112028 
L 204.86555 106.717989 
L 204.973344 96.906068 
L 204.983107 97.60635 
L 205.109483 66.894146 
L 205.119163 70.943708 
L 205.215636 70.405135 
L 205.244464 87.657831 
L 205.292394 69.081285 
L 205.368782 79.922416 
L 205.397332 71.05094 
L 205.473217 92.880369 
L 205.511024 71.242964 
L 205.586368 75.490854 
L 205.595761 92.893175 
L 205.670704 67.244973 
L 205.689385 75.336096 
L 205.717364 81.924552 
L 205.763887 94.260984 
L 205.791736 68.932121 
L 205.819536 75.166803 
L 205.838042 77.366094 
L 205.847287 117.759765 
L 205.930249 67.356369 
L 205.948627 84.826975 
L 205.957807 87.587999 
L 205.976153 70.06924 
L 206.003631 78.874855 
L 206.094883 67.9694 
L 206.058445 87.864899 
L 206.10398 72.096275 
L 206.149383 85.836085 
L 206.185613 69.495917 
L 206.212731 74.537878 
L 206.22176 73.793033 
L 206.230784 93.425347 
L 206.257825 67.854131 
L 206.329709 79.846743 
L 206.356582 96.125787 
L 206.374472 71.446854 
L 206.436928 95.077163 
L 206.508006 69.12676 
L 206.552269 79.409194 
L 206.675551 68.054381 
L 206.578767 86.559057 
L 206.68432 68.911267 
L 206.728094 98.626426 
L 206.771747 68.315728 
L 206.806583 77.7158 
L 206.858694 68.317168 
L 206.823972 87.222963 
L 206.90199 75.113548 
L 206.910634 85.092415 
L 206.962405 69.941394 
L 207.005419 80.70899 
L 207.031171 70.99321 
L 207.065442 88.952585 
L 207.11671 76.731033 
L 207.125239 76.700223 
L 207.142282 77.907963 
L 207.150797 75.775031 
L 207.159308 94.570652 
L 207.210274 69.534887 
L 207.261077 79.690872 
L 207.303288 69.022511 
L 207.328561 99.487244 
L 207.378987 74.685296 
L 207.504354 97.21609 
L 207.420886 69.112749 
L 207.512676 87.790002 
L 207.554224 70.332679 
L 207.5791 109.357263 
L 207.620475 74.918666 
L 207.71112 69.21365 
L 207.727545 92.542472 
L 207.801249 69.409187 
L 207.842048 74.4169 
L 207.95573 108.633698 
L 207.866477 69.635987 
L 207.963819 97.095616 
L 208.092685 69.467424 
L 208.172698 103.36403 
L 208.20459 72.970311 
L 208.252308 95.514171 
L 208.284041 71.59526 
L 208.307799 72.927077 
L 208.31571 71.112366 
L 208.339421 76.359472 
L 208.386736 97.421959 
L 208.426057 72.581489 
L 208.449603 92.300045 
L 208.512222 72.631519 
L 208.535641 103.915229 
L 208.551234 77.433593 
L 208.559025 100.053524 
L 208.582374 69.803643 
L 208.652217 73.18367 
" style="fill:none;stroke:#000000;stroke-linecap:square;stroke-width:0.8;"/>
   </g>
   <g id="line2d_50">
    <path clip-path="url(#pc2b4d3e531)" d="M 62.296013 26.293235 
L 106.242788 26.401737 
L 116.726251 26.692265 
L 122.981697 27.140858 
L 127.455208 27.715178 
L 130.94008 28.381002 
L 134.64298 29.357812 
L 137.642551 30.383492 
L 140.736078 31.674049 
L 144.250504 33.419584 
L 147.859314 35.488458 
L 151.946021 38.104917 
L 156.902706 41.559136 
L 163.584195 46.511706 
L 174.0161 54.557318 
L 198.133969 73.51587 
L 208.653766 81.811238 
L 208.653766 81.811238 
" style="fill:none;stroke:#ff0000;stroke-linecap:square;stroke-width:2;"/>
   </g>
   <g id="patch_3">
    <path d="M 54.978125 128.92249 
L 54.978125 10.8 
" style="fill:none;stroke:#000000;stroke-linecap:square;stroke-linejoin:miter;stroke-width:0.8;"/>
   </g>
   <g id="patch_4">
    <path d="M 215.971654 128.92249 
L 215.971654 10.8 
" style="fill:none;stroke:#000000;stroke-linecap:square;stroke-linejoin:miter;stroke-width:0.8;"/>
   </g>
   <g id="patch_5">
    <path d="M 54.978125 128.92249 
L 215.971654 128.92249 
" style="fill:none;stroke:#000000;stroke-linecap:square;stroke-linejoin:miter;stroke-width:0.8;"/>
   </g>
   <g id="patch_6">
    <path d="M 54.978125 10.8 
L 215.971654 10.8 
" style="fill:none;stroke:#000000;stroke-linecap:square;stroke-linejoin:miter;stroke-width:0.8;"/>
   </g>
   <g id="legend_1">
    <g id="patch_7">
     <path d="M 61.978125 123.92249 
L 143.371875 123.92249 
Q 145.371875 123.92249 145.371875 121.92249 
L 145.371875 93.56624 
Q 145.371875 91.56624 143.371875 91.56624 
L 61.978125 91.56624 
Q 59.978125 91.56624 59.978125 93.56624 
L 59.978125 121.92249 
Q 59.978125 123.92249 61.978125 123.92249 
z
" style="fill:#ffffff;opacity:0.8;stroke:#cccccc;stroke-linejoin:miter;"/>
    </g>
    <g id="line2d_51">
     <path d="M 63.978125 99.664678 
L 83.978125 99.664678 
" style="fill:none;stroke:#000000;stroke-linecap:square;stroke-width:0.8;"/>
    </g>
    <g id="line2d_52"/>
    <g id="text_10">
     <!-- simulated -->
     <defs>
      <path d="M 9.421875 54.6875 
L 18.40625 54.6875 
L 18.40625 0 
L 9.421875 0 
z
M 9.421875 75.984375 
L 18.40625 75.984375 
L 18.40625 64.59375 
L 9.421875 64.59375 
z
" id="DejaVuSans-105"/>
      <path d="M 8.5 21.578125 
L 8.5 54.6875 
L 17.484375 54.6875 
L 17.484375 21.921875 
Q 17.484375 14.15625 20.5 10.265625 
Q 23.53125 6.390625 29.59375 6.390625 
Q 36.859375 6.390625 41.078125 11.03125 
Q 45.3125 15.671875 45.3125 23.6875 
L 45.3125 54.6875 
L 54.296875 54.6875 
L 54.296875 0 
L 45.3125 0 
L 45.3125 8.40625 
Q 42.046875 3.421875 37.71875 1 
Q 33.40625 -1.421875 27.6875 -1.421875 
Q 18.265625 -1.421875 13.375 4.4375 
Q 8.5 10.296875 8.5 21.578125 
z
M 31.109375 56 
z
" id="DejaVuSans-117"/>
      <path d="M 9.421875 75.984375 
L 18.40625 75.984375 
L 18.40625 0 
L 9.421875 0 
z
" id="DejaVuSans-108"/>
      <path d="M 34.28125 27.484375 
Q 23.390625 27.484375 19.1875 25 
Q 14.984375 22.515625 14.984375 16.5 
Q 14.984375 11.71875 18.140625 8.90625 
Q 21.296875 6.109375 26.703125 6.109375 
Q 34.1875 6.109375 38.703125 11.40625 
Q 43.21875 16.703125 43.21875 25.484375 
L 43.21875 27.484375 
z
M 52.203125 31.203125 
L 52.203125 0 
L 43.21875 0 
L 43.21875 8.296875 
Q 40.140625 3.328125 35.546875 0.953125 
Q 30.953125 -1.421875 24.3125 -1.421875 
Q 15.921875 -1.421875 10.953125 3.296875 
Q 6 8.015625 6 15.921875 
Q 6 25.140625 12.171875 29.828125 
Q 18.359375 34.515625 30.609375 34.515625 
L 43.21875 34.515625 
L 43.21875 35.40625 
Q 43.21875 41.609375 39.140625 45 
Q 35.0625 48.390625 27.6875 48.390625 
Q 23 48.390625 18.546875 47.265625 
Q 14.109375 46.140625 10.015625 43.890625 
L 10.015625 52.203125 
Q 14.9375 54.109375 19.578125 55.046875 
Q 24.21875 56 28.609375 56 
Q 40.484375 56 46.34375 49.84375 
Q 52.203125 43.703125 52.203125 31.203125 
z
" id="DejaVuSans-97"/>
      <path d="M 18.3125 70.21875 
L 18.3125 54.6875 
L 36.8125 54.6875 
L 36.8125 47.703125 
L 18.3125 47.703125 
L 18.3125 18.015625 
Q 18.3125 11.328125 20.140625 9.421875 
Q 21.96875 7.515625 27.59375 7.515625 
L 36.8125 7.515625 
L 36.8125 0 
L 27.59375 0 
Q 17.1875 0 13.234375 3.875 
Q 9.28125 7.765625 9.28125 18.015625 
L 9.28125 47.703125 
L 2.6875 47.703125 
L 2.6875 54.6875 
L 9.28125 54.6875 
L 9.28125 70.21875 
z
" id="DejaVuSans-116"/>
      <path d="M 56.203125 29.59375 
L 56.203125 25.203125 
L 14.890625 25.203125 
Q 15.484375 15.921875 20.484375 11.0625 
Q 25.484375 6.203125 34.421875 6.203125 
Q 39.59375 6.203125 44.453125 7.46875 
Q 49.3125 8.734375 54.109375 11.28125 
L 54.109375 2.78125 
Q 49.265625 0.734375 44.1875 -0.34375 
Q 39.109375 -1.421875 33.890625 -1.421875 
Q 20.796875 -1.421875 13.15625 6.1875 
Q 5.515625 13.8125 5.515625 26.8125 
Q 5.515625 40.234375 12.765625 48.109375 
Q 20.015625 56 32.328125 56 
Q 43.359375 56 49.78125 48.890625 
Q 56.203125 41.796875 56.203125 29.59375 
z
M 47.21875 32.234375 
Q 47.125 39.59375 43.09375 43.984375 
Q 39.0625 48.390625 32.421875 48.390625 
Q 24.90625 48.390625 20.390625 44.140625 
Q 15.875 39.890625 15.1875 32.171875 
z
" id="DejaVuSans-101"/>
      <path d="M 45.40625 46.390625 
L 45.40625 75.984375 
L 54.390625 75.984375 
L 54.390625 0 
L 45.40625 0 
L 45.40625 8.203125 
Q 42.578125 3.328125 38.25 0.953125 
Q 33.9375 -1.421875 27.875 -1.421875 
Q 17.96875 -1.421875 11.734375 6.484375 
Q 5.515625 14.40625 5.515625 27.296875 
Q 5.515625 40.1875 11.734375 48.09375 
Q 17.96875 56 27.875 56 
Q 33.9375 56 38.25 53.625 
Q 42.578125 51.265625 45.40625 46.390625 
z
M 14.796875 27.296875 
Q 14.796875 17.390625 18.875 11.75 
Q 22.953125 6.109375 30.078125 6.109375 
Q 37.203125 6.109375 41.296875 11.75 
Q 45.40625 17.390625 45.40625 27.296875 
Q 45.40625 37.203125 41.296875 42.84375 
Q 37.203125 48.484375 30.078125 48.484375 
Q 22.953125 48.484375 18.875 42.84375 
Q 14.796875 37.203125 14.796875 27.296875 
z
" id="DejaVuSans-100"/>
     </defs>
     <g transform="translate(91.978125 103.164678)scale(0.1 -0.1)">
      <use xlink:href="#DejaVuSans-115"/>
      <use x="52.099609" xlink:href="#DejaVuSans-105"/>
      <use x="79.882812" xlink:href="#DejaVuSans-109"/>
      <use x="177.294922" xlink:href="#DejaVuSans-117"/>
      <use x="240.673828" xlink:href="#DejaVuSans-108"/>
      <use x="268.457031" xlink:href="#DejaVuSans-97"/>
      <use x="329.736328" xlink:href="#DejaVuSans-116"/>
      <use x="368.945312" xlink:href="#DejaVuSans-101"/>
      <use x="430.46875" xlink:href="#DejaVuSans-100"/>
     </g>
    </g>
    <g id="line2d_53">
     <path d="M 63.978125 114.342803 
L 83.978125 114.342803 
" style="fill:none;stroke:#ff0000;stroke-linecap:square;stroke-width:2;"/>
    </g>
    <g id="line2d_54"/>
    <g id="text_11">
     <!-- target -->
     <defs>
      <path d="M 41.109375 46.296875 
Q 39.59375 47.171875 37.8125 47.578125 
Q 36.03125 48 33.890625 48 
Q 26.265625 48 22.1875 43.046875 
Q 18.109375 38.09375 18.109375 28.8125 
L 18.109375 0 
L 9.078125 0 
L 9.078125 54.6875 
L 18.109375 54.6875 
L 18.109375 46.1875 
Q 20.953125 51.171875 25.484375 53.578125 
Q 30.03125 56 36.53125 56 
Q 37.453125 56 38.578125 55.875 
Q 39.703125 55.765625 41.0625 55.515625 
z
" id="DejaVuSans-114"/>
      <path d="M 45.40625 27.984375 
Q 45.40625 37.75 41.375 43.109375 
Q 37.359375 48.484375 30.078125 48.484375 
Q 22.859375 48.484375 18.828125 43.109375 
Q 14.796875 37.75 14.796875 27.984375 
Q 14.796875 18.265625 18.828125 12.890625 
Q 22.859375 7.515625 30.078125 7.515625 
Q 37.359375 7.515625 41.375 12.890625 
Q 45.40625 18.265625 45.40625 27.984375 
z
M 54.390625 6.78125 
Q 54.390625 -7.171875 48.1875 -13.984375 
Q 42 -20.796875 29.203125 -20.796875 
Q 24.46875 -20.796875 20.265625 -20.09375 
Q 16.0625 -19.390625 12.109375 -17.921875 
L 12.109375 -9.1875 
Q 16.0625 -11.328125 19.921875 -12.34375 
Q 23.78125 -13.375 27.78125 -13.375 
Q 36.625 -13.375 41.015625 -8.765625 
Q 45.40625 -4.15625 45.40625 5.171875 
L 45.40625 9.625 
Q 42.625 4.78125 38.28125 2.390625 
Q 33.9375 0 27.875 0 
Q 17.828125 0 11.671875 7.65625 
Q 5.515625 15.328125 5.515625 27.984375 
Q 5.515625 40.671875 11.671875 48.328125 
Q 17.828125 56 27.875 56 
Q 33.9375 56 38.28125 53.609375 
Q 42.625 51.21875 45.40625 46.390625 
L 45.40625 54.6875 
L 54.390625 54.6875 
z
" id="DejaVuSans-103"/>
     </defs>
     <g transform="translate(91.978125 117.842803)scale(0.1 -0.1)">
      <use xlink:href="#DejaVuSans-116"/>
      <use x="39.208984" xlink:href="#DejaVuSans-97"/>
      <use x="100.488281" xlink:href="#DejaVuSans-114"/>
      <use x="141.585938" xlink:href="#DejaVuSans-103"/>
      <use x="205.0625" xlink:href="#DejaVuSans-101"/>
      <use x="266.585938" xlink:href="#DejaVuSans-116"/>
     </g>
    </g>
   </g>
  </g>
 </g>
 <defs>
  <clipPath id="pc2b4d3e531">
   <rect height="118.12249" width="160.993529" x="54.978125" y="10.8"/>
  </clipPath>
 </defs>
</svg>
