<?xml version="1.0" encoding="utf-8" standalone="no"?>
<!DOCTYPE svg PUBLIC "-//W3C//DTD SVG 1.1//EN"
  "http://www.w3.org/Graphics/SVG/1.1/DTD/svg11.dtd">
<!-- Created with matplotlib (https://matplotlib.org/) -->
<svg height="170.07874pt" version="1.1" viewBox="0 0 226.771654 170.07874" width="226.771654pt" xmlns="http://www.w3.org/2000/svg" xmlns:xlink="http://www.w3.org/1999/xlink">
 <defs>
  <style type="text/css">
*{stroke-linecap:butt;stroke-linejoin:round;}
  </style>
 </defs>
 <g id="figure_1">
  <g id="patch_1">
   <path d="M 0 170.07874 
L 226.771654 170.07874 
L 226.771654 0 
L 0 0 
z
" style="fill:#ffffff;"/>
  </g>
  <g id="axes_1">
   <g id="patch_2">
    <path d="M 54.978125 128.92249 
L 215.971654 128.92249 
L 215.971654 10.8 
L 54.978125 10.8 
z
" style="fill:#ffffff;"/>
   </g>
   <g id="matplotlib.axis_1">
    <g id="xtick_1">
     <g id="line2d_1">
      <path clip-path="url(#p4627c7ff29)" d="M 85.1978 128.92249 
L 85.1978 10.8 
" style="fill:none;stroke:#b0b0b0;stroke-linecap:square;stroke-width:0.8;"/>
     </g>
     <g id="line2d_2">
      <defs>
       <path d="M 0 0 
L 0 3.5 
" id="mfd0e3000de" style="stroke:#000000;stroke-width:0.8;"/>
      </defs>
      <g>
       <use style="stroke:#000000;stroke-width:0.8;" x="85.1978" xlink:href="#mfd0e3000de" y="128.92249"/>
      </g>
     </g>
     <g id="text_1">
      <!-- $\mathdefault{10^{-3}}$ -->
      <defs>
       <path d="M 12.40625 8.296875 
L 28.515625 8.296875 
L 28.515625 63.921875 
L 10.984375 60.40625 
L 10.984375 69.390625 
L 28.421875 72.90625 
L 38.28125 72.90625 
L 38.28125 8.296875 
L 54.390625 8.296875 
L 54.390625 0 
L 12.40625 0 
z
" id="DejaVuSans-49"/>
       <path d="M 31.78125 66.40625 
Q 24.171875 66.40625 20.328125 58.90625 
Q 16.5 51.421875 16.5 36.375 
Q 16.5 21.390625 20.328125 13.890625 
Q 24.171875 6.390625 31.78125 6.390625 
Q 39.453125 6.390625 43.28125 13.890625 
Q 47.125 21.390625 47.125 36.375 
Q 47.125 51.421875 43.28125 58.90625 
Q 39.453125 66.40625 31.78125 66.40625 
z
M 31.78125 74.21875 
Q 44.046875 74.21875 50.515625 64.515625 
Q 56.984375 54.828125 56.984375 36.375 
Q 56.984375 17.96875 50.515625 8.265625 
Q 44.046875 -1.421875 31.78125 -1.421875 
Q 19.53125 -1.421875 13.0625 8.265625 
Q 6.59375 17.96875 6.59375 36.375 
Q 6.59375 54.828125 13.0625 64.515625 
Q 19.53125 74.21875 31.78125 74.21875 
z
" id="DejaVuSans-48"/>
       <path d="M 10.59375 35.5 
L 73.1875 35.5 
L 73.1875 27.203125 
L 10.59375 27.203125 
z
" id="DejaVuSans-8722"/>
       <path d="M 40.578125 39.3125 
Q 47.65625 37.796875 51.625 33 
Q 55.609375 28.21875 55.609375 21.1875 
Q 55.609375 10.40625 48.1875 4.484375 
Q 40.765625 -1.421875 27.09375 -1.421875 
Q 22.515625 -1.421875 17.65625 -0.515625 
Q 12.796875 0.390625 7.625 2.203125 
L 7.625 11.71875 
Q 11.71875 9.328125 16.59375 8.109375 
Q 21.484375 6.890625 26.8125 6.890625 
Q 36.078125 6.890625 40.9375 10.546875 
Q 45.796875 14.203125 45.796875 21.1875 
Q 45.796875 27.640625 41.28125 31.265625 
Q 36.765625 34.90625 28.71875 34.90625 
L 20.21875 34.90625 
L 20.21875 43.015625 
L 29.109375 43.015625 
Q 36.375 43.015625 40.234375 45.921875 
Q 44.09375 48.828125 44.09375 54.296875 
Q 44.09375 59.90625 40.109375 62.90625 
Q 36.140625 65.921875 28.71875 65.921875 
Q 24.65625 65.921875 20.015625 65.03125 
Q 15.375 64.15625 9.8125 62.3125 
L 9.8125 71.09375 
Q 15.4375 72.65625 20.34375 73.4375 
Q 25.25 74.21875 29.59375 74.21875 
Q 40.828125 74.21875 47.359375 69.109375 
Q 53.90625 64.015625 53.90625 55.328125 
Q 53.90625 49.265625 50.4375 45.09375 
Q 46.96875 40.921875 40.578125 39.3125 
z
" id="DejaVuSans-51"/>
      </defs>
      <g transform="translate(73.4478 143.520928)scale(0.1 -0.1)">
       <use transform="translate(0 0.765625)" xlink:href="#DejaVuSans-49"/>
       <use transform="translate(63.623047 0.765625)" xlink:href="#DejaVuSans-48"/>
       <use transform="translate(128.203125 39.046875)scale(0.7)" xlink:href="#DejaVuSans-8722"/>
       <use transform="translate(186.855469 39.046875)scale(0.7)" xlink:href="#DejaVuSans-51"/>
      </g>
     </g>
    </g>
    <g id="xtick_2">
     <g id="line2d_3">
      <path clip-path="url(#p4627c7ff29)" d="M 122.597026 128.92249 
L 122.597026 10.8 
" style="fill:none;stroke:#b0b0b0;stroke-linecap:square;stroke-width:0.8;"/>
     </g>
     <g id="line2d_4">
      <g>
       <use style="stroke:#000000;stroke-width:0.8;" x="122.597026" xlink:href="#mfd0e3000de" y="128.92249"/>
      </g>
     </g>
     <g id="text_2">
      <!-- $\mathdefault{10^{-2}}$ -->
      <defs>
       <path d="M 19.1875 8.296875 
L 53.609375 8.296875 
L 53.609375 0 
L 7.328125 0 
L 7.328125 8.296875 
Q 12.9375 14.109375 22.625 23.890625 
Q 32.328125 33.6875 34.8125 36.53125 
Q 39.546875 41.84375 41.421875 45.53125 
Q 43.3125 49.21875 43.3125 52.78125 
Q 43.3125 58.59375 39.234375 62.25 
Q 35.15625 65.921875 28.609375 65.921875 
Q 23.96875 65.921875 18.8125 64.3125 
Q 13.671875 62.703125 7.8125 59.421875 
L 7.8125 69.390625 
Q 13.765625 71.78125 18.9375 73 
Q 24.125 74.21875 28.421875 74.21875 
Q 39.75 74.21875 46.484375 68.546875 
Q 53.21875 62.890625 53.21875 53.421875 
Q 53.21875 48.921875 51.53125 44.890625 
Q 49.859375 40.875 45.40625 35.40625 
Q 44.1875 33.984375 37.640625 27.21875 
Q 31.109375 20.453125 19.1875 8.296875 
z
" id="DejaVuSans-50"/>
      </defs>
      <g transform="translate(110.847026 143.520928)scale(0.1 -0.1)">
       <use transform="translate(0 0.765625)" xlink:href="#DejaVuSans-49"/>
       <use transform="translate(63.623047 0.765625)" xlink:href="#DejaVuSans-48"/>
       <use transform="translate(128.203125 39.046875)scale(0.7)" xlink:href="#DejaVuSans-8722"/>
       <use transform="translate(186.855469 39.046875)scale(0.7)" xlink:href="#DejaVuSans-50"/>
      </g>
     </g>
    </g>
    <g id="xtick_3">
     <g id="line2d_5">
      <path clip-path="url(#p4627c7ff29)" d="M 159.996252 128.92249 
L 159.996252 10.8 
" style="fill:none;stroke:#b0b0b0;stroke-linecap:square;stroke-width:0.8;"/>
     </g>
     <g id="line2d_6">
      <g>
       <use style="stroke:#000000;stroke-width:0.8;" x="159.996252" xlink:href="#mfd0e3000de" y="128.92249"/>
      </g>
     </g>
     <g id="text_3">
      <!-- $\mathdefault{10^{-1}}$ -->
      <g transform="translate(148.246252 143.520928)scale(0.1 -0.1)">
       <use transform="translate(0 0.684375)" xlink:href="#DejaVuSans-49"/>
       <use transform="translate(63.623047 0.684375)" xlink:href="#DejaVuSans-48"/>
       <use transform="translate(128.203125 38.965625)scale(0.7)" xlink:href="#DejaVuSans-8722"/>
       <use transform="translate(186.855469 38.965625)scale(0.7)" xlink:href="#DejaVuSans-49"/>
      </g>
     </g>
    </g>
    <g id="xtick_4">
     <g id="line2d_7">
      <path clip-path="url(#p4627c7ff29)" d="M 197.395477 128.92249 
L 197.395477 10.8 
" style="fill:none;stroke:#b0b0b0;stroke-linecap:square;stroke-width:0.8;"/>
     </g>
     <g id="line2d_8">
      <g>
       <use style="stroke:#000000;stroke-width:0.8;" x="197.395477" xlink:href="#mfd0e3000de" y="128.92249"/>
      </g>
     </g>
     <g id="text_4">
      <!-- $\mathdefault{10^{0}}$ -->
      <g transform="translate(188.595477 143.520928)scale(0.1 -0.1)">
       <use transform="translate(0 0.765625)" xlink:href="#DejaVuSans-49"/>
       <use transform="translate(63.623047 0.765625)" xlink:href="#DejaVuSans-48"/>
       <use transform="translate(128.203125 39.046875)scale(0.7)" xlink:href="#DejaVuSans-48"/>
      </g>
     </g>
    </g>
    <g id="xtick_5">
     <g id="line2d_9">
      <defs>
       <path d="M 0 0 
L 0 2 
" id="m151cbdb553" style="stroke:#000000;stroke-width:0.6;"/>
      </defs>
      <g>
       <use style="stroke:#000000;stroke-width:0.6;" x="59.056864" xlink:href="#m151cbdb553" y="128.92249"/>
      </g>
     </g>
    </g>
    <g id="xtick_6">
     <g id="line2d_10">
      <g>
       <use style="stroke:#000000;stroke-width:0.6;" x="65.64254" xlink:href="#m151cbdb553" y="128.92249"/>
      </g>
     </g>
    </g>
    <g id="xtick_7">
     <g id="line2d_11">
      <g>
       <use style="stroke:#000000;stroke-width:0.6;" x="70.315152" xlink:href="#m151cbdb553" y="128.92249"/>
      </g>
     </g>
    </g>
    <g id="xtick_8">
     <g id="line2d_12">
      <g>
       <use style="stroke:#000000;stroke-width:0.6;" x="73.939512" xlink:href="#m151cbdb553" y="128.92249"/>
      </g>
     </g>
    </g>
    <g id="xtick_9">
     <g id="line2d_13">
      <g>
       <use style="stroke:#000000;stroke-width:0.6;" x="76.900829" xlink:href="#m151cbdb553" y="128.92249"/>
      </g>
     </g>
    </g>
    <g id="xtick_10">
     <g id="line2d_14">
      <g>
       <use style="stroke:#000000;stroke-width:0.6;" x="79.404587" xlink:href="#m151cbdb553" y="128.92249"/>
      </g>
     </g>
    </g>
    <g id="xtick_11">
     <g id="line2d_15">
      <g>
       <use style="stroke:#000000;stroke-width:0.6;" x="81.573441" xlink:href="#m151cbdb553" y="128.92249"/>
      </g>
     </g>
    </g>
    <g id="xtick_12">
     <g id="line2d_16">
      <g>
       <use style="stroke:#000000;stroke-width:0.6;" x="83.486506" xlink:href="#m151cbdb553" y="128.92249"/>
      </g>
     </g>
    </g>
    <g id="xtick_13">
     <g id="line2d_17">
      <g>
       <use style="stroke:#000000;stroke-width:0.6;" x="96.456089" xlink:href="#m151cbdb553" y="128.92249"/>
      </g>
     </g>
    </g>
    <g id="xtick_14">
     <g id="line2d_18">
      <g>
       <use style="stroke:#000000;stroke-width:0.6;" x="103.041766" xlink:href="#m151cbdb553" y="128.92249"/>
      </g>
     </g>
    </g>
    <g id="xtick_15">
     <g id="line2d_19">
      <g>
       <use style="stroke:#000000;stroke-width:0.6;" x="107.714378" xlink:href="#m151cbdb553" y="128.92249"/>
      </g>
     </g>
    </g>
    <g id="xtick_16">
     <g id="line2d_20">
      <g>
       <use style="stroke:#000000;stroke-width:0.6;" x="111.338737" xlink:href="#m151cbdb553" y="128.92249"/>
      </g>
     </g>
    </g>
    <g id="xtick_17">
     <g id="line2d_21">
      <g>
       <use style="stroke:#000000;stroke-width:0.6;" x="114.300055" xlink:href="#m151cbdb553" y="128.92249"/>
      </g>
     </g>
    </g>
    <g id="xtick_18">
     <g id="line2d_22">
      <g>
       <use style="stroke:#000000;stroke-width:0.6;" x="116.803813" xlink:href="#m151cbdb553" y="128.92249"/>
      </g>
     </g>
    </g>
    <g id="xtick_19">
     <g id="line2d_23">
      <g>
       <use style="stroke:#000000;stroke-width:0.6;" x="118.972667" xlink:href="#m151cbdb553" y="128.92249"/>
      </g>
     </g>
    </g>
    <g id="xtick_20">
     <g id="line2d_24">
      <g>
       <use style="stroke:#000000;stroke-width:0.6;" x="120.885731" xlink:href="#m151cbdb553" y="128.92249"/>
      </g>
     </g>
    </g>
    <g id="xtick_21">
     <g id="line2d_25">
      <g>
       <use style="stroke:#000000;stroke-width:0.6;" x="133.855315" xlink:href="#m151cbdb553" y="128.92249"/>
      </g>
     </g>
    </g>
    <g id="xtick_22">
     <g id="line2d_26">
      <g>
       <use style="stroke:#000000;stroke-width:0.6;" x="140.440991" xlink:href="#m151cbdb553" y="128.92249"/>
      </g>
     </g>
    </g>
    <g id="xtick_23">
     <g id="line2d_27">
      <g>
       <use style="stroke:#000000;stroke-width:0.6;" x="145.113603" xlink:href="#m151cbdb553" y="128.92249"/>
      </g>
     </g>
    </g>
    <g id="xtick_24">
     <g id="line2d_28">
      <g>
       <use style="stroke:#000000;stroke-width:0.6;" x="148.737963" xlink:href="#m151cbdb553" y="128.92249"/>
      </g>
     </g>
    </g>
    <g id="xtick_25">
     <g id="line2d_29">
      <g>
       <use style="stroke:#000000;stroke-width:0.6;" x="151.69928" xlink:href="#m151cbdb553" y="128.92249"/>
      </g>
     </g>
    </g>
    <g id="xtick_26">
     <g id="line2d_30">
      <g>
       <use style="stroke:#000000;stroke-width:0.6;" x="154.203038" xlink:href="#m151cbdb553" y="128.92249"/>
      </g>
     </g>
    </g>
    <g id="xtick_27">
     <g id="line2d_31">
      <g>
       <use style="stroke:#000000;stroke-width:0.6;" x="156.371892" xlink:href="#m151cbdb553" y="128.92249"/>
      </g>
     </g>
    </g>
    <g id="xtick_28">
     <g id="line2d_32">
      <g>
       <use style="stroke:#000000;stroke-width:0.6;" x="158.284957" xlink:href="#m151cbdb553" y="128.92249"/>
      </g>
     </g>
    </g>
    <g id="xtick_29">
     <g id="line2d_33">
      <g>
       <use style="stroke:#000000;stroke-width:0.6;" x="171.25454" xlink:href="#m151cbdb553" y="128.92249"/>
      </g>
     </g>
    </g>
    <g id="xtick_30">
     <g id="line2d_34">
      <g>
       <use style="stroke:#000000;stroke-width:0.6;" x="177.840217" xlink:href="#m151cbdb553" y="128.92249"/>
      </g>
     </g>
    </g>
    <g id="xtick_31">
     <g id="line2d_35">
      <g>
       <use style="stroke:#000000;stroke-width:0.6;" x="182.512829" xlink:href="#m151cbdb553" y="128.92249"/>
      </g>
     </g>
    </g>
    <g id="xtick_32">
     <g id="line2d_36">
      <g>
       <use style="stroke:#000000;stroke-width:0.6;" x="186.137188" xlink:href="#m151cbdb553" y="128.92249"/>
      </g>
     </g>
    </g>
    <g id="xtick_33">
     <g id="line2d_37">
      <g>
       <use style="stroke:#000000;stroke-width:0.6;" x="189.098506" xlink:href="#m151cbdb553" y="128.92249"/>
      </g>
     </g>
    </g>
    <g id="xtick_34">
     <g id="line2d_38">
      <g>
       <use style="stroke:#000000;stroke-width:0.6;" x="191.602264" xlink:href="#m151cbdb553" y="128.92249"/>
      </g>
     </g>
    </g>
    <g id="xtick_35">
     <g id="line2d_39">
      <g>
       <use style="stroke:#000000;stroke-width:0.6;" x="193.771118" xlink:href="#m151cbdb553" y="128.92249"/>
      </g>
     </g>
    </g>
    <g id="xtick_36">
     <g id="line2d_40">
      <g>
       <use style="stroke:#000000;stroke-width:0.6;" x="195.684182" xlink:href="#m151cbdb553" y="128.92249"/>
      </g>
     </g>
    </g>
    <g id="xtick_37">
     <g id="line2d_41">
      <g>
       <use style="stroke:#000000;stroke-width:0.6;" x="208.653766" xlink:href="#m151cbdb553" y="128.92249"/>
      </g>
     </g>
    </g>
    <g id="xtick_38">
     <g id="line2d_42">
      <g>
       <use style="stroke:#000000;stroke-width:0.6;" x="215.239443" xlink:href="#m151cbdb553" y="128.92249"/>
      </g>
     </g>
    </g>
    <g id="text_5">
     <!-- f (Hz) -->
     <defs>
      <path d="M 37.109375 75.984375 
L 37.109375 68.5 
L 28.515625 68.5 
Q 23.6875 68.5 21.796875 66.546875 
Q 19.921875 64.59375 19.921875 59.515625 
L 19.921875 54.6875 
L 34.71875 54.6875 
L 34.71875 47.703125 
L 19.921875 47.703125 
L 19.921875 0 
L 10.890625 0 
L 10.890625 47.703125 
L 2.296875 47.703125 
L 2.296875 54.6875 
L 10.890625 54.6875 
L 10.890625 58.5 
Q 10.890625 67.625 15.140625 71.796875 
Q 19.390625 75.984375 28.609375 75.984375 
z
" id="DejaVuSans-102"/>
      <path id="DejaVuSans-32"/>
      <path d="M 31 75.875 
Q 24.46875 64.65625 21.28125 53.65625 
Q 18.109375 42.671875 18.109375 31.390625 
Q 18.109375 20.125 21.3125 9.0625 
Q 24.515625 -2 31 -13.1875 
L 23.1875 -13.1875 
Q 15.875 -1.703125 12.234375 9.375 
Q 8.59375 20.453125 8.59375 31.390625 
Q 8.59375 42.28125 12.203125 53.3125 
Q 15.828125 64.359375 23.1875 75.875 
z
" id="DejaVuSans-40"/>
      <path d="M 9.8125 72.90625 
L 19.671875 72.90625 
L 19.671875 43.015625 
L 55.515625 43.015625 
L 55.515625 72.90625 
L 65.375 72.90625 
L 65.375 0 
L 55.515625 0 
L 55.515625 34.71875 
L 19.671875 34.71875 
L 19.671875 0 
L 9.8125 0 
z
" id="DejaVuSans-72"/>
      <path d="M 5.515625 54.6875 
L 48.1875 54.6875 
L 48.1875 46.484375 
L 14.40625 7.171875 
L 48.1875 7.171875 
L 48.1875 0 
L 4.296875 0 
L 4.296875 8.203125 
L 38.09375 47.515625 
L 5.515625 47.515625 
z
" id="DejaVuSans-122"/>
      <path d="M 8.015625 75.875 
L 15.828125 75.875 
Q 23.140625 64.359375 26.78125 53.3125 
Q 30.421875 42.28125 30.421875 31.390625 
Q 30.421875 20.453125 26.78125 9.375 
Q 23.140625 -1.703125 15.828125 -13.1875 
L 8.015625 -13.1875 
Q 14.5 -2 17.703125 9.0625 
Q 20.90625 20.125 20.90625 31.390625 
Q 20.90625 42.671875 17.703125 53.65625 
Q 14.5 64.65625 8.015625 75.875 
z
" id="DejaVuSans-41"/>
     </defs>
     <g transform="translate(121.839733 157.199053)scale(0.1 -0.1)">
      <use xlink:href="#DejaVuSans-102"/>
      <use x="35.205078" xlink:href="#DejaVuSans-32"/>
      <use x="66.992188" xlink:href="#DejaVuSans-40"/>
      <use x="106.005859" xlink:href="#DejaVuSans-72"/>
      <use x="181.201172" xlink:href="#DejaVuSans-122"/>
      <use x="233.691406" xlink:href="#DejaVuSans-41"/>
     </g>
    </g>
   </g>
   <g id="matplotlib.axis_2">
    <g id="ytick_1">
     <g id="line2d_43">
      <path clip-path="url(#p4627c7ff29)" d="M 54.978125 114.56656 
L 215.971654 114.56656 
" style="fill:none;stroke:#b0b0b0;stroke-linecap:square;stroke-width:0.8;"/>
     </g>
     <g id="line2d_44">
      <defs>
       <path d="M 0 0 
L -3.5 0 
" id="m305318f592" style="stroke:#000000;stroke-width:0.8;"/>
      </defs>
      <g>
       <use style="stroke:#000000;stroke-width:0.8;" x="54.978125" xlink:href="#m305318f592" y="114.56656"/>
      </g>
     </g>
     <g id="text_6">
      <!-- $\mathdefault{10^{-4}}$ -->
      <defs>
       <path d="M 37.796875 64.3125 
L 12.890625 25.390625 
L 37.796875 25.390625 
z
M 35.203125 72.90625 
L 47.609375 72.90625 
L 47.609375 25.390625 
L 58.015625 25.390625 
L 58.015625 17.1875 
L 47.609375 17.1875 
L 47.609375 0 
L 37.796875 0 
L 37.796875 17.1875 
L 4.890625 17.1875 
L 4.890625 26.703125 
z
" id="DejaVuSans-52"/>
      </defs>
      <g transform="translate(24.478125 118.365779)scale(0.1 -0.1)">
       <use transform="translate(0 0.684375)" xlink:href="#DejaVuSans-49"/>
       <use transform="translate(63.623047 0.684375)" xlink:href="#DejaVuSans-48"/>
       <use transform="translate(128.203125 38.965625)scale(0.7)" xlink:href="#DejaVuSans-8722"/>
       <use transform="translate(186.855469 38.965625)scale(0.7)" xlink:href="#DejaVuSans-52"/>
      </g>
     </g>
    </g>
    <g id="ytick_2">
     <g id="line2d_45">
      <path clip-path="url(#p4627c7ff29)" d="M 54.978125 87.930218 
L 215.971654 87.930218 
" style="fill:none;stroke:#b0b0b0;stroke-linecap:square;stroke-width:0.8;"/>
     </g>
     <g id="line2d_46">
      <g>
       <use style="stroke:#000000;stroke-width:0.8;" x="54.978125" xlink:href="#m305318f592" y="87.930218"/>
      </g>
     </g>
     <g id="text_7">
      <!-- $\mathdefault{10^{-2}}$ -->
      <g transform="translate(24.478125 91.729437)scale(0.1 -0.1)">
       <use transform="translate(0 0.765625)" xlink:href="#DejaVuSans-49"/>
       <use transform="translate(63.623047 0.765625)" xlink:href="#DejaVuSans-48"/>
       <use transform="translate(128.203125 39.046875)scale(0.7)" xlink:href="#DejaVuSans-8722"/>
       <use transform="translate(186.855469 39.046875)scale(0.7)" xlink:href="#DejaVuSans-50"/>
      </g>
     </g>
    </g>
    <g id="ytick_3">
     <g id="line2d_47">
      <path clip-path="url(#p4627c7ff29)" d="M 54.978125 61.293876 
L 215.971654 61.293876 
" style="fill:none;stroke:#b0b0b0;stroke-linecap:square;stroke-width:0.8;"/>
     </g>
     <g id="line2d_48">
      <g>
       <use style="stroke:#000000;stroke-width:0.8;" x="54.978125" xlink:href="#m305318f592" y="61.293876"/>
      </g>
     </g>
     <g id="text_8">
      <!-- $\mathdefault{10^{0}}$ -->
      <g transform="translate(30.378125 65.093095)scale(0.1 -0.1)">
       <use transform="translate(0 0.765625)" xlink:href="#DejaVuSans-49"/>
       <use transform="translate(63.623047 0.765625)" xlink:href="#DejaVuSans-48"/>
       <use transform="translate(128.203125 39.046875)scale(0.7)" xlink:href="#DejaVuSans-48"/>
      </g>
     </g>
    </g>
    <g id="ytick_4">
     <g id="line2d_49">
      <path clip-path="url(#p4627c7ff29)" d="M 54.978125 34.657535 
L 215.971654 34.657535 
" style="fill:none;stroke:#b0b0b0;stroke-linecap:square;stroke-width:0.8;"/>
     </g>
     <g id="line2d_50">
      <g>
       <use style="stroke:#000000;stroke-width:0.8;" x="54.978125" xlink:href="#m305318f592" y="34.657535"/>
      </g>
     </g>
     <g id="text_9">
      <!-- $\mathdefault{10^{2}}$ -->
      <g transform="translate(30.378125 38.456754)scale(0.1 -0.1)">
       <use transform="translate(0 0.765625)" xlink:href="#DejaVuSans-49"/>
       <use transform="translate(63.623047 0.765625)" xlink:href="#DejaVuSans-48"/>
       <use transform="translate(128.203125 39.046875)scale(0.7)" xlink:href="#DejaVuSans-50"/>
      </g>
     </g>
    </g>
    <g id="text_10">
     <!-- S(f) (m^2/s) -->
     <defs>
      <path d="M 53.515625 70.515625 
L 53.515625 60.890625 
Q 47.90625 63.578125 42.921875 64.890625 
Q 37.9375 66.21875 33.296875 66.21875 
Q 25.25 66.21875 20.875 63.09375 
Q 16.5 59.96875 16.5 54.203125 
Q 16.5 49.359375 19.40625 46.890625 
Q 22.3125 44.4375 30.421875 42.921875 
L 36.375 41.703125 
Q 47.40625 39.59375 52.65625 34.296875 
Q 57.90625 29 57.90625 20.125 
Q 57.90625 9.515625 50.796875 4.046875 
Q 43.703125 -1.421875 29.984375 -1.421875 
Q 24.8125 -1.421875 18.96875 -0.25 
Q 13.140625 0.921875 6.890625 3.21875 
L 6.890625 13.375 
Q 12.890625 10.015625 18.65625 8.296875 
Q 24.421875 6.59375 29.984375 6.59375 
Q 38.421875 6.59375 43.015625 9.90625 
Q 47.609375 13.234375 47.609375 19.390625 
Q 47.609375 24.75 44.3125 27.78125 
Q 41.015625 30.8125 33.5 32.328125 
L 27.484375 33.5 
Q 16.453125 35.6875 11.515625 40.375 
Q 6.59375 45.0625 6.59375 53.421875 
Q 6.59375 63.09375 13.40625 68.65625 
Q 20.21875 74.21875 32.171875 74.21875 
Q 37.3125 74.21875 42.625 73.28125 
Q 47.953125 72.359375 53.515625 70.515625 
z
" id="DejaVuSans-83"/>
      <path d="M 52 44.1875 
Q 55.375 50.25 60.0625 53.125 
Q 64.75 56 71.09375 56 
Q 79.640625 56 84.28125 50.015625 
Q 88.921875 44.046875 88.921875 33.015625 
L 88.921875 0 
L 79.890625 0 
L 79.890625 32.71875 
Q 79.890625 40.578125 77.09375 44.375 
Q 74.3125 48.1875 68.609375 48.1875 
Q 61.625 48.1875 57.5625 43.546875 
Q 53.515625 38.921875 53.515625 30.90625 
L 53.515625 0 
L 44.484375 0 
L 44.484375 32.71875 
Q 44.484375 40.625 41.703125 44.40625 
Q 38.921875 48.1875 33.109375 48.1875 
Q 26.21875 48.1875 22.15625 43.53125 
Q 18.109375 38.875 18.109375 30.90625 
L 18.109375 0 
L 9.078125 0 
L 9.078125 54.6875 
L 18.109375 54.6875 
L 18.109375 46.1875 
Q 21.1875 51.21875 25.484375 53.609375 
Q 29.78125 56 35.6875 56 
Q 41.65625 56 45.828125 52.96875 
Q 50 49.953125 52 44.1875 
z
" id="DejaVuSans-109"/>
      <path d="M 46.6875 72.90625 
L 73.1875 45.703125 
L 63.375 45.703125 
L 41.890625 64.984375 
L 20.40625 45.703125 
L 10.59375 45.703125 
L 37.109375 72.90625 
z
" id="DejaVuSans-94"/>
      <path d="M 25.390625 72.90625 
L 33.6875 72.90625 
L 8.296875 -9.28125 
L 0 -9.28125 
z
" id="DejaVuSans-47"/>
      <path d="M 44.28125 53.078125 
L 44.28125 44.578125 
Q 40.484375 46.53125 36.375 47.5 
Q 32.28125 48.484375 27.875 48.484375 
Q 21.1875 48.484375 17.84375 46.4375 
Q 14.5 44.390625 14.5 40.28125 
Q 14.5 37.15625 16.890625 35.375 
Q 19.28125 33.59375 26.515625 31.984375 
L 29.59375 31.296875 
Q 39.15625 29.25 43.1875 25.515625 
Q 47.21875 21.78125 47.21875 15.09375 
Q 47.21875 7.46875 41.1875 3.015625 
Q 35.15625 -1.421875 24.609375 -1.421875 
Q 20.21875 -1.421875 15.453125 -0.5625 
Q 10.6875 0.296875 5.421875 2 
L 5.421875 11.28125 
Q 10.40625 8.6875 15.234375 7.390625 
Q 20.0625 6.109375 24.8125 6.109375 
Q 31.15625 6.109375 34.5625 8.28125 
Q 37.984375 10.453125 37.984375 14.40625 
Q 37.984375 18.0625 35.515625 20.015625 
Q 33.0625 21.96875 24.703125 23.78125 
L 21.578125 24.515625 
Q 13.234375 26.265625 9.515625 29.90625 
Q 5.8125 33.546875 5.8125 39.890625 
Q 5.8125 47.609375 11.28125 51.796875 
Q 16.75 56 26.8125 56 
Q 31.78125 56 36.171875 55.265625 
Q 40.578125 54.546875 44.28125 53.078125 
z
" id="DejaVuSans-115"/>
     </defs>
     <g transform="translate(18.398437 100.718276)rotate(-90)scale(0.1 -0.1)">
      <use xlink:href="#DejaVuSans-83"/>
      <use x="63.476562" xlink:href="#DejaVuSans-40"/>
      <use x="102.490234" xlink:href="#DejaVuSans-102"/>
      <use x="137.695312" xlink:href="#DejaVuSans-41"/>
      <use x="176.708984" xlink:href="#DejaVuSans-32"/>
      <use x="208.496094" xlink:href="#DejaVuSans-40"/>
      <use x="247.509766" xlink:href="#DejaVuSans-109"/>
      <use x="344.921875" xlink:href="#DejaVuSans-94"/>
      <use x="428.710938" xlink:href="#DejaVuSans-50"/>
      <use x="492.333984" xlink:href="#DejaVuSans-47"/>
      <use x="526.025391" xlink:href="#DejaVuSans-115"/>
      <use x="578.125" xlink:href="#DejaVuSans-41"/>
     </g>
    </g>
   </g>
   <g id="line2d_51">
    <path clip-path="url(#p4627c7ff29)" d="M 62.296013 35.424166 
L 73.554301 42.575513 
L 80.139978 42.897705 
L 84.81259 25.824033 
L 88.43695 20.813226 
L 91.398267 18.516667 
L 93.902025 19.197844 
L 96.070879 29.283395 
L 97.983944 16.803111 
L 99.695238 16.208468 
L 102.656556 25.50991 
L 103.956631 19.634505 
L 105.160314 28.590755 
L 106.280915 41.395478 
L 107.329167 36.834398 
L 108.313849 25.293742 
L 109.242232 38.160162 
L 110.120407 36.932134 
L 110.953527 27.474692 
L 111.74599 24.274448 
L 112.501581 18.060585 
L 113.223579 18.953261 
L 113.914844 16.497606 
L 114.577886 16.169204 
L 115.827909 24.676632 
L 116.418602 24.833994 
L 116.988565 41.911647 
L 117.539204 23.528751 
L 118.071785 18.632873 
L 118.587456 22.806586 
L 119.087258 30.837776 
L 119.572138 18.762913 
L 120.042962 23.254926 
L 120.500521 46.439045 
L 120.945543 41.7517 
L 121.378696 22.577665 
L 121.800597 22.578408 
L 122.211816 24.796321 
L 122.61288 34.919769 
L 123.004279 23.512688 
L 123.386468 20.586476 
L 123.75987 23.647486 
L 124.12488 35.809242 
L 124.481868 28.522487 
L 124.831178 30.979904 
L 125.173133 37.412629 
L 125.508037 37.88197 
L 125.836175 29.508434 
L 126.157815 29.472351 
L 126.473209 23.308224 
L 126.782595 34.556277 
L 127.086198 53.901914 
L 127.384229 32.440777 
L 127.676891 22.336886 
L 127.964372 24.676289 
L 128.246854 28.105792 
L 128.524506 34.301567 
L 128.797492 50.618698 
L 129.065966 32.862957 
L 129.330074 23.050808 
L 129.589956 26.345885 
L 129.845745 53.018229 
L 130.097568 28.968846 
L 130.345547 24.017426 
L 130.830427 31.035227 
L 131.067545 32.881046 
L 131.30125 33.461915 
L 131.531641 26.198431 
L 131.75881 24.557455 
L 131.982845 28.424668 
L 132.203831 40.328379 
L 132.421852 28.840811 
L 132.636984 26.975038 
L 133.058885 28.644412 
L 133.265796 28.98903 
L 133.470104 35.035326 
L 133.671874 34.724921 
L 133.871169 25.179512 
L 134.068047 28.131226 
L 134.262568 65.522457 
L 134.454786 29.920075 
L 134.832531 26.015648 
L 135.018159 27.414426 
L 135.201689 30.392795 
L 135.383169 29.38137 
L 135.562644 25.502121 
L 135.740157 24.403524 
L 135.91575 27.113508 
L 136.089466 37.277362 
L 136.431422 28.71147 
L 136.766326 31.848897 
L 136.931223 30.790451 
L 137.094464 28.452508 
L 137.416104 30.65719 
L 137.574566 31.262322 
L 137.731497 38.073985 
L 137.886927 34.648814 
L 138.040884 67.792323 
L 138.344486 35.502848 
L 138.642518 26.654144 
L 138.93518 37.261229 
L 139.222661 26.285397 
L 139.364516 25.924237 
L 139.644562 34.718262 
L 139.782795 32.200262 
L 139.919862 34.260845 
L 140.055781 48.224058 
L 140.324255 29.301125 
L 140.588362 34.951777 
L 140.718823 34.186983 
L 140.848244 35.406147 
L 140.976643 33.534878 
L 141.104034 29.371635 
L 141.230433 29.228133 
L 141.355857 31.49611 
L 141.480319 38.757272 
L 141.603835 35.660713 
L 141.726419 42.593048 
L 141.848085 36.210348 
L 141.968846 42.362572 
L 142.207707 38.193401 
L 142.325833 42.768284 
L 142.443107 39.365634 
L 142.559539 32.729512 
L 142.78993 40.268984 
L 142.903911 35.397098 
L 143.017098 46.713909 
L 143.241133 34.071548 
L 143.352003 37.295137 
L 143.46212 38.023601 
L 143.571496 36.606452 
L 143.680141 40.333138 
L 143.788063 39.326598 
L 144.00178 30.925966 
L 144.107594 33.483005 
L 144.317174 47.703939 
L 144.62656 36.019633 
L 144.728393 40.298429 
L 144.829591 34.638876 
L 144.930163 44.101789 
L 145.030116 42.170359 
L 145.129457 45.789869 
L 145.228195 55.81241 
L 145.423887 42.120414 
L 145.61725 34.093093 
L 145.808338 32.964676 
L 145.997204 40.809517 
L 146.090819 36.993934 
L 146.183899 38.148361 
L 146.276447 54.124742 
L 146.459978 32.572514 
L 146.550971 34.502481 
L 146.641458 40.526916 
L 146.731443 39.18355 
L 146.820932 39.614533 
L 146.909931 32.913609 
L 147.08648 39.588823 
L 147.174039 54.597883 
L 147.261129 50.801495 
L 147.433921 34.340182 
L 147.68971 46.222576 
L 147.774086 40.422112 
L 147.858026 51.523361 
L 148.189512 34.695999 
L 148.271337 36.564156 
L 148.352752 41.380939 
L 148.433762 35.544343 
L 148.753817 45.273326 
L 148.832855 43.491887 
L 148.91151 56.582729 
L 149.067687 38.56471 
L 149.145216 49.333759 
L 149.222376 45.080492 
L 149.299172 38.683962 
L 149.451683 50.335447 
L 149.602775 37.867572 
L 149.677797 46.213605 
L 149.752475 39.991098 
L 149.82681 41.974865 
L 149.974468 48.248668 
L 150.193468 44.377794 
L 150.337845 43.451155 
L 150.409555 51.087572 
L 150.622805 39.650002 
L 150.69327 38.97078 
L 150.763431 33.131946 
L 150.833291 35.488412 
L 150.902851 56.147254 
L 150.972114 49.128328 
L 151.041084 48.989393 
L 151.109762 50.026559 
L 151.31407 37.146999 
L 151.381605 46.220519 
L 151.51584 33.949092 
L 151.648974 46.217486 
L 151.781026 39.568219 
L 151.846651 52.608602 
L 151.912013 50.567649 
L 152.041951 38.652548 
L 152.106533 41.007441 
L 152.234931 48.158221 
L 152.425645 41.111724 
L 152.488722 36.076981 
L 152.614146 49.160696 
L 152.676496 43.622731 
L 152.738608 44.807409 
L 152.862124 53.095065 
L 152.984708 41.145678 
L 153.045655 47.898256 
L 153.106374 39.44952 
L 153.166866 39.85857 
L 153.227135 50.965746 
L 153.28718 43.153404 
L 153.347004 35.170193 
L 153.406609 39.398769 
L 153.642864 60.332502 
L 153.817828 36.743138 
L 153.875733 37.96238 
L 153.933432 37.513025 
L 154.048219 36.804882 
L 154.1622 48.428547 
L 154.218892 40.339886 
L 154.275387 67.056686 
L 154.331686 52.823239 
L 154.499422 36.964094 
L 154.554951 40.510418 
L 154.665443 46.445661 
L 154.775189 45.726878 
L 154.884198 78.353471 
L 155.046352 36.416673 
L 155.153562 39.611096 
L 155.260069 51.57959 
L 155.365882 40.484548 
L 155.418531 46.761071 
L 155.471011 44.498884 
L 155.523321 43.068514 
L 155.575463 48.990727 
L 155.627438 48.03326 
L 155.679248 39.230684 
L 155.730893 40.669807 
L 155.833692 46.354326 
L 155.884849 64.175424 
L 155.935845 60.179632 
L 155.986682 59.524563 
L 156.03736 70.922985 
L 156.188452 49.625943 
L 156.338151 42.149769 
L 156.387746 40.055081 
L 156.486484 53.154105 
L 156.633474 37.701625 
L 156.682176 45.689747 
L 156.730733 42.391273 
L 156.779145 40.177415 
L 156.827413 51.772488 
L 156.875539 48.367747 
L 156.923522 47.281351 
L 156.971364 59.026565 
L 157.019065 58.266482 
L 157.255492 40.033784 
L 157.302368 43.839885 
L 157.349108 41.283893 
L 157.395714 38.724418 
L 157.442187 40.810577 
L 157.580814 46.80994 
L 157.626761 47.032396 
L 157.672578 61.907873 
L 157.718267 53.12343 
L 157.763827 53.605476 
L 157.899746 44.125299 
L 157.944801 41.017822 
L 157.989732 47.622784 
L 158.034538 42.116396 
L 158.079221 37.246594 
L 158.123781 41.302659 
L 158.300811 50.135858 
L 158.344768 57.263258 
L 158.388607 48.393268 
L 158.432328 45.089714 
L 158.519418 63.380537 
L 158.562789 48.516496 
L 158.649184 42.372337 
L 158.69221 44.499896 
L 158.735122 53.163223 
L 158.777921 51.580016 
L 158.863183 38.812875 
L 158.905646 44.099421 
L 159.032375 62.431623 
L 159.199822 44.171527 
L 159.282903 51.353003 
L 159.324285 43.772117 
L 159.406733 45.616864 
L 159.488765 54.193593 
L 159.651596 41.333584 
L 159.772657 51.795557 
L 159.812811 47.772386 
L 159.852866 45.138296 
L 159.892823 49.513469 
L 159.972442 62.349354 
L 160.051673 39.897169 
L 160.091143 44.885181 
L 160.208984 58.961236 
L 160.248075 48.553526 
L 160.325976 54.581468 
L 160.364786 57.425245 
L 160.403505 54.914277 
L 160.480665 40.748076 
L 160.519108 42.600645 
L 160.671978 53.679023 
L 160.709972 41.693234 
L 160.747877 43.57009 
L 160.785693 64.186875 
L 160.823422 49.966164 
L 160.898618 41.713714 
L 160.936086 46.602501 
L 160.973468 62.42306 
L 161.047974 47.165806 
L 161.085099 44.81566 
L 161.122139 45.789254 
L 161.159096 51.504479 
L 161.232757 50.426851 
L 161.269463 47.998279 
L 161.342626 59.720921 
L 161.379085 44.475066 
L 161.415462 48.51988 
L 161.451757 61.595439 
L 161.524106 48.67837 
L 161.596134 44.172561 
L 161.632028 57.365693 
L 161.70358 50.246522 
L 161.810321 39.989417 
L 161.845746 45.68664 
L 161.881093 95.440329 
L 161.951559 63.685848 
L 162.091579 48.995202 
L 162.126397 51.222073 
L 162.264925 40.223709 
L 162.333748 45.254352 
L 162.36805 53.448876 
L 162.436439 50.614225 
L 162.470526 46.258505 
L 162.504541 60.157732 
L 162.538485 46.244118 
L 162.572358 48.14821 
L 162.673557 41.176869 
L 162.70715 46.370833 
L 162.874081 59.199118 
L 163.006402 43.384937 
L 163.10494 58.356209 
L 163.137653 49.509711 
L 163.170301 49.826709 
L 163.267853 75.380051 
L 163.364822 44.809328 
L 163.397017 47.718452 
L 163.49322 60.82877 
L 163.525162 53.354201 
L 163.588857 45.040997 
L 163.620611 46.854035 
L 163.715503 55.708095 
L 163.841169 47.088981 
L 163.965871 58.615398 
L 164.027864 42.097744 
L 164.058772 50.475021 
L 164.089622 63.987226 
L 164.151146 44.500971 
L 164.273499 53.989695 
L 164.242997 44.028524 
L 164.303943 50.424019 
L 164.334331 58.522404 
L 164.394937 57.802664 
L 164.455317 44.9409 
L 164.515474 49.671944 
L 164.575408 61.265831 
L 164.605293 52.773698 
L 164.664898 49.782562 
L 164.724285 73.077849 
L 164.753897 49.373485 
L 164.81296 56.294311 
L 164.842411 46.307476 
L 164.930445 54.064991 
L 164.959684 54.24123 
L 164.98887 46.595304 
L 165.018005 62.428363 
L 165.047087 58.232863 
L 165.105095 68.498352 
L 165.134021 49.860919 
L 165.220493 50.962994 
L 165.277887 48.651797 
L 165.392068 61.073345 
L 165.477181 47.557465 
L 165.533676 49.314732 
L 165.56185 54.759419 
L 165.589975 46.14719 
L 165.64608 54.051956 
L 165.785499 44.040726 
L 165.81324 45.517632 
L 165.86858 97.498478 
L 165.896179 51.723461 
L 165.951238 44.022516 
L 165.978698 45.267587 
L 166.088074 67.813327 
L 166.115303 55.507752 
L 166.142487 62.453172 
L 166.169625 45.714007 
L 166.196718 48.028569 
L 166.223766 50.608009 
L 166.250769 50.281254 
L 166.277727 44.072158 
L 166.30464 44.717556 
L 166.358334 74.825297 
L 166.411851 43.056477 
L 166.544876 68.206559 
L 166.57135 54.883559 
L 166.650517 57.25428 
L 166.703081 43.12343 
L 166.85976 73.441052 
L 166.885727 62.452656 
L 166.937536 64.767787 
L 166.963379 52.223657 
L 166.989181 66.774447 
L 167.040662 47.485694 
L 167.066342 53.105316 
L 167.117579 58.272126 
L 167.143138 54.222223 
L 167.168656 88.839868 
L 167.24497 50.386882 
L 167.270329 57.295825 
L 167.346169 53.412993 
L 167.396532 46.042495 
L 167.421656 67.135848 
L 167.496794 48.889324 
L 167.521763 48.828182 
L 167.621256 73.633809 
L 167.646035 53.78575 
L 167.695479 49.586912 
L 167.818434 70.872315 
L 167.916132 73.962587 
L 167.940465 51.443518 
L 168.013246 61.49773 
L 168.037434 57.24595 
L 168.157837 45.342862 
L 168.085702 58.84228 
L 168.181811 48.435977 
L 168.205749 62.924135 
L 168.277354 47.463543 
L 168.301152 42.976703 
L 168.348644 50.676257 
L 168.419623 66.514353 
L 168.443214 46.255048 
L 168.46677 46.181049 
L 168.490293 71.475611 
L 168.584043 58.557482 
L 168.607397 60.637063 
L 168.630717 48.391837 
L 168.700476 54.299003 
L 168.723663 64.764378 
L 168.769937 50.211929 
L 168.793025 51.656134 
L 168.862092 56.254858 
L 168.885049 51.296022 
L 168.907974 44.892217 
L 168.976555 54.392752 
L 169.022116 47.101809 
L 169.067549 50.988746 
L 169.090218 68.334106 
L 169.180578 53.12389 
L 169.24802 58.871332 
L 169.270439 54.093082 
L 169.292827 49.404502 
L 169.315184 54.54323 
L 169.33751 65.568966 
L 169.38207 49.188456 
L 169.426509 63.758985 
L 169.559099 44.964911 
L 169.668771 58.862994 
L 169.712433 55.757646 
L 169.73422 56.546689 
L 169.799407 46.897141 
L 169.821077 54.546763 
L 169.842719 57.462279 
L 169.864332 47.616374 
L 169.929 54.893251 
L 169.950499 55.316479 
L 169.971969 54.461549 
L 169.993411 64.571235 
L 170.03621 48.684807 
L 170.078897 62.70273 
L 170.185125 46.615862 
L 170.142717 75.709576 
L 170.227423 50.306609 
L 170.290663 63.681343 
L 170.332687 53.034389 
L 170.374603 50.656466 
L 170.458111 76.876823 
L 170.478921 51.03516 
L 170.582574 52.294362 
L 170.603225 53.636654 
L 170.70609 44.179694 
L 170.665022 58.952003 
L 170.726585 46.72359 
L 170.747054 63.586261 
L 170.828673 59.576279 
L 170.849014 50.102688 
L 170.909885 50.727083 
L 170.930125 72.868265 
L 171.010832 48.934464 
L 171.0711 64.835779 
L 171.111155 56.637408 
L 171.131145 49.704834 
L 171.210862 54.880993 
L 171.250574 73.566123 
L 171.29019 52.122313 
L 171.309961 49.061884 
L 171.349432 55.71445 
L 171.408459 49.368404 
L 171.467273 47.597977 
L 171.525874 74.536387 
L 171.623075 47.32302 
L 171.642446 58.080288 
L 171.681118 71.110559 
L 171.719698 47.327801 
L 171.738954 53.129664 
L 171.81575 49.677562 
L 171.854012 64.895194 
L 171.987224 45.323585 
L 172.006165 47.778465 
L 172.100543 77.937547 
L 172.119352 58.958859 
L 172.138141 49.232059 
L 172.194375 60.513675 
L 172.231756 53.725304 
L 172.250415 62.062804 
L 172.343387 56.675691 
L 172.380428 50.066746 
L 172.454257 47.755822 
L 172.491046 71.676322 
L 172.527751 53.671763 
L 172.582655 55.76438 
L 172.600915 83.159575 
L 172.637373 53.013233 
L 172.691908 57.418545 
L 172.728163 60.179029 
L 172.782395 53.184989 
L 172.800432 68.656951 
L 172.818449 52.214933 
L 172.890317 64.487843 
L 172.908235 49.496997 
L 172.944011 72.190329 
L 172.979708 63.386634 
L 172.997527 69.512368 
L 173.050868 50.809873 
L 173.086332 58.749998 
L 173.121718 52.974555 
L 173.139382 48.024089 
L 173.174653 68.794367 
L 173.209848 58.428869 
L 173.262497 47.214548 
L 173.297502 60.899438 
L 173.332431 53.277627 
L 173.367286 47.992111 
L 173.419428 50.716205 
L 173.454097 70.648504 
L 173.523213 58.591742 
L 173.592037 47.912349 
L 173.643463 52.127611 
L 173.660569 50.782032 
L 173.694728 65.774952 
L 173.779811 59.943384 
L 173.796774 59.655888 
L 173.86445 46.592491 
L 173.931846 50.433429 
L 174.065803 68.152835 
L 174.099121 49.7135 
L 174.13237 91.582338 
L 174.182117 54.914465 
L 174.198665 60.831372 
L 174.248209 46.71852 
L 174.281155 51.140923 
L 174.297603 46.195069 
L 174.330449 55.641591 
L 174.379594 48.64454 
L 174.444889 47.195814 
L 174.493689 61.901362 
L 174.509924 50.388461 
L 174.558529 67.866119 
L 174.590852 59.595322 
L 174.606989 73.091322 
L 174.655305 51.300874 
L 174.687437 59.485375 
L 174.703478 57.309508 
L 174.719504 61.007498 
L 174.735514 71.1823 
L 174.78345 54.375038 
L 174.815329 57.353167 
L 174.831245 54.039546 
L 174.847146 83.656055 
L 174.942223 61.612665 
L 174.973792 55.609476 
L 174.989553 59.498094 
L 175.083803 80.995091 
L 175.036746 49.50645 
L 175.099458 67.636027 
L 175.146333 51.708016 
L 175.286153 52.324083 
L 175.347911 63.766716 
L 175.378702 51.813524 
L 175.394075 51.907073 
L 175.424779 72.213069 
L 175.516544 58.953986 
L 175.607792 53.796022 
L 175.562232 67.918571 
L 175.622951 55.318072 
L 175.638095 64.088709 
L 175.728666 60.600493 
L 175.803757 54.152394 
L 175.818734 67.973008 
L 175.833697 61.828731 
L 175.848646 68.474666 
L 175.878503 49.697082 
L 175.908306 55.623362 
L 175.923186 50.626026 
L 175.938054 76.161295 
L 175.982573 67.135626 
L 176.012185 77.513903 
L 176.026971 54.215322 
L 176.041744 50.072407 
L 176.085981 60.479667 
L 176.100699 58.817401 
L 176.130097 76.131308 
L 176.188734 50.73442 
L 176.20336 54.722126 
L 176.261733 63.842595 
L 176.232572 51.794471 
L 176.305375 58.234059 
L 176.319897 54.828478 
L 176.348901 71.900828 
L 176.421185 56.119147 
L 176.521846 64.465225 
L 176.478782 48.713925 
L 176.550492 63.155208 
L 176.593366 49.918349 
L 176.664573 53.253998 
L 176.692969 80.977591 
L 176.73547 50.752939 
L 176.777859 60.253564 
L 176.791964 60.715833 
L 176.820138 54.821621 
L 176.848264 65.936603 
L 176.904368 77.062295 
L 176.87634 56.054633 
L 176.932348 64.67906 
L 176.96028 53.893056 
L 177.043788 56.631624 
L 177.113051 84.725515 
L 177.099222 54.032716 
L 177.16825 63.759875 
L 177.19578 51.11683 
L 177.223262 76.103397 
L 177.291766 56.87318 
L 177.319087 52.669979 
L 177.33273 54.836114 
L 177.359983 68.478077 
L 177.41435 51.16379 
L 177.427914 52.208428 
L 177.441466 50.549776 
L 177.455007 53.27 
L 177.468536 71.150722 
L 177.562929 58.314936 
L 177.576369 52.926646 
L 177.616623 70.056585 
L 177.670139 56.07806 
L 177.736788 69.197245 
L 177.763371 54.133364 
L 177.776646 53.938487 
L 177.88246 80.250224 
L 177.816407 49.738769 
L 177.908806 63.222583 
L 177.974484 70.814065 
L 178.026836 53.037459 
L 178.039898 53.203403 
L 178.131037 72.501896 
L 178.182888 71.710785 
L 178.234574 52.348676 
L 178.311796 60.107231 
L 178.375868 70.923922 
L 178.337455 48.979196 
L 178.41419 65.144218 
L 178.477861 70.210595 
L 178.541282 53.705167 
L 178.654821 74.640492 
L 178.591842 53.526301 
L 178.705029 62.654306 
L 178.742584 90.510633 
L 178.829874 50.382899 
L 178.867142 73.662087 
L 178.953767 54.718154 
L 179.003061 68.723086 
L 178.978433 51.105227 
L 179.064469 56.355208 
L 179.076722 56.307712 
L 179.101202 56.319809 
L 179.113428 53.551966 
L 179.125645 66.245864 
L 179.150051 51.036251 
L 179.22305 64.977593 
L 179.295723 51.347209 
L 179.331937 66.347001 
L 179.368071 52.26801 
L 179.392116 70.975129 
L 179.440099 57.754504 
L 179.52373 81.428855 
L 179.49988 53.056948 
L 179.535642 66.747836 
L 179.547546 54.164604 
L 179.630627 62.465002 
L 179.725059 56.23926 
L 179.748581 89.943314 
L 179.854013 50.979252 
L 179.87735 51.581488 
L 180.005105 77.930258 
L 180.01667 64.800269 
L 180.10889 52.220139 
L 180.074369 68.408115 
L 180.120381 56.915266 
L 180.177713 72.563689 
L 180.223434 56.958369 
L 180.314491 73.214432 
L 180.348506 62.198564 
L 180.359829 54.393494 
L 180.438867 69.219525 
L 180.483859 80.07185 
L 180.495088 59.195856 
L 180.528728 69.591179 
L 180.551115 53.100161 
L 180.62923 53.980056 
L 180.640359 71.957496 
L 180.740175 55.464607 
L 180.784342 82.325398 
L 180.762274 52.058828 
L 180.861346 61.115642 
L 180.916126 54.125978 
L 180.937986 65.549121 
L 180.959817 61.589575 
L 181.057695 91.67885 
L 180.992509 51.475126 
L 181.068534 63.401319 
L 181.154987 73.777265 
L 181.122621 51.468172 
L 181.165761 61.335883 
L 181.176529 51.994422 
L 181.198041 70.031866 
L 181.2517 55.609033 
L 181.294499 82.276837 
L 181.337185 54.318797 
L 181.358487 61.353194 
L 181.443414 52.79738 
L 181.411618 86.35682 
L 181.453999 58.087644 
L 181.475147 74.999064 
L 181.496269 54.08283 
L 181.569978 63.756201 
L 181.632892 52.934497 
L 181.601465 69.117651 
L 181.685135 53.001148 
L 181.747605 68.117968 
L 181.768375 56.123247 
L 181.77875 89.962552 
L 181.799481 55.293531 
L 181.882139 76.676271 
L 181.902738 55.144567 
L 181.995111 59.241525 
L 182.086962 54.881036 
L 182.046204 70.103022 
L 182.107303 58.465478 
L 182.147909 83.409159 
L 182.158044 54.484597 
L 182.208628 63.717554 
L 182.279181 52.878179 
L 182.228817 78.504453 
L 182.319359 54.878915 
L 182.339412 73.20837 
L 182.439303 68.826929 
L 182.449258 55.706275 
L 182.479088 76.647061 
L 182.558367 57.332238 
L 182.578127 52.835082 
L 182.607721 71.842325 
L 182.666748 56.862218 
L 182.676565 56.747724 
L 182.77441 83.882798 
L 182.725561 55.929977 
L 182.784163 64.230512 
L 182.852264 76.474926 
L 182.803649 57.58744 
L 182.86197 65.293898 
L 182.891052 53.463488 
L 182.958708 58.871975 
L 182.96835 76.312806 
L 183.045283 54.5593 
L 183.064459 73.043004 
L 183.121852 54.122591 
L 183.169525 73.4844 
L 183.179043 60.038141 
L 183.245513 69.423695 
L 183.217059 57.304208 
L 183.273917 61.919847 
L 183.34 55.440233 
L 183.321146 76.723424 
L 183.377641 59.161852 
L 183.490045 73.840639 
L 183.43394 55.936493 
L 183.499377 70.471551 
L 183.601676 56.267668 
L 183.555256 80.984061 
L 183.620207 60.334314 
L 183.638717 78.284209 
L 183.684899 54.787503 
L 183.740145 75.069489 
L 183.767697 56.110172 
L 183.859204 62.808165 
L 183.904764 71.726169 
L 183.932039 55.563274 
L 183.94112 55.228168 
L 183.950197 56.589323 
L 184.040683 67.733547 
L 184.031657 55.160441 
L 184.049704 62.395685 
L 184.05872 54.862099 
L 184.076737 72.156001 
L 184.13964 62.791584 
L 184.148606 78.796405 
L 184.22908 55.757299 
L 184.246909 59.602371 
L 184.282508 54.894993 
L 184.371167 75.81055 
L 184.459345 80.965257 
L 184.485705 55.140237 
L 184.56453 68.266985 
L 184.599441 66.461961 
L 184.677717 54.68786 
L 184.616868 89.508882 
L 184.712386 57.83536 
L 184.721041 83.383542 
L 184.824551 61.08839 
L 184.841738 66.140599 
L 184.876059 55.33916 
L 184.884628 57.983561 
L 184.893192 91.516216 
L 184.995614 80.440356 
L 185.038099 55.838457 
L 185.105846 74.946272 
L 185.114295 84.782096 
L 185.190134 54.994757 
L 185.206939 69.952555 
L 185.273987 92.710897 
L 185.332428 57.061496 
L 185.374043 55.445219 
L 185.465222 80.362694 
L 185.580532 56.593827 
L 185.588738 60.187486 
L 185.621517 100.064715 
L 185.654231 56.789675 
L 185.69503 61.341896 
L 185.776323 56.369778 
L 185.727596 80.473716 
L 185.78443 60.633375 
L 185.841066 82.170111 
L 185.808727 58.203529 
L 185.897505 64.92736 
L 185.937698 55.460573 
L 185.961767 89.545123 
L 186.009797 64.204814 
L 186.105434 56.729437 
L 186.121319 84.572576 
L 186.145117 57.955819 
L 186.239963 59.852435 
L 186.349921 55.95852 
L 186.263588 70.027547 
L 186.357747 56.338261 
L 186.365568 56.105028 
L 186.420217 84.549943 
L 186.49021 74.533233 
L 186.57535 56.781988 
L 186.583068 64.397827 
L 186.590782 102.25626 
L 186.613902 56.387417 
L 186.690735 62.04012 
L 186.713714 56.533316 
L 186.706057 64.300027 
L 186.721366 58.888044 
L 186.729015 115.107157 
L 186.828123 58.623803 
L 186.858497 73.10212 
L 186.866081 56.693281 
L 186.949278 67.623092 
L 187.032051 57.554848 
L 186.994479 76.073328 
L 187.062046 61.108465 
L 187.069536 59.489089 
L 187.106935 71.659097 
L 187.114404 63.478553 
L 187.12187 75.852728 
L 187.218617 61.269878 
L 187.24827 71.937963 
L 187.277869 58.099908 
L 187.28526 62.45052 
L 187.292648 89.862897 
L 187.381041 56.466461 
L 187.395727 66.462314 
L 187.439704 56.637568 
L 187.505448 83.956065 
L 187.520021 55.965441 
L 187.585441 84.109147 
L 187.614432 62.23466 
L 187.643372 74.019802 
L 187.686685 56.664035 
L 187.722691 65.269651 
L 187.772965 56.709062 
L 187.751438 73.783809 
L 187.823085 57.968437 
L 187.937066 79.738469 
L 187.951258 56.261158 
L 187.986683 98.342247 
L 188.050253 58.24087 
L 188.106552 73.137768 
L 188.155654 71.872077 
L 188.169656 57.444621 
L 188.246452 75.254367 
L 188.267334 64.906632 
L 188.309016 98.991768 
L 188.357511 59.200246 
L 188.37134 72.822905 
L 188.405861 55.581869 
L 188.419649 80.485157 
L 188.474685 62.575587 
L 188.55689 58.674074 
L 188.591019 81.085276 
L 188.611463 56.949813 
L 188.706526 56.97374 
L 188.801037 81.698659 
L 188.827939 60.755387 
L 188.834658 60.754038 
L 188.848087 93.328593 
L 188.94178 56.177989 
L 189.0482 79.892145 
L 189.068076 70.133653 
L 189.167094 57.235034 
L 189.101149 96.088016 
L 189.180251 60.163074 
L 189.285125 91.704633 
L 189.245877 58.286949 
L 189.304714 68.20908 
L 189.363338 57.72911 
L 189.40879 76.458763 
L 189.421752 58.129925 
L 189.479957 81.855616 
L 189.537954 58.992934 
L 189.55724 68.717701 
L 189.576503 67.033831 
L 189.672479 90.863909 
L 189.653329 58.330698 
L 189.685233 74.925624 
L 189.755202 59.215253 
L 189.767891 76.274559 
L 189.786907 63.911335 
L 189.831189 87.420173 
L 189.8059 60.63062 
L 189.900534 86.445389 
L 189.988364 59.543916 
L 189.925676 99.874945 
L 190.013371 75.601291 
L 190.063271 58.601671 
L 190.032101 88.427675 
L 190.12543 67.335518 
L 190.162612 78.959547 
L 190.144032 59.67478 
L 190.230559 61.078669 
L 190.304359 89.982834 
L 190.255196 58.16868 
L 190.341134 69.548068 
L 190.450962 57.959611 
L 190.371717 73.957443 
L 190.457042 59.987659 
L 190.505599 79.203024 
L 190.517716 58.053747 
L 190.572129 64.654114 
L 190.650405 61.218766 
L 190.62636 81.432896 
L 190.656411 67.835701 
L 190.704376 81.132882 
L 190.674414 61.667275 
L 190.764134 73.054147 
L 190.871148 59.195519 
L 190.847428 84.623361 
L 190.882995 60.853095 
L 190.90075 85.545996 
L 190.930297 58.564687 
L 191.000993 63.307326 
L 191.04209 92.772861 
L 191.112302 65.135678 
L 191.158941 59.692509 
L 191.193834 70.071949 
L 191.217053 62.153894 
L 191.315369 87.360793 
L 191.338416 81.754195 
L 191.367179 59.027866 
L 191.453162 61.641185 
L 191.504535 74.85817 
L 191.515929 58.619444 
L 191.561426 61.782489 
L 191.567104 62.009177 
L 191.57278 61.543042 
L 191.601131 82.83237 
L 191.674613 61.536097 
L 191.680251 69.528662 
L 191.742148 60.630982 
L 191.758988 87.527454 
L 191.792616 63.849953 
L 191.826175 87.5022 
L 191.881952 59.334426 
L 191.904209 70.720853 
L 191.909769 60.683101 
L 191.998464 90.857307 
L 192.01504 61.677122 
L 192.026082 86.513487 
L 192.053653 59.720546 
L 192.125121 68.085079 
L 192.141569 60.083075 
L 192.179882 68.201856 
L 192.185348 63.607125 
L 192.190812 90.308466 
L 192.207194 60.059751 
L 192.294284 62.422309 
L 192.326823 58.794271 
L 192.343068 77.587752 
L 192.445577 90.069444 
L 192.429435 60.05933 
L 192.450955 76.835143 
L 192.461704 78.37132 
L 192.558129 60.116667 
L 192.547444 82.618012 
L 192.57948 61.144976 
L 192.584813 61.269456 
L 192.691111 80.556668 
L 192.680512 60.493606 
L 192.696408 67.063318 
L 192.786188 60.709156 
L 192.722865 84.431545 
L 192.791454 62.129329 
L 192.885947 59.62221 
L 192.906871 80.799415 
L 192.932988 62.039631 
L 192.974688 82.557075 
L 193.026664 66.193467 
L 193.031852 87.986809 
L 193.0733 62.712309 
L 193.135274 80.756686 
L 193.191876 62.364499 
L 193.248282 64.546481 
L 193.324884 104.167591 
L 193.294287 59.624111 
L 193.365592 73.701111 
L 193.461865 61.033079 
L 193.406198 99.03722 
L 193.477014 61.062925 
L 193.542497 86.852328 
L 193.59269 68.044714 
L 193.68763 61.588167 
L 193.632732 79.711612 
L 193.707547 62.474662 
L 193.796872 86.165103 
L 193.732409 61.716915 
L 193.816656 67.192325 
L 193.870937 61.795456 
L 193.836415 92.36206 
L 193.89555 64.96332 
L 193.99852 84.74817 
L 193.93976 61.741509 
L 194.003407 63.165851 
L 194.008293 61.387015 
L 194.022941 82.995095 
L 194.052198 67.467862 
L 194.076538 97.985794 
L 194.091125 62.923543 
L 194.159023 63.315158 
L 194.207349 79.299211 
L 194.192866 60.149296 
L 194.226639 75.808952 
L 194.327538 90.524908 
L 194.255531 62.269695 
L 194.332327 73.866068 
L 194.361032 61.418472 
L 194.375366 89.505064 
L 194.442089 65.216709 
L 194.546389 91.224721 
L 194.475348 61.527877 
L 194.555837 84.630683 
L 194.58415 62.159704 
L 194.664104 67.412576 
L 194.696912 88.842626 
L 194.738996 63.83344 
L 194.776313 83.81019 
L 194.79494 63.249694 
L 194.846053 90.746061 
L 194.887753 67.96189 
L 194.98464 92.122775 
L 194.906252 61.066948 
L 194.998434 80.947208 
L 195.007623 61.937128 
L 195.058072 98.690548 
L 195.112929 65.34412 
L 195.117492 65.380166 
L 195.135732 63.017948 
L 195.126615 79.8773 
L 195.153951 64.738283 
L 195.158502 88.126306 
L 195.176696 62.974608 
L 195.262838 65.434462 
L 195.32602 61.026425 
L 195.280915 80.565106 
L 195.375491 64.275279 
L 195.460588 83.012735 
L 195.411376 62.779382 
L 195.482908 64.617198 
L 195.491828 62.786617 
L 195.527456 77.993471 
L 195.531904 88.265011 
L 195.571883 61.927701 
L 195.629456 65.330549 
L 195.700036 61.206089 
L 195.651545 96.240575 
L 195.726425 72.089175 
L 195.752771 87.580914 
L 195.787833 62.027123 
L 195.831553 65.96558 
L 195.918644 87.640234 
L 195.90561 62.451344 
L 195.940343 67.787023 
L 195.957682 62.423262 
L 195.987981 78.278009 
L 196.035479 65.730398 
L 196.07854 79.538332 
L 196.125774 61.71038 
L 196.142917 63.807516 
L 196.241135 123.553286 
L 196.177147 62.789952 
L 196.249648 64.020404 
L 196.253902 62.00629 
L 196.313351 84.991383 
L 196.330297 66.241932 
L 196.338763 85.869118 
L 196.418972 62.441238 
L 196.440014 63.279709 
L 196.544817 88.488331 
L 196.473624 63.028959 
L 196.553172 68.339414 
L 196.624017 62.072452 
L 196.594883 86.214186 
L 196.644795 74.137692 
L 196.735904 91.689756 
L 196.70697 63.499802 
L 196.752415 65.881351 
L 196.760664 100.334421 
L 196.826506 62.170717 
L 196.859327 66.039917 
L 196.883899 63.734495 
L 196.892081 75.702728 
L 196.91252 68.253834 
L 196.949244 84.684335 
L 196.985885 63.980954 
L 197.026501 81.729376 
L 197.131629 62.721394 
L 197.119534 86.192685 
L 197.135659 65.358796 
L 197.204014 89.160152 
L 197.212037 63.36474 
L 197.244089 67.168946 
L 197.351799 91.584267 
L 197.256092 62.750392 
L 197.355775 68.274396 
L 197.399442 62.900029 
L 197.427169 91.098491 
L 197.45485 67.760133 
L 197.514006 85.633495 
L 197.478538 62.859195 
L 197.565101 78.900716 
L 197.6473 62.663889 
L 197.576869 93.956667 
L 197.674608 67.126263 
L 197.77951 86.103373 
L 197.729086 64.564087 
L 197.783383 79.288032 
L 197.860635 64.100262 
L 197.845214 95.319478 
L 197.895279 73.757437 
L 197.914494 64.317511 
L 197.937522 80.638987 
L 197.949023 67.429912 
L 198.021679 96.977336 
L 197.99877 63.653266 
L 198.059788 96.540008 
L 198.150888 64.428739 
L 198.090212 97.040725 
L 198.173583 75.962263 
L 198.192472 64.296376 
L 198.226416 102.425633 
L 198.279077 67.681146 
L 198.282832 97.622651 
L 198.305344 66.30573 
L 198.391352 83.124853 
L 198.499151 64.967784 
L 198.447199 92.590614 
L 198.502855 65.516229 
L 198.587826 103.297345 
L 198.521365 63.837439 
L 198.617277 81.420362 
L 198.697993 106.128955 
L 198.730898 63.54851 
L 198.760091 103.05373 
L 198.774668 63.360641 
L 198.847357 69.123837 
L 198.948578 63.466257 
L 198.865478 96.072105 
L 198.952181 66.083212 
L 198.970186 93.73842 
L 199.059913 64.955241 
L 199.067069 84.173493 
L 199.163378 64.919149 
L 199.145586 98.029199 
L 199.181151 65.309851 
L 199.191805 72.793212 
L 199.297964 88.672655 
L 199.290908 64.35659 
L 199.301491 75.09177 
L 199.326156 64.745235 
L 199.343752 95.485445 
L 199.413943 70.526335 
L 199.459405 90.361834 
L 199.448925 64.389524 
L 199.515185 77.356264 
L 199.522144 64.034033 
L 199.619258 94.114624 
L 199.629629 66.464649 
L 199.643446 89.018267 
L 199.660701 65.299696 
L 199.746703 69.937466 
L 199.750134 69.953548 
L 199.82201 64.946743 
L 199.767276 95.373233 
L 199.856125 70.492805 
L 199.9682 87.920147 
L 199.944491 65.254634 
L 199.971584 80.70751 
L 200.042489 64.974679 
L 200.00201 86.644116 
L 200.082868 70.289868 
L 200.13655 103.787261 
L 200.15998 65.049051 
L 200.193394 69.016842 
L 200.276628 91.811277 
L 200.299857 65.492618 
L 200.303173 69.942438 
L 200.346217 65.645121 
L 200.37925 85.419041 
L 200.405628 77.753512 
L 200.445114 97.197298 
L 200.458255 65.176704 
L 200.513986 79.971911 
L 200.523801 83.100292 
L 200.624878 65.453617 
L 200.667078 90.18161 
L 200.637874 65.334517 
L 200.735017 66.953469 
L 200.738246 64.830918 
L 200.754377 86.747285 
L 200.828373 70.946825 
L 200.831583 100.786255 
L 200.927578 66.354085 
L 200.937146 68.31937 
L 200.997615 113.537591 
L 200.95945 64.527143 
L 201.045195 65.386285 
L 201.073677 94.87135 
L 201.13364 65.023008 
L 201.165112 74.302716 
L 201.224739 65.626524 
L 201.237265 92.538861 
L 201.265412 70.956195 
L 201.36199 96.755102 
L 201.299747 66.277243 
L 201.37441 86.593237 
L 201.457998 64.806723 
L 201.467259 93.141867 
L 201.488847 68.656299 
L 201.519638 65.999046 
L 201.507329 88.091799 
L 201.562648 69.574485 
L 201.614721 90.097815 
L 201.581046 65.191357 
L 201.672724 70.060914 
L 201.703169 106.632821 
L 201.779032 65.758941 
L 201.794162 87.289002 
L 201.872613 104.189977 
L 201.911697 65.750894 
L 201.983605 85.388129 
L 202.037328 70.092471 
L 202.043286 65.936104 
L 202.096813 112.133364 
L 202.129437 68.206282 
L 202.132399 96.234986 
L 202.212185 65.210784 
L 202.241636 89.870529 
L 202.244578 67.017297 
L 202.271034 99.406215 
L 202.353066 70.436817 
L 202.446312 98.329452 
L 202.388096 66.023708 
L 202.463736 70.723846 
L 202.495632 98.713361 
L 202.556351 66.20292 
L 202.567891 68.123723 
L 202.573658 66.104744 
L 202.579423 92.32617 
L 202.654179 83.875565 
L 202.657048 116.65613 
L 202.731449 65.992204 
L 202.762824 69.053092 
L 202.796982 104.270032 
L 202.819714 67.520853 
L 202.873576 72.964975 
L 202.904678 66.429759 
L 202.935721 91.473671 
L 202.983579 74.233655 
L 202.99482 69.436669 
L 202.997629 71.409163 
L 203.092842 110.432232 
L 203.101217 66.555692 
L 203.106797 71.281725 
L 203.109587 66.610179 
L 203.115164 95.451125 
L 203.212466 73.877839 
L 203.278851 108.253358 
L 203.218008 67.634798 
L 203.320204 70.350726 
L 203.386152 66.448039 
L 203.328463 89.573657 
L 203.424498 71.394912 
L 203.500919 92.023795 
L 203.457294 66.503708 
L 203.533562 86.830655 
L 203.604063 97.837074 
L 203.647296 66.715981 
L 203.76024 96.882526 
L 203.778987 71.090934 
L 203.781664 71.407305 
L 203.829765 123.329807 
L 203.885704 66.92513 
L 203.891022 67.510731 
L 203.941451 104.426805 
L 203.930848 66.88483 
L 204.002289 69.826752 
L 204.004929 69.349166 
L 204.023397 102.728222 
L 204.044477 67.323864 
L 204.115421 69.775714 
L 204.222562 90.203671 
L 204.20432 67.144813 
L 204.23558 72.879118 
L 204.334176 67.773209 
L 204.245987 94.046996 
L 204.336762 70.96051 
L 204.445027 97.179238 
L 204.349689 67.269696 
L 204.447596 76.17565 
L 204.460435 66.734346 
L 204.532145 108.768654 
L 204.56023 68.551751 
L 204.562781 67.757325 
L 204.580625 95.130667 
L 204.583173 96.218171 
L 204.588267 68.302791 
L 204.628962 70.691769 
L 204.720154 67.113817 
L 204.65688 99.881924 
L 204.735303 69.51686 
L 204.763039 97.17586 
L 204.758 67.742937 
L 204.850978 82.982314 
L 204.923483 66.980358 
L 204.855989 103.380161 
L 204.963348 69.198795 
L 205.040308 101.892599 
L 204.973298 67.327082 
L 205.074945 77.020334 
L 205.09964 67.477262 
L 205.156298 110.596629 
L 205.175959 74.879897 
L 205.200501 102.999908 
L 205.273907 68.264356 
L 205.28611 81.238064 
L 205.363987 67.041903 
L 205.322661 103.699877 
L 205.397941 71.714373 
L 205.460812 105.315816 
L 205.506602 68.310211 
L 205.56186 106.745784 
L 205.581036 67.952633 
L 205.628878 91.17378 
L 205.702755 68.418425 
L 205.743127 68.993918 
L 205.745498 68.098588 
L 205.75024 102.739484 
L 205.752611 76.529102 
L 205.754981 107.563863 
L 205.842439 69.722484 
L 205.861287 72.409587 
L 205.863642 72.303088 
L 205.922393 99.775145 
L 205.950518 68.111881 
L 205.973918 82.482043 
L 206.034602 68.673645 
L 206.060208 98.696092 
L 206.090418 74.364722 
L 206.115936 101.952934 
L 206.183019 67.99783 
L 206.19917 73.106499 
L 206.247528 105.042757 
L 206.213001 68.26596 
L 206.300326 80.069949 
L 206.33238 67.939596 
L 206.391742 95.77658 
L 206.409963 79.828245 
L 206.512081 98.75934 
L 206.503029 68.900453 
L 206.516604 69.772632 
L 206.518866 69.643086 
L 206.525648 73.95718 
L 206.527908 73.47838 
L 206.631534 107.344709 
L 206.615808 68.35041 
L 206.642758 89.900307 
L 206.703235 68.566239 
L 206.736735 98.30508 
L 206.754574 77.564034 
L 206.79464 68.38298 
L 206.830171 102.217353 
L 206.863412 74.104639 
L 206.949519 110.822808 
L 206.920867 68.790016 
L 206.973724 80.599111 
L 207.032982 111.683886 
L 207.04831 68.868704 
L 207.063624 80.662851 
L 207.085475 68.492367 
L 207.168244 90.893536 
L 207.172589 70.678115 
L 207.27867 95.951039 
L 207.202969 69.334814 
L 207.282985 89.907552 
L 207.381919 69.137103 
L 207.313159 95.088921 
L 207.392636 72.895694 
L 207.454658 97.719989 
L 207.399063 69.878797 
L 207.501552 72.447299 
L 207.512191 70.814149 
L 207.507936 81.382847 
L 207.518571 79.051899 
L 207.520697 102.101626 
L 207.539819 69.207658 
L 207.62876 97.481293 
L 207.664622 69.57387 
L 207.742402 74.597831 
L 207.773829 69.000983 
L 207.809372 102.627219 
L 207.849005 71.999861 
L 207.956983 101.935955 
L 207.888542 69.026039 
L 207.959052 71.52293 
L 207.96319 78.051715 
L 207.967328 73.542039 
L 208.00245 95.982661 
L 208.056021 69.256146 
L 208.076579 71.756378 
L 208.134001 106.934403 
L 208.181018 69.490055 
L 208.19734 75.714316 
L 208.231969 69.113656 
L 208.24824 102.664789 
L 208.301008 86.325769 
L 208.397977 99.148817 
L 208.379839 69.061043 
L 208.410057 80.969146 
L 208.482352 69.206611 
L 208.446245 102.855999 
L 208.520379 72.364959 
L 208.616051 110.716766 
L 208.546346 69.685095 
L 208.629956 77.141932 
L 208.645833 70.777761 
L 208.637897 91.289804 
L 208.651783 70.961485 
" style="fill:none;stroke:#000000;stroke-linecap:square;stroke-width:0.8;"/>
   </g>
   <g id="line2d_52">
    <path clip-path="url(#p4627c7ff29)" d="M 62.296013 35.252577 
L 80.139978 29.126202 
L 88.43695 26.608319 
L 93.902025 25.274127 
L 97.983944 24.567563 
L 101.243293 24.249165 
L 103.956631 24.185486 
L 107.329167 24.391725 
L 110.120407 24.812163 
L 113.223579 25.538916 
L 116.418602 26.547574 
L 120.042962 27.962033 
L 124.12488 29.821765 
L 129.065966 32.335611 
L 135.740157 36.003395 
L 146.183899 42.030206 
L 169.777707 55.970517 
L 208.653766 79.04036 
L 208.653766 79.04036 
" style="fill:none;stroke:#ff0000;stroke-linecap:square;stroke-width:2;"/>
   </g>
   <g id="patch_3">
    <path d="M 54.978125 128.92249 
L 54.978125 10.8 
" style="fill:none;stroke:#000000;stroke-linecap:square;stroke-linejoin:miter;stroke-width:0.8;"/>
   </g>
   <g id="patch_4">
    <path d="M 215.971654 128.92249 
L 215.971654 10.8 
" style="fill:none;stroke:#000000;stroke-linecap:square;stroke-linejoin:miter;stroke-width:0.8;"/>
   </g>
   <g id="patch_5">
    <path d="M 54.978125 128.92249 
L 215.971654 128.92249 
" style="fill:none;stroke:#000000;stroke-linecap:square;stroke-linejoin:miter;stroke-width:0.8;"/>
   </g>
   <g id="patch_6">
    <path d="M 54.978125 10.8 
L 215.971654 10.8 
" style="fill:none;stroke:#000000;stroke-linecap:square;stroke-linejoin:miter;stroke-width:0.8;"/>
   </g>
   <g id="legend_1">
    <g id="patch_7">
     <path d="M 61.978125 123.92249 
L 143.371875 123.92249 
Q 145.371875 123.92249 145.371875 121.92249 
L 145.371875 93.56624 
Q 145.371875 91.56624 143.371875 91.56624 
L 61.978125 91.56624 
Q 59.978125 91.56624 59.978125 93.56624 
L 59.978125 121.92249 
Q 59.978125 123.92249 61.978125 123.92249 
z
" style="fill:#ffffff;opacity:0.8;stroke:#cccccc;stroke-linejoin:miter;"/>
    </g>
    <g id="line2d_53">
     <path d="M 63.978125 99.664678 
L 83.978125 99.664678 
" style="fill:none;stroke:#000000;stroke-linecap:square;stroke-width:0.8;"/>
    </g>
    <g id="line2d_54"/>
    <g id="text_11">
     <!-- simulated -->
     <defs>
      <path d="M 9.421875 54.6875 
L 18.40625 54.6875 
L 18.40625 0 
L 9.421875 0 
z
M 9.421875 75.984375 
L 18.40625 75.984375 
L 18.40625 64.59375 
L 9.421875 64.59375 
z
" id="DejaVuSans-105"/>
      <path d="M 8.5 21.578125 
L 8.5 54.6875 
L 17.484375 54.6875 
L 17.484375 21.921875 
Q 17.484375 14.15625 20.5 10.265625 
Q 23.53125 6.390625 29.59375 6.390625 
Q 36.859375 6.390625 41.078125 11.03125 
Q 45.3125 15.671875 45.3125 23.6875 
L 45.3125 54.6875 
L 54.296875 54.6875 
L 54.296875 0 
L 45.3125 0 
L 45.3125 8.40625 
Q 42.046875 3.421875 37.71875 1 
Q 33.40625 -1.421875 27.6875 -1.421875 
Q 18.265625 -1.421875 13.375 4.4375 
Q 8.5 10.296875 8.5 21.578125 
z
M 31.109375 56 
z
" id="DejaVuSans-117"/>
      <path d="M 9.421875 75.984375 
L 18.40625 75.984375 
L 18.40625 0 
L 9.421875 0 
z
" id="DejaVuSans-108"/>
      <path d="M 34.28125 27.484375 
Q 23.390625 27.484375 19.1875 25 
Q 14.984375 22.515625 14.984375 16.5 
Q 14.984375 11.71875 18.140625 8.90625 
Q 21.296875 6.109375 26.703125 6.109375 
Q 34.1875 6.109375 38.703125 11.40625 
Q 43.21875 16.703125 43.21875 25.484375 
L 43.21875 27.484375 
z
M 52.203125 31.203125 
L 52.203125 0 
L 43.21875 0 
L 43.21875 8.296875 
Q 40.140625 3.328125 35.546875 0.953125 
Q 30.953125 -1.421875 24.3125 -1.421875 
Q 15.921875 -1.421875 10.953125 3.296875 
Q 6 8.015625 6 15.921875 
Q 6 25.140625 12.171875 29.828125 
Q 18.359375 34.515625 30.609375 34.515625 
L 43.21875 34.515625 
L 43.21875 35.40625 
Q 43.21875 41.609375 39.140625 45 
Q 35.0625 48.390625 27.6875 48.390625 
Q 23 48.390625 18.546875 47.265625 
Q 14.109375 46.140625 10.015625 43.890625 
L 10.015625 52.203125 
Q 14.9375 54.109375 19.578125 55.046875 
Q 24.21875 56 28.609375 56 
Q 40.484375 56 46.34375 49.84375 
Q 52.203125 43.703125 52.203125 31.203125 
z
" id="DejaVuSans-97"/>
      <path d="M 18.3125 70.21875 
L 18.3125 54.6875 
L 36.8125 54.6875 
L 36.8125 47.703125 
L 18.3125 47.703125 
L 18.3125 18.015625 
Q 18.3125 11.328125 20.140625 9.421875 
Q 21.96875 7.515625 27.59375 7.515625 
L 36.8125 7.515625 
L 36.8125 0 
L 27.59375 0 
Q 17.1875 0 13.234375 3.875 
Q 9.28125 7.765625 9.28125 18.015625 
L 9.28125 47.703125 
L 2.6875 47.703125 
L 2.6875 54.6875 
L 9.28125 54.6875 
L 9.28125 70.21875 
z
" id="DejaVuSans-116"/>
      <path d="M 56.203125 29.59375 
L 56.203125 25.203125 
L 14.890625 25.203125 
Q 15.484375 15.921875 20.484375 11.0625 
Q 25.484375 6.203125 34.421875 6.203125 
Q 39.59375 6.203125 44.453125 7.46875 
Q 49.3125 8.734375 54.109375 11.28125 
L 54.109375 2.78125 
Q 49.265625 0.734375 44.1875 -0.34375 
Q 39.109375 -1.421875 33.890625 -1.421875 
Q 20.796875 -1.421875 13.15625 6.1875 
Q 5.515625 13.8125 5.515625 26.8125 
Q 5.515625 40.234375 12.765625 48.109375 
Q 20.015625 56 32.328125 56 
Q 43.359375 56 49.78125 48.890625 
Q 56.203125 41.796875 56.203125 29.59375 
z
M 47.21875 32.234375 
Q 47.125 39.59375 43.09375 43.984375 
Q 39.0625 48.390625 32.421875 48.390625 
Q 24.90625 48.390625 20.390625 44.140625 
Q 15.875 39.890625 15.1875 32.171875 
z
" id="DejaVuSans-101"/>
      <path d="M 45.40625 46.390625 
L 45.40625 75.984375 
L 54.390625 75.984375 
L 54.390625 0 
L 45.40625 0 
L 45.40625 8.203125 
Q 42.578125 3.328125 38.25 0.953125 
Q 33.9375 -1.421875 27.875 -1.421875 
Q 17.96875 -1.421875 11.734375 6.484375 
Q 5.515625 14.40625 5.515625 27.296875 
Q 5.515625 40.1875 11.734375 48.09375 
Q 17.96875 56 27.875 56 
Q 33.9375 56 38.25 53.625 
Q 42.578125 51.265625 45.40625 46.390625 
z
M 14.796875 27.296875 
Q 14.796875 17.390625 18.875 11.75 
Q 22.953125 6.109375 30.078125 6.109375 
Q 37.203125 6.109375 41.296875 11.75 
Q 45.40625 17.390625 45.40625 27.296875 
Q 45.40625 37.203125 41.296875 42.84375 
Q 37.203125 48.484375 30.078125 48.484375 
Q 22.953125 48.484375 18.875 42.84375 
Q 14.796875 37.203125 14.796875 27.296875 
z
" id="DejaVuSans-100"/>
     </defs>
     <g transform="translate(91.978125 103.164678)scale(0.1 -0.1)">
      <use xlink:href="#DejaVuSans-115"/>
      <use x="52.099609" xlink:href="#DejaVuSans-105"/>
      <use x="79.882812" xlink:href="#DejaVuSans-109"/>
      <use x="177.294922" xlink:href="#DejaVuSans-117"/>
      <use x="240.673828" xlink:href="#DejaVuSans-108"/>
      <use x="268.457031" xlink:href="#DejaVuSans-97"/>
      <use x="329.736328" xlink:href="#DejaVuSans-116"/>
      <use x="368.945312" xlink:href="#DejaVuSans-101"/>
      <use x="430.46875" xlink:href="#DejaVuSans-100"/>
     </g>
    </g>
    <g id="line2d_55">
     <path d="M 63.978125 114.342803 
L 83.978125 114.342803 
" style="fill:none;stroke:#ff0000;stroke-linecap:square;stroke-width:2;"/>
    </g>
    <g id="line2d_56"/>
    <g id="text_12">
     <!-- target -->
     <defs>
      <path d="M 41.109375 46.296875 
Q 39.59375 47.171875 37.8125 47.578125 
Q 36.03125 48 33.890625 48 
Q 26.265625 48 22.1875 43.046875 
Q 18.109375 38.09375 18.109375 28.8125 
L 18.109375 0 
L 9.078125 0 
L 9.078125 54.6875 
L 18.109375 54.6875 
L 18.109375 46.1875 
Q 20.953125 51.171875 25.484375 53.578125 
Q 30.03125 56 36.53125 56 
Q 37.453125 56 38.578125 55.875 
Q 39.703125 55.765625 41.0625 55.515625 
z
" id="DejaVuSans-114"/>
      <path d="M 45.40625 27.984375 
Q 45.40625 37.75 41.375 43.109375 
Q 37.359375 48.484375 30.078125 48.484375 
Q 22.859375 48.484375 18.828125 43.109375 
Q 14.796875 37.75 14.796875 27.984375 
Q 14.796875 18.265625 18.828125 12.890625 
Q 22.859375 7.515625 30.078125 7.515625 
Q 37.359375 7.515625 41.375 12.890625 
Q 45.40625 18.265625 45.40625 27.984375 
z
M 54.390625 6.78125 
Q 54.390625 -7.171875 48.1875 -13.984375 
Q 42 -20.796875 29.203125 -20.796875 
Q 24.46875 -20.796875 20.265625 -20.09375 
Q 16.0625 -19.390625 12.109375 -17.921875 
L 12.109375 -9.1875 
Q 16.0625 -11.328125 19.921875 -12.34375 
Q 23.78125 -13.375 27.78125 -13.375 
Q 36.625 -13.375 41.015625 -8.765625 
Q 45.40625 -4.15625 45.40625 5.171875 
L 45.40625 9.625 
Q 42.625 4.78125 38.28125 2.390625 
Q 33.9375 0 27.875 0 
Q 17.828125 0 11.671875 7.65625 
Q 5.515625 15.328125 5.515625 27.984375 
Q 5.515625 40.671875 11.671875 48.328125 
Q 17.828125 56 27.875 56 
Q 33.9375 56 38.28125 53.609375 
Q 42.625 51.21875 45.40625 46.390625 
L 45.40625 54.6875 
L 54.390625 54.6875 
z
" id="DejaVuSans-103"/>
     </defs>
     <g transform="translate(91.978125 117.842803)scale(0.1 -0.1)">
      <use xlink:href="#DejaVuSans-116"/>
      <use x="39.208984" xlink:href="#DejaVuSans-97"/>
      <use x="100.488281" xlink:href="#DejaVuSans-114"/>
      <use x="141.585938" xlink:href="#DejaVuSans-103"/>
      <use x="205.0625" xlink:href="#DejaVuSans-101"/>
      <use x="266.585938" xlink:href="#DejaVuSans-116"/>
     </g>
    </g>
   </g>
  </g>
 </g>
 <defs>
  <clipPath id="p4627c7ff29">
   <rect height="118.12249" width="160.993529" x="54.978125" y="10.8"/>
  </clipPath>
 </defs>
</svg>
