<?xml version="1.0" encoding="utf-8" standalone="no"?>
<!DOCTYPE svg PUBLIC "-//W3C//DTD SVG 1.1//EN"
  "http://www.w3.org/Graphics/SVG/1.1/DTD/svg11.dtd">
<!-- Created with matplotlib (https://matplotlib.org/) -->
<svg height="170.07874pt" version="1.1" viewBox="0 0 226.771654 170.07874" width="226.771654pt" xmlns="http://www.w3.org/2000/svg" xmlns:xlink="http://www.w3.org/1999/xlink">
 <defs>
  <style type="text/css">
*{stroke-linecap:butt;stroke-linejoin:round;}
  </style>
 </defs>
 <g id="figure_1">
  <g id="patch_1">
   <path d="M 0 170.07874 
L 226.771654 170.07874 
L 226.771654 0 
L 0 0 
z
" style="fill:#ffffff;"/>
  </g>
  <g id="axes_1">
   <g id="patch_2">
    <path d="M 55.8 128.92249 
L 215.971654 128.92249 
L 215.971654 10.8 
L 55.8 10.8 
z
" style="fill:#ffffff;"/>
   </g>
   <g id="matplotlib.axis_1">
    <g id="xtick_1">
     <g id="line2d_1">
      <path clip-path="url(#pbf8cf6a777)" d="M 86.718933 128.92249 
L 86.718933 10.8 
" style="fill:none;stroke:#b0b0b0;stroke-linecap:square;stroke-width:0.8;"/>
     </g>
     <g id="line2d_2">
      <defs>
       <path d="M 0 0 
L 0 3.5 
" id="m0c27a8a374" style="stroke:#000000;stroke-width:0.8;"/>
      </defs>
      <g>
       <use style="stroke:#000000;stroke-width:0.8;" x="86.718933" xlink:href="#m0c27a8a374" y="128.92249"/>
      </g>
     </g>
     <g id="text_1">
      <!-- $\mathdefault{10^{-4}}$ -->
      <defs>
       <path d="M 12.40625 8.296875 
L 28.515625 8.296875 
L 28.515625 63.921875 
L 10.984375 60.40625 
L 10.984375 69.390625 
L 28.421875 72.90625 
L 38.28125 72.90625 
L 38.28125 8.296875 
L 54.390625 8.296875 
L 54.390625 0 
L 12.40625 0 
z
" id="DejaVuSans-49"/>
       <path d="M 31.78125 66.40625 
Q 24.171875 66.40625 20.328125 58.90625 
Q 16.5 51.421875 16.5 36.375 
Q 16.5 21.390625 20.328125 13.890625 
Q 24.171875 6.390625 31.78125 6.390625 
Q 39.453125 6.390625 43.28125 13.890625 
Q 47.125 21.390625 47.125 36.375 
Q 47.125 51.421875 43.28125 58.90625 
Q 39.453125 66.40625 31.78125 66.40625 
z
M 31.78125 74.21875 
Q 44.046875 74.21875 50.515625 64.515625 
Q 56.984375 54.828125 56.984375 36.375 
Q 56.984375 17.96875 50.515625 8.265625 
Q 44.046875 -1.421875 31.78125 -1.421875 
Q 19.53125 -1.421875 13.0625 8.265625 
Q 6.59375 17.96875 6.59375 36.375 
Q 6.59375 54.828125 13.0625 64.515625 
Q 19.53125 74.21875 31.78125 74.21875 
z
" id="DejaVuSans-48"/>
       <path d="M 10.59375 35.5 
L 73.1875 35.5 
L 73.1875 27.203125 
L 10.59375 27.203125 
z
" id="DejaVuSans-8722"/>
       <path d="M 37.796875 64.3125 
L 12.890625 25.390625 
L 37.796875 25.390625 
z
M 35.203125 72.90625 
L 47.609375 72.90625 
L 47.609375 25.390625 
L 58.015625 25.390625 
L 58.015625 17.1875 
L 47.609375 17.1875 
L 47.609375 0 
L 37.796875 0 
L 37.796875 17.1875 
L 4.890625 17.1875 
L 4.890625 26.703125 
z
" id="DejaVuSans-52"/>
      </defs>
      <g transform="translate(74.968933 143.520928)scale(0.1 -0.1)">
       <use transform="translate(0 0.684375)" xlink:href="#DejaVuSans-49"/>
       <use transform="translate(63.623047 0.684375)" xlink:href="#DejaVuSans-48"/>
       <use transform="translate(128.203125 38.965625)scale(0.7)" xlink:href="#DejaVuSans-8722"/>
       <use transform="translate(186.855469 38.965625)scale(0.7)" xlink:href="#DejaVuSans-52"/>
      </g>
     </g>
    </g>
    <g id="xtick_2">
     <g id="line2d_3">
      <path clip-path="url(#pbf8cf6a777)" d="M 141.208374 128.92249 
L 141.208374 10.8 
" style="fill:none;stroke:#b0b0b0;stroke-linecap:square;stroke-width:0.8;"/>
     </g>
     <g id="line2d_4">
      <g>
       <use style="stroke:#000000;stroke-width:0.8;" x="141.208374" xlink:href="#m0c27a8a374" y="128.92249"/>
      </g>
     </g>
     <g id="text_2">
      <!-- $\mathdefault{10^{-2}}$ -->
      <defs>
       <path d="M 19.1875 8.296875 
L 53.609375 8.296875 
L 53.609375 0 
L 7.328125 0 
L 7.328125 8.296875 
Q 12.9375 14.109375 22.625 23.890625 
Q 32.328125 33.6875 34.8125 36.53125 
Q 39.546875 41.84375 41.421875 45.53125 
Q 43.3125 49.21875 43.3125 52.78125 
Q 43.3125 58.59375 39.234375 62.25 
Q 35.15625 65.921875 28.609375 65.921875 
Q 23.96875 65.921875 18.8125 64.3125 
Q 13.671875 62.703125 7.8125 59.421875 
L 7.8125 69.390625 
Q 13.765625 71.78125 18.9375 73 
Q 24.125 74.21875 28.421875 74.21875 
Q 39.75 74.21875 46.484375 68.546875 
Q 53.21875 62.890625 53.21875 53.421875 
Q 53.21875 48.921875 51.53125 44.890625 
Q 49.859375 40.875 45.40625 35.40625 
Q 44.1875 33.984375 37.640625 27.21875 
Q 31.109375 20.453125 19.1875 8.296875 
z
" id="DejaVuSans-50"/>
      </defs>
      <g transform="translate(129.458374 143.520928)scale(0.1 -0.1)">
       <use transform="translate(0 0.765625)" xlink:href="#DejaVuSans-49"/>
       <use transform="translate(63.623047 0.765625)" xlink:href="#DejaVuSans-48"/>
       <use transform="translate(128.203125 39.046875)scale(0.7)" xlink:href="#DejaVuSans-8722"/>
       <use transform="translate(186.855469 39.046875)scale(0.7)" xlink:href="#DejaVuSans-50"/>
      </g>
     </g>
    </g>
    <g id="xtick_3">
     <g id="line2d_5">
      <path clip-path="url(#pbf8cf6a777)" d="M 195.697814 128.92249 
L 195.697814 10.8 
" style="fill:none;stroke:#b0b0b0;stroke-linecap:square;stroke-width:0.8;"/>
     </g>
     <g id="line2d_6">
      <g>
       <use style="stroke:#000000;stroke-width:0.8;" x="195.697814" xlink:href="#m0c27a8a374" y="128.92249"/>
      </g>
     </g>
     <g id="text_3">
      <!-- $\mathdefault{10^{0}}$ -->
      <g transform="translate(186.897814 143.520928)scale(0.1 -0.1)">
       <use transform="translate(0 0.765625)" xlink:href="#DejaVuSans-49"/>
       <use transform="translate(63.623047 0.765625)" xlink:href="#DejaVuSans-48"/>
       <use transform="translate(128.203125 39.046875)scale(0.7)" xlink:href="#DejaVuSans-48"/>
      </g>
     </g>
    </g>
    <g id="text_4">
     <!-- f (Hz) -->
     <defs>
      <path d="M 37.109375 75.984375 
L 37.109375 68.5 
L 28.515625 68.5 
Q 23.6875 68.5 21.796875 66.546875 
Q 19.921875 64.59375 19.921875 59.515625 
L 19.921875 54.6875 
L 34.71875 54.6875 
L 34.71875 47.703125 
L 19.921875 47.703125 
L 19.921875 0 
L 10.890625 0 
L 10.890625 47.703125 
L 2.296875 47.703125 
L 2.296875 54.6875 
L 10.890625 54.6875 
L 10.890625 58.5 
Q 10.890625 67.625 15.140625 71.796875 
Q 19.390625 75.984375 28.609375 75.984375 
z
" id="DejaVuSans-102"/>
      <path id="DejaVuSans-32"/>
      <path d="M 31 75.875 
Q 24.46875 64.65625 21.28125 53.65625 
Q 18.109375 42.671875 18.109375 31.390625 
Q 18.109375 20.125 21.3125 9.0625 
Q 24.515625 -2 31 -13.1875 
L 23.1875 -13.1875 
Q 15.875 -1.703125 12.234375 9.375 
Q 8.59375 20.453125 8.59375 31.390625 
Q 8.59375 42.28125 12.203125 53.3125 
Q 15.828125 64.359375 23.1875 75.875 
z
" id="DejaVuSans-40"/>
      <path d="M 9.8125 72.90625 
L 19.671875 72.90625 
L 19.671875 43.015625 
L 55.515625 43.015625 
L 55.515625 72.90625 
L 65.375 72.90625 
L 65.375 0 
L 55.515625 0 
L 55.515625 34.71875 
L 19.671875 34.71875 
L 19.671875 0 
L 9.8125 0 
z
" id="DejaVuSans-72"/>
      <path d="M 5.515625 54.6875 
L 48.1875 54.6875 
L 48.1875 46.484375 
L 14.40625 7.171875 
L 48.1875 7.171875 
L 48.1875 0 
L 4.296875 0 
L 4.296875 8.203125 
L 38.09375 47.515625 
L 5.515625 47.515625 
z
" id="DejaVuSans-122"/>
      <path d="M 8.015625 75.875 
L 15.828125 75.875 
Q 23.140625 64.359375 26.78125 53.3125 
Q 30.421875 42.28125 30.421875 31.390625 
Q 30.421875 20.453125 26.78125 9.375 
Q 23.140625 -1.703125 15.828125 -13.1875 
L 8.015625 -13.1875 
Q 14.5 -2 17.703125 9.0625 
Q 20.90625 20.125 20.90625 31.390625 
Q 20.90625 42.671875 17.703125 53.65625 
Q 14.5 64.65625 8.015625 75.875 
z
" id="DejaVuSans-41"/>
     </defs>
     <g transform="translate(122.250671 157.199053)scale(0.1 -0.1)">
      <use xlink:href="#DejaVuSans-102"/>
      <use x="35.205078" xlink:href="#DejaVuSans-32"/>
      <use x="66.992188" xlink:href="#DejaVuSans-40"/>
      <use x="106.005859" xlink:href="#DejaVuSans-72"/>
      <use x="181.201172" xlink:href="#DejaVuSans-122"/>
      <use x="233.691406" xlink:href="#DejaVuSans-41"/>
     </g>
    </g>
   </g>
   <g id="matplotlib.axis_2">
    <g id="ytick_1">
     <g id="line2d_7">
      <path clip-path="url(#pbf8cf6a777)" d="M 55.8 97.7188 
L 215.971654 97.7188 
" style="fill:none;stroke:#b0b0b0;stroke-linecap:square;stroke-width:0.8;"/>
     </g>
     <g id="line2d_8">
      <defs>
       <path d="M 0 0 
L -3.5 0 
" id="md503287caf" style="stroke:#000000;stroke-width:0.8;"/>
      </defs>
      <g>
       <use style="stroke:#000000;stroke-width:0.8;" x="55.8" xlink:href="#md503287caf" y="97.7188"/>
      </g>
     </g>
     <g id="text_5">
      <!-- $\mathdefault{10^{-2}}$ -->
      <g transform="translate(25.3 101.518019)scale(0.1 -0.1)">
       <use transform="translate(0 0.765625)" xlink:href="#DejaVuSans-49"/>
       <use transform="translate(63.623047 0.765625)" xlink:href="#DejaVuSans-48"/>
       <use transform="translate(128.203125 39.046875)scale(0.7)" xlink:href="#DejaVuSans-8722"/>
       <use transform="translate(186.855469 39.046875)scale(0.7)" xlink:href="#DejaVuSans-50"/>
      </g>
     </g>
    </g>
    <g id="ytick_2">
     <g id="line2d_9">
      <path clip-path="url(#pbf8cf6a777)" d="M 55.8 62.35255 
L 215.971654 62.35255 
" style="fill:none;stroke:#b0b0b0;stroke-linecap:square;stroke-width:0.8;"/>
     </g>
     <g id="line2d_10">
      <g>
       <use style="stroke:#000000;stroke-width:0.8;" x="55.8" xlink:href="#md503287caf" y="62.35255"/>
      </g>
     </g>
     <g id="text_6">
      <!-- $\mathdefault{10^{0}}$ -->
      <g transform="translate(31.2 66.151769)scale(0.1 -0.1)">
       <use transform="translate(0 0.765625)" xlink:href="#DejaVuSans-49"/>
       <use transform="translate(63.623047 0.765625)" xlink:href="#DejaVuSans-48"/>
       <use transform="translate(128.203125 39.046875)scale(0.7)" xlink:href="#DejaVuSans-48"/>
      </g>
     </g>
    </g>
    <g id="ytick_3">
     <g id="line2d_11">
      <path clip-path="url(#pbf8cf6a777)" d="M 55.8 26.986299 
L 215.971654 26.986299 
" style="fill:none;stroke:#b0b0b0;stroke-linecap:square;stroke-width:0.8;"/>
     </g>
     <g id="line2d_12">
      <g>
       <use style="stroke:#000000;stroke-width:0.8;" x="55.8" xlink:href="#md503287caf" y="26.986299"/>
      </g>
     </g>
     <g id="text_7">
      <!-- $\mathdefault{10^{2}}$ -->
      <g transform="translate(31.2 30.785518)scale(0.1 -0.1)">
       <use transform="translate(0 0.765625)" xlink:href="#DejaVuSans-49"/>
       <use transform="translate(63.623047 0.765625)" xlink:href="#DejaVuSans-48"/>
       <use transform="translate(128.203125 39.046875)scale(0.7)" xlink:href="#DejaVuSans-50"/>
      </g>
     </g>
    </g>
    <g id="text_8">
     <!-- $S(f) (m^2/s)$ -->
     <defs>
      <path d="M 60.296875 70.515625 
L 58.40625 60.890625 
Q 53.46875 63.53125 48.609375 64.875 
Q 43.75 66.21875 39.203125 66.21875 
Q 30.375 66.21875 25.140625 62.359375 
Q 19.921875 58.5 19.921875 52.09375 
Q 19.921875 48.578125 21.84375 46.703125 
Q 23.78125 44.828125 31.78125 42.671875 
L 37.703125 41.21875 
Q 47.703125 38.625 51.609375 34.640625 
Q 55.515625 30.671875 55.515625 23.484375 
Q 55.515625 12.453125 46.84375 5.515625 
Q 38.1875 -1.421875 24.03125 -1.421875 
Q 18.21875 -1.421875 12.359375 -0.265625 
Q 6.5 0.875 0.59375 3.21875 
L 2.59375 13.375 
Q 8.015625 10.015625 13.453125 8.296875 
Q 18.890625 6.59375 24.3125 6.59375 
Q 33.546875 6.59375 39.109375 10.6875 
Q 44.671875 14.796875 44.671875 21.390625 
Q 44.671875 25.78125 42.453125 28.046875 
Q 40.234375 30.328125 32.90625 32.171875 
L 27 33.6875 
Q 16.890625 36.328125 13.203125 39.765625 
Q 9.515625 43.21875 9.515625 49.421875 
Q 9.515625 60.296875 17.890625 67.25 
Q 26.265625 74.21875 39.703125 74.21875 
Q 44.921875 74.21875 50.046875 73.28125 
Q 55.171875 72.359375 60.296875 70.515625 
z
" id="DejaVuSans-Oblique-83"/>
      <path d="M 47.796875 75.984375 
L 46.390625 68.5 
L 37.796875 68.5 
Q 32.90625 68.5 30.6875 66.578125 
Q 28.46875 64.65625 27.390625 59.515625 
L 26.421875 54.6875 
L 41.21875 54.6875 
L 39.890625 47.703125 
L 25.09375 47.703125 
L 15.828125 0 
L 6.78125 0 
L 16.109375 47.703125 
L 7.515625 47.703125 
L 8.796875 54.6875 
L 17.390625 54.6875 
L 18.109375 58.5 
Q 19.96875 68.171875 24.625 72.078125 
Q 29.296875 75.984375 39.3125 75.984375 
z
" id="DejaVuSans-Oblique-102"/>
      <path d="M 89.796875 33.015625 
L 83.40625 0 
L 74.421875 0 
L 80.71875 32.71875 
Q 81.109375 34.8125 81.296875 36.328125 
Q 81.5 37.84375 81.5 38.921875 
Q 81.5 43.3125 79.046875 45.75 
Q 76.609375 48.1875 72.21875 48.1875 
Q 65.671875 48.1875 60.546875 43.28125 
Q 55.421875 38.375 53.90625 30.515625 
L 47.90625 0 
L 38.921875 0 
L 45.3125 32.71875 
Q 45.703125 34.515625 45.890625 36.046875 
Q 46.09375 37.59375 46.09375 38.8125 
Q 46.09375 43.265625 43.65625 45.71875 
Q 41.21875 48.1875 36.921875 48.1875 
Q 30.28125 48.1875 25.140625 43.28125 
Q 20.015625 38.375 18.5 30.515625 
L 12.5 0 
L 3.515625 0 
L 14.203125 54.6875 
L 23.1875 54.6875 
L 21.484375 46.1875 
Q 25.140625 50.984375 30.046875 53.484375 
Q 34.96875 56 40.578125 56 
Q 46.53125 56 50.359375 52.875 
Q 54.203125 49.75 54.984375 44.1875 
Q 59.078125 49.953125 64.46875 52.96875 
Q 69.875 56 75.875 56 
Q 82.90625 56 86.734375 51.953125 
Q 90.578125 47.90625 90.578125 40.484375 
Q 90.578125 38.875 90.375 36.9375 
Q 90.1875 35.015625 89.796875 33.015625 
z
" id="DejaVuSans-Oblique-109"/>
      <path d="M 25.390625 72.90625 
L 33.6875 72.90625 
L 8.296875 -9.28125 
L 0 -9.28125 
z
" id="DejaVuSans-47"/>
      <path d="M 50 53.078125 
L 48.296875 44.578125 
Q 44.734375 46.53125 40.765625 47.5 
Q 36.8125 48.484375 32.625 48.484375 
Q 25.53125 48.484375 21.453125 46.0625 
Q 17.390625 43.65625 17.390625 39.5 
Q 17.390625 34.671875 26.859375 32.078125 
Q 27.59375 31.890625 27.9375 31.78125 
L 30.8125 30.90625 
Q 39.796875 28.421875 42.796875 25.6875 
Q 45.796875 22.953125 45.796875 18.21875 
Q 45.796875 9.515625 38.890625 4.046875 
Q 31.984375 -1.421875 20.796875 -1.421875 
Q 16.453125 -1.421875 11.671875 -0.578125 
Q 6.890625 0.25 1.125 2 
L 2.875 11.28125 
Q 7.8125 8.734375 12.59375 7.421875 
Q 17.390625 6.109375 21.78125 6.109375 
Q 28.375 6.109375 32.5 8.9375 
Q 36.625 11.765625 36.625 16.109375 
Q 36.625 20.796875 25.78125 23.6875 
L 24.859375 23.921875 
L 21.78125 24.703125 
Q 14.9375 26.515625 11.765625 29.46875 
Q 8.59375 32.421875 8.59375 37.015625 
Q 8.59375 45.75 15.15625 50.875 
Q 21.734375 56 33.015625 56 
Q 37.453125 56 41.671875 55.265625 
Q 45.90625 54.546875 50 53.078125 
z
" id="DejaVuSans-Oblique-115"/>
     </defs>
     <g transform="translate(19.220312 94.361245)rotate(-90)scale(0.1 -0.1)">
      <use transform="translate(0 0.765625)" xlink:href="#DejaVuSans-Oblique-83"/>
      <use transform="translate(63.476562 0.765625)" xlink:href="#DejaVuSans-40"/>
      <use transform="translate(102.490234 0.765625)" xlink:href="#DejaVuSans-Oblique-102"/>
      <use transform="translate(137.695312 0.765625)" xlink:href="#DejaVuSans-41"/>
      <use transform="translate(176.708984 0.765625)" xlink:href="#DejaVuSans-40"/>
      <use transform="translate(215.722656 0.765625)" xlink:href="#DejaVuSans-Oblique-109"/>
      <use transform="translate(317.784661 39.046875)scale(0.7)" xlink:href="#DejaVuSans-50"/>
      <use transform="translate(365.055169 0.765625)" xlink:href="#DejaVuSans-47"/>
      <use transform="translate(398.746576 0.765625)" xlink:href="#DejaVuSans-Oblique-115"/>
      <use transform="translate(450.846185 0.765625)" xlink:href="#DejaVuSans-41"/>
     </g>
    </g>
   </g>
   <g id="line2d_13">
    <path clip-path="url(#pbf8cf6a777)" d="M 118.480591 46.621545 
L 126.682069 62.282886 
L 131.479626 49.757836 
L 134.883547 29.555337 
L 137.523833 25.145105 
L 139.681104 21.149386 
L 141.505051 26.546922 
L 143.085025 26.011502 
L 144.478661 16.169204 
L 145.725311 17.653297 
L 146.853043 27.864066 
L 147.882582 27.269297 
L 148.829666 24.786707 
L 149.706529 38.879155 
L 150.522868 45.968606 
L 151.286503 38.260282 
L 152.003828 37.197654 
L 152.680139 37.717175 
L 153.319875 50.764297 
L 153.926789 28.196991 
L 154.504086 25.519786 
L 155.054521 18.011351 
L 155.580485 20.574118 
L 156.08406 17.571977 
L 156.567075 16.386393 
L 157.031144 21.718696 
L 157.477696 23.562533 
L 157.908007 26.632628 
L 158.323215 45.610631 
L 158.724346 24.963669 
L 159.112323 19.857339 
L 159.487981 26.611532 
L 159.852078 27.84473 
L 160.205306 19.187383 
L 160.548293 29.946192 
L 160.881617 82.113071 
L 161.205808 33.09967 
L 161.521353 23.277363 
L 162.128267 30.009671 
L 162.420436 38.256453 
L 162.705564 26.62939 
L 162.983982 22.087931 
L 163.255999 32.092579 
L 163.521903 32.519309 
L 163.781963 31.075767 
L 164.036429 36.078262 
L 164.285538 44.286653 
L 164.52951 43.767653 
L 164.768553 33.038568 
L 165.002863 31.295822 
L 165.232622 30.497094 
L 165.458005 56.228765 
L 166.109485 24.229086 
L 166.524693 31.113765 
L 166.726959 43.979426 
L 166.925824 64.370491 
L 167.121403 35.646506 
L 167.313801 24.934043 
L 167.503121 34.711199 
L 167.689459 50.658861 
L 167.872908 32.41365 
L 168.053557 28.95885 
L 168.406784 30.788895 
L 168.57952 35.529202 
L 168.749771 34.400394 
L 168.917607 26.407049 
L 169.083095 27.498128 
L 169.407286 40.635923 
L 169.566111 35.716915 
L 169.722831 35.343228 
L 169.877503 37.772046 
L 170.18091 36.617625 
L 170.329745 49.495047 
L 170.621914 31.11561 
L 170.907042 42.485589 
L 171.04707 32.612677 
L 171.18546 31.759048 
L 171.32225 29.0615 
L 171.723381 31.903595 
L 171.983441 29.836092 
L 172.111358 30.53808 
L 172.237907 39.224887 
L 172.363117 38.208282 
L 172.487016 31.032044 
L 172.730988 39.565459 
L 173.087766 31.047975 
L 173.319778 40.90346 
L 173.4341 37.049973 
L 173.547328 44.197512 
L 173.659483 75.520207 
L 173.880652 37.341748 
L 174.097764 32.243071 
L 174.310963 41.094208 
L 174.520388 32.550279 
L 174.623727 32.555547 
L 174.928437 38.487152 
L 175.028287 49.6127 
L 175.127302 48.364935 
L 175.322881 34.727027 
L 175.419471 42.178361 
L 175.515279 41.255024 
L 175.610318 40.725547 
L 175.704599 37.264526 
L 175.798135 38.747951 
L 175.890937 34.987723 
L 175.983017 35.477833 
L 176.165055 45.396745 
L 176.255035 40.923496 
L 176.432966 49.622036 
L 176.520939 78.020594 
L 176.86643 38.869633 
L 176.951249 34.800418 
L 177.119085 45.30287 
L 177.202118 43.591481 
L 177.284573 72.774477 
L 177.447779 40.481548 
L 177.528545 52.568656 
L 177.608764 41.190839 
L 177.688443 48.944178 
L 177.924309 38.663268 
L 178.001898 35.88593 
L 178.078981 38.747747 
L 178.231657 54.644911 
L 178.382388 46.992464 
L 178.45704 39.587332 
L 178.531223 42.502002 
L 178.604945 41.445595 
L 178.751023 64.880568 
L 178.895321 50.10996 
L 178.966815 47.401918 
L 179.10852 38.407104 
L 179.178741 38.851076 
L 179.248548 38.259628 
L 179.455531 53.188451 
L 179.523728 41.420501 
L 179.591535 46.429666 
L 179.792654 42.292772 
L 179.858942 49.740056 
L 179.924859 46.219251 
L 180.055604 51.689949 
L 180.120438 43.124302 
L 180.184919 43.794975 
L 180.37628 67.757141 
L 180.439385 45.281643 
L 180.502156 47.096999 
L 180.626707 59.503112 
L 180.688494 56.356804 
L 180.871943 48.92433 
L 180.992681 56.378953 
L 181.052592 44.042017 
L 181.1122 46.571852 
L 181.17151 46.840985 
L 181.230523 41.085437 
L 181.347675 58.772165 
L 181.405819 57.918167 
L 181.521256 45.892908 
L 181.635578 52.202813 
L 181.692327 51.574461 
L 181.748806 59.793068 
L 181.860961 40.406297 
L 181.972062 50.418298 
L 182.027224 44.196554 
L 182.08213 49.441688 
L 182.136783 62.099157 
L 182.191184 53.671151 
L 182.406321 40.984784 
L 182.4595 41.154407 
L 182.565146 51.38311 
L 182.617617 44.229472 
L 182.669856 44.097327 
L 182.721866 52.126099 
L 182.825205 51.122658 
L 182.876538 53.334852 
L 182.927649 43.18697 
L 182.978541 46.680365 
L 183.129915 64.725795 
L 183.229765 47.401727 
L 183.279376 48.368181 
L 183.32878 50.682239 
L 183.426974 42.46258 
L 183.475767 43.146995 
L 183.572753 48.061243 
L 183.620949 47.667184 
L 183.66895 53.631057 
L 183.716757 53.460405 
L 183.764372 49.33877 
L 183.85903 49.533381 
L 183.906077 63.644999 
L 183.999613 63.256282 
L 184.046105 48.653043 
L 184.092415 52.641475 
L 184.138545 54.821233 
L 184.184495 45.764533 
L 184.230268 53.284208 
L 184.366533 83.249353 
L 184.545813 44.969115 
L 184.590211 45.227717 
L 184.678512 43.262078 
L 184.766159 51.555359 
L 184.80974 43.81863 
L 184.896423 47.270896 
L 184.982476 67.752537 
L 185.025269 66.465094 
L 185.152727 43.801171 
L 185.19491 48.348798 
L 185.278827 46.464582 
L 185.320563 48.76881 
L 185.486051 69.673897 
L 185.649257 46.061664 
L 185.689709 47.82997 
L 185.730023 47.157671 
L 185.92956 86.221515 
L 186.086801 48.290011 
L 186.125787 50.512973 
L 186.203376 82.535126 
L 186.24198 58.524373 
L 186.280459 47.721009 
L 186.357043 48.376491 
L 186.433135 76.979002 
L 186.470998 56.087949 
L 186.508741 45.816185 
L 186.546363 50.351244 
L 186.583866 67.622465 
L 186.658518 53.012076 
L 186.695668 53.397159 
L 186.732701 53.010291 
L 186.769619 74.96983 
L 186.843112 59.142906 
L 186.952501 62.898857 
L 187.1326 48.411403 
L 187.168293 48.678818 
L 187.239357 76.755951 
L 187.345161 66.375886 
L 187.380219 50.890836 
L 187.484776 53.296722 
L 187.519423 48.91621 
L 187.622762 49.682065 
L 187.691157 52.03458 
L 187.725206 51.240841 
L 187.826771 48.053633 
L 187.894 83.718495 
L 187.927472 72.557604 
L 188.06042 49.466358 
L 188.159159 51.841949 
L 188.19189 58.718098 
L 188.224531 55.714718 
L 188.257082 47.198847 
L 188.3542 48.653827 
L 188.418506 64.00941 
L 188.450529 58.924719 
L 188.482464 47.897648 
L 188.546079 57.339718 
L 188.609353 59.66157 
L 188.640863 53.291237 
L 188.703634 54.675226 
L 188.734895 63.021306 
L 188.766073 50.23552 
L 188.79717 47.88224 
L 188.859119 50.883102 
L 188.920745 67.038931 
L 188.951439 56.744324 
L 188.982052 49.199926 
L 189.073421 49.479153 
L 189.194159 62.338142 
L 189.224152 57.286888 
L 189.283911 60.771668 
L 189.372988 52.423173 
L 189.34337 65.197374 
L 189.402531 53.855637 
L 189.549153 79.85787 
L 189.69398 49.398429 
L 189.751418 65.836808 
L 189.780033 84.013473 
L 189.837056 78.952301 
L 189.922078 49.716466 
L 189.978423 60.165822 
L 190.006494 51.983993 
L 190.090312 55.83239 
L 190.145863 60.022074 
L 190.283608 49.433789 
L 190.338261 77.271753 
L 190.392662 58.042613 
L 190.446814 51.337671 
L 190.473798 64.276548 
L 190.527581 58.289578 
L 190.554381 82.438361 
L 190.634419 58.121666 
L 190.660978 55.958199 
L 190.713919 89.801242 
L 190.740301 59.36442 
L 190.766624 51.571839 
L 190.819095 58.037406 
L 190.845243 73.926825 
L 190.897368 52.843387 
L 190.923344 50.958303 
L 190.949264 51.517992 
L 191.052378 76.672197 
L 191.078016 61.819576 
L 191.103599 50.793456 
L 191.180019 57.939606 
L 191.205383 57.707265 
L 191.230692 50.487974 
L 191.306298 51.91638 
L 191.40636 72.427915 
L 191.480854 61.287493 
L 191.505582 50.987375 
L 191.60398 54.583336 
L 191.628452 52.859737 
L 191.677245 55.117047 
L 191.725837 59.992536 
L 191.774231 54.074109 
L 191.822427 52.748237 
L 191.942066 78.165494 
L 191.989586 57.44309 
L 192.036915 78.798128 
L 192.060508 68.445613 
L 192.107555 52.041159 
L 192.154415 66.437991 
L 192.177776 67.855365 
L 192.201091 67.523393 
L 192.247583 54.898427 
L 192.293893 60.860278 
L 192.31698 103.478893 
L 192.385973 58.578888 
L 192.408882 63.18176 
L 192.454566 56.443994 
L 192.500075 61.337102 
L 192.545409 54.356543 
L 192.613086 60.490427 
L 192.63556 59.904019 
L 192.657991 63.016469 
L 192.680379 53.515191 
L 192.702725 53.444199 
L 192.79169 92.009409 
L 192.857977 75.118215 
L 192.923895 62.521655 
L 192.945786 64.45429 
L 192.967637 95.883639 
L 193.032948 63.269432 
L 193.141006 54.584353 
L 193.097901 63.430633 
L 193.162499 56.930121 
L 193.20537 77.557499 
L 193.290648 68.779011 
L 193.354205 55.513118 
L 193.375315 59.197338 
L 193.396388 79.319916 
L 193.459381 53.186689 
L 193.480305 53.459041 
L 193.584371 81.149591 
L 193.605074 71.78516 
L 193.728542 52.860935 
L 193.810144 60.129292 
L 193.830457 55.352698 
L 193.850735 53.993954 
L 193.870978 58.404822 
L 193.911362 105.678231 
L 193.971679 63.930399 
L 193.991717 61.825804 
L 194.01172 70.7135 
L 194.03169 71.140923 
L 194.07153 55.312633 
L 194.150808 57.965496 
L 194.229558 53.893641 
L 194.268738 74.90603 
L 194.288279 74.971578 
L 194.404854 59.493098 
L 194.424172 71.802389 
L 194.50113 65.668961 
L 194.539422 54.823145 
L 194.596628 68.141201 
L 194.65356 86.529843 
L 194.691363 66.389936 
L 194.710219 62.313947 
L 194.729045 77.012693 
L 194.766608 72.181025 
L 194.785344 76.755694 
L 194.822729 67.703826 
L 194.859996 74.764696 
L 194.897146 60.791427 
L 194.934179 90.922914 
L 194.952653 93.305091 
L 195.026259 58.712072 
L 195.062892 70.895855 
L 195.226348 55.462649 
L 195.262367 55.667762 
L 195.280336 54.497742 
L 195.316191 58.540444 
L 195.351938 79.833578 
L 195.423109 56.370089 
L 195.493855 77.210012 
L 195.564181 70.15419 
L 195.581697 69.253201 
L 195.651504 86.131399 
L 195.720901 55.742718 
L 195.755448 75.749918 
L 195.841376 61.462092 
L 195.875573 69.708277 
L 195.892635 68.206343 
L 195.909672 76.213548 
L 195.977576 56.712638 
L 196.045092 80.141146 
L 196.12895 73.703612 
L 196.162327 58.891199 
L 196.2288 67.078824 
L 196.294902 60.925089 
L 196.344238 79.857342 
L 196.393368 55.555997 
L 196.474802 62.544622 
L 196.523394 85.755213 
L 196.571788 61.025633 
L 196.587875 59.090874 
L 196.619984 65.9628 
L 196.652007 90.802073 
L 196.715792 56.283024 
L 196.747557 74.771697 
L 196.826597 61.818108 
L 196.889451 56.759778 
L 196.920753 59.603133 
L 196.967551 56.966064 
L 197.04514 104.974665 
L 197.076034 57.116008 
L 197.152917 107.550667 
L 197.168233 74.909627 
L 197.18353 60.051263 
L 197.214065 81.551746 
L 197.290059 60.280231 
L 197.350505 84.772649 
L 197.395637 58.878464 
L 197.455548 57.87899 
L 197.485389 84.164469 
L 197.559666 60.620225 
L 197.574466 57.765129 
L 197.589247 62.670853 
L 197.604009 74.935398 
L 197.677547 57.471512 
L 197.6922 65.221769 
L 197.706835 66.552559 
L 197.721452 59.86661 
L 197.73605 60.475731 
L 197.750631 59.630229 
L 197.765194 60.544242 
L 197.794266 81.766461 
L 197.866634 67.754192 
L 197.881055 57.460371 
L 197.967212 69.764122 
L 198.010057 57.442735 
L 198.052747 71.605498 
L 198.095284 65.817441 
L 198.16584 75.532228 
L 198.137668 59.529657 
L 198.193945 62.958764 
L 198.207972 58.852637 
L 198.249955 71.23888 
L 198.263917 77.819312 
L 198.319598 61.34497 
L 198.333477 62.375298 
L 198.375018 60.145292 
L 198.471384 75.309511 
L 198.553363 58.761423 
L 198.512444 80.969001 
L 198.59414 62.742681 
L 198.648292 94.17763 
L 198.702198 69.255776 
L 198.769236 58.415125 
L 198.742466 77.572946 
L 198.822595 62.105692 
L 198.875713 90.40097 
L 198.915397 61.981366 
L 198.941779 74.423239 
L 198.968102 58.900298 
L 198.994366 83.690845 
L 199.059774 67.590174 
L 199.072812 84.591692 
L 199.176605 78.781334 
L 199.202411 59.008456 
L 199.241015 85.249552 
L 199.292293 68.685299 
L 199.343349 60.500671 
L 199.356078 66.246932 
L 199.368794 72.765387 
L 199.419522 60.365948 
L 199.457426 65.039693 
L 199.557912 59.846725 
L 199.495208 74.180089 
L 199.570414 59.937343 
L 199.682332 87.659577 
L 199.694703 72.983372 
L 199.70706 72.519261 
L 199.719405 73.049418 
L 199.744055 59.754831 
L 199.780935 83.599487 
L 199.82993 64.669011 
L 199.842147 80.027476 
L 199.890889 59.568905 
L 199.939432 74.611774 
L 199.951537 74.490605 
L 200.035924 60.224421 
L 199.987776 93.619406 
L 200.071906 60.289008 
L 200.119713 69.998921 
L 200.214752 68.75053 
L 200.226578 60.255252 
L 200.273765 69.565971 
L 200.332486 60.922415 
L 200.355893 79.798325 
L 200.379254 60.485712 
L 200.437455 66.696828 
L 200.449061 60.761187 
L 200.495371 75.532813 
L 200.529985 70.858146 
L 200.553005 71.785911 
L 200.633224 87.715122 
L 200.667438 61.086773 
L 200.712903 75.240457 
L 200.780774 62.686727 
L 200.881857 88.203136 
L 200.837038 60.837425 
L 200.904203 68.303773 
L 200.948769 60.74648 
L 200.959884 71.409026 
L 200.970989 98.3065 
L 201.059455 60.95235 
L 201.114412 91.225557 
L 201.169115 79.013724 
L 201.190925 62.023068 
L 201.266947 80.488269 
L 201.288578 64.330174 
L 201.331722 78.707973 
L 201.363977 62.27751 
L 201.396145 73.298732 
L 201.417541 61.411893 
L 201.470864 84.044915 
L 201.513349 64.334225 
L 201.534535 92.756045 
L 201.597866 62.083859 
L 201.618901 73.292253 
L 201.639899 61.316814 
L 201.73393 67.770263 
L 201.744332 61.859767 
L 201.82722 71.860127 
L 201.83754 70.240899 
L 201.93002 62.599367 
L 201.899274 71.927751 
L 201.950474 64.222325 
L 202.082565 99.848645 
L 202.092665 97.690296 
L 202.11284 64.158695 
L 202.213198 70.328237 
L 202.243141 74.035698 
L 202.253105 73.620663 
L 202.26306 112.937552 
L 202.352286 64.977995 
L 202.362158 70.660179 
L 202.391727 110.109307 
L 202.450642 65.709231 
L 202.460433 66.668608 
L 202.479991 79.620624 
L 202.499516 65.608688 
L 202.567601 73.202679 
L 202.577296 123.553286 
L 202.654568 63.580844 
L 202.673807 91.878049 
L 202.702608 63.522124 
L 202.798106 70.369462 
L 202.817114 105.010723 
L 202.836091 63.436547 
L 202.902272 64.737403 
L 202.99618 86.328234 
L 202.949319 64.077573 
L 203.005529 70.910588 
L 203.014872 62.750539 
L 203.089347 93.940519 
L 203.117155 66.289844 
L 203.163357 86.567301 
L 203.227737 75.228362 
L 203.255222 64.385731 
L 203.27351 81.742119 
L 203.382648 67.540833 
L 203.40074 96.510913 
L 203.418804 67.086402 
L 203.490788 67.497692 
L 203.499755 64.038873 
L 203.517669 75.728385 
L 203.535556 73.438307 
L 203.544489 100.689832 
L 203.606835 64.278419 
L 203.642313 67.051412 
L 203.668853 103.333966 
L 203.748117 80.039976 
L 203.756891 66.306312 
L 203.77442 104.584439 
L 203.844279 92.439026 
L 203.852982 106.452504 
L 203.913727 65.437285 
L 203.948299 82.43558 
L 203.965547 99.017625 
L 203.98277 65.445265 
L 204.042854 71.853846 
L 204.051413 73.421011 
L 204.059965 113.437945 
L 204.119659 67.522276 
L 204.162114 76.126514 
L 204.221297 66.625849 
L 204.179054 96.662977 
L 204.24657 76.546503 
L 204.254983 96.267037 
L 204.280185 65.470005 
L 204.347128 74.245245 
L 204.430278 64.642455 
L 204.372135 115.269763 
L 204.45511 67.638507 
L 204.512848 87.948055 
L 204.553918 66.320464 
L 204.586672 86.484132 
L 204.660038 94.052409 
L 204.708697 65.546486 
L 204.724872 103.921852 
L 204.797389 65.18686 
L 204.821462 75.617396 
L 204.829476 66.237218 
L 204.845487 83.833312 
L 204.91727 75.727794 
L 204.988621 108.10637 
L 205.020194 66.830228 
L 205.098762 83.97486 
L 205.08309 65.519708 
L 205.145653 74.339475 
L 205.15345 66.713788 
L 205.200126 92.308924 
L 205.246618 77.08678 
L 205.254349 96.758164 
L 205.316016 70.604546 
L 205.354395 71.694131 
L 205.369711 68.930052 
L 205.392649 75.307664 
L 205.491537 66.812049 
L 205.506678 81.796339 
L 205.597115 70.369737 
L 205.5369 97.149277 
L 205.612121 80.089277 
L 205.627108 96.186421 
L 205.694316 72.819941 
L 205.709199 74.776359 
L 205.746326 69.733559 
L 205.724064 90.032305 
L 205.798108 76.219731 
L 205.864354 106.669105 
L 205.827597 65.889238 
L 205.915624 88.052057 
L 205.944821 97.920427 
L 205.995744 66.322005 
L 206.010253 83.66094 
L 206.046448 66.23859 
L 206.082533 86.287718 
L 206.12569 70.558282 
L 206.190132 68.75917 
L 206.247121 91.534441 
L 206.261325 70.141575 
L 206.35324 82.367848 
L 206.360281 90.533499 
L 206.416458 69.755387 
L 206.451433 76.663701 
L 206.458416 66.821962 
L 206.50718 90.693232 
L 206.555744 68.170638 
L 206.597212 123.538775 
L 206.659143 66.745413 
L 206.679715 91.714736 
L 206.782041 67.248292 
L 206.795618 83.910363 
L 206.896951 67.240468 
L 206.822725 90.591311 
L 206.917114 69.772592 
L 206.923827 67.299311 
L 206.937242 83.056039 
L 206.970714 82.459433 
L 206.977397 106.024283 
L 207.063934 69.251636 
L 207.077191 81.873093 
L 207.090434 68.22131 
L 207.143257 87.513894 
L 207.195844 72.446213 
L 207.235132 92.582234 
L 207.215505 67.365998 
L 207.306823 73.125808 
L 207.3263 82.536886 
L 207.35222 68.079109 
L 207.410332 73.563361 
L 207.423207 70.247687 
L 207.442493 87.306033 
L 207.500165 83.239747 
L 207.589321 96.795585 
L 207.519326 71.255893 
L 207.595664 77.940471 
L 207.602003 78.115272 
L 207.608339 76.525988 
L 207.684106 68.430569 
L 207.702972 93.257019 
L 207.709254 78.745882 
L 207.784379 94.609837 
L 207.771892 68.728858 
L 207.821764 86.625672 
L 207.889997 101.832965 
L 207.871427 69.588472 
L 207.914712 76.275513 
L 207.920883 76.824843 
L 207.92705 97.71816 
L 207.988548 68.522199 
L 208.025295 73.698294 
L 208.092367 88.034367 
L 208.049729 68.555858 
L 208.098446 79.094643 
L 208.104522 68.626054 
L 208.171148 106.56064 
L 208.201309 75.114475 
L 208.219369 86.70953 
L 208.267395 68.849064 
L 208.303286 74.255212 
L 208.309258 68.947327 
L 208.333113 107.511325 
L 208.41623 71.077828 
L 208.49289 100.597255 
L 208.439871 71.002427 
L 208.53982 92.585638 
L 208.638933 69.532144 
L 208.621503 104.385327 
L 208.662134 73.440594 
L 208.667927 70.758818 
L 208.679504 77.138611 
L 208.69107 73.87933 
" style="fill:none;stroke:#000000;stroke-linecap:square;stroke-width:0.5;"/>
   </g>
   <g id="line2d_14">
    <path clip-path="url(#pbf8cf6a777)" d="M 63.08053 78.163657 
L 126.736721 36.988693 
L 134.910905 32.09235 
L 139.69935 29.63112 
L 143.098712 28.266155 
L 145.736262 27.543154 
L 147.891708 27.235763 
L 149.714352 27.208553 
L 151.293348 27.372861 
L 153.32564 27.850996 
L 155.0595 28.494408 
L 157.035357 29.477369 
L 159.115857 30.770843 
L 161.524236 32.547348 
L 164.28782 34.874714 
L 167.874594 38.218632 
L 172.610761 42.971621 
L 179.991017 50.733696 
L 196.278564 68.267863 
L 208.691124 81.690016 
L 208.691124 81.690016 
" style="fill:none;stroke:#ff0000;stroke-dasharray:7.4,3.2;stroke-dashoffset:0;stroke-width:2;"/>
   </g>
   <g id="patch_3">
    <path d="M 55.8 128.92249 
L 55.8 10.8 
" style="fill:none;stroke:#000000;stroke-linecap:square;stroke-linejoin:miter;stroke-width:0.8;"/>
   </g>
   <g id="patch_4">
    <path d="M 215.971654 128.92249 
L 215.971654 10.8 
" style="fill:none;stroke:#000000;stroke-linecap:square;stroke-linejoin:miter;stroke-width:0.8;"/>
   </g>
   <g id="patch_5">
    <path d="M 55.8 128.92249 
L 215.971654 128.92249 
" style="fill:none;stroke:#000000;stroke-linecap:square;stroke-linejoin:miter;stroke-width:0.8;"/>
   </g>
   <g id="patch_6">
    <path d="M 55.8 10.8 
L 215.971654 10.8 
" style="fill:none;stroke:#000000;stroke-linecap:square;stroke-linejoin:miter;stroke-width:0.8;"/>
   </g>
   <g id="legend_1">
    <g id="patch_7">
     <path d="M 62.8 123.92249 
L 144.19375 123.92249 
Q 146.19375 123.92249 146.19375 121.92249 
L 146.19375 93.56624 
Q 146.19375 91.56624 144.19375 91.56624 
L 62.8 91.56624 
Q 60.8 91.56624 60.8 93.56624 
L 60.8 121.92249 
Q 60.8 123.92249 62.8 123.92249 
z
" style="fill:#ffffff;opacity:0.8;stroke:#cccccc;stroke-linejoin:miter;"/>
    </g>
    <g id="line2d_15">
     <path d="M 64.8 99.664678 
L 84.8 99.664678 
" style="fill:none;stroke:#000000;stroke-linecap:square;stroke-width:0.5;"/>
    </g>
    <g id="line2d_16"/>
    <g id="text_9">
     <!-- simulated -->
     <defs>
      <path d="M 44.28125 53.078125 
L 44.28125 44.578125 
Q 40.484375 46.53125 36.375 47.5 
Q 32.28125 48.484375 27.875 48.484375 
Q 21.1875 48.484375 17.84375 46.4375 
Q 14.5 44.390625 14.5 40.28125 
Q 14.5 37.15625 16.890625 35.375 
Q 19.28125 33.59375 26.515625 31.984375 
L 29.59375 31.296875 
Q 39.15625 29.25 43.1875 25.515625 
Q 47.21875 21.78125 47.21875 15.09375 
Q 47.21875 7.46875 41.1875 3.015625 
Q 35.15625 -1.421875 24.609375 -1.421875 
Q 20.21875 -1.421875 15.453125 -0.5625 
Q 10.6875 0.296875 5.421875 2 
L 5.421875 11.28125 
Q 10.40625 8.6875 15.234375 7.390625 
Q 20.0625 6.109375 24.8125 6.109375 
Q 31.15625 6.109375 34.5625 8.28125 
Q 37.984375 10.453125 37.984375 14.40625 
Q 37.984375 18.0625 35.515625 20.015625 
Q 33.0625 21.96875 24.703125 23.78125 
L 21.578125 24.515625 
Q 13.234375 26.265625 9.515625 29.90625 
Q 5.8125 33.546875 5.8125 39.890625 
Q 5.8125 47.609375 11.28125 51.796875 
Q 16.75 56 26.8125 56 
Q 31.78125 56 36.171875 55.265625 
Q 40.578125 54.546875 44.28125 53.078125 
z
" id="DejaVuSans-115"/>
      <path d="M 9.421875 54.6875 
L 18.40625 54.6875 
L 18.40625 0 
L 9.421875 0 
z
M 9.421875 75.984375 
L 18.40625 75.984375 
L 18.40625 64.59375 
L 9.421875 64.59375 
z
" id="DejaVuSans-105"/>
      <path d="M 52 44.1875 
Q 55.375 50.25 60.0625 53.125 
Q 64.75 56 71.09375 56 
Q 79.640625 56 84.28125 50.015625 
Q 88.921875 44.046875 88.921875 33.015625 
L 88.921875 0 
L 79.890625 0 
L 79.890625 32.71875 
Q 79.890625 40.578125 77.09375 44.375 
Q 74.3125 48.1875 68.609375 48.1875 
Q 61.625 48.1875 57.5625 43.546875 
Q 53.515625 38.921875 53.515625 30.90625 
L 53.515625 0 
L 44.484375 0 
L 44.484375 32.71875 
Q 44.484375 40.625 41.703125 44.40625 
Q 38.921875 48.1875 33.109375 48.1875 
Q 26.21875 48.1875 22.15625 43.53125 
Q 18.109375 38.875 18.109375 30.90625 
L 18.109375 0 
L 9.078125 0 
L 9.078125 54.6875 
L 18.109375 54.6875 
L 18.109375 46.1875 
Q 21.1875 51.21875 25.484375 53.609375 
Q 29.78125 56 35.6875 56 
Q 41.65625 56 45.828125 52.96875 
Q 50 49.953125 52 44.1875 
z
" id="DejaVuSans-109"/>
      <path d="M 8.5 21.578125 
L 8.5 54.6875 
L 17.484375 54.6875 
L 17.484375 21.921875 
Q 17.484375 14.15625 20.5 10.265625 
Q 23.53125 6.390625 29.59375 6.390625 
Q 36.859375 6.390625 41.078125 11.03125 
Q 45.3125 15.671875 45.3125 23.6875 
L 45.3125 54.6875 
L 54.296875 54.6875 
L 54.296875 0 
L 45.3125 0 
L 45.3125 8.40625 
Q 42.046875 3.421875 37.71875 1 
Q 33.40625 -1.421875 27.6875 -1.421875 
Q 18.265625 -1.421875 13.375 4.4375 
Q 8.5 10.296875 8.5 21.578125 
z
M 31.109375 56 
z
" id="DejaVuSans-117"/>
      <path d="M 9.421875 75.984375 
L 18.40625 75.984375 
L 18.40625 0 
L 9.421875 0 
z
" id="DejaVuSans-108"/>
      <path d="M 34.28125 27.484375 
Q 23.390625 27.484375 19.1875 25 
Q 14.984375 22.515625 14.984375 16.5 
Q 14.984375 11.71875 18.140625 8.90625 
Q 21.296875 6.109375 26.703125 6.109375 
Q 34.1875 6.109375 38.703125 11.40625 
Q 43.21875 16.703125 43.21875 25.484375 
L 43.21875 27.484375 
z
M 52.203125 31.203125 
L 52.203125 0 
L 43.21875 0 
L 43.21875 8.296875 
Q 40.140625 3.328125 35.546875 0.953125 
Q 30.953125 -1.421875 24.3125 -1.421875 
Q 15.921875 -1.421875 10.953125 3.296875 
Q 6 8.015625 6 15.921875 
Q 6 25.140625 12.171875 29.828125 
Q 18.359375 34.515625 30.609375 34.515625 
L 43.21875 34.515625 
L 43.21875 35.40625 
Q 43.21875 41.609375 39.140625 45 
Q 35.0625 48.390625 27.6875 48.390625 
Q 23 48.390625 18.546875 47.265625 
Q 14.109375 46.140625 10.015625 43.890625 
L 10.015625 52.203125 
Q 14.9375 54.109375 19.578125 55.046875 
Q 24.21875 56 28.609375 56 
Q 40.484375 56 46.34375 49.84375 
Q 52.203125 43.703125 52.203125 31.203125 
z
" id="DejaVuSans-97"/>
      <path d="M 18.3125 70.21875 
L 18.3125 54.6875 
L 36.8125 54.6875 
L 36.8125 47.703125 
L 18.3125 47.703125 
L 18.3125 18.015625 
Q 18.3125 11.328125 20.140625 9.421875 
Q 21.96875 7.515625 27.59375 7.515625 
L 36.8125 7.515625 
L 36.8125 0 
L 27.59375 0 
Q 17.1875 0 13.234375 3.875 
Q 9.28125 7.765625 9.28125 18.015625 
L 9.28125 47.703125 
L 2.6875 47.703125 
L 2.6875 54.6875 
L 9.28125 54.6875 
L 9.28125 70.21875 
z
" id="DejaVuSans-116"/>
      <path d="M 56.203125 29.59375 
L 56.203125 25.203125 
L 14.890625 25.203125 
Q 15.484375 15.921875 20.484375 11.0625 
Q 25.484375 6.203125 34.421875 6.203125 
Q 39.59375 6.203125 44.453125 7.46875 
Q 49.3125 8.734375 54.109375 11.28125 
L 54.109375 2.78125 
Q 49.265625 0.734375 44.1875 -0.34375 
Q 39.109375 -1.421875 33.890625 -1.421875 
Q 20.796875 -1.421875 13.15625 6.1875 
Q 5.515625 13.8125 5.515625 26.8125 
Q 5.515625 40.234375 12.765625 48.109375 
Q 20.015625 56 32.328125 56 
Q 43.359375 56 49.78125 48.890625 
Q 56.203125 41.796875 56.203125 29.59375 
z
M 47.21875 32.234375 
Q 47.125 39.59375 43.09375 43.984375 
Q 39.0625 48.390625 32.421875 48.390625 
Q 24.90625 48.390625 20.390625 44.140625 
Q 15.875 39.890625 15.1875 32.171875 
z
" id="DejaVuSans-101"/>
      <path d="M 45.40625 46.390625 
L 45.40625 75.984375 
L 54.390625 75.984375 
L 54.390625 0 
L 45.40625 0 
L 45.40625 8.203125 
Q 42.578125 3.328125 38.25 0.953125 
Q 33.9375 -1.421875 27.875 -1.421875 
Q 17.96875 -1.421875 11.734375 6.484375 
Q 5.515625 14.40625 5.515625 27.296875 
Q 5.515625 40.1875 11.734375 48.09375 
Q 17.96875 56 27.875 56 
Q 33.9375 56 38.25 53.625 
Q 42.578125 51.265625 45.40625 46.390625 
z
M 14.796875 27.296875 
Q 14.796875 17.390625 18.875 11.75 
Q 22.953125 6.109375 30.078125 6.109375 
Q 37.203125 6.109375 41.296875 11.75 
Q 45.40625 17.390625 45.40625 27.296875 
Q 45.40625 37.203125 41.296875 42.84375 
Q 37.203125 48.484375 30.078125 48.484375 
Q 22.953125 48.484375 18.875 42.84375 
Q 14.796875 37.203125 14.796875 27.296875 
z
" id="DejaVuSans-100"/>
     </defs>
     <g transform="translate(92.8 103.164678)scale(0.1 -0.1)">
      <use xlink:href="#DejaVuSans-115"/>
      <use x="52.099609" xlink:href="#DejaVuSans-105"/>
      <use x="79.882812" xlink:href="#DejaVuSans-109"/>
      <use x="177.294922" xlink:href="#DejaVuSans-117"/>
      <use x="240.673828" xlink:href="#DejaVuSans-108"/>
      <use x="268.457031" xlink:href="#DejaVuSans-97"/>
      <use x="329.736328" xlink:href="#DejaVuSans-116"/>
      <use x="368.945312" xlink:href="#DejaVuSans-101"/>
      <use x="430.46875" xlink:href="#DejaVuSans-100"/>
     </g>
    </g>
    <g id="line2d_17">
     <path d="M 64.8 114.342803 
L 84.8 114.342803 
" style="fill:none;stroke:#ff0000;stroke-dasharray:7.4,3.2;stroke-dashoffset:0;stroke-width:2;"/>
    </g>
    <g id="line2d_18"/>
    <g id="text_10">
     <!-- target -->
     <defs>
      <path d="M 41.109375 46.296875 
Q 39.59375 47.171875 37.8125 47.578125 
Q 36.03125 48 33.890625 48 
Q 26.265625 48 22.1875 43.046875 
Q 18.109375 38.09375 18.109375 28.8125 
L 18.109375 0 
L 9.078125 0 
L 9.078125 54.6875 
L 18.109375 54.6875 
L 18.109375 46.1875 
Q 20.953125 51.171875 25.484375 53.578125 
Q 30.03125 56 36.53125 56 
Q 37.453125 56 38.578125 55.875 
Q 39.703125 55.765625 41.0625 55.515625 
z
" id="DejaVuSans-114"/>
      <path d="M 45.40625 27.984375 
Q 45.40625 37.75 41.375 43.109375 
Q 37.359375 48.484375 30.078125 48.484375 
Q 22.859375 48.484375 18.828125 43.109375 
Q 14.796875 37.75 14.796875 27.984375 
Q 14.796875 18.265625 18.828125 12.890625 
Q 22.859375 7.515625 30.078125 7.515625 
Q 37.359375 7.515625 41.375 12.890625 
Q 45.40625 18.265625 45.40625 27.984375 
z
M 54.390625 6.78125 
Q 54.390625 -7.171875 48.1875 -13.984375 
Q 42 -20.796875 29.203125 -20.796875 
Q 24.46875 -20.796875 20.265625 -20.09375 
Q 16.0625 -19.390625 12.109375 -17.921875 
L 12.109375 -9.1875 
Q 16.0625 -11.328125 19.921875 -12.34375 
Q 23.78125 -13.375 27.78125 -13.375 
Q 36.625 -13.375 41.015625 -8.765625 
Q 45.40625 -4.15625 45.40625 5.171875 
L 45.40625 9.625 
Q 42.625 4.78125 38.28125 2.390625 
Q 33.9375 0 27.875 0 
Q 17.828125 0 11.671875 7.65625 
Q 5.515625 15.328125 5.515625 27.984375 
Q 5.515625 40.671875 11.671875 48.328125 
Q 17.828125 56 27.875 56 
Q 33.9375 56 38.28125 53.609375 
Q 42.625 51.21875 45.40625 46.390625 
L 45.40625 54.6875 
L 54.390625 54.6875 
z
" id="DejaVuSans-103"/>
     </defs>
     <g transform="translate(92.8 117.842803)scale(0.1 -0.1)">
      <use xlink:href="#DejaVuSans-116"/>
      <use x="39.208984" xlink:href="#DejaVuSans-97"/>
      <use x="100.488281" xlink:href="#DejaVuSans-114"/>
      <use x="141.585938" xlink:href="#DejaVuSans-103"/>
      <use x="205.0625" xlink:href="#DejaVuSans-101"/>
      <use x="266.585938" xlink:href="#DejaVuSans-116"/>
     </g>
    </g>
   </g>
  </g>
 </g>
 <defs>
  <clipPath id="pbf8cf6a777">
   <rect height="118.12249" width="160.171654" x="55.8" y="10.8"/>
  </clipPath>
 </defs>
</svg>
