<?xml version="1.0" encoding="utf-8" standalone="no"?>
<!DOCTYPE svg PUBLIC "-//W3C//DTD SVG 1.1//EN"
  "http://www.w3.org/Graphics/SVG/1.1/DTD/svg11.dtd">
<!-- Created with matplotlib (https://matplotlib.org/) -->
<svg height="170.07874pt" version="1.1" viewBox="0 0 226.771654 170.07874" width="226.771654pt" xmlns="http://www.w3.org/2000/svg" xmlns:xlink="http://www.w3.org/1999/xlink">
 <defs>
  <style type="text/css">
*{stroke-linecap:butt;stroke-linejoin:round;}
  </style>
 </defs>
 <g id="figure_1">
  <g id="patch_1">
   <path d="M 0 170.07874 
L 226.771654 170.07874 
L 226.771654 0 
L 0 0 
z
" style="fill:#ffffff;"/>
  </g>
  <g id="axes_1">
   <g id="patch_2">
    <path d="M 55.8 128.92249 
L 215.971654 128.92249 
L 215.971654 10.8 
L 55.8 10.8 
z
" style="fill:#ffffff;"/>
   </g>
   <g id="matplotlib.axis_1">
    <g id="xtick_1">
     <g id="line2d_1">
      <path clip-path="url(#p9b4ccc4ff6)" d="M 68.112532 128.92249 
L 68.112532 10.8 
" style="fill:none;stroke:#b0b0b0;stroke-linecap:square;stroke-width:0.8;"/>
     </g>
     <g id="line2d_2">
      <defs>
       <path d="M 0 0 
L 0 3.5 
" id="m8970129e6e" style="stroke:#000000;stroke-width:0.8;"/>
      </defs>
      <g>
       <use style="stroke:#000000;stroke-width:0.8;" x="68.112532" xlink:href="#m8970129e6e" y="128.92249"/>
      </g>
     </g>
     <g id="text_1">
      <!-- $\mathdefault{10^{-3}}$ -->
      <defs>
       <path d="M 12.40625 8.296875 
L 28.515625 8.296875 
L 28.515625 63.921875 
L 10.984375 60.40625 
L 10.984375 69.390625 
L 28.421875 72.90625 
L 38.28125 72.90625 
L 38.28125 8.296875 
L 54.390625 8.296875 
L 54.390625 0 
L 12.40625 0 
z
" id="DejaVuSans-49"/>
       <path d="M 31.78125 66.40625 
Q 24.171875 66.40625 20.328125 58.90625 
Q 16.5 51.421875 16.5 36.375 
Q 16.5 21.390625 20.328125 13.890625 
Q 24.171875 6.390625 31.78125 6.390625 
Q 39.453125 6.390625 43.28125 13.890625 
Q 47.125 21.390625 47.125 36.375 
Q 47.125 51.421875 43.28125 58.90625 
Q 39.453125 66.40625 31.78125 66.40625 
z
M 31.78125 74.21875 
Q 44.046875 74.21875 50.515625 64.515625 
Q 56.984375 54.828125 56.984375 36.375 
Q 56.984375 17.96875 50.515625 8.265625 
Q 44.046875 -1.421875 31.78125 -1.421875 
Q 19.53125 -1.421875 13.0625 8.265625 
Q 6.59375 17.96875 6.59375 36.375 
Q 6.59375 54.828125 13.0625 64.515625 
Q 19.53125 74.21875 31.78125 74.21875 
z
" id="DejaVuSans-48"/>
       <path d="M 10.59375 35.5 
L 73.1875 35.5 
L 73.1875 27.203125 
L 10.59375 27.203125 
z
" id="DejaVuSans-8722"/>
       <path d="M 40.578125 39.3125 
Q 47.65625 37.796875 51.625 33 
Q 55.609375 28.21875 55.609375 21.1875 
Q 55.609375 10.40625 48.1875 4.484375 
Q 40.765625 -1.421875 27.09375 -1.421875 
Q 22.515625 -1.421875 17.65625 -0.515625 
Q 12.796875 0.390625 7.625 2.203125 
L 7.625 11.71875 
Q 11.71875 9.328125 16.59375 8.109375 
Q 21.484375 6.890625 26.8125 6.890625 
Q 36.078125 6.890625 40.9375 10.546875 
Q 45.796875 14.203125 45.796875 21.1875 
Q 45.796875 27.640625 41.28125 31.265625 
Q 36.765625 34.90625 28.71875 34.90625 
L 20.21875 34.90625 
L 20.21875 43.015625 
L 29.109375 43.015625 
Q 36.375 43.015625 40.234375 45.921875 
Q 44.09375 48.828125 44.09375 54.296875 
Q 44.09375 59.90625 40.109375 62.90625 
Q 36.140625 65.921875 28.71875 65.921875 
Q 24.65625 65.921875 20.015625 65.03125 
Q 15.375 64.15625 9.8125 62.3125 
L 9.8125 71.09375 
Q 15.4375 72.65625 20.34375 73.4375 
Q 25.25 74.21875 29.59375 74.21875 
Q 40.828125 74.21875 47.359375 69.109375 
Q 53.90625 64.015625 53.90625 55.328125 
Q 53.90625 49.265625 50.4375 45.09375 
Q 46.96875 40.921875 40.578125 39.3125 
z
" id="DejaVuSans-51"/>
      </defs>
      <g transform="translate(56.362532 143.520928)scale(0.1 -0.1)">
       <use transform="translate(0 0.765625)" xlink:href="#DejaVuSans-49"/>
       <use transform="translate(63.623047 0.765625)" xlink:href="#DejaVuSans-48"/>
       <use transform="translate(128.203125 39.046875)scale(0.7)" xlink:href="#DejaVuSans-8722"/>
       <use transform="translate(186.855469 39.046875)scale(0.7)" xlink:href="#DejaVuSans-51"/>
      </g>
     </g>
    </g>
    <g id="xtick_2">
     <g id="line2d_3">
      <path clip-path="url(#p9b4ccc4ff6)" d="M 105.320834 128.92249 
L 105.320834 10.8 
" style="fill:none;stroke:#b0b0b0;stroke-linecap:square;stroke-width:0.8;"/>
     </g>
     <g id="line2d_4">
      <g>
       <use style="stroke:#000000;stroke-width:0.8;" x="105.320834" xlink:href="#m8970129e6e" y="128.92249"/>
      </g>
     </g>
     <g id="text_2">
      <!-- $\mathdefault{10^{-2}}$ -->
      <defs>
       <path d="M 19.1875 8.296875 
L 53.609375 8.296875 
L 53.609375 0 
L 7.328125 0 
L 7.328125 8.296875 
Q 12.9375 14.109375 22.625 23.890625 
Q 32.328125 33.6875 34.8125 36.53125 
Q 39.546875 41.84375 41.421875 45.53125 
Q 43.3125 49.21875 43.3125 52.78125 
Q 43.3125 58.59375 39.234375 62.25 
Q 35.15625 65.921875 28.609375 65.921875 
Q 23.96875 65.921875 18.8125 64.3125 
Q 13.671875 62.703125 7.8125 59.421875 
L 7.8125 69.390625 
Q 13.765625 71.78125 18.9375 73 
Q 24.125 74.21875 28.421875 74.21875 
Q 39.75 74.21875 46.484375 68.546875 
Q 53.21875 62.890625 53.21875 53.421875 
Q 53.21875 48.921875 51.53125 44.890625 
Q 49.859375 40.875 45.40625 35.40625 
Q 44.1875 33.984375 37.640625 27.21875 
Q 31.109375 20.453125 19.1875 8.296875 
z
" id="DejaVuSans-50"/>
      </defs>
      <g transform="translate(93.570834 143.520928)scale(0.1 -0.1)">
       <use transform="translate(0 0.765625)" xlink:href="#DejaVuSans-49"/>
       <use transform="translate(63.623047 0.765625)" xlink:href="#DejaVuSans-48"/>
       <use transform="translate(128.203125 39.046875)scale(0.7)" xlink:href="#DejaVuSans-8722"/>
       <use transform="translate(186.855469 39.046875)scale(0.7)" xlink:href="#DejaVuSans-50"/>
      </g>
     </g>
    </g>
    <g id="xtick_3">
     <g id="line2d_5">
      <path clip-path="url(#p9b4ccc4ff6)" d="M 142.529135 128.92249 
L 142.529135 10.8 
" style="fill:none;stroke:#b0b0b0;stroke-linecap:square;stroke-width:0.8;"/>
     </g>
     <g id="line2d_6">
      <g>
       <use style="stroke:#000000;stroke-width:0.8;" x="142.529135" xlink:href="#m8970129e6e" y="128.92249"/>
      </g>
     </g>
     <g id="text_3">
      <!-- $\mathdefault{10^{-1}}$ -->
      <g transform="translate(130.779135 143.520928)scale(0.1 -0.1)">
       <use transform="translate(0 0.684375)" xlink:href="#DejaVuSans-49"/>
       <use transform="translate(63.623047 0.684375)" xlink:href="#DejaVuSans-48"/>
       <use transform="translate(128.203125 38.965625)scale(0.7)" xlink:href="#DejaVuSans-8722"/>
       <use transform="translate(186.855469 38.965625)scale(0.7)" xlink:href="#DejaVuSans-49"/>
      </g>
     </g>
    </g>
    <g id="xtick_4">
     <g id="line2d_7">
      <path clip-path="url(#p9b4ccc4ff6)" d="M 179.737437 128.92249 
L 179.737437 10.8 
" style="fill:none;stroke:#b0b0b0;stroke-linecap:square;stroke-width:0.8;"/>
     </g>
     <g id="line2d_8">
      <g>
       <use style="stroke:#000000;stroke-width:0.8;" x="179.737437" xlink:href="#m8970129e6e" y="128.92249"/>
      </g>
     </g>
     <g id="text_4">
      <!-- $\mathdefault{10^{0}}$ -->
      <g transform="translate(170.937437 143.520928)scale(0.1 -0.1)">
       <use transform="translate(0 0.765625)" xlink:href="#DejaVuSans-49"/>
       <use transform="translate(63.623047 0.765625)" xlink:href="#DejaVuSans-48"/>
       <use transform="translate(128.203125 39.046875)scale(0.7)" xlink:href="#DejaVuSans-48"/>
      </g>
     </g>
    </g>
    <g id="xtick_5">
     <g id="line2d_9">
      <defs>
       <path d="M 0 0 
L 0 2 
" id="me17321c631" style="stroke:#000000;stroke-width:0.6;"/>
      </defs>
      <g>
       <use style="stroke:#000000;stroke-width:0.6;" x="56.911717" xlink:href="#me17321c631" y="128.92249"/>
      </g>
     </g>
    </g>
    <g id="xtick_6">
     <g id="line2d_10">
      <g>
       <use style="stroke:#000000;stroke-width:0.6;" x="59.857917" xlink:href="#me17321c631" y="128.92249"/>
      </g>
     </g>
    </g>
    <g id="xtick_7">
     <g id="line2d_11">
      <g>
       <use style="stroke:#000000;stroke-width:0.6;" x="62.348893" xlink:href="#me17321c631" y="128.92249"/>
      </g>
     </g>
    </g>
    <g id="xtick_8">
     <g id="line2d_12">
      <g>
       <use style="stroke:#000000;stroke-width:0.6;" x="64.506675" xlink:href="#me17321c631" y="128.92249"/>
      </g>
     </g>
    </g>
    <g id="xtick_9">
     <g id="line2d_13">
      <g>
       <use style="stroke:#000000;stroke-width:0.6;" x="66.409973" xlink:href="#me17321c631" y="128.92249"/>
      </g>
     </g>
    </g>
    <g id="xtick_10">
     <g id="line2d_14">
      <g>
       <use style="stroke:#000000;stroke-width:0.6;" x="79.313347" xlink:href="#me17321c631" y="128.92249"/>
      </g>
     </g>
    </g>
    <g id="xtick_11">
     <g id="line2d_15">
      <g>
       <use style="stroke:#000000;stroke-width:0.6;" x="85.865403" xlink:href="#me17321c631" y="128.92249"/>
      </g>
     </g>
    </g>
    <g id="xtick_12">
     <g id="line2d_16">
      <g>
       <use style="stroke:#000000;stroke-width:0.6;" x="90.514162" xlink:href="#me17321c631" y="128.92249"/>
      </g>
     </g>
    </g>
    <g id="xtick_13">
     <g id="line2d_17">
      <g>
       <use style="stroke:#000000;stroke-width:0.6;" x="94.120019" xlink:href="#me17321c631" y="128.92249"/>
      </g>
     </g>
    </g>
    <g id="xtick_14">
     <g id="line2d_18">
      <g>
       <use style="stroke:#000000;stroke-width:0.6;" x="97.066218" xlink:href="#me17321c631" y="128.92249"/>
      </g>
     </g>
    </g>
    <g id="xtick_15">
     <g id="line2d_19">
      <g>
       <use style="stroke:#000000;stroke-width:0.6;" x="99.557195" xlink:href="#me17321c631" y="128.92249"/>
      </g>
     </g>
    </g>
    <g id="xtick_16">
     <g id="line2d_20">
      <g>
       <use style="stroke:#000000;stroke-width:0.6;" x="101.714977" xlink:href="#me17321c631" y="128.92249"/>
      </g>
     </g>
    </g>
    <g id="xtick_17">
     <g id="line2d_21">
      <g>
       <use style="stroke:#000000;stroke-width:0.6;" x="103.618275" xlink:href="#me17321c631" y="128.92249"/>
      </g>
     </g>
    </g>
    <g id="xtick_18">
     <g id="line2d_22">
      <g>
       <use style="stroke:#000000;stroke-width:0.6;" x="116.521649" xlink:href="#me17321c631" y="128.92249"/>
      </g>
     </g>
    </g>
    <g id="xtick_19">
     <g id="line2d_23">
      <g>
       <use style="stroke:#000000;stroke-width:0.6;" x="123.073705" xlink:href="#me17321c631" y="128.92249"/>
      </g>
     </g>
    </g>
    <g id="xtick_20">
     <g id="line2d_24">
      <g>
       <use style="stroke:#000000;stroke-width:0.6;" x="127.722463" xlink:href="#me17321c631" y="128.92249"/>
      </g>
     </g>
    </g>
    <g id="xtick_21">
     <g id="line2d_25">
      <g>
       <use style="stroke:#000000;stroke-width:0.6;" x="131.328321" xlink:href="#me17321c631" y="128.92249"/>
      </g>
     </g>
    </g>
    <g id="xtick_22">
     <g id="line2d_26">
      <g>
       <use style="stroke:#000000;stroke-width:0.6;" x="134.27452" xlink:href="#me17321c631" y="128.92249"/>
      </g>
     </g>
    </g>
    <g id="xtick_23">
     <g id="line2d_27">
      <g>
       <use style="stroke:#000000;stroke-width:0.6;" x="136.765497" xlink:href="#me17321c631" y="128.92249"/>
      </g>
     </g>
    </g>
    <g id="xtick_24">
     <g id="line2d_28">
      <g>
       <use style="stroke:#000000;stroke-width:0.6;" x="138.923278" xlink:href="#me17321c631" y="128.92249"/>
      </g>
     </g>
    </g>
    <g id="xtick_25">
     <g id="line2d_29">
      <g>
       <use style="stroke:#000000;stroke-width:0.6;" x="140.826577" xlink:href="#me17321c631" y="128.92249"/>
      </g>
     </g>
    </g>
    <g id="xtick_26">
     <g id="line2d_30">
      <g>
       <use style="stroke:#000000;stroke-width:0.6;" x="153.72995" xlink:href="#me17321c631" y="128.92249"/>
      </g>
     </g>
    </g>
    <g id="xtick_27">
     <g id="line2d_31">
      <g>
       <use style="stroke:#000000;stroke-width:0.6;" x="160.282007" xlink:href="#me17321c631" y="128.92249"/>
      </g>
     </g>
    </g>
    <g id="xtick_28">
     <g id="line2d_32">
      <g>
       <use style="stroke:#000000;stroke-width:0.6;" x="164.930765" xlink:href="#me17321c631" y="128.92249"/>
      </g>
     </g>
    </g>
    <g id="xtick_29">
     <g id="line2d_33">
      <g>
       <use style="stroke:#000000;stroke-width:0.6;" x="168.536622" xlink:href="#me17321c631" y="128.92249"/>
      </g>
     </g>
    </g>
    <g id="xtick_30">
     <g id="line2d_34">
      <g>
       <use style="stroke:#000000;stroke-width:0.6;" x="171.482822" xlink:href="#me17321c631" y="128.92249"/>
      </g>
     </g>
    </g>
    <g id="xtick_31">
     <g id="line2d_35">
      <g>
       <use style="stroke:#000000;stroke-width:0.6;" x="173.973798" xlink:href="#me17321c631" y="128.92249"/>
      </g>
     </g>
    </g>
    <g id="xtick_32">
     <g id="line2d_36">
      <g>
       <use style="stroke:#000000;stroke-width:0.6;" x="176.13158" xlink:href="#me17321c631" y="128.92249"/>
      </g>
     </g>
    </g>
    <g id="xtick_33">
     <g id="line2d_37">
      <g>
       <use style="stroke:#000000;stroke-width:0.6;" x="178.034879" xlink:href="#me17321c631" y="128.92249"/>
      </g>
     </g>
    </g>
    <g id="xtick_34">
     <g id="line2d_38">
      <g>
       <use style="stroke:#000000;stroke-width:0.6;" x="190.938252" xlink:href="#me17321c631" y="128.92249"/>
      </g>
     </g>
    </g>
    <g id="xtick_35">
     <g id="line2d_39">
      <g>
       <use style="stroke:#000000;stroke-width:0.6;" x="197.490309" xlink:href="#me17321c631" y="128.92249"/>
      </g>
     </g>
    </g>
    <g id="xtick_36">
     <g id="line2d_40">
      <g>
       <use style="stroke:#000000;stroke-width:0.6;" x="202.139067" xlink:href="#me17321c631" y="128.92249"/>
      </g>
     </g>
    </g>
    <g id="xtick_37">
     <g id="line2d_41">
      <g>
       <use style="stroke:#000000;stroke-width:0.6;" x="205.744924" xlink:href="#me17321c631" y="128.92249"/>
      </g>
     </g>
    </g>
    <g id="xtick_38">
     <g id="line2d_42">
      <g>
       <use style="stroke:#000000;stroke-width:0.6;" x="208.691124" xlink:href="#me17321c631" y="128.92249"/>
      </g>
     </g>
    </g>
    <g id="xtick_39">
     <g id="line2d_43">
      <g>
       <use style="stroke:#000000;stroke-width:0.6;" x="211.1821" xlink:href="#me17321c631" y="128.92249"/>
      </g>
     </g>
    </g>
    <g id="xtick_40">
     <g id="line2d_44">
      <g>
       <use style="stroke:#000000;stroke-width:0.6;" x="213.339882" xlink:href="#me17321c631" y="128.92249"/>
      </g>
     </g>
    </g>
    <g id="xtick_41">
     <g id="line2d_45">
      <g>
       <use style="stroke:#000000;stroke-width:0.6;" x="215.243181" xlink:href="#me17321c631" y="128.92249"/>
      </g>
     </g>
    </g>
    <g id="text_5">
     <!-- f (Hz) -->
     <defs>
      <path d="M 37.109375 75.984375 
L 37.109375 68.5 
L 28.515625 68.5 
Q 23.6875 68.5 21.796875 66.546875 
Q 19.921875 64.59375 19.921875 59.515625 
L 19.921875 54.6875 
L 34.71875 54.6875 
L 34.71875 47.703125 
L 19.921875 47.703125 
L 19.921875 0 
L 10.890625 0 
L 10.890625 47.703125 
L 2.296875 47.703125 
L 2.296875 54.6875 
L 10.890625 54.6875 
L 10.890625 58.5 
Q 10.890625 67.625 15.140625 71.796875 
Q 19.390625 75.984375 28.609375 75.984375 
z
" id="DejaVuSans-102"/>
      <path id="DejaVuSans-32"/>
      <path d="M 31 75.875 
Q 24.46875 64.65625 21.28125 53.65625 
Q 18.109375 42.671875 18.109375 31.390625 
Q 18.109375 20.125 21.3125 9.0625 
Q 24.515625 -2 31 -13.1875 
L 23.1875 -13.1875 
Q 15.875 -1.703125 12.234375 9.375 
Q 8.59375 20.453125 8.59375 31.390625 
Q 8.59375 42.28125 12.203125 53.3125 
Q 15.828125 64.359375 23.1875 75.875 
z
" id="DejaVuSans-40"/>
      <path d="M 9.8125 72.90625 
L 19.671875 72.90625 
L 19.671875 43.015625 
L 55.515625 43.015625 
L 55.515625 72.90625 
L 65.375 72.90625 
L 65.375 0 
L 55.515625 0 
L 55.515625 34.71875 
L 19.671875 34.71875 
L 19.671875 0 
L 9.8125 0 
z
" id="DejaVuSans-72"/>
      <path d="M 5.515625 54.6875 
L 48.1875 54.6875 
L 48.1875 46.484375 
L 14.40625 7.171875 
L 48.1875 7.171875 
L 48.1875 0 
L 4.296875 0 
L 4.296875 8.203125 
L 38.09375 47.515625 
L 5.515625 47.515625 
z
" id="DejaVuSans-122"/>
      <path d="M 8.015625 75.875 
L 15.828125 75.875 
Q 23.140625 64.359375 26.78125 53.3125 
Q 30.421875 42.28125 30.421875 31.390625 
Q 30.421875 20.453125 26.78125 9.375 
Q 23.140625 -1.703125 15.828125 -13.1875 
L 8.015625 -13.1875 
Q 14.5 -2 17.703125 9.0625 
Q 20.90625 20.125 20.90625 31.390625 
Q 20.90625 42.671875 17.703125 53.65625 
Q 14.5 64.65625 8.015625 75.875 
z
" id="DejaVuSans-41"/>
     </defs>
     <g transform="translate(122.250671 157.199053)scale(0.1 -0.1)">
      <use xlink:href="#DejaVuSans-102"/>
      <use x="35.205078" xlink:href="#DejaVuSans-32"/>
      <use x="66.992188" xlink:href="#DejaVuSans-40"/>
      <use x="106.005859" xlink:href="#DejaVuSans-72"/>
      <use x="181.201172" xlink:href="#DejaVuSans-122"/>
      <use x="233.691406" xlink:href="#DejaVuSans-41"/>
     </g>
    </g>
   </g>
   <g id="matplotlib.axis_2">
    <g id="ytick_1">
     <g id="line2d_46">
      <path clip-path="url(#p9b4ccc4ff6)" d="M 55.8 100.958287 
L 215.971654 100.958287 
" style="fill:none;stroke:#b0b0b0;stroke-linecap:square;stroke-width:0.8;"/>
     </g>
     <g id="line2d_47">
      <defs>
       <path d="M 0 0 
L -3.5 0 
" id="me8b4353b88" style="stroke:#000000;stroke-width:0.8;"/>
      </defs>
      <g>
       <use style="stroke:#000000;stroke-width:0.8;" x="55.8" xlink:href="#me8b4353b88" y="100.958287"/>
      </g>
     </g>
     <g id="text_6">
      <!-- $\mathdefault{10^{-3}}$ -->
      <g transform="translate(25.3 104.757506)scale(0.1 -0.1)">
       <use transform="translate(0 0.765625)" xlink:href="#DejaVuSans-49"/>
       <use transform="translate(63.623047 0.765625)" xlink:href="#DejaVuSans-48"/>
       <use transform="translate(128.203125 39.046875)scale(0.7)" xlink:href="#DejaVuSans-8722"/>
       <use transform="translate(186.855469 39.046875)scale(0.7)" xlink:href="#DejaVuSans-51"/>
      </g>
     </g>
    </g>
    <g id="ytick_2">
     <g id="line2d_48">
      <path clip-path="url(#p9b4ccc4ff6)" d="M 55.8 70.298279 
L 215.971654 70.298279 
" style="fill:none;stroke:#b0b0b0;stroke-linecap:square;stroke-width:0.8;"/>
     </g>
     <g id="line2d_49">
      <g>
       <use style="stroke:#000000;stroke-width:0.8;" x="55.8" xlink:href="#me8b4353b88" y="70.298279"/>
      </g>
     </g>
     <g id="text_7">
      <!-- $\mathdefault{10^{-1}}$ -->
      <g transform="translate(25.3 74.097498)scale(0.1 -0.1)">
       <use transform="translate(0 0.684375)" xlink:href="#DejaVuSans-49"/>
       <use transform="translate(63.623047 0.684375)" xlink:href="#DejaVuSans-48"/>
       <use transform="translate(128.203125 38.965625)scale(0.7)" xlink:href="#DejaVuSans-8722"/>
       <use transform="translate(186.855469 38.965625)scale(0.7)" xlink:href="#DejaVuSans-49"/>
      </g>
     </g>
    </g>
    <g id="ytick_3">
     <g id="line2d_50">
      <path clip-path="url(#p9b4ccc4ff6)" d="M 55.8 39.638271 
L 215.971654 39.638271 
" style="fill:none;stroke:#b0b0b0;stroke-linecap:square;stroke-width:0.8;"/>
     </g>
     <g id="line2d_51">
      <g>
       <use style="stroke:#000000;stroke-width:0.8;" x="55.8" xlink:href="#me8b4353b88" y="39.638271"/>
      </g>
     </g>
     <g id="text_8">
      <!-- $\mathdefault{10^{1}}$ -->
      <g transform="translate(31.2 43.43749)scale(0.1 -0.1)">
       <use transform="translate(0 0.684375)" xlink:href="#DejaVuSans-49"/>
       <use transform="translate(63.623047 0.684375)" xlink:href="#DejaVuSans-48"/>
       <use transform="translate(128.203125 38.965625)scale(0.7)" xlink:href="#DejaVuSans-49"/>
      </g>
     </g>
    </g>
    <g id="text_9">
     <!-- $S(f) (m^2/s)$ -->
     <defs>
      <path d="M 60.296875 70.515625 
L 58.40625 60.890625 
Q 53.46875 63.53125 48.609375 64.875 
Q 43.75 66.21875 39.203125 66.21875 
Q 30.375 66.21875 25.140625 62.359375 
Q 19.921875 58.5 19.921875 52.09375 
Q 19.921875 48.578125 21.84375 46.703125 
Q 23.78125 44.828125 31.78125 42.671875 
L 37.703125 41.21875 
Q 47.703125 38.625 51.609375 34.640625 
Q 55.515625 30.671875 55.515625 23.484375 
Q 55.515625 12.453125 46.84375 5.515625 
Q 38.1875 -1.421875 24.03125 -1.421875 
Q 18.21875 -1.421875 12.359375 -0.265625 
Q 6.5 0.875 0.59375 3.21875 
L 2.59375 13.375 
Q 8.015625 10.015625 13.453125 8.296875 
Q 18.890625 6.59375 24.3125 6.59375 
Q 33.546875 6.59375 39.109375 10.6875 
Q 44.671875 14.796875 44.671875 21.390625 
Q 44.671875 25.78125 42.453125 28.046875 
Q 40.234375 30.328125 32.90625 32.171875 
L 27 33.6875 
Q 16.890625 36.328125 13.203125 39.765625 
Q 9.515625 43.21875 9.515625 49.421875 
Q 9.515625 60.296875 17.890625 67.25 
Q 26.265625 74.21875 39.703125 74.21875 
Q 44.921875 74.21875 50.046875 73.28125 
Q 55.171875 72.359375 60.296875 70.515625 
z
" id="DejaVuSans-Oblique-83"/>
      <path d="M 47.796875 75.984375 
L 46.390625 68.5 
L 37.796875 68.5 
Q 32.90625 68.5 30.6875 66.578125 
Q 28.46875 64.65625 27.390625 59.515625 
L 26.421875 54.6875 
L 41.21875 54.6875 
L 39.890625 47.703125 
L 25.09375 47.703125 
L 15.828125 0 
L 6.78125 0 
L 16.109375 47.703125 
L 7.515625 47.703125 
L 8.796875 54.6875 
L 17.390625 54.6875 
L 18.109375 58.5 
Q 19.96875 68.171875 24.625 72.078125 
Q 29.296875 75.984375 39.3125 75.984375 
z
" id="DejaVuSans-Oblique-102"/>
      <path d="M 89.796875 33.015625 
L 83.40625 0 
L 74.421875 0 
L 80.71875 32.71875 
Q 81.109375 34.8125 81.296875 36.328125 
Q 81.5 37.84375 81.5 38.921875 
Q 81.5 43.3125 79.046875 45.75 
Q 76.609375 48.1875 72.21875 48.1875 
Q 65.671875 48.1875 60.546875 43.28125 
Q 55.421875 38.375 53.90625 30.515625 
L 47.90625 0 
L 38.921875 0 
L 45.3125 32.71875 
Q 45.703125 34.515625 45.890625 36.046875 
Q 46.09375 37.59375 46.09375 38.8125 
Q 46.09375 43.265625 43.65625 45.71875 
Q 41.21875 48.1875 36.921875 48.1875 
Q 30.28125 48.1875 25.140625 43.28125 
Q 20.015625 38.375 18.5 30.515625 
L 12.5 0 
L 3.515625 0 
L 14.203125 54.6875 
L 23.1875 54.6875 
L 21.484375 46.1875 
Q 25.140625 50.984375 30.046875 53.484375 
Q 34.96875 56 40.578125 56 
Q 46.53125 56 50.359375 52.875 
Q 54.203125 49.75 54.984375 44.1875 
Q 59.078125 49.953125 64.46875 52.96875 
Q 69.875 56 75.875 56 
Q 82.90625 56 86.734375 51.953125 
Q 90.578125 47.90625 90.578125 40.484375 
Q 90.578125 38.875 90.375 36.9375 
Q 90.1875 35.015625 89.796875 33.015625 
z
" id="DejaVuSans-Oblique-109"/>
      <path d="M 25.390625 72.90625 
L 33.6875 72.90625 
L 8.296875 -9.28125 
L 0 -9.28125 
z
" id="DejaVuSans-47"/>
      <path d="M 50 53.078125 
L 48.296875 44.578125 
Q 44.734375 46.53125 40.765625 47.5 
Q 36.8125 48.484375 32.625 48.484375 
Q 25.53125 48.484375 21.453125 46.0625 
Q 17.390625 43.65625 17.390625 39.5 
Q 17.390625 34.671875 26.859375 32.078125 
Q 27.59375 31.890625 27.9375 31.78125 
L 30.8125 30.90625 
Q 39.796875 28.421875 42.796875 25.6875 
Q 45.796875 22.953125 45.796875 18.21875 
Q 45.796875 9.515625 38.890625 4.046875 
Q 31.984375 -1.421875 20.796875 -1.421875 
Q 16.453125 -1.421875 11.671875 -0.578125 
Q 6.890625 0.25 1.125 2 
L 2.875 11.28125 
Q 7.8125 8.734375 12.59375 7.421875 
Q 17.390625 6.109375 21.78125 6.109375 
Q 28.375 6.109375 32.5 8.9375 
Q 36.625 11.765625 36.625 16.109375 
Q 36.625 20.796875 25.78125 23.6875 
L 24.859375 23.921875 
L 21.78125 24.703125 
Q 14.9375 26.515625 11.765625 29.46875 
Q 8.59375 32.421875 8.59375 37.015625 
Q 8.59375 45.75 15.15625 50.875 
Q 21.734375 56 33.015625 56 
Q 37.453125 56 41.671875 55.265625 
Q 45.90625 54.546875 50 53.078125 
z
" id="DejaVuSans-Oblique-115"/>
     </defs>
     <g transform="translate(19.220312 94.361245)rotate(-90)scale(0.1 -0.1)">
      <use transform="translate(0 0.765625)" xlink:href="#DejaVuSans-Oblique-83"/>
      <use transform="translate(63.476562 0.765625)" xlink:href="#DejaVuSans-40"/>
      <use transform="translate(102.490234 0.765625)" xlink:href="#DejaVuSans-Oblique-102"/>
      <use transform="translate(137.695312 0.765625)" xlink:href="#DejaVuSans-41"/>
      <use transform="translate(176.708984 0.765625)" xlink:href="#DejaVuSans-40"/>
      <use transform="translate(215.722656 0.765625)" xlink:href="#DejaVuSans-Oblique-109"/>
      <use transform="translate(317.784661 39.046875)scale(0.7)" xlink:href="#DejaVuSans-50"/>
      <use transform="translate(365.055169 0.765625)" xlink:href="#DejaVuSans-47"/>
      <use transform="translate(398.746576 0.765625)" xlink:href="#DejaVuSans-Oblique-115"/>
      <use transform="translate(450.846185 0.765625)" xlink:href="#DejaVuSans-41"/>
     </g>
    </g>
   </g>
   <g id="line2d_52">
    <path clip-path="url(#p9b4ccc4ff6)" d="M 63.08053 30.97113 
L 74.281345 39.448885 
L 80.833401 51.384684 
L 85.48216 26.905174 
L 89.088017 22.120545 
L 92.034216 20.398731 
L 94.525193 21.662382 
L 96.682975 30.742849 
L 98.586273 17.243738 
L 100.288832 17.666053 
L 101.828983 24.20495 
L 103.235031 31.653824 
L 104.52847 23.553735 
L 105.726008 33.878047 
L 106.840888 46.3163 
L 107.883789 41.178618 
L 108.863445 32.690881 
L 110.66078 44.224718 
L 111.489646 28.749847 
L 112.278064 25.962046 
L 113.029798 18.666212 
L 113.74811 19.892403 
L 115.095503 16.169204 
L 115.729285 19.309839 
L 116.339145 23.069719 
L 116.926823 22.66318 
L 117.493876 43.185722 
L 118.041703 24.918904 
L 118.571566 18.238339 
L 119.084604 21.888632 
L 119.581855 27.730235 
L 120.064259 17.231218 
L 120.53268 22.984329 
L 120.987903 63.16271 
L 121.430653 33.126044 
L 121.861595 20.072736 
L 122.281342 22.882949 
L 122.690461 23.680941 
L 123.089478 37.430959 
L 123.478879 23.151446 
L 123.859117 18.387775 
L 124.230613 23.092198 
L 124.59376 31.581433 
L 124.948925 23.662293 
L 125.296451 30.910961 
L 125.636661 33.120638 
L 125.969856 41.996423 
L 126.296318 26.556817 
L 126.616316 26.767771 
L 126.9301 22.733308 
L 127.237907 43.323143 
L 127.83647 30.471134 
L 128.127637 18.690823 
L 128.413651 20.63424 
L 128.694691 23.675536 
L 128.970926 31.335628 
L 129.242518 49.02287 
L 129.772381 18.667022 
L 130.030936 23.486208 
L 130.285419 49.979537 
L 130.535957 26.159592 
L 130.78267 21.420582 
L 131.265074 22.733854 
L 131.733494 27.988327 
L 131.962709 19.291289 
L 132.188718 19.270554 
L 132.411609 23.157534 
L 132.631468 32.770703 
L 132.848375 26.635103 
L 133.06241 26.017648 
L 133.273646 27.994477 
L 133.482157 28.009766 
L 133.688011 26.915421 
L 133.891276 33.775168 
L 134.092016 30.716975 
L 134.290293 22.054784 
L 134.486167 26.335759 
L 134.679694 36.062913 
L 134.870931 23.593527 
L 135.059932 22.900804 
L 135.246747 20.281023 
L 135.431428 20.643913 
L 135.614021 22.215433 
L 135.794575 22.286954 
L 135.973133 21.82979 
L 136.14974 20.510637 
L 136.324437 20.779567 
L 136.668267 30.697727 
L 136.837476 21.575906 
L 137.004932 23.571644 
L 137.170671 28.495036 
L 137.334726 26.85962 
L 137.657924 21.331282 
L 137.817131 23.492239 
L 137.974785 29.666206 
L 138.130915 26.704029 
L 138.285551 29.509602 
L 138.438722 61.053831 
L 138.740775 26.155017 
L 138.88971 24.966924 
L 139.037285 21.714706 
L 139.183524 25.194246 
L 139.328452 31.723471 
L 139.472092 22.584737 
L 139.614466 21.911986 
L 139.755597 21.875583 
L 140.171741 26.122503 
L 140.443333 38.32694 
L 140.710436 23.303043 
L 140.84235 28.757016 
L 141.10299 29.663529 
L 141.231751 25.479231 
L 141.359494 27.525696 
L 141.486234 23.961698 
L 141.611989 23.893814 
L 141.736772 26.219747 
L 141.860599 33.456434 
L 141.983485 28.111308 
L 142.105443 35.6933 
L 142.226487 33.963264 
L 142.346632 63.909233 
L 142.584273 47.504053 
L 142.701797 43.550121 
L 142.934309 23.357998 
L 143.163524 36.710095 
L 143.276923 29.053121 
L 143.389533 53.39469 
L 143.612424 27.280544 
L 143.722727 37.937603 
L 143.832283 29.454586 
L 143.9411 32.890923 
L 144.04919 32.452927 
L 144.263224 26.71164 
L 144.369188 24.247596 
L 144.474461 25.501411 
L 144.682972 45.661221 
L 144.990778 27.460526 
L 145.092091 29.030724 
L 145.192773 28.6884 
L 145.292831 34.492064 
L 145.392274 47.582128 
L 145.589342 36.214916 
L 145.686982 35.215499 
L 145.880509 26.090165 
L 145.976411 26.244124 
L 146.071746 25.82369 
L 146.354425 38.441369 
L 146.447562 29.842495 
L 146.540166 30.335034 
L 146.632243 34.43208 
L 146.723797 29.310579 
L 146.814836 29.838944 
L 146.99539 35.611534 
L 147.084916 31.273019 
L 147.173948 43.936787 
L 147.262493 29.759359 
L 147.350555 30.540282 
L 147.43814 34.744539 
L 147.611898 57.658387 
L 147.783808 31.656851 
L 148.038291 45.444876 
L 148.122236 36.738514 
L 148.205747 38.060918 
L 148.288829 35.372986 
L 148.371485 36.07824 
L 148.453722 44.497431 
L 148.616949 31.312165 
L 148.697948 34.732428 
L 148.778544 27.98265 
L 148.938539 42.345591 
L 149.017946 41.769591 
L 149.096965 38.878383 
L 149.1756 31.618755 
L 149.33173 41.065277 
L 149.409233 34.658906 
L 149.486366 50.474784 
L 149.639537 27.372149 
L 149.791269 35.836631 
L 149.866604 31.610114 
L 149.941589 32.38432 
L 150.016229 53.651898 
L 150.164481 33.555038 
L 150.311385 32.714973 
L 150.456966 27.654524 
L 150.529267 29.702621 
L 150.601247 36.353679 
L 150.744251 29.794729 
L 150.815281 35.968387 
L 150.886001 33.227149 
L 150.956412 33.705928 
L 151.026518 42.851195 
L 151.096321 30.170536 
L 151.165823 31.078191 
L 151.372556 48.151861 
L 151.576677 33.3099 
L 151.644148 35.986755 
L 151.778251 29.141436 
L 151.911251 30.425011 
L 152.174011 43.279095 
L 152.239038 33.691303 
L 152.303805 38.249273 
L 152.368314 34.043071 
L 152.496563 51.110938 
L 152.560308 45.872127 
L 152.687049 34.728767 
L 152.750049 45.671136 
L 152.812804 31.859874 
L 152.875316 35.52746 
L 152.937587 65.089022 
L 152.999619 51.010772 
L 153.061414 63.717864 
L 153.306258 31.039606 
L 153.366893 31.487117 
L 153.487486 29.302496 
L 153.607185 39.888319 
L 153.666704 30.194359 
L 153.726005 31.384467 
L 153.785088 32.636361 
L 153.902612 53.459516 
L 153.961054 49.935614 
L 154.135124 30.244376 
L 154.250138 33.883532 
L 154.307339 32.032917 
L 154.364339 33.377001 
L 154.421138 43.143638 
L 154.477738 37.304368 
L 154.534141 36.144848 
L 154.590348 61.330382 
L 154.646359 38.518858 
L 154.702178 37.839083 
L 154.757804 38.941314 
L 154.813239 32.303644 
L 154.868485 33.06171 
L 154.923542 32.561418 
L 155.033098 50.35298 
L 155.087598 38.907712 
L 155.141915 48.266898 
L 155.19605 74.584093 
L 155.250005 60.967575 
L 155.410796 33.986566 
L 155.464039 34.56898 
L 155.570003 60.16433 
L 155.622725 47.323895 
L 155.675276 33.68445 
L 155.779868 34.074213 
L 155.831911 36.768663 
L 155.883787 54.385382 
L 155.935497 44.754222 
L 155.987042 32.093946 
L 156.038423 33.820806 
L 156.089641 47.514655 
L 156.140698 45.774243 
L 156.292906 36.410893 
L 156.343325 51.226115 
L 156.393588 44.009197 
L 156.443694 41.292332 
L 156.493646 46.750252 
L 156.543444 44.380493 
L 156.593089 43.571407 
L 156.642581 45.942337 
L 156.691923 36.95242 
L 156.790156 38.994842 
L 156.83905 33.894058 
L 156.887796 33.986041 
L 156.936396 37.314145 
L 156.98485 53.45321 
L 157.033159 44.732835 
L 157.081324 37.03612 
L 157.129346 54.464003 
L 157.177226 36.750142 
L 157.224964 37.991136 
L 157.272561 44.073912 
L 157.320019 39.074035 
L 157.367338 34.642731 
L 157.414519 35.216001 
L 157.461562 36.342222 
L 157.508469 35.198665 
L 157.55524 34.838369 
L 157.601876 37.061724 
L 157.648377 36.670526 
L 157.787085 33.139941 
L 157.833058 38.81921 
L 157.924612 60.845634 
L 158.015651 37.937273 
L 158.060979 41.016625 
L 158.151255 34.891222 
L 158.196205 36.635718 
L 158.24103 36.722225 
L 158.330308 43.941374 
L 158.374763 32.997673 
L 158.463308 35.741944 
L 158.507399 34.046392 
L 158.55137 35.50484 
L 158.638955 47.492966 
L 158.68257 33.786918 
L 158.726067 36.615128 
L 158.855862 49.106769 
L 158.898896 37.252567 
L 158.984623 37.455162 
L 159.027316 49.653951 
L 159.069896 36.358102 
L 159.112365 33.307412 
L 159.196969 34.944408 
L 159.281133 51.535938 
L 159.323051 43.0732 
L 159.36486 34.993468 
L 159.406562 35.160848 
L 159.448156 40.825752 
L 159.489644 35.012582 
L 159.654536 44.028939 
L 159.695498 43.788311 
L 159.736356 40.190142 
L 159.777111 50.645592 
L 159.817764 37.801195 
L 159.858314 47.751128 
L 159.939111 37.388815 
L 159.979359 42.135075 
L 160.019506 51.322585 
L 160.059554 46.622325 
L 160.099503 39.869419 
L 160.139354 56.399959 
L 160.179106 44.487099 
L 160.218761 34.993609 
L 160.258319 39.538143 
L 160.29778 48.776348 
L 160.337145 34.808475 
L 160.376415 37.039787 
L 160.454668 63.702725 
L 160.532545 57.688974 
L 160.64866 34.978511 
L 160.687181 40.623844 
L 160.72561 49.288029 
L 160.763948 36.700151 
L 160.840351 38.099078 
L 160.954284 46.823608 
L 160.992084 36.968923 
L 161.029795 39.732919 
L 161.067419 47.661665 
L 161.104955 35.059843 
L 161.142404 34.282111 
L 161.179767 37.968513 
L 161.217044 53.806857 
L 161.29134 43.307008 
L 161.365296 35.792754 
L 161.402147 43.058782 
L 161.5122 66.307418 
L 161.475599 40.148108 
L 161.548718 56.627306 
L 161.657781 39.19481 
L 161.693972 48.302057 
L 161.730082 89.570365 
L 161.766112 46.235373 
L 161.802062 36.677289 
L 161.873722 40.754705 
L 161.909433 53.704889 
L 161.945066 43.129042 
L 162.051494 36.017018 
L 162.192318 55.763228 
L 162.227333 49.979133 
L 162.262272 36.126722 
L 162.331924 48.08377 
L 162.435843 35.733186 
L 162.470335 37.983727 
L 162.539098 36.557212 
L 162.60757 47.32237 
L 162.641698 50.285875 
L 162.709737 49.776159 
L 162.811262 36.219622 
L 162.777492 50.135304 
L 162.844963 37.794062 
L 162.912154 43.597412 
L 162.945645 39.429725 
L 162.979066 37.677362 
L 163.012419 38.214621 
L 163.112066 47.425016 
L 163.24398 37.857766 
L 163.374825 46.786071 
L 163.407372 67.873165 
L 163.472269 41.106652 
L 163.536907 64.594962 
L 163.569129 52.096902 
L 163.633381 36.504419 
L 163.665411 42.307454 
L 163.697378 51.319789 
L 163.761123 50.33775 
L 163.824618 38.720329 
L 163.887864 42.296841 
L 163.919395 70.202629 
L 163.982272 46.64361 
L 164.013619 40.904464 
L 164.044905 49.094282 
L 164.107296 41.688368 
L 164.138402 40.843455 
L 164.169448 44.684936 
L 164.231361 38.917457 
L 164.293038 42.704569 
L 164.354481 42.027038 
L 164.385114 48.783412 
L 164.446208 37.532232 
L 164.507072 39.349361 
L 164.537419 44.11217 
L 164.567708 75.457709 
L 164.628117 42.071809 
L 164.658237 55.131501 
L 164.778158 44.727855 
L 164.808 71.02676 
L 164.867519 44.307973 
L 164.897197 50.558181 
L 164.92682 42.857963 
L 164.956389 45.275107 
L 165.015364 43.939815 
L 165.044772 38.471006 
L 165.103426 44.87934 
L 165.132674 66.305168 
L 165.191011 43.168802 
L 165.220101 57.530026 
L 165.335939 39.892706 
L 165.36477 41.35453 
L 165.393548 56.261857 
L 165.450953 38.454488 
L 165.479579 37.634355 
L 165.508154 37.688614 
L 165.650278 60.88285 
L 165.678553 56.187606 
L 165.734956 38.107344 
L 165.819193 41.646554 
L 165.847174 37.566789 
L 165.93083 40.088286 
L 166.096852 72.407235 
L 166.014054 38.382231 
L 166.124357 59.954273 
L 166.315594 39.883988 
L 166.34273 44.577097 
L 166.36982 53.187483 
L 166.423865 41.242138 
L 166.45082 51.688378 
L 166.531415 38.338014 
L 166.558191 42.372027 
L 166.584923 59.70144 
L 166.664854 44.144855 
L 166.717923 52.927833 
L 166.744392 50.150221 
L 166.770818 42.577659 
L 166.82354 52.847183 
L 166.849837 47.177461 
L 166.902302 52.160856 
L 166.954598 39.290404 
L 167.006725 44.05608 
L 167.110477 66.769121 
L 167.136312 60.855116 
L 167.187857 44.822658 
L 167.264867 53.073973 
L 167.316004 58.432601 
L 167.443144 43.037553 
L 167.493721 68.020122 
L 167.54414 52.230915 
L 167.619476 43.394448 
L 167.594403 62.392528 
L 167.644509 44.751895 
L 167.669505 56.760808 
L 167.744259 45.218588 
L 167.818669 57.94951 
L 167.843396 43.180571 
L 167.868086 45.608301 
L 167.892738 39.954097 
L 167.917352 40.051474 
L 167.941929 40.058795 
L 167.966469 38.889227 
L 168.015437 41.299238 
L 168.064257 60.244413 
L 168.112929 55.717607 
L 168.161456 40.31264 
L 168.209837 61.746623 
L 168.233974 49.353716 
L 168.258074 66.046612 
L 168.306168 41.169805 
L 168.330161 50.029364 
L 168.37804 52.688166 
L 168.425779 40.717623 
L 168.449595 47.393869 
L 168.473376 72.486808 
L 168.544511 42.022957 
L 168.568153 39.737553 
L 168.59176 44.290588 
L 168.615333 56.830251 
L 168.685847 48.713565 
L 168.756054 44.349305 
L 168.849192 56.477637 
L 168.872393 47.183229 
L 168.895561 40.707939 
L 168.941796 43.556749 
L 169.010903 68.140258 
L 169.05681 51.15237 
L 169.079715 47.775224 
L 169.102587 52.63952 
L 169.125427 59.15051 
L 169.171011 42.49768 
L 169.261794 47.18865 
L 169.28441 62.916437 
L 169.35207 45.237774 
L 169.37456 46.193519 
L 169.419448 57.489359 
L 169.46421 48.404125 
L 169.486545 40.046219 
L 169.575578 45.592543 
L 169.59776 44.79346 
L 169.664123 70.719194 
L 169.708214 50.97449 
L 169.752185 42.486072 
L 169.796036 46.394336 
L 169.883385 66.294947 
L 169.905148 48.053032 
L 169.926882 40.82059 
L 169.970263 54.550095 
L 170.013528 43.540206 
L 170.035117 43.826437 
L 170.056677 46.090604 
L 170.099711 41.225169 
L 170.142631 45.851029 
L 170.185437 40.79446 
L 170.228131 51.341996 
L 170.249435 53.02781 
L 170.270711 41.035819 
L 170.31318 72.473493 
L 170.355538 46.415292 
L 170.376675 72.752629 
L 170.418866 41.504534 
L 170.460948 57.633262 
L 170.50292 47.474492 
L 170.523866 88.235977 
L 170.565675 44.518957 
L 170.607377 58.975622 
L 170.628187 58.901748 
L 170.711162 44.427895 
L 170.669728 59.931983 
L 170.73184 46.7384 
L 170.793714 75.220856 
L 170.834832 44.833604 
L 170.937171 41.757304 
L 171.059129 61.55141 
L 171.099578 41.440477 
L 171.180174 46.49807 
L 171.240358 41.657898 
L 171.280356 52.557915 
L 171.360057 43.168318 
L 171.379921 53.373001 
L 171.399761 62.391781 
L 171.459134 44.629772 
L 171.478876 53.100572 
L 171.498595 55.168617 
L 171.53796 41.510879 
L 171.616404 43.512707 
L 171.713926 41.394524 
L 171.75277 55.559857 
L 171.830181 59.220096 
L 171.868747 42.771429 
L 171.926425 60.51569 
L 172.00301 53.756651 
L 172.117211 45.102248 
L 172.041166 62.760786 
L 172.136166 45.130858 
L 172.192899 43.583843 
L 172.287013 57.340706 
L 172.324506 63.70285 
L 172.417859 43.772657 
L 172.436465 42.610334 
L 172.473613 47.046237 
L 172.492155 45.289181 
L 172.566111 81.849985 
L 172.621356 55.755836 
L 172.63973 56.614698 
L 172.731284 42.456506 
L 172.713015 56.731373 
L 172.749533 47.360606 
L 172.84047 67.934061 
L 172.785969 44.223168 
L 172.876701 64.841582 
L 172.912852 50.517294 
L 173.002877 43.024971 
L 172.984912 58.069556 
L 173.020822 46.380853 
L 173.092402 66.784375 
L 173.128074 50.08015 
L 173.163668 66.103612 
L 173.23462 52.552735 
L 173.340468 42.967551 
L 173.305262 56.97646 
L 173.358042 46.995196 
L 173.375597 59.642412 
L 173.41065 43.928633 
L 173.463087 52.018412 
L 173.515354 43.902704 
L 173.550106 56.868571 
L 173.584782 46.222486 
L 173.619385 44.146256 
L 173.636658 46.612256 
L 173.72275 57.676081 
L 173.688368 44.049197 
L 173.739913 52.480014 
L 173.825458 43.192389 
L 173.791294 54.206279 
L 173.842513 48.820041 
L 173.876568 45.628444 
L 173.978306 64.800394 
L 174.062602 43.49258 
L 174.096197 47.527465 
L 174.129723 65.514976 
L 174.179881 46.833174 
L 174.196566 57.641744 
L 174.263134 43.479699 
L 174.312881 46.233046 
L 174.411917 71.640037 
L 174.428364 50.365967 
L 174.461208 43.445354 
L 174.493986 56.727862 
L 174.526697 45.026537 
L 174.57564 53.602475 
L 174.624436 45.370191 
L 174.640668 44.002383 
L 174.689268 48.396858 
L 174.705435 54.639567 
L 174.721586 44.071813 
L 174.786031 53.320606 
L 174.866226 44.820935 
L 174.882218 46.459426 
L 174.898193 59.323054 
L 174.930097 43.913662 
L 174.993717 49.99531 
L 175.057087 61.690598 
L 175.025433 44.164576 
L 175.104452 54.898169 
L 175.183086 45.267145 
L 175.16739 56.144502 
L 175.198768 49.32031 
L 175.292536 67.298196 
L 175.308111 51.778447 
L 175.323671 44.765759 
L 175.385763 62.025056 
L 175.41672 47.895625 
L 175.432176 55.791375 
L 175.463044 44.677529 
L 175.524603 46.50638 
L 175.616505 79.401509 
L 175.555295 44.378093 
L 175.647023 51.725751 
L 175.707887 44.284143 
L 175.692693 59.880437 
L 175.723068 50.133315 
L 175.738234 87.034672 
L 175.783646 49.676325 
L 175.828932 50.431473 
L 175.934107 69.582517 
L 175.859052 44.582738 
L 175.949076 53.322243 
L 176.038602 45.151117 
L 176.008815 64.547646 
L 176.068334 48.558647 
L 176.08318 49.542573 
L 176.142426 63.634708 
L 176.171968 46.935234 
L 176.201455 60.036846 
L 176.274941 45.428836 
L 176.23089 66.513242 
L 176.333489 49.158296 
L 176.348093 44.625156 
L 176.377262 68.862633 
L 176.406378 53.677586 
L 176.420916 70.974802 
L 176.478939 47.836803 
L 176.52232 64.9103 
L 176.594363 45.378893 
L 176.565584 71.478799 
L 176.637436 45.964991 
L 176.651768 44.679908 
L 176.680394 48.959002 
L 176.737494 47.04081 
L 176.780187 51.72798 
L 176.865237 45.342538 
L 176.879368 47.119325 
L 176.977944 45.952459 
L 177.005999 58.447463 
L 177.047989 46.289002 
L 177.131644 48.425211 
L 177.145545 48.499737 
L 177.256321 79.972931 
L 177.270115 74.098394 
L 177.297667 47.188464 
L 177.393731 50.45248 
L 177.502824 76.001548 
L 177.529983 58.073527 
L 177.62468 48.428809 
L 177.557096 70.252129 
L 177.638163 50.295584 
L 177.678545 83.511468 
L 177.718826 49.665722 
L 177.745624 53.40239 
L 177.759006 48.884548 
L 177.812426 65.150869 
L 177.839069 50.62938 
L 177.931978 83.894778 
L 177.905487 50.408339 
L 177.958425 57.350347 
L 178.037509 46.375099 
L 178.050652 52.483828 
L 178.063784 68.747718 
L 178.103117 46.610415 
L 178.16846 65.215213 
L 178.220545 50.946645 
L 178.194524 66.651927 
L 178.246525 58.831263 
L 178.259499 87.189922 
L 178.285416 46.806139 
L 178.350028 47.441276 
L 178.36292 47.050444 
L 178.375801 47.057957 
L 178.50405 70.980819 
L 178.516819 55.594726 
L 178.529578 46.293529 
L 178.555066 55.756488 
L 178.618611 54.175194 
L 178.656618 46.461612 
L 178.732365 76.694132 
L 178.857827 47.295147 
L 178.882803 61.133255 
L 178.969915 58.77356 
L 179.019484 47.880747 
L 179.056561 70.299143 
L 179.093553 49.352446 
L 179.142744 62.507813 
L 179.191786 47.067262 
L 179.216252 61.991896 
L 179.25288 99.353887 
L 179.338026 47.216209 
L 179.422725 77.515191 
L 179.494973 59.437838 
L 179.542959 49.664779 
L 179.530976 67.320922 
L 179.554933 53.120862 
L 179.566899 95.66832 
L 179.590803 49.619876 
L 179.674191 95.127204 
L 179.757151 48.829116 
L 179.792575 60.722595 
L 179.804366 61.191027 
L 179.827922 79.316262 
L 179.874931 48.2666 
L 179.898384 60.844697 
L 179.910098 49.181413 
L 179.968541 85.700399 
L 180.015143 54.303375 
L 180.026773 53.902955 
L 180.038394 49.657145 
L 180.096376 63.186806 
L 180.107947 52.776838 
L 180.177201 49.535834 
L 180.223207 73.059282 
L 180.257625 48.455788 
L 180.33765 66.634348 
L 180.360442 48.197586 
L 180.383202 87.494298 
L 180.405929 61.490313 
L 180.417281 96.360031 
L 180.462609 47.688738 
L 180.50781 53.524718 
L 180.575375 77.284475 
L 180.552885 52.322691 
L 180.597835 56.032782 
L 180.631465 49.616129 
L 180.676197 63.809604 
L 180.68736 61.256556 
L 180.698516 62.740308 
L 180.709664 61.641145 
L 180.809654 48.727694 
L 180.776393 69.121559 
L 180.820726 55.548166 
L 180.864937 91.058833 
L 180.842847 48.451238 
L 180.920033 64.328695 
L 180.963974 47.882529 
L 180.9859 65.068131 
L 181.018733 51.759722 
L 181.095085 49.545497 
L 181.138553 82.403973 
L 181.268261 49.659894 
L 181.375561 65.423368 
L 181.354158 48.159602 
L 181.407613 55.004822 
L 181.45025 49.238842 
L 181.503388 62.279866 
L 181.513995 75.752573 
L 181.566925 52.069309 
L 181.598599 60.650378 
L 181.672266 51.797413 
L 181.640736 73.457512 
L 181.703735 54.463426 
L 181.714211 69.346637 
L 181.745599 50.973794 
L 181.808192 56.600269 
L 181.911977 49.83655 
L 181.901629 65.341205 
L 181.922319 53.999895 
L 181.984233 77.568699 
L 182.04591 73.111249 
L 182.056166 53.506878 
L 182.097128 77.255579 
L 182.158376 63.005363 
L 182.259944 51.684587 
L 182.178741 69.068793 
L 182.270066 57.386293 
L 182.340741 75.510451 
L 182.360877 49.248537 
L 182.370936 48.331523 
L 182.380989 52.019301 
L 182.421136 84.404857 
L 182.53103 75.696334 
L 182.540984 76.317793 
L 182.669823 49.059777 
L 182.679691 52.653844 
L 182.778044 52.175645 
L 182.807434 67.487752 
L 182.856298 51.000546 
L 182.934175 60.622144 
L 182.963282 52.748447 
L 183.040646 72.122397 
L 183.079189 52.918656 
L 183.156002 56.688616 
L 183.165578 72.133497 
L 183.241981 49.370037 
L 183.261026 56.55105 
L 183.289551 62.398412 
L 183.336981 73.347173 
L 183.365372 50.867188 
L 183.393714 56.400566 
L 183.41258 58.352458 
L 183.422005 94.202772 
L 183.506585 49.468413 
L 183.52532 64.973939 
L 183.53468 67.424404 
L 183.553383 51.876062 
L 183.581397 59.691184 
L 183.674427 50.012189 
L 183.63728 67.669942 
L 183.683701 53.674877 
L 183.72999 65.869193 
L 183.766926 51.366843 
L 183.794572 55.841646 
L 183.803777 55.180575 
L 183.812977 72.604644 
L 183.840545 49.909594 
L 183.91383 60.553193 
L 183.941226 75.001171 
L 183.959465 53.098007 
L 184.023138 74.0703 
L 184.095602 51.038639 
L 184.131712 51.937135 
L 184.167742 66.510083 
L 184.248516 57.306579 
L 184.257467 57.205585 
L 184.266412 50.086589 
L 184.319979 77.219849 
L 184.364483 50.318379 
L 184.417726 67.098879 
L 184.488445 55.613232 
L 184.506077 65.20781 
L 184.541283 52.325909 
L 184.550072 52.887089 
L 184.558857 51.760879 
L 184.567637 58.738486 
L 184.663902 68.633562 
L 184.628962 52.694275 
L 184.672625 57.718592 
L 184.681343 52.795805 
L 184.698765 61.902509 
L 184.75092 56.938063 
L 184.759597 73.619549 
L 184.811556 51.39969 
L 184.863349 60.413265 
L 184.906383 50.944795 
L 184.932149 77.982874 
L 184.975 51.228722 
L 185.026273 51.024697 
L 185.111367 75.966922 
L 185.162209 52.107205 
L 185.187571 86.742331 
L 185.229751 56.177279 
L 185.322163 51.113805 
L 185.338908 71.81861 
L 185.414049 51.287215 
L 185.455643 55.731611 
L 185.571541 86.099607 
L 185.480548 51.488406 
L 185.579787 75.85928 
L 185.711165 51.338467 
L 185.792737 81.422411 
L 185.825251 54.447193 
L 185.873899 74.455334 
L 185.90625 53.226709 
L 185.930471 54.408678 
L 185.938537 52.798079 
L 185.962709 57.454978 
L 186.010946 76.148567 
L 186.051034 54.101707 
L 186.075039 71.602261 
L 186.138878 54.145781 
L 186.162753 81.914538 
L 186.17865 58.408039 
L 186.186593 78.490193 
L 186.210398 51.638616 
L 186.281602 51.981322 
L 186.297382 57.152072 
L 186.376055 52.997854 
L 186.407417 78.334146 
L 186.485558 56.130459 
L 186.516708 61.857355 
L 186.617535 70.074586 
L 186.602064 52.171636 
L 186.625265 63.009457 
L 186.640713 52.769275 
L 186.702361 66.344212 
L 186.733097 58.368574 
L 186.786744 76.759803 
L 186.802039 56.102383 
L 186.840214 66.649961 
L 186.878299 51.478787 
L 186.893508 68.372893 
L 186.9542 58.622781 
L 186.984461 72.807425 
L 187.014666 51.815626 
L 187.059867 55.514039 
L 187.089931 52.031904 
L 187.134922 76.826536 
L 187.142408 96.604016 
L 187.22453 52.403824 
L 187.239417 60.652908 
L 187.276574 53.852539 
L 187.291412 68.757005 
L 187.298827 86.890061 
L 187.350631 52.565147 
L 187.394903 69.561351 
L 187.461085 53.323447 
L 187.475756 77.378015 
L 187.512373 58.009991 
L 187.614463 82.00849 
L 187.541608 54.07385 
L 187.621731 70.38264 
L 187.643514 52.613573 
L 187.715913 73.724295 
L 187.737569 54.462694 
L 187.773599 65.897093 
L 187.845418 54.076565 
L 187.859744 58.582308 
L 187.945432 78.118529 
L 187.931183 53.195154 
L 187.981002 69.991933 
L 188.101357 53.349204 
L 188.164714 73.91316 
L 188.129546 52.636558 
L 188.206814 54.513733 
L 188.21382 52.60432 
L 188.234819 73.497796 
L 188.276737 55.457708 
L 188.339411 81.713408 
L 188.304622 53.157736 
L 188.394918 69.518552 
L 188.429513 55.823681 
L 188.491598 77.743172 
L 188.505362 58.298394 
L 188.51224 84.605024 
L 188.546585 52.869626 
L 188.615057 64.989695 
L 188.669627 53.175369 
L 188.642365 69.340099 
L 188.730798 58.085786 
L 188.791738 89.710328 
L 188.764682 54.432991 
L 188.838978 57.643999 
L 188.845715 57.132071 
L 188.85245 59.639633 
L 188.899513 54.357178 
L 188.973193 84.259159 
L 189.086405 53.192804 
L 189.09304 59.360749 
L 189.15924 82.350015 
L 189.179047 53.609585 
L 189.192239 58.278623 
L 189.19883 53.395149 
L 189.238324 63.429866 
L 189.264599 58.969402 
L 189.271161 86.992739 
L 189.336637 53.492833 
L 189.375795 62.813989 
L 189.382312 53.505335 
L 189.414859 73.100919 
L 189.479756 59.515729 
L 189.576616 104.426805 
L 189.499174 53.91542 
L 189.583052 66.484672 
L 189.589486 55.034455 
L 189.634454 105.382835 
L 189.698477 57.631121 
L 189.717634 75.892714 
L 189.762247 56.270004 
L 189.806737 57.193302 
L 189.832105 54.361025 
L 189.844774 78.200225 
L 189.876403 59.366783 
L 189.914277 85.110092 
L 189.889037 55.804068 
L 189.983482 58.955893 
L 190.064889 98.48068 
L 189.996033 55.069572 
L 190.077377 69.816239 
L 190.089855 54.001079 
L 190.121009 70.7141 
L 190.176935 59.845915 
L 190.183137 89.808079 
L 190.263547 54.394541 
L 190.288208 68.981009 
L 190.392601 56.233098 
L 190.318982 81.812063 
L 190.398721 59.498045 
L 190.471979 80.798632 
L 190.441495 54.400467 
L 190.520633 68.332692 
L 190.563086 54.898887 
L 190.605428 88.180161 
L 190.62354 70.362233 
L 190.695788 86.73888 
L 190.671741 55.815141 
L 190.713799 61.207313 
L 190.785645 54.999211 
L 190.767714 70.128195 
L 190.797589 60.104308 
L 190.875006 111.036773 
L 190.904684 56.144894 
L 190.946141 55.335337 
L 191.022851 78.364461 
L 191.087477 85.625952 
L 191.134316 56.211659 
L 191.181019 80.470073 
L 191.239209 54.759584 
L 191.245017 56.546504 
L 191.343426 80.556204 
L 191.262427 56.013748 
L 191.366494 68.6623 
L 191.487066 55.510191 
L 191.395284 87.359822 
L 191.492785 56.691712 
L 191.538465 84.844396 
L 191.595384 56.026833 
L 191.606744 63.616172 
L 191.657765 72.801568 
L 191.719905 55.470222 
L 191.759325 79.254862 
L 191.748072 55.288607 
L 191.837878 79.213966 
L 191.899331 55.951327 
L 191.949438 60.861142 
L 192.027074 90.314731 
L 192.010469 56.021814 
L 192.060233 65.97378 
L 192.148325 57.278017 
L 192.087813 78.773684 
L 192.164789 61.622482 
L 192.225013 55.604182 
L 192.274122 85.911059 
L 192.30134 55.156829 
L 192.388131 58.027544 
L 192.474458 80.917442 
L 192.404352 55.950848 
L 192.501341 66.231771 
L 192.512082 55.295043 
L 192.60309 75.152871 
L 192.608428 63.453601 
L 192.704203 81.263785 
L 192.682969 55.612018 
L 192.709507 74.083317 
L 192.794139 56.001618 
L 192.773023 79.410679 
L 192.820496 57.181224 
L 192.841551 79.418865 
L 192.894067 56.395544 
L 192.925496 59.203042 
L 192.962085 56.021161 
L 192.941187 96.603407 
L 193.014212 65.142013 
L 193.019415 79.888281 
L 193.045408 56.440091 
L 193.123134 76.453522 
L 193.226192 57.002298 
L 193.185048 87.994617 
L 193.231327 61.507306 
L 193.246725 94.751574 
L 193.297943 57.442747 
L 193.343901 70.986005 
L 193.435427 55.750012 
L 193.420209 88.631831 
L 193.455696 64.889617 
L 193.506257 56.522232 
L 193.475939 85.038193 
L 193.566722 64.397669 
L 193.581803 84.52515 
L 193.611923 56.762928 
L 193.676991 66.882261 
L 193.771622 56.355356 
L 193.706935 112.507952 
L 193.776587 61.865518 
L 193.836051 95.289339 
L 193.796433 56.916425 
L 193.890369 82.744561 
L 193.949416 57.018795 
L 194.013142 57.745857 
L 194.096098 74.158917 
L 194.061991 56.730079 
L 194.125276 60.039051 
L 194.168943 58.882839 
L 194.14955 71.459964 
L 194.197989 62.164555 
L 194.231811 88.847288 
L 194.289626 57.985128 
L 194.304047 58.344786 
L 194.395086 89.633646 
L 194.313655 57.44502 
L 194.414187 58.527719 
L 194.418959 58.408412 
L 194.433266 60.666446 
L 194.533059 93.592727 
L 194.485615 56.761999 
L 194.556729 66.338502 
L 194.561459 57.341725 
L 194.62282 75.96832 
L 194.669864 57.884572 
L 194.679256 63.681946 
L 194.768211 82.862576 
L 194.721454 57.765732 
L 194.786876 78.203928 
L 194.796201 58.972088 
L 194.80552 105.140885 
L 194.898417 63.711728 
L 194.96774 59.610226 
L 194.930805 76.441434 
L 194.976961 64.922896 
L 195.009192 88.213656 
L 195.027581 57.709708 
L 195.091779 76.212311 
L 195.146603 58.230745 
L 195.178498 91.838489 
L 195.21033 59.93283 
L 195.214872 57.335732 
L 195.237565 84.738133 
L 195.291897 67.922902 
L 195.377552 82.393745 
L 195.368557 57.697702 
L 195.395527 71.564824 
L 195.489568 58.192697 
L 195.413481 80.409121 
L 195.502958 62.51585 
L 195.520794 82.608174 
L 195.547511 57.896738 
L 195.614111 65.02246 
L 195.658359 59.489278 
L 195.684849 75.500822 
L 195.711297 67.06757 
L 195.759672 85.576209 
L 195.785997 58.669691 
L 195.821031 65.329144 
L 195.886515 95.217867 
L 195.851623 59.741501 
L 195.930025 71.075965 
L 195.943055 94.413823 
L 196.042604 58.043815 
L 196.150118 78.78533 
L 196.085695 57.750179 
L 196.154404 71.65311 
L 196.205744 58.125339 
L 196.167254 80.092839 
L 196.269691 59.664396 
L 196.303693 79.428905 
L 196.346095 59.381917 
L 196.392609 67.873697 
L 196.396831 67.694286 
L 196.472637 59.21989 
L 196.460027 98.681115 
L 196.506215 60.420619 
L 196.514598 101.361649 
L 196.527166 58.068095 
L 196.631514 75.333033 
L 196.731059 59.855376 
L 196.714511 93.695155 
L 196.743459 64.859633 
L 196.792964 92.940496 
L 196.768231 58.368053 
L 196.85053 59.411131 
L 196.891522 90.86075 
L 196.90789 58.976682 
L 196.965048 62.206591 
L 196.97727 84.560912 
L 197.046354 58.801526 
L 197.078761 64.077834 
L 197.123216 61.357723 
L 197.151442 76.292272 
L 197.155471 70.394348 
L 197.235826 98.464036 
L 197.171574 60.314525 
L 197.263856 78.55205 
L 197.359591 59.756371 
L 197.351635 92.73701 
L 197.375492 64.63162 
L 197.399315 77.312155 
L 197.478469 59.598802 
L 197.486363 68.923194 
L 197.490309 68.725378 
L 197.525776 58.790777 
L 197.565094 102.118837 
L 197.592559 67.641048 
L 197.694166 80.120056 
L 197.64735 59.640901 
L 197.701955 73.818327 
L 197.787393 60.308978 
L 197.721413 80.081292 
L 197.814483 64.615682 
L 197.887786 95.478748 
L 197.910865 59.182309 
L 197.922393 60.302354 
L 197.999032 115.130836 
L 198.033401 60.556436 
L 198.037216 60.139883 
L 198.048653 69.229983 
L 198.052464 64.715225 
L 198.094323 83.240079 
L 198.08672 59.09509 
L 198.162586 78.296167 
L 198.173935 59.486645 
L 198.200385 80.001109 
L 198.275721 60.298016 
L 198.343223 83.529819 
L 198.369398 59.803737 
L 198.384337 61.767146 
L 198.414171 59.601603 
L 198.455105 77.419385 
L 198.48481 64.485526 
L 198.569908 92.664795 
L 198.547751 60.116643 
L 198.595718 67.351604 
L 198.599402 66.711004 
L 198.603085 98.136953 
L 198.65456 60.019434 
L 198.70953 60.350547 
L 198.800733 97.555526 
L 198.822546 78.677081 
L 198.905888 59.937859 
L 198.934777 69.366361 
L 199.031895 97.687109 
L 199.017544 61.685362 
L 199.035481 71.325292 
L 199.078448 60.284067 
L 199.099889 86.850939 
L 199.149808 62.625001 
L 199.199573 87.888049 
L 199.164042 60.097281 
L 199.263332 75.92772 
L 199.288059 60.166519 
L 199.319796 88.958126 
L 199.372553 76.082785 
L 199.432136 104.970781 
L 199.421638 60.484476 
L 199.481041 70.258702 
L 199.494986 61.798746 
L 199.568003 94.251053 
L 199.571472 80.589212 
L 199.57494 122.416353 
L 199.668297 60.817227 
L 199.678637 65.074785 
L 199.750831 84.694726 
L 199.68897 60.587206 
L 199.788518 64.258068 
L 199.832945 61.975457 
L 199.826118 75.127758 
L 199.853408 68.98734 
L 199.911248 61.561833 
L 199.965497 107.944911 
L 200.056631 61.562875 
L 200.080175 66.244085 
L 200.127159 99.204609 
L 200.086895 61.349904 
L 200.187368 72.885418 
L 200.237371 61.101235 
L 200.267299 109.638603 
L 200.300487 62.998429 
L 200.313744 114.096097 
L 200.346837 61.947611 
L 200.419404 75.817456 
L 200.462132 61.178557 
L 200.501473 91.307163 
L 200.534184 65.831813 
L 200.57009 84.49171 
L 200.557043 62.387436 
L 200.64491 66.616956 
L 200.680571 108.946356 
L 200.693519 61.530875 
L 200.758105 81.336633 
L 200.838476 61.168198 
L 200.851298 98.796724 
L 200.873713 62.608248 
L 200.892901 97.392011 
L 200.9885 67.388108 
L 200.994853 61.502031 
L 201.020241 81.857316 
L 201.099322 64.551158 
L 201.22192 100.189884 
L 201.149731 61.526006 
L 201.225052 74.388717 
L 201.256332 61.497738 
L 201.328047 79.041821 
L 201.334269 68.357562 
L 201.430391 99.293352 
L 201.421114 62.37933 
L 201.445841 75.077569 
L 201.470531 61.467216 
L 201.498262 87.511986 
L 201.553581 69.665515 
L 201.596476 62.098923 
L 201.666701 90.652589 
L 201.70018 62.045088 
L 201.77601 70.189975 
L 201.779036 101.689018 
L 201.794156 61.707925 
L 201.887589 76.66384 
L 201.929608 62.243688 
L 201.989447 81.212289 
L 202.001388 62.934312 
L 202.055014 97.662881 
L 202.08473 62.02491 
L 202.111427 64.076363 
L 202.194205 98.263346 
L 202.132162 62.205614 
L 202.232494 76.149098 
L 202.273627 62.754508 
L 202.308801 109.442764 
L 202.338054 77.002766 
L 202.340976 110.083688 
L 202.393489 63.035375 
L 202.445832 66.950165 
L 202.541355 96.288274 
L 202.524029 62.842417 
L 202.558663 69.027658 
L 202.561545 69.208924 
L 202.630578 62.424342 
L 202.673574 99.312905 
L 202.764919 62.748342 
L 202.773456 101.859279 
L 202.784832 74.20067 
L 202.790516 86.588439 
L 202.872724 62.836975 
L 202.88968 63.12866 
L 202.892504 62.753341 
L 202.900974 70.647694 
L 202.90944 94.084658 
L 202.931993 62.723711 
L 203.010682 69.693896 
L 203.11408 101.764172 
L 203.058272 63.766225 
L 203.116866 77.149634 
L 203.125219 62.888576 
L 203.219588 87.389156 
L 203.230655 64.062125 
L 203.250002 97.04923 
L 203.335407 63.888373 
L 203.340901 65.732916 
L 203.371088 62.726091 
L 203.38479 77.621901 
L 203.466762 98.474489 
L 203.458584 62.757482 
L 203.493994 76.841542 
L 203.515747 64.0248 
L 203.54832 93.933397 
L 203.605167 65.968329 
L 203.659122 109.66286 
L 203.686032 63.790493 
L 203.715581 78.148897 
L 203.801236 63.604237 
L 203.726313 95.040362 
L 203.82791 67.592458 
L 203.835904 63.333084 
L 203.841231 79.035762 
L 203.89175 75.094483 
L 203.894404 119.270576 
L 203.994954 63.949338 
L 204.000229 81.697149 
L 204.066019 63.666818 
L 204.060766 83.364227 
L 204.113223 72.003097 
L 204.207218 63.653412 
L 204.16812 94.863874 
L 204.222831 67.955177 
L 204.329118 103.769738 
L 204.230632 64.323905 
L 204.331701 76.911942 
L 204.421869 64.569469 
L 204.427007 101.626094 
L 204.442409 74.608604 
L 204.549814 97.97478 
L 204.511537 64.175571 
L 204.552363 78.456482 
L 204.638777 63.901978 
L 204.628634 92.189722 
L 204.664105 70.670279 
L 204.772566 108.996782 
L 204.674225 64.078381 
L 204.77508 80.999994 
L 204.810231 64.391334 
L 204.877806 95.184556 
L 204.882801 81.415033 
L 204.897775 104.616553 
L 204.925191 64.547357 
L 204.989809 75.757666 
L 205.059109 64.484959 
L 205.017069 109.312614 
L 205.091183 76.404604 
L 205.093648 103.012506 
L 205.187027 64.135768 
L 205.201721 72.723566 
L 205.277432 64.210538 
L 205.228627 85.071925 
L 205.311508 75.41429 
L 205.391547 65.077167 
L 205.401222 111.624667 
L 205.422969 68.014823 
L 205.476006 108.342741 
L 205.51687 64.818964 
L 205.54086 93.078944 
L 205.54805 66.429922 
L 205.655517 69.45724 
L 205.743346 87.767138 
L 205.693556 65.255524 
L 205.764638 67.942338 
L 205.769366 71.505963 
L 205.85658 112.194787 
L 205.785902 64.712826 
L 205.880071 75.916473 
L 205.957349 64.9015 
L 205.905871 98.154293 
L 205.966691 70.414952 
L 206.027283 90.951851 
L 206.03426 65.180974 
L 206.076057 72.155656 
L 206.080695 66.87529 
L 206.094599 70.874019 
L 206.122373 103.467503 
L 206.191597 65.76107 
L 206.205407 70.245744 
L 206.281149 64.75412 
L 206.23299 123.553286 
L 206.313175 69.044506 
L 206.336011 98.949859 
L 206.363373 65.309331 
L 206.422498 72.157264 
L 206.46104 66.311171 
L 206.429307 105.235007 
L 206.528833 70.770647 
L 206.603077 100.768205 
L 206.57387 65.318164 
L 206.638952 70.253289 
L 206.730519 65.559021 
L 206.690383 93.342342 
L 206.74165 79.809617 
L 206.848123 121.484015 
L 206.792756 65.024911 
L 206.850334 80.725088 
L 206.870217 66.50166 
L 206.936317 101.81887 
L 206.960486 73.719237 
L 206.971461 94.935581 
L 207.002148 65.516279 
L 207.069894 69.433279 
L 207.109099 110.631849 
L 207.161226 65.758869 
L 207.185062 78.053946 
L 207.22399 65.893546 
L 207.208862 110.569371 
L 207.297265 71.272643 
L 207.325195 96.031741 
L 207.331633 65.673573 
L 207.408695 79.629203 
L 207.504508 65.776692 
L 207.461994 89.4607 
L 207.521482 69.769843 
L 207.559609 116.450918 
L 207.610305 65.816687 
L 207.635593 82.581298 
L 207.656637 66.556013 
L 207.711222 98.632881 
L 207.748904 71.833425 
L 207.830249 66.166864 
L 207.811513 93.30286 
L 207.85935 68.964369 
L 207.969046 108.186577 
L 207.919464 66.031588 
L 207.971108 82.802634 
L 207.981417 67.760921 
L 208.036972 111.584355 
L 208.08005 72.397946 
L 208.082099 108.941845 
L 208.159749 66.080988 
L 208.190298 67.293812 
L 208.194367 96.200173 
L 208.293734 66.107544 
L 208.301819 81.82565 
L 208.330084 66.959504 
L 208.386465 98.450128 
L 208.412576 71.394435 
L 208.442651 119.010175 
L 208.466671 66.834802 
L 208.522579 72.895889 
L 208.524572 72.915868 
L 208.592193 118.059952 
L 208.54847 67.382034 
L 208.633818 69.506398 
L 208.637776 66.658972 
L 208.649647 93.409642 
L 208.689151 91.331154 
" style="fill:none;stroke:#000000;stroke-linecap:square;stroke-width:0.5;"/>
   </g>
   <g id="line2d_53">
    <path clip-path="url(#p9b4ccc4ff6)" d="M 63.08053 26.886838 
L 103.235031 26.997317 
L 113.029798 27.251486 
L 119.084604 27.632659 
L 123.478879 28.115806 
L 127.237907 28.733525 
L 130.78267 29.537711 
L 134.092016 30.513651 
L 137.497133 31.758654 
L 140.973196 33.274643 
L 144.786227 35.190386 
L 149.1756 37.657836 
L 154.590348 40.972929 
L 161.98062 45.778725 
L 174.246518 54.055682 
L 208.492652 77.530655 
L 208.691124 77.666926 
L 208.691124 77.666926 
" style="fill:none;stroke:#ff0000;stroke-linecap:square;stroke-width:2;"/>
   </g>
   <g id="patch_3">
    <path d="M 55.8 128.92249 
L 55.8 10.8 
" style="fill:none;stroke:#000000;stroke-linecap:square;stroke-linejoin:miter;stroke-width:0.8;"/>
   </g>
   <g id="patch_4">
    <path d="M 215.971654 128.92249 
L 215.971654 10.8 
" style="fill:none;stroke:#000000;stroke-linecap:square;stroke-linejoin:miter;stroke-width:0.8;"/>
   </g>
   <g id="patch_5">
    <path d="M 55.8 128.92249 
L 215.971654 128.92249 
" style="fill:none;stroke:#000000;stroke-linecap:square;stroke-linejoin:miter;stroke-width:0.8;"/>
   </g>
   <g id="patch_6">
    <path d="M 55.8 10.8 
L 215.971654 10.8 
" style="fill:none;stroke:#000000;stroke-linecap:square;stroke-linejoin:miter;stroke-width:0.8;"/>
   </g>
   <g id="legend_1">
    <g id="patch_7">
     <path d="M 62.8 123.92249 
L 144.19375 123.92249 
Q 146.19375 123.92249 146.19375 121.92249 
L 146.19375 93.56624 
Q 146.19375 91.56624 144.19375 91.56624 
L 62.8 91.56624 
Q 60.8 91.56624 60.8 93.56624 
L 60.8 121.92249 
Q 60.8 123.92249 62.8 123.92249 
z
" style="fill:#ffffff;opacity:0.8;stroke:#cccccc;stroke-linejoin:miter;"/>
    </g>
    <g id="line2d_54">
     <path d="M 64.8 99.664678 
L 84.8 99.664678 
" style="fill:none;stroke:#000000;stroke-linecap:square;stroke-width:0.5;"/>
    </g>
    <g id="line2d_55"/>
    <g id="text_10">
     <!-- simulated -->
     <defs>
      <path d="M 44.28125 53.078125 
L 44.28125 44.578125 
Q 40.484375 46.53125 36.375 47.5 
Q 32.28125 48.484375 27.875 48.484375 
Q 21.1875 48.484375 17.84375 46.4375 
Q 14.5 44.390625 14.5 40.28125 
Q 14.5 37.15625 16.890625 35.375 
Q 19.28125 33.59375 26.515625 31.984375 
L 29.59375 31.296875 
Q 39.15625 29.25 43.1875 25.515625 
Q 47.21875 21.78125 47.21875 15.09375 
Q 47.21875 7.46875 41.1875 3.015625 
Q 35.15625 -1.421875 24.609375 -1.421875 
Q 20.21875 -1.421875 15.453125 -0.5625 
Q 10.6875 0.296875 5.421875 2 
L 5.421875 11.28125 
Q 10.40625 8.6875 15.234375 7.390625 
Q 20.0625 6.109375 24.8125 6.109375 
Q 31.15625 6.109375 34.5625 8.28125 
Q 37.984375 10.453125 37.984375 14.40625 
Q 37.984375 18.0625 35.515625 20.015625 
Q 33.0625 21.96875 24.703125 23.78125 
L 21.578125 24.515625 
Q 13.234375 26.265625 9.515625 29.90625 
Q 5.8125 33.546875 5.8125 39.890625 
Q 5.8125 47.609375 11.28125 51.796875 
Q 16.75 56 26.8125 56 
Q 31.78125 56 36.171875 55.265625 
Q 40.578125 54.546875 44.28125 53.078125 
z
" id="DejaVuSans-115"/>
      <path d="M 9.421875 54.6875 
L 18.40625 54.6875 
L 18.40625 0 
L 9.421875 0 
z
M 9.421875 75.984375 
L 18.40625 75.984375 
L 18.40625 64.59375 
L 9.421875 64.59375 
z
" id="DejaVuSans-105"/>
      <path d="M 52 44.1875 
Q 55.375 50.25 60.0625 53.125 
Q 64.75 56 71.09375 56 
Q 79.640625 56 84.28125 50.015625 
Q 88.921875 44.046875 88.921875 33.015625 
L 88.921875 0 
L 79.890625 0 
L 79.890625 32.71875 
Q 79.890625 40.578125 77.09375 44.375 
Q 74.3125 48.1875 68.609375 48.1875 
Q 61.625 48.1875 57.5625 43.546875 
Q 53.515625 38.921875 53.515625 30.90625 
L 53.515625 0 
L 44.484375 0 
L 44.484375 32.71875 
Q 44.484375 40.625 41.703125 44.40625 
Q 38.921875 48.1875 33.109375 48.1875 
Q 26.21875 48.1875 22.15625 43.53125 
Q 18.109375 38.875 18.109375 30.90625 
L 18.109375 0 
L 9.078125 0 
L 9.078125 54.6875 
L 18.109375 54.6875 
L 18.109375 46.1875 
Q 21.1875 51.21875 25.484375 53.609375 
Q 29.78125 56 35.6875 56 
Q 41.65625 56 45.828125 52.96875 
Q 50 49.953125 52 44.1875 
z
" id="DejaVuSans-109"/>
      <path d="M 8.5 21.578125 
L 8.5 54.6875 
L 17.484375 54.6875 
L 17.484375 21.921875 
Q 17.484375 14.15625 20.5 10.265625 
Q 23.53125 6.390625 29.59375 6.390625 
Q 36.859375 6.390625 41.078125 11.03125 
Q 45.3125 15.671875 45.3125 23.6875 
L 45.3125 54.6875 
L 54.296875 54.6875 
L 54.296875 0 
L 45.3125 0 
L 45.3125 8.40625 
Q 42.046875 3.421875 37.71875 1 
Q 33.40625 -1.421875 27.6875 -1.421875 
Q 18.265625 -1.421875 13.375 4.4375 
Q 8.5 10.296875 8.5 21.578125 
z
M 31.109375 56 
z
" id="DejaVuSans-117"/>
      <path d="M 9.421875 75.984375 
L 18.40625 75.984375 
L 18.40625 0 
L 9.421875 0 
z
" id="DejaVuSans-108"/>
      <path d="M 34.28125 27.484375 
Q 23.390625 27.484375 19.1875 25 
Q 14.984375 22.515625 14.984375 16.5 
Q 14.984375 11.71875 18.140625 8.90625 
Q 21.296875 6.109375 26.703125 6.109375 
Q 34.1875 6.109375 38.703125 11.40625 
Q 43.21875 16.703125 43.21875 25.484375 
L 43.21875 27.484375 
z
M 52.203125 31.203125 
L 52.203125 0 
L 43.21875 0 
L 43.21875 8.296875 
Q 40.140625 3.328125 35.546875 0.953125 
Q 30.953125 -1.421875 24.3125 -1.421875 
Q 15.921875 -1.421875 10.953125 3.296875 
Q 6 8.015625 6 15.921875 
Q 6 25.140625 12.171875 29.828125 
Q 18.359375 34.515625 30.609375 34.515625 
L 43.21875 34.515625 
L 43.21875 35.40625 
Q 43.21875 41.609375 39.140625 45 
Q 35.0625 48.390625 27.6875 48.390625 
Q 23 48.390625 18.546875 47.265625 
Q 14.109375 46.140625 10.015625 43.890625 
L 10.015625 52.203125 
Q 14.9375 54.109375 19.578125 55.046875 
Q 24.21875 56 28.609375 56 
Q 40.484375 56 46.34375 49.84375 
Q 52.203125 43.703125 52.203125 31.203125 
z
" id="DejaVuSans-97"/>
      <path d="M 18.3125 70.21875 
L 18.3125 54.6875 
L 36.8125 54.6875 
L 36.8125 47.703125 
L 18.3125 47.703125 
L 18.3125 18.015625 
Q 18.3125 11.328125 20.140625 9.421875 
Q 21.96875 7.515625 27.59375 7.515625 
L 36.8125 7.515625 
L 36.8125 0 
L 27.59375 0 
Q 17.1875 0 13.234375 3.875 
Q 9.28125 7.765625 9.28125 18.015625 
L 9.28125 47.703125 
L 2.6875 47.703125 
L 2.6875 54.6875 
L 9.28125 54.6875 
L 9.28125 70.21875 
z
" id="DejaVuSans-116"/>
      <path d="M 56.203125 29.59375 
L 56.203125 25.203125 
L 14.890625 25.203125 
Q 15.484375 15.921875 20.484375 11.0625 
Q 25.484375 6.203125 34.421875 6.203125 
Q 39.59375 6.203125 44.453125 7.46875 
Q 49.3125 8.734375 54.109375 11.28125 
L 54.109375 2.78125 
Q 49.265625 0.734375 44.1875 -0.34375 
Q 39.109375 -1.421875 33.890625 -1.421875 
Q 20.796875 -1.421875 13.15625 6.1875 
Q 5.515625 13.8125 5.515625 26.8125 
Q 5.515625 40.234375 12.765625 48.109375 
Q 20.015625 56 32.328125 56 
Q 43.359375 56 49.78125 48.890625 
Q 56.203125 41.796875 56.203125 29.59375 
z
M 47.21875 32.234375 
Q 47.125 39.59375 43.09375 43.984375 
Q 39.0625 48.390625 32.421875 48.390625 
Q 24.90625 48.390625 20.390625 44.140625 
Q 15.875 39.890625 15.1875 32.171875 
z
" id="DejaVuSans-101"/>
      <path d="M 45.40625 46.390625 
L 45.40625 75.984375 
L 54.390625 75.984375 
L 54.390625 0 
L 45.40625 0 
L 45.40625 8.203125 
Q 42.578125 3.328125 38.25 0.953125 
Q 33.9375 -1.421875 27.875 -1.421875 
Q 17.96875 -1.421875 11.734375 6.484375 
Q 5.515625 14.40625 5.515625 27.296875 
Q 5.515625 40.1875 11.734375 48.09375 
Q 17.96875 56 27.875 56 
Q 33.9375 56 38.25 53.625 
Q 42.578125 51.265625 45.40625 46.390625 
z
M 14.796875 27.296875 
Q 14.796875 17.390625 18.875 11.75 
Q 22.953125 6.109375 30.078125 6.109375 
Q 37.203125 6.109375 41.296875 11.75 
Q 45.40625 17.390625 45.40625 27.296875 
Q 45.40625 37.203125 41.296875 42.84375 
Q 37.203125 48.484375 30.078125 48.484375 
Q 22.953125 48.484375 18.875 42.84375 
Q 14.796875 37.203125 14.796875 27.296875 
z
" id="DejaVuSans-100"/>
     </defs>
     <g transform="translate(92.8 103.164678)scale(0.1 -0.1)">
      <use xlink:href="#DejaVuSans-115"/>
      <use x="52.099609" xlink:href="#DejaVuSans-105"/>
      <use x="79.882812" xlink:href="#DejaVuSans-109"/>
      <use x="177.294922" xlink:href="#DejaVuSans-117"/>
      <use x="240.673828" xlink:href="#DejaVuSans-108"/>
      <use x="268.457031" xlink:href="#DejaVuSans-97"/>
      <use x="329.736328" xlink:href="#DejaVuSans-116"/>
      <use x="368.945312" xlink:href="#DejaVuSans-101"/>
      <use x="430.46875" xlink:href="#DejaVuSans-100"/>
     </g>
    </g>
    <g id="line2d_56">
     <path d="M 64.8 114.342803 
L 84.8 114.342803 
" style="fill:none;stroke:#ff0000;stroke-linecap:square;stroke-width:2;"/>
    </g>
    <g id="line2d_57"/>
    <g id="text_11">
     <!-- target -->
     <defs>
      <path d="M 41.109375 46.296875 
Q 39.59375 47.171875 37.8125 47.578125 
Q 36.03125 48 33.890625 48 
Q 26.265625 48 22.1875 43.046875 
Q 18.109375 38.09375 18.109375 28.8125 
L 18.109375 0 
L 9.078125 0 
L 9.078125 54.6875 
L 18.109375 54.6875 
L 18.109375 46.1875 
Q 20.953125 51.171875 25.484375 53.578125 
Q 30.03125 56 36.53125 56 
Q 37.453125 56 38.578125 55.875 
Q 39.703125 55.765625 41.0625 55.515625 
z
" id="DejaVuSans-114"/>
      <path d="M 45.40625 27.984375 
Q 45.40625 37.75 41.375 43.109375 
Q 37.359375 48.484375 30.078125 48.484375 
Q 22.859375 48.484375 18.828125 43.109375 
Q 14.796875 37.75 14.796875 27.984375 
Q 14.796875 18.265625 18.828125 12.890625 
Q 22.859375 7.515625 30.078125 7.515625 
Q 37.359375 7.515625 41.375 12.890625 
Q 45.40625 18.265625 45.40625 27.984375 
z
M 54.390625 6.78125 
Q 54.390625 -7.171875 48.1875 -13.984375 
Q 42 -20.796875 29.203125 -20.796875 
Q 24.46875 -20.796875 20.265625 -20.09375 
Q 16.0625 -19.390625 12.109375 -17.921875 
L 12.109375 -9.1875 
Q 16.0625 -11.328125 19.921875 -12.34375 
Q 23.78125 -13.375 27.78125 -13.375 
Q 36.625 -13.375 41.015625 -8.765625 
Q 45.40625 -4.15625 45.40625 5.171875 
L 45.40625 9.625 
Q 42.625 4.78125 38.28125 2.390625 
Q 33.9375 0 27.875 0 
Q 17.828125 0 11.671875 7.65625 
Q 5.515625 15.328125 5.515625 27.984375 
Q 5.515625 40.671875 11.671875 48.328125 
Q 17.828125 56 27.875 56 
Q 33.9375 56 38.28125 53.609375 
Q 42.625 51.21875 45.40625 46.390625 
L 45.40625 54.6875 
L 54.390625 54.6875 
z
" id="DejaVuSans-103"/>
     </defs>
     <g transform="translate(92.8 117.842803)scale(0.1 -0.1)">
      <use xlink:href="#DejaVuSans-116"/>
      <use x="39.208984" xlink:href="#DejaVuSans-97"/>
      <use x="100.488281" xlink:href="#DejaVuSans-114"/>
      <use x="141.585938" xlink:href="#DejaVuSans-103"/>
      <use x="205.0625" xlink:href="#DejaVuSans-101"/>
      <use x="266.585938" xlink:href="#DejaVuSans-116"/>
     </g>
    </g>
   </g>
  </g>
 </g>
 <defs>
  <clipPath id="p9b4ccc4ff6">
   <rect height="118.12249" width="160.171654" x="55.8" y="10.8"/>
  </clipPath>
 </defs>
</svg>
