<?xml version="1.0" encoding="utf-8" standalone="no"?>
<!DOCTYPE svg PUBLIC "-//W3C//DTD SVG 1.1//EN"
  "http://www.w3.org/Graphics/SVG/1.1/DTD/svg11.dtd">
<!-- Created with matplotlib (https://matplotlib.org/) -->
<svg height="170.07874pt" version="1.1" viewBox="0 0 226.771654 170.07874" width="226.771654pt" xmlns="http://www.w3.org/2000/svg" xmlns:xlink="http://www.w3.org/1999/xlink">
 <defs>
  <style type="text/css">
*{stroke-linecap:butt;stroke-linejoin:round;}
  </style>
 </defs>
 <g id="figure_1">
  <g id="patch_1">
   <path d="M 0 170.07874 
L 226.771654 170.07874 
L 226.771654 0 
L 0 0 
z
" style="fill:#ffffff;"/>
  </g>
  <g id="axes_1">
   <g id="patch_2">
    <path d="M 54.978125 128.92249 
L 215.971654 128.92249 
L 215.971654 10.8 
L 54.978125 10.8 
z
" style="fill:#ffffff;"/>
   </g>
   <g id="matplotlib.axis_1">
    <g id="xtick_1">
     <g id="line2d_1">
      <path clip-path="url(#p4136b4303b)" d="M 85.1978 128.92249 
L 85.1978 10.8 
" style="fill:none;stroke:#b0b0b0;stroke-linecap:square;stroke-width:0.8;"/>
     </g>
     <g id="line2d_2">
      <defs>
       <path d="M 0 0 
L 0 3.5 
" id="m37dfbc712c" style="stroke:#000000;stroke-width:0.8;"/>
      </defs>
      <g>
       <use style="stroke:#000000;stroke-width:0.8;" x="85.1978" xlink:href="#m37dfbc712c" y="128.92249"/>
      </g>
     </g>
     <g id="text_1">
      <!-- $\mathdefault{10^{-3}}$ -->
      <defs>
       <path d="M 12.40625 8.296875 
L 28.515625 8.296875 
L 28.515625 63.921875 
L 10.984375 60.40625 
L 10.984375 69.390625 
L 28.421875 72.90625 
L 38.28125 72.90625 
L 38.28125 8.296875 
L 54.390625 8.296875 
L 54.390625 0 
L 12.40625 0 
z
" id="DejaVuSans-49"/>
       <path d="M 31.78125 66.40625 
Q 24.171875 66.40625 20.328125 58.90625 
Q 16.5 51.421875 16.5 36.375 
Q 16.5 21.390625 20.328125 13.890625 
Q 24.171875 6.390625 31.78125 6.390625 
Q 39.453125 6.390625 43.28125 13.890625 
Q 47.125 21.390625 47.125 36.375 
Q 47.125 51.421875 43.28125 58.90625 
Q 39.453125 66.40625 31.78125 66.40625 
z
M 31.78125 74.21875 
Q 44.046875 74.21875 50.515625 64.515625 
Q 56.984375 54.828125 56.984375 36.375 
Q 56.984375 17.96875 50.515625 8.265625 
Q 44.046875 -1.421875 31.78125 -1.421875 
Q 19.53125 -1.421875 13.0625 8.265625 
Q 6.59375 17.96875 6.59375 36.375 
Q 6.59375 54.828125 13.0625 64.515625 
Q 19.53125 74.21875 31.78125 74.21875 
z
" id="DejaVuSans-48"/>
       <path d="M 10.59375 35.5 
L 73.1875 35.5 
L 73.1875 27.203125 
L 10.59375 27.203125 
z
" id="DejaVuSans-8722"/>
       <path d="M 40.578125 39.3125 
Q 47.65625 37.796875 51.625 33 
Q 55.609375 28.21875 55.609375 21.1875 
Q 55.609375 10.40625 48.1875 4.484375 
Q 40.765625 -1.421875 27.09375 -1.421875 
Q 22.515625 -1.421875 17.65625 -0.515625 
Q 12.796875 0.390625 7.625 2.203125 
L 7.625 11.71875 
Q 11.71875 9.328125 16.59375 8.109375 
Q 21.484375 6.890625 26.8125 6.890625 
Q 36.078125 6.890625 40.9375 10.546875 
Q 45.796875 14.203125 45.796875 21.1875 
Q 45.796875 27.640625 41.28125 31.265625 
Q 36.765625 34.90625 28.71875 34.90625 
L 20.21875 34.90625 
L 20.21875 43.015625 
L 29.109375 43.015625 
Q 36.375 43.015625 40.234375 45.921875 
Q 44.09375 48.828125 44.09375 54.296875 
Q 44.09375 59.90625 40.109375 62.90625 
Q 36.140625 65.921875 28.71875 65.921875 
Q 24.65625 65.921875 20.015625 65.03125 
Q 15.375 64.15625 9.8125 62.3125 
L 9.8125 71.09375 
Q 15.4375 72.65625 20.34375 73.4375 
Q 25.25 74.21875 29.59375 74.21875 
Q 40.828125 74.21875 47.359375 69.109375 
Q 53.90625 64.015625 53.90625 55.328125 
Q 53.90625 49.265625 50.4375 45.09375 
Q 46.96875 40.921875 40.578125 39.3125 
z
" id="DejaVuSans-51"/>
      </defs>
      <g transform="translate(73.4478 143.520928)scale(0.1 -0.1)">
       <use transform="translate(0 0.765625)" xlink:href="#DejaVuSans-49"/>
       <use transform="translate(63.623047 0.765625)" xlink:href="#DejaVuSans-48"/>
       <use transform="translate(128.203125 39.046875)scale(0.7)" xlink:href="#DejaVuSans-8722"/>
       <use transform="translate(186.855469 39.046875)scale(0.7)" xlink:href="#DejaVuSans-51"/>
      </g>
     </g>
    </g>
    <g id="xtick_2">
     <g id="line2d_3">
      <path clip-path="url(#p4136b4303b)" d="M 122.597026 128.92249 
L 122.597026 10.8 
" style="fill:none;stroke:#b0b0b0;stroke-linecap:square;stroke-width:0.8;"/>
     </g>
     <g id="line2d_4">
      <g>
       <use style="stroke:#000000;stroke-width:0.8;" x="122.597026" xlink:href="#m37dfbc712c" y="128.92249"/>
      </g>
     </g>
     <g id="text_2">
      <!-- $\mathdefault{10^{-2}}$ -->
      <defs>
       <path d="M 19.1875 8.296875 
L 53.609375 8.296875 
L 53.609375 0 
L 7.328125 0 
L 7.328125 8.296875 
Q 12.9375 14.109375 22.625 23.890625 
Q 32.328125 33.6875 34.8125 36.53125 
Q 39.546875 41.84375 41.421875 45.53125 
Q 43.3125 49.21875 43.3125 52.78125 
Q 43.3125 58.59375 39.234375 62.25 
Q 35.15625 65.921875 28.609375 65.921875 
Q 23.96875 65.921875 18.8125 64.3125 
Q 13.671875 62.703125 7.8125 59.421875 
L 7.8125 69.390625 
Q 13.765625 71.78125 18.9375 73 
Q 24.125 74.21875 28.421875 74.21875 
Q 39.75 74.21875 46.484375 68.546875 
Q 53.21875 62.890625 53.21875 53.421875 
Q 53.21875 48.921875 51.53125 44.890625 
Q 49.859375 40.875 45.40625 35.40625 
Q 44.1875 33.984375 37.640625 27.21875 
Q 31.109375 20.453125 19.1875 8.296875 
z
" id="DejaVuSans-50"/>
      </defs>
      <g transform="translate(110.847026 143.520928)scale(0.1 -0.1)">
       <use transform="translate(0 0.765625)" xlink:href="#DejaVuSans-49"/>
       <use transform="translate(63.623047 0.765625)" xlink:href="#DejaVuSans-48"/>
       <use transform="translate(128.203125 39.046875)scale(0.7)" xlink:href="#DejaVuSans-8722"/>
       <use transform="translate(186.855469 39.046875)scale(0.7)" xlink:href="#DejaVuSans-50"/>
      </g>
     </g>
    </g>
    <g id="xtick_3">
     <g id="line2d_5">
      <path clip-path="url(#p4136b4303b)" d="M 159.996252 128.92249 
L 159.996252 10.8 
" style="fill:none;stroke:#b0b0b0;stroke-linecap:square;stroke-width:0.8;"/>
     </g>
     <g id="line2d_6">
      <g>
       <use style="stroke:#000000;stroke-width:0.8;" x="159.996252" xlink:href="#m37dfbc712c" y="128.92249"/>
      </g>
     </g>
     <g id="text_3">
      <!-- $\mathdefault{10^{-1}}$ -->
      <g transform="translate(148.246252 143.520928)scale(0.1 -0.1)">
       <use transform="translate(0 0.684375)" xlink:href="#DejaVuSans-49"/>
       <use transform="translate(63.623047 0.684375)" xlink:href="#DejaVuSans-48"/>
       <use transform="translate(128.203125 38.965625)scale(0.7)" xlink:href="#DejaVuSans-8722"/>
       <use transform="translate(186.855469 38.965625)scale(0.7)" xlink:href="#DejaVuSans-49"/>
      </g>
     </g>
    </g>
    <g id="xtick_4">
     <g id="line2d_7">
      <path clip-path="url(#p4136b4303b)" d="M 197.395477 128.92249 
L 197.395477 10.8 
" style="fill:none;stroke:#b0b0b0;stroke-linecap:square;stroke-width:0.8;"/>
     </g>
     <g id="line2d_8">
      <g>
       <use style="stroke:#000000;stroke-width:0.8;" x="197.395477" xlink:href="#m37dfbc712c" y="128.92249"/>
      </g>
     </g>
     <g id="text_4">
      <!-- $\mathdefault{10^{0}}$ -->
      <g transform="translate(188.595477 143.520928)scale(0.1 -0.1)">
       <use transform="translate(0 0.765625)" xlink:href="#DejaVuSans-49"/>
       <use transform="translate(63.623047 0.765625)" xlink:href="#DejaVuSans-48"/>
       <use transform="translate(128.203125 39.046875)scale(0.7)" xlink:href="#DejaVuSans-48"/>
      </g>
     </g>
    </g>
    <g id="xtick_5">
     <g id="line2d_9">
      <defs>
       <path d="M 0 0 
L 0 2 
" id="me5d080700b" style="stroke:#000000;stroke-width:0.6;"/>
      </defs>
      <g>
       <use style="stroke:#000000;stroke-width:0.6;" x="59.056864" xlink:href="#me5d080700b" y="128.92249"/>
      </g>
     </g>
    </g>
    <g id="xtick_6">
     <g id="line2d_10">
      <g>
       <use style="stroke:#000000;stroke-width:0.6;" x="65.64254" xlink:href="#me5d080700b" y="128.92249"/>
      </g>
     </g>
    </g>
    <g id="xtick_7">
     <g id="line2d_11">
      <g>
       <use style="stroke:#000000;stroke-width:0.6;" x="70.315152" xlink:href="#me5d080700b" y="128.92249"/>
      </g>
     </g>
    </g>
    <g id="xtick_8">
     <g id="line2d_12">
      <g>
       <use style="stroke:#000000;stroke-width:0.6;" x="73.939512" xlink:href="#me5d080700b" y="128.92249"/>
      </g>
     </g>
    </g>
    <g id="xtick_9">
     <g id="line2d_13">
      <g>
       <use style="stroke:#000000;stroke-width:0.6;" x="76.900829" xlink:href="#me5d080700b" y="128.92249"/>
      </g>
     </g>
    </g>
    <g id="xtick_10">
     <g id="line2d_14">
      <g>
       <use style="stroke:#000000;stroke-width:0.6;" x="79.404587" xlink:href="#me5d080700b" y="128.92249"/>
      </g>
     </g>
    </g>
    <g id="xtick_11">
     <g id="line2d_15">
      <g>
       <use style="stroke:#000000;stroke-width:0.6;" x="81.573441" xlink:href="#me5d080700b" y="128.92249"/>
      </g>
     </g>
    </g>
    <g id="xtick_12">
     <g id="line2d_16">
      <g>
       <use style="stroke:#000000;stroke-width:0.6;" x="83.486506" xlink:href="#me5d080700b" y="128.92249"/>
      </g>
     </g>
    </g>
    <g id="xtick_13">
     <g id="line2d_17">
      <g>
       <use style="stroke:#000000;stroke-width:0.6;" x="96.456089" xlink:href="#me5d080700b" y="128.92249"/>
      </g>
     </g>
    </g>
    <g id="xtick_14">
     <g id="line2d_18">
      <g>
       <use style="stroke:#000000;stroke-width:0.6;" x="103.041766" xlink:href="#me5d080700b" y="128.92249"/>
      </g>
     </g>
    </g>
    <g id="xtick_15">
     <g id="line2d_19">
      <g>
       <use style="stroke:#000000;stroke-width:0.6;" x="107.714378" xlink:href="#me5d080700b" y="128.92249"/>
      </g>
     </g>
    </g>
    <g id="xtick_16">
     <g id="line2d_20">
      <g>
       <use style="stroke:#000000;stroke-width:0.6;" x="111.338737" xlink:href="#me5d080700b" y="128.92249"/>
      </g>
     </g>
    </g>
    <g id="xtick_17">
     <g id="line2d_21">
      <g>
       <use style="stroke:#000000;stroke-width:0.6;" x="114.300055" xlink:href="#me5d080700b" y="128.92249"/>
      </g>
     </g>
    </g>
    <g id="xtick_18">
     <g id="line2d_22">
      <g>
       <use style="stroke:#000000;stroke-width:0.6;" x="116.803813" xlink:href="#me5d080700b" y="128.92249"/>
      </g>
     </g>
    </g>
    <g id="xtick_19">
     <g id="line2d_23">
      <g>
       <use style="stroke:#000000;stroke-width:0.6;" x="118.972667" xlink:href="#me5d080700b" y="128.92249"/>
      </g>
     </g>
    </g>
    <g id="xtick_20">
     <g id="line2d_24">
      <g>
       <use style="stroke:#000000;stroke-width:0.6;" x="120.885731" xlink:href="#me5d080700b" y="128.92249"/>
      </g>
     </g>
    </g>
    <g id="xtick_21">
     <g id="line2d_25">
      <g>
       <use style="stroke:#000000;stroke-width:0.6;" x="133.855315" xlink:href="#me5d080700b" y="128.92249"/>
      </g>
     </g>
    </g>
    <g id="xtick_22">
     <g id="line2d_26">
      <g>
       <use style="stroke:#000000;stroke-width:0.6;" x="140.440991" xlink:href="#me5d080700b" y="128.92249"/>
      </g>
     </g>
    </g>
    <g id="xtick_23">
     <g id="line2d_27">
      <g>
       <use style="stroke:#000000;stroke-width:0.6;" x="145.113603" xlink:href="#me5d080700b" y="128.92249"/>
      </g>
     </g>
    </g>
    <g id="xtick_24">
     <g id="line2d_28">
      <g>
       <use style="stroke:#000000;stroke-width:0.6;" x="148.737963" xlink:href="#me5d080700b" y="128.92249"/>
      </g>
     </g>
    </g>
    <g id="xtick_25">
     <g id="line2d_29">
      <g>
       <use style="stroke:#000000;stroke-width:0.6;" x="151.69928" xlink:href="#me5d080700b" y="128.92249"/>
      </g>
     </g>
    </g>
    <g id="xtick_26">
     <g id="line2d_30">
      <g>
       <use style="stroke:#000000;stroke-width:0.6;" x="154.203038" xlink:href="#me5d080700b" y="128.92249"/>
      </g>
     </g>
    </g>
    <g id="xtick_27">
     <g id="line2d_31">
      <g>
       <use style="stroke:#000000;stroke-width:0.6;" x="156.371892" xlink:href="#me5d080700b" y="128.92249"/>
      </g>
     </g>
    </g>
    <g id="xtick_28">
     <g id="line2d_32">
      <g>
       <use style="stroke:#000000;stroke-width:0.6;" x="158.284957" xlink:href="#me5d080700b" y="128.92249"/>
      </g>
     </g>
    </g>
    <g id="xtick_29">
     <g id="line2d_33">
      <g>
       <use style="stroke:#000000;stroke-width:0.6;" x="171.25454" xlink:href="#me5d080700b" y="128.92249"/>
      </g>
     </g>
    </g>
    <g id="xtick_30">
     <g id="line2d_34">
      <g>
       <use style="stroke:#000000;stroke-width:0.6;" x="177.840217" xlink:href="#me5d080700b" y="128.92249"/>
      </g>
     </g>
    </g>
    <g id="xtick_31">
     <g id="line2d_35">
      <g>
       <use style="stroke:#000000;stroke-width:0.6;" x="182.512829" xlink:href="#me5d080700b" y="128.92249"/>
      </g>
     </g>
    </g>
    <g id="xtick_32">
     <g id="line2d_36">
      <g>
       <use style="stroke:#000000;stroke-width:0.6;" x="186.137188" xlink:href="#me5d080700b" y="128.92249"/>
      </g>
     </g>
    </g>
    <g id="xtick_33">
     <g id="line2d_37">
      <g>
       <use style="stroke:#000000;stroke-width:0.6;" x="189.098506" xlink:href="#me5d080700b" y="128.92249"/>
      </g>
     </g>
    </g>
    <g id="xtick_34">
     <g id="line2d_38">
      <g>
       <use style="stroke:#000000;stroke-width:0.6;" x="191.602264" xlink:href="#me5d080700b" y="128.92249"/>
      </g>
     </g>
    </g>
    <g id="xtick_35">
     <g id="line2d_39">
      <g>
       <use style="stroke:#000000;stroke-width:0.6;" x="193.771118" xlink:href="#me5d080700b" y="128.92249"/>
      </g>
     </g>
    </g>
    <g id="xtick_36">
     <g id="line2d_40">
      <g>
       <use style="stroke:#000000;stroke-width:0.6;" x="195.684182" xlink:href="#me5d080700b" y="128.92249"/>
      </g>
     </g>
    </g>
    <g id="xtick_37">
     <g id="line2d_41">
      <g>
       <use style="stroke:#000000;stroke-width:0.6;" x="208.653766" xlink:href="#me5d080700b" y="128.92249"/>
      </g>
     </g>
    </g>
    <g id="xtick_38">
     <g id="line2d_42">
      <g>
       <use style="stroke:#000000;stroke-width:0.6;" x="215.239443" xlink:href="#me5d080700b" y="128.92249"/>
      </g>
     </g>
    </g>
    <g id="text_5">
     <!-- f (Hz) -->
     <defs>
      <path d="M 37.109375 75.984375 
L 37.109375 68.5 
L 28.515625 68.5 
Q 23.6875 68.5 21.796875 66.546875 
Q 19.921875 64.59375 19.921875 59.515625 
L 19.921875 54.6875 
L 34.71875 54.6875 
L 34.71875 47.703125 
L 19.921875 47.703125 
L 19.921875 0 
L 10.890625 0 
L 10.890625 47.703125 
L 2.296875 47.703125 
L 2.296875 54.6875 
L 10.890625 54.6875 
L 10.890625 58.5 
Q 10.890625 67.625 15.140625 71.796875 
Q 19.390625 75.984375 28.609375 75.984375 
z
" id="DejaVuSans-102"/>
      <path id="DejaVuSans-32"/>
      <path d="M 31 75.875 
Q 24.46875 64.65625 21.28125 53.65625 
Q 18.109375 42.671875 18.109375 31.390625 
Q 18.109375 20.125 21.3125 9.0625 
Q 24.515625 -2 31 -13.1875 
L 23.1875 -13.1875 
Q 15.875 -1.703125 12.234375 9.375 
Q 8.59375 20.453125 8.59375 31.390625 
Q 8.59375 42.28125 12.203125 53.3125 
Q 15.828125 64.359375 23.1875 75.875 
z
" id="DejaVuSans-40"/>
      <path d="M 9.8125 72.90625 
L 19.671875 72.90625 
L 19.671875 43.015625 
L 55.515625 43.015625 
L 55.515625 72.90625 
L 65.375 72.90625 
L 65.375 0 
L 55.515625 0 
L 55.515625 34.71875 
L 19.671875 34.71875 
L 19.671875 0 
L 9.8125 0 
z
" id="DejaVuSans-72"/>
      <path d="M 5.515625 54.6875 
L 48.1875 54.6875 
L 48.1875 46.484375 
L 14.40625 7.171875 
L 48.1875 7.171875 
L 48.1875 0 
L 4.296875 0 
L 4.296875 8.203125 
L 38.09375 47.515625 
L 5.515625 47.515625 
z
" id="DejaVuSans-122"/>
      <path d="M 8.015625 75.875 
L 15.828125 75.875 
Q 23.140625 64.359375 26.78125 53.3125 
Q 30.421875 42.28125 30.421875 31.390625 
Q 30.421875 20.453125 26.78125 9.375 
Q 23.140625 -1.703125 15.828125 -13.1875 
L 8.015625 -13.1875 
Q 14.5 -2 17.703125 9.0625 
Q 20.90625 20.125 20.90625 31.390625 
Q 20.90625 42.671875 17.703125 53.65625 
Q 14.5 64.65625 8.015625 75.875 
z
" id="DejaVuSans-41"/>
     </defs>
     <g transform="translate(121.839733 157.199053)scale(0.1 -0.1)">
      <use xlink:href="#DejaVuSans-102"/>
      <use x="35.205078" xlink:href="#DejaVuSans-32"/>
      <use x="66.992188" xlink:href="#DejaVuSans-40"/>
      <use x="106.005859" xlink:href="#DejaVuSans-72"/>
      <use x="181.201172" xlink:href="#DejaVuSans-122"/>
      <use x="233.691406" xlink:href="#DejaVuSans-41"/>
     </g>
    </g>
   </g>
   <g id="matplotlib.axis_2">
    <g id="ytick_1">
     <g id="line2d_43">
      <path clip-path="url(#p4136b4303b)" d="M 54.978125 109.872985 
L 215.971654 109.872985 
" style="fill:none;stroke:#b0b0b0;stroke-linecap:square;stroke-width:0.8;"/>
     </g>
     <g id="line2d_44">
      <defs>
       <path d="M 0 0 
L -3.5 0 
" id="mec3036ca0f" style="stroke:#000000;stroke-width:0.8;"/>
      </defs>
      <g>
       <use style="stroke:#000000;stroke-width:0.8;" x="54.978125" xlink:href="#mec3036ca0f" y="109.872985"/>
      </g>
     </g>
     <g id="text_6">
      <!-- $\mathdefault{10^{-4}}$ -->
      <defs>
       <path d="M 37.796875 64.3125 
L 12.890625 25.390625 
L 37.796875 25.390625 
z
M 35.203125 72.90625 
L 47.609375 72.90625 
L 47.609375 25.390625 
L 58.015625 25.390625 
L 58.015625 17.1875 
L 47.609375 17.1875 
L 47.609375 0 
L 37.796875 0 
L 37.796875 17.1875 
L 4.890625 17.1875 
L 4.890625 26.703125 
z
" id="DejaVuSans-52"/>
      </defs>
      <g transform="translate(24.478125 113.672204)scale(0.1 -0.1)">
       <use transform="translate(0 0.684375)" xlink:href="#DejaVuSans-49"/>
       <use transform="translate(63.623047 0.684375)" xlink:href="#DejaVuSans-48"/>
       <use transform="translate(128.203125 38.965625)scale(0.7)" xlink:href="#DejaVuSans-8722"/>
       <use transform="translate(186.855469 38.965625)scale(0.7)" xlink:href="#DejaVuSans-52"/>
      </g>
     </g>
    </g>
    <g id="ytick_2">
     <g id="line2d_45">
      <path clip-path="url(#p4136b4303b)" d="M 54.978125 84.742888 
L 215.971654 84.742888 
" style="fill:none;stroke:#b0b0b0;stroke-linecap:square;stroke-width:0.8;"/>
     </g>
     <g id="line2d_46">
      <g>
       <use style="stroke:#000000;stroke-width:0.8;" x="54.978125" xlink:href="#mec3036ca0f" y="84.742888"/>
      </g>
     </g>
     <g id="text_7">
      <!-- $\mathdefault{10^{-2}}$ -->
      <g transform="translate(24.478125 88.542107)scale(0.1 -0.1)">
       <use transform="translate(0 0.765625)" xlink:href="#DejaVuSans-49"/>
       <use transform="translate(63.623047 0.765625)" xlink:href="#DejaVuSans-48"/>
       <use transform="translate(128.203125 39.046875)scale(0.7)" xlink:href="#DejaVuSans-8722"/>
       <use transform="translate(186.855469 39.046875)scale(0.7)" xlink:href="#DejaVuSans-50"/>
      </g>
     </g>
    </g>
    <g id="ytick_3">
     <g id="line2d_47">
      <path clip-path="url(#p4136b4303b)" d="M 54.978125 59.612792 
L 215.971654 59.612792 
" style="fill:none;stroke:#b0b0b0;stroke-linecap:square;stroke-width:0.8;"/>
     </g>
     <g id="line2d_48">
      <g>
       <use style="stroke:#000000;stroke-width:0.8;" x="54.978125" xlink:href="#mec3036ca0f" y="59.612792"/>
      </g>
     </g>
     <g id="text_8">
      <!-- $\mathdefault{10^{0}}$ -->
      <g transform="translate(30.378125 63.41201)scale(0.1 -0.1)">
       <use transform="translate(0 0.765625)" xlink:href="#DejaVuSans-49"/>
       <use transform="translate(63.623047 0.765625)" xlink:href="#DejaVuSans-48"/>
       <use transform="translate(128.203125 39.046875)scale(0.7)" xlink:href="#DejaVuSans-48"/>
      </g>
     </g>
    </g>
    <g id="ytick_4">
     <g id="line2d_49">
      <path clip-path="url(#p4136b4303b)" d="M 54.978125 34.482695 
L 215.971654 34.482695 
" style="fill:none;stroke:#b0b0b0;stroke-linecap:square;stroke-width:0.8;"/>
     </g>
     <g id="line2d_50">
      <g>
       <use style="stroke:#000000;stroke-width:0.8;" x="54.978125" xlink:href="#mec3036ca0f" y="34.482695"/>
      </g>
     </g>
     <g id="text_9">
      <!-- $\mathdefault{10^{2}}$ -->
      <g transform="translate(30.378125 38.281913)scale(0.1 -0.1)">
       <use transform="translate(0 0.765625)" xlink:href="#DejaVuSans-49"/>
       <use transform="translate(63.623047 0.765625)" xlink:href="#DejaVuSans-48"/>
       <use transform="translate(128.203125 39.046875)scale(0.7)" xlink:href="#DejaVuSans-50"/>
      </g>
     </g>
    </g>
    <g id="text_10">
     <!-- S(f) (m^2/s) -->
     <defs>
      <path d="M 53.515625 70.515625 
L 53.515625 60.890625 
Q 47.90625 63.578125 42.921875 64.890625 
Q 37.9375 66.21875 33.296875 66.21875 
Q 25.25 66.21875 20.875 63.09375 
Q 16.5 59.96875 16.5 54.203125 
Q 16.5 49.359375 19.40625 46.890625 
Q 22.3125 44.4375 30.421875 42.921875 
L 36.375 41.703125 
Q 47.40625 39.59375 52.65625 34.296875 
Q 57.90625 29 57.90625 20.125 
Q 57.90625 9.515625 50.796875 4.046875 
Q 43.703125 -1.421875 29.984375 -1.421875 
Q 24.8125 -1.421875 18.96875 -0.25 
Q 13.140625 0.921875 6.890625 3.21875 
L 6.890625 13.375 
Q 12.890625 10.015625 18.65625 8.296875 
Q 24.421875 6.59375 29.984375 6.59375 
Q 38.421875 6.59375 43.015625 9.90625 
Q 47.609375 13.234375 47.609375 19.390625 
Q 47.609375 24.75 44.3125 27.78125 
Q 41.015625 30.8125 33.5 32.328125 
L 27.484375 33.5 
Q 16.453125 35.6875 11.515625 40.375 
Q 6.59375 45.0625 6.59375 53.421875 
Q 6.59375 63.09375 13.40625 68.65625 
Q 20.21875 74.21875 32.171875 74.21875 
Q 37.3125 74.21875 42.625 73.28125 
Q 47.953125 72.359375 53.515625 70.515625 
z
" id="DejaVuSans-83"/>
      <path d="M 52 44.1875 
Q 55.375 50.25 60.0625 53.125 
Q 64.75 56 71.09375 56 
Q 79.640625 56 84.28125 50.015625 
Q 88.921875 44.046875 88.921875 33.015625 
L 88.921875 0 
L 79.890625 0 
L 79.890625 32.71875 
Q 79.890625 40.578125 77.09375 44.375 
Q 74.3125 48.1875 68.609375 48.1875 
Q 61.625 48.1875 57.5625 43.546875 
Q 53.515625 38.921875 53.515625 30.90625 
L 53.515625 0 
L 44.484375 0 
L 44.484375 32.71875 
Q 44.484375 40.625 41.703125 44.40625 
Q 38.921875 48.1875 33.109375 48.1875 
Q 26.21875 48.1875 22.15625 43.53125 
Q 18.109375 38.875 18.109375 30.90625 
L 18.109375 0 
L 9.078125 0 
L 9.078125 54.6875 
L 18.109375 54.6875 
L 18.109375 46.1875 
Q 21.1875 51.21875 25.484375 53.609375 
Q 29.78125 56 35.6875 56 
Q 41.65625 56 45.828125 52.96875 
Q 50 49.953125 52 44.1875 
z
" id="DejaVuSans-109"/>
      <path d="M 46.6875 72.90625 
L 73.1875 45.703125 
L 63.375 45.703125 
L 41.890625 64.984375 
L 20.40625 45.703125 
L 10.59375 45.703125 
L 37.109375 72.90625 
z
" id="DejaVuSans-94"/>
      <path d="M 25.390625 72.90625 
L 33.6875 72.90625 
L 8.296875 -9.28125 
L 0 -9.28125 
z
" id="DejaVuSans-47"/>
      <path d="M 44.28125 53.078125 
L 44.28125 44.578125 
Q 40.484375 46.53125 36.375 47.5 
Q 32.28125 48.484375 27.875 48.484375 
Q 21.1875 48.484375 17.84375 46.4375 
Q 14.5 44.390625 14.5 40.28125 
Q 14.5 37.15625 16.890625 35.375 
Q 19.28125 33.59375 26.515625 31.984375 
L 29.59375 31.296875 
Q 39.15625 29.25 43.1875 25.515625 
Q 47.21875 21.78125 47.21875 15.09375 
Q 47.21875 7.46875 41.1875 3.015625 
Q 35.15625 -1.421875 24.609375 -1.421875 
Q 20.21875 -1.421875 15.453125 -0.5625 
Q 10.6875 0.296875 5.421875 2 
L 5.421875 11.28125 
Q 10.40625 8.6875 15.234375 7.390625 
Q 20.0625 6.109375 24.8125 6.109375 
Q 31.15625 6.109375 34.5625 8.28125 
Q 37.984375 10.453125 37.984375 14.40625 
Q 37.984375 18.0625 35.515625 20.015625 
Q 33.0625 21.96875 24.703125 23.78125 
L 21.578125 24.515625 
Q 13.234375 26.265625 9.515625 29.90625 
Q 5.8125 33.546875 5.8125 39.890625 
Q 5.8125 47.609375 11.28125 51.796875 
Q 16.75 56 26.8125 56 
Q 31.78125 56 36.171875 55.265625 
Q 40.578125 54.546875 44.28125 53.078125 
z
" id="DejaVuSans-115"/>
     </defs>
     <g transform="translate(18.398437 100.718276)rotate(-90)scale(0.1 -0.1)">
      <use xlink:href="#DejaVuSans-83"/>
      <use x="63.476562" xlink:href="#DejaVuSans-40"/>
      <use x="102.490234" xlink:href="#DejaVuSans-102"/>
      <use x="137.695312" xlink:href="#DejaVuSans-41"/>
      <use x="176.708984" xlink:href="#DejaVuSans-32"/>
      <use x="208.496094" xlink:href="#DejaVuSans-40"/>
      <use x="247.509766" xlink:href="#DejaVuSans-109"/>
      <use x="344.921875" xlink:href="#DejaVuSans-94"/>
      <use x="428.710938" xlink:href="#DejaVuSans-50"/>
      <use x="492.333984" xlink:href="#DejaVuSans-47"/>
      <use x="526.025391" xlink:href="#DejaVuSans-115"/>
      <use x="578.125" xlink:href="#DejaVuSans-41"/>
     </g>
    </g>
   </g>
   <g id="line2d_51">
    <path clip-path="url(#p4136b4303b)" d="M 62.296013 34.317251 
L 73.554301 40.641307 
L 80.139978 41.869731 
L 84.81259 25.106448 
L 88.43695 21.29288 
L 91.398267 19.601357 
L 93.902025 19.760381 
L 96.070879 30.222847 
L 97.983944 17.971959 
L 99.695238 17.025303 
L 101.243293 21.226065 
L 102.656556 24.201381 
L 103.956631 18.842761 
L 105.160314 27.873249 
L 106.280915 41.496768 
L 107.329167 37.567103 
L 108.313849 25.724317 
L 109.242232 37.961739 
L 110.120407 41.971347 
L 110.953527 27.660495 
L 111.74599 25.729558 
L 112.501581 18.618595 
L 113.223579 18.495092 
L 114.577886 16.169204 
L 115.21492 19.696861 
L 115.827909 27.631188 
L 116.418602 27.113395 
L 116.988565 41.868515 
L 117.539204 22.287498 
L 118.071785 19.311039 
L 118.587456 25.418719 
L 119.087258 28.831451 
L 119.572138 18.995016 
L 120.042962 21.52306 
L 120.500521 41.269057 
L 121.378696 22.405718 
L 121.800597 24.544285 
L 122.211816 24.203058 
L 122.61288 37.068478 
L 123.004279 24.982356 
L 123.386468 21.242046 
L 123.75987 22.964293 
L 124.12488 38.530721 
L 124.481868 26.022481 
L 125.508037 41.264912 
L 125.836175 30.515211 
L 126.157815 30.619525 
L 126.473209 25.866632 
L 126.782595 44.464146 
L 127.086198 40.695028 
L 127.676891 25.059397 
L 127.964372 27.864585 
L 128.246854 28.501638 
L 128.524506 31.165875 
L 128.797492 50.581046 
L 129.330074 22.896126 
L 129.589956 25.179776 
L 129.845745 45.100435 
L 130.097568 29.191992 
L 130.345547 23.819201 
L 130.830427 32.679218 
L 131.067545 32.478498 
L 131.30125 41.269042 
L 131.531641 29.880958 
L 131.75881 26.626452 
L 131.982845 29.03792 
L 132.203831 37.916494 
L 132.421852 28.327882 
L 132.636984 25.757994 
L 132.849305 27.236249 
L 133.058885 27.834247 
L 133.265796 27.853602 
L 133.470104 30.436163 
L 133.671874 39.031873 
L 133.871169 26.64964 
L 134.068047 31.375642 
L 134.262568 57.036604 
L 134.454786 31.733683 
L 134.644757 29.039467 
L 134.832531 28.792893 
L 135.018159 31.880097 
L 135.201689 31.595047 
L 135.562644 25.945632 
L 135.740157 24.359874 
L 135.91575 25.721585 
L 136.089466 34.934697 
L 136.261344 34.155325 
L 136.431422 28.761871 
L 136.766326 32.232644 
L 136.931223 31.904542 
L 137.094464 32.149198 
L 137.25608 31.801898 
L 137.416104 32.79695 
L 137.574566 30.066909 
L 137.731497 37.37643 
L 137.886927 37.739427 
L 138.040884 48.010938 
L 138.193394 45.141228 
L 138.344486 31.962894 
L 138.494186 31.892721 
L 138.642518 30.606368 
L 138.789508 36.297229 
L 138.93518 36.837128 
L 139.222661 26.808852 
L 139.364516 26.778394 
L 139.644562 41.082502 
L 139.919862 35.043567 
L 140.055781 40.428844 
L 140.324255 28.444833 
L 140.588362 38.864385 
L 141.104034 30.83297 
L 141.355857 28.987002 
L 141.603835 46.141358 
L 141.726419 43.236806 
L 141.848085 36.985296 
L 141.968846 44.855401 
L 142.207707 39.972396 
L 142.325833 40.528234 
L 142.559539 32.477178 
L 142.675143 38.583003 
L 142.78993 36.271453 
L 142.903911 37.160304 
L 143.129502 44.06068 
L 143.46212 35.493924 
L 143.571496 35.601619 
L 143.788063 46.398966 
L 144.00178 29.479903 
L 144.420959 45.753241 
L 144.62656 35.878026 
L 144.728393 35.889146 
L 144.829591 33.317222 
L 145.030116 45.657705 
L 145.129457 39.725316 
L 145.228195 49.699419 
L 145.520856 34.294739 
L 145.61725 35.964824 
L 145.808338 34.504193 
L 145.903045 38.467905 
L 146.090819 34.587472 
L 146.276447 43.46716 
L 146.459978 37.669477 
L 146.550971 36.435391 
L 146.641458 44.845153 
L 146.909931 31.041405 
L 147.174039 53.573586 
L 147.347755 34.318509 
L 147.604894 37.556089 
L 147.68971 48.05443 
L 147.774086 42.046822 
L 147.858026 45.765763 
L 148.189512 33.361376 
L 148.352752 40.94595 
L 148.433762 32.486494 
L 148.514369 34.513179 
L 148.674392 41.104787 
L 148.753817 42.117185 
L 148.832855 44.640223 
L 148.989786 55.34632 
L 149.067687 42.654585 
L 149.145216 46.390669 
L 149.222376 43.617946 
L 149.299172 45.93413 
L 149.375607 45.524008 
L 149.451683 45.028911 
L 149.602775 33.891946 
L 149.677797 51.127594 
L 149.82681 39.37599 
L 149.974468 41.02795 
L 150.047797 56.160941 
L 150.265817 38.805863 
L 150.48095 45.418472 
L 150.552032 45.17683 
L 150.763431 34.739776 
L 150.833291 36.153679 
L 150.902851 56.592563 
L 150.972114 41.444398 
L 151.041084 45.169323 
L 151.109762 43.369054 
L 151.31407 34.802545 
L 151.381605 43.336739 
L 151.51584 34.500045 
L 151.648974 49.090263 
L 151.781026 37.293979 
L 151.912013 50.144895 
L 152.041951 36.054135 
L 152.106533 40.609457 
L 152.234931 58.636061 
L 152.425645 36.521893 
L 152.488722 32.868888 
L 152.551555 37.890429 
L 152.614146 57.70321 
L 152.676496 42.791889 
L 152.800484 55.346088 
L 152.984708 41.848464 
L 153.045655 42.03604 
L 153.106374 35.083203 
L 153.166866 36.569445 
L 153.227135 46.430647 
L 153.28718 44.743458 
L 153.347004 38.403634 
L 153.406609 40.282419 
L 153.465996 40.731895 
L 153.525166 58.82881 
L 153.584122 40.365217 
L 153.642864 43.770756 
L 153.701395 57.469298 
L 153.759716 46.486105 
L 153.933432 34.649717 
L 153.990927 34.485106 
L 154.048219 36.962038 
L 154.105309 50.266153 
L 154.1622 46.536769 
L 154.218892 41.342109 
L 154.275387 54.681894 
L 154.331686 42.683217 
L 154.499422 34.467737 
L 154.610291 57.320962 
L 154.665443 48.510632 
L 154.720409 40.24496 
L 154.775189 42.23052 
L 154.829785 56.320719 
L 154.884198 47.40622 
L 154.938429 51.35362 
L 155.046352 36.658126 
L 155.153562 39.660152 
L 155.260069 45.880744 
L 155.313062 44.351347 
L 155.365882 38.124081 
L 155.471011 38.153609 
L 155.523321 40.035422 
L 155.627438 54.448783 
L 155.730893 37.396626 
L 155.884849 56.159024 
L 155.986682 42.356076 
L 156.03736 44.869215 
L 156.08788 43.599627 
L 156.188452 49.184073 
L 156.238505 43.411378 
L 156.288405 46.817296 
L 156.338151 46.502785 
L 156.387746 39.184335 
L 156.43719 44.444727 
L 156.486484 48.056778 
L 156.584625 38.39272 
L 156.633474 39.702021 
L 156.682176 47.398296 
L 156.730733 44.504067 
L 156.779145 38.697224 
L 156.827413 58.474959 
L 156.875539 41.235401 
L 156.923522 39.45396 
L 157.019065 46.909009 
L 157.066627 46.817499 
L 157.114049 49.563976 
L 157.161334 48.660729 
L 157.208481 47.099993 
L 157.255492 41.326292 
L 157.302368 46.931277 
L 157.395714 42.661145 
L 157.442187 49.355041 
L 157.488528 46.132617 
L 157.534736 41.233517 
L 157.626761 42.486583 
L 157.80926 58.307211 
L 157.944801 36.672521 
L 157.989732 48.700519 
L 158.034538 38.759519 
L 158.079221 36.530367 
L 158.123781 48.72852 
L 158.16822 43.650858 
L 158.212537 41.674618 
L 158.256734 43.020833 
L 158.344768 55.415581 
L 158.388607 50.728312 
L 158.475931 45.60196 
L 158.562789 59.897864 
L 158.649184 38.227797 
L 158.69221 40.709965 
L 158.777921 55.847764 
L 158.863183 41.267314 
L 158.905646 44.864824 
L 158.947999 51.285257 
L 159.032375 48.914851 
L 159.074399 45.387525 
L 159.116314 55.976145 
L 159.158122 51.845767 
L 159.241416 42.669316 
L 159.365561 64.020006 
L 159.406733 62.154927 
L 159.611041 41.686733 
L 159.732404 42.392775 
L 159.772657 64.211564 
L 159.812811 48.361476 
L 159.932681 42.546618 
L 159.972442 49.847163 
L 160.012105 41.555223 
L 160.051673 39.67836 
L 160.208984 56.690237 
L 160.248075 51.307505 
L 160.325976 55.544958 
L 160.364786 50.052914 
L 160.403505 59.812662 
L 160.442131 53.371508 
L 160.557461 44.400278 
L 160.595723 60.236174 
L 160.633895 44.102765 
L 160.671978 51.563871 
L 160.747877 40.144269 
L 160.785693 47.46397 
L 160.823422 56.664414 
L 160.898618 52.752865 
L 160.936086 50.472153 
L 160.973468 50.890552 
L 161.010763 54.642249 
L 161.085099 40.010769 
L 161.122139 40.580298 
L 161.195968 51.390511 
L 161.232757 49.057037 
L 161.269463 43.087572 
L 161.306086 64.01416 
L 161.342626 47.363891 
L 161.379085 40.822209 
L 161.415462 42.35125 
L 161.596134 56.294172 
L 161.667844 49.292525 
L 161.70358 60.210757 
L 161.774819 49.051581 
L 161.845746 49.371681 
L 161.916364 44.656433 
L 162.02172 56.99179 
L 162.091579 55.523339 
L 162.126397 57.47767 
L 162.230403 41.439914 
L 162.264925 41.512834 
L 162.436439 54.124167 
L 162.470526 48.914018 
L 162.538485 40.112252 
L 162.572358 43.752332 
L 162.606161 47.798281 
L 162.639894 44.988099 
L 162.673557 42.391842 
L 162.70715 44.191718 
L 162.774129 61.368105 
L 162.840832 57.466566 
L 162.874081 47.258301 
L 162.940376 48.219077 
L 162.973423 65.788966 
L 163.039314 49.968123 
L 163.07216 43.16365 
L 163.10494 44.510251 
L 163.235401 65.698272 
L 163.364822 42.400293 
L 163.397017 47.581893 
L 163.429148 46.772955 
L 163.525162 64.300502 
L 163.55704 51.847081 
L 163.588857 43.373501 
L 163.652303 54.116827 
L 163.683934 53.984201 
L 163.715503 59.052685 
L 163.747011 50.157764 
L 163.778458 46.806367 
L 163.809844 57.984981 
L 163.872434 55.545487 
L 163.903639 43.962185 
L 163.996897 49.484335 
L 164.027864 40.657731 
L 164.058772 45.048464 
L 164.089622 62.642516 
L 164.151146 43.794062 
L 164.212437 40.246533 
L 164.242997 40.438586 
L 164.364662 66.329487 
L 164.425155 48.022566 
L 164.485423 49.996768 
L 164.515474 50.489678 
L 164.545469 50.480721 
L 164.575408 56.054404 
L 164.635123 49.145303 
L 164.664898 52.347521 
L 164.724285 49.225854 
L 164.753897 58.14996 
L 164.81296 44.9582 
L 164.842411 46.828287 
L 164.959684 62.516584 
L 164.98887 45.829759 
L 165.047087 53.950733 
L 165.076117 64.98904 
L 165.105095 52.751416 
L 165.134021 56.604838 
L 165.220493 45.690017 
L 165.19172 64.733744 
L 165.249215 48.65259 
L 165.306507 62.950456 
L 165.335078 50.647474 
L 165.420489 45.499531 
L 165.44886 63.635178 
L 165.505453 50.922035 
L 165.533676 45.247709 
L 165.56185 54.836453 
L 165.618051 46.733018 
L 165.64608 53.69417 
L 165.729875 50.013896 
L 165.785499 46.535606 
L 165.840934 55.606146 
L 165.86858 47.293373 
L 165.951238 41.937805 
L 165.978698 42.909446 
L 166.142487 66.427321 
L 166.169625 45.791243 
L 166.250769 50.679865 
L 166.358334 70.132225 
L 166.438543 42.280804 
L 166.491796 57.61098 
L 166.544876 51.394807 
L 166.624171 55.165547 
L 166.650517 57.891785 
L 166.67682 54.162873 
L 166.781609 44.544462 
L 166.729299 59.879873 
L 166.807701 45.676696 
L 166.85976 64.031542 
L 166.911652 55.628502 
L 167.040662 44.789414 
L 167.117579 64.523165 
L 167.168656 49.497419 
L 167.295648 55.300621 
L 167.346169 56.550068 
L 167.396532 47.863273 
L 167.496794 63.247789 
L 167.471786 47.346013 
L 167.521763 59.298942 
L 167.571586 60.694644 
L 167.59644 48.182191 
L 167.695479 65.195057 
L 167.744772 47.567648 
L 167.793917 59.32094 
L 167.818434 58.804517 
L 167.842913 61.777071 
L 167.867356 52.350881 
L 167.891762 59.963031 
L 167.989022 50.260022 
L 167.940465 61.432585 
L 168.013246 52.810255 
L 168.085702 58.930645 
L 168.109783 52.46508 
L 168.133827 47.840317 
L 168.181811 56.0128 
L 168.205749 59.255809 
L 168.229652 54.133909 
L 168.324915 43.127083 
L 168.348644 50.632904 
L 168.372338 50.447501 
L 168.513781 65.765413 
L 168.607397 50.972947 
L 168.630717 65.260793 
L 168.700476 49.326172 
L 168.723663 61.025697 
L 168.769937 47.531264 
L 168.839102 47.722691 
L 168.907974 56.533633 
L 168.930867 50.045849 
L 168.953727 44.956555 
L 169.022116 51.458134 
L 169.067549 66.574548 
L 169.112855 55.918829 
L 169.225571 47.553073 
L 169.292827 44.238086 
L 169.359805 58.544582 
L 169.38207 48.450349 
L 169.470826 50.900694 
L 169.492939 56.529174 
L 169.559099 51.142292 
L 169.624991 52.984523 
L 169.646896 47.615103 
L 169.73422 58.649894 
L 169.755978 49.63501 
L 169.885917 56.749296 
L 169.929 67.710973 
L 170.03621 47.051666 
L 170.057567 47.605601 
L 170.142717 68.511405 
L 170.163935 57.779101 
L 170.185125 44.982799 
L 170.24853 58.548892 
L 170.269611 53.944685 
L 170.290663 62.784062 
L 170.374603 58.012793 
L 170.478921 48.831506 
L 170.62385 72.051763 
L 170.70609 42.70954 
L 170.726585 44.71973 
L 170.747054 73.052831 
L 170.828673 60.826179 
L 170.950339 46.417869 
L 170.970528 48.142633 
L 171.051035 59.622218 
L 171.030946 47.986464 
L 171.111155 58.136035 
L 171.210862 51.531225 
L 171.29019 47.578527 
L 171.329709 60.408416 
L 171.447692 46.385989 
L 171.428087 62.482081 
L 171.467273 47.653512 
L 171.525874 65.616634 
L 171.564824 61.267203 
L 171.623075 44.929586 
L 171.661793 68.039584 
L 171.681118 70.941269 
L 171.719698 51.48887 
L 171.758187 71.138286 
L 171.796585 53.361879 
L 171.81575 57.944532 
L 171.892184 53.899299 
L 171.930267 45.32469 
L 171.987224 49.226342 
L 172.043982 65.368314 
L 172.081711 47.086652 
L 172.119352 57.673086 
L 172.138141 58.606615 
L 172.213076 48.14088 
L 172.250415 51.531351 
L 172.269052 62.732131 
L 172.343387 54.561776 
L 172.380428 44.938298 
L 172.435831 54.936832 
L 172.454257 53.206708 
L 172.472662 51.07617 
L 172.491046 67.988615 
L 172.527751 49.085268 
L 172.582655 55.967505 
L 172.655572 49.463458 
L 172.691908 63.098566 
L 172.782395 48.795733 
L 172.800432 49.577854 
L 172.836446 61.56713 
L 172.890317 48.692996 
L 172.908235 46.445051 
L 172.926133 49.564138 
L 172.944011 90.802736 
L 173.033107 52.948327 
L 173.104034 61.834766 
L 173.121718 50.370442 
L 173.139382 48.399794 
L 173.157027 53.383948 
L 173.19226 60.840739 
L 173.244966 45.356074 
L 173.262497 45.521052 
L 173.384685 88.828761 
L 173.419428 49.88857 
L 173.505962 52.342266 
L 173.523213 63.199218 
L 173.574858 45.889219 
L 173.609197 59.631566 
L 173.643463 45.392434 
L 173.71178 60.662137 
L 173.728814 69.858282 
L 173.796774 51.809087 
L 173.813719 58.639621 
L 173.830647 56.418274 
L 173.847557 57.430085 
L 173.86445 97.206085 
L 173.915023 49.183487 
L 173.948651 54.457776 
L 173.965439 50.558236 
L 174.032417 56.951197 
L 174.049119 51.204852 
L 174.08247 61.549576 
L 174.165551 52.979381 
L 174.182117 52.948901 
L 174.248209 56.01456 
L 174.231711 47.393908 
L 174.264691 53.387776 
L 174.297603 46.920035 
L 174.330449 61.987163 
L 174.346847 69.445588 
L 174.395942 45.503372 
L 174.42859 62.955356 
L 174.444889 46.515595 
L 174.493689 66.448482 
L 174.542343 52.838293 
L 174.558529 49.918831 
L 174.606989 57.141003 
L 174.623111 51.832341 
L 174.639216 60.021584 
L 174.735514 57.049216 
L 174.767487 53.416012 
L 174.815329 55.986952 
L 174.86303 74.200789 
L 174.910592 51.179348 
L 174.926415 50.754895 
L 174.942223 52.133709 
L 174.973792 78.549843 
L 175.052447 51.991677 
L 175.068132 63.831161 
L 175.146333 47.625746 
L 175.099458 66.357444 
L 175.193074 51.898091 
L 175.301614 66.41532 
L 175.270677 51.394931 
L 175.317061 57.245776 
L 175.378702 46.531024 
L 175.409434 62.383047 
L 175.440109 52.200351 
L 175.470726 48.383999 
L 175.562232 76.830535 
L 175.622951 50.973417 
L 175.683444 54.118393 
L 175.698532 52.061335 
L 175.728666 56.227054 
L 175.743712 53.96267 
L 175.833697 52.00634 
L 175.848646 62.786379 
L 175.863582 48.8794 
L 175.952907 49.382434 
L 176.041744 75.633197 
L 176.071248 52.932686 
L 176.115405 76.289694 
L 176.144776 51.879799 
L 176.174094 55.704814 
L 176.188734 50.7196 
L 176.217973 62.664492 
L 176.261733 53.959926 
L 176.305375 52.338867 
L 176.406754 85.661019 
L 176.493149 50.153899 
L 176.536175 59.328675 
L 176.550492 68.582717 
L 176.607633 50.363197 
L 176.621887 50.935045 
L 176.650357 47.211033 
L 176.678777 54.669653 
L 176.73547 51.462953 
L 176.791964 62.099111 
L 176.820138 48.838915 
L 176.904368 53.335678 
L 176.94632 52.154215 
L 177.0299 71.762244 
L 177.140674 49.883956 
L 177.154468 54.719828 
L 177.16825 68.205054 
L 177.209527 49.717499 
L 177.250699 50.706689 
L 177.264399 52.459089 
L 177.278089 75.653975 
L 177.373592 53.293108 
L 177.482055 83.121125 
L 177.400775 50.987773 
L 177.495562 65.379503 
L 177.549478 53.946019 
L 177.562929 65.488694 
L 177.603216 60.847298 
L 177.616623 70.450905 
L 177.656777 50.380408 
L 177.696832 55.905613 
L 177.776646 59.795807 
L 177.736788 53.633153 
L 177.789911 55.23029 
L 177.816407 46.512954 
L 177.84286 67.427516 
L 177.908806 50.509896 
L 177.921963 51.117375 
L 177.987588 68.539526 
L 178.052949 63.676843 
L 178.06599 67.133029 
L 178.10505 50.81751 
L 178.131037 61.143305 
L 178.182888 52.813314 
L 178.208752 63.463489 
L 178.234574 58.787114 
L 178.35027 75.469164 
L 178.286096 56.270839 
L 178.363074 72.739561 
L 178.477861 51.769176 
L 178.490565 52.72015 
L 178.553937 76.616205 
L 178.579217 50.855315 
L 178.591842 48.334654 
L 178.604458 52.775689 
L 178.667388 82.189452 
L 178.717557 57.128612 
L 178.755082 71.924802 
L 178.842306 51.529786 
L 178.867142 70.172623 
L 178.953767 59.293115 
L 179.003061 69.975718 
L 179.039933 56.313399 
L 179.064469 64.074337 
L 179.150051 49.022554 
L 179.198753 50.832407 
L 179.235185 61.825471 
L 179.283633 55.646344 
L 179.295723 49.147316 
L 179.319875 62.439631 
L 179.368071 55.358315 
L 179.452073 68.947438 
L 179.475994 54.925064 
L 179.571327 73.579033 
L 179.535642 54.616741 
L 179.583204 61.947078 
L 179.606933 51.024598 
L 179.666103 69.927628 
L 179.689711 53.587054 
L 179.748581 61.704791 
L 179.77207 52.478993 
L 179.807239 58.850147 
L 179.900653 70.144138 
L 179.923922 60.832279 
L 179.947159 50.165106 
L 180.028226 58.962842 
L 180.051314 54.377032 
L 180.085884 64.133789 
L 180.120381 51.285969 
L 180.143338 65.728936 
L 180.189155 63.364036 
L 180.269026 54.382267 
L 180.280404 66.838718 
L 180.371144 49.128862 
L 180.405041 54.409144 
L 180.461379 52.658407 
L 180.517522 74.26912 
L 180.562298 51.680362 
L 180.640359 58.68994 
L 180.706971 60.36322 
L 180.762274 52.319987 
L 180.773311 52.667871 
L 180.80638 78.421168 
L 180.828389 51.458058 
L 180.88328 58.112729 
L 180.937986 69.169562 
L 180.981619 52.973988 
L 180.992509 58.467758 
L 181.025135 68.180896 
L 181.068534 55.706224 
L 181.079366 64.868257 
L 181.187289 49.448417 
L 181.198041 53.28976 
L 181.219526 79.089445 
L 181.283809 52.829644 
L 181.326524 69.487731 
L 181.337185 70.110249 
L 181.369127 52.959048 
L 181.401006 90.452155 
L 181.443414 63.486822 
L 181.464576 71.688575 
L 181.485712 57.654529 
L 181.496269 50.622276 
L 181.538429 72.904868 
L 181.590976 59.363498 
L 181.643354 52.215099 
L 181.653809 64.409694 
L 181.664258 73.814282 
L 181.726808 51.057199 
L 181.747605 55.330755 
L 181.861514 75.259213 
L 181.809836 51.774332 
L 181.871829 72.335178 
L 181.974629 55.115924 
L 181.954121 76.822087 
L 181.984873 63.75844 
L 182.066596 51.861667 
L 182.046204 67.200743 
L 182.086962 60.449454 
L 182.107303 71.272497 
L 182.127619 50.611273 
L 182.188413 57.380052 
L 182.198524 58.820105 
L 182.238902 54.352459 
L 182.26912 56.754863 
L 182.279181 52.044321 
L 182.319359 76.954231 
L 182.369444 60.472791 
L 182.379442 92.66326 
L 182.449258 51.689338 
L 182.479088 57.048616 
L 182.489019 83.255799 
L 182.548478 52.884484 
L 182.587997 64.011132 
L 182.676565 52.692149 
L 182.607721 77.84763 
L 182.705981 55.119445 
L 182.813384 72.766566 
L 182.803649 54.575748 
L 182.823113 65.742877 
L 182.910411 54.175351 
L 182.939407 54.456749 
L 182.94906 53.592014 
L 182.958708 53.680466 
L 182.96835 78.748479 
L 183.074038 72.137026 
L 183.121852 51.511496 
L 183.188556 59.3253 
L 183.245513 78.536142 
L 183.217059 55.229351 
L 183.292825 55.72477 
L 183.302271 55.022899 
L 183.387038 72.439894 
L 183.405815 61.449962 
L 183.452663 54.067146 
L 183.43394 75.348726 
L 183.508704 58.419439 
L 183.518025 75.379113 
L 183.527341 55.203697 
L 183.610944 60.958894 
L 183.638717 55.16569 
L 183.647964 58.740298 
L 183.657205 81.797969 
L 183.749334 55.414281 
L 183.758518 63.468067 
L 183.776871 56.972233 
L 183.831806 66.567122 
L 183.850076 63.99334 
L 183.859204 73.892597 
L 183.950197 54.634693 
L 183.959268 55.228389 
L 183.977396 78.897835 
L 184.05872 50.939681 
L 184.067731 52.571684 
L 184.121692 86.179567 
L 184.175475 57.574685 
L 184.246909 53.752728 
L 184.202299 72.553366 
L 184.255816 55.117174 
L 184.34462 77.680015 
L 184.309157 52.579989 
L 184.362323 60.437346 
L 184.397671 55.294488 
L 184.432942 68.481076 
L 184.441748 82.734791 
L 184.485705 52.844237 
L 184.529544 57.848507 
L 184.538298 57.568088 
L 184.634277 74.228858 
L 184.581995 53.7077 
L 184.651667 67.138616 
L 184.729692 85.079725 
L 184.772878 53.626591 
L 184.781502 53.100102 
L 184.893192 84.884528 
L 184.953016 53.100103 
L 185.012621 57.820555 
L 185.038099 64.442209 
L 185.063538 55.661376 
L 185.080474 73.179561 
L 185.122739 53.957142 
L 185.173312 61.408774 
L 185.265621 53.454119 
L 185.215336 68.717637 
L 185.299059 56.263413 
L 185.307407 56.452727 
L 185.357409 53.645278 
L 185.42384 75.106054 
L 185.448682 53.671675 
L 185.539444 61.134364 
L 185.588738 73.354761 
L 185.580532 58.386309 
L 185.605136 62.615565 
L 185.613329 54.63247 
L 185.686879 62.915067 
L 185.719461 56.236293 
L 185.792533 90.853371 
L 185.832987 74.640235 
L 185.873341 53.863823 
L 185.945725 56.447821 
L 186.097486 80.064232 
L 186.105434 71.647169 
L 186.208409 54.719612 
L 186.129256 80.987688 
L 186.216303 58.552955 
L 186.295035 85.298946 
L 186.326421 57.360266 
L 186.334258 56.960686 
L 186.342091 58.897216 
L 186.365568 55.008906 
L 186.451362 89.47481 
L 186.466913 55.016652 
L 186.567628 59.536065 
L 186.583068 71.466834 
L 186.621602 56.002724 
L 186.660045 60.832873 
L 186.73666 54.580581 
L 186.690735 90.702743 
L 186.75194 69.439141 
L 186.759574 80.766185 
L 186.774832 54.022023 
L 186.850909 61.710426 
L 186.903951 54.090657 
L 186.873662 66.961338 
L 186.911514 63.244863 
L 186.919074 79.911274 
L 186.979426 56.738855 
L 187.017033 65.147654 
L 187.062046 58.073444 
L 187.054553 81.25916 
L 187.12187 67.944264 
L 187.129333 68.579022 
L 187.211196 56.591844 
L 187.18891 81.061712 
L 187.226036 65.354608 
L 187.292648 87.356986 
L 187.255675 56.476554 
L 187.329537 57.317426 
L 187.395727 81.72944 
L 187.410399 56.40277 
L 187.447022 65.900583 
L 187.520021 57.573909 
L 187.476261 74.448931 
L 187.556398 65.360452 
L 187.563664 65.024167 
L 187.570926 57.920197 
L 187.650599 78.738605 
L 187.657822 85.287281 
L 187.67226 53.647286 
L 187.729882 55.10423 
L 187.737071 54.873963 
L 187.744256 56.029514 
L 187.765793 75.215901 
L 187.865922 61.109351 
L 187.87305 56.859974 
L 187.915755 81.708926 
L 187.979604 59.307567 
L 188.02203 80.444242 
L 188.064346 55.50585 
L 188.085463 57.204429 
L 188.176653 97.214052 
L 188.099526 55.150584 
L 188.204609 60.315331 
L 188.21159 60.363856 
L 188.267334 57.040388 
L 188.34367 89.36149 
L 188.385157 54.980059 
L 188.460943 65.801922 
L 188.55689 82.997999 
L 188.488414 56.103994 
L 188.563721 56.707009 
L 188.57055 55.242375 
L 188.577376 57.636233 
L 188.584199 112.084063 
L 188.679422 57.05678 
L 188.686202 57.920606 
L 188.713295 72.500291 
L 188.780831 57.875451 
L 188.794304 57.996753 
L 188.801037 58.390507 
L 188.814494 82.894998 
L 188.90838 60.654827 
L 188.915065 60.523309 
L 188.921748 89.485545 
L 188.961787 55.896898 
L 189.02166 67.19151 
L 189.061453 57.831274 
L 189.087928 80.025816 
L 189.140748 63.343791 
L 189.153927 63.639868 
L 189.167094 60.487174 
L 189.193398 94.411416 
L 189.226217 57.093101 
L 189.272053 58.112819 
L 189.285125 62.844389 
L 189.298187 56.521048 
L 189.304714 58.429162 
L 189.330795 81.530024 
L 189.356835 56.584189 
L 189.415272 72.090967 
L 189.492863 57.185159 
L 189.454114 82.497384 
L 189.518644 62.919207 
L 189.595744 85.866772 
L 189.563664 56.338595 
L 189.627761 58.908895 
L 189.729794 55.884302 
L 189.742503 89.435865 
L 189.843819 57.285245 
L 189.85644 60.95756 
L 189.900534 79.80343 
L 189.938233 58.464421 
L 189.969583 65.78769 
L 190.044576 56.985979 
L 190.013371 92.768166 
L 190.088163 58.017752 
L 190.150228 55.650539 
L 190.218226 81.191181 
L 190.292083 58.863829 
L 190.255196 83.720628 
L 190.328885 60.601812 
L 190.383934 81.223322 
L 190.414435 56.859657 
L 190.432709 60.591929 
L 190.499537 55.844533 
L 190.487407 74.310464 
L 190.505599 59.351308 
L 190.511659 87.673163 
L 190.547968 57.514097 
L 190.614324 71.410688 
L 190.662414 58.354522 
L 190.674414 73.497677 
L 190.722327 59.472219 
L 190.74623 86.342732 
L 190.787976 58.121655 
L 190.829615 59.107613 
L 190.930297 91.704406 
L 190.918485 58.725724 
L 190.948 61.796435 
L 190.953896 61.356669 
L 191.018619 80.779542 
L 191.000993 58.78043 
L 191.059671 62.87306 
L 191.158941 56.620394 
L 191.088932 80.296167 
L 191.176397 58.741319 
L 191.217053 90.022943 
L 191.303833 69.634042 
L 191.344173 58.714659 
L 191.321134 84.28425 
L 191.413093 66.711891 
L 191.476015 80.603757 
L 191.453162 57.460788 
L 191.521623 79.508905 
L 191.629432 58.653167 
L 191.578454 82.847548 
L 191.635087 63.473026 
L 191.680251 59.519201 
L 191.657685 77.007335 
L 191.697156 62.465508 
L 191.747763 85.307759 
L 191.714042 57.624134 
L 191.80381 70.927143 
L 191.820586 59.444218 
L 191.876383 77.937896 
L 191.915326 69.378308 
L 191.920882 74.046813 
L 192.003991 60.605578 
L 192.01504 61.956215 
L 192.086677 78.005692 
L 192.064669 57.524059 
L 192.114146 60.711837 
L 192.136088 57.762359 
L 192.163473 70.852841 
L 192.190812 66.201417 
L 192.283423 79.547616 
L 192.218106 58.105878 
L 192.299712 67.419228 
L 192.353889 58.626387 
L 192.38091 86.482019 
L 192.397101 71.138462 
L 192.477815 85.444921 
L 192.45633 60.459174 
L 192.493909 60.764024 
L 192.499271 57.917194 
L 192.558129 76.643298 
L 192.595474 63.930797 
L 192.659295 78.857998 
L 192.669907 58.577673 
L 192.712287 73.817802 
L 192.786188 58.792613 
L 192.796718 103.489741 
L 192.823013 61.507718 
L 192.864996 87.8681 
L 192.838769 59.53295 
L 192.932988 68.801638 
L 192.979894 58.797763 
L 193.000697 81.554612 
L 193.042224 66.226075 
L 193.047407 77.713249 
L 193.114642 58.487248 
L 193.15073 62.343323 
L 193.155879 62.478936 
L 193.2534 77.009391 
L 193.222667 58.735829 
L 193.268744 68.252469 
L 193.365592 58.089786 
L 193.314691 76.440112 
L 193.375753 71.16699 
L 193.390982 59.911669 
L 193.406198 84.755088 
L 193.477014 70.680829 
L 193.527409 81.350232 
L 193.492149 60.433331 
L 193.567613 62.115145 
L 193.572631 60.250684 
L 193.607717 77.352553 
L 193.642727 64.056132 
L 193.732409 80.434511 
L 193.692612 60.55058 
L 193.747308 60.807767 
L 193.821598 58.877848 
L 193.762193 79.647703 
L 193.836415 65.01727 
L 193.841352 80.887211 
L 193.925037 58.530246 
L 193.944665 64.595914 
L 194.003407 58.269377 
L 194.037576 73.03938 
L 194.057069 62.836919 
L 194.110553 87.712051 
L 194.144497 60.171319 
L 194.1687 73.964365 
L 194.197695 58.575033 
L 194.245906 83.960722 
L 194.279569 72.22275 
L 194.384914 94.860977 
L 194.313162 60.031683 
L 194.389687 75.20455 
L 194.432574 60.949264 
L 194.480094 79.799949 
L 194.499063 72.620308 
L 194.551114 82.421956 
L 194.522743 60.427621 
L 194.602998 63.257971 
L 194.61712 60.401467 
L 194.612414 70.06673 
L 194.621825 62.595986 
L 194.626528 88.087544 
L 194.63593 58.434129 
L 194.729654 71.010308 
L 194.743666 59.866286 
L 194.827485 82.630597 
L 194.846053 61.975976 
L 194.947799 88.952152 
L 194.883125 59.395478 
L 194.957017 64.647563 
L 194.975437 87.537732 
L 195.007623 59.244405 
L 195.06265 64.317124 
L 195.163053 60.328199 
L 195.117492 94.267373 
L 195.167602 63.215971 
L 195.172149 87.023698 
L 195.190328 60.450163 
L 195.276398 75.972582 
L 195.339527 94.985441 
L 195.388957 60.498898 
L 195.46952 95.832894 
L 195.505198 75.992145 
L 195.602909 60.388872 
L 195.536351 78.35343 
L 195.616188 64.614291 
L 195.620612 79.736742 
L 195.68242 60.965838 
L 195.726425 63.25508 
L 195.770311 102.847891 
L 195.743994 59.309394 
L 195.844647 88.200816 
L 195.957682 59.600666 
L 196.061329 83.519359 
L 196.013907 59.311582 
L 196.069937 63.169509 
L 196.074239 62.59397 
L 196.07854 86.308437 
L 196.095732 60.10194 
L 196.185693 77.693677 
L 196.253902 59.346232 
L 196.304872 61.095612 
L 196.381027 77.112003 
L 196.347225 61.074191 
L 196.41476 72.18099 
L 196.423182 60.208805 
L 196.519725 80.744957 
L 196.528093 64.354101 
L 196.615698 87.182496 
L 196.540637 60.273515 
L 196.640641 66.594653 
L 196.665547 63.35833 
L 196.677985 63.612573 
L 196.731774 80.620511 
L 196.764787 61.36554 
L 196.789502 68.338479 
L 196.851127 61.144342 
L 196.892081 76.811087 
L 196.916604 61.884039 
L 196.949244 80.486386 
L 196.97368 74.387286 
L 196.97775 86.159771 
L 197.075106 61.739561 
L 197.083193 74.81678 
L 197.091276 60.329095 
L 197.183939 94.288153 
L 197.195987 63.455971 
L 197.200001 60.630517 
L 197.232077 77.787261 
L 197.304016 63.226237 
L 197.308003 62.88212 
L 197.31199 68.986985 
L 197.323943 65.186283 
L 197.359749 90.919167 
L 197.415292 61.577546 
L 197.431127 66.949823 
L 197.478538 60.037324 
L 197.498252 88.243785 
L 197.545468 63.1723 
L 197.549396 62.236409 
L 197.561176 68.084162 
L 197.623857 90.70943 
L 197.612123 61.783744 
L 197.67071 68.682545 
L 197.678506 62.539009 
L 197.705761 78.241512 
L 197.744618 71.923927 
L 197.748499 97.414056 
L 197.814328 61.398641 
L 197.856781 79.548936 
L 197.933686 62.075794 
L 197.895279 90.743105 
L 197.972002 62.280451 
L 197.98348 72.862376 
L 198.00641 88.903015 
L 198.082611 61.246466 
L 198.094011 85.153482 
L 198.196247 62.341797 
L 198.143316 94.525234 
L 198.203794 75.787232 
L 198.207567 75.442256 
L 198.211338 79.341388 
L 198.237715 96.592708 
L 198.301594 61.739129 
L 198.320335 96.020299 
L 198.395081 62.614148 
L 198.436045 62.806125 
L 198.521365 87.17601 
L 198.547243 77.871801 
L 198.580455 62.073913 
L 198.562012 85.73241 
L 198.654016 66.155769 
L 198.657685 92.521701 
L 198.73455 61.588682 
L 198.763737 62.258628 
L 198.774668 60.98486 
L 198.77831 63.141068 
L 198.876341 96.774981 
L 198.821953 62.113676 
L 198.890814 69.735618 
L 198.937763 62.09878 
L 198.984576 80.121066 
L 198.995359 70.442305 
L 199.052753 63.080565 
L 199.106375 89.844893 
L 199.17049 62.395222 
L 199.152706 90.268249 
L 199.216638 63.63301 
L 199.248509 91.546162 
L 199.294437 61.723594 
L 199.326156 65.094076 
L 199.361328 61.547942 
L 199.333197 79.396939 
L 199.375375 70.040343 
L 199.378885 91.586906 
L 199.417445 61.971077 
L 199.483833 62.516729 
L 199.539528 90.642174 
L 199.595034 64.764313 
L 199.60542 62.74542 
L 199.612341 75.929045 
L 199.626173 74.661651 
L 199.629629 94.459456 
L 199.646899 63.516191 
L 199.736407 70.156065 
L 199.746703 61.807316 
L 199.818594 79.53365 
L 199.842488 70.332385 
L 199.845898 90.627614 
L 199.917353 62.988981 
L 199.954656 79.670494 
L 200.015514 62.915579 
L 200.072782 63.887496 
L 200.163325 63.096667 
L 200.186717 80.228539 
L 200.193394 62.516068 
L 200.286588 94.529235 
L 200.299857 68.973301 
L 200.392444 83.787576 
L 200.37925 63.028539 
L 200.408922 66.663051 
L 200.422092 94.256604 
L 200.458255 62.190175 
L 200.523801 91.245097 
L 200.621627 63.930465 
L 200.576049 97.621895 
L 200.637874 65.809099 
L 200.641122 65.944728 
L 200.712403 93.027607 
L 200.68328 63.64778 
L 200.754377 79.477876 
L 200.757601 80.327802 
L 200.76727 64.541052 
L 200.812316 69.449388 
L 200.825163 63.8299 
L 200.895643 91.707518 
L 200.911618 64.581949 
L 200.956266 94.194743 
L 200.949895 62.985247 
L 201.019837 64.731882 
L 201.023009 63.611488 
L 201.05786 83.004344 
L 201.092637 74.408875 
L 201.124187 85.292346 
L 201.187105 63.121651 
L 201.19966 78.505189 
L 201.259161 63.600081 
L 201.265412 85.879387 
L 201.309099 69.286863 
L 201.349561 83.755438 
L 201.330899 63.022658 
L 201.417806 67.520739 
L 201.457998 94.773547 
L 201.501171 64.36759 
L 201.535012 72.946197 
L 201.55958 63.354531 
L 201.617779 88.701336 
L 201.642222 68.026423 
L 201.730521 63.996187 
L 201.760857 90.861375 
L 201.794162 63.805772 
L 201.872613 66.592794 
L 201.944694 91.958113 
L 201.896676 64.279538 
L 201.983605 73.470746 
L 201.989583 65.718859 
L 202.001533 88.50819 
L 202.087904 79.362766 
L 202.126474 64.289298 
L 202.173819 84.296781 
L 202.188586 80.787615 
L 202.232807 104.482961 
L 202.21808 65.187593 
L 202.259281 74.71083 
L 202.332597 64.10338 
L 202.312102 90.53517 
L 202.361831 78.896652 
L 202.364751 111.446469 
L 202.411408 64.869315 
L 202.472441 84.936844 
L 202.541915 64.589651 
L 202.527466 91.585684 
L 202.588066 67.370549 
L 202.590946 63.630504 
L 202.625467 103.425201 
L 202.691429 69.072545 
L 202.757124 103.308684 
L 202.777065 64.408053 
L 202.799825 66.222944 
L 202.870746 92.688963 
L 202.893376 64.194216 
L 202.91315 72.209159 
L 202.935721 64.849295 
L 202.95826 95.919888 
L 203.014472 71.641756 
L 203.053704 102.057263 
L 203.062099 64.364796 
L 203.123527 70.079086 
L 203.154155 66.871597 
L 203.145808 109.592451 
L 203.201375 73.486119 
L 203.256753 104.617897 
L 203.28713 65.00016 
L 203.311942 73.027547 
L 203.336716 65.708008 
L 203.36969 104.449762 
L 203.424498 66.751894 
L 203.479121 88.891944 
L 203.473667 64.372142 
L 203.536279 72.398127 
L 203.579693 64.13196 
L 203.555287 83.16416 
L 203.631097 67.453728 
L 203.652692 93.941995 
L 203.676953 64.691616 
L 203.74147 65.346553 
L 203.744153 65.700442 
L 203.754879 89.787833 
L 203.819088 64.302279 
L 203.853763 65.550336 
L 203.859091 64.555006 
L 203.875064 85.19697 
L 203.909619 71.729908 
L 203.912274 99.560614 
L 204.002289 64.634249 
L 204.02076 85.072311 
L 204.107554 95.319256 
L 204.044477 65.658707 
L 204.123285 74.823986 
L 204.136382 65.629767 
L 204.180835 89.361297 
L 204.23558 69.050997 
L 204.26678 98.659451 
L 204.271974 64.854896 
L 204.344519 69.27878 
L 204.390985 64.943789 
L 204.398716 84.057062 
L 204.447596 67.063273 
L 204.452733 88.847272 
L 204.550023 64.888168 
L 204.56023 75.59819 
L 204.661951 65.27778 
L 204.608627 99.787205 
L 204.672088 68.990683 
L 204.679687 94.384172 
L 204.730255 65.519205 
L 204.783182 72.29821 
L 204.795758 112.076464 
L 204.803299 65.193594 
L 204.89352 77.617214 
L 204.940936 65.868633 
L 204.970811 101.005115 
L 205.005597 72.358368 
L 205.013041 65.164453 
L 205.022961 98.974017 
L 205.082357 72.215304 
L 205.084827 98.823436 
L 205.166131 66.29227 
L 205.193142 71.31808 
L 205.239692 65.98834 
L 205.227455 83.5179 
L 205.244585 70.952099 
L 205.290988 93.946581 
L 205.295865 65.542977 
L 205.354273 69.122996 
L 205.366415 101.412439 
L 205.393095 65.738373 
L 205.46805 87.367649 
L 205.489747 65.620479 
L 205.51382 93.749842 
L 205.57864 72.11203 
L 205.583432 111.876735 
L 205.6599 66.535493 
L 205.688483 72.414746 
L 205.795223 91.360817 
L 205.778665 65.75388 
L 205.797587 79.957035 
L 205.865996 65.64307 
L 205.814126 123.553286 
L 205.910659 71.306098 
L 205.990279 65.951374 
L 205.9177 89.263355 
L 206.02295 66.587439 
L 206.083451 107.567215 
L 206.046246 66.524506 
L 206.139099 84.454095 
L 206.249827 65.85167 
L 206.215305 90.81248 
L 206.252126 68.10942 
L 206.314071 96.780993 
L 206.263615 66.007931 
L 206.362088 69.918204 
L 206.368936 66.750782 
L 206.416791 86.607964 
L 206.473578 69.219101 
L 206.507556 67.772566 
L 206.512081 93.71422 
L 206.550492 71.747355 
L 206.552748 91.463124 
L 206.597816 67.212548 
L 206.660701 71.210191 
L 206.712175 66.079262 
L 206.718877 92.033458 
L 206.772393 66.298636 
L 206.805752 97.670427 
L 206.883323 68.736779 
L 206.90321 67.494639 
L 206.894375 85.769458 
L 206.931893 74.239185 
L 206.991304 98.18013 
L 206.971525 66.799679 
L 207.041743 74.199278 
L 207.052687 103.591058 
L 207.155204 66.646093 
L 207.272195 92.598855 
L 207.274354 73.74317 
L 207.280828 67.051591 
L 207.306698 97.170018 
L 207.384063 73.603729 
L 207.386207 96.319514 
L 207.441846 67.706968 
L 207.493036 79.18652 
L 207.577997 67.032094 
L 207.57164 93.661404 
L 207.605513 68.817123 
L 207.618198 66.616396 
L 207.664622 94.345659 
L 207.689889 80.2925 
L 207.694096 98.96804 
L 207.790565 66.379525 
L 207.798926 75.259662 
L 207.815636 101.224566 
L 207.896853 67.49784 
L 207.90516 69.635883 
L 207.930056 67.953531 
L 207.915538 83.873657 
L 207.934201 80.55348 
L 207.983865 119.418405 
L 208.00245 67.012198 
L 208.043675 78.546483 
L 208.088901 67.301635 
L 208.064247 102.969707 
L 208.156504 70.584368 
L 208.168766 67.248535 
L 208.176935 89.376207 
L 208.24824 74.786369 
L 208.331373 91.72067 
L 208.274645 68.265046 
L 208.357643 72.003837 
L 208.397977 90.938376 
L 208.367736 67.335949 
L 208.470325 81.505134 
L 208.474335 67.36289 
L 208.54435 93.261982 
L 208.576256 79.3073 
L 208.578248 99.313499 
L 208.586214 67.870321 
L 208.651783 71.347638 
" style="fill:none;stroke:#000000;stroke-linecap:square;stroke-width:0.8;"/>
   </g>
   <g id="line2d_52">
    <path clip-path="url(#p4136b4303b)" d="M 62.296013 35.044088 
L 80.139978 29.26415 
L 88.43695 26.88865 
L 93.902025 25.629904 
L 97.983944 24.963296 
L 101.243293 24.662902 
L 103.956631 24.602824 
L 107.329167 24.7974 
L 110.120407 25.194063 
L 113.223579 25.87972 
L 116.418602 26.83134 
L 120.042962 28.165813 
L 124.12488 29.92038 
L 129.330074 32.424432 
L 136.261344 36.030514 
L 147.347755 42.081798 
L 174.346847 57.147471 
L 208.653766 76.355738 
L 208.653766 76.355738 
" style="fill:none;stroke:#ff0000;stroke-linecap:square;stroke-width:2;"/>
   </g>
   <g id="patch_3">
    <path d="M 54.978125 128.92249 
L 54.978125 10.8 
" style="fill:none;stroke:#000000;stroke-linecap:square;stroke-linejoin:miter;stroke-width:0.8;"/>
   </g>
   <g id="patch_4">
    <path d="M 215.971654 128.92249 
L 215.971654 10.8 
" style="fill:none;stroke:#000000;stroke-linecap:square;stroke-linejoin:miter;stroke-width:0.8;"/>
   </g>
   <g id="patch_5">
    <path d="M 54.978125 128.92249 
L 215.971654 128.92249 
" style="fill:none;stroke:#000000;stroke-linecap:square;stroke-linejoin:miter;stroke-width:0.8;"/>
   </g>
   <g id="patch_6">
    <path d="M 54.978125 10.8 
L 215.971654 10.8 
" style="fill:none;stroke:#000000;stroke-linecap:square;stroke-linejoin:miter;stroke-width:0.8;"/>
   </g>
   <g id="legend_1">
    <g id="patch_7">
     <path d="M 61.978125 123.92249 
L 143.371875 123.92249 
Q 145.371875 123.92249 145.371875 121.92249 
L 145.371875 93.56624 
Q 145.371875 91.56624 143.371875 91.56624 
L 61.978125 91.56624 
Q 59.978125 91.56624 59.978125 93.56624 
L 59.978125 121.92249 
Q 59.978125 123.92249 61.978125 123.92249 
z
" style="fill:#ffffff;opacity:0.8;stroke:#cccccc;stroke-linejoin:miter;"/>
    </g>
    <g id="line2d_53">
     <path d="M 63.978125 99.664678 
L 83.978125 99.664678 
" style="fill:none;stroke:#000000;stroke-linecap:square;stroke-width:0.8;"/>
    </g>
    <g id="line2d_54"/>
    <g id="text_11">
     <!-- simulated -->
     <defs>
      <path d="M 9.421875 54.6875 
L 18.40625 54.6875 
L 18.40625 0 
L 9.421875 0 
z
M 9.421875 75.984375 
L 18.40625 75.984375 
L 18.40625 64.59375 
L 9.421875 64.59375 
z
" id="DejaVuSans-105"/>
      <path d="M 8.5 21.578125 
L 8.5 54.6875 
L 17.484375 54.6875 
L 17.484375 21.921875 
Q 17.484375 14.15625 20.5 10.265625 
Q 23.53125 6.390625 29.59375 6.390625 
Q 36.859375 6.390625 41.078125 11.03125 
Q 45.3125 15.671875 45.3125 23.6875 
L 45.3125 54.6875 
L 54.296875 54.6875 
L 54.296875 0 
L 45.3125 0 
L 45.3125 8.40625 
Q 42.046875 3.421875 37.71875 1 
Q 33.40625 -1.421875 27.6875 -1.421875 
Q 18.265625 -1.421875 13.375 4.4375 
Q 8.5 10.296875 8.5 21.578125 
z
M 31.109375 56 
z
" id="DejaVuSans-117"/>
      <path d="M 9.421875 75.984375 
L 18.40625 75.984375 
L 18.40625 0 
L 9.421875 0 
z
" id="DejaVuSans-108"/>
      <path d="M 34.28125 27.484375 
Q 23.390625 27.484375 19.1875 25 
Q 14.984375 22.515625 14.984375 16.5 
Q 14.984375 11.71875 18.140625 8.90625 
Q 21.296875 6.109375 26.703125 6.109375 
Q 34.1875 6.109375 38.703125 11.40625 
Q 43.21875 16.703125 43.21875 25.484375 
L 43.21875 27.484375 
z
M 52.203125 31.203125 
L 52.203125 0 
L 43.21875 0 
L 43.21875 8.296875 
Q 40.140625 3.328125 35.546875 0.953125 
Q 30.953125 -1.421875 24.3125 -1.421875 
Q 15.921875 -1.421875 10.953125 3.296875 
Q 6 8.015625 6 15.921875 
Q 6 25.140625 12.171875 29.828125 
Q 18.359375 34.515625 30.609375 34.515625 
L 43.21875 34.515625 
L 43.21875 35.40625 
Q 43.21875 41.609375 39.140625 45 
Q 35.0625 48.390625 27.6875 48.390625 
Q 23 48.390625 18.546875 47.265625 
Q 14.109375 46.140625 10.015625 43.890625 
L 10.015625 52.203125 
Q 14.9375 54.109375 19.578125 55.046875 
Q 24.21875 56 28.609375 56 
Q 40.484375 56 46.34375 49.84375 
Q 52.203125 43.703125 52.203125 31.203125 
z
" id="DejaVuSans-97"/>
      <path d="M 18.3125 70.21875 
L 18.3125 54.6875 
L 36.8125 54.6875 
L 36.8125 47.703125 
L 18.3125 47.703125 
L 18.3125 18.015625 
Q 18.3125 11.328125 20.140625 9.421875 
Q 21.96875 7.515625 27.59375 7.515625 
L 36.8125 7.515625 
L 36.8125 0 
L 27.59375 0 
Q 17.1875 0 13.234375 3.875 
Q 9.28125 7.765625 9.28125 18.015625 
L 9.28125 47.703125 
L 2.6875 47.703125 
L 2.6875 54.6875 
L 9.28125 54.6875 
L 9.28125 70.21875 
z
" id="DejaVuSans-116"/>
      <path d="M 56.203125 29.59375 
L 56.203125 25.203125 
L 14.890625 25.203125 
Q 15.484375 15.921875 20.484375 11.0625 
Q 25.484375 6.203125 34.421875 6.203125 
Q 39.59375 6.203125 44.453125 7.46875 
Q 49.3125 8.734375 54.109375 11.28125 
L 54.109375 2.78125 
Q 49.265625 0.734375 44.1875 -0.34375 
Q 39.109375 -1.421875 33.890625 -1.421875 
Q 20.796875 -1.421875 13.15625 6.1875 
Q 5.515625 13.8125 5.515625 26.8125 
Q 5.515625 40.234375 12.765625 48.109375 
Q 20.015625 56 32.328125 56 
Q 43.359375 56 49.78125 48.890625 
Q 56.203125 41.796875 56.203125 29.59375 
z
M 47.21875 32.234375 
Q 47.125 39.59375 43.09375 43.984375 
Q 39.0625 48.390625 32.421875 48.390625 
Q 24.90625 48.390625 20.390625 44.140625 
Q 15.875 39.890625 15.1875 32.171875 
z
" id="DejaVuSans-101"/>
      <path d="M 45.40625 46.390625 
L 45.40625 75.984375 
L 54.390625 75.984375 
L 54.390625 0 
L 45.40625 0 
L 45.40625 8.203125 
Q 42.578125 3.328125 38.25 0.953125 
Q 33.9375 -1.421875 27.875 -1.421875 
Q 17.96875 -1.421875 11.734375 6.484375 
Q 5.515625 14.40625 5.515625 27.296875 
Q 5.515625 40.1875 11.734375 48.09375 
Q 17.96875 56 27.875 56 
Q 33.9375 56 38.25 53.625 
Q 42.578125 51.265625 45.40625 46.390625 
z
M 14.796875 27.296875 
Q 14.796875 17.390625 18.875 11.75 
Q 22.953125 6.109375 30.078125 6.109375 
Q 37.203125 6.109375 41.296875 11.75 
Q 45.40625 17.390625 45.40625 27.296875 
Q 45.40625 37.203125 41.296875 42.84375 
Q 37.203125 48.484375 30.078125 48.484375 
Q 22.953125 48.484375 18.875 42.84375 
Q 14.796875 37.203125 14.796875 27.296875 
z
" id="DejaVuSans-100"/>
     </defs>
     <g transform="translate(91.978125 103.164678)scale(0.1 -0.1)">
      <use xlink:href="#DejaVuSans-115"/>
      <use x="52.099609" xlink:href="#DejaVuSans-105"/>
      <use x="79.882812" xlink:href="#DejaVuSans-109"/>
      <use x="177.294922" xlink:href="#DejaVuSans-117"/>
      <use x="240.673828" xlink:href="#DejaVuSans-108"/>
      <use x="268.457031" xlink:href="#DejaVuSans-97"/>
      <use x="329.736328" xlink:href="#DejaVuSans-116"/>
      <use x="368.945312" xlink:href="#DejaVuSans-101"/>
      <use x="430.46875" xlink:href="#DejaVuSans-100"/>
     </g>
    </g>
    <g id="line2d_55">
     <path d="M 63.978125 114.342803 
L 83.978125 114.342803 
" style="fill:none;stroke:#ff0000;stroke-linecap:square;stroke-width:2;"/>
    </g>
    <g id="line2d_56"/>
    <g id="text_12">
     <!-- target -->
     <defs>
      <path d="M 41.109375 46.296875 
Q 39.59375 47.171875 37.8125 47.578125 
Q 36.03125 48 33.890625 48 
Q 26.265625 48 22.1875 43.046875 
Q 18.109375 38.09375 18.109375 28.8125 
L 18.109375 0 
L 9.078125 0 
L 9.078125 54.6875 
L 18.109375 54.6875 
L 18.109375 46.1875 
Q 20.953125 51.171875 25.484375 53.578125 
Q 30.03125 56 36.53125 56 
Q 37.453125 56 38.578125 55.875 
Q 39.703125 55.765625 41.0625 55.515625 
z
" id="DejaVuSans-114"/>
      <path d="M 45.40625 27.984375 
Q 45.40625 37.75 41.375 43.109375 
Q 37.359375 48.484375 30.078125 48.484375 
Q 22.859375 48.484375 18.828125 43.109375 
Q 14.796875 37.75 14.796875 27.984375 
Q 14.796875 18.265625 18.828125 12.890625 
Q 22.859375 7.515625 30.078125 7.515625 
Q 37.359375 7.515625 41.375 12.890625 
Q 45.40625 18.265625 45.40625 27.984375 
z
M 54.390625 6.78125 
Q 54.390625 -7.171875 48.1875 -13.984375 
Q 42 -20.796875 29.203125 -20.796875 
Q 24.46875 -20.796875 20.265625 -20.09375 
Q 16.0625 -19.390625 12.109375 -17.921875 
L 12.109375 -9.1875 
Q 16.0625 -11.328125 19.921875 -12.34375 
Q 23.78125 -13.375 27.78125 -13.375 
Q 36.625 -13.375 41.015625 -8.765625 
Q 45.40625 -4.15625 45.40625 5.171875 
L 45.40625 9.625 
Q 42.625 4.78125 38.28125 2.390625 
Q 33.9375 0 27.875 0 
Q 17.828125 0 11.671875 7.65625 
Q 5.515625 15.328125 5.515625 27.984375 
Q 5.515625 40.671875 11.671875 48.328125 
Q 17.828125 56 27.875 56 
Q 33.9375 56 38.28125 53.609375 
Q 42.625 51.21875 45.40625 46.390625 
L 45.40625 54.6875 
L 54.390625 54.6875 
z
" id="DejaVuSans-103"/>
     </defs>
     <g transform="translate(91.978125 117.842803)scale(0.1 -0.1)">
      <use xlink:href="#DejaVuSans-116"/>
      <use x="39.208984" xlink:href="#DejaVuSans-97"/>
      <use x="100.488281" xlink:href="#DejaVuSans-114"/>
      <use x="141.585938" xlink:href="#DejaVuSans-103"/>
      <use x="205.0625" xlink:href="#DejaVuSans-101"/>
      <use x="266.585938" xlink:href="#DejaVuSans-116"/>
     </g>
    </g>
   </g>
  </g>
 </g>
 <defs>
  <clipPath id="p4136b4303b">
   <rect height="118.12249" width="160.993529" x="54.978125" y="10.8"/>
  </clipPath>
 </defs>
</svg>
