<?xml version="1.0" encoding="utf-8" standalone="no"?>
<!DOCTYPE svg PUBLIC "-//W3C//DTD SVG 1.1//EN"
  "http://www.w3.org/Graphics/SVG/1.1/DTD/svg11.dtd">
<!-- Created with matplotlib (https://matplotlib.org/) -->
<svg height="170.07874pt" version="1.1" viewBox="0 0 226.771654 170.07874" width="226.771654pt" xmlns="http://www.w3.org/2000/svg" xmlns:xlink="http://www.w3.org/1999/xlink">
 <defs>
  <style type="text/css">
*{stroke-linecap:butt;stroke-linejoin:round;}
  </style>
 </defs>
 <g id="figure_1">
  <g id="patch_1">
   <path d="M 0 170.07874 
L 226.771654 170.07874 
L 226.771654 0 
L 0 0 
z
" style="fill:#ffffff;"/>
  </g>
  <g id="axes_1">
   <g id="patch_2">
    <path d="M 54.978125 128.92249 
L 215.971654 128.92249 
L 215.971654 10.8 
L 54.978125 10.8 
z
" style="fill:#ffffff;"/>
   </g>
   <g id="matplotlib.axis_1">
    <g id="xtick_1">
     <g id="line2d_1">
      <path clip-path="url(#paa796c24d5)" d="M 88.182243 128.92249 
L 88.182243 10.8 
" style="fill:none;stroke:#b0b0b0;stroke-linecap:square;stroke-width:0.8;"/>
     </g>
     <g id="line2d_2">
      <defs>
       <path d="M 0 0 
L 0 3.5 
" id="m6eea823401" style="stroke:#000000;stroke-width:0.8;"/>
      </defs>
      <g>
       <use style="stroke:#000000;stroke-width:0.8;" x="88.182243" xlink:href="#m6eea823401" y="128.92249"/>
      </g>
     </g>
     <g id="text_1">
      <!-- $\mathdefault{10^{-3}}$ -->
      <defs>
       <path d="M 12.40625 8.296875 
L 28.515625 8.296875 
L 28.515625 63.921875 
L 10.984375 60.40625 
L 10.984375 69.390625 
L 28.421875 72.90625 
L 38.28125 72.90625 
L 38.28125 8.296875 
L 54.390625 8.296875 
L 54.390625 0 
L 12.40625 0 
z
" id="DejaVuSans-49"/>
       <path d="M 31.78125 66.40625 
Q 24.171875 66.40625 20.328125 58.90625 
Q 16.5 51.421875 16.5 36.375 
Q 16.5 21.390625 20.328125 13.890625 
Q 24.171875 6.390625 31.78125 6.390625 
Q 39.453125 6.390625 43.28125 13.890625 
Q 47.125 21.390625 47.125 36.375 
Q 47.125 51.421875 43.28125 58.90625 
Q 39.453125 66.40625 31.78125 66.40625 
z
M 31.78125 74.21875 
Q 44.046875 74.21875 50.515625 64.515625 
Q 56.984375 54.828125 56.984375 36.375 
Q 56.984375 17.96875 50.515625 8.265625 
Q 44.046875 -1.421875 31.78125 -1.421875 
Q 19.53125 -1.421875 13.0625 8.265625 
Q 6.59375 17.96875 6.59375 36.375 
Q 6.59375 54.828125 13.0625 64.515625 
Q 19.53125 74.21875 31.78125 74.21875 
z
" id="DejaVuSans-48"/>
       <path d="M 10.59375 35.5 
L 73.1875 35.5 
L 73.1875 27.203125 
L 10.59375 27.203125 
z
" id="DejaVuSans-8722"/>
       <path d="M 40.578125 39.3125 
Q 47.65625 37.796875 51.625 33 
Q 55.609375 28.21875 55.609375 21.1875 
Q 55.609375 10.40625 48.1875 4.484375 
Q 40.765625 -1.421875 27.09375 -1.421875 
Q 22.515625 -1.421875 17.65625 -0.515625 
Q 12.796875 0.390625 7.625 2.203125 
L 7.625 11.71875 
Q 11.71875 9.328125 16.59375 8.109375 
Q 21.484375 6.890625 26.8125 6.890625 
Q 36.078125 6.890625 40.9375 10.546875 
Q 45.796875 14.203125 45.796875 21.1875 
Q 45.796875 27.640625 41.28125 31.265625 
Q 36.765625 34.90625 28.71875 34.90625 
L 20.21875 34.90625 
L 20.21875 43.015625 
L 29.109375 43.015625 
Q 36.375 43.015625 40.234375 45.921875 
Q 44.09375 48.828125 44.09375 54.296875 
Q 44.09375 59.90625 40.109375 62.90625 
Q 36.140625 65.921875 28.71875 65.921875 
Q 24.65625 65.921875 20.015625 65.03125 
Q 15.375 64.15625 9.8125 62.3125 
L 9.8125 71.09375 
Q 15.4375 72.65625 20.34375 73.4375 
Q 25.25 74.21875 29.59375 74.21875 
Q 40.828125 74.21875 47.359375 69.109375 
Q 53.90625 64.015625 53.90625 55.328125 
Q 53.90625 49.265625 50.4375 45.09375 
Q 46.96875 40.921875 40.578125 39.3125 
z
" id="DejaVuSans-51"/>
      </defs>
      <g transform="translate(76.432243 143.520928)scale(0.1 -0.1)">
       <use transform="translate(0 0.765625)" xlink:href="#DejaVuSans-49"/>
       <use transform="translate(63.623047 0.765625)" xlink:href="#DejaVuSans-48"/>
       <use transform="translate(128.203125 39.046875)scale(0.7)" xlink:href="#DejaVuSans-8722"/>
       <use transform="translate(186.855469 39.046875)scale(0.7)" xlink:href="#DejaVuSans-51"/>
      </g>
     </g>
    </g>
    <g id="xtick_2">
     <g id="line2d_3">
      <path clip-path="url(#paa796c24d5)" d="M 124.679251 128.92249 
L 124.679251 10.8 
" style="fill:none;stroke:#b0b0b0;stroke-linecap:square;stroke-width:0.8;"/>
     </g>
     <g id="line2d_4">
      <g>
       <use style="stroke:#000000;stroke-width:0.8;" x="124.679251" xlink:href="#m6eea823401" y="128.92249"/>
      </g>
     </g>
     <g id="text_2">
      <!-- $\mathdefault{10^{-2}}$ -->
      <defs>
       <path d="M 19.1875 8.296875 
L 53.609375 8.296875 
L 53.609375 0 
L 7.328125 0 
L 7.328125 8.296875 
Q 12.9375 14.109375 22.625 23.890625 
Q 32.328125 33.6875 34.8125 36.53125 
Q 39.546875 41.84375 41.421875 45.53125 
Q 43.3125 49.21875 43.3125 52.78125 
Q 43.3125 58.59375 39.234375 62.25 
Q 35.15625 65.921875 28.609375 65.921875 
Q 23.96875 65.921875 18.8125 64.3125 
Q 13.671875 62.703125 7.8125 59.421875 
L 7.8125 69.390625 
Q 13.765625 71.78125 18.9375 73 
Q 24.125 74.21875 28.421875 74.21875 
Q 39.75 74.21875 46.484375 68.546875 
Q 53.21875 62.890625 53.21875 53.421875 
Q 53.21875 48.921875 51.53125 44.890625 
Q 49.859375 40.875 45.40625 35.40625 
Q 44.1875 33.984375 37.640625 27.21875 
Q 31.109375 20.453125 19.1875 8.296875 
z
" id="DejaVuSans-50"/>
      </defs>
      <g transform="translate(112.929251 143.520928)scale(0.1 -0.1)">
       <use transform="translate(0 0.765625)" xlink:href="#DejaVuSans-49"/>
       <use transform="translate(63.623047 0.765625)" xlink:href="#DejaVuSans-48"/>
       <use transform="translate(128.203125 39.046875)scale(0.7)" xlink:href="#DejaVuSans-8722"/>
       <use transform="translate(186.855469 39.046875)scale(0.7)" xlink:href="#DejaVuSans-50"/>
      </g>
     </g>
    </g>
    <g id="xtick_3">
     <g id="line2d_5">
      <path clip-path="url(#paa796c24d5)" d="M 161.176258 128.92249 
L 161.176258 10.8 
" style="fill:none;stroke:#b0b0b0;stroke-linecap:square;stroke-width:0.8;"/>
     </g>
     <g id="line2d_6">
      <g>
       <use style="stroke:#000000;stroke-width:0.8;" x="161.176258" xlink:href="#m6eea823401" y="128.92249"/>
      </g>
     </g>
     <g id="text_3">
      <!-- $\mathdefault{10^{-1}}$ -->
      <g transform="translate(149.426258 143.520928)scale(0.1 -0.1)">
       <use transform="translate(0 0.684375)" xlink:href="#DejaVuSans-49"/>
       <use transform="translate(63.623047 0.684375)" xlink:href="#DejaVuSans-48"/>
       <use transform="translate(128.203125 38.965625)scale(0.7)" xlink:href="#DejaVuSans-8722"/>
       <use transform="translate(186.855469 38.965625)scale(0.7)" xlink:href="#DejaVuSans-49"/>
      </g>
     </g>
    </g>
    <g id="xtick_4">
     <g id="line2d_7">
      <path clip-path="url(#paa796c24d5)" d="M 197.673265 128.92249 
L 197.673265 10.8 
" style="fill:none;stroke:#b0b0b0;stroke-linecap:square;stroke-width:0.8;"/>
     </g>
     <g id="line2d_8">
      <g>
       <use style="stroke:#000000;stroke-width:0.8;" x="197.673265" xlink:href="#m6eea823401" y="128.92249"/>
      </g>
     </g>
     <g id="text_4">
      <!-- $\mathdefault{10^{0}}$ -->
      <g transform="translate(188.873265 143.520928)scale(0.1 -0.1)">
       <use transform="translate(0 0.765625)" xlink:href="#DejaVuSans-49"/>
       <use transform="translate(63.623047 0.765625)" xlink:href="#DejaVuSans-48"/>
       <use transform="translate(128.203125 39.046875)scale(0.7)" xlink:href="#DejaVuSans-48"/>
      </g>
     </g>
    </g>
    <g id="xtick_5">
     <g id="line2d_9">
      <defs>
       <path d="M 0 0 
L 0 2 
" id="m9cd16f9b72" style="stroke:#000000;stroke-width:0.6;"/>
      </defs>
      <g>
       <use style="stroke:#000000;stroke-width:0.6;" x="62.67193" xlink:href="#m9cd16f9b72" y="128.92249"/>
      </g>
     </g>
    </g>
    <g id="xtick_6">
     <g id="line2d_10">
      <g>
       <use style="stroke:#000000;stroke-width:0.6;" x="69.098734" xlink:href="#m9cd16f9b72" y="128.92249"/>
      </g>
     </g>
    </g>
    <g id="xtick_7">
     <g id="line2d_11">
      <g>
       <use style="stroke:#000000;stroke-width:0.6;" x="73.658624" xlink:href="#m9cd16f9b72" y="128.92249"/>
      </g>
     </g>
    </g>
    <g id="xtick_8">
     <g id="line2d_12">
      <g>
       <use style="stroke:#000000;stroke-width:0.6;" x="77.19555" xlink:href="#m9cd16f9b72" y="128.92249"/>
      </g>
     </g>
    </g>
    <g id="xtick_9">
     <g id="line2d_13">
      <g>
       <use style="stroke:#000000;stroke-width:0.6;" x="80.085428" xlink:href="#m9cd16f9b72" y="128.92249"/>
      </g>
     </g>
    </g>
    <g id="xtick_10">
     <g id="line2d_14">
      <g>
       <use style="stroke:#000000;stroke-width:0.6;" x="82.528786" xlink:href="#m9cd16f9b72" y="128.92249"/>
      </g>
     </g>
    </g>
    <g id="xtick_11">
     <g id="line2d_15">
      <g>
       <use style="stroke:#000000;stroke-width:0.6;" x="84.645318" xlink:href="#m9cd16f9b72" y="128.92249"/>
      </g>
     </g>
    </g>
    <g id="xtick_12">
     <g id="line2d_16">
      <g>
       <use style="stroke:#000000;stroke-width:0.6;" x="86.512232" xlink:href="#m9cd16f9b72" y="128.92249"/>
      </g>
     </g>
    </g>
    <g id="xtick_13">
     <g id="line2d_17">
      <g>
       <use style="stroke:#000000;stroke-width:0.6;" x="99.168937" xlink:href="#m9cd16f9b72" y="128.92249"/>
      </g>
     </g>
    </g>
    <g id="xtick_14">
     <g id="line2d_18">
      <g>
       <use style="stroke:#000000;stroke-width:0.6;" x="105.595741" xlink:href="#m9cd16f9b72" y="128.92249"/>
      </g>
     </g>
    </g>
    <g id="xtick_15">
     <g id="line2d_19">
      <g>
       <use style="stroke:#000000;stroke-width:0.6;" x="110.155631" xlink:href="#m9cd16f9b72" y="128.92249"/>
      </g>
     </g>
    </g>
    <g id="xtick_16">
     <g id="line2d_20">
      <g>
       <use style="stroke:#000000;stroke-width:0.6;" x="113.692557" xlink:href="#m9cd16f9b72" y="128.92249"/>
      </g>
     </g>
    </g>
    <g id="xtick_17">
     <g id="line2d_21">
      <g>
       <use style="stroke:#000000;stroke-width:0.6;" x="116.582435" xlink:href="#m9cd16f9b72" y="128.92249"/>
      </g>
     </g>
    </g>
    <g id="xtick_18">
     <g id="line2d_22">
      <g>
       <use style="stroke:#000000;stroke-width:0.6;" x="119.025793" xlink:href="#m9cd16f9b72" y="128.92249"/>
      </g>
     </g>
    </g>
    <g id="xtick_19">
     <g id="line2d_23">
      <g>
       <use style="stroke:#000000;stroke-width:0.6;" x="121.142325" xlink:href="#m9cd16f9b72" y="128.92249"/>
      </g>
     </g>
    </g>
    <g id="xtick_20">
     <g id="line2d_24">
      <g>
       <use style="stroke:#000000;stroke-width:0.6;" x="123.009239" xlink:href="#m9cd16f9b72" y="128.92249"/>
      </g>
     </g>
    </g>
    <g id="xtick_21">
     <g id="line2d_25">
      <g>
       <use style="stroke:#000000;stroke-width:0.6;" x="135.665944" xlink:href="#m9cd16f9b72" y="128.92249"/>
      </g>
     </g>
    </g>
    <g id="xtick_22">
     <g id="line2d_26">
      <g>
       <use style="stroke:#000000;stroke-width:0.6;" x="142.092748" xlink:href="#m9cd16f9b72" y="128.92249"/>
      </g>
     </g>
    </g>
    <g id="xtick_23">
     <g id="line2d_27">
      <g>
       <use style="stroke:#000000;stroke-width:0.6;" x="146.652638" xlink:href="#m9cd16f9b72" y="128.92249"/>
      </g>
     </g>
    </g>
    <g id="xtick_24">
     <g id="line2d_28">
      <g>
       <use style="stroke:#000000;stroke-width:0.6;" x="150.189564" xlink:href="#m9cd16f9b72" y="128.92249"/>
      </g>
     </g>
    </g>
    <g id="xtick_25">
     <g id="line2d_29">
      <g>
       <use style="stroke:#000000;stroke-width:0.6;" x="153.079442" xlink:href="#m9cd16f9b72" y="128.92249"/>
      </g>
     </g>
    </g>
    <g id="xtick_26">
     <g id="line2d_30">
      <g>
       <use style="stroke:#000000;stroke-width:0.6;" x="155.5228" xlink:href="#m9cd16f9b72" y="128.92249"/>
      </g>
     </g>
    </g>
    <g id="xtick_27">
     <g id="line2d_31">
      <g>
       <use style="stroke:#000000;stroke-width:0.6;" x="157.639332" xlink:href="#m9cd16f9b72" y="128.92249"/>
      </g>
     </g>
    </g>
    <g id="xtick_28">
     <g id="line2d_32">
      <g>
       <use style="stroke:#000000;stroke-width:0.6;" x="159.506246" xlink:href="#m9cd16f9b72" y="128.92249"/>
      </g>
     </g>
    </g>
    <g id="xtick_29">
     <g id="line2d_33">
      <g>
       <use style="stroke:#000000;stroke-width:0.6;" x="172.162952" xlink:href="#m9cd16f9b72" y="128.92249"/>
      </g>
     </g>
    </g>
    <g id="xtick_30">
     <g id="line2d_34">
      <g>
       <use style="stroke:#000000;stroke-width:0.6;" x="178.589756" xlink:href="#m9cd16f9b72" y="128.92249"/>
      </g>
     </g>
    </g>
    <g id="xtick_31">
     <g id="line2d_35">
      <g>
       <use style="stroke:#000000;stroke-width:0.6;" x="183.149645" xlink:href="#m9cd16f9b72" y="128.92249"/>
      </g>
     </g>
    </g>
    <g id="xtick_32">
     <g id="line2d_36">
      <g>
       <use style="stroke:#000000;stroke-width:0.6;" x="186.686571" xlink:href="#m9cd16f9b72" y="128.92249"/>
      </g>
     </g>
    </g>
    <g id="xtick_33">
     <g id="line2d_37">
      <g>
       <use style="stroke:#000000;stroke-width:0.6;" x="189.576449" xlink:href="#m9cd16f9b72" y="128.92249"/>
      </g>
     </g>
    </g>
    <g id="xtick_34">
     <g id="line2d_38">
      <g>
       <use style="stroke:#000000;stroke-width:0.6;" x="192.019807" xlink:href="#m9cd16f9b72" y="128.92249"/>
      </g>
     </g>
    </g>
    <g id="xtick_35">
     <g id="line2d_39">
      <g>
       <use style="stroke:#000000;stroke-width:0.6;" x="194.136339" xlink:href="#m9cd16f9b72" y="128.92249"/>
      </g>
     </g>
    </g>
    <g id="xtick_36">
     <g id="line2d_40">
      <g>
       <use style="stroke:#000000;stroke-width:0.6;" x="196.003253" xlink:href="#m9cd16f9b72" y="128.92249"/>
      </g>
     </g>
    </g>
    <g id="xtick_37">
     <g id="line2d_41">
      <g>
       <use style="stroke:#000000;stroke-width:0.6;" x="208.659959" xlink:href="#m9cd16f9b72" y="128.92249"/>
      </g>
     </g>
    </g>
    <g id="xtick_38">
     <g id="line2d_42">
      <g>
       <use style="stroke:#000000;stroke-width:0.6;" x="215.086763" xlink:href="#m9cd16f9b72" y="128.92249"/>
      </g>
     </g>
    </g>
    <g id="text_5">
     <!-- f (Hz) -->
     <defs>
      <path d="M 37.109375 75.984375 
L 37.109375 68.5 
L 28.515625 68.5 
Q 23.6875 68.5 21.796875 66.546875 
Q 19.921875 64.59375 19.921875 59.515625 
L 19.921875 54.6875 
L 34.71875 54.6875 
L 34.71875 47.703125 
L 19.921875 47.703125 
L 19.921875 0 
L 10.890625 0 
L 10.890625 47.703125 
L 2.296875 47.703125 
L 2.296875 54.6875 
L 10.890625 54.6875 
L 10.890625 58.5 
Q 10.890625 67.625 15.140625 71.796875 
Q 19.390625 75.984375 28.609375 75.984375 
z
" id="DejaVuSans-102"/>
      <path id="DejaVuSans-32"/>
      <path d="M 31 75.875 
Q 24.46875 64.65625 21.28125 53.65625 
Q 18.109375 42.671875 18.109375 31.390625 
Q 18.109375 20.125 21.3125 9.0625 
Q 24.515625 -2 31 -13.1875 
L 23.1875 -13.1875 
Q 15.875 -1.703125 12.234375 9.375 
Q 8.59375 20.453125 8.59375 31.390625 
Q 8.59375 42.28125 12.203125 53.3125 
Q 15.828125 64.359375 23.1875 75.875 
z
" id="DejaVuSans-40"/>
      <path d="M 9.8125 72.90625 
L 19.671875 72.90625 
L 19.671875 43.015625 
L 55.515625 43.015625 
L 55.515625 72.90625 
L 65.375 72.90625 
L 65.375 0 
L 55.515625 0 
L 55.515625 34.71875 
L 19.671875 34.71875 
L 19.671875 0 
L 9.8125 0 
z
" id="DejaVuSans-72"/>
      <path d="M 5.515625 54.6875 
L 48.1875 54.6875 
L 48.1875 46.484375 
L 14.40625 7.171875 
L 48.1875 7.171875 
L 48.1875 0 
L 4.296875 0 
L 4.296875 8.203125 
L 38.09375 47.515625 
L 5.515625 47.515625 
z
" id="DejaVuSans-122"/>
      <path d="M 8.015625 75.875 
L 15.828125 75.875 
Q 23.140625 64.359375 26.78125 53.3125 
Q 30.421875 42.28125 30.421875 31.390625 
Q 30.421875 20.453125 26.78125 9.375 
Q 23.140625 -1.703125 15.828125 -13.1875 
L 8.015625 -13.1875 
Q 14.5 -2 17.703125 9.0625 
Q 20.90625 20.125 20.90625 31.390625 
Q 20.90625 42.671875 17.703125 53.65625 
Q 14.5 64.65625 8.015625 75.875 
z
" id="DejaVuSans-41"/>
     </defs>
     <g transform="translate(121.839733 157.199053)scale(0.1 -0.1)">
      <use xlink:href="#DejaVuSans-102"/>
      <use x="35.205078" xlink:href="#DejaVuSans-32"/>
      <use x="66.992188" xlink:href="#DejaVuSans-40"/>
      <use x="106.005859" xlink:href="#DejaVuSans-72"/>
      <use x="181.201172" xlink:href="#DejaVuSans-122"/>
      <use x="233.691406" xlink:href="#DejaVuSans-41"/>
     </g>
    </g>
   </g>
   <g id="matplotlib.axis_2">
    <g id="ytick_1">
     <g id="line2d_43">
      <path clip-path="url(#paa796c24d5)" d="M 54.978125 111.684286 
L 215.971654 111.684286 
" style="fill:none;stroke:#b0b0b0;stroke-linecap:square;stroke-width:0.8;"/>
     </g>
     <g id="line2d_44">
      <defs>
       <path d="M 0 0 
L -3.5 0 
" id="m9bb3258194" style="stroke:#000000;stroke-width:0.8;"/>
      </defs>
      <g>
       <use style="stroke:#000000;stroke-width:0.8;" x="54.978125" xlink:href="#m9bb3258194" y="111.684286"/>
      </g>
     </g>
     <g id="text_6">
      <!-- $\mathdefault{10^{-2}}$ -->
      <g transform="translate(24.478125 115.483504)scale(0.1 -0.1)">
       <use transform="translate(0 0.765625)" xlink:href="#DejaVuSans-49"/>
       <use transform="translate(63.623047 0.765625)" xlink:href="#DejaVuSans-48"/>
       <use transform="translate(128.203125 39.046875)scale(0.7)" xlink:href="#DejaVuSans-8722"/>
       <use transform="translate(186.855469 39.046875)scale(0.7)" xlink:href="#DejaVuSans-50"/>
      </g>
     </g>
    </g>
    <g id="ytick_2">
     <g id="line2d_45">
      <path clip-path="url(#paa796c24d5)" d="M 54.978125 77.419449 
L 215.971654 77.419449 
" style="fill:none;stroke:#b0b0b0;stroke-linecap:square;stroke-width:0.8;"/>
     </g>
     <g id="line2d_46">
      <g>
       <use style="stroke:#000000;stroke-width:0.8;" x="54.978125" xlink:href="#m9bb3258194" y="77.419449"/>
      </g>
     </g>
     <g id="text_7">
      <!-- $\mathdefault{10^{0}}$ -->
      <g transform="translate(30.378125 81.218668)scale(0.1 -0.1)">
       <use transform="translate(0 0.765625)" xlink:href="#DejaVuSans-49"/>
       <use transform="translate(63.623047 0.765625)" xlink:href="#DejaVuSans-48"/>
       <use transform="translate(128.203125 39.046875)scale(0.7)" xlink:href="#DejaVuSans-48"/>
      </g>
     </g>
    </g>
    <g id="ytick_3">
     <g id="line2d_47">
      <path clip-path="url(#paa796c24d5)" d="M 54.978125 43.154612 
L 215.971654 43.154612 
" style="fill:none;stroke:#b0b0b0;stroke-linecap:square;stroke-width:0.8;"/>
     </g>
     <g id="line2d_48">
      <g>
       <use style="stroke:#000000;stroke-width:0.8;" x="54.978125" xlink:href="#m9bb3258194" y="43.154612"/>
      </g>
     </g>
     <g id="text_8">
      <!-- $\mathdefault{10^{2}}$ -->
      <g transform="translate(30.378125 46.953831)scale(0.1 -0.1)">
       <use transform="translate(0 0.765625)" xlink:href="#DejaVuSans-49"/>
       <use transform="translate(63.623047 0.765625)" xlink:href="#DejaVuSans-48"/>
       <use transform="translate(128.203125 39.046875)scale(0.7)" xlink:href="#DejaVuSans-50"/>
      </g>
     </g>
    </g>
    <g id="text_9">
     <!-- S(f) (m^2/s) -->
     <defs>
      <path d="M 53.515625 70.515625 
L 53.515625 60.890625 
Q 47.90625 63.578125 42.921875 64.890625 
Q 37.9375 66.21875 33.296875 66.21875 
Q 25.25 66.21875 20.875 63.09375 
Q 16.5 59.96875 16.5 54.203125 
Q 16.5 49.359375 19.40625 46.890625 
Q 22.3125 44.4375 30.421875 42.921875 
L 36.375 41.703125 
Q 47.40625 39.59375 52.65625 34.296875 
Q 57.90625 29 57.90625 20.125 
Q 57.90625 9.515625 50.796875 4.046875 
Q 43.703125 -1.421875 29.984375 -1.421875 
Q 24.8125 -1.421875 18.96875 -0.25 
Q 13.140625 0.921875 6.890625 3.21875 
L 6.890625 13.375 
Q 12.890625 10.015625 18.65625 8.296875 
Q 24.421875 6.59375 29.984375 6.59375 
Q 38.421875 6.59375 43.015625 9.90625 
Q 47.609375 13.234375 47.609375 19.390625 
Q 47.609375 24.75 44.3125 27.78125 
Q 41.015625 30.8125 33.5 32.328125 
L 27.484375 33.5 
Q 16.453125 35.6875 11.515625 40.375 
Q 6.59375 45.0625 6.59375 53.421875 
Q 6.59375 63.09375 13.40625 68.65625 
Q 20.21875 74.21875 32.171875 74.21875 
Q 37.3125 74.21875 42.625 73.28125 
Q 47.953125 72.359375 53.515625 70.515625 
z
" id="DejaVuSans-83"/>
      <path d="M 52 44.1875 
Q 55.375 50.25 60.0625 53.125 
Q 64.75 56 71.09375 56 
Q 79.640625 56 84.28125 50.015625 
Q 88.921875 44.046875 88.921875 33.015625 
L 88.921875 0 
L 79.890625 0 
L 79.890625 32.71875 
Q 79.890625 40.578125 77.09375 44.375 
Q 74.3125 48.1875 68.609375 48.1875 
Q 61.625 48.1875 57.5625 43.546875 
Q 53.515625 38.921875 53.515625 30.90625 
L 53.515625 0 
L 44.484375 0 
L 44.484375 32.71875 
Q 44.484375 40.625 41.703125 44.40625 
Q 38.921875 48.1875 33.109375 48.1875 
Q 26.21875 48.1875 22.15625 43.53125 
Q 18.109375 38.875 18.109375 30.90625 
L 18.109375 0 
L 9.078125 0 
L 9.078125 54.6875 
L 18.109375 54.6875 
L 18.109375 46.1875 
Q 21.1875 51.21875 25.484375 53.609375 
Q 29.78125 56 35.6875 56 
Q 41.65625 56 45.828125 52.96875 
Q 50 49.953125 52 44.1875 
z
" id="DejaVuSans-109"/>
      <path d="M 46.6875 72.90625 
L 73.1875 45.703125 
L 63.375 45.703125 
L 41.890625 64.984375 
L 20.40625 45.703125 
L 10.59375 45.703125 
L 37.109375 72.90625 
z
" id="DejaVuSans-94"/>
      <path d="M 25.390625 72.90625 
L 33.6875 72.90625 
L 8.296875 -9.28125 
L 0 -9.28125 
z
" id="DejaVuSans-47"/>
      <path d="M 44.28125 53.078125 
L 44.28125 44.578125 
Q 40.484375 46.53125 36.375 47.5 
Q 32.28125 48.484375 27.875 48.484375 
Q 21.1875 48.484375 17.84375 46.4375 
Q 14.5 44.390625 14.5 40.28125 
Q 14.5 37.15625 16.890625 35.375 
Q 19.28125 33.59375 26.515625 31.984375 
L 29.59375 31.296875 
Q 39.15625 29.25 43.1875 25.515625 
Q 47.21875 21.78125 47.21875 15.09375 
Q 47.21875 7.46875 41.1875 3.015625 
Q 35.15625 -1.421875 24.609375 -1.421875 
Q 20.21875 -1.421875 15.453125 -0.5625 
Q 10.6875 0.296875 5.421875 2 
L 5.421875 11.28125 
Q 10.40625 8.6875 15.234375 7.390625 
Q 20.0625 6.109375 24.8125 6.109375 
Q 31.15625 6.109375 34.5625 8.28125 
Q 37.984375 10.453125 37.984375 14.40625 
Q 37.984375 18.0625 35.515625 20.015625 
Q 33.0625 21.96875 24.703125 23.78125 
L 21.578125 24.515625 
Q 13.234375 26.265625 9.515625 29.90625 
Q 5.8125 33.546875 5.8125 39.890625 
Q 5.8125 47.609375 11.28125 51.796875 
Q 16.75 56 26.8125 56 
Q 31.78125 56 36.171875 55.265625 
Q 40.578125 54.546875 44.28125 53.078125 
z
" id="DejaVuSans-115"/>
     </defs>
     <g transform="translate(18.398437 100.718276)rotate(-90)scale(0.1 -0.1)">
      <use xlink:href="#DejaVuSans-83"/>
      <use x="63.476562" xlink:href="#DejaVuSans-40"/>
      <use x="102.490234" xlink:href="#DejaVuSans-102"/>
      <use x="137.695312" xlink:href="#DejaVuSans-41"/>
      <use x="176.708984" xlink:href="#DejaVuSans-32"/>
      <use x="208.496094" xlink:href="#DejaVuSans-40"/>
      <use x="247.509766" xlink:href="#DejaVuSans-109"/>
      <use x="344.921875" xlink:href="#DejaVuSans-94"/>
      <use x="428.710938" xlink:href="#DejaVuSans-50"/>
      <use x="492.333984" xlink:href="#DejaVuSans-47"/>
      <use x="526.025391" xlink:href="#DejaVuSans-115"/>
      <use x="578.125" xlink:href="#DejaVuSans-41"/>
     </g>
    </g>
   </g>
   <g id="line2d_49">
    <path clip-path="url(#paa796c24d5)" d="M 87.806326 32.385067 
L 98.79302 43.417472 
L 105.219824 50.52924 
L 109.779714 27.891875 
L 113.316639 23.649631 
L 116.206518 25.159972 
L 118.649875 21.279286 
L 120.766408 43.853143 
L 122.633322 21.896311 
L 124.303333 18.284876 
L 125.814042 21.818867 
L 127.193211 24.71869 
L 128.461924 24.486375 
L 129.636569 47.689109 
L 130.730137 56.812229 
L 131.753101 30.877818 
L 132.714029 25.751093 
L 133.620015 39.476304 
L 134.477005 33.18169 
L 135.290027 32.937834 
L 136.063373 27.339278 
L 136.800736 16.169204 
L 137.505316 20.347859 
L 138.179905 22.472558 
L 139.448618 21.68884 
L 140.046819 35.479157 
L 140.623263 29.510466 
L 141.179476 33.963228 
L 141.716831 30.250771 
L 142.236564 23.870346 
L 142.739795 22.212145 
L 143.22754 49.528079 
L 143.700723 20.241227 
L 144.160188 21.449447 
L 144.606709 39.116731 
L 145.040995 35.266459 
L 145.463699 21.385305 
L 145.875422 23.667118 
L 146.276721 33.955406 
L 146.66811 29.098423 
L 147.050067 28.240651 
L 147.423036 22.383773 
L 147.78743 25.43913 
L 148.143635 30.913133 
L 148.49201 28.961024 
L 148.832893 38.344723 
L 149.493424 28.807121 
L 149.813646 27.18504 
L 150.435312 46.929871 
L 150.737235 48.95428 
L 151.033513 58.506097 
L 151.324355 50.931137 
L 151.609957 47.432102 
L 151.890503 59.734779 
L 152.16617 38.190211 
L 152.437124 30.789879 
L 152.703525 35.787863 
L 152.965522 46.156628 
L 153.223258 38.433682 
L 153.476871 40.261506 
L 153.726489 70.569829 
L 153.972238 37.233462 
L 154.214234 25.278089 
L 154.452591 31.493576 
L 154.687417 34.426894 
L 154.918814 35.823872 
L 155.146882 50.973525 
L 155.371715 31.106478 
L 155.593403 24.619896 
L 155.812034 26.610334 
L 156.24045 41.424146 
L 156.450393 37.662564 
L 156.657591 42.052536 
L 156.862116 41.186014 
L 157.064035 29.709632 
L 157.263415 35.373147 
L 157.460317 34.389575 
L 157.654804 29.589403 
L 157.846933 32.593937 
L 158.036761 42.843163 
L 158.224342 31.793878 
L 158.40973 31.669658 
L 158.592974 31.960668 
L 158.774124 29.625466 
L 159.130329 42.721477 
L 159.478704 30.049074 
L 159.819587 28.961232 
L 159.987318 42.723882 
L 160.153293 42.829885 
L 160.317548 46.991474 
L 160.480118 41.68388 
L 160.641038 32.564198 
L 161.114221 38.940369 
L 161.422006 33.806209 
L 161.573686 38.484869 
L 161.87276 77.218615 
L 162.020207 47.954907 
L 162.166295 50.645869 
L 162.311049 45.833453 
L 162.596651 48.264303 
L 162.877197 43.471343 
L 163.152864 46.012273 
L 163.28892 56.858726 
L 163.557578 51.370891 
L 163.690219 36.265398 
L 163.821758 36.538125 
L 163.952215 32.626057 
L 164.081608 32.660233 
L 164.463565 47.075661 
L 164.588865 40.917766 
L 164.713183 42.45238 
L 164.836534 33.607866 
L 164.958931 40.545644 
L 165.080391 55.412377 
L 165.439285 35.603604 
L 165.557133 40.357858 
L 165.674111 40.070535 
L 165.905508 56.394055 
L 166.019952 35.237551 
L 166.133576 36.909096 
L 166.246391 64.107045 
L 166.469641 38.380498 
L 166.580097 41.813697 
L 166.689789 66.753482 
L 166.798727 58.573976 
L 166.906922 66.27174 
L 167.121121 38.45282 
L 167.332463 54.403305 
L 167.644285 36.213054 
L 167.746877 39.969114 
L 167.84881 77.260161 
L 167.950091 44.149676 
L 168.050729 61.536232 
L 168.250109 49.170958 
L 168.348866 41.882048 
L 168.447011 52.066773 
L 168.544553 42.107518 
L 168.641498 53.598605 
L 168.737853 38.293831 
L 168.928825 41.791061 
L 169.023455 37.981627 
L 169.211036 48.511833 
L 169.304001 38.849671 
L 169.48831 54.363161 
L 169.579668 47.57245 
L 169.760818 86.271927 
L 169.939921 53.64031 
L 170.117023 39.825705 
L 170.204837 61.027742 
L 170.379019 41.827435 
L 170.465398 61.020265 
L 170.636756 40.539632 
L 170.721745 43.661171 
L 170.890369 63.867799 
L 171.139987 41.141701 
L 171.304242 46.710329 
L 171.385735 63.253682 
L 171.466812 52.324018 
L 171.547476 59.313706 
L 171.627732 41.173997 
L 171.707583 50.720806 
L 171.866089 41.376895 
L 171.944751 41.35797 
L 172.100915 55.575334 
L 172.178423 41.575222 
L 172.255554 42.093865 
L 172.332312 43.115796 
L 172.4087 41.762566 
L 172.484721 42.276809 
L 172.56038 60.443044 
L 172.635679 42.57155 
L 172.710622 47.287278 
L 172.785213 59.330697 
L 173.006901 41.414728 
L 173.080113 43.755475 
L 173.225531 39.133653 
L 173.297743 43.33967 
L 173.369627 58.268792 
L 173.441187 56.600633 
L 173.512425 44.893713 
L 173.583345 45.218494 
L 173.724238 58.71526 
L 173.794218 53.432393 
L 173.863891 62.175836 
L 173.933258 58.433812 
L 174.002323 48.48023 
L 174.071089 55.337668 
L 174.139558 41.357389 
L 174.207732 47.851469 
L 174.275614 55.192343 
L 174.343206 47.020895 
L 174.410512 47.642997 
L 174.477533 46.013726 
L 174.544272 61.133093 
L 174.610731 54.648189 
L 174.676912 60.47092 
L 174.873815 39.465192 
L 174.938909 44.07481 
L 175.003737 46.482533 
L 175.068301 46.186784 
L 175.132604 40.955507 
L 175.26043 58.457973 
L 175.323959 46.299828 
L 175.387235 50.103162 
L 175.450258 63.270747 
L 175.513033 60.837755 
L 175.575559 59.561854 
L 175.823227 43.046488 
L 175.884545 41.508352 
L 175.945625 42.649106 
L 176.006472 46.256212 
L 176.067085 63.03624 
L 176.127468 50.670523 
L 176.187622 44.752896 
L 176.247548 47.904286 
L 176.307248 60.301358 
L 176.425979 44.231161 
L 176.485012 49.675702 
L 176.543826 70.424332 
L 176.602423 52.687017 
L 176.660804 46.714354 
L 176.718971 48.808523 
L 176.776925 72.997753 
L 176.834669 57.142369 
L 176.892202 53.788708 
L 176.949527 75.987189 
L 177.006646 57.498428 
L 177.12027 47.27303 
L 177.176778 49.99227 
L 177.289193 49.054351 
L 177.400816 58.987353 
L 177.511659 45.992098 
L 177.566791 56.183508 
L 177.621732 51.03856 
L 177.731046 45.493453 
L 177.785421 59.619208 
L 177.839611 59.548261 
L 177.893616 48.024015 
L 178.054536 88.735747 
L 178.213838 55.044752 
L 178.266585 49.711489 
L 178.371555 69.827911 
L 178.527718 46.731046 
L 178.579433 45.002027 
L 178.682358 61.74065 
L 178.733571 46.494779 
L 178.78462 50.710108 
L 178.835504 64.465588 
L 178.886225 46.106614 
L 178.936785 48.153907 
L 178.987184 78.914764 
L 179.037423 73.58545 
L 179.137426 48.343409 
L 179.187192 54.991213 
L 179.236802 66.765709 
L 179.286258 62.718719 
L 179.482551 46.786825 
L 179.531246 49.587194 
L 179.579793 63.897491 
L 179.628191 48.576431 
L 179.676442 56.335317 
L 179.724547 54.586116 
L 179.867991 46.208132 
L 180.104217 69.373272 
L 180.151042 47.437086 
L 180.19773 49.848567 
L 180.336973 83.349042 
L 180.429127 49.615279 
L 180.475004 50.53418 
L 180.520749 51.084368 
L 180.566362 98.889952 
L 180.611844 58.016788 
L 180.747512 53.131348 
L 180.792477 63.800022 
L 180.837316 53.777887 
L 180.882028 49.864128 
L 180.926615 95.940426 
L 180.971076 52.945459 
L 181.015413 70.742328 
L 181.059626 48.355264 
L 181.103716 50.610638 
L 181.191531 49.271739 
L 181.278861 68.941175 
L 181.365713 48.590442 
L 181.408961 49.36024 
L 181.495105 73.849825 
L 181.538002 110.951067 
L 181.580784 67.084279 
L 181.62345 76.904372 
L 181.708439 47.529857 
L 181.750763 48.156747 
L 181.792975 50.166925 
L 181.877062 50.140704 
L 181.918939 47.820367 
L 181.960706 48.98482 
L 182.126681 67.873461 
L 182.250031 46.933442 
L 182.290936 51.573632 
L 182.331735 63.112542 
L 182.372429 50.398254 
L 182.453506 47.647319 
L 182.493889 49.734566 
L 182.574349 66.167254 
L 182.614426 50.077737 
L 182.654401 52.432427 
L 182.694277 84.836852 
L 182.773728 69.506601 
L 182.813305 49.626983 
L 182.892163 54.952728 
L 182.931445 48.138915 
L 182.97063 48.911108 
L 183.048712 57.616668 
L 183.087608 50.47677 
L 183.12641 50.998273 
L 183.165117 58.834081 
L 183.242248 52.971041 
L 183.395394 77.187942 
L 183.50929 48.888791 
L 183.547074 49.613302 
L 183.622373 49.583602 
L 183.659889 52.523507 
L 183.771907 48.234365 
L 183.956862 60.963415 
L 183.993595 48.588976 
L 184.030243 51.394334 
L 184.175996 69.836652 
L 184.284437 51.895007 
L 184.32042 58.522652 
L 184.356321 74.505853 
L 184.392141 53.106553 
L 184.427881 54.919931 
L 184.46354 50.707275 
L 184.499119 52.320078 
L 184.570038 59.150986 
L 184.605379 73.610647 
L 184.640642 50.032119 
L 184.675826 50.518025 
L 184.815787 61.614608 
L 184.850585 55.442874 
L 184.885306 56.549834 
L 184.989017 65.095234 
L 185.023437 55.594696 
L 185.057783 80.054165 
L 185.126252 51.489804 
L 185.160375 53.215062 
L 185.29614 67.705817 
L 185.3299 64.387036 
L 185.363589 84.039012 
L 185.430752 68.494764 
L 185.464227 60.008425 
L 185.497632 81.714632 
L 185.530966 55.7651 
L 185.56423 72.182969 
L 185.597425 52.1517 
L 185.696594 52.895136 
L 185.795146 71.658577 
L 185.827861 63.867997 
L 185.893089 66.278078 
L 185.990431 52.804913 
L 186.022746 54.357982 
L 186.054995 52.94177 
L 186.087179 63.503285 
L 186.151351 57.706744 
L 186.215264 58.520222 
L 186.278921 51.667398 
L 186.373929 51.215963 
L 186.405472 55.303712 
L 186.436952 76.744215 
L 186.499727 52.342357 
L 186.562253 56.388631 
L 186.593424 54.415673 
L 186.624534 79.95634 
L 186.655583 53.740462 
L 186.686571 54.189338 
L 186.779174 87.202585 
L 186.809921 60.539707 
L 186.84061 55.637729 
L 186.871238 96.171022 
L 186.932319 60.831036 
L 187.023501 57.757928 
L 187.053779 76.311958 
L 187.174315 53.506655 
L 187.204307 53.699238 
L 187.234242 60.769009 
L 187.293942 52.79716 
L 187.353419 65.89134 
L 187.383073 57.253677 
L 187.412673 53.241368 
L 187.471706 56.005172 
L 187.53052 84.088623 
L 187.559846 75.225307 
L 187.618335 51.568105 
L 187.676608 59.801023 
L 187.734669 56.049961 
L 187.792517 68.537143 
L 187.878896 52.874341 
L 187.850155 75.619553 
L 187.907584 54.340207 
L 188.050254 96.338021 
L 188.163472 55.940115 
L 188.19165 66.20493 
L 188.247858 60.513481 
L 188.38751 53.02428 
L 188.415294 52.484942 
L 188.470715 52.609112 
L 188.498353 54.545981 
L 188.608426 73.094549 
L 188.635825 59.853498 
L 188.663177 77.221316 
L 188.690482 75.268447 
L 188.71774 81.237729 
L 188.799233 56.449747 
L 188.826305 62.738509 
L 188.85333 69.483045 
L 188.907243 55.982864 
L 188.934131 56.116826 
L 188.987771 54.696666 
L 189.041229 64.112609 
L 189.121081 57.574034 
L 189.147609 58.154418 
L 189.174092 57.904404 
L 189.226927 53.322688 
L 189.253279 58.622484 
L 189.279587 56.321846 
L 189.305851 57.332072 
L 189.358249 78.843257 
L 189.410475 74.486704 
L 189.591921 57.253343 
L 189.617673 64.571872 
L 189.669052 55.290636 
L 189.694679 56.208992 
L 189.720265 54.391293 
L 189.74581 56.732507 
L 189.771313 76.510036 
L 189.822198 54.616668 
L 189.847579 56.569746 
L 189.898219 96.935762 
L 189.999017 75.815167 
L 190.024117 74.437653 
L 190.099178 86.490478 
L 190.12412 59.972163 
L 190.149023 68.693495 
L 190.173886 55.553441 
L 190.223496 62.007136 
L 190.248243 58.280694 
L 190.272952 80.34983 
L 190.346847 60.695832 
L 190.371402 61.217834 
L 190.395919 57.654926 
L 190.420399 67.335805 
L 190.444841 62.850974 
L 190.51794 74.112103 
L 190.542232 59.191052 
L 190.566487 72.196576 
L 190.639029 54.513022 
L 190.687207 57.953495 
L 190.735239 102.348266 
L 190.807014 65.726676 
L 190.902212 61.670963 
L 190.925923 85.810741 
L 190.949598 57.11845 
L 190.996842 93.699079 
L 191.043946 57.717217 
L 191.067446 56.010409 
L 191.090911 58.013802 
L 191.137736 57.439239 
L 191.230974 66.945902 
L 191.277389 55.140807 
L 191.346756 59.025616 
L 191.369811 74.409053 
L 191.438776 62.738412 
L 191.507443 57.582654 
L 191.530265 63.648174 
L 191.553055 59.920511 
L 191.575813 116.120645 
L 191.62123 58.723849 
L 191.643889 76.492075 
L 191.689112 59.519791 
L 191.734205 60.77539 
L 191.779171 58.897987 
L 191.846382 85.080571 
L 191.913308 57.057708 
L 191.935555 58.793638 
L 191.95777 87.40924 
L 192.002107 56.128455 
L 192.04632 71.580692 
L 192.134378 58.885045 
L 192.11241 84.806533 
L 192.156317 62.867159 
L 192.178225 80.439067 
L 192.243768 76.801521 
L 192.330739 56.169164 
L 192.352407 56.733061 
L 192.395655 55.927951 
L 192.460307 69.968869 
L 192.503262 56.894399 
L 192.567478 61.33489 
L 192.588825 78.084583 
L 192.673928 59.139178 
L 192.695133 57.864487 
L 192.716309 60.689755 
L 192.779669 87.874691 
L 192.821768 62.961515 
L 192.842776 63.095728 
L 192.884709 71.125749 
L 192.92653 57.474871 
L 192.9474 59.836521 
L 192.968242 86.17761 
L 193.051338 60.585928 
L 193.072044 56.992745 
L 193.134 62.989018 
L 193.154598 67.783932 
L 193.17517 57.942446 
L 193.216233 61.960117 
L 193.298042 57.038188 
L 193.27763 64.390205 
L 193.359123 59.259906 
L 193.480583 92.276329 
L 193.4402 57.86031 
L 193.520864 81.938342 
L 193.62112 59.669459 
L 193.561042 90.697706 
L 193.641095 65.853798 
L 193.661046 69.226486 
L 193.700871 58.168541 
L 193.720746 66.445787 
L 193.760422 57.2559 
L 193.780222 63.572097 
L 193.839477 58.496778 
L 193.89851 87.979786 
L 193.996413 59.798411 
L 194.015921 60.306046 
L 194.035405 59.911296 
L 194.113104 57.050906 
L 194.151811 75.8614 
L 194.209694 57.548644 
L 194.248166 80.015005 
L 194.267367 79.264583 
L 194.286545 60.671731 
L 194.324831 81.549595 
L 194.382088 62.006301 
L 194.401127 59.032312 
L 194.439138 67.648459 
L 194.477058 61.218023 
L 194.514887 95.54656 
L 194.571462 57.946508 
L 194.702691 84.239413 
L 194.739986 58.050767 
L 194.814314 66.197734 
L 194.851348 70.877549 
L 194.888295 61.945653 
L 194.925157 84.558088 
L 194.980289 59.840511 
L 195.016937 74.562704 
L 195.03523 80.057114 
L 195.071752 65.362743 
L 195.089981 58.727223 
L 195.126377 67.687802 
L 195.16269 94.892011 
L 195.217003 59.756512 
L 195.235066 60.242687 
L 195.343015 98.650426 
L 195.378835 60.799975 
L 195.468033 65.237485 
L 195.539032 60.168932 
L 195.556732 61.069034 
L 195.609714 95.128314 
L 195.644938 59.794611 
L 195.680083 72.078112 
L 195.785053 58.892953 
L 195.732655 89.410125 
L 195.802481 58.904463 
L 195.941216 89.588235 
L 196.027313 57.621581 
L 196.044477 61.746583 
L 196.061622 86.686734 
L 196.147069 59.190695 
L 196.198117 58.255573 
L 196.333447 67.261643 
L 196.417446 58.947255 
L 196.3839 67.66134 
L 196.450921 62.328714 
L 196.56753 90.046237 
L 196.484325 62.291241 
L 196.584119 77.422984 
L 196.683288 58.212109 
L 196.699756 59.470138 
L 196.749057 78.715901 
L 196.798206 59.035183 
L 196.814555 61.597015 
L 196.863501 59.973187 
L 196.960943 85.918367 
L 197.08994 60.455468 
L 197.170034 81.786867 
L 197.186004 65.957021 
L 197.201958 59.271922 
L 197.233818 84.002488 
L 197.249724 66.528997 
L 197.281489 88.063768 
L 197.31319 61.475428 
L 197.360623 66.7405 
L 197.423646 71.563275 
L 197.407914 63.49848 
L 197.455064 65.987455 
L 197.47075 108.73697 
L 197.533338 60.440819 
L 197.56454 68.805127 
L 197.611228 60.730874 
L 197.657778 62.495493 
L 197.719634 60.058214 
L 197.765867 87.677825 
L 197.827303 60.039589 
L 197.873225 68.917791 
L 197.96467 92.866471 
L 197.934247 60.686221 
L 197.979859 72.185952 
L 198.025341 60.615786 
L 198.05559 84.083591 
L 198.085782 64.915335 
L 198.130961 60.74131 
L 198.205975 83.598573 
L 198.280636 60.196857 
L 198.310402 62.244451 
L 198.340112 75.824788 
L 198.384574 60.995844 
L 198.414145 70.727799 
L 198.428911 62.875557 
L 198.4584 91.081466 
L 198.517214 64.998518 
L 198.54654 90.442789 
L 198.605029 63.13752 
L 198.634192 77.432262 
L 198.648754 72.929235 
L 198.663302 115.770884 
L 198.706868 64.867826 
L 198.750313 67.39704 
L 198.836849 99.540733 
L 198.779211 62.497952 
L 198.851226 84.004907 
L 198.879941 61.990859 
L 198.965774 63.902599 
L 198.980034 61.903348 
L 198.994282 64.833152 
L 199.008516 88.936047 
L 199.093658 64.764923 
L 199.107804 75.658493 
L 199.164261 62.12565 
L 199.206473 66.706885 
L 199.318491 97.056096 
L 199.360294 60.033498 
L 199.443571 64.214122 
L 199.471234 97.166583 
L 199.540179 66.543117 
L 199.553932 61.457729 
L 199.581402 74.539006 
L 199.636201 64.745409 
L 199.704434 62.991812 
L 199.758809 103.139982 
L 199.840024 61.43187 
L 199.880476 68.091016 
L 199.947668 88.237664 
L 199.920825 63.537803 
L 200.014576 75.710796 
L 200.04126 68.149623 
L 200.054585 85.576135 
L 200.081202 72.703467 
L 200.107775 104.667338 
L 200.160786 63.986296 
L 200.187226 92.363317 
L 200.26628 61.050123 
L 200.318765 63.921258 
L 200.33186 61.546999 
L 200.371077 66.699757 
L 200.436225 123.553286 
L 200.475186 74.773498 
L 200.488151 71.683112 
L 200.501106 96.875459 
L 200.514051 65.579753 
L 200.591496 84.994479 
L 200.681373 64.040098 
L 200.617227 96.307015 
L 200.706959 79.331631 
L 200.732504 62.80622 
L 200.78347 80.511825 
L 200.796186 67.003453 
L 200.808892 90.982227 
L 200.897548 62.88993 
L 200.947987 79.005123 
L 200.922788 62.761124 
L 201.010811 69.376823 
L 201.023346 62.737691 
L 201.085872 73.36654 
L 201.098348 72.958909 
L 201.12327 87.327736 
L 201.172997 63.775023 
L 201.185405 65.089094 
L 201.222569 68.038417 
L 201.234937 67.481794 
L 201.247296 92.507532 
L 201.296636 64.421154 
L 201.345823 70.186759 
L 201.370359 67.205887 
L 201.455939 122.114083 
L 201.553181 65.277064 
L 201.565294 66.362443 
L 201.577399 90.495103 
L 201.637781 63.794475 
L 201.673901 65.075853 
L 201.757861 73.465728 
L 201.781768 65.701023 
L 201.805639 77.10054 
L 201.853274 72.990412 
L 201.86516 106.877924 
L 201.924459 64.282455 
L 201.959932 66.621481 
L 201.983536 72.156365 
L 202.007106 63.24076 
L 202.05414 71.194265 
L 202.065876 99.650807 
L 202.089324 62.884956 
L 202.159459 91.183527 
L 202.206043 91.975836 
L 202.275665 64.184159 
L 202.42547 86.224024 
L 202.459841 76.131612 
L 202.539749 63.751264 
L 202.516959 79.093753 
L 202.562507 68.101925 
L 202.573873 81.775162 
L 202.664512 64.100656 
L 202.765865 71.813048 
L 202.866574 96.613152 
L 202.84425 65.684747 
L 202.877725 85.319394 
L 202.900002 66.97217 
L 202.95556 103.339804 
L 202.977728 68.352733 
L 202.988801 89.250679 
L 203.088108 72.182321 
L 203.132045 68.071075 
L 203.110092 77.864143 
L 203.153968 68.4624 
L 203.164919 86.931306 
L 203.252249 66.627301 
L 203.263132 70.111685 
L 203.274007 70.73509 
L 203.349924 97.493688 
L 203.328271 64.208997 
L 203.382349 67.651261 
L 203.393143 64.573008 
L 203.42548 74.686738 
L 203.447001 67.681163 
L 203.457751 95.52893 
L 203.479228 65.428448 
L 203.554171 76.550338 
L 203.639389 90.871453 
L 203.671228 64.953798 
L 203.692418 100.557159 
L 203.787426 82.106464 
L 203.82947 64.289562 
L 203.871403 68.262303 
L 203.881868 113.02743 
L 203.913224 65.74121 
L 203.975751 66.369556 
L 204.027668 88.186599 
L 204.100069 84.942014 
L 204.182409 64.308911 
L 204.141292 94.210326 
L 204.202927 85.148855 
L 204.254107 68.344524 
L 204.243885 88.381632 
L 204.284736 87.305527 
L 204.294933 94.645767 
L 204.325483 67.966805 
L 204.366125 76.979626 
L 204.467277 65.05611 
L 204.447098 92.452311 
L 204.48743 68.540829 
L 204.537701 90.17577 
L 204.587813 65.585262 
L 204.597817 65.01713 
L 204.617805 66.798016 
L 204.70744 78.003084 
L 204.647739 65.610109 
L 204.737206 76.019971 
L 204.82617 90.015964 
L 204.845873 66.735968 
L 204.895021 97.341921 
L 204.973344 75.229248 
L 205.04156 68.522431 
L 204.992864 97.127719 
L 205.051281 68.797359 
L 205.070705 96.324936 
L 205.119163 66.110931 
L 205.167473 80.835813 
L 205.186756 87.072897 
L 205.215636 68.705671 
L 205.263653 67.262565 
L 205.254061 70.465955 
L 205.282819 68.746879 
L 205.340179 117.405049 
L 205.397332 78.237504 
L 205.416338 70.537537 
L 205.43532 86.392062 
L 205.45428 81.819611 
L 205.463752 111.883043 
L 205.529894 66.065298 
L 205.558156 85.401821 
L 205.680047 65.67073 
L 205.791736 101.299213 
L 205.773176 65.232027 
L 205.810274 92.468436 
L 205.838042 66.029956 
L 205.930249 68.646152 
L 205.939441 69.325941 
L 205.948627 89.871979 
L 206.040195 66.106797 
L 206.049323 68.90763 
L 206.067563 68.468375 
L 206.10398 89.114942 
L 206.158449 66.975675 
L 206.185613 75.02981 
L 206.203697 69.654211 
L 206.212731 77.079543 
L 206.230784 74.867984 
L 206.239803 98.450298 
L 206.329709 68.465428 
L 206.338672 69.537825 
L 206.356582 89.45977 
L 206.44583 70.643652 
L 206.569939 100.382283 
L 206.490266 67.607021 
L 206.578767 88.343967 
L 206.596408 67.264137 
L 206.649214 95.566191 
L 206.675551 70.967079 
L 206.728094 106.938125 
L 206.710599 65.891073 
L 206.780463 73.0502 
L 206.789174 73.762738 
L 206.806583 67.980906 
L 206.823972 72.976421 
L 206.867363 99.030145 
L 206.841343 71.578976 
L 206.936541 77.421017 
L 206.945167 92.950413 
L 206.996825 68.391428 
L 207.039746 87.106888 
L 207.133763 68.16119 
L 207.099639 97.589564 
L 207.150797 76.069334 
L 207.210274 66.90311 
L 207.167813 86.707907 
L 207.252621 70.322491 
L 207.261077 111.113086 
L 207.362196 67.945243 
L 207.378987 67.800339 
L 207.40414 72.915001 
L 207.462675 101.597802 
L 207.496027 67.850095 
L 207.512676 79.953018 
L 207.595663 67.649999 
L 207.529308 81.337966 
L 207.628737 74.760656 
L 207.727545 107.807758 
L 207.661741 69.293293 
L 207.743953 83.573529 
L 207.776719 68.353977 
L 207.793077 110.938063 
L 207.858338 77.043772 
L 207.915223 69.880451 
L 207.963819 94.959275 
L 208.068603 69.39069 
L 208.004202 108.488413 
L 208.076634 76.188705 
L 208.156728 107.855015 
L 208.116731 70.653202 
L 208.188652 88.636648 
L 208.268183 69.661735 
L 208.212553 101.362827 
L 208.307799 70.894238 
L 208.386736 93.640167 
L 208.402476 69.543745 
L 208.426057 87.704424 
L 208.473114 72.410325 
L 208.488769 91.092096 
L 208.527838 73.406269 
L 208.535641 95.745349 
L 208.636723 68.641616 
L 208.652217 77.399706 
L 208.652217 77.399706 
" style="fill:none;stroke:#000000;stroke-linecap:square;stroke-width:0.8;"/>
   </g>
   <g id="line2d_50">
    <path clip-path="url(#paa796c24d5)" d="M 62.296013 25.193068 
L 106.242788 25.300687 
L 116.726251 25.588855 
L 122.981697 26.033802 
L 127.455208 26.603454 
L 130.94008 27.263867 
L 134.64298 28.232737 
L 137.642551 29.250082 
L 140.736078 30.53015 
L 144.250504 32.261498 
L 147.859314 34.313557 
L 151.946021 36.908752 
L 156.902706 40.334896 
L 163.584195 45.247216 
L 174.0161 53.227438 
L 198.223926 72.102249 
L 208.653766 80.259854 
L 208.653766 80.259854 
" style="fill:none;stroke:#ff0000;stroke-linecap:square;stroke-width:2;"/>
   </g>
   <g id="patch_3">
    <path d="M 54.978125 128.92249 
L 54.978125 10.8 
" style="fill:none;stroke:#000000;stroke-linecap:square;stroke-linejoin:miter;stroke-width:0.8;"/>
   </g>
   <g id="patch_4">
    <path d="M 215.971654 128.92249 
L 215.971654 10.8 
" style="fill:none;stroke:#000000;stroke-linecap:square;stroke-linejoin:miter;stroke-width:0.8;"/>
   </g>
   <g id="patch_5">
    <path d="M 54.978125 128.92249 
L 215.971654 128.92249 
" style="fill:none;stroke:#000000;stroke-linecap:square;stroke-linejoin:miter;stroke-width:0.8;"/>
   </g>
   <g id="patch_6">
    <path d="M 54.978125 10.8 
L 215.971654 10.8 
" style="fill:none;stroke:#000000;stroke-linecap:square;stroke-linejoin:miter;stroke-width:0.8;"/>
   </g>
   <g id="legend_1">
    <g id="patch_7">
     <path d="M 61.978125 123.92249 
L 143.371875 123.92249 
Q 145.371875 123.92249 145.371875 121.92249 
L 145.371875 93.56624 
Q 145.371875 91.56624 143.371875 91.56624 
L 61.978125 91.56624 
Q 59.978125 91.56624 59.978125 93.56624 
L 59.978125 121.92249 
Q 59.978125 123.92249 61.978125 123.92249 
z
" style="fill:#ffffff;opacity:0.8;stroke:#cccccc;stroke-linejoin:miter;"/>
    </g>
    <g id="line2d_51">
     <path d="M 63.978125 99.664678 
L 83.978125 99.664678 
" style="fill:none;stroke:#000000;stroke-linecap:square;stroke-width:0.8;"/>
    </g>
    <g id="line2d_52"/>
    <g id="text_10">
     <!-- simulated -->
     <defs>
      <path d="M 9.421875 54.6875 
L 18.40625 54.6875 
L 18.40625 0 
L 9.421875 0 
z
M 9.421875 75.984375 
L 18.40625 75.984375 
L 18.40625 64.59375 
L 9.421875 64.59375 
z
" id="DejaVuSans-105"/>
      <path d="M 8.5 21.578125 
L 8.5 54.6875 
L 17.484375 54.6875 
L 17.484375 21.921875 
Q 17.484375 14.15625 20.5 10.265625 
Q 23.53125 6.390625 29.59375 6.390625 
Q 36.859375 6.390625 41.078125 11.03125 
Q 45.3125 15.671875 45.3125 23.6875 
L 45.3125 54.6875 
L 54.296875 54.6875 
L 54.296875 0 
L 45.3125 0 
L 45.3125 8.40625 
Q 42.046875 3.421875 37.71875 1 
Q 33.40625 -1.421875 27.6875 -1.421875 
Q 18.265625 -1.421875 13.375 4.4375 
Q 8.5 10.296875 8.5 21.578125 
z
M 31.109375 56 
z
" id="DejaVuSans-117"/>
      <path d="M 9.421875 75.984375 
L 18.40625 75.984375 
L 18.40625 0 
L 9.421875 0 
z
" id="DejaVuSans-108"/>
      <path d="M 34.28125 27.484375 
Q 23.390625 27.484375 19.1875 25 
Q 14.984375 22.515625 14.984375 16.5 
Q 14.984375 11.71875 18.140625 8.90625 
Q 21.296875 6.109375 26.703125 6.109375 
Q 34.1875 6.109375 38.703125 11.40625 
Q 43.21875 16.703125 43.21875 25.484375 
L 43.21875 27.484375 
z
M 52.203125 31.203125 
L 52.203125 0 
L 43.21875 0 
L 43.21875 8.296875 
Q 40.140625 3.328125 35.546875 0.953125 
Q 30.953125 -1.421875 24.3125 -1.421875 
Q 15.921875 -1.421875 10.953125 3.296875 
Q 6 8.015625 6 15.921875 
Q 6 25.140625 12.171875 29.828125 
Q 18.359375 34.515625 30.609375 34.515625 
L 43.21875 34.515625 
L 43.21875 35.40625 
Q 43.21875 41.609375 39.140625 45 
Q 35.0625 48.390625 27.6875 48.390625 
Q 23 48.390625 18.546875 47.265625 
Q 14.109375 46.140625 10.015625 43.890625 
L 10.015625 52.203125 
Q 14.9375 54.109375 19.578125 55.046875 
Q 24.21875 56 28.609375 56 
Q 40.484375 56 46.34375 49.84375 
Q 52.203125 43.703125 52.203125 31.203125 
z
" id="DejaVuSans-97"/>
      <path d="M 18.3125 70.21875 
L 18.3125 54.6875 
L 36.8125 54.6875 
L 36.8125 47.703125 
L 18.3125 47.703125 
L 18.3125 18.015625 
Q 18.3125 11.328125 20.140625 9.421875 
Q 21.96875 7.515625 27.59375 7.515625 
L 36.8125 7.515625 
L 36.8125 0 
L 27.59375 0 
Q 17.1875 0 13.234375 3.875 
Q 9.28125 7.765625 9.28125 18.015625 
L 9.28125 47.703125 
L 2.6875 47.703125 
L 2.6875 54.6875 
L 9.28125 54.6875 
L 9.28125 70.21875 
z
" id="DejaVuSans-116"/>
      <path d="M 56.203125 29.59375 
L 56.203125 25.203125 
L 14.890625 25.203125 
Q 15.484375 15.921875 20.484375 11.0625 
Q 25.484375 6.203125 34.421875 6.203125 
Q 39.59375 6.203125 44.453125 7.46875 
Q 49.3125 8.734375 54.109375 11.28125 
L 54.109375 2.78125 
Q 49.265625 0.734375 44.1875 -0.34375 
Q 39.109375 -1.421875 33.890625 -1.421875 
Q 20.796875 -1.421875 13.15625 6.1875 
Q 5.515625 13.8125 5.515625 26.8125 
Q 5.515625 40.234375 12.765625 48.109375 
Q 20.015625 56 32.328125 56 
Q 43.359375 56 49.78125 48.890625 
Q 56.203125 41.796875 56.203125 29.59375 
z
M 47.21875 32.234375 
Q 47.125 39.59375 43.09375 43.984375 
Q 39.0625 48.390625 32.421875 48.390625 
Q 24.90625 48.390625 20.390625 44.140625 
Q 15.875 39.890625 15.1875 32.171875 
z
" id="DejaVuSans-101"/>
      <path d="M 45.40625 46.390625 
L 45.40625 75.984375 
L 54.390625 75.984375 
L 54.390625 0 
L 45.40625 0 
L 45.40625 8.203125 
Q 42.578125 3.328125 38.25 0.953125 
Q 33.9375 -1.421875 27.875 -1.421875 
Q 17.96875 -1.421875 11.734375 6.484375 
Q 5.515625 14.40625 5.515625 27.296875 
Q 5.515625 40.1875 11.734375 48.09375 
Q 17.96875 56 27.875 56 
Q 33.9375 56 38.25 53.625 
Q 42.578125 51.265625 45.40625 46.390625 
z
M 14.796875 27.296875 
Q 14.796875 17.390625 18.875 11.75 
Q 22.953125 6.109375 30.078125 6.109375 
Q 37.203125 6.109375 41.296875 11.75 
Q 45.40625 17.390625 45.40625 27.296875 
Q 45.40625 37.203125 41.296875 42.84375 
Q 37.203125 48.484375 30.078125 48.484375 
Q 22.953125 48.484375 18.875 42.84375 
Q 14.796875 37.203125 14.796875 27.296875 
z
" id="DejaVuSans-100"/>
     </defs>
     <g transform="translate(91.978125 103.164678)scale(0.1 -0.1)">
      <use xlink:href="#DejaVuSans-115"/>
      <use x="52.099609" xlink:href="#DejaVuSans-105"/>
      <use x="79.882812" xlink:href="#DejaVuSans-109"/>
      <use x="177.294922" xlink:href="#DejaVuSans-117"/>
      <use x="240.673828" xlink:href="#DejaVuSans-108"/>
      <use x="268.457031" xlink:href="#DejaVuSans-97"/>
      <use x="329.736328" xlink:href="#DejaVuSans-116"/>
      <use x="368.945312" xlink:href="#DejaVuSans-101"/>
      <use x="430.46875" xlink:href="#DejaVuSans-100"/>
     </g>
    </g>
    <g id="line2d_53">
     <path d="M 63.978125 114.342803 
L 83.978125 114.342803 
" style="fill:none;stroke:#ff0000;stroke-linecap:square;stroke-width:2;"/>
    </g>
    <g id="line2d_54"/>
    <g id="text_11">
     <!-- target -->
     <defs>
      <path d="M 41.109375 46.296875 
Q 39.59375 47.171875 37.8125 47.578125 
Q 36.03125 48 33.890625 48 
Q 26.265625 48 22.1875 43.046875 
Q 18.109375 38.09375 18.109375 28.8125 
L 18.109375 0 
L 9.078125 0 
L 9.078125 54.6875 
L 18.109375 54.6875 
L 18.109375 46.1875 
Q 20.953125 51.171875 25.484375 53.578125 
Q 30.03125 56 36.53125 56 
Q 37.453125 56 38.578125 55.875 
Q 39.703125 55.765625 41.0625 55.515625 
z
" id="DejaVuSans-114"/>
      <path d="M 45.40625 27.984375 
Q 45.40625 37.75 41.375 43.109375 
Q 37.359375 48.484375 30.078125 48.484375 
Q 22.859375 48.484375 18.828125 43.109375 
Q 14.796875 37.75 14.796875 27.984375 
Q 14.796875 18.265625 18.828125 12.890625 
Q 22.859375 7.515625 30.078125 7.515625 
Q 37.359375 7.515625 41.375 12.890625 
Q 45.40625 18.265625 45.40625 27.984375 
z
M 54.390625 6.78125 
Q 54.390625 -7.171875 48.1875 -13.984375 
Q 42 -20.796875 29.203125 -20.796875 
Q 24.46875 -20.796875 20.265625 -20.09375 
Q 16.0625 -19.390625 12.109375 -17.921875 
L 12.109375 -9.1875 
Q 16.0625 -11.328125 19.921875 -12.34375 
Q 23.78125 -13.375 27.78125 -13.375 
Q 36.625 -13.375 41.015625 -8.765625 
Q 45.40625 -4.15625 45.40625 5.171875 
L 45.40625 9.625 
Q 42.625 4.78125 38.28125 2.390625 
Q 33.9375 0 27.875 0 
Q 17.828125 0 11.671875 7.65625 
Q 5.515625 15.328125 5.515625 27.984375 
Q 5.515625 40.671875 11.671875 48.328125 
Q 17.828125 56 27.875 56 
Q 33.9375 56 38.28125 53.609375 
Q 42.625 51.21875 45.40625 46.390625 
L 45.40625 54.6875 
L 54.390625 54.6875 
z
" id="DejaVuSans-103"/>
     </defs>
     <g transform="translate(91.978125 117.842803)scale(0.1 -0.1)">
      <use xlink:href="#DejaVuSans-116"/>
      <use x="39.208984" xlink:href="#DejaVuSans-97"/>
      <use x="100.488281" xlink:href="#DejaVuSans-114"/>
      <use x="141.585938" xlink:href="#DejaVuSans-103"/>
      <use x="205.0625" xlink:href="#DejaVuSans-101"/>
      <use x="266.585938" xlink:href="#DejaVuSans-116"/>
     </g>
    </g>
   </g>
  </g>
 </g>
 <defs>
  <clipPath id="paa796c24d5">
   <rect height="118.12249" width="160.993529" x="54.978125" y="10.8"/>
  </clipPath>
 </defs>
</svg>
