<?xml version="1.0" encoding="utf-8" standalone="no"?>
<!DOCTYPE svg PUBLIC "-//W3C//DTD SVG 1.1//EN"
  "http://www.w3.org/Graphics/SVG/1.1/DTD/svg11.dtd">
<!-- Created with matplotlib (https://matplotlib.org/) -->
<svg height="170.07874pt" version="1.1" viewBox="0 0 226.771654 170.07874" width="226.771654pt" xmlns="http://www.w3.org/2000/svg" xmlns:xlink="http://www.w3.org/1999/xlink">
 <defs>
  <style type="text/css">
*{stroke-linecap:butt;stroke-linejoin:round;}
  </style>
 </defs>
 <g id="figure_1">
  <g id="patch_1">
   <path d="M 0 170.07874 
L 226.771654 170.07874 
L 226.771654 0 
L 0 0 
z
" style="fill:#ffffff;"/>
  </g>
  <g id="axes_1">
   <g id="patch_2">
    <path d="M 55.8 128.92249 
L 215.971654 128.92249 
L 215.971654 10.8 
L 55.8 10.8 
z
" style="fill:#ffffff;"/>
   </g>
   <g id="matplotlib.axis_1">
    <g id="xtick_1">
     <g id="line2d_1">
      <path clip-path="url(#p49371e24cf)" d="M 86.718933 128.92249 
L 86.718933 10.8 
" style="fill:none;stroke:#b0b0b0;stroke-linecap:square;stroke-width:0.8;"/>
     </g>
     <g id="line2d_2">
      <defs>
       <path d="M 0 0 
L 0 3.5 
" id="mdc00bc5045" style="stroke:#000000;stroke-width:0.8;"/>
      </defs>
      <g>
       <use style="stroke:#000000;stroke-width:0.8;" x="86.718933" xlink:href="#mdc00bc5045" y="128.92249"/>
      </g>
     </g>
     <g id="text_1">
      <!-- $\mathdefault{10^{-4}}$ -->
      <defs>
       <path d="M 12.40625 8.296875 
L 28.515625 8.296875 
L 28.515625 63.921875 
L 10.984375 60.40625 
L 10.984375 69.390625 
L 28.421875 72.90625 
L 38.28125 72.90625 
L 38.28125 8.296875 
L 54.390625 8.296875 
L 54.390625 0 
L 12.40625 0 
z
" id="DejaVuSans-49"/>
       <path d="M 31.78125 66.40625 
Q 24.171875 66.40625 20.328125 58.90625 
Q 16.5 51.421875 16.5 36.375 
Q 16.5 21.390625 20.328125 13.890625 
Q 24.171875 6.390625 31.78125 6.390625 
Q 39.453125 6.390625 43.28125 13.890625 
Q 47.125 21.390625 47.125 36.375 
Q 47.125 51.421875 43.28125 58.90625 
Q 39.453125 66.40625 31.78125 66.40625 
z
M 31.78125 74.21875 
Q 44.046875 74.21875 50.515625 64.515625 
Q 56.984375 54.828125 56.984375 36.375 
Q 56.984375 17.96875 50.515625 8.265625 
Q 44.046875 -1.421875 31.78125 -1.421875 
Q 19.53125 -1.421875 13.0625 8.265625 
Q 6.59375 17.96875 6.59375 36.375 
Q 6.59375 54.828125 13.0625 64.515625 
Q 19.53125 74.21875 31.78125 74.21875 
z
" id="DejaVuSans-48"/>
       <path d="M 10.59375 35.5 
L 73.1875 35.5 
L 73.1875 27.203125 
L 10.59375 27.203125 
z
" id="DejaVuSans-8722"/>
       <path d="M 37.796875 64.3125 
L 12.890625 25.390625 
L 37.796875 25.390625 
z
M 35.203125 72.90625 
L 47.609375 72.90625 
L 47.609375 25.390625 
L 58.015625 25.390625 
L 58.015625 17.1875 
L 47.609375 17.1875 
L 47.609375 0 
L 37.796875 0 
L 37.796875 17.1875 
L 4.890625 17.1875 
L 4.890625 26.703125 
z
" id="DejaVuSans-52"/>
      </defs>
      <g transform="translate(74.968933 143.520928)scale(0.1 -0.1)">
       <use transform="translate(0 0.684375)" xlink:href="#DejaVuSans-49"/>
       <use transform="translate(63.623047 0.684375)" xlink:href="#DejaVuSans-48"/>
       <use transform="translate(128.203125 38.965625)scale(0.7)" xlink:href="#DejaVuSans-8722"/>
       <use transform="translate(186.855469 38.965625)scale(0.7)" xlink:href="#DejaVuSans-52"/>
      </g>
     </g>
    </g>
    <g id="xtick_2">
     <g id="line2d_3">
      <path clip-path="url(#p49371e24cf)" d="M 141.208374 128.92249 
L 141.208374 10.8 
" style="fill:none;stroke:#b0b0b0;stroke-linecap:square;stroke-width:0.8;"/>
     </g>
     <g id="line2d_4">
      <g>
       <use style="stroke:#000000;stroke-width:0.8;" x="141.208374" xlink:href="#mdc00bc5045" y="128.92249"/>
      </g>
     </g>
     <g id="text_2">
      <!-- $\mathdefault{10^{-2}}$ -->
      <defs>
       <path d="M 19.1875 8.296875 
L 53.609375 8.296875 
L 53.609375 0 
L 7.328125 0 
L 7.328125 8.296875 
Q 12.9375 14.109375 22.625 23.890625 
Q 32.328125 33.6875 34.8125 36.53125 
Q 39.546875 41.84375 41.421875 45.53125 
Q 43.3125 49.21875 43.3125 52.78125 
Q 43.3125 58.59375 39.234375 62.25 
Q 35.15625 65.921875 28.609375 65.921875 
Q 23.96875 65.921875 18.8125 64.3125 
Q 13.671875 62.703125 7.8125 59.421875 
L 7.8125 69.390625 
Q 13.765625 71.78125 18.9375 73 
Q 24.125 74.21875 28.421875 74.21875 
Q 39.75 74.21875 46.484375 68.546875 
Q 53.21875 62.890625 53.21875 53.421875 
Q 53.21875 48.921875 51.53125 44.890625 
Q 49.859375 40.875 45.40625 35.40625 
Q 44.1875 33.984375 37.640625 27.21875 
Q 31.109375 20.453125 19.1875 8.296875 
z
" id="DejaVuSans-50"/>
      </defs>
      <g transform="translate(129.458374 143.520928)scale(0.1 -0.1)">
       <use transform="translate(0 0.765625)" xlink:href="#DejaVuSans-49"/>
       <use transform="translate(63.623047 0.765625)" xlink:href="#DejaVuSans-48"/>
       <use transform="translate(128.203125 39.046875)scale(0.7)" xlink:href="#DejaVuSans-8722"/>
       <use transform="translate(186.855469 39.046875)scale(0.7)" xlink:href="#DejaVuSans-50"/>
      </g>
     </g>
    </g>
    <g id="xtick_3">
     <g id="line2d_5">
      <path clip-path="url(#p49371e24cf)" d="M 195.697814 128.92249 
L 195.697814 10.8 
" style="fill:none;stroke:#b0b0b0;stroke-linecap:square;stroke-width:0.8;"/>
     </g>
     <g id="line2d_6">
      <g>
       <use style="stroke:#000000;stroke-width:0.8;" x="195.697814" xlink:href="#mdc00bc5045" y="128.92249"/>
      </g>
     </g>
     <g id="text_3">
      <!-- $\mathdefault{10^{0}}$ -->
      <g transform="translate(186.897814 143.520928)scale(0.1 -0.1)">
       <use transform="translate(0 0.765625)" xlink:href="#DejaVuSans-49"/>
       <use transform="translate(63.623047 0.765625)" xlink:href="#DejaVuSans-48"/>
       <use transform="translate(128.203125 39.046875)scale(0.7)" xlink:href="#DejaVuSans-48"/>
      </g>
     </g>
    </g>
    <g id="text_4">
     <!-- f (Hz) -->
     <defs>
      <path d="M 37.109375 75.984375 
L 37.109375 68.5 
L 28.515625 68.5 
Q 23.6875 68.5 21.796875 66.546875 
Q 19.921875 64.59375 19.921875 59.515625 
L 19.921875 54.6875 
L 34.71875 54.6875 
L 34.71875 47.703125 
L 19.921875 47.703125 
L 19.921875 0 
L 10.890625 0 
L 10.890625 47.703125 
L 2.296875 47.703125 
L 2.296875 54.6875 
L 10.890625 54.6875 
L 10.890625 58.5 
Q 10.890625 67.625 15.140625 71.796875 
Q 19.390625 75.984375 28.609375 75.984375 
z
" id="DejaVuSans-102"/>
      <path id="DejaVuSans-32"/>
      <path d="M 31 75.875 
Q 24.46875 64.65625 21.28125 53.65625 
Q 18.109375 42.671875 18.109375 31.390625 
Q 18.109375 20.125 21.3125 9.0625 
Q 24.515625 -2 31 -13.1875 
L 23.1875 -13.1875 
Q 15.875 -1.703125 12.234375 9.375 
Q 8.59375 20.453125 8.59375 31.390625 
Q 8.59375 42.28125 12.203125 53.3125 
Q 15.828125 64.359375 23.1875 75.875 
z
" id="DejaVuSans-40"/>
      <path d="M 9.8125 72.90625 
L 19.671875 72.90625 
L 19.671875 43.015625 
L 55.515625 43.015625 
L 55.515625 72.90625 
L 65.375 72.90625 
L 65.375 0 
L 55.515625 0 
L 55.515625 34.71875 
L 19.671875 34.71875 
L 19.671875 0 
L 9.8125 0 
z
" id="DejaVuSans-72"/>
      <path d="M 5.515625 54.6875 
L 48.1875 54.6875 
L 48.1875 46.484375 
L 14.40625 7.171875 
L 48.1875 7.171875 
L 48.1875 0 
L 4.296875 0 
L 4.296875 8.203125 
L 38.09375 47.515625 
L 5.515625 47.515625 
z
" id="DejaVuSans-122"/>
      <path d="M 8.015625 75.875 
L 15.828125 75.875 
Q 23.140625 64.359375 26.78125 53.3125 
Q 30.421875 42.28125 30.421875 31.390625 
Q 30.421875 20.453125 26.78125 9.375 
Q 23.140625 -1.703125 15.828125 -13.1875 
L 8.015625 -13.1875 
Q 14.5 -2 17.703125 9.0625 
Q 20.90625 20.125 20.90625 31.390625 
Q 20.90625 42.671875 17.703125 53.65625 
Q 14.5 64.65625 8.015625 75.875 
z
" id="DejaVuSans-41"/>
     </defs>
     <g transform="translate(122.250671 157.199053)scale(0.1 -0.1)">
      <use xlink:href="#DejaVuSans-102"/>
      <use x="35.205078" xlink:href="#DejaVuSans-32"/>
      <use x="66.992188" xlink:href="#DejaVuSans-40"/>
      <use x="106.005859" xlink:href="#DejaVuSans-72"/>
      <use x="181.201172" xlink:href="#DejaVuSans-122"/>
      <use x="233.691406" xlink:href="#DejaVuSans-41"/>
     </g>
    </g>
   </g>
   <g id="matplotlib.axis_2">
    <g id="ytick_1">
     <g id="line2d_7">
      <path clip-path="url(#p49371e24cf)" d="M 55.8 99.484133 
L 215.971654 99.484133 
" style="fill:none;stroke:#b0b0b0;stroke-linecap:square;stroke-width:0.8;"/>
     </g>
     <g id="line2d_8">
      <defs>
       <path d="M 0 0 
L -3.5 0 
" id="m25941dc2c4" style="stroke:#000000;stroke-width:0.8;"/>
      </defs>
      <g>
       <use style="stroke:#000000;stroke-width:0.8;" x="55.8" xlink:href="#m25941dc2c4" y="99.484133"/>
      </g>
     </g>
     <g id="text_5">
      <!-- $\mathdefault{10^{-2}}$ -->
      <g transform="translate(25.3 103.283351)scale(0.1 -0.1)">
       <use transform="translate(0 0.765625)" xlink:href="#DejaVuSans-49"/>
       <use transform="translate(63.623047 0.765625)" xlink:href="#DejaVuSans-48"/>
       <use transform="translate(128.203125 39.046875)scale(0.7)" xlink:href="#DejaVuSans-8722"/>
       <use transform="translate(186.855469 39.046875)scale(0.7)" xlink:href="#DejaVuSans-50"/>
      </g>
     </g>
    </g>
    <g id="ytick_2">
     <g id="line2d_9">
      <path clip-path="url(#p49371e24cf)" d="M 55.8 63.359591 
L 215.971654 63.359591 
" style="fill:none;stroke:#b0b0b0;stroke-linecap:square;stroke-width:0.8;"/>
     </g>
     <g id="line2d_10">
      <g>
       <use style="stroke:#000000;stroke-width:0.8;" x="55.8" xlink:href="#m25941dc2c4" y="63.359591"/>
      </g>
     </g>
     <g id="text_6">
      <!-- $\mathdefault{10^{0}}$ -->
      <g transform="translate(31.2 67.15881)scale(0.1 -0.1)">
       <use transform="translate(0 0.765625)" xlink:href="#DejaVuSans-49"/>
       <use transform="translate(63.623047 0.765625)" xlink:href="#DejaVuSans-48"/>
       <use transform="translate(128.203125 39.046875)scale(0.7)" xlink:href="#DejaVuSans-48"/>
      </g>
     </g>
    </g>
    <g id="ytick_3">
     <g id="line2d_11">
      <path clip-path="url(#p49371e24cf)" d="M 55.8 27.23505 
L 215.971654 27.23505 
" style="fill:none;stroke:#b0b0b0;stroke-linecap:square;stroke-width:0.8;"/>
     </g>
     <g id="line2d_12">
      <g>
       <use style="stroke:#000000;stroke-width:0.8;" x="55.8" xlink:href="#m25941dc2c4" y="27.23505"/>
      </g>
     </g>
     <g id="text_7">
      <!-- $\mathdefault{10^{2}}$ -->
      <g transform="translate(31.2 31.034268)scale(0.1 -0.1)">
       <use transform="translate(0 0.765625)" xlink:href="#DejaVuSans-49"/>
       <use transform="translate(63.623047 0.765625)" xlink:href="#DejaVuSans-48"/>
       <use transform="translate(128.203125 39.046875)scale(0.7)" xlink:href="#DejaVuSans-50"/>
      </g>
     </g>
    </g>
    <g id="text_8">
     <!-- $S(f) (m^2/s)$ -->
     <defs>
      <path d="M 60.296875 70.515625 
L 58.40625 60.890625 
Q 53.46875 63.53125 48.609375 64.875 
Q 43.75 66.21875 39.203125 66.21875 
Q 30.375 66.21875 25.140625 62.359375 
Q 19.921875 58.5 19.921875 52.09375 
Q 19.921875 48.578125 21.84375 46.703125 
Q 23.78125 44.828125 31.78125 42.671875 
L 37.703125 41.21875 
Q 47.703125 38.625 51.609375 34.640625 
Q 55.515625 30.671875 55.515625 23.484375 
Q 55.515625 12.453125 46.84375 5.515625 
Q 38.1875 -1.421875 24.03125 -1.421875 
Q 18.21875 -1.421875 12.359375 -0.265625 
Q 6.5 0.875 0.59375 3.21875 
L 2.59375 13.375 
Q 8.015625 10.015625 13.453125 8.296875 
Q 18.890625 6.59375 24.3125 6.59375 
Q 33.546875 6.59375 39.109375 10.6875 
Q 44.671875 14.796875 44.671875 21.390625 
Q 44.671875 25.78125 42.453125 28.046875 
Q 40.234375 30.328125 32.90625 32.171875 
L 27 33.6875 
Q 16.890625 36.328125 13.203125 39.765625 
Q 9.515625 43.21875 9.515625 49.421875 
Q 9.515625 60.296875 17.890625 67.25 
Q 26.265625 74.21875 39.703125 74.21875 
Q 44.921875 74.21875 50.046875 73.28125 
Q 55.171875 72.359375 60.296875 70.515625 
z
" id="DejaVuSans-Oblique-83"/>
      <path d="M 47.796875 75.984375 
L 46.390625 68.5 
L 37.796875 68.5 
Q 32.90625 68.5 30.6875 66.578125 
Q 28.46875 64.65625 27.390625 59.515625 
L 26.421875 54.6875 
L 41.21875 54.6875 
L 39.890625 47.703125 
L 25.09375 47.703125 
L 15.828125 0 
L 6.78125 0 
L 16.109375 47.703125 
L 7.515625 47.703125 
L 8.796875 54.6875 
L 17.390625 54.6875 
L 18.109375 58.5 
Q 19.96875 68.171875 24.625 72.078125 
Q 29.296875 75.984375 39.3125 75.984375 
z
" id="DejaVuSans-Oblique-102"/>
      <path d="M 89.796875 33.015625 
L 83.40625 0 
L 74.421875 0 
L 80.71875 32.71875 
Q 81.109375 34.8125 81.296875 36.328125 
Q 81.5 37.84375 81.5 38.921875 
Q 81.5 43.3125 79.046875 45.75 
Q 76.609375 48.1875 72.21875 48.1875 
Q 65.671875 48.1875 60.546875 43.28125 
Q 55.421875 38.375 53.90625 30.515625 
L 47.90625 0 
L 38.921875 0 
L 45.3125 32.71875 
Q 45.703125 34.515625 45.890625 36.046875 
Q 46.09375 37.59375 46.09375 38.8125 
Q 46.09375 43.265625 43.65625 45.71875 
Q 41.21875 48.1875 36.921875 48.1875 
Q 30.28125 48.1875 25.140625 43.28125 
Q 20.015625 38.375 18.5 30.515625 
L 12.5 0 
L 3.515625 0 
L 14.203125 54.6875 
L 23.1875 54.6875 
L 21.484375 46.1875 
Q 25.140625 50.984375 30.046875 53.484375 
Q 34.96875 56 40.578125 56 
Q 46.53125 56 50.359375 52.875 
Q 54.203125 49.75 54.984375 44.1875 
Q 59.078125 49.953125 64.46875 52.96875 
Q 69.875 56 75.875 56 
Q 82.90625 56 86.734375 51.953125 
Q 90.578125 47.90625 90.578125 40.484375 
Q 90.578125 38.875 90.375 36.9375 
Q 90.1875 35.015625 89.796875 33.015625 
z
" id="DejaVuSans-Oblique-109"/>
      <path d="M 25.390625 72.90625 
L 33.6875 72.90625 
L 8.296875 -9.28125 
L 0 -9.28125 
z
" id="DejaVuSans-47"/>
      <path d="M 50 53.078125 
L 48.296875 44.578125 
Q 44.734375 46.53125 40.765625 47.5 
Q 36.8125 48.484375 32.625 48.484375 
Q 25.53125 48.484375 21.453125 46.0625 
Q 17.390625 43.65625 17.390625 39.5 
Q 17.390625 34.671875 26.859375 32.078125 
Q 27.59375 31.890625 27.9375 31.78125 
L 30.8125 30.90625 
Q 39.796875 28.421875 42.796875 25.6875 
Q 45.796875 22.953125 45.796875 18.21875 
Q 45.796875 9.515625 38.890625 4.046875 
Q 31.984375 -1.421875 20.796875 -1.421875 
Q 16.453125 -1.421875 11.671875 -0.578125 
Q 6.890625 0.25 1.125 2 
L 2.875 11.28125 
Q 7.8125 8.734375 12.59375 7.421875 
Q 17.390625 6.109375 21.78125 6.109375 
Q 28.375 6.109375 32.5 8.9375 
Q 36.625 11.765625 36.625 16.109375 
Q 36.625 20.796875 25.78125 23.6875 
L 24.859375 23.921875 
L 21.78125 24.703125 
Q 14.9375 26.515625 11.765625 29.46875 
Q 8.59375 32.421875 8.59375 37.015625 
Q 8.59375 45.75 15.15625 50.875 
Q 21.734375 56 33.015625 56 
Q 37.453125 56 41.671875 55.265625 
Q 45.90625 54.546875 50 53.078125 
z
" id="DejaVuSans-Oblique-115"/>
     </defs>
     <g transform="translate(19.220312 94.361245)rotate(-90)scale(0.1 -0.1)">
      <use transform="translate(0 0.765625)" xlink:href="#DejaVuSans-Oblique-83"/>
      <use transform="translate(63.476562 0.765625)" xlink:href="#DejaVuSans-40"/>
      <use transform="translate(102.490234 0.765625)" xlink:href="#DejaVuSans-Oblique-102"/>
      <use transform="translate(137.695312 0.765625)" xlink:href="#DejaVuSans-41"/>
      <use transform="translate(176.708984 0.765625)" xlink:href="#DejaVuSans-40"/>
      <use transform="translate(215.722656 0.765625)" xlink:href="#DejaVuSans-Oblique-109"/>
      <use transform="translate(317.784661 39.046875)scale(0.7)" xlink:href="#DejaVuSans-50"/>
      <use transform="translate(365.055169 0.765625)" xlink:href="#DejaVuSans-47"/>
      <use transform="translate(398.746576 0.765625)" xlink:href="#DejaVuSans-Oblique-115"/>
      <use transform="translate(450.846185 0.765625)" xlink:href="#DejaVuSans-41"/>
     </g>
    </g>
   </g>
   <g id="line2d_13">
    <path clip-path="url(#p49371e24cf)" d="M 118.480591 46.651394 
L 126.682069 55.647936 
L 131.479626 55.496016 
L 134.883547 30.912281 
L 137.523833 29.533341 
L 139.681104 23.903739 
L 141.505051 24.172599 
L 143.085025 33.656274 
L 144.478661 18.910935 
L 145.725311 20.082356 
L 146.853043 38.737723 
L 147.882582 26.247953 
L 148.829666 30.131289 
L 149.706529 67.24343 
L 150.522868 38.969509 
L 151.286503 31.854211 
L 152.003828 35.47795 
L 152.680139 30.843225 
L 153.319875 45.846935 
L 153.926789 28.22273 
L 154.504086 24.750307 
L 155.054521 16.169204 
L 155.580485 22.517364 
L 156.08406 23.148574 
L 156.567075 19.305996 
L 157.031144 22.087651 
L 157.477696 31.860176 
L 157.908007 25.660569 
L 158.323215 34.753194 
L 158.724346 36.313099 
L 159.112323 17.837711 
L 159.487981 21.078687 
L 159.852078 29.571642 
L 160.205306 20.091222 
L 160.548293 27.045776 
L 160.881617 41.530127 
L 161.205808 34.165004 
L 161.521353 22.271974 
L 161.828701 25.887122 
L 162.420436 38.941621 
L 162.705564 25.894289 
L 162.983982 19.783006 
L 163.255999 25.994064 
L 163.521903 27.475889 
L 163.781963 26.631001 
L 164.036429 31.7003 
L 164.285538 31.448909 
L 164.52951 30.11408 
L 164.768553 30.706917 
L 165.002863 67.912943 
L 165.232622 33.000215 
L 165.458005 45.361636 
L 165.896286 39.398418 
L 166.109485 36.281991 
L 166.524693 27.135573 
L 166.925824 43.222312 
L 167.121403 33.824178 
L 167.313801 32.320374 
L 167.503121 51.340676 
L 167.689459 38.093827 
L 168.053557 30.004325 
L 168.231488 36.05877 
L 168.406784 37.110747 
L 168.57952 37.450437 
L 168.749771 34.001704 
L 168.917607 24.608534 
L 169.083095 29.183411 
L 169.407286 49.906759 
L 169.566111 37.156606 
L 169.877503 40.745785 
L 170.030179 35.181549 
L 170.18091 35.162098 
L 170.329745 53.862426 
L 170.476731 34.724168 
L 170.621914 31.963539 
L 170.765337 35.485273 
L 170.907042 35.539275 
L 171.04707 33.203706 
L 171.18546 35.910842 
L 171.457477 26.965766 
L 171.591176 29.676798 
L 171.854126 51.187207 
L 172.111358 33.208388 
L 172.237907 36.693714 
L 172.363117 63.862106 
L 172.487016 51.994919 
L 172.609631 51.511645 
L 172.730988 36.261835 
L 172.851114 35.915861 
L 172.970032 37.46661 
L 173.087766 34.79987 
L 173.204341 36.305915 
L 173.319778 33.721622 
L 173.4341 39.341908 
L 173.547328 51.585951 
L 173.659483 48.307852 
L 173.880652 36.056939 
L 173.989706 37.862152 
L 174.097764 45.520785 
L 174.204843 74.661616 
L 174.416139 34.908635 
L 174.520388 35.647133 
L 174.827736 50.762735 
L 174.928437 45.345542 
L 175.028287 49.020675 
L 175.127302 46.217742 
L 175.322881 32.617084 
L 175.704599 55.383928 
L 175.890937 45.313693 
L 175.983017 36.61395 
L 176.165055 50.813536 
L 176.344335 36.144515 
L 176.432966 36.110137 
L 176.520939 43.686897 
L 176.608262 61.055471 
L 176.694945 55.994359 
L 176.86643 34.361906 
L 176.951249 34.610375 
L 177.035464 36.421223 
L 177.202118 43.34212 
L 177.284573 43.801834 
L 177.366458 52.984068 
L 177.528545 81.052335 
L 177.688443 44.126275 
L 177.767589 63.088651 
L 178.001898 30.117298 
L 178.078981 32.449481 
L 178.231657 53.801047 
L 178.307263 50.932713 
L 178.382388 67.584479 
L 178.604945 35.698038 
L 178.823392 62.727909 
L 178.895321 54.606399 
L 178.966815 62.969409 
L 179.178741 43.917943 
L 179.248548 36.253105 
L 179.317945 37.922704 
L 179.455531 55.250013 
L 179.725994 40.365211 
L 179.792654 44.871449 
L 179.858942 56.972932 
L 179.924859 42.030073 
L 179.990412 72.160129 
L 180.055604 38.713449 
L 180.120438 40.116238 
L 180.184919 73.104718 
L 180.24905 54.223095 
L 180.312836 45.894284 
L 180.37628 65.806481 
L 180.439385 52.033403 
L 180.564595 48.45117 
L 180.626707 40.036077 
L 180.688494 45.183579 
L 180.74996 63.959452 
L 180.811109 51.321452 
L 180.932466 46.848971 
L 181.052592 37.911108 
L 181.1122 55.058201 
L 181.17151 45.166599 
L 181.230523 39.408262 
L 181.347675 55.669085 
L 181.405819 40.401449 
L 181.463678 40.651259 
L 181.521256 62.608765 
L 181.578555 49.199273 
L 181.635578 46.104129 
L 181.692327 46.309629 
L 181.748806 56.248469 
L 181.805016 47.68129 
L 181.860961 49.301725 
L 182.08213 42.755017 
L 182.191184 61.532167 
L 182.245336 59.241533 
L 182.406321 47.045985 
L 182.512441 54.099074 
L 182.565146 41.909112 
L 182.617617 46.930767 
L 182.669856 51.599623 
L 182.773649 43.462441 
L 182.927649 59.63828 
L 182.978541 51.075888 
L 183.129915 41.156385 
L 183.229765 54.412781 
L 183.32878 52.259576 
L 183.426974 37.242322 
L 183.524359 51.215111 
L 183.572753 49.470727 
L 183.66895 37.71249 
L 183.85903 69.060382 
L 183.999613 47.021166 
L 184.092415 57.717798 
L 184.184495 44.571189 
L 184.230268 45.245891 
L 184.275864 48.717938 
L 184.321286 95.777098 
L 184.366533 56.161645 
L 184.411608 65.302568 
L 184.456513 52.603804 
L 184.501247 49.153266 
L 184.545813 58.975957 
L 184.590211 46.643852 
L 184.634444 47.251721 
L 184.678512 76.865401 
L 184.722417 52.461116 
L 184.766159 54.16616 
L 184.853161 43.352796 
L 184.939528 75.66242 
L 184.982476 52.969542 
L 185.067908 47.202428 
L 185.110393 50.398754 
L 185.152727 72.396862 
L 185.236942 61.714099 
L 185.278827 50.243193 
L 185.320563 54.437522 
L 185.362152 71.318569 
L 185.403596 53.108945 
L 185.444896 60.376601 
L 185.527064 91.918985 
L 185.567936 52.102763 
L 185.649257 62.109972 
L 185.689709 45.201381 
L 185.730023 50.390787 
L 185.770201 70.693616 
L 185.850149 56.07229 
L 185.889921 47.030823 
L 185.92956 58.875561 
L 186.008442 68.306098 
L 186.047686 51.035355 
L 186.125787 51.845487 
L 186.164645 50.19057 
L 186.203376 52.058744 
L 186.280459 67.111969 
L 186.357043 45.862041 
L 186.39515 64.025316 
L 186.433135 59.177658 
L 186.470998 70.521252 
L 186.508741 55.840597 
L 186.546363 51.958026 
L 186.621251 70.365008 
L 186.658518 50.458394 
L 186.732701 58.284002 
L 186.769619 54.243299 
L 186.843112 68.720908 
L 186.879687 58.84697 
L 186.952501 53.338105 
L 186.988741 68.698114 
L 187.1326 44.070928 
L 187.203878 54.549394 
L 187.27473 53.079602 
L 187.309998 50.67798 
L 187.415174 60.57206 
L 187.450026 51.836961 
L 187.55397 52.629665 
L 187.588416 46.704887 
L 187.622762 47.915824 
L 187.793013 83.264927 
L 187.894 55.228625 
L 187.927472 59.117829 
L 187.960849 59.899446 
L 188.027322 50.422248 
L 188.06042 59.362603 
L 188.159159 80.324851 
L 188.257082 85.722325 
L 188.321916 45.945148 
L 188.546079 63.136169 
L 188.577758 62.001005 
L 188.609353 52.103679 
L 188.640863 67.534077 
L 188.703634 53.614083 
L 188.734895 58.208418 
L 188.766073 50.013094 
L 188.79717 47.885645 
L 188.828185 49.357921 
L 188.920745 57.790363 
L 188.951439 53.458506 
L 188.982052 53.022694 
L 189.012587 59.450312 
L 189.073421 55.175062 
L 189.103722 54.208987 
L 189.194159 61.604962 
L 189.25407 50.189291 
L 189.283911 74.158299 
L 189.34337 70.329972 
L 189.372988 52.729851 
L 189.461398 63.935476 
L 189.549153 56.642393 
L 189.578261 86.56643 
L 189.607297 51.133682 
L 189.69398 52.500245 
L 189.808579 61.532982 
L 189.922078 44.620818 
L 189.950284 49.803342 
L 190.090312 78.590628 
L 190.11812 64.641597 
L 190.145863 58.120004 
L 190.17354 62.204593 
L 190.201153 73.887151 
L 190.256187 53.077388 
L 190.283608 52.054222 
L 190.446814 67.296562 
L 190.50072 52.251956 
L 190.58112 53.772298 
L 190.607799 67.044729 
L 190.660978 48.455716 
L 190.687478 48.687228 
L 190.792888 67.107156 
L 190.871334 59.461726 
L 190.897368 54.319993 
L 190.949264 65.392612 
L 191.000933 58.485234 
L 191.026683 69.034169 
L 191.052378 70.034305 
L 191.103599 51.673855 
L 191.1546 70.480454 
L 191.230692 54.719973 
L 191.255948 59.767268 
L 191.331393 58.470778 
L 191.40636 77.614079 
L 191.554883 56.794311 
L 191.60398 50.272705 
L 191.628452 55.593353 
L 191.652873 72.933943 
L 191.725837 67.761323 
L 191.798353 81.575601 
L 191.846452 52.691368 
L 191.96585 71.537216 
L 191.989586 67.066389 
L 192.013274 58.947193 
L 192.060508 63.831379 
L 192.084055 78.435385 
L 192.131008 55.698202 
L 192.177776 76.155906 
L 192.22436 57.43647 
L 192.293893 68.776199 
L 192.340023 73.182685 
L 192.431746 54.817225 
L 192.454566 55.377826 
L 192.477342 52.655257 
L 192.500075 53.813121 
L 192.545409 81.817435 
L 192.613086 63.932099 
L 192.63556 56.424209 
L 192.657991 64.401849 
L 192.680379 101.248401 
L 192.747291 65.663378 
L 192.769511 59.66918 
L 192.79169 84.381504 
L 192.835922 53.312654 
L 192.87999 60.482437 
L 192.901963 68.253629 
L 192.945786 59.244822 
L 192.967637 66.276719 
L 192.989447 54.25837 
L 193.07629 65.659048 
L 193.141006 64.436907 
L 193.183954 71.456398 
L 193.290648 61.012143 
L 193.396388 81.576129 
L 193.333057 58.370044 
L 193.438421 74.696858 
L 193.522041 53.635147 
L 193.542854 55.895066 
L 193.605074 89.39422 
L 193.646374 54.492488 
L 193.666969 61.156401 
L 193.748996 54.719928 
L 193.789796 62.458193 
L 193.810144 56.45396 
L 193.830457 50.610603 
L 193.870978 60.421461 
L 193.911362 58.992217 
L 193.931502 73.239363 
L 193.991717 54.768584 
L 194.01172 60.367133 
L 194.03169 59.957952 
L 194.051627 63.537876 
L 194.091399 52.411859 
L 194.111235 52.452181 
L 194.170545 77.240979 
L 194.249164 58.135874 
L 194.268738 58.870947 
L 194.307788 57.432974 
L 194.327265 53.771859 
L 194.385504 60.069325 
L 194.404854 59.230267 
L 194.424172 58.211332 
L 194.558521 75.750627 
L 194.615636 58.179246 
L 194.691363 58.585861 
L 194.710219 59.073746 
L 194.729045 58.143929 
L 194.804051 54.699637 
L 194.859996 69.79598 
L 194.878585 69.250436 
L 194.915677 59.183746 
L 194.952653 69.282521 
L 194.989513 62.805434 
L 195.04459 74.791257 
L 195.099411 72.284255 
L 195.153979 58.03337 
L 195.226348 60.480387 
L 195.244371 61.603709 
L 195.262367 88.034428 
L 195.316191 56.400275 
L 195.351938 59.509285 
L 195.493855 77.501176 
L 195.440835 58.890574 
L 195.511476 73.479407 
L 195.546639 59.349512 
L 195.599187 81.393249 
L 195.616652 86.171742 
L 195.634091 64.370938 
L 195.668891 58.590515 
L 195.70359 73.683596 
L 195.738187 65.08651 
L 195.772684 76.649702 
L 195.789894 59.513505 
L 195.841376 71.887673 
L 195.960636 59.886359 
L 195.977576 81.99188 
L 196.061911 62.63405 
L 196.078707 59.552122 
L 196.095478 67.075538 
L 196.12895 63.456382 
L 196.162327 100.791336 
L 196.2288 57.783385 
L 196.261898 71.170713 
L 196.344238 68.361368 
L 196.360637 62.237057 
L 196.4097 72.904452 
L 196.426009 92.652381 
L 196.474802 59.420097 
L 196.507219 65.664043 
L 196.523394 58.574433 
L 196.555678 71.781036 
L 196.587875 59.626592 
L 196.699878 83.100822 
L 196.779236 54.923219 
L 196.810831 79.954871 
L 196.842341 81.573765 
L 196.920753 58.861131 
L 196.98311 59.521509 
L 196.998648 58.084705 
L 197.04514 86.8868 
L 197.106847 67.115719 
L 197.122223 59.191677 
L 197.18353 84.516854 
L 197.229303 67.963339 
L 197.244521 63.353105 
L 197.290059 75.192413 
L 197.3052 83.538405 
L 197.380612 64.873426 
L 197.455548 57.626082 
L 197.440599 66.275522 
L 197.470478 65.686647 
L 197.530011 76.926336 
L 197.500282 62.198947 
L 197.604009 71.599725 
L 197.648187 66.008703 
L 197.662876 67.485053 
L 197.677547 77.301804 
L 197.73605 60.511887 
L 197.779739 71.906612 
L 197.823266 56.772762 
L 197.852196 83.037712 
L 197.866634 106.864418 
L 197.909844 59.0852 
L 197.938563 60.252636 
L 197.967212 55.965041 
L 197.995793 66.811464 
L 198.038534 58.606353 
L 198.137668 115.432551 
L 198.151762 83.2775 
L 198.193945 61.275164 
L 198.263917 61.578504 
L 198.29179 88.705167 
L 198.319598 58.556129 
L 198.361188 58.765072 
L 198.375018 58.983197 
L 198.471384 89.873245 
L 198.498773 70.187992 
L 198.580563 59.78297 
L 198.539739 74.574011 
L 198.634777 64.035168 
L 198.675276 75.752907 
L 198.702198 58.927426 
L 198.742466 66.376181 
L 198.795945 61.478486 
L 198.862456 78.020975 
L 198.875713 99.716835 
L 198.941779 60.141397 
L 198.968102 98.329709 
L 199.007477 59.576279 
L 199.098846 76.544663 
L 199.111841 84.738882 
L 199.189515 70.940611 
L 199.202411 77.349771 
L 199.266682 60.455828 
L 199.305077 65.982513 
L 199.317848 84.38285 
L 199.343349 60.564511 
L 199.419522 74.880643 
L 199.43217 88.934035 
L 199.507776 57.482192 
L 199.545398 60.559007 
L 199.570414 84.890319 
L 199.645144 59.911742 
L 199.657553 62.480354 
L 199.731736 93.07509 
L 199.756361 61.709234 
L 199.780935 83.278265 
L 199.805458 63.489068 
L 199.903044 63.989617 
L 200.011874 80.122517 
L 199.939432 63.933277 
L 200.04793 76.909868 
L 200.10778 60.135654 
L 200.071906 78.596332 
L 200.155442 74.408511 
L 200.214752 86.645057 
L 200.202914 71.892272 
L 200.238393 77.797139 
L 200.261986 60.473772 
L 200.355893 66.817764 
L 200.390917 61.109454 
L 200.414209 72.293601 
L 200.425838 69.936732 
L 200.449061 84.227624 
L 200.472239 64.723182 
L 200.518458 67.686289 
L 200.529985 62.055382 
L 200.598911 81.195172 
L 200.621797 70.992197 
L 200.690192 59.321233 
L 200.656044 74.695536 
L 200.701553 69.779776 
L 200.746887 95.674528 
L 200.780774 63.854851 
L 200.814564 72.926937 
L 200.825806 72.748125 
L 200.848258 61.758036 
L 200.881857 82.224051 
L 200.926507 75.505654 
L 200.937643 87.988584 
L 200.970989 67.455187 
L 201.0374 75.941545 
L 201.048433 76.162495 
L 201.070467 62.152709 
L 201.103441 76.467198 
L 201.158194 65.524318 
L 201.256117 79.666706 
L 201.266947 74.099169 
L 201.277768 64.970972 
L 201.353236 82.176023 
L 201.385432 66.431235 
L 201.406848 87.427171 
L 201.470864 64.795519 
L 201.492126 78.833237 
L 201.513349 68.50239 
L 201.545114 82.127381 
L 201.597866 71.254907 
L 201.671325 96.628454 
L 201.629404 62.015143 
L 201.713099 82.220495 
L 201.796205 63.310879 
L 201.83754 64.70796 
L 201.899274 106.159431 
L 201.960687 69.527074 
L 201.981087 62.859898 
L 202.011622 75.894297 
L 202.031935 70.793411 
L 202.042078 100.165587 
L 202.11284 64.840834 
L 202.13298 66.751729 
L 202.203201 92.066764 
L 202.213198 72.173887 
L 202.223188 63.190466 
L 202.243141 79.1157 
L 202.322619 66.878324 
L 202.411398 66.466685 
L 202.450642 101.826697 
L 202.557899 63.472837 
L 202.567601 64.573972 
L 202.673807 81.6696 
L 202.731338 75.622561 
L 202.769538 66.058868 
L 202.750453 84.389585 
L 202.798106 73.209061 
L 202.807614 105.803461 
L 202.855038 62.341458 
L 202.902272 66.507433 
L 202.911697 66.204551 
L 202.968086 79.728655 
L 203.024207 77.67601 
L 203.033535 68.660113 
L 203.052168 86.851348 
L 203.12641 72.370062 
L 203.135657 80.932002 
L 203.227737 66.075923 
L 203.236906 73.259913 
L 203.255222 64.596474 
L 203.328205 85.503626 
L 203.436841 64.365864 
L 203.418804 87.671536 
L 203.445849 72.115994 
L 203.508715 86.411827 
L 203.490788 65.546364 
L 203.553416 77.855821 
L 203.571249 67.457938 
L 203.606835 94.132608 
L 203.642313 76.235624 
L 203.651167 101.077891 
L 203.739336 63.717481 
L 203.748117 68.599049 
L 203.800665 87.174563 
L 203.81813 65.98413 
L 203.861679 75.431988 
L 203.879054 65.058108 
L 203.939665 87.966398 
L 203.956926 80.388382 
L 203.974162 70.746595 
L 204.059965 94.270376 
L 204.13666 72.990563 
L 204.085585 95.398086 
L 204.170587 80.205468 
L 204.280185 66.834272 
L 204.288573 67.577183 
L 204.388776 115.293853 
L 204.397088 73.191993 
L 204.405395 68.890558 
L 204.471635 89.938506 
L 204.504617 107.189682 
L 204.521074 68.723802 
L 204.562115 69.773075 
L 204.570307 68.57445 
L 204.586672 77.325058 
L 204.603015 75.766783 
L 204.611178 99.247263 
L 204.627487 66.869357 
L 204.708697 75.670892 
L 204.716787 82.130534 
L 204.789353 67.274518 
L 204.813443 73.270556 
L 204.821462 67.398911 
L 204.869463 89.353565 
L 204.91727 72.766459 
L 204.988621 65.901153 
L 205.03595 104.36235 
L 205.137851 70.520141 
L 205.176811 72.599211 
L 205.184588 89.068728 
L 205.269796 65.984121 
L 205.285222 70.981841 
L 205.392649 123.553286 
L 205.407917 78.315617 
L 205.476377 102.893143 
L 205.491537 70.013986 
L 205.514241 77.138237 
L 205.529352 67.066861 
L 205.559517 90.1068 
L 205.627108 71.366642 
L 205.634595 67.303478 
L 205.649553 103.344015 
L 205.694316 83.147826 
L 205.70176 95.645449 
L 205.746326 70.703354 
L 205.798108 71.519926 
L 205.820231 98.188403 
L 205.834957 67.804379 
L 205.900998 71.663789 
L 205.966672 67.828772 
L 205.930231 86.847948 
L 205.988482 78.395519 
L 206.010253 99.127227 
L 206.068112 67.839697 
L 206.082533 76.319533 
L 206.089737 67.537676 
L 206.118508 101.558093 
L 206.182989 87.431301 
L 206.204405 68.077489 
L 206.289683 76.659933 
L 206.296762 93.029715 
L 206.332092 68.549681 
L 206.395423 70.514145 
L 206.40945 74.048695 
L 206.444447 69.450532 
L 206.528018 111.703641 
L 206.555744 67.590779 
L 206.645409 69.539591 
L 206.659143 67.861137 
L 206.69341 77.914299 
L 206.707089 70.441657 
L 206.788832 88.308537 
L 206.734399 69.499459 
L 206.815954 70.030635 
L 206.86327 101.719 
L 206.930537 74.738879 
L 206.970714 69.522542 
L 206.957337 93.760668 
L 206.990752 76.691799 
L 206.997423 94.801705 
L 207.09705 69.355792 
L 207.103662 68.900953 
L 207.11027 70.439751 
L 207.195844 107.500704 
L 207.156425 67.644672 
L 207.222051 74.324365 
L 207.248199 69.766931 
L 207.306823 84.679976 
L 207.332786 72.214472 
L 207.384539 105.785363 
L 207.358691 69.064886 
L 207.448915 79.281578 
L 207.455334 69.15207 
L 207.487373 94.073404 
L 207.557556 71.984949 
L 207.576625 102.713773 
L 207.652595 70.287158 
L 207.67781 76.989998 
L 207.684106 71.100269 
L 207.72808 104.819732 
L 207.784379 78.304028 
L 207.834199 112.93173 
L 207.815541 73.90346 
L 207.889997 79.796934 
L 207.920883 69.183091 
L 207.908538 101.347117 
L 207.982413 79.637428 
L 208.043625 108.992259 
L 208.00081 73.560779 
L 208.092367 78.867356 
L 208.098446 70.044889 
L 208.134853 91.290115 
L 208.207332 70.150273 
L 208.327154 88.801798 
L 208.237402 69.970144 
L 208.333113 81.019197 
L 208.350973 72.598867 
L 208.362865 87.276233 
L 208.368806 122.432429 
L 208.41623 70.822205 
L 208.469355 75.861852 
L 208.545674 86.489752 
L 208.533964 71.495976 
L 208.586565 80.704152 
L 208.592395 70.224213 
L 208.627316 93.103806 
L 208.69107 74.317126 
" style="fill:none;stroke:#000000;stroke-linecap:square;stroke-width:0.5;"/>
   </g>
   <g id="line2d_14">
    <path clip-path="url(#p49371e24cf)" d="M 63.08053 79.509705 
L 126.736721 37.451906 
L 134.910905 32.45058 
L 139.69935 29.936578 
L 143.098712 28.542347 
L 145.736262 27.803844 
L 147.891708 27.489862 
L 149.714352 27.462068 
L 151.293348 27.629899 
L 153.32564 28.118286 
L 155.0595 28.775493 
L 157.035357 29.77953 
L 159.115857 31.100737 
L 161.524236 32.915333 
L 164.28782 35.292601 
L 167.691171 38.526758 
L 172.364271 43.304108 
L 179.524358 50.983547 
L 194.84155 67.815548 
L 208.691124 83.111673 
L 208.691124 83.111673 
" style="fill:none;stroke:#ff0000;stroke-dasharray:7.4,3.2;stroke-dashoffset:0;stroke-width:2;"/>
   </g>
   <g id="patch_3">
    <path d="M 55.8 128.92249 
L 55.8 10.8 
" style="fill:none;stroke:#000000;stroke-linecap:square;stroke-linejoin:miter;stroke-width:0.8;"/>
   </g>
   <g id="patch_4">
    <path d="M 215.971654 128.92249 
L 215.971654 10.8 
" style="fill:none;stroke:#000000;stroke-linecap:square;stroke-linejoin:miter;stroke-width:0.8;"/>
   </g>
   <g id="patch_5">
    <path d="M 55.8 128.92249 
L 215.971654 128.92249 
" style="fill:none;stroke:#000000;stroke-linecap:square;stroke-linejoin:miter;stroke-width:0.8;"/>
   </g>
   <g id="patch_6">
    <path d="M 55.8 10.8 
L 215.971654 10.8 
" style="fill:none;stroke:#000000;stroke-linecap:square;stroke-linejoin:miter;stroke-width:0.8;"/>
   </g>
   <g id="legend_1">
    <g id="patch_7">
     <path d="M 62.8 123.92249 
L 144.19375 123.92249 
Q 146.19375 123.92249 146.19375 121.92249 
L 146.19375 93.56624 
Q 146.19375 91.56624 144.19375 91.56624 
L 62.8 91.56624 
Q 60.8 91.56624 60.8 93.56624 
L 60.8 121.92249 
Q 60.8 123.92249 62.8 123.92249 
z
" style="fill:#ffffff;opacity:0.8;stroke:#cccccc;stroke-linejoin:miter;"/>
    </g>
    <g id="line2d_15">
     <path d="M 64.8 99.664678 
L 84.8 99.664678 
" style="fill:none;stroke:#000000;stroke-linecap:square;stroke-width:0.5;"/>
    </g>
    <g id="line2d_16"/>
    <g id="text_9">
     <!-- simulated -->
     <defs>
      <path d="M 44.28125 53.078125 
L 44.28125 44.578125 
Q 40.484375 46.53125 36.375 47.5 
Q 32.28125 48.484375 27.875 48.484375 
Q 21.1875 48.484375 17.84375 46.4375 
Q 14.5 44.390625 14.5 40.28125 
Q 14.5 37.15625 16.890625 35.375 
Q 19.28125 33.59375 26.515625 31.984375 
L 29.59375 31.296875 
Q 39.15625 29.25 43.1875 25.515625 
Q 47.21875 21.78125 47.21875 15.09375 
Q 47.21875 7.46875 41.1875 3.015625 
Q 35.15625 -1.421875 24.609375 -1.421875 
Q 20.21875 -1.421875 15.453125 -0.5625 
Q 10.6875 0.296875 5.421875 2 
L 5.421875 11.28125 
Q 10.40625 8.6875 15.234375 7.390625 
Q 20.0625 6.109375 24.8125 6.109375 
Q 31.15625 6.109375 34.5625 8.28125 
Q 37.984375 10.453125 37.984375 14.40625 
Q 37.984375 18.0625 35.515625 20.015625 
Q 33.0625 21.96875 24.703125 23.78125 
L 21.578125 24.515625 
Q 13.234375 26.265625 9.515625 29.90625 
Q 5.8125 33.546875 5.8125 39.890625 
Q 5.8125 47.609375 11.28125 51.796875 
Q 16.75 56 26.8125 56 
Q 31.78125 56 36.171875 55.265625 
Q 40.578125 54.546875 44.28125 53.078125 
z
" id="DejaVuSans-115"/>
      <path d="M 9.421875 54.6875 
L 18.40625 54.6875 
L 18.40625 0 
L 9.421875 0 
z
M 9.421875 75.984375 
L 18.40625 75.984375 
L 18.40625 64.59375 
L 9.421875 64.59375 
z
" id="DejaVuSans-105"/>
      <path d="M 52 44.1875 
Q 55.375 50.25 60.0625 53.125 
Q 64.75 56 71.09375 56 
Q 79.640625 56 84.28125 50.015625 
Q 88.921875 44.046875 88.921875 33.015625 
L 88.921875 0 
L 79.890625 0 
L 79.890625 32.71875 
Q 79.890625 40.578125 77.09375 44.375 
Q 74.3125 48.1875 68.609375 48.1875 
Q 61.625 48.1875 57.5625 43.546875 
Q 53.515625 38.921875 53.515625 30.90625 
L 53.515625 0 
L 44.484375 0 
L 44.484375 32.71875 
Q 44.484375 40.625 41.703125 44.40625 
Q 38.921875 48.1875 33.109375 48.1875 
Q 26.21875 48.1875 22.15625 43.53125 
Q 18.109375 38.875 18.109375 30.90625 
L 18.109375 0 
L 9.078125 0 
L 9.078125 54.6875 
L 18.109375 54.6875 
L 18.109375 46.1875 
Q 21.1875 51.21875 25.484375 53.609375 
Q 29.78125 56 35.6875 56 
Q 41.65625 56 45.828125 52.96875 
Q 50 49.953125 52 44.1875 
z
" id="DejaVuSans-109"/>
      <path d="M 8.5 21.578125 
L 8.5 54.6875 
L 17.484375 54.6875 
L 17.484375 21.921875 
Q 17.484375 14.15625 20.5 10.265625 
Q 23.53125 6.390625 29.59375 6.390625 
Q 36.859375 6.390625 41.078125 11.03125 
Q 45.3125 15.671875 45.3125 23.6875 
L 45.3125 54.6875 
L 54.296875 54.6875 
L 54.296875 0 
L 45.3125 0 
L 45.3125 8.40625 
Q 42.046875 3.421875 37.71875 1 
Q 33.40625 -1.421875 27.6875 -1.421875 
Q 18.265625 -1.421875 13.375 4.4375 
Q 8.5 10.296875 8.5 21.578125 
z
M 31.109375 56 
z
" id="DejaVuSans-117"/>
      <path d="M 9.421875 75.984375 
L 18.40625 75.984375 
L 18.40625 0 
L 9.421875 0 
z
" id="DejaVuSans-108"/>
      <path d="M 34.28125 27.484375 
Q 23.390625 27.484375 19.1875 25 
Q 14.984375 22.515625 14.984375 16.5 
Q 14.984375 11.71875 18.140625 8.90625 
Q 21.296875 6.109375 26.703125 6.109375 
Q 34.1875 6.109375 38.703125 11.40625 
Q 43.21875 16.703125 43.21875 25.484375 
L 43.21875 27.484375 
z
M 52.203125 31.203125 
L 52.203125 0 
L 43.21875 0 
L 43.21875 8.296875 
Q 40.140625 3.328125 35.546875 0.953125 
Q 30.953125 -1.421875 24.3125 -1.421875 
Q 15.921875 -1.421875 10.953125 3.296875 
Q 6 8.015625 6 15.921875 
Q 6 25.140625 12.171875 29.828125 
Q 18.359375 34.515625 30.609375 34.515625 
L 43.21875 34.515625 
L 43.21875 35.40625 
Q 43.21875 41.609375 39.140625 45 
Q 35.0625 48.390625 27.6875 48.390625 
Q 23 48.390625 18.546875 47.265625 
Q 14.109375 46.140625 10.015625 43.890625 
L 10.015625 52.203125 
Q 14.9375 54.109375 19.578125 55.046875 
Q 24.21875 56 28.609375 56 
Q 40.484375 56 46.34375 49.84375 
Q 52.203125 43.703125 52.203125 31.203125 
z
" id="DejaVuSans-97"/>
      <path d="M 18.3125 70.21875 
L 18.3125 54.6875 
L 36.8125 54.6875 
L 36.8125 47.703125 
L 18.3125 47.703125 
L 18.3125 18.015625 
Q 18.3125 11.328125 20.140625 9.421875 
Q 21.96875 7.515625 27.59375 7.515625 
L 36.8125 7.515625 
L 36.8125 0 
L 27.59375 0 
Q 17.1875 0 13.234375 3.875 
Q 9.28125 7.765625 9.28125 18.015625 
L 9.28125 47.703125 
L 2.6875 47.703125 
L 2.6875 54.6875 
L 9.28125 54.6875 
L 9.28125 70.21875 
z
" id="DejaVuSans-116"/>
      <path d="M 56.203125 29.59375 
L 56.203125 25.203125 
L 14.890625 25.203125 
Q 15.484375 15.921875 20.484375 11.0625 
Q 25.484375 6.203125 34.421875 6.203125 
Q 39.59375 6.203125 44.453125 7.46875 
Q 49.3125 8.734375 54.109375 11.28125 
L 54.109375 2.78125 
Q 49.265625 0.734375 44.1875 -0.34375 
Q 39.109375 -1.421875 33.890625 -1.421875 
Q 20.796875 -1.421875 13.15625 6.1875 
Q 5.515625 13.8125 5.515625 26.8125 
Q 5.515625 40.234375 12.765625 48.109375 
Q 20.015625 56 32.328125 56 
Q 43.359375 56 49.78125 48.890625 
Q 56.203125 41.796875 56.203125 29.59375 
z
M 47.21875 32.234375 
Q 47.125 39.59375 43.09375 43.984375 
Q 39.0625 48.390625 32.421875 48.390625 
Q 24.90625 48.390625 20.390625 44.140625 
Q 15.875 39.890625 15.1875 32.171875 
z
" id="DejaVuSans-101"/>
      <path d="M 45.40625 46.390625 
L 45.40625 75.984375 
L 54.390625 75.984375 
L 54.390625 0 
L 45.40625 0 
L 45.40625 8.203125 
Q 42.578125 3.328125 38.25 0.953125 
Q 33.9375 -1.421875 27.875 -1.421875 
Q 17.96875 -1.421875 11.734375 6.484375 
Q 5.515625 14.40625 5.515625 27.296875 
Q 5.515625 40.1875 11.734375 48.09375 
Q 17.96875 56 27.875 56 
Q 33.9375 56 38.25 53.625 
Q 42.578125 51.265625 45.40625 46.390625 
z
M 14.796875 27.296875 
Q 14.796875 17.390625 18.875 11.75 
Q 22.953125 6.109375 30.078125 6.109375 
Q 37.203125 6.109375 41.296875 11.75 
Q 45.40625 17.390625 45.40625 27.296875 
Q 45.40625 37.203125 41.296875 42.84375 
Q 37.203125 48.484375 30.078125 48.484375 
Q 22.953125 48.484375 18.875 42.84375 
Q 14.796875 37.203125 14.796875 27.296875 
z
" id="DejaVuSans-100"/>
     </defs>
     <g transform="translate(92.8 103.164678)scale(0.1 -0.1)">
      <use xlink:href="#DejaVuSans-115"/>
      <use x="52.099609" xlink:href="#DejaVuSans-105"/>
      <use x="79.882812" xlink:href="#DejaVuSans-109"/>
      <use x="177.294922" xlink:href="#DejaVuSans-117"/>
      <use x="240.673828" xlink:href="#DejaVuSans-108"/>
      <use x="268.457031" xlink:href="#DejaVuSans-97"/>
      <use x="329.736328" xlink:href="#DejaVuSans-116"/>
      <use x="368.945312" xlink:href="#DejaVuSans-101"/>
      <use x="430.46875" xlink:href="#DejaVuSans-100"/>
     </g>
    </g>
    <g id="line2d_17">
     <path d="M 64.8 114.342803 
L 84.8 114.342803 
" style="fill:none;stroke:#ff0000;stroke-dasharray:7.4,3.2;stroke-dashoffset:0;stroke-width:2;"/>
    </g>
    <g id="line2d_18"/>
    <g id="text_10">
     <!-- target -->
     <defs>
      <path d="M 41.109375 46.296875 
Q 39.59375 47.171875 37.8125 47.578125 
Q 36.03125 48 33.890625 48 
Q 26.265625 48 22.1875 43.046875 
Q 18.109375 38.09375 18.109375 28.8125 
L 18.109375 0 
L 9.078125 0 
L 9.078125 54.6875 
L 18.109375 54.6875 
L 18.109375 46.1875 
Q 20.953125 51.171875 25.484375 53.578125 
Q 30.03125 56 36.53125 56 
Q 37.453125 56 38.578125 55.875 
Q 39.703125 55.765625 41.0625 55.515625 
z
" id="DejaVuSans-114"/>
      <path d="M 45.40625 27.984375 
Q 45.40625 37.75 41.375 43.109375 
Q 37.359375 48.484375 30.078125 48.484375 
Q 22.859375 48.484375 18.828125 43.109375 
Q 14.796875 37.75 14.796875 27.984375 
Q 14.796875 18.265625 18.828125 12.890625 
Q 22.859375 7.515625 30.078125 7.515625 
Q 37.359375 7.515625 41.375 12.890625 
Q 45.40625 18.265625 45.40625 27.984375 
z
M 54.390625 6.78125 
Q 54.390625 -7.171875 48.1875 -13.984375 
Q 42 -20.796875 29.203125 -20.796875 
Q 24.46875 -20.796875 20.265625 -20.09375 
Q 16.0625 -19.390625 12.109375 -17.921875 
L 12.109375 -9.1875 
Q 16.0625 -11.328125 19.921875 -12.34375 
Q 23.78125 -13.375 27.78125 -13.375 
Q 36.625 -13.375 41.015625 -8.765625 
Q 45.40625 -4.15625 45.40625 5.171875 
L 45.40625 9.625 
Q 42.625 4.78125 38.28125 2.390625 
Q 33.9375 0 27.875 0 
Q 17.828125 0 11.671875 7.65625 
Q 5.515625 15.328125 5.515625 27.984375 
Q 5.515625 40.671875 11.671875 48.328125 
Q 17.828125 56 27.875 56 
Q 33.9375 56 38.28125 53.609375 
Q 42.625 51.21875 45.40625 46.390625 
L 45.40625 54.6875 
L 54.390625 54.6875 
z
" id="DejaVuSans-103"/>
     </defs>
     <g transform="translate(92.8 117.842803)scale(0.1 -0.1)">
      <use xlink:href="#DejaVuSans-116"/>
      <use x="39.208984" xlink:href="#DejaVuSans-97"/>
      <use x="100.488281" xlink:href="#DejaVuSans-114"/>
      <use x="141.585938" xlink:href="#DejaVuSans-103"/>
      <use x="205.0625" xlink:href="#DejaVuSans-101"/>
      <use x="266.585938" xlink:href="#DejaVuSans-116"/>
     </g>
    </g>
   </g>
  </g>
 </g>
 <defs>
  <clipPath id="p49371e24cf">
   <rect height="118.12249" width="160.171654" x="55.8" y="10.8"/>
  </clipPath>
 </defs>
</svg>
