<?xml version="1.0" encoding="utf-8" standalone="no"?>
<!DOCTYPE svg PUBLIC "-//W3C//DTD SVG 1.1//EN"
  "http://www.w3.org/Graphics/SVG/1.1/DTD/svg11.dtd">
<!-- Created with matplotlib (https://matplotlib.org/) -->
<svg height="170.07874pt" version="1.1" viewBox="0 0 226.771654 170.07874" width="226.771654pt" xmlns="http://www.w3.org/2000/svg" xmlns:xlink="http://www.w3.org/1999/xlink">
 <defs>
  <style type="text/css">
*{stroke-linecap:butt;stroke-linejoin:round;}
  </style>
 </defs>
 <g id="figure_1">
  <g id="patch_1">
   <path d="M 0 170.07874 
L 226.771654 170.07874 
L 226.771654 0 
L 0 0 
z
" style="fill:#ffffff;"/>
  </g>
  <g id="axes_1">
   <g id="patch_2">
    <path d="M 55.8 128.92249 
L 215.971654 128.92249 
L 215.971654 10.8 
L 55.8 10.8 
z
" style="fill:#ffffff;"/>
   </g>
   <g id="matplotlib.axis_1">
    <g id="xtick_1">
     <g id="line2d_1">
      <path clip-path="url(#p673eb374a2)" d="M 99.763562 128.92249 
L 99.763562 10.8 
" style="fill:none;stroke:#b0b0b0;stroke-linecap:square;stroke-width:0.8;"/>
     </g>
     <g id="line2d_2">
      <defs>
       <path d="M 0 0 
L 0 3.5 
" id="mc973a65fcb" style="stroke:#000000;stroke-width:0.8;"/>
      </defs>
      <g>
       <use style="stroke:#000000;stroke-width:0.8;" x="99.763562" xlink:href="#mc973a65fcb" y="128.92249"/>
      </g>
     </g>
     <g id="text_1">
      <!-- $\mathdefault{10^{-2}}$ -->
      <defs>
       <path d="M 12.40625 8.296875 
L 28.515625 8.296875 
L 28.515625 63.921875 
L 10.984375 60.40625 
L 10.984375 69.390625 
L 28.421875 72.90625 
L 38.28125 72.90625 
L 38.28125 8.296875 
L 54.390625 8.296875 
L 54.390625 0 
L 12.40625 0 
z
" id="DejaVuSans-49"/>
       <path d="M 31.78125 66.40625 
Q 24.171875 66.40625 20.328125 58.90625 
Q 16.5 51.421875 16.5 36.375 
Q 16.5 21.390625 20.328125 13.890625 
Q 24.171875 6.390625 31.78125 6.390625 
Q 39.453125 6.390625 43.28125 13.890625 
Q 47.125 21.390625 47.125 36.375 
Q 47.125 51.421875 43.28125 58.90625 
Q 39.453125 66.40625 31.78125 66.40625 
z
M 31.78125 74.21875 
Q 44.046875 74.21875 50.515625 64.515625 
Q 56.984375 54.828125 56.984375 36.375 
Q 56.984375 17.96875 50.515625 8.265625 
Q 44.046875 -1.421875 31.78125 -1.421875 
Q 19.53125 -1.421875 13.0625 8.265625 
Q 6.59375 17.96875 6.59375 36.375 
Q 6.59375 54.828125 13.0625 64.515625 
Q 19.53125 74.21875 31.78125 74.21875 
z
" id="DejaVuSans-48"/>
       <path d="M 10.59375 35.5 
L 73.1875 35.5 
L 73.1875 27.203125 
L 10.59375 27.203125 
z
" id="DejaVuSans-8722"/>
       <path d="M 19.1875 8.296875 
L 53.609375 8.296875 
L 53.609375 0 
L 7.328125 0 
L 7.328125 8.296875 
Q 12.9375 14.109375 22.625 23.890625 
Q 32.328125 33.6875 34.8125 36.53125 
Q 39.546875 41.84375 41.421875 45.53125 
Q 43.3125 49.21875 43.3125 52.78125 
Q 43.3125 58.59375 39.234375 62.25 
Q 35.15625 65.921875 28.609375 65.921875 
Q 23.96875 65.921875 18.8125 64.3125 
Q 13.671875 62.703125 7.8125 59.421875 
L 7.8125 69.390625 
Q 13.765625 71.78125 18.9375 73 
Q 24.125 74.21875 28.421875 74.21875 
Q 39.75 74.21875 46.484375 68.546875 
Q 53.21875 62.890625 53.21875 53.421875 
Q 53.21875 48.921875 51.53125 44.890625 
Q 49.859375 40.875 45.40625 35.40625 
Q 44.1875 33.984375 37.640625 27.21875 
Q 31.109375 20.453125 19.1875 8.296875 
z
" id="DejaVuSans-50"/>
      </defs>
      <g transform="translate(88.013562 143.520928)scale(0.1 -0.1)">
       <use transform="translate(0 0.765625)" xlink:href="#DejaVuSans-49"/>
       <use transform="translate(63.623047 0.765625)" xlink:href="#DejaVuSans-48"/>
       <use transform="translate(128.203125 39.046875)scale(0.7)" xlink:href="#DejaVuSans-8722"/>
       <use transform="translate(186.855469 39.046875)scale(0.7)" xlink:href="#DejaVuSans-50"/>
      </g>
     </g>
    </g>
    <g id="xtick_2">
     <g id="line2d_3">
      <path clip-path="url(#p673eb374a2)" d="M 143.73701 128.92249 
L 143.73701 10.8 
" style="fill:none;stroke:#b0b0b0;stroke-linecap:square;stroke-width:0.8;"/>
     </g>
     <g id="line2d_4">
      <g>
       <use style="stroke:#000000;stroke-width:0.8;" x="143.73701" xlink:href="#mc973a65fcb" y="128.92249"/>
      </g>
     </g>
     <g id="text_2">
      <!-- $\mathdefault{10^{-1}}$ -->
      <g transform="translate(131.98701 143.520928)scale(0.1 -0.1)">
       <use transform="translate(0 0.684375)" xlink:href="#DejaVuSans-49"/>
       <use transform="translate(63.623047 0.684375)" xlink:href="#DejaVuSans-48"/>
       <use transform="translate(128.203125 38.965625)scale(0.7)" xlink:href="#DejaVuSans-8722"/>
       <use transform="translate(186.855469 38.965625)scale(0.7)" xlink:href="#DejaVuSans-49"/>
      </g>
     </g>
    </g>
    <g id="xtick_3">
     <g id="line2d_5">
      <path clip-path="url(#p673eb374a2)" d="M 187.710457 128.92249 
L 187.710457 10.8 
" style="fill:none;stroke:#b0b0b0;stroke-linecap:square;stroke-width:0.8;"/>
     </g>
     <g id="line2d_6">
      <g>
       <use style="stroke:#000000;stroke-width:0.8;" x="187.710457" xlink:href="#mc973a65fcb" y="128.92249"/>
      </g>
     </g>
     <g id="text_3">
      <!-- $\mathdefault{10^{0}}$ -->
      <g transform="translate(178.910457 143.520928)scale(0.1 -0.1)">
       <use transform="translate(0 0.765625)" xlink:href="#DejaVuSans-49"/>
       <use transform="translate(63.623047 0.765625)" xlink:href="#DejaVuSans-48"/>
       <use transform="translate(128.203125 39.046875)scale(0.7)" xlink:href="#DejaVuSans-48"/>
      </g>
     </g>
    </g>
    <g id="xtick_4">
     <g id="line2d_7">
      <defs>
       <path d="M 0 0 
L 0 2 
" id="m737aac9992" style="stroke:#000000;stroke-width:0.6;"/>
      </defs>
      <g>
       <use style="stroke:#000000;stroke-width:0.6;" x="69.027441" xlink:href="#m737aac9992" y="128.92249"/>
      </g>
     </g>
    </g>
    <g id="xtick_5">
     <g id="line2d_8">
      <g>
       <use style="stroke:#000000;stroke-width:0.6;" x="76.770781" xlink:href="#m737aac9992" y="128.92249"/>
      </g>
     </g>
    </g>
    <g id="xtick_6">
     <g id="line2d_9">
      <g>
       <use style="stroke:#000000;stroke-width:0.6;" x="82.264768" xlink:href="#m737aac9992" y="128.92249"/>
      </g>
     </g>
    </g>
    <g id="xtick_7">
     <g id="line2d_10">
      <g>
       <use style="stroke:#000000;stroke-width:0.6;" x="86.526235" xlink:href="#m737aac9992" y="128.92249"/>
      </g>
     </g>
    </g>
    <g id="xtick_8">
     <g id="line2d_11">
      <g>
       <use style="stroke:#000000;stroke-width:0.6;" x="90.008108" xlink:href="#m737aac9992" y="128.92249"/>
      </g>
     </g>
    </g>
    <g id="xtick_9">
     <g id="line2d_12">
      <g>
       <use style="stroke:#000000;stroke-width:0.6;" x="92.951989" xlink:href="#m737aac9992" y="128.92249"/>
      </g>
     </g>
    </g>
    <g id="xtick_10">
     <g id="line2d_13">
      <g>
       <use style="stroke:#000000;stroke-width:0.6;" x="95.502095" xlink:href="#m737aac9992" y="128.92249"/>
      </g>
     </g>
    </g>
    <g id="xtick_11">
     <g id="line2d_14">
      <g>
       <use style="stroke:#000000;stroke-width:0.6;" x="97.751448" xlink:href="#m737aac9992" y="128.92249"/>
      </g>
     </g>
    </g>
    <g id="xtick_12">
     <g id="line2d_15">
      <g>
       <use style="stroke:#000000;stroke-width:0.6;" x="113.000889" xlink:href="#m737aac9992" y="128.92249"/>
      </g>
     </g>
    </g>
    <g id="xtick_13">
     <g id="line2d_16">
      <g>
       <use style="stroke:#000000;stroke-width:0.6;" x="120.744229" xlink:href="#m737aac9992" y="128.92249"/>
      </g>
     </g>
    </g>
    <g id="xtick_14">
     <g id="line2d_17">
      <g>
       <use style="stroke:#000000;stroke-width:0.6;" x="126.238216" xlink:href="#m737aac9992" y="128.92249"/>
      </g>
     </g>
    </g>
    <g id="xtick_15">
     <g id="line2d_18">
      <g>
       <use style="stroke:#000000;stroke-width:0.6;" x="130.499683" xlink:href="#m737aac9992" y="128.92249"/>
      </g>
     </g>
    </g>
    <g id="xtick_16">
     <g id="line2d_19">
      <g>
       <use style="stroke:#000000;stroke-width:0.6;" x="133.981555" xlink:href="#m737aac9992" y="128.92249"/>
      </g>
     </g>
    </g>
    <g id="xtick_17">
     <g id="line2d_20">
      <g>
       <use style="stroke:#000000;stroke-width:0.6;" x="136.925437" xlink:href="#m737aac9992" y="128.92249"/>
      </g>
     </g>
    </g>
    <g id="xtick_18">
     <g id="line2d_21">
      <g>
       <use style="stroke:#000000;stroke-width:0.6;" x="139.475542" xlink:href="#m737aac9992" y="128.92249"/>
      </g>
     </g>
    </g>
    <g id="xtick_19">
     <g id="line2d_22">
      <g>
       <use style="stroke:#000000;stroke-width:0.6;" x="141.724895" xlink:href="#m737aac9992" y="128.92249"/>
      </g>
     </g>
    </g>
    <g id="xtick_20">
     <g id="line2d_23">
      <g>
       <use style="stroke:#000000;stroke-width:0.6;" x="156.974336" xlink:href="#m737aac9992" y="128.92249"/>
      </g>
     </g>
    </g>
    <g id="xtick_21">
     <g id="line2d_24">
      <g>
       <use style="stroke:#000000;stroke-width:0.6;" x="164.717676" xlink:href="#m737aac9992" y="128.92249"/>
      </g>
     </g>
    </g>
    <g id="xtick_22">
     <g id="line2d_25">
      <g>
       <use style="stroke:#000000;stroke-width:0.6;" x="170.211663" xlink:href="#m737aac9992" y="128.92249"/>
      </g>
     </g>
    </g>
    <g id="xtick_23">
     <g id="line2d_26">
      <g>
       <use style="stroke:#000000;stroke-width:0.6;" x="174.473131" xlink:href="#m737aac9992" y="128.92249"/>
      </g>
     </g>
    </g>
    <g id="xtick_24">
     <g id="line2d_27">
      <g>
       <use style="stroke:#000000;stroke-width:0.6;" x="177.955003" xlink:href="#m737aac9992" y="128.92249"/>
      </g>
     </g>
    </g>
    <g id="xtick_25">
     <g id="line2d_28">
      <g>
       <use style="stroke:#000000;stroke-width:0.6;" x="180.898884" xlink:href="#m737aac9992" y="128.92249"/>
      </g>
     </g>
    </g>
    <g id="xtick_26">
     <g id="line2d_29">
      <g>
       <use style="stroke:#000000;stroke-width:0.6;" x="183.44899" xlink:href="#m737aac9992" y="128.92249"/>
      </g>
     </g>
    </g>
    <g id="xtick_27">
     <g id="line2d_30">
      <g>
       <use style="stroke:#000000;stroke-width:0.6;" x="185.698343" xlink:href="#m737aac9992" y="128.92249"/>
      </g>
     </g>
    </g>
    <g id="xtick_28">
     <g id="line2d_31">
      <g>
       <use style="stroke:#000000;stroke-width:0.6;" x="200.947784" xlink:href="#m737aac9992" y="128.92249"/>
      </g>
     </g>
    </g>
    <g id="xtick_29">
     <g id="line2d_32">
      <g>
       <use style="stroke:#000000;stroke-width:0.6;" x="208.691124" xlink:href="#m737aac9992" y="128.92249"/>
      </g>
     </g>
    </g>
    <g id="xtick_30">
     <g id="line2d_33">
      <g>
       <use style="stroke:#000000;stroke-width:0.6;" x="214.185111" xlink:href="#m737aac9992" y="128.92249"/>
      </g>
     </g>
    </g>
    <g id="text_4">
     <!-- f (Hz) -->
     <defs>
      <path d="M 37.109375 75.984375 
L 37.109375 68.5 
L 28.515625 68.5 
Q 23.6875 68.5 21.796875 66.546875 
Q 19.921875 64.59375 19.921875 59.515625 
L 19.921875 54.6875 
L 34.71875 54.6875 
L 34.71875 47.703125 
L 19.921875 47.703125 
L 19.921875 0 
L 10.890625 0 
L 10.890625 47.703125 
L 2.296875 47.703125 
L 2.296875 54.6875 
L 10.890625 54.6875 
L 10.890625 58.5 
Q 10.890625 67.625 15.140625 71.796875 
Q 19.390625 75.984375 28.609375 75.984375 
z
" id="DejaVuSans-102"/>
      <path id="DejaVuSans-32"/>
      <path d="M 31 75.875 
Q 24.46875 64.65625 21.28125 53.65625 
Q 18.109375 42.671875 18.109375 31.390625 
Q 18.109375 20.125 21.3125 9.0625 
Q 24.515625 -2 31 -13.1875 
L 23.1875 -13.1875 
Q 15.875 -1.703125 12.234375 9.375 
Q 8.59375 20.453125 8.59375 31.390625 
Q 8.59375 42.28125 12.203125 53.3125 
Q 15.828125 64.359375 23.1875 75.875 
z
" id="DejaVuSans-40"/>
      <path d="M 9.8125 72.90625 
L 19.671875 72.90625 
L 19.671875 43.015625 
L 55.515625 43.015625 
L 55.515625 72.90625 
L 65.375 72.90625 
L 65.375 0 
L 55.515625 0 
L 55.515625 34.71875 
L 19.671875 34.71875 
L 19.671875 0 
L 9.8125 0 
z
" id="DejaVuSans-72"/>
      <path d="M 5.515625 54.6875 
L 48.1875 54.6875 
L 48.1875 46.484375 
L 14.40625 7.171875 
L 48.1875 7.171875 
L 48.1875 0 
L 4.296875 0 
L 4.296875 8.203125 
L 38.09375 47.515625 
L 5.515625 47.515625 
z
" id="DejaVuSans-122"/>
      <path d="M 8.015625 75.875 
L 15.828125 75.875 
Q 23.140625 64.359375 26.78125 53.3125 
Q 30.421875 42.28125 30.421875 31.390625 
Q 30.421875 20.453125 26.78125 9.375 
Q 23.140625 -1.703125 15.828125 -13.1875 
L 8.015625 -13.1875 
Q 14.5 -2 17.703125 9.0625 
Q 20.90625 20.125 20.90625 31.390625 
Q 20.90625 42.671875 17.703125 53.65625 
Q 14.5 64.65625 8.015625 75.875 
z
" id="DejaVuSans-41"/>
     </defs>
     <g transform="translate(122.250671 157.199053)scale(0.1 -0.1)">
      <use xlink:href="#DejaVuSans-102"/>
      <use x="35.205078" xlink:href="#DejaVuSans-32"/>
      <use x="66.992188" xlink:href="#DejaVuSans-40"/>
      <use x="106.005859" xlink:href="#DejaVuSans-72"/>
      <use x="181.201172" xlink:href="#DejaVuSans-122"/>
      <use x="233.691406" xlink:href="#DejaVuSans-41"/>
     </g>
    </g>
   </g>
   <g id="matplotlib.axis_2">
    <g id="ytick_1">
     <g id="line2d_34">
      <path clip-path="url(#p673eb374a2)" d="M 55.8 97.783314 
L 215.971654 97.783314 
" style="fill:none;stroke:#b0b0b0;stroke-linecap:square;stroke-width:0.8;"/>
     </g>
     <g id="line2d_35">
      <defs>
       <path d="M 0 0 
L -3.5 0 
" id="ma87fb0df12" style="stroke:#000000;stroke-width:0.8;"/>
      </defs>
      <g>
       <use style="stroke:#000000;stroke-width:0.8;" x="55.8" xlink:href="#ma87fb0df12" y="97.783314"/>
      </g>
     </g>
     <g id="text_5">
      <!-- $\mathdefault{10^{-2}}$ -->
      <g transform="translate(25.3 101.582533)scale(0.1 -0.1)">
       <use transform="translate(0 0.765625)" xlink:href="#DejaVuSans-49"/>
       <use transform="translate(63.623047 0.765625)" xlink:href="#DejaVuSans-48"/>
       <use transform="translate(128.203125 39.046875)scale(0.7)" xlink:href="#DejaVuSans-8722"/>
       <use transform="translate(186.855469 39.046875)scale(0.7)" xlink:href="#DejaVuSans-50"/>
      </g>
     </g>
    </g>
    <g id="ytick_2">
     <g id="line2d_36">
      <path clip-path="url(#p673eb374a2)" d="M 55.8 62.519536 
L 215.971654 62.519536 
" style="fill:none;stroke:#b0b0b0;stroke-linecap:square;stroke-width:0.8;"/>
     </g>
     <g id="line2d_37">
      <g>
       <use style="stroke:#000000;stroke-width:0.8;" x="55.8" xlink:href="#ma87fb0df12" y="62.519536"/>
      </g>
     </g>
     <g id="text_6">
      <!-- $\mathdefault{10^{0}}$ -->
      <g transform="translate(31.2 66.318755)scale(0.1 -0.1)">
       <use transform="translate(0 0.765625)" xlink:href="#DejaVuSans-49"/>
       <use transform="translate(63.623047 0.765625)" xlink:href="#DejaVuSans-48"/>
       <use transform="translate(128.203125 39.046875)scale(0.7)" xlink:href="#DejaVuSans-48"/>
      </g>
     </g>
    </g>
    <g id="ytick_3">
     <g id="line2d_38">
      <path clip-path="url(#p673eb374a2)" d="M 55.8 27.255758 
L 215.971654 27.255758 
" style="fill:none;stroke:#b0b0b0;stroke-linecap:square;stroke-width:0.8;"/>
     </g>
     <g id="line2d_39">
      <g>
       <use style="stroke:#000000;stroke-width:0.8;" x="55.8" xlink:href="#ma87fb0df12" y="27.255758"/>
      </g>
     </g>
     <g id="text_7">
      <!-- $\mathdefault{10^{2}}$ -->
      <g transform="translate(31.2 31.054977)scale(0.1 -0.1)">
       <use transform="translate(0 0.765625)" xlink:href="#DejaVuSans-49"/>
       <use transform="translate(63.623047 0.765625)" xlink:href="#DejaVuSans-48"/>
       <use transform="translate(128.203125 39.046875)scale(0.7)" xlink:href="#DejaVuSans-50"/>
      </g>
     </g>
    </g>
    <g id="text_8">
     <!-- $S(f) (m^2/s)$ -->
     <defs>
      <path d="M 60.296875 70.515625 
L 58.40625 60.890625 
Q 53.46875 63.53125 48.609375 64.875 
Q 43.75 66.21875 39.203125 66.21875 
Q 30.375 66.21875 25.140625 62.359375 
Q 19.921875 58.5 19.921875 52.09375 
Q 19.921875 48.578125 21.84375 46.703125 
Q 23.78125 44.828125 31.78125 42.671875 
L 37.703125 41.21875 
Q 47.703125 38.625 51.609375 34.640625 
Q 55.515625 30.671875 55.515625 23.484375 
Q 55.515625 12.453125 46.84375 5.515625 
Q 38.1875 -1.421875 24.03125 -1.421875 
Q 18.21875 -1.421875 12.359375 -0.265625 
Q 6.5 0.875 0.59375 3.21875 
L 2.59375 13.375 
Q 8.015625 10.015625 13.453125 8.296875 
Q 18.890625 6.59375 24.3125 6.59375 
Q 33.546875 6.59375 39.109375 10.6875 
Q 44.671875 14.796875 44.671875 21.390625 
Q 44.671875 25.78125 42.453125 28.046875 
Q 40.234375 30.328125 32.90625 32.171875 
L 27 33.6875 
Q 16.890625 36.328125 13.203125 39.765625 
Q 9.515625 43.21875 9.515625 49.421875 
Q 9.515625 60.296875 17.890625 67.25 
Q 26.265625 74.21875 39.703125 74.21875 
Q 44.921875 74.21875 50.046875 73.28125 
Q 55.171875 72.359375 60.296875 70.515625 
z
" id="DejaVuSans-Oblique-83"/>
      <path d="M 47.796875 75.984375 
L 46.390625 68.5 
L 37.796875 68.5 
Q 32.90625 68.5 30.6875 66.578125 
Q 28.46875 64.65625 27.390625 59.515625 
L 26.421875 54.6875 
L 41.21875 54.6875 
L 39.890625 47.703125 
L 25.09375 47.703125 
L 15.828125 0 
L 6.78125 0 
L 16.109375 47.703125 
L 7.515625 47.703125 
L 8.796875 54.6875 
L 17.390625 54.6875 
L 18.109375 58.5 
Q 19.96875 68.171875 24.625 72.078125 
Q 29.296875 75.984375 39.3125 75.984375 
z
" id="DejaVuSans-Oblique-102"/>
      <path d="M 89.796875 33.015625 
L 83.40625 0 
L 74.421875 0 
L 80.71875 32.71875 
Q 81.109375 34.8125 81.296875 36.328125 
Q 81.5 37.84375 81.5 38.921875 
Q 81.5 43.3125 79.046875 45.75 
Q 76.609375 48.1875 72.21875 48.1875 
Q 65.671875 48.1875 60.546875 43.28125 
Q 55.421875 38.375 53.90625 30.515625 
L 47.90625 0 
L 38.921875 0 
L 45.3125 32.71875 
Q 45.703125 34.515625 45.890625 36.046875 
Q 46.09375 37.59375 46.09375 38.8125 
Q 46.09375 43.265625 43.65625 45.71875 
Q 41.21875 48.1875 36.921875 48.1875 
Q 30.28125 48.1875 25.140625 43.28125 
Q 20.015625 38.375 18.5 30.515625 
L 12.5 0 
L 3.515625 0 
L 14.203125 54.6875 
L 23.1875 54.6875 
L 21.484375 46.1875 
Q 25.140625 50.984375 30.046875 53.484375 
Q 34.96875 56 40.578125 56 
Q 46.53125 56 50.359375 52.875 
Q 54.203125 49.75 54.984375 44.1875 
Q 59.078125 49.953125 64.46875 52.96875 
Q 69.875 56 75.875 56 
Q 82.90625 56 86.734375 51.953125 
Q 90.578125 47.90625 90.578125 40.484375 
Q 90.578125 38.875 90.375 36.9375 
Q 90.1875 35.015625 89.796875 33.015625 
z
" id="DejaVuSans-Oblique-109"/>
      <path d="M 25.390625 72.90625 
L 33.6875 72.90625 
L 8.296875 -9.28125 
L 0 -9.28125 
z
" id="DejaVuSans-47"/>
      <path d="M 50 53.078125 
L 48.296875 44.578125 
Q 44.734375 46.53125 40.765625 47.5 
Q 36.8125 48.484375 32.625 48.484375 
Q 25.53125 48.484375 21.453125 46.0625 
Q 17.390625 43.65625 17.390625 39.5 
Q 17.390625 34.671875 26.859375 32.078125 
Q 27.59375 31.890625 27.9375 31.78125 
L 30.8125 30.90625 
Q 39.796875 28.421875 42.796875 25.6875 
Q 45.796875 22.953125 45.796875 18.21875 
Q 45.796875 9.515625 38.890625 4.046875 
Q 31.984375 -1.421875 20.796875 -1.421875 
Q 16.453125 -1.421875 11.671875 -0.578125 
Q 6.890625 0.25 1.125 2 
L 2.875 11.28125 
Q 7.8125 8.734375 12.59375 7.421875 
Q 17.390625 6.109375 21.78125 6.109375 
Q 28.375 6.109375 32.5 8.9375 
Q 36.625 11.765625 36.625 16.109375 
Q 36.625 20.796875 25.78125 23.6875 
L 24.859375 23.921875 
L 21.78125 24.703125 
Q 14.9375 26.515625 11.765625 29.46875 
Q 8.59375 32.421875 8.59375 37.015625 
Q 8.59375 45.75 15.15625 50.875 
Q 21.734375 56 33.015625 56 
Q 37.453125 56 41.671875 55.265625 
Q 45.90625 54.546875 50 53.078125 
z
" id="DejaVuSans-Oblique-115"/>
     </defs>
     <g transform="translate(19.220312 94.361245)rotate(-90)scale(0.1 -0.1)">
      <use transform="translate(0 0.765625)" xlink:href="#DejaVuSans-Oblique-83"/>
      <use transform="translate(63.476562 0.765625)" xlink:href="#DejaVuSans-40"/>
      <use transform="translate(102.490234 0.765625)" xlink:href="#DejaVuSans-Oblique-102"/>
      <use transform="translate(137.695312 0.765625)" xlink:href="#DejaVuSans-41"/>
      <use transform="translate(176.708984 0.765625)" xlink:href="#DejaVuSans-40"/>
      <use transform="translate(215.722656 0.765625)" xlink:href="#DejaVuSans-Oblique-109"/>
      <use transform="translate(317.784661 39.046875)scale(0.7)" xlink:href="#DejaVuSans-50"/>
      <use transform="translate(365.055169 0.765625)" xlink:href="#DejaVuSans-47"/>
      <use transform="translate(398.746576 0.765625)" xlink:href="#DejaVuSans-Oblique-115"/>
      <use transform="translate(450.846185 0.765625)" xlink:href="#DejaVuSans-41"/>
     </g>
    </g>
   </g>
   <g id="line2d_40">
    <path clip-path="url(#p673eb374a2)" d="M 63.08053 41.332108 
L 76.317856 59.140434 
L 84.061196 49.252764 
L 89.555183 28.518125 
L 93.816651 24.35776 
L 97.298523 20.716003 
L 100.242404 26.086146 
L 102.79251 25.990181 
L 105.041863 16.169204 
L 107.053977 17.73867 
L 108.874156 27.962 
L 110.53585 27.563175 
L 112.064459 25.045429 
L 113.479731 39.126219 
L 114.797317 46.305278 
L 116.029837 38.67396 
L 117.187611 37.565435 
L 118.279189 38.140293 
L 119.311734 51.180086 
L 120.291304 28.677983 
L 121.223071 26.022014 
L 122.111483 18.539627 
L 122.960397 21.102608 
L 123.773176 18.114921 
L 124.552771 16.936589 
L 125.301786 22.255729 
L 126.022529 24.097507 
L 126.717058 27.158829 
L 127.387211 46.083428 
L 128.034644 25.495072 
L 128.660845 20.403099 
L 129.267163 27.137113 
L 129.854823 28.363524 
L 130.424938 19.730632 
L 130.978525 30.458331 
L 131.516516 82.469778 
L 132.039766 33.593477 
L 132.549061 23.799876 
L 133.528631 30.508866 
L 134.000196 38.724221 
L 134.460397 27.130899 
L 134.909769 22.600181 
L 135.34881 32.575753 
L 135.777984 32.992906 
L 136.197724 31.555905 
L 136.608437 36.537826 
L 137.010503 44.724356 
L 137.404278 44.196793 
L 137.790098 33.500367 
L 138.168277 31.75784 
L 138.539113 30.961932 
L 138.902884 56.615845 
L 139.954384 24.700474 
L 140.624538 31.560266 
L 140.950998 44.389003 
L 141.271971 64.720923 
L 141.587638 36.07076 
L 141.898172 25.389306 
L 142.203737 35.13784 
L 142.50449 51.031944 
L 142.80058 32.839891 
L 143.09215 29.394277 
L 143.379334 30.655427 
L 143.662264 31.214691 
L 143.941064 35.939967 
L 144.215852 34.810692 
L 144.486742 26.839799 
L 144.753843 27.925965 
L 145.277093 41.020766 
L 145.533438 36.115787 
L 145.786388 35.741535 
L 146.036031 38.161299 
L 146.282453 37.733708 
L 146.525735 37.006951 
L 146.765958 49.847283 
L 147.003196 37.47336 
L 147.237523 31.516294 
L 147.46901 39.084805 
L 147.697724 42.849267 
L 147.923732 33.004752 
L 148.147096 32.15189 
L 148.367878 29.46098 
L 148.801929 32.070824 
L 149.01531 32.290906 
L 149.435051 30.226824 
L 149.641511 30.925513 
L 149.845764 39.58682 
L 150.047855 38.570385 
L 150.24783 31.414447 
L 150.641605 39.92091 
L 151.217451 31.424751 
L 151.591922 41.249424 
L 151.77644 37.406183 
L 151.959191 44.533087 
L 152.140211 75.762885 
L 152.319531 44.810886 
L 152.673197 34.972898 
L 152.847604 32.607495 
L 153.191711 41.430629 
L 153.361467 32.995802 
L 153.696518 32.914595 
L 154.188325 38.82668 
L 154.349485 49.919596 
L 154.509297 48.67348 
L 154.667783 37.325303 
L 154.824964 35.074207 
L 154.980863 42.503306 
L 155.288892 41.052726 
L 155.441064 37.601403 
L 155.592032 39.079643 
L 155.741817 35.329669 
L 155.890436 35.817691 
L 156.184248 45.706238 
L 156.329476 41.245674 
L 156.616661 49.91823 
L 156.75865 78.233235 
L 156.899591 64.011778 
L 157.0395 66.324309 
L 157.453178 35.13514 
L 157.589104 44.72928 
L 157.724068 45.605456 
L 157.858086 43.899383 
L 157.99117 72.996354 
L 158.123332 43.862522 
L 158.254587 40.796535 
L 158.384945 52.847829 
L 158.51442 41.502443 
L 158.643022 49.233172 
L 158.897658 39.625509 
L 159.023714 38.980107 
L 159.148944 36.210368 
L 159.273357 39.06347 
L 159.519779 54.912894 
L 159.763062 47.282017 
L 159.883551 39.898106 
L 160.003284 42.803977 
L 160.122272 41.750053 
L 160.358045 65.116598 
L 160.590944 50.387483 
L 160.706336 47.686663 
L 160.935051 38.71728 
L 161.048389 39.159584 
L 161.161058 38.569385 
L 161.495133 53.453658 
L 161.605205 41.719412 
L 161.714646 46.714018 
L 162.039256 42.587638 
L 162.146244 50.013279 
L 162.252637 46.501817 
L 162.35844 47.988551 
L 162.46366 51.955751 
L 162.568304 43.414982 
L 162.672378 44.083327 
L 162.981238 67.974423 
L 163.083091 45.564141 
L 163.184404 47.374283 
L 163.385431 59.743941 
L 163.781247 49.194108 
L 163.97612 56.626269 
L 164.072816 44.324932 
L 164.264752 47.115106 
L 164.360001 41.376097 
L 164.549086 59.011083 
L 164.642931 58.159312 
L 164.829249 46.16823 
L 165.013766 52.458936 
L 165.105361 51.832637 
L 165.196518 60.026594 
L 165.377538 40.69577 
L 165.556858 50.678205 
L 165.64589 44.474189 
L 165.734509 49.704115 
L 165.822719 62.324083 
L 165.997926 47.408888 
L 166.084931 47.432493 
L 166.17154 46.193812 
L 166.257759 41.269974 
L 166.343591 41.438873 
L 166.514104 51.63742 
L 166.683109 44.37233 
L 166.767054 52.377606 
L 166.850632 46.121978 
L 167.016697 53.581929 
L 167.099192 43.463382 
L 167.181331 46.946536 
L 167.425651 64.938869 
L 167.586812 47.664572 
L 167.666885 48.628069 
L 167.746624 50.935207 
L 167.90511 42.73893 
L 167.983862 43.421148 
L 168.062291 44.793869 
L 168.295664 53.874217 
L 168.372825 53.703485 
L 168.449676 49.593845 
L 168.526219 51.528701 
L 168.602456 49.787504 
L 168.678391 63.858172 
L 168.754024 63.354232 
L 168.829359 63.469932 
L 168.904398 48.908784 
L 168.979144 52.885726 
L 169.053598 55.058601 
L 169.127762 46.028166 
L 169.421575 83.403591 
L 169.566803 52.623583 
L 169.639005 51.341304 
L 169.710935 45.233625 
L 169.782595 45.491266 
L 169.925114 43.530994 
L 170.066577 51.799797 
L 170.136918 44.085436 
L 170.207 46.246893 
L 170.276826 47.527358 
L 170.415717 67.949146 
L 170.484786 66.665402 
L 170.690505 44.06672 
L 170.758589 48.601055 
L 170.82643 47.636801 
L 170.894032 46.721955 
L 170.961395 49.019375 
L 171.028522 62.389146 
L 171.095413 50.350932 
L 171.16207 54.304627 
L 171.228496 69.863058 
L 171.294692 52.470756 
L 171.360659 54.543312 
L 171.426399 52.849146 
L 171.491913 46.318839 
L 171.557204 48.081892 
L 171.622272 47.411394 
L 171.751746 62.539347 
L 171.816156 55.00655 
L 171.944327 86.361118 
L 172.008091 75.035694 
L 172.134985 48.958943 
L 172.198117 48.539183 
L 172.261041 50.755615 
L 172.386271 82.684847 
L 172.510684 47.971182 
L 172.572588 49.674686 
L 172.634293 48.624479 
L 172.695798 54.575454 
L 172.757106 77.143972 
L 172.879135 46.0711 
L 172.939858 50.592938 
L 173.000389 67.814009 
L 173.060728 58.670434 
L 173.120878 53.245687 
L 173.180838 53.629415 
L 173.240611 53.243688 
L 173.300197 75.139595 
L 173.359598 57.619916 
L 173.595372 63.102941 
L 173.712176 53.992843 
L 173.770312 58.475417 
L 173.886054 48.656779 
L 173.943663 48.92328 
L 174.001099 55.077849 
L 174.058363 76.918953 
L 174.115455 56.794444 
L 174.172378 54.270036 
L 174.229131 66.568424 
L 174.285716 51.128218 
L 174.342134 55.309548 
L 174.398385 59.89692 
L 174.510394 49.158884 
L 174.566153 51.269511 
L 174.621749 51.139704 
L 174.677185 49.922203 
L 174.732459 50.673478 
L 174.787575 52.267699 
L 174.842531 51.476152 
L 175.006459 48.297887 
L 175.114967 83.859388 
L 175.168991 72.73042 
L 175.222863 53.401064 
L 175.276582 55.461449 
L 175.330152 55.07008 
L 175.383571 49.705809 
L 175.436842 50.576781 
L 175.542939 52.074232 
L 175.595767 58.930458 
L 175.64845 55.935534 
L 175.700987 47.444309 
L 175.753381 49.842023 
L 175.805631 50.634938 
L 175.857738 48.894785 
L 175.909704 51.826871 
L 175.961529 64.205782 
L 176.013214 59.135559 
L 176.064759 48.140435 
L 176.116165 54.632979 
L 176.269559 59.869829 
L 176.320417 53.51798 
L 176.371141 54.011228 
L 176.42173 54.897803 
L 176.472186 63.219501 
L 176.572699 48.124189 
L 176.622758 48.456305 
L 176.672686 51.116199 
L 176.772152 67.225033 
L 176.871102 49.437546 
L 176.920386 51.658177 
L 176.969543 55.779783 
L 177.018573 49.715719 
L 177.067479 53.902329 
L 177.116259 56.146898 
L 177.164915 53.14292 
L 177.213447 62.53716 
L 177.261856 57.500369 
L 177.358308 60.974869 
L 177.406352 54.232277 
L 177.454275 65.387652 
L 177.502078 52.650388 
L 177.549762 54.078675 
L 177.644775 75.473382 
L 177.692104 59.3287 
L 177.739317 57.547071 
L 177.786413 80.005235 
L 177.833393 57.270341 
L 177.880258 50.001102 
L 177.927008 59.064891 
L 177.973644 59.672532 
L 178.020166 49.633595 
L 178.066575 53.953779 
L 178.159057 84.14812 
L 178.251093 79.101477 
L 178.388321 49.950131 
L 178.433845 61.080005 
L 178.479261 60.36899 
L 178.524569 52.210883 
L 178.614865 55.557038 
L 178.659853 56.047873 
L 178.749512 60.225275 
L 178.794184 51.853588 
L 178.838752 59.024304 
L 178.883217 59.439324 
L 178.971836 49.667369 
L 179.015992 55.570524 
L 179.060046 77.424623 
L 179.103999 65.727674 
L 179.235253 51.565344 
L 179.408867 82.575597 
L 179.580917 56.171992 
L 179.666365 89.916716 
L 179.751431 51.798069 
L 179.793823 53.727795 
L 179.878325 74.088086 
L 179.920436 57.468318 
L 180.004381 51.185943 
L 180.046215 51.74395 
L 180.212643 76.825084 
L 180.295316 51.021153 
L 180.336518 59.486112 
L 180.377632 61.89668 
L 180.418658 58.146441 
L 180.459596 57.914669 
L 180.500446 50.71627 
L 180.581885 54.267813 
L 180.622474 52.140371 
L 180.662978 54.821611 
L 180.783976 72.592319 
L 180.944123 51.213609 
L 181.023696 60.208779 
L 181.063358 59.147975 
L 181.142437 53.080267 
L 181.181853 54.822544 
L 181.221189 55.330923 
L 181.299618 60.192153 
L 181.455516 52.96867 
L 181.648616 78.311949 
L 181.725313 57.649574 
L 181.763546 65.694963 
L 181.801702 78.942549 
L 181.839783 68.620035 
L 181.915717 52.26304 
L 181.953571 62.151218 
L 182.029055 68.031271 
L 182.066686 67.700222 
L 182.141725 55.111741 
L 182.179134 56.999127 
L 182.21647 61.056252 
L 182.253734 103.55133 
L 182.290924 74.15762 
L 182.365089 58.781272 
L 182.438967 60.459577 
L 182.475799 56.652388 
L 182.51256 58.153938 
L 182.549251 61.531236 
L 182.585871 59.197718 
L 182.622421 54.570811 
L 182.658902 56.222572 
L 182.80413 63.205394 
L 182.876332 53.660795 
L 182.912331 58.366509 
L 182.948262 54.842837 
L 183.019922 92.114005 
L 183.055652 60.622185 
L 183.091315 60.414995 
L 183.126911 75.271728 
L 183.197905 67.909502 
L 183.233304 62.711474 
L 183.268636 64.638544 
L 183.303904 95.976805 
L 183.339107 63.863037 
L 183.374245 64.106689 
L 183.409318 63.456872 
L 183.514153 63.617531 
L 183.583725 54.796785 
L 183.653044 65.025759 
L 183.68761 77.70318 
L 183.722113 60.538732 
L 183.756553 61.721571 
L 183.790932 74.544407 
L 183.859505 64.273476 
L 183.927832 55.72244 
L 183.961904 59.395971 
L 183.995915 79.460221 
L 184.029866 64.093277 
L 184.097588 53.402561 
L 184.131359 53.674083 
L 184.299323 81.284187 
L 184.399397 53.965255 
L 184.432639 59.862109 
L 184.465823 67.719038 
L 184.49895 56.609032 
L 184.532019 53.077249 
L 184.565031 56.834551 
L 184.597986 56.488696 
L 184.663726 60.324388 
L 184.72924 54.206761 
L 184.761913 58.604825 
L 184.827092 105.741213 
L 184.892049 75.38418 
L 184.956787 62.015659 
L 184.989073 70.877594 
L 185.021305 71.3037 
L 185.085606 55.521221 
L 185.117676 64.596754 
L 185.149691 71.19514 
L 185.181654 64.354148 
L 185.245418 73.001606 
L 185.340667 54.106061 
L 185.435444 75.122867 
L 185.466932 66.356263 
L 185.498368 61.497031 
L 185.529752 69.195845 
L 185.561085 71.017602 
L 185.623597 59.688999 
L 185.654777 71.9626 
L 185.685905 67.938928 
L 185.840792 55.032334 
L 185.748011 71.580645 
L 185.871619 56.768252 
L 186.025013 86.646924 
L 186.055545 85.712343 
L 186.116461 62.501152 
L 186.177185 68.265385 
L 186.237715 76.900953 
L 186.267909 72.039194 
L 186.298055 67.875221 
L 186.328153 74.331115 
L 186.358204 74.915588 
L 186.418165 60.982732 
L 186.448075 81.069356 
L 186.507754 93.402148 
L 186.626557 58.909165 
L 186.685682 71.05757 
L 186.715176 68.074205 
L 186.744625 60.156749 
L 186.803386 64.0839 
L 186.861967 69.264475 
L 186.949503 55.668839 
L 187.007638 55.873296 
L 187.03664 54.70664 
L 187.065597 55.125657 
L 187.123381 69.420363 
L 187.152207 79.968961 
L 187.209729 69.656892 
L 187.267079 56.573331 
L 187.295689 64.075978 
L 187.381264 77.352722 
L 187.438102 58.122455 
L 187.494771 70.317281 
L 187.523042 69.418852 
L 187.57946 57.060764 
L 187.607607 68.732997 
L 187.635712 86.24802 
L 187.691798 62.081831 
L 187.747721 55.947309 
L 187.77562 63.702578 
L 187.80348 75.896491 
L 187.886814 64.313268 
L 187.942169 61.649914 
L 187.969786 62.754515 
L 188.0524 76.358531 
L 188.079858 75.431106 
L 188.161998 56.914022 
L 188.189299 62.522851 
L 188.27097 80.274518 
L 188.298117 69.684585 
L 188.352294 64.86984 
L 188.379325 74.091611 
L 188.433273 60.834089 
L 188.460189 59.085992 
L 188.487068 62.057163 
L 188.513909 60.557361 
L 188.540713 61.350316 
L 188.594207 74.623269 
L 188.647552 69.390584 
L 188.674168 61.113785 
L 188.727291 73.895991 
L 188.753796 79.991144 
L 188.780265 71.429519 
L 188.833094 55.760112 
L 188.912063 60.677492 
L 188.990707 69.872099 
L 189.042958 85.871608 
L 189.069029 66.964331 
L 189.095065 70.695657 
L 189.147031 59.284468 
L 189.198856 66.136452 
L 189.25054 90.903725 
L 189.302085 79.415285 
L 189.353492 56.484565 
L 189.430343 64.328093 
L 189.557744 57.102287 
L 189.633779 56.959691 
L 189.709513 74.234531 
L 189.759835 57.16527 
L 189.784947 67.686182 
L 189.835071 65.61253 
L 189.885065 105.03472 
L 189.934927 57.314628 
L 190.009478 65.99662 
L 190.034264 67.452472 
L 190.059018 107.602978 
L 190.108429 60.241227 
L 190.133087 65.951623 
L 190.157713 81.679404 
L 190.231401 72.236966 
L 190.280368 60.469386 
L 190.329211 70.295721 
L 190.353585 72.347274 
L 190.377929 84.890724 
L 190.426523 61.02245 
L 190.54747 58.07488 
L 190.595635 84.284189 
L 190.691602 74.459699 
L 190.739405 57.961191 
L 190.787089 75.081693 
L 190.810887 67.706972 
L 190.905781 57.668288 
L 190.858393 68.028031 
L 190.929431 65.396081 
L 190.953052 66.722972 
L 191.023739 59.820653 
L 191.047244 60.732004 
L 191.094166 81.8927 
L 191.140974 65.405375 
L 191.164334 61.816271 
L 191.187667 76.570924 
L 191.234246 57.656913 
L 191.257493 58.354713 
L 191.373305 69.924922 
L 191.396384 68.116497 
L 191.442457 57.639161 
L 191.48842 68.546457 
L 191.51136 71.760828 
L 191.534272 63.678331 
L 191.557157 59.005576 
L 191.580014 65.989505 
L 191.648423 59.719876 
L 191.693893 75.676063 
L 191.761896 59.044726 
L 191.829657 71.395047 
L 191.852191 77.956365 
L 191.897179 64.242018 
L 191.919634 65.855546 
L 192.031511 60.333429 
L 192.053808 60.385777 
L 192.187047 75.453568 
L 192.253319 81.096646 
L 192.319362 58.953347 
L 192.47258 94.266796 
L 192.494368 68.579522 
L 192.53787 78.202087 
L 192.581273 60.534037 
L 192.624578 77.710152 
L 192.667785 58.607791 
L 192.710895 69.089784 
L 192.732413 60.975021 
L 192.775377 68.325707 
L 192.839642 90.500858 
L 192.882365 66.17611 
L 192.946272 74.569329 
L 192.988758 59.09132 
L 193.03115 83.810002 
L 193.115652 73.884449 
L 193.136719 67.755911 
L 193.157763 84.708174 
L 193.220756 74.514415 
L 193.241708 77.360356 
L 193.283542 67.965922 
L 193.325285 78.914525 
L 193.346122 69.688687 
L 193.366937 59.19889 
L 193.408498 65.908491 
L 193.429245 85.363929 
L 193.470671 60.121953 
L 193.512008 68.847597 
L 193.532642 68.186284 
L 193.594413 60.68662 
L 193.614959 66.41622 
L 193.635483 72.91576 
L 193.696922 62.053821 
L 193.717358 60.552198 
L 193.737773 65.70474 
L 193.839517 74.326224 
L 193.798884 60.883052 
L 193.859801 68.974413 
L 193.940723 60.034324 
L 193.900305 73.237762 
L 193.9609 60.124665 
L 194.061465 81.038931 
L 194.081515 74.635423 
L 194.101544 72.596785 
L 194.141539 87.766471 
L 194.201374 73.198566 
L 194.24116 59.942488 
L 194.280864 66.567536 
L 194.300685 83.718028 
L 194.379763 64.842337 
L 194.399482 80.156292 
L 194.478153 59.756938 
L 194.517368 68.785385 
L 194.536945 63.414728 
L 194.556502 74.75618 
L 194.615053 67.788773 
L 194.63453 93.708692 
L 194.712241 60.410398 
L 194.750978 70.579791 
L 194.828218 69.259876 
L 194.847479 70.15648 
L 194.885943 66.896489 
L 194.92433 60.768361 
L 194.981766 68.54193 
L 195.000872 68.911601 
L 195.01996 60.440935 
L 195.096122 69.72462 
L 195.115115 61.142476 
L 195.228677 79.927246 
L 195.190898 61.106051 
L 195.247539 65.911401 
L 195.266382 60.670565 
L 195.304013 72.197112 
L 195.341569 70.171637 
L 195.379052 60.945169 
L 195.416461 74.49664 
L 195.435138 66.644852 
L 195.453797 75.673951 
L 195.49106 64.709401 
L 195.546819 71.937832 
L 195.56537 61.641905 
L 195.602416 83.208632 
L 195.657851 71.838759 
L 195.676294 87.820824 
L 195.731515 61.269586 
L 195.768241 71.723336 
L 195.804897 75.382202 
L 195.823198 64.113653 
L 195.859748 75.208877 
L 195.896228 61.28283 
L 195.932639 64.766706 
L 195.987125 65.876627 
L 196.005253 61.020787 
L 196.077592 88.307144 
L 196.113659 68.465431 
L 196.185589 60.929993 
L 196.203529 71.561644 
L 196.221452 98.381139 
L 196.275122 68.150797 
L 196.310818 71.504061 
L 196.364238 61.135156 
L 196.417508 66.46558 
L 196.452939 91.320592 
L 196.488305 63.420819 
L 196.541231 79.144079 
L 196.576433 62.202643 
L 196.664157 67.790123 
L 196.681654 68.247402 
L 196.699134 80.614258 
L 196.734047 64.502969 
L 196.803682 78.839053 
L 196.855743 62.456177 
L 196.924936 64.985138 
L 196.942196 61.593017 
L 196.959439 71.494162 
L 197.028259 84.160395 
L 197.045425 67.546959 
L 197.062576 67.997644 
L 197.079711 68.477442 
L 197.096831 64.506788 
L 197.113936 68.979668 
L 197.131026 92.846251 
L 197.165159 65.28891 
L 197.216244 68.246979 
L 197.301084 61.498002 
L 197.267193 73.438752 
L 197.318007 62.008095 
L 197.436049 69.832678 
L 197.469641 62.039283 
L 197.570066 65.028866 
L 197.603424 72.010587 
L 197.669966 63.522283 
L 197.686565 63.265295 
L 197.71972 72.077942 
L 197.769346 62.776567 
L 197.785859 64.45746 
L 197.802357 64.394803 
L 197.901052 74.48874 
L 197.917452 72.270831 
L 197.950209 68.360378 
L 197.99924 73.323831 
L 198.015556 99.917772 
L 198.064419 64.331211 
L 198.096925 75.149554 
L 198.113158 74.98577 
L 198.161772 66.482443 
L 198.2264 70.482786 
L 198.274727 74.179471 
L 198.290809 73.765641 
L 198.306878 112.968619 
L 198.403006 85.670671 
L 198.450889 65.147919 
L 198.498653 74.470806 
L 198.514547 110.148454 
L 198.562152 67.597373 
L 198.593823 70.702358 
L 198.657007 79.748019 
L 198.688521 65.776654 
L 198.814059 123.553286 
L 198.829694 89.099384 
L 198.938778 63.754552 
L 198.95431 73.955534 
L 198.96983 91.969756 
L 199.016315 63.69596 
L 199.047242 67.841908 
L 199.124341 84.10687 
L 199.185797 80.944132 
L 199.20113 105.064234 
L 199.23176 63.610517 
L 199.277612 79.069766 
L 199.323354 64.054767 
L 199.414511 64.249589 
L 199.444801 71.641974 
L 199.490145 86.435735 
L 199.505236 71.062753 
L 199.520315 62.926345 
L 199.550437 75.613784 
L 199.610539 67.09298 
L 199.640519 94.02589 
L 199.670452 62.990306 
L 199.715264 76.891644 
L 199.759972 86.673964 
L 199.834252 67.064596 
L 199.908244 64.556599 
L 199.937761 81.862684 
L 200.011355 66.949852 
L 200.055375 71.055717 
L 200.099294 65.057745 
L 200.128517 83.285427 
L 200.143112 96.588593 
L 200.172268 67.249311 
L 200.230448 75.425595 
L 200.244965 87.115197 
L 200.302924 64.210546 
L 200.331838 75.866167 
L 200.346278 65.275893 
L 200.375126 100.755258 
L 200.447056 68.795463 
L 200.475753 64.449312 
L 200.533016 67.214243 
L 200.575852 103.39165 
L 200.661235 75.099694 
L 200.717946 66.471209 
L 200.689612 84.071722 
L 200.732098 74.86185 
L 200.746239 104.638403 
L 200.774489 67.470356 
L 200.830865 67.778332 
L 200.873039 106.500989 
L 200.901103 66.891832 
L 200.943121 79.201358 
L 200.971082 65.604576 
L 200.999002 94.671535 
L 201.026882 82.553595 
L 201.054721 99.087573 
L 201.082519 65.61248 
L 201.096403 66.371923 
L 201.110277 66.042877 
L 201.207113 113.466064 
L 201.220907 97.916302 
L 201.303461 67.683369 
L 201.330899 75.845275 
L 201.344604 76.585934 
L 201.371984 76.262636 
L 201.467505 66.78946 
L 201.399324 96.739584 
L 201.481112 73.416927 
L 201.521875 96.344732 
L 201.562551 65.63692 
L 201.589621 74.824647 
L 201.603141 71.859567 
L 201.643645 80.491431 
L 201.71096 115.292336 
L 201.684062 65.405771 
L 201.751236 113.921965 
L 201.804805 64.811655 
L 201.871556 76.341181 
L 201.938075 88.049658 
L 201.911495 69.562825 
L 201.964617 72.423579 
L 202.004362 66.48471 
L 202.030813 82.405006 
L 202.044025 81.200142 
L 202.083605 87.650723 
L 202.109946 65.897919 
L 202.136251 77.658482 
L 202.175641 94.13623 
L 202.254177 65.712861 
L 202.280284 103.97701 
L 202.37138 72.493173 
L 202.397327 65.354213 
L 202.410288 72.89252 
L 202.42324 90.508313 
L 202.449117 66.401505 
L 202.526539 80.627751 
L 202.552277 67.022251 
L 202.603648 105.480079 
L 202.642087 67.715412 
L 202.705979 108.149235 
L 202.744212 71.702513 
L 202.82045 74.528531 
L 202.858454 65.685892 
L 202.883749 84.087557 
L 202.959432 74.480056 
L 202.972017 66.876463 
L 203.034817 86.686917 
L 203.072398 70.644644 
L 203.134869 96.833718 
L 203.2344 70.755836 
L 203.259202 71.488026 
L 203.321066 69.086155 
L 203.370413 81.74123 
L 203.456466 67.787043 
L 203.480981 77.36849 
L 203.493227 76.757791 
L 203.505465 78.680071 
L 203.517695 66.974204 
L 203.590912 97.223508 
L 203.6881 70.521511 
L 203.724419 88.95632 
L 203.736509 96.263368 
L 203.760668 74.605804 
L 203.808894 76.795523 
L 203.820931 75.854931 
L 203.892997 90.127029 
L 203.916959 70.869124 
L 203.928929 69.887077 
L 204.024416 86.966118 
L 204.036318 71.445739 
L 204.060101 66.053841 
L 204.107577 82.112253 
L 204.119428 106.715527 
L 204.143107 77.148225 
L 204.21397 94.029582 
L 204.331493 66.485244 
L 204.249303 97.992147 
L 204.343206 71.826223 
L 204.413331 66.402037 
L 204.459938 85.119158 
L 204.471573 86.39305 
L 204.4832 76.356026 
L 204.49482 76.376314 
L 204.506432 77.326692 
L 204.529637 70.385224 
L 204.541229 70.709161 
L 204.575962 90.875869 
L 204.645239 68.91522 
L 204.656761 74.402972 
L 204.691285 81.401655 
L 204.725747 80.218449 
L 204.73722 91.624469 
L 204.760146 70.293574 
L 204.82876 75.046496 
L 204.840171 75.425573 
L 204.919863 90.626356 
L 204.88575 72.062358 
L 204.953914 87.281082 
L 205.078254 66.983454 
L 205.089518 67.252722 
L 205.15696 90.785521 
L 205.212981 81.113807 
L 205.235343 68.328162 
L 205.291135 81.049804 
L 205.302274 123.535843 
L 205.335651 68.437751 
L 205.391151 75.380137 
L 205.402231 66.907002 
L 205.435435 91.803968 
L 205.501669 67.989755 
L 205.666255 90.683712 
L 205.600591 67.408348 
L 205.677177 80.119389 
L 205.786057 67.400477 
L 205.764331 85.426645 
L 205.796911 67.737273 
L 205.915898 106.071877 
L 205.829436 67.459133 
L 205.926679 78.927253 
L 205.937453 70.786108 
L 206.012703 87.177705 
L 206.034149 76.967217 
L 206.044863 77.082668 
L 206.098342 68.378361 
L 206.076968 81.990595 
L 206.141018 70.593152 
L 206.183599 87.615012 
L 206.247292 71.072978 
L 206.331888 92.668618 
L 206.300208 67.525452 
L 206.38457 87.014154 
L 206.405603 68.105241 
L 206.510419 69.908033 
L 206.520869 68.236417 
L 206.541752 76.839199 
L 206.562612 73.342852 
L 206.666572 87.407584 
L 206.635443 70.398669 
L 206.676937 78.340715 
L 206.728677 70.635811 
L 206.749334 72.271323 
L 206.769969 86.557609 
L 206.790582 71.4039 
L 206.86255 76.299335 
L 206.903554 96.869554 
L 206.934249 76.658671 
L 207.036211 68.684532 
L 206.995492 87.479156 
L 207.046377 70.077641 
L 207.056538 68.586667 
L 207.066694 72.177461 
L 207.086989 93.341168 
L 207.137632 69.426716 
L 207.167953 72.754447 
L 207.198226 68.884042 
L 207.208307 75.340938 
L 207.298792 95.730288 
L 207.238516 72.896671 
L 207.30882 86.004266 
L 207.358879 69.74111 
L 207.388851 101.892161 
L 207.418776 84.521001 
L 207.448655 97.789268 
L 207.547914 68.677861 
L 207.567704 85.584059 
L 207.666348 76.92423 
L 207.735097 68.781351 
L 207.71548 88.133439 
L 207.764485 81.771668 
L 207.793828 72.529167 
L 207.803599 85.486671 
L 207.832882 79.143457 
L 207.842633 106.60598 
L 207.939871 70.215686 
L 208.046264 81.450945 
L 207.997977 69.003626 
L 208.055906 74.39409 
L 208.065544 69.101582 
L 208.104047 107.553831 
L 208.161656 75.219664 
L 208.180821 72.193059 
L 208.190396 78.115788 
L 208.199966 87.589153 
L 208.276356 71.150657 
L 208.285883 72.426829 
L 208.295406 71.397239 
L 208.304924 79.901628 
L 208.361931 100.659711 
L 208.399841 73.769295 
L 208.409307 72.031384 
L 208.418768 77.511334 
L 208.428225 95.332434 
L 208.466004 71.813118 
L 208.522533 75.981777 
L 208.569514 104.436735 
L 208.597646 69.684529 
L 208.616378 74.5334 
L 208.625738 70.605382 
L 208.663129 77.268936 
L 208.681797 74.019093 
" style="fill:none;stroke:#000000;stroke-linecap:square;stroke-width:0.5;"/>
   </g>
   <g id="line2d_41">
    <path clip-path="url(#p673eb374a2)" d="M 63.08053 42.466719 
L 84.061196 34.329878 
L 93.816651 30.948303 
L 100.242404 29.118572 
L 105.041863 28.111812 
L 108.874156 27.617201 
L 112.064459 27.462459 
L 114.797317 27.538938 
L 118.279189 27.933958 
L 121.223071 28.53098 
L 124.552771 29.484549 
L 128.034644 30.768167 
L 131.516516 32.302249 
L 135.777984 34.452299 
L 140.624538 37.166872 
L 146.765958 40.877621 
L 155.441064 46.406222 
L 169.925114 55.940987 
L 208.691124 81.807147 
L 208.691124 81.807147 
" style="fill:none;stroke:#ff0000;stroke-dasharray:7.4,3.2;stroke-dashoffset:0;stroke-width:2;"/>
   </g>
   <g id="patch_3">
    <path d="M 55.8 128.92249 
L 55.8 10.8 
" style="fill:none;stroke:#000000;stroke-linecap:square;stroke-linejoin:miter;stroke-width:0.8;"/>
   </g>
   <g id="patch_4">
    <path d="M 215.971654 128.92249 
L 215.971654 10.8 
" style="fill:none;stroke:#000000;stroke-linecap:square;stroke-linejoin:miter;stroke-width:0.8;"/>
   </g>
   <g id="patch_5">
    <path d="M 55.8 128.92249 
L 215.971654 128.92249 
" style="fill:none;stroke:#000000;stroke-linecap:square;stroke-linejoin:miter;stroke-width:0.8;"/>
   </g>
   <g id="patch_6">
    <path d="M 55.8 10.8 
L 215.971654 10.8 
" style="fill:none;stroke:#000000;stroke-linecap:square;stroke-linejoin:miter;stroke-width:0.8;"/>
   </g>
   <g id="legend_1">
    <g id="patch_7">
     <path d="M 62.8 123.92249 
L 144.19375 123.92249 
Q 146.19375 123.92249 146.19375 121.92249 
L 146.19375 93.56624 
Q 146.19375 91.56624 144.19375 91.56624 
L 62.8 91.56624 
Q 60.8 91.56624 60.8 93.56624 
L 60.8 121.92249 
Q 60.8 123.92249 62.8 123.92249 
z
" style="fill:#ffffff;opacity:0.8;stroke:#cccccc;stroke-linejoin:miter;"/>
    </g>
    <g id="line2d_42">
     <path d="M 64.8 99.664678 
L 84.8 99.664678 
" style="fill:none;stroke:#000000;stroke-linecap:square;stroke-width:0.5;"/>
    </g>
    <g id="line2d_43"/>
    <g id="text_9">
     <!-- simulated -->
     <defs>
      <path d="M 44.28125 53.078125 
L 44.28125 44.578125 
Q 40.484375 46.53125 36.375 47.5 
Q 32.28125 48.484375 27.875 48.484375 
Q 21.1875 48.484375 17.84375 46.4375 
Q 14.5 44.390625 14.5 40.28125 
Q 14.5 37.15625 16.890625 35.375 
Q 19.28125 33.59375 26.515625 31.984375 
L 29.59375 31.296875 
Q 39.15625 29.25 43.1875 25.515625 
Q 47.21875 21.78125 47.21875 15.09375 
Q 47.21875 7.46875 41.1875 3.015625 
Q 35.15625 -1.421875 24.609375 -1.421875 
Q 20.21875 -1.421875 15.453125 -0.5625 
Q 10.6875 0.296875 5.421875 2 
L 5.421875 11.28125 
Q 10.40625 8.6875 15.234375 7.390625 
Q 20.0625 6.109375 24.8125 6.109375 
Q 31.15625 6.109375 34.5625 8.28125 
Q 37.984375 10.453125 37.984375 14.40625 
Q 37.984375 18.0625 35.515625 20.015625 
Q 33.0625 21.96875 24.703125 23.78125 
L 21.578125 24.515625 
Q 13.234375 26.265625 9.515625 29.90625 
Q 5.8125 33.546875 5.8125 39.890625 
Q 5.8125 47.609375 11.28125 51.796875 
Q 16.75 56 26.8125 56 
Q 31.78125 56 36.171875 55.265625 
Q 40.578125 54.546875 44.28125 53.078125 
z
" id="DejaVuSans-115"/>
      <path d="M 9.421875 54.6875 
L 18.40625 54.6875 
L 18.40625 0 
L 9.421875 0 
z
M 9.421875 75.984375 
L 18.40625 75.984375 
L 18.40625 64.59375 
L 9.421875 64.59375 
z
" id="DejaVuSans-105"/>
      <path d="M 52 44.1875 
Q 55.375 50.25 60.0625 53.125 
Q 64.75 56 71.09375 56 
Q 79.640625 56 84.28125 50.015625 
Q 88.921875 44.046875 88.921875 33.015625 
L 88.921875 0 
L 79.890625 0 
L 79.890625 32.71875 
Q 79.890625 40.578125 77.09375 44.375 
Q 74.3125 48.1875 68.609375 48.1875 
Q 61.625 48.1875 57.5625 43.546875 
Q 53.515625 38.921875 53.515625 30.90625 
L 53.515625 0 
L 44.484375 0 
L 44.484375 32.71875 
Q 44.484375 40.625 41.703125 44.40625 
Q 38.921875 48.1875 33.109375 48.1875 
Q 26.21875 48.1875 22.15625 43.53125 
Q 18.109375 38.875 18.109375 30.90625 
L 18.109375 0 
L 9.078125 0 
L 9.078125 54.6875 
L 18.109375 54.6875 
L 18.109375 46.1875 
Q 21.1875 51.21875 25.484375 53.609375 
Q 29.78125 56 35.6875 56 
Q 41.65625 56 45.828125 52.96875 
Q 50 49.953125 52 44.1875 
z
" id="DejaVuSans-109"/>
      <path d="M 8.5 21.578125 
L 8.5 54.6875 
L 17.484375 54.6875 
L 17.484375 21.921875 
Q 17.484375 14.15625 20.5 10.265625 
Q 23.53125 6.390625 29.59375 6.390625 
Q 36.859375 6.390625 41.078125 11.03125 
Q 45.3125 15.671875 45.3125 23.6875 
L 45.3125 54.6875 
L 54.296875 54.6875 
L 54.296875 0 
L 45.3125 0 
L 45.3125 8.40625 
Q 42.046875 3.421875 37.71875 1 
Q 33.40625 -1.421875 27.6875 -1.421875 
Q 18.265625 -1.421875 13.375 4.4375 
Q 8.5 10.296875 8.5 21.578125 
z
M 31.109375 56 
z
" id="DejaVuSans-117"/>
      <path d="M 9.421875 75.984375 
L 18.40625 75.984375 
L 18.40625 0 
L 9.421875 0 
z
" id="DejaVuSans-108"/>
      <path d="M 34.28125 27.484375 
Q 23.390625 27.484375 19.1875 25 
Q 14.984375 22.515625 14.984375 16.5 
Q 14.984375 11.71875 18.140625 8.90625 
Q 21.296875 6.109375 26.703125 6.109375 
Q 34.1875 6.109375 38.703125 11.40625 
Q 43.21875 16.703125 43.21875 25.484375 
L 43.21875 27.484375 
z
M 52.203125 31.203125 
L 52.203125 0 
L 43.21875 0 
L 43.21875 8.296875 
Q 40.140625 3.328125 35.546875 0.953125 
Q 30.953125 -1.421875 24.3125 -1.421875 
Q 15.921875 -1.421875 10.953125 3.296875 
Q 6 8.015625 6 15.921875 
Q 6 25.140625 12.171875 29.828125 
Q 18.359375 34.515625 30.609375 34.515625 
L 43.21875 34.515625 
L 43.21875 35.40625 
Q 43.21875 41.609375 39.140625 45 
Q 35.0625 48.390625 27.6875 48.390625 
Q 23 48.390625 18.546875 47.265625 
Q 14.109375 46.140625 10.015625 43.890625 
L 10.015625 52.203125 
Q 14.9375 54.109375 19.578125 55.046875 
Q 24.21875 56 28.609375 56 
Q 40.484375 56 46.34375 49.84375 
Q 52.203125 43.703125 52.203125 31.203125 
z
" id="DejaVuSans-97"/>
      <path d="M 18.3125 70.21875 
L 18.3125 54.6875 
L 36.8125 54.6875 
L 36.8125 47.703125 
L 18.3125 47.703125 
L 18.3125 18.015625 
Q 18.3125 11.328125 20.140625 9.421875 
Q 21.96875 7.515625 27.59375 7.515625 
L 36.8125 7.515625 
L 36.8125 0 
L 27.59375 0 
Q 17.1875 0 13.234375 3.875 
Q 9.28125 7.765625 9.28125 18.015625 
L 9.28125 47.703125 
L 2.6875 47.703125 
L 2.6875 54.6875 
L 9.28125 54.6875 
L 9.28125 70.21875 
z
" id="DejaVuSans-116"/>
      <path d="M 56.203125 29.59375 
L 56.203125 25.203125 
L 14.890625 25.203125 
Q 15.484375 15.921875 20.484375 11.0625 
Q 25.484375 6.203125 34.421875 6.203125 
Q 39.59375 6.203125 44.453125 7.46875 
Q 49.3125 8.734375 54.109375 11.28125 
L 54.109375 2.78125 
Q 49.265625 0.734375 44.1875 -0.34375 
Q 39.109375 -1.421875 33.890625 -1.421875 
Q 20.796875 -1.421875 13.15625 6.1875 
Q 5.515625 13.8125 5.515625 26.8125 
Q 5.515625 40.234375 12.765625 48.109375 
Q 20.015625 56 32.328125 56 
Q 43.359375 56 49.78125 48.890625 
Q 56.203125 41.796875 56.203125 29.59375 
z
M 47.21875 32.234375 
Q 47.125 39.59375 43.09375 43.984375 
Q 39.0625 48.390625 32.421875 48.390625 
Q 24.90625 48.390625 20.390625 44.140625 
Q 15.875 39.890625 15.1875 32.171875 
z
" id="DejaVuSans-101"/>
      <path d="M 45.40625 46.390625 
L 45.40625 75.984375 
L 54.390625 75.984375 
L 54.390625 0 
L 45.40625 0 
L 45.40625 8.203125 
Q 42.578125 3.328125 38.25 0.953125 
Q 33.9375 -1.421875 27.875 -1.421875 
Q 17.96875 -1.421875 11.734375 6.484375 
Q 5.515625 14.40625 5.515625 27.296875 
Q 5.515625 40.1875 11.734375 48.09375 
Q 17.96875 56 27.875 56 
Q 33.9375 56 38.25 53.625 
Q 42.578125 51.265625 45.40625 46.390625 
z
M 14.796875 27.296875 
Q 14.796875 17.390625 18.875 11.75 
Q 22.953125 6.109375 30.078125 6.109375 
Q 37.203125 6.109375 41.296875 11.75 
Q 45.40625 17.390625 45.40625 27.296875 
Q 45.40625 37.203125 41.296875 42.84375 
Q 37.203125 48.484375 30.078125 48.484375 
Q 22.953125 48.484375 18.875 42.84375 
Q 14.796875 37.203125 14.796875 27.296875 
z
" id="DejaVuSans-100"/>
     </defs>
     <g transform="translate(92.8 103.164678)scale(0.1 -0.1)">
      <use xlink:href="#DejaVuSans-115"/>
      <use x="52.099609" xlink:href="#DejaVuSans-105"/>
      <use x="79.882812" xlink:href="#DejaVuSans-109"/>
      <use x="177.294922" xlink:href="#DejaVuSans-117"/>
      <use x="240.673828" xlink:href="#DejaVuSans-108"/>
      <use x="268.457031" xlink:href="#DejaVuSans-97"/>
      <use x="329.736328" xlink:href="#DejaVuSans-116"/>
      <use x="368.945312" xlink:href="#DejaVuSans-101"/>
      <use x="430.46875" xlink:href="#DejaVuSans-100"/>
     </g>
    </g>
    <g id="line2d_44">
     <path d="M 64.8 114.342803 
L 84.8 114.342803 
" style="fill:none;stroke:#ff0000;stroke-dasharray:7.4,3.2;stroke-dashoffset:0;stroke-width:2;"/>
    </g>
    <g id="line2d_45"/>
    <g id="text_10">
     <!-- target -->
     <defs>
      <path d="M 41.109375 46.296875 
Q 39.59375 47.171875 37.8125 47.578125 
Q 36.03125 48 33.890625 48 
Q 26.265625 48 22.1875 43.046875 
Q 18.109375 38.09375 18.109375 28.8125 
L 18.109375 0 
L 9.078125 0 
L 9.078125 54.6875 
L 18.109375 54.6875 
L 18.109375 46.1875 
Q 20.953125 51.171875 25.484375 53.578125 
Q 30.03125 56 36.53125 56 
Q 37.453125 56 38.578125 55.875 
Q 39.703125 55.765625 41.0625 55.515625 
z
" id="DejaVuSans-114"/>
      <path d="M 45.40625 27.984375 
Q 45.40625 37.75 41.375 43.109375 
Q 37.359375 48.484375 30.078125 48.484375 
Q 22.859375 48.484375 18.828125 43.109375 
Q 14.796875 37.75 14.796875 27.984375 
Q 14.796875 18.265625 18.828125 12.890625 
Q 22.859375 7.515625 30.078125 7.515625 
Q 37.359375 7.515625 41.375 12.890625 
Q 45.40625 18.265625 45.40625 27.984375 
z
M 54.390625 6.78125 
Q 54.390625 -7.171875 48.1875 -13.984375 
Q 42 -20.796875 29.203125 -20.796875 
Q 24.46875 -20.796875 20.265625 -20.09375 
Q 16.0625 -19.390625 12.109375 -17.921875 
L 12.109375 -9.1875 
Q 16.0625 -11.328125 19.921875 -12.34375 
Q 23.78125 -13.375 27.78125 -13.375 
Q 36.625 -13.375 41.015625 -8.765625 
Q 45.40625 -4.15625 45.40625 5.171875 
L 45.40625 9.625 
Q 42.625 4.78125 38.28125 2.390625 
Q 33.9375 0 27.875 0 
Q 17.828125 0 11.671875 7.65625 
Q 5.515625 15.328125 5.515625 27.984375 
Q 5.515625 40.671875 11.671875 48.328125 
Q 17.828125 56 27.875 56 
Q 33.9375 56 38.28125 53.609375 
Q 42.625 51.21875 45.40625 46.390625 
L 45.40625 54.6875 
L 54.390625 54.6875 
z
" id="DejaVuSans-103"/>
     </defs>
     <g transform="translate(92.8 117.842803)scale(0.1 -0.1)">
      <use xlink:href="#DejaVuSans-116"/>
      <use x="39.208984" xlink:href="#DejaVuSans-97"/>
      <use x="100.488281" xlink:href="#DejaVuSans-114"/>
      <use x="141.585938" xlink:href="#DejaVuSans-103"/>
      <use x="205.0625" xlink:href="#DejaVuSans-101"/>
      <use x="266.585938" xlink:href="#DejaVuSans-116"/>
     </g>
    </g>
   </g>
  </g>
 </g>
 <defs>
  <clipPath id="p673eb374a2">
   <rect height="118.12249" width="160.171654" x="55.8" y="10.8"/>
  </clipPath>
 </defs>
</svg>
