<?xml version="1.0" encoding="utf-8" standalone="no"?>
<!DOCTYPE svg PUBLIC "-//W3C//DTD SVG 1.1//EN"
  "http://www.w3.org/Graphics/SVG/1.1/DTD/svg11.dtd">
<!-- Created with matplotlib (https://matplotlib.org/) -->
<svg height="170.07874pt" version="1.1" viewBox="0 0 226.771654 170.07874" width="226.771654pt" xmlns="http://www.w3.org/2000/svg" xmlns:xlink="http://www.w3.org/1999/xlink">
 <defs>
  <style type="text/css">
*{stroke-linecap:butt;stroke-linejoin:round;}
  </style>
 </defs>
 <g id="figure_1">
  <g id="patch_1">
   <path d="M 0 170.07874 
L 226.771654 170.07874 
L 226.771654 0 
L 0 0 
z
" style="fill:#ffffff;"/>
  </g>
  <g id="axes_1">
   <g id="patch_2">
    <path d="M 55.8 128.92249 
L 215.971654 128.92249 
L 215.971654 10.8 
L 55.8 10.8 
z
" style="fill:#ffffff;"/>
   </g>
   <g id="matplotlib.axis_1">
    <g id="xtick_1">
     <g id="line2d_1">
      <path clip-path="url(#p7860128c7a)" d="M 68.112532 128.92249 
L 68.112532 10.8 
" style="fill:none;stroke:#b0b0b0;stroke-linecap:square;stroke-width:0.8;"/>
     </g>
     <g id="line2d_2">
      <defs>
       <path d="M 0 0 
L 0 3.5 
" id="me5a9f9a5ec" style="stroke:#000000;stroke-width:0.8;"/>
      </defs>
      <g>
       <use style="stroke:#000000;stroke-width:0.8;" x="68.112532" xlink:href="#me5a9f9a5ec" y="128.92249"/>
      </g>
     </g>
     <g id="text_1">
      <!-- $\mathdefault{10^{-3}}$ -->
      <defs>
       <path d="M 12.40625 8.296875 
L 28.515625 8.296875 
L 28.515625 63.921875 
L 10.984375 60.40625 
L 10.984375 69.390625 
L 28.421875 72.90625 
L 38.28125 72.90625 
L 38.28125 8.296875 
L 54.390625 8.296875 
L 54.390625 0 
L 12.40625 0 
z
" id="DejaVuSans-49"/>
       <path d="M 31.78125 66.40625 
Q 24.171875 66.40625 20.328125 58.90625 
Q 16.5 51.421875 16.5 36.375 
Q 16.5 21.390625 20.328125 13.890625 
Q 24.171875 6.390625 31.78125 6.390625 
Q 39.453125 6.390625 43.28125 13.890625 
Q 47.125 21.390625 47.125 36.375 
Q 47.125 51.421875 43.28125 58.90625 
Q 39.453125 66.40625 31.78125 66.40625 
z
M 31.78125 74.21875 
Q 44.046875 74.21875 50.515625 64.515625 
Q 56.984375 54.828125 56.984375 36.375 
Q 56.984375 17.96875 50.515625 8.265625 
Q 44.046875 -1.421875 31.78125 -1.421875 
Q 19.53125 -1.421875 13.0625 8.265625 
Q 6.59375 17.96875 6.59375 36.375 
Q 6.59375 54.828125 13.0625 64.515625 
Q 19.53125 74.21875 31.78125 74.21875 
z
" id="DejaVuSans-48"/>
       <path d="M 10.59375 35.5 
L 73.1875 35.5 
L 73.1875 27.203125 
L 10.59375 27.203125 
z
" id="DejaVuSans-8722"/>
       <path d="M 40.578125 39.3125 
Q 47.65625 37.796875 51.625 33 
Q 55.609375 28.21875 55.609375 21.1875 
Q 55.609375 10.40625 48.1875 4.484375 
Q 40.765625 -1.421875 27.09375 -1.421875 
Q 22.515625 -1.421875 17.65625 -0.515625 
Q 12.796875 0.390625 7.625 2.203125 
L 7.625 11.71875 
Q 11.71875 9.328125 16.59375 8.109375 
Q 21.484375 6.890625 26.8125 6.890625 
Q 36.078125 6.890625 40.9375 10.546875 
Q 45.796875 14.203125 45.796875 21.1875 
Q 45.796875 27.640625 41.28125 31.265625 
Q 36.765625 34.90625 28.71875 34.90625 
L 20.21875 34.90625 
L 20.21875 43.015625 
L 29.109375 43.015625 
Q 36.375 43.015625 40.234375 45.921875 
Q 44.09375 48.828125 44.09375 54.296875 
Q 44.09375 59.90625 40.109375 62.90625 
Q 36.140625 65.921875 28.71875 65.921875 
Q 24.65625 65.921875 20.015625 65.03125 
Q 15.375 64.15625 9.8125 62.3125 
L 9.8125 71.09375 
Q 15.4375 72.65625 20.34375 73.4375 
Q 25.25 74.21875 29.59375 74.21875 
Q 40.828125 74.21875 47.359375 69.109375 
Q 53.90625 64.015625 53.90625 55.328125 
Q 53.90625 49.265625 50.4375 45.09375 
Q 46.96875 40.921875 40.578125 39.3125 
z
" id="DejaVuSans-51"/>
      </defs>
      <g transform="translate(56.362532 143.520928)scale(0.1 -0.1)">
       <use transform="translate(0 0.765625)" xlink:href="#DejaVuSans-49"/>
       <use transform="translate(63.623047 0.765625)" xlink:href="#DejaVuSans-48"/>
       <use transform="translate(128.203125 39.046875)scale(0.7)" xlink:href="#DejaVuSans-8722"/>
       <use transform="translate(186.855469 39.046875)scale(0.7)" xlink:href="#DejaVuSans-51"/>
      </g>
     </g>
    </g>
    <g id="xtick_2">
     <g id="line2d_3">
      <path clip-path="url(#p7860128c7a)" d="M 105.320834 128.92249 
L 105.320834 10.8 
" style="fill:none;stroke:#b0b0b0;stroke-linecap:square;stroke-width:0.8;"/>
     </g>
     <g id="line2d_4">
      <g>
       <use style="stroke:#000000;stroke-width:0.8;" x="105.320834" xlink:href="#me5a9f9a5ec" y="128.92249"/>
      </g>
     </g>
     <g id="text_2">
      <!-- $\mathdefault{10^{-2}}$ -->
      <defs>
       <path d="M 19.1875 8.296875 
L 53.609375 8.296875 
L 53.609375 0 
L 7.328125 0 
L 7.328125 8.296875 
Q 12.9375 14.109375 22.625 23.890625 
Q 32.328125 33.6875 34.8125 36.53125 
Q 39.546875 41.84375 41.421875 45.53125 
Q 43.3125 49.21875 43.3125 52.78125 
Q 43.3125 58.59375 39.234375 62.25 
Q 35.15625 65.921875 28.609375 65.921875 
Q 23.96875 65.921875 18.8125 64.3125 
Q 13.671875 62.703125 7.8125 59.421875 
L 7.8125 69.390625 
Q 13.765625 71.78125 18.9375 73 
Q 24.125 74.21875 28.421875 74.21875 
Q 39.75 74.21875 46.484375 68.546875 
Q 53.21875 62.890625 53.21875 53.421875 
Q 53.21875 48.921875 51.53125 44.890625 
Q 49.859375 40.875 45.40625 35.40625 
Q 44.1875 33.984375 37.640625 27.21875 
Q 31.109375 20.453125 19.1875 8.296875 
z
" id="DejaVuSans-50"/>
      </defs>
      <g transform="translate(93.570834 143.520928)scale(0.1 -0.1)">
       <use transform="translate(0 0.765625)" xlink:href="#DejaVuSans-49"/>
       <use transform="translate(63.623047 0.765625)" xlink:href="#DejaVuSans-48"/>
       <use transform="translate(128.203125 39.046875)scale(0.7)" xlink:href="#DejaVuSans-8722"/>
       <use transform="translate(186.855469 39.046875)scale(0.7)" xlink:href="#DejaVuSans-50"/>
      </g>
     </g>
    </g>
    <g id="xtick_3">
     <g id="line2d_5">
      <path clip-path="url(#p7860128c7a)" d="M 142.529135 128.92249 
L 142.529135 10.8 
" style="fill:none;stroke:#b0b0b0;stroke-linecap:square;stroke-width:0.8;"/>
     </g>
     <g id="line2d_6">
      <g>
       <use style="stroke:#000000;stroke-width:0.8;" x="142.529135" xlink:href="#me5a9f9a5ec" y="128.92249"/>
      </g>
     </g>
     <g id="text_3">
      <!-- $\mathdefault{10^{-1}}$ -->
      <g transform="translate(130.779135 143.520928)scale(0.1 -0.1)">
       <use transform="translate(0 0.684375)" xlink:href="#DejaVuSans-49"/>
       <use transform="translate(63.623047 0.684375)" xlink:href="#DejaVuSans-48"/>
       <use transform="translate(128.203125 38.965625)scale(0.7)" xlink:href="#DejaVuSans-8722"/>
       <use transform="translate(186.855469 38.965625)scale(0.7)" xlink:href="#DejaVuSans-49"/>
      </g>
     </g>
    </g>
    <g id="xtick_4">
     <g id="line2d_7">
      <path clip-path="url(#p7860128c7a)" d="M 179.737437 128.92249 
L 179.737437 10.8 
" style="fill:none;stroke:#b0b0b0;stroke-linecap:square;stroke-width:0.8;"/>
     </g>
     <g id="line2d_8">
      <g>
       <use style="stroke:#000000;stroke-width:0.8;" x="179.737437" xlink:href="#me5a9f9a5ec" y="128.92249"/>
      </g>
     </g>
     <g id="text_4">
      <!-- $\mathdefault{10^{0}}$ -->
      <g transform="translate(170.937437 143.520928)scale(0.1 -0.1)">
       <use transform="translate(0 0.765625)" xlink:href="#DejaVuSans-49"/>
       <use transform="translate(63.623047 0.765625)" xlink:href="#DejaVuSans-48"/>
       <use transform="translate(128.203125 39.046875)scale(0.7)" xlink:href="#DejaVuSans-48"/>
      </g>
     </g>
    </g>
    <g id="xtick_5">
     <g id="line2d_9">
      <defs>
       <path d="M 0 0 
L 0 2 
" id="m7cf5e4dbcd" style="stroke:#000000;stroke-width:0.6;"/>
      </defs>
      <g>
       <use style="stroke:#000000;stroke-width:0.6;" x="56.911717" xlink:href="#m7cf5e4dbcd" y="128.92249"/>
      </g>
     </g>
    </g>
    <g id="xtick_6">
     <g id="line2d_10">
      <g>
       <use style="stroke:#000000;stroke-width:0.6;" x="59.857917" xlink:href="#m7cf5e4dbcd" y="128.92249"/>
      </g>
     </g>
    </g>
    <g id="xtick_7">
     <g id="line2d_11">
      <g>
       <use style="stroke:#000000;stroke-width:0.6;" x="62.348893" xlink:href="#m7cf5e4dbcd" y="128.92249"/>
      </g>
     </g>
    </g>
    <g id="xtick_8">
     <g id="line2d_12">
      <g>
       <use style="stroke:#000000;stroke-width:0.6;" x="64.506675" xlink:href="#m7cf5e4dbcd" y="128.92249"/>
      </g>
     </g>
    </g>
    <g id="xtick_9">
     <g id="line2d_13">
      <g>
       <use style="stroke:#000000;stroke-width:0.6;" x="66.409973" xlink:href="#m7cf5e4dbcd" y="128.92249"/>
      </g>
     </g>
    </g>
    <g id="xtick_10">
     <g id="line2d_14">
      <g>
       <use style="stroke:#000000;stroke-width:0.6;" x="79.313347" xlink:href="#m7cf5e4dbcd" y="128.92249"/>
      </g>
     </g>
    </g>
    <g id="xtick_11">
     <g id="line2d_15">
      <g>
       <use style="stroke:#000000;stroke-width:0.6;" x="85.865403" xlink:href="#m7cf5e4dbcd" y="128.92249"/>
      </g>
     </g>
    </g>
    <g id="xtick_12">
     <g id="line2d_16">
      <g>
       <use style="stroke:#000000;stroke-width:0.6;" x="90.514162" xlink:href="#m7cf5e4dbcd" y="128.92249"/>
      </g>
     </g>
    </g>
    <g id="xtick_13">
     <g id="line2d_17">
      <g>
       <use style="stroke:#000000;stroke-width:0.6;" x="94.120019" xlink:href="#m7cf5e4dbcd" y="128.92249"/>
      </g>
     </g>
    </g>
    <g id="xtick_14">
     <g id="line2d_18">
      <g>
       <use style="stroke:#000000;stroke-width:0.6;" x="97.066218" xlink:href="#m7cf5e4dbcd" y="128.92249"/>
      </g>
     </g>
    </g>
    <g id="xtick_15">
     <g id="line2d_19">
      <g>
       <use style="stroke:#000000;stroke-width:0.6;" x="99.557195" xlink:href="#m7cf5e4dbcd" y="128.92249"/>
      </g>
     </g>
    </g>
    <g id="xtick_16">
     <g id="line2d_20">
      <g>
       <use style="stroke:#000000;stroke-width:0.6;" x="101.714977" xlink:href="#m7cf5e4dbcd" y="128.92249"/>
      </g>
     </g>
    </g>
    <g id="xtick_17">
     <g id="line2d_21">
      <g>
       <use style="stroke:#000000;stroke-width:0.6;" x="103.618275" xlink:href="#m7cf5e4dbcd" y="128.92249"/>
      </g>
     </g>
    </g>
    <g id="xtick_18">
     <g id="line2d_22">
      <g>
       <use style="stroke:#000000;stroke-width:0.6;" x="116.521649" xlink:href="#m7cf5e4dbcd" y="128.92249"/>
      </g>
     </g>
    </g>
    <g id="xtick_19">
     <g id="line2d_23">
      <g>
       <use style="stroke:#000000;stroke-width:0.6;" x="123.073705" xlink:href="#m7cf5e4dbcd" y="128.92249"/>
      </g>
     </g>
    </g>
    <g id="xtick_20">
     <g id="line2d_24">
      <g>
       <use style="stroke:#000000;stroke-width:0.6;" x="127.722463" xlink:href="#m7cf5e4dbcd" y="128.92249"/>
      </g>
     </g>
    </g>
    <g id="xtick_21">
     <g id="line2d_25">
      <g>
       <use style="stroke:#000000;stroke-width:0.6;" x="131.328321" xlink:href="#m7cf5e4dbcd" y="128.92249"/>
      </g>
     </g>
    </g>
    <g id="xtick_22">
     <g id="line2d_26">
      <g>
       <use style="stroke:#000000;stroke-width:0.6;" x="134.27452" xlink:href="#m7cf5e4dbcd" y="128.92249"/>
      </g>
     </g>
    </g>
    <g id="xtick_23">
     <g id="line2d_27">
      <g>
       <use style="stroke:#000000;stroke-width:0.6;" x="136.765497" xlink:href="#m7cf5e4dbcd" y="128.92249"/>
      </g>
     </g>
    </g>
    <g id="xtick_24">
     <g id="line2d_28">
      <g>
       <use style="stroke:#000000;stroke-width:0.6;" x="138.923278" xlink:href="#m7cf5e4dbcd" y="128.92249"/>
      </g>
     </g>
    </g>
    <g id="xtick_25">
     <g id="line2d_29">
      <g>
       <use style="stroke:#000000;stroke-width:0.6;" x="140.826577" xlink:href="#m7cf5e4dbcd" y="128.92249"/>
      </g>
     </g>
    </g>
    <g id="xtick_26">
     <g id="line2d_30">
      <g>
       <use style="stroke:#000000;stroke-width:0.6;" x="153.72995" xlink:href="#m7cf5e4dbcd" y="128.92249"/>
      </g>
     </g>
    </g>
    <g id="xtick_27">
     <g id="line2d_31">
      <g>
       <use style="stroke:#000000;stroke-width:0.6;" x="160.282007" xlink:href="#m7cf5e4dbcd" y="128.92249"/>
      </g>
     </g>
    </g>
    <g id="xtick_28">
     <g id="line2d_32">
      <g>
       <use style="stroke:#000000;stroke-width:0.6;" x="164.930765" xlink:href="#m7cf5e4dbcd" y="128.92249"/>
      </g>
     </g>
    </g>
    <g id="xtick_29">
     <g id="line2d_33">
      <g>
       <use style="stroke:#000000;stroke-width:0.6;" x="168.536622" xlink:href="#m7cf5e4dbcd" y="128.92249"/>
      </g>
     </g>
    </g>
    <g id="xtick_30">
     <g id="line2d_34">
      <g>
       <use style="stroke:#000000;stroke-width:0.6;" x="171.482822" xlink:href="#m7cf5e4dbcd" y="128.92249"/>
      </g>
     </g>
    </g>
    <g id="xtick_31">
     <g id="line2d_35">
      <g>
       <use style="stroke:#000000;stroke-width:0.6;" x="173.973798" xlink:href="#m7cf5e4dbcd" y="128.92249"/>
      </g>
     </g>
    </g>
    <g id="xtick_32">
     <g id="line2d_36">
      <g>
       <use style="stroke:#000000;stroke-width:0.6;" x="176.13158" xlink:href="#m7cf5e4dbcd" y="128.92249"/>
      </g>
     </g>
    </g>
    <g id="xtick_33">
     <g id="line2d_37">
      <g>
       <use style="stroke:#000000;stroke-width:0.6;" x="178.034879" xlink:href="#m7cf5e4dbcd" y="128.92249"/>
      </g>
     </g>
    </g>
    <g id="xtick_34">
     <g id="line2d_38">
      <g>
       <use style="stroke:#000000;stroke-width:0.6;" x="190.938252" xlink:href="#m7cf5e4dbcd" y="128.92249"/>
      </g>
     </g>
    </g>
    <g id="xtick_35">
     <g id="line2d_39">
      <g>
       <use style="stroke:#000000;stroke-width:0.6;" x="197.490309" xlink:href="#m7cf5e4dbcd" y="128.92249"/>
      </g>
     </g>
    </g>
    <g id="xtick_36">
     <g id="line2d_40">
      <g>
       <use style="stroke:#000000;stroke-width:0.6;" x="202.139067" xlink:href="#m7cf5e4dbcd" y="128.92249"/>
      </g>
     </g>
    </g>
    <g id="xtick_37">
     <g id="line2d_41">
      <g>
       <use style="stroke:#000000;stroke-width:0.6;" x="205.744924" xlink:href="#m7cf5e4dbcd" y="128.92249"/>
      </g>
     </g>
    </g>
    <g id="xtick_38">
     <g id="line2d_42">
      <g>
       <use style="stroke:#000000;stroke-width:0.6;" x="208.691124" xlink:href="#m7cf5e4dbcd" y="128.92249"/>
      </g>
     </g>
    </g>
    <g id="xtick_39">
     <g id="line2d_43">
      <g>
       <use style="stroke:#000000;stroke-width:0.6;" x="211.1821" xlink:href="#m7cf5e4dbcd" y="128.92249"/>
      </g>
     </g>
    </g>
    <g id="xtick_40">
     <g id="line2d_44">
      <g>
       <use style="stroke:#000000;stroke-width:0.6;" x="213.339882" xlink:href="#m7cf5e4dbcd" y="128.92249"/>
      </g>
     </g>
    </g>
    <g id="xtick_41">
     <g id="line2d_45">
      <g>
       <use style="stroke:#000000;stroke-width:0.6;" x="215.243181" xlink:href="#m7cf5e4dbcd" y="128.92249"/>
      </g>
     </g>
    </g>
    <g id="text_5">
     <!-- f (Hz) -->
     <defs>
      <path d="M 37.109375 75.984375 
L 37.109375 68.5 
L 28.515625 68.5 
Q 23.6875 68.5 21.796875 66.546875 
Q 19.921875 64.59375 19.921875 59.515625 
L 19.921875 54.6875 
L 34.71875 54.6875 
L 34.71875 47.703125 
L 19.921875 47.703125 
L 19.921875 0 
L 10.890625 0 
L 10.890625 47.703125 
L 2.296875 47.703125 
L 2.296875 54.6875 
L 10.890625 54.6875 
L 10.890625 58.5 
Q 10.890625 67.625 15.140625 71.796875 
Q 19.390625 75.984375 28.609375 75.984375 
z
" id="DejaVuSans-102"/>
      <path id="DejaVuSans-32"/>
      <path d="M 31 75.875 
Q 24.46875 64.65625 21.28125 53.65625 
Q 18.109375 42.671875 18.109375 31.390625 
Q 18.109375 20.125 21.3125 9.0625 
Q 24.515625 -2 31 -13.1875 
L 23.1875 -13.1875 
Q 15.875 -1.703125 12.234375 9.375 
Q 8.59375 20.453125 8.59375 31.390625 
Q 8.59375 42.28125 12.203125 53.3125 
Q 15.828125 64.359375 23.1875 75.875 
z
" id="DejaVuSans-40"/>
      <path d="M 9.8125 72.90625 
L 19.671875 72.90625 
L 19.671875 43.015625 
L 55.515625 43.015625 
L 55.515625 72.90625 
L 65.375 72.90625 
L 65.375 0 
L 55.515625 0 
L 55.515625 34.71875 
L 19.671875 34.71875 
L 19.671875 0 
L 9.8125 0 
z
" id="DejaVuSans-72"/>
      <path d="M 5.515625 54.6875 
L 48.1875 54.6875 
L 48.1875 46.484375 
L 14.40625 7.171875 
L 48.1875 7.171875 
L 48.1875 0 
L 4.296875 0 
L 4.296875 8.203125 
L 38.09375 47.515625 
L 5.515625 47.515625 
z
" id="DejaVuSans-122"/>
      <path d="M 8.015625 75.875 
L 15.828125 75.875 
Q 23.140625 64.359375 26.78125 53.3125 
Q 30.421875 42.28125 30.421875 31.390625 
Q 30.421875 20.453125 26.78125 9.375 
Q 23.140625 -1.703125 15.828125 -13.1875 
L 8.015625 -13.1875 
Q 14.5 -2 17.703125 9.0625 
Q 20.90625 20.125 20.90625 31.390625 
Q 20.90625 42.671875 17.703125 53.65625 
Q 14.5 64.65625 8.015625 75.875 
z
" id="DejaVuSans-41"/>
     </defs>
     <g transform="translate(122.250671 157.199053)scale(0.1 -0.1)">
      <use xlink:href="#DejaVuSans-102"/>
      <use x="35.205078" xlink:href="#DejaVuSans-32"/>
      <use x="66.992188" xlink:href="#DejaVuSans-40"/>
      <use x="106.005859" xlink:href="#DejaVuSans-72"/>
      <use x="181.201172" xlink:href="#DejaVuSans-122"/>
      <use x="233.691406" xlink:href="#DejaVuSans-41"/>
     </g>
    </g>
   </g>
   <g id="matplotlib.axis_2">
    <g id="ytick_1">
     <g id="line2d_46">
      <path clip-path="url(#p7860128c7a)" d="M 55.8 111.031801 
L 215.971654 111.031801 
" style="fill:none;stroke:#b0b0b0;stroke-linecap:square;stroke-width:0.8;"/>
     </g>
     <g id="line2d_47">
      <defs>
       <path d="M 0 0 
L -3.5 0 
" id="m00ec5befa2" style="stroke:#000000;stroke-width:0.8;"/>
      </defs>
      <g>
       <use style="stroke:#000000;stroke-width:0.8;" x="55.8" xlink:href="#m00ec5befa2" y="111.031801"/>
      </g>
     </g>
     <g id="text_6">
      <!-- $\mathdefault{10^{-4}}$ -->
      <defs>
       <path d="M 37.796875 64.3125 
L 12.890625 25.390625 
L 37.796875 25.390625 
z
M 35.203125 72.90625 
L 47.609375 72.90625 
L 47.609375 25.390625 
L 58.015625 25.390625 
L 58.015625 17.1875 
L 47.609375 17.1875 
L 47.609375 0 
L 37.796875 0 
L 37.796875 17.1875 
L 4.890625 17.1875 
L 4.890625 26.703125 
z
" id="DejaVuSans-52"/>
      </defs>
      <g transform="translate(25.3 114.831019)scale(0.1 -0.1)">
       <use transform="translate(0 0.684375)" xlink:href="#DejaVuSans-49"/>
       <use transform="translate(63.623047 0.684375)" xlink:href="#DejaVuSans-48"/>
       <use transform="translate(128.203125 38.965625)scale(0.7)" xlink:href="#DejaVuSans-8722"/>
       <use transform="translate(186.855469 38.965625)scale(0.7)" xlink:href="#DejaVuSans-52"/>
      </g>
     </g>
    </g>
    <g id="ytick_2">
     <g id="line2d_48">
      <path clip-path="url(#p7860128c7a)" d="M 55.8 82.498274 
L 215.971654 82.498274 
" style="fill:none;stroke:#b0b0b0;stroke-linecap:square;stroke-width:0.8;"/>
     </g>
     <g id="line2d_49">
      <g>
       <use style="stroke:#000000;stroke-width:0.8;" x="55.8" xlink:href="#m00ec5befa2" y="82.498274"/>
      </g>
     </g>
     <g id="text_7">
      <!-- $\mathdefault{10^{-2}}$ -->
      <g transform="translate(25.3 86.297493)scale(0.1 -0.1)">
       <use transform="translate(0 0.765625)" xlink:href="#DejaVuSans-49"/>
       <use transform="translate(63.623047 0.765625)" xlink:href="#DejaVuSans-48"/>
       <use transform="translate(128.203125 39.046875)scale(0.7)" xlink:href="#DejaVuSans-8722"/>
       <use transform="translate(186.855469 39.046875)scale(0.7)" xlink:href="#DejaVuSans-50"/>
      </g>
     </g>
    </g>
    <g id="ytick_3">
     <g id="line2d_50">
      <path clip-path="url(#p7860128c7a)" d="M 55.8 53.964747 
L 215.971654 53.964747 
" style="fill:none;stroke:#b0b0b0;stroke-linecap:square;stroke-width:0.8;"/>
     </g>
     <g id="line2d_51">
      <g>
       <use style="stroke:#000000;stroke-width:0.8;" x="55.8" xlink:href="#m00ec5befa2" y="53.964747"/>
      </g>
     </g>
     <g id="text_8">
      <!-- $\mathdefault{10^{0}}$ -->
      <g transform="translate(31.2 57.763966)scale(0.1 -0.1)">
       <use transform="translate(0 0.765625)" xlink:href="#DejaVuSans-49"/>
       <use transform="translate(63.623047 0.765625)" xlink:href="#DejaVuSans-48"/>
       <use transform="translate(128.203125 39.046875)scale(0.7)" xlink:href="#DejaVuSans-48"/>
      </g>
     </g>
    </g>
    <g id="ytick_4">
     <g id="line2d_52">
      <path clip-path="url(#p7860128c7a)" d="M 55.8 25.431221 
L 215.971654 25.431221 
" style="fill:none;stroke:#b0b0b0;stroke-linecap:square;stroke-width:0.8;"/>
     </g>
     <g id="line2d_53">
      <g>
       <use style="stroke:#000000;stroke-width:0.8;" x="55.8" xlink:href="#m00ec5befa2" y="25.431221"/>
      </g>
     </g>
     <g id="text_9">
      <!-- $\mathdefault{10^{2}}$ -->
      <g transform="translate(31.2 29.230439)scale(0.1 -0.1)">
       <use transform="translate(0 0.765625)" xlink:href="#DejaVuSans-49"/>
       <use transform="translate(63.623047 0.765625)" xlink:href="#DejaVuSans-48"/>
       <use transform="translate(128.203125 39.046875)scale(0.7)" xlink:href="#DejaVuSans-50"/>
      </g>
     </g>
    </g>
    <g id="text_10">
     <!-- $S(f) (m^2/s)$ -->
     <defs>
      <path d="M 60.296875 70.515625 
L 58.40625 60.890625 
Q 53.46875 63.53125 48.609375 64.875 
Q 43.75 66.21875 39.203125 66.21875 
Q 30.375 66.21875 25.140625 62.359375 
Q 19.921875 58.5 19.921875 52.09375 
Q 19.921875 48.578125 21.84375 46.703125 
Q 23.78125 44.828125 31.78125 42.671875 
L 37.703125 41.21875 
Q 47.703125 38.625 51.609375 34.640625 
Q 55.515625 30.671875 55.515625 23.484375 
Q 55.515625 12.453125 46.84375 5.515625 
Q 38.1875 -1.421875 24.03125 -1.421875 
Q 18.21875 -1.421875 12.359375 -0.265625 
Q 6.5 0.875 0.59375 3.21875 
L 2.59375 13.375 
Q 8.015625 10.015625 13.453125 8.296875 
Q 18.890625 6.59375 24.3125 6.59375 
Q 33.546875 6.59375 39.109375 10.6875 
Q 44.671875 14.796875 44.671875 21.390625 
Q 44.671875 25.78125 42.453125 28.046875 
Q 40.234375 30.328125 32.90625 32.171875 
L 27 33.6875 
Q 16.890625 36.328125 13.203125 39.765625 
Q 9.515625 43.21875 9.515625 49.421875 
Q 9.515625 60.296875 17.890625 67.25 
Q 26.265625 74.21875 39.703125 74.21875 
Q 44.921875 74.21875 50.046875 73.28125 
Q 55.171875 72.359375 60.296875 70.515625 
z
" id="DejaVuSans-Oblique-83"/>
      <path d="M 47.796875 75.984375 
L 46.390625 68.5 
L 37.796875 68.5 
Q 32.90625 68.5 30.6875 66.578125 
Q 28.46875 64.65625 27.390625 59.515625 
L 26.421875 54.6875 
L 41.21875 54.6875 
L 39.890625 47.703125 
L 25.09375 47.703125 
L 15.828125 0 
L 6.78125 0 
L 16.109375 47.703125 
L 7.515625 47.703125 
L 8.796875 54.6875 
L 17.390625 54.6875 
L 18.109375 58.5 
Q 19.96875 68.171875 24.625 72.078125 
Q 29.296875 75.984375 39.3125 75.984375 
z
" id="DejaVuSans-Oblique-102"/>
      <path d="M 89.796875 33.015625 
L 83.40625 0 
L 74.421875 0 
L 80.71875 32.71875 
Q 81.109375 34.8125 81.296875 36.328125 
Q 81.5 37.84375 81.5 38.921875 
Q 81.5 43.3125 79.046875 45.75 
Q 76.609375 48.1875 72.21875 48.1875 
Q 65.671875 48.1875 60.546875 43.28125 
Q 55.421875 38.375 53.90625 30.515625 
L 47.90625 0 
L 38.921875 0 
L 45.3125 32.71875 
Q 45.703125 34.515625 45.890625 36.046875 
Q 46.09375 37.59375 46.09375 38.8125 
Q 46.09375 43.265625 43.65625 45.71875 
Q 41.21875 48.1875 36.921875 48.1875 
Q 30.28125 48.1875 25.140625 43.28125 
Q 20.015625 38.375 18.5 30.515625 
L 12.5 0 
L 3.515625 0 
L 14.203125 54.6875 
L 23.1875 54.6875 
L 21.484375 46.1875 
Q 25.140625 50.984375 30.046875 53.484375 
Q 34.96875 56 40.578125 56 
Q 46.53125 56 50.359375 52.875 
Q 54.203125 49.75 54.984375 44.1875 
Q 59.078125 49.953125 64.46875 52.96875 
Q 69.875 56 75.875 56 
Q 82.90625 56 86.734375 51.953125 
Q 90.578125 47.90625 90.578125 40.484375 
Q 90.578125 38.875 90.375 36.9375 
Q 90.1875 35.015625 89.796875 33.015625 
z
" id="DejaVuSans-Oblique-109"/>
      <path d="M 25.390625 72.90625 
L 33.6875 72.90625 
L 8.296875 -9.28125 
L 0 -9.28125 
z
" id="DejaVuSans-47"/>
      <path d="M 50 53.078125 
L 48.296875 44.578125 
Q 44.734375 46.53125 40.765625 47.5 
Q 36.8125 48.484375 32.625 48.484375 
Q 25.53125 48.484375 21.453125 46.0625 
Q 17.390625 43.65625 17.390625 39.5 
Q 17.390625 34.671875 26.859375 32.078125 
Q 27.59375 31.890625 27.9375 31.78125 
L 30.8125 30.90625 
Q 39.796875 28.421875 42.796875 25.6875 
Q 45.796875 22.953125 45.796875 18.21875 
Q 45.796875 9.515625 38.890625 4.046875 
Q 31.984375 -1.421875 20.796875 -1.421875 
Q 16.453125 -1.421875 11.671875 -0.578125 
Q 6.890625 0.25 1.125 2 
L 2.875 11.28125 
Q 7.8125 8.734375 12.59375 7.421875 
Q 17.390625 6.109375 21.78125 6.109375 
Q 28.375 6.109375 32.5 8.9375 
Q 36.625 11.765625 36.625 16.109375 
Q 36.625 20.796875 25.78125 23.6875 
L 24.859375 23.921875 
L 21.78125 24.703125 
Q 14.9375 26.515625 11.765625 29.46875 
Q 8.59375 32.421875 8.59375 37.015625 
Q 8.59375 45.75 15.15625 50.875 
Q 21.734375 56 33.015625 56 
Q 37.453125 56 41.671875 55.265625 
Q 45.90625 54.546875 50 53.078125 
z
" id="DejaVuSans-Oblique-115"/>
     </defs>
     <g transform="translate(19.220312 94.361245)rotate(-90)scale(0.1 -0.1)">
      <use transform="translate(0 0.765625)" xlink:href="#DejaVuSans-Oblique-83"/>
      <use transform="translate(63.476562 0.765625)" xlink:href="#DejaVuSans-40"/>
      <use transform="translate(102.490234 0.765625)" xlink:href="#DejaVuSans-Oblique-102"/>
      <use transform="translate(137.695312 0.765625)" xlink:href="#DejaVuSans-41"/>
      <use transform="translate(176.708984 0.765625)" xlink:href="#DejaVuSans-40"/>
      <use transform="translate(215.722656 0.765625)" xlink:href="#DejaVuSans-Oblique-109"/>
      <use transform="translate(317.784661 39.046875)scale(0.7)" xlink:href="#DejaVuSans-50"/>
      <use transform="translate(365.055169 0.765625)" xlink:href="#DejaVuSans-47"/>
      <use transform="translate(398.746576 0.765625)" xlink:href="#DejaVuSans-Oblique-115"/>
      <use transform="translate(450.846185 0.765625)" xlink:href="#DejaVuSans-41"/>
     </g>
    </g>
   </g>
   <g id="line2d_54">
    <path clip-path="url(#p7860128c7a)" d="M 63.08053 31.930799 
L 74.281345 38.961088 
L 80.833401 41.396732 
L 85.48216 25.267945 
L 89.088017 20.049235 
L 92.034216 18.367001 
L 94.525193 19.187821 
L 96.682975 32.82818 
L 98.586273 19.075938 
L 100.288832 17.911101 
L 103.235031 26.264116 
L 104.52847 20.701191 
L 105.726008 30.26266 
L 106.840888 45.024325 
L 107.883789 38.717107 
L 108.863445 25.160283 
L 109.787088 38.020145 
L 110.66078 36.785256 
L 111.489646 30.071845 
L 112.278064 25.841537 
L 113.029798 19.16669 
L 113.74811 19.715721 
L 114.435846 16.169204 
L 115.095503 16.538753 
L 115.729285 22.910069 
L 116.339145 27.118444 
L 116.926823 27.567592 
L 117.493876 42.935374 
L 118.041703 22.39698 
L 118.571566 17.840835 
L 119.084604 22.625645 
L 119.581855 33.94234 
L 120.064259 18.050653 
L 120.53268 22.287674 
L 120.987903 38.780246 
L 121.430653 50.009284 
L 121.861595 22.167082 
L 122.281342 20.188706 
L 122.690461 23.531862 
L 123.089478 32.532192 
L 123.478879 20.846198 
L 123.859117 18.303828 
L 124.230613 21.039835 
L 124.59376 32.860895 
L 124.948925 28.597874 
L 125.296451 28.514909 
L 125.636661 39.64276 
L 126.296318 28.225899 
L 126.616316 27.600194 
L 126.9301 19.255044 
L 127.237907 27.590573 
L 127.53996 41.382368 
L 128.127637 19.136742 
L 128.413651 21.773385 
L 128.970926 31.381289 
L 129.242518 49.16689 
L 129.509621 27.352684 
L 129.772381 19.478108 
L 130.030936 22.63495 
L 130.285419 53.487501 
L 130.535957 25.288431 
L 130.78267 19.24166 
L 131.500982 32.349299 
L 131.733494 31.976221 
L 131.962709 24.217188 
L 132.188718 20.958784 
L 132.411609 25.559343 
L 132.631468 36.494517 
L 132.848375 23.53914 
L 133.06241 21.190877 
L 133.688011 23.161492 
L 133.891276 28.737157 
L 134.092016 31.028399 
L 134.290293 19.748698 
L 134.486167 22.213221 
L 134.679694 40.469216 
L 134.870931 25.947703 
L 135.059932 22.648946 
L 135.246747 21.472666 
L 135.431428 24.260526 
L 135.614021 28.907461 
L 135.794575 25.765038 
L 135.973133 19.656897 
L 136.14974 18.590063 
L 136.324437 22.629694 
L 136.497266 41.718966 
L 136.668267 29.150926 
L 136.837476 25.583885 
L 137.004932 26.647987 
L 137.170671 26.446196 
L 137.334726 25.543555 
L 137.497133 23.43561 
L 137.657924 26.759623 
L 137.817131 26.251898 
L 137.974785 24.945141 
L 138.130915 42.192675 
L 138.285551 30.44403 
L 138.438722 59.053131 
L 138.740775 34.687473 
L 139.037285 20.995014 
L 139.328452 33.786813 
L 139.614466 20.272104 
L 139.755597 19.689434 
L 139.895506 24.027273 
L 140.034213 35.15874 
L 140.171741 27.320333 
L 140.308107 27.156625 
L 140.443333 51.96295 
L 140.710436 24.158599 
L 140.973196 30.760647 
L 141.10299 28.238081 
L 141.231751 34.405829 
L 141.486234 24.027843 
L 141.611989 23.644276 
L 141.736772 25.969507 
L 141.860599 34.887801 
L 141.983485 32.90672 
L 142.105443 40.006134 
L 142.226487 29.659696 
L 142.346632 32.697078 
L 142.584273 29.123083 
L 142.701797 33.239497 
L 142.818471 41.240564 
L 142.934309 29.817527 
L 143.049323 38.690678 
L 143.276923 31.409959 
L 143.501363 41.369979 
L 143.612424 28.974063 
L 143.832283 32.403297 
L 143.9411 30.28572 
L 144.156562 40.018323 
L 144.369188 26.271556 
L 144.474461 29.620915 
L 144.682972 41.677821 
L 144.786227 43.65708 
L 144.990778 33.567406 
L 145.092091 38.121298 
L 145.192773 29.069282 
L 145.292831 41.027395 
L 145.392274 33.587545 
L 145.491108 37.031629 
L 145.589342 55.038416 
L 145.686982 40.608647 
L 145.784035 52.06633 
L 145.880509 30.243401 
L 145.976411 30.714936 
L 146.071746 29.873894 
L 146.166523 26.855857 
L 146.354425 33.598787 
L 146.447562 33.408119 
L 146.540166 33.680131 
L 146.632243 53.657808 
L 146.814836 25.838321 
L 146.905365 27.754263 
L 147.084916 36.19923 
L 147.262493 26.474789 
L 147.43814 34.468165 
L 147.525252 50.532183 
L 147.783808 27.425917 
L 147.869081 30.165606 
L 148.038291 40.543882 
L 148.122236 35.129334 
L 148.205747 41.013398 
L 148.288829 40.029673 
L 148.371485 38.998489 
L 148.535541 28.229102 
L 148.616949 31.477366 
L 148.697948 36.607833 
L 148.778544 30.387477 
L 148.858739 32.121442 
L 148.938539 30.868262 
L 149.017946 33.055693 
L 149.096965 42.685224 
L 149.1756 42.668145 
L 149.253853 48.219596 
L 149.409233 32.849291 
L 149.563133 38.079838 
L 149.639537 34.670766 
L 149.791269 56.443286 
L 149.941589 32.676345 
L 150.016229 36.886961 
L 150.090525 33.403339 
L 150.2381 46.91257 
L 150.311385 41.028967 
L 150.384339 60.045092 
L 150.456966 50.16705 
L 150.672907 38.297427 
L 150.744251 47.020747 
L 150.815281 35.976919 
L 150.886001 36.265188 
L 151.096321 26.616004 
L 151.165823 28.960156 
L 151.303938 51.228236 
L 151.508922 36.982105 
L 151.576677 36.509644 
L 151.644148 30.089194 
L 151.711339 40.191032 
L 151.778251 34.969035 
L 151.844888 28.083823 
L 151.977342 47.870054 
L 152.043165 42.05954 
L 152.10872 33.641719 
L 152.174011 38.653939 
L 152.239038 44.033688 
L 152.368314 33.078978 
L 152.432566 33.179268 
L 152.623803 40.365449 
L 152.687049 51.214847 
L 152.812804 30.409051 
L 152.937587 40.366481 
L 152.999619 34.171338 
L 153.061414 34.900021 
L 153.184299 46.260037 
L 153.245394 34.927979 
L 153.306258 41.316669 
L 153.366893 69.537504 
L 153.427302 38.764653 
L 153.487486 40.159039 
L 153.547446 47.693994 
L 153.666704 29.616295 
L 153.843957 48.43307 
L 153.902612 37.837215 
L 153.961054 52.033727 
L 154.019286 48.933798 
L 154.250138 31.519409 
L 154.307339 31.448526 
L 154.364339 31.052059 
L 154.421138 33.974166 
L 154.477738 48.290068 
L 154.534141 34.425827 
L 154.590348 67.345378 
L 154.646359 43.482483 
L 154.757804 37.471295 
L 154.813239 31.838322 
L 154.923542 42.043759 
L 154.978413 39.723015 
L 155.033098 39.052248 
L 155.141915 51.323492 
L 155.19605 77.400836 
L 155.357377 30.261138 
L 155.410796 30.747204 
L 155.464039 33.499954 
L 155.517108 42.230927 
L 155.570003 41.415031 
L 155.622725 34.577035 
L 155.675276 36.092604 
L 155.727656 51.618086 
L 155.779868 45.020084 
L 155.831911 38.650823 
L 155.883787 41.981238 
L 155.935497 41.734586 
L 156.089641 34.90488 
L 156.140698 36.696434 
L 156.343325 67.364118 
L 156.443694 42.495959 
L 156.493646 45.19131 
L 156.642581 34.769238 
L 156.691923 34.872148 
L 156.790156 61.635334 
L 156.936396 31.167248 
L 156.98485 37.205276 
L 157.033159 35.435942 
L 157.081324 34.335688 
L 157.224964 45.023141 
L 157.272561 49.478073 
L 157.320019 43.042504 
L 157.367338 44.171141 
L 157.414519 52.957496 
L 157.461562 42.548769 
L 157.55524 34.570508 
L 157.601876 41.105944 
L 157.648377 35.674249 
L 157.694746 34.2924 
L 157.740981 36.271758 
L 157.787085 49.519194 
L 157.833058 42.58272 
L 157.8789 37.479101 
L 157.924612 38.393046 
L 157.970196 54.843074 
L 158.015651 40.513327 
L 158.10618 44.871481 
L 158.151255 44.700286 
L 158.24103 36.629945 
L 158.28573 46.578723 
L 158.330308 35.516505 
L 158.374763 32.299699 
L 158.419096 37.124096 
L 158.463308 37.923 
L 158.638955 60.410895 
L 158.68257 56.112476 
L 158.769448 42.986422 
L 158.812713 51.344806 
L 158.855862 42.881187 
L 158.941816 35.598631 
L 158.984623 36.840027 
L 159.069896 45.910758 
L 159.112365 42.499494 
L 159.154723 34.826008 
L 159.196969 43.300117 
L 159.323051 53.315536 
L 159.36486 45.469587 
L 159.406562 70.681133 
L 159.448156 53.486228 
L 159.489644 43.902615 
L 159.531025 45.74011 
L 159.5723 51.558847 
L 159.695498 39.057418 
L 159.777111 50.562258 
L 159.817764 44.040032 
L 159.898763 46.402191 
L 159.939111 37.002783 
L 160.059554 46.449733 
L 160.099503 45.296445 
L 160.139354 37.008389 
L 160.218761 42.810311 
L 160.258319 48.439522 
L 160.29778 40.21909 
L 160.337145 35.555049 
L 160.376415 41.864885 
L 160.454668 40.070996 
L 160.493653 51.510197 
L 160.532545 40.985873 
L 160.571343 41.017778 
L 160.610048 60.545454 
L 160.64866 48.565516 
L 160.763948 36.492611 
L 160.802195 38.988346 
L 160.954284 50.837304 
L 160.992084 37.977705 
L 161.029795 39.123111 
L 161.067419 66.340303 
L 161.142404 43.453296 
L 161.179767 37.470608 
L 161.217044 39.319118 
L 161.29134 54.284569 
L 161.32836 48.88438 
L 161.402147 41.668676 
L 161.438915 43.274797 
L 161.475599 46.272558 
L 161.5122 40.485061 
L 161.548718 40.78178 
L 161.621508 52.47039 
L 161.657781 41.519377 
L 161.693972 40.646484 
L 161.766112 56.318897 
L 161.802062 45.758304 
L 161.873722 37.791146 
L 161.909433 45.271199 
L 161.945066 52.215932 
L 162.016096 47.435017 
L 162.086815 34.328649 
L 162.122059 38.519462 
L 162.262272 60.382448 
L 162.331924 39.349198 
L 162.366638 41.39215 
L 162.401278 46.662771 
L 162.435843 40.259535 
L 162.539098 35.821191 
L 162.573371 36.955742 
L 162.709737 46.37461 
L 162.74365 41.433048 
L 162.777492 65.230478 
L 162.844963 43.340912 
L 162.878593 42.196478 
L 162.912154 35.800737 
L 162.945645 36.085212 
L 163.078918 48.061788 
L 163.112066 46.583273 
L 163.145145 54.900416 
L 163.211102 48.62672 
L 163.24398 38.068943 
L 163.309535 49.912416 
L 163.374825 55.960738 
L 163.407372 41.58154 
L 163.50462 46.202316 
L 163.536907 64.554322 
L 163.601287 39.078527 
L 163.665411 40.763026 
L 163.729282 46.264387 
L 163.761123 64.349415 
L 163.824618 47.828899 
L 163.856272 41.268124 
L 163.950864 43.49946 
L 163.982272 54.62881 
L 164.044905 42.659587 
L 164.076131 51.200886 
L 164.107296 43.499725 
L 164.138402 59.325478 
L 164.169448 48.821139 
L 164.200434 57.75874 
L 164.231361 46.006091 
L 164.293038 36.539802 
L 164.323789 41.154195 
L 164.354481 45.4308 
L 164.41569 38.659296 
L 164.597941 49.879512 
L 164.628117 46.482154 
L 164.658237 54.058836 
L 164.688301 40.620111 
L 164.718309 39.33745 
L 164.837787 63.800818 
L 164.867519 43.279289 
L 164.956389 55.732123 
L 164.985903 53.938184 
L 165.103426 41.79154 
L 165.132674 43.418137 
L 165.161869 57.627944 
L 165.220101 44.604654 
L 165.249139 40.234313 
L 165.278124 46.665682 
L 165.307057 55.413884 
L 165.36477 45.641264 
L 165.393548 41.385759 
L 165.422276 42.975706 
L 165.450953 77.153422 
L 165.508154 43.107074 
L 165.565154 59.95914 
L 165.650278 51.702684 
L 165.791163 43.923241 
L 165.819193 58.569446 
L 165.902993 47.443178 
L 165.93083 41.010027 
L 165.98636 41.12767 
L 166.0417 39.118696 
L 166.124357 65.479635 
L 166.206593 38.745289 
L 166.261186 43.88924 
L 166.396865 68.542033 
L 166.531415 39.529437 
L 166.558191 40.094792 
L 166.611611 64.481384 
L 166.664854 37.580653 
L 166.770818 57.518538 
L 166.82354 44.694009 
L 166.849837 40.388107 
L 166.876091 42.527512 
L 166.902302 50.772268 
L 166.928471 39.691085 
L 166.980682 47.197174 
L 167.058684 41.122694 
L 167.084602 42.272773 
L 167.110477 71.12547 
L 167.187857 63.178485 
L 167.290456 40.19184 
L 167.316004 43.685489 
L 167.417796 57.620965 
L 167.443144 53.804018 
L 167.493721 42.344787 
L 167.569291 43.49647 
L 167.669505 76.603847 
L 167.644509 41.994433 
L 167.694461 49.290258 
L 167.719379 43.014973 
L 167.7691 44.262649 
L 167.793904 54.9744 
L 167.818669 44.16017 
L 167.892738 52.955406 
L 167.941929 47.134087 
L 168.064257 70.226405 
L 168.137211 47.465208 
L 168.185665 50.46646 
L 168.209837 45.689407 
L 168.258074 51.765588 
L 168.282139 62.99609 
L 168.330161 58.102957 
L 168.37804 39.763264 
L 168.449595 49.443902 
L 168.544511 38.270575 
L 168.568153 39.449197 
L 168.615333 55.478693 
L 168.662377 50.532165 
L 168.685847 41.165768 
L 168.732686 57.515346 
L 168.756054 49.589439 
L 168.779389 73.68728 
L 168.849192 58.31543 
L 168.872393 44.329988 
L 168.941796 58.088014 
L 168.964865 64.569514 
L 168.9879 49.072792 
L 169.010903 42.164457 
L 169.102587 44.755673 
L 169.125427 45.314507 
L 169.148235 40.272743 
L 169.193755 46.837526 
L 169.216466 55.251056 
L 169.261794 41.605976 
L 169.28441 42.969113 
L 169.329548 57.844269 
L 169.419448 48.46151 
L 169.50885 43.69488 
L 169.531123 45.425562 
L 169.59776 59.700218 
L 169.619911 44.785778 
L 169.642032 44.029362 
L 169.664123 54.871637 
L 169.708214 43.228062 
L 169.752185 50.449357 
L 169.796036 40.191164 
L 169.861592 41.777601 
L 169.948587 58.534754 
L 169.99191 49.488156 
L 170.013528 48.792564 
L 170.035117 44.120134 
L 170.056677 57.198316 
L 170.099711 46.92891 
L 170.121185 69.760205 
L 170.206798 44.5705 
L 170.228131 50.080634 
L 170.31318 57.195154 
L 170.270711 43.159044 
L 170.334373 53.303683 
L 170.355538 44.501308 
L 170.376675 73.113322 
L 170.460948 44.816382 
L 170.50292 95.23799 
L 170.544784 44.084507 
L 170.565675 46.438116 
L 170.607377 44.226266 
L 170.648971 52.938178 
L 170.73184 47.404514 
L 170.752491 48.055728 
L 170.834832 56.336668 
L 170.937171 40.128828 
L 170.896313 70.674518 
L 170.957561 42.841698 
L 170.977926 60.299829 
L 171.059129 55.099934 
L 171.139926 44.403953 
L 171.160062 57.819523 
L 171.180174 47.200861 
L 171.20026 61.036813 
L 171.260369 45.732244 
L 171.300318 55.156831 
L 171.419576 43.003754 
L 171.340169 65.372965 
L 171.439367 48.669768 
L 171.498595 80.591792 
L 171.53796 49.507586 
L 171.577229 56.897551 
L 171.674988 42.930095 
L 171.694468 43.884821 
L 171.73336 50.004722 
L 171.75277 74.142965 
L 171.830181 42.900692 
L 171.849475 43.30264 
L 171.907222 67.056843 
L 171.945605 42.833985 
L 172.098233 66.382847 
L 172.211765 41.558007 
L 172.23061 44.715206 
L 172.324506 63.435448 
L 172.343219 48.096774 
L 172.361911 45.193527 
L 172.399231 47.101163 
L 172.436465 62.476946 
L 172.510675 48.053523 
L 172.547653 46.165958 
L 172.63973 66.289527 
L 172.676414 43.228246 
L 172.713015 88.928912 
L 172.767761 48.978584 
L 172.84047 60.647305 
L 172.858596 47.11244 
L 172.876701 47.915344 
L 172.912852 58.417609 
L 173.002877 57.330605 
L 173.020822 58.650113 
L 173.128074 45.440355 
L 173.110248 69.524612 
L 173.145881 46.521921 
L 173.23462 84.994699 
L 173.252309 58.999585 
L 173.322874 65.269019 
L 173.358042 44.514483 
L 173.41065 73.442257 
L 173.463087 43.423274 
L 173.480528 44.004834 
L 173.49795 66.235432 
L 173.584782 44.929354 
L 173.653913 66.939218 
L 173.705568 54.95678 
L 173.791294 44.845831 
L 173.825458 47.702723 
L 173.893569 63.965973 
L 173.85955 45.335495 
L 173.927517 46.653797 
L 173.978306 52.17711 
L 174.028936 47.848855 
L 174.079408 43.995218 
L 174.096197 55.517218 
L 174.179881 46.185206 
L 174.263134 64.616577 
L 174.296316 49.018215 
L 174.312881 47.8665 
L 174.329429 48.444599 
L 174.362475 73.41154 
L 174.395453 46.982337 
L 174.428364 50.135805 
L 174.51035 43.004262 
L 174.526697 45.592639 
L 174.57564 43.31086 
L 174.640668 64.597427 
L 174.656884 43.806274 
L 174.705435 64.84488 
L 174.737722 48.55671 
L 174.753841 74.55627 
L 174.802102 48.349021 
L 174.834196 56.737349 
L 174.850219 49.550448 
L 174.882218 71.303157 
L 174.930097 50.518855 
L 174.993717 46.131626 
L 175.057087 79.073146 
L 175.088679 48.705988 
L 175.183086 60.435789 
L 175.214433 66.383889 
L 175.24572 46.155507 
L 175.276946 50.875837 
L 175.354747 47.894448 
L 175.401249 75.875352 
L 175.493853 46.066227 
L 175.509236 48.489188 
L 175.524603 64.946425 
L 175.585929 46.785563 
L 175.616505 51.637768 
L 175.662261 59.602364 
L 175.707887 47.848526 
L 175.723068 47.338279 
L 175.753385 49.370593 
L 175.768523 85.757041 
L 175.813851 46.459525 
L 175.859052 59.780656 
L 175.949076 49.181958 
L 175.964032 70.09094 
L 176.008815 48.341062 
L 176.053475 53.122027 
L 176.08318 45.064345 
L 176.127635 48.166811 
L 176.186718 72.222598 
L 176.23089 48.892487 
L 176.245587 46.802564 
L 176.26027 54.612357 
L 176.274941 50.715168 
L 176.318872 75.162254 
L 176.377262 48.581561 
L 176.391826 45.333592 
L 176.449953 54.963049 
L 176.464453 76.189043 
L 176.52232 47.084176 
L 176.565584 66.105608 
L 176.680394 44.609146 
L 176.694688 47.315349 
L 176.737494 68.795834 
L 176.808587 54.025933 
L 176.851093 45.789347 
L 176.879368 57.998485 
L 176.935771 47.584242 
L 176.977944 73.577098 
L 177.005999 53.403378 
L 177.089871 58.453022 
L 177.103807 60.803165 
L 177.131644 50.529499 
L 177.145545 48.09615 
L 177.17331 52.894751 
L 177.187175 52.597423 
L 177.201028 62.706524 
L 177.270115 48.63717 
L 177.297667 52.735554 
L 177.325172 66.527968 
L 177.393731 48.097434 
L 177.407408 48.320352 
L 177.421074 69.003484 
L 177.516409 46.582584 
L 177.529983 46.85404 
L 177.557096 65.825374 
L 177.638163 46.219725 
L 177.678545 62.814932 
L 177.785738 53.737183 
L 177.799088 49.814357 
L 177.812426 70.913919 
L 177.825753 55.297599 
L 177.839069 72.287854 
L 177.865669 50.058686 
L 177.931978 65.405739 
L 177.998015 46.598909 
L 178.037509 52.167533 
L 178.076906 87.482128 
L 178.129286 50.862697 
L 178.155413 66.1381 
L 178.259499 49.787473 
L 178.272463 53.452877 
L 178.324214 82.106773 
L 178.311292 50.295064 
L 178.388672 78.981639 
L 178.427223 48.891013 
L 178.50405 53.16197 
L 178.516819 69.868239 
L 178.529578 46.786905 
L 178.605922 63.012515 
L 178.656618 75.277301 
L 178.732365 48.070269 
L 178.782667 50.905533 
L 178.870319 65.518132 
L 178.82029 49.090137 
L 178.895276 57.519111 
L 178.90774 48.182668 
L 178.932639 66.476599 
L 179.007106 48.276481 
L 179.019484 48.211722 
L 179.044211 73.576988 
L 179.13046 54.749192 
L 179.167284 47.632839 
L 179.191786 71.423324 
L 179.228471 51.116575 
L 179.313744 71.974266 
L 179.277254 49.193969 
L 179.32589 52.997241 
L 179.350153 48.853758 
L 179.37438 65.944157 
L 179.398571 52.351725 
L 179.506983 77.778409 
L 179.482954 47.849745 
L 179.518984 63.755896 
L 179.554933 49.016212 
L 179.578855 74.912749 
L 179.626594 53.945335 
L 179.709798 68.87385 
L 179.686069 48.787871 
L 179.721649 65.462402 
L 179.733492 49.697157 
L 179.827922 68.132245 
L 179.968541 48.063186 
L 179.886662 72.96005 
L 179.980204 49.674121 
L 179.991859 60.161415 
L 180.015143 47.588449 
L 180.084796 50.21651 
L 180.096376 47.994452 
L 180.11951 52.29454 
L 180.142611 50.544559 
L 180.234688 48.100579 
L 180.257625 79.363389 
L 180.29197 48.707533 
L 180.383202 52.617016 
L 180.405929 49.309472 
L 180.451289 59.084124 
L 180.519091 63.710987 
L 180.473921 49.686343 
L 180.530363 59.945313 
L 180.552885 50.94526 
L 180.575375 62.493245 
L 180.631465 60.380476 
L 180.642659 59.809006 
L 180.653846 73.019325 
L 180.731938 50.32796 
L 180.743063 53.26912 
L 180.820726 78.985692 
L 180.776393 52.517588 
L 180.875972 63.046037 
L 180.942018 48.837696 
L 180.996851 51.048794 
L 181.105963 70.531615 
L 181.062407 49.338169 
L 181.116834 62.078741 
L 181.171078 49.038782 
L 181.149402 63.892103 
L 181.192725 58.915175 
L 181.203537 86.389728 
L 181.289778 49.593362 
L 181.300526 49.159454 
L 181.311267 51.753365 
L 181.322 72.528681 
L 181.354158 49.454746 
L 181.418283 53.851856 
L 181.428946 52.799599 
L 181.439601 81.986041 
L 181.513995 48.520933 
L 181.535188 63.083123 
L 181.609144 49.546471 
L 181.588048 83.61265 
L 181.640736 63.014775 
L 181.651253 82.669305 
L 181.682763 50.379697 
L 181.745599 61.91998 
L 181.797776 49.374748 
L 181.776926 82.407224 
L 181.860168 49.850769 
L 181.870543 50.090782 
L 181.953306 69.841148 
L 181.984233 53.098225 
L 181.994529 51.691405 
L 182.004818 52.779011 
L 182.056166 78.107476 
L 182.07666 51.285384 
L 182.107352 66.750942 
L 182.178741 48.986355 
L 182.20924 59.749299 
L 182.259944 50.189139 
L 182.32058 74.87258 
L 182.441172 49.699607 
L 182.451181 48.922743 
L 182.501133 52.873069 
L 182.521071 50.497589 
L 182.610486 81.118923 
L 182.719104 50.377037 
L 182.650068 85.304153 
L 182.728943 51.464574 
L 182.748601 48.924815 
L 182.768236 57.932747 
L 182.787847 50.454797 
L 182.875802 73.184555 
L 182.895283 52.986696 
L 182.943883 86.344742 
L 183.00201 55.318267 
L 183.02134 111.454095 
L 183.05029 49.151215 
L 183.108037 60.471501 
L 183.213372 49.801612 
L 183.136833 86.480056 
L 183.222914 53.438726 
L 183.232451 71.883537 
L 183.289551 50.087712 
L 183.336981 67.397661 
L 183.384272 50.987165 
L 183.41258 69.287811 
L 183.450248 56.601416 
L 183.515955 75.197221 
L 183.469049 50.545187 
L 183.553383 54.238482 
L 183.665148 80.615079 
L 183.618673 51.792645 
L 183.683701 59.697387 
L 183.692969 54.036534 
L 183.71149 88.781166 
L 183.766926 54.617656 
L 183.803777 78.026665 
L 183.858897 52.654246 
L 183.877229 60.360877 
L 183.932099 52.520723 
L 183.904687 66.539523 
L 183.986784 55.026283 
L 184.068466 64.317354 
L 184.004971 50.951846 
L 184.086562 59.280705 
L 184.140727 51.230952 
L 184.131712 64.100911 
L 184.194712 53.211078 
L 184.221636 52.752366 
L 184.311063 84.797242 
L 184.426583 53.266958 
L 184.435435 57.928779 
L 184.488445 51.969912 
L 184.506077 64.847899 
L 184.523689 55.559405 
L 184.532488 103.705825 
L 184.576412 51.354126 
L 184.628962 66.585413 
L 184.74224 50.192343 
L 184.802908 80.01647 
L 184.863349 59.142333 
L 184.914976 53.700899 
L 184.889183 81.969166 
L 184.957873 60.275205 
L 185.051848 81.114377 
L 185.034803 50.442492 
L 185.060364 61.909686 
L 185.094384 53.042868 
L 185.128332 63.955075 
L 185.14528 59.058475 
L 185.196016 50.982192 
L 185.263417 93.216795 
L 185.347274 51.849525 
L 185.389041 52.762828 
L 185.430699 73.553733 
L 185.439018 52.384693 
L 185.505415 69.715648 
L 185.521972 52.301096 
L 185.579787 73.890532 
L 185.612732 60.29487 
L 185.620958 88.746963 
L 185.637396 54.10407 
L 185.719341 60.044492 
L 185.73568 54.465878 
L 185.752002 55.388682 
L 185.776455 79.689997 
L 185.800871 51.531451 
L 185.857699 52.982378 
L 185.873899 63.205887 
L 185.881993 86.085405 
L 185.930471 53.998558 
L 185.978804 59.58615 
L 185.994883 73.189033 
L 186.043024 53.562277 
L 186.075039 63.294082 
L 186.091022 51.23812 
L 186.114968 91.491268 
L 186.186593 57.654701 
L 186.234167 94.333882 
L 186.289494 54.748417 
L 186.297382 54.112979 
L 186.305267 54.261824 
L 186.336767 67.147047 
L 186.360351 52.330051 
L 186.415248 60.918979 
L 186.508926 51.905301 
L 186.446535 71.046666 
L 186.524486 56.011232 
L 186.632991 109.127224 
L 186.640713 69.712189 
L 186.656147 51.812213 
L 186.740772 85.809434 
L 186.75611 53.395443 
L 186.763774 52.040803 
L 186.81732 61.489676 
L 186.824955 57.161082 
L 186.878299 68.341888 
L 186.885905 53.223155 
L 186.923883 53.972293 
L 186.931467 53.683495 
L 186.946626 105.89177 
L 186.976901 53.175907 
L 187.037282 61.218711 
L 187.044814 53.080803 
L 187.119939 71.880193 
L 187.134922 65.729717 
L 187.172319 52.279751 
L 187.246855 74.215007 
L 187.261721 57.089391 
L 187.32845 93.352058 
L 187.365402 57.812325 
L 187.453745 82.890129 
L 187.424351 53.726805 
L 187.475756 71.729714 
L 187.526997 53.585836 
L 187.519687 73.681741 
L 187.592641 55.622386 
L 187.694227 75.799618 
L 187.614463 52.747555 
L 187.708687 68.58067 
L 187.802365 52.635943 
L 187.766399 73.75963 
L 187.823906 54.05453 
L 187.83108 54.084967 
L 187.895503 76.846342 
L 187.881209 53.137749 
L 187.945432 55.04541 
L 187.95967 54.497413 
L 187.966784 55.365533 
L 187.995208 53.271342 
L 188.080183 71.989756 
L 188.150656 53.51288 
L 188.171738 88.944787 
L 188.192792 54.278906 
L 188.248804 84.52119 
L 188.262777 53.28861 
L 188.304622 55.604457 
L 188.311586 53.484335 
L 188.325505 65.871235 
L 188.367188 58.413837 
L 188.457136 55.672469 
L 188.484711 87.461767 
L 188.546585 53.142863 
L 188.594546 56.790166 
L 188.621888 85.017421 
L 188.696842 53.111196 
L 188.703639 53.11363 
L 188.724012 61.521511 
L 188.730798 79.31918 
L 188.751137 52.767345 
L 188.832238 74.602224 
L 188.906225 53.384478 
L 188.939743 84.22349 
L 188.946439 55.197406 
L 188.959821 56.923256 
L 188.973193 56.372629 
L 188.986553 83.85104 
L 189.079768 53.529073 
L 189.126174 95.230313 
L 189.205419 68.653824 
L 189.231748 83.222044 
L 189.317022 54.188868 
L 189.42136 79.957005 
L 189.440849 62.921504 
L 189.492704 54.344819 
L 189.453828 63.831177 
L 189.537941 57.568107 
L 189.615197 85.512198 
L 189.55729 53.747414 
L 189.647279 68.864324 
L 189.660094 53.982946 
L 189.749513 83.380164 
L 189.762247 54.909338 
L 189.819426 76.481394 
L 189.882722 61.689183 
L 189.889037 55.555877 
L 189.926881 87.892202 
L 189.989758 57.883398 
L 190.077377 91.253064 
L 190.046139 55.573872 
L 190.096091 58.774027 
L 190.121009 55.72525 
L 190.152103 70.684127 
L 190.158314 64.392266 
L 190.214111 91.415315 
L 190.195533 55.021939 
L 190.263547 70.904534 
L 190.343559 77.084357 
L 190.380355 55.275833 
L 190.417067 54.382488 
L 190.423177 57.202421 
L 190.435391 76.456756 
L 190.520633 55.648112 
L 190.532774 69.689476 
L 190.581246 54.04253 
L 190.635604 79.316719 
L 190.647659 54.363772 
L 190.755748 73.728218 
L 190.773693 71.93283 
L 190.86312 56.943763 
L 190.833366 75.720475 
L 190.880946 60.3188 
L 190.886884 87.504668 
L 190.904684 56.617453 
L 190.987492 58.483057 
L 190.999287 56.211247 
L 191.016963 58.834024 
L 191.105057 77.570396 
L 191.058134 54.734209 
L 191.122619 64.125553 
L 191.128468 58.330157 
L 191.169356 84.303643 
L 191.227588 62.349805 
L 191.2334 70.455678 
L 191.308762 55.852627 
L 191.33188 56.285573 
L 191.366494 87.822524 
L 191.378016 56.197807 
L 191.464169 75.424291 
L 191.572641 55.62255 
L 191.481345 81.373322 
L 191.57833 56.966596 
L 191.62944 73.940648 
L 191.640776 55.450679 
L 191.691689 59.645767 
L 191.697337 58.094415 
L 191.702982 68.34743 
L 191.714266 62.851736 
L 191.719905 91.397172 
L 191.7537 56.130619 
L 191.821077 70.747924 
L 191.86584 56.30674 
L 191.882594 85.466663 
L 191.932753 62.019513 
L 192.00493 55.933464 
L 191.949438 89.853537 
L 192.038134 58.078789 
L 192.120847 79.435251 
L 192.060233 57.193343 
L 192.148325 78.105939 
L 192.181236 56.118078 
L 192.241399 79.362498 
L 192.263222 56.301768 
L 192.268673 56.349236 
L 192.285014 55.624036 
L 192.290458 55.772849 
L 192.312214 89.98929 
L 192.366477 55.181643 
L 192.404352 62.436272 
L 192.501341 55.310541 
L 192.469076 80.17357 
L 192.506712 58.729565 
L 192.565678 89.427034 
L 192.549618 56.473335 
L 192.613764 61.835919 
L 192.682969 56.47469 
L 192.62443 85.230772 
L 192.709507 61.151495 
L 192.809959 87.427813 
L 192.799414 55.980897 
L 192.820496 61.463407 
L 192.825762 60.588154 
L 192.83629 60.940833 
L 192.841551 80.650522 
L 192.90455 57.118779 
L 192.941187 58.404078 
L 193.0038 55.812272 
L 192.982956 71.734086 
L 193.014212 64.787174 
L 193.045408 83.105861 
L 193.050601 57.426076 
L 193.123134 76.711259 
L 193.190196 58.864679 
L 193.200489 112.677042 
L 193.221054 68.101992 
L 193.226192 108.918696 
L 193.308167 57.981681 
L 193.328596 73.512645 
L 193.410055 55.821247 
L 193.399895 76.276053 
L 193.435427 59.287638 
L 193.440496 84.76622 
L 193.455696 57.809326 
L 193.546592 60.776669 
L 193.561692 55.98609 
L 193.60189 77.40515 
L 193.641987 59.612619 
L 193.656998 92.090052 
L 193.69696 57.606045 
L 193.751746 59.220314 
L 193.771622 63.524979 
L 193.816254 57.51733 
L 193.880506 78.368073 
L 193.890369 57.941554 
L 193.910075 87.083196 
L 193.988662 59.874956 
L 194.013142 87.310388 
L 194.052233 57.088449 
L 194.100965 66.551065 
L 194.10583 66.665635 
L 194.168943 94.631949 
L 194.120416 57.533512 
L 194.217324 69.177549 
L 194.304047 56.853112 
L 194.318456 76.663053 
L 194.328055 66.339611 
L 194.399864 87.433386 
L 194.352027 58.62136 
L 194.442796 70.64838 
L 194.461841 57.476722 
L 194.485615 82.414555 
L 194.551998 61.218723 
L 194.585087 56.53585 
L 194.665165 97.277127 
L 194.693334 57.298168 
L 194.777546 87.194892 
L 194.782212 89.356431 
L 194.800861 60.869978 
L 194.828794 74.096123 
L 194.903047 58.723837 
L 194.87988 76.529509 
L 194.940047 66.315722 
L 195.022986 87.894228 
L 195.013792 56.516144 
L 195.050538 70.226766 
L 195.114645 57.366867 
L 195.091779 87.832323 
L 195.16028 61.349406 
L 195.264754 89.506794 
L 195.187599 59.110167 
L 195.269281 64.016926 
L 195.273807 74.463976 
L 195.373055 57.865491 
L 195.377552 60.02482 
L 195.386542 78.181422 
L 195.435897 57.534874 
L 195.494032 77.043173 
L 195.596377 57.822416 
L 195.543061 77.966469 
L 195.609679 62.633257 
L 195.671609 58.174296 
L 195.63625 82.095753 
L 195.706892 64.133983 
L 195.75528 95.53589 
L 195.737701 57.492191 
L 195.812279 57.561904 
L 195.855989 95.100133 
L 195.916984 57.351178 
L 195.925679 73.301182 
L 196.008047 58.971216 
L 196.021015 96.78417 
L 196.038288 64.597536 
L 196.132964 58.109868 
L 196.089998 78.532403 
L 196.137254 61.069784 
L 196.180094 79.62177 
L 196.227088 58.05438 
L 196.244143 58.517508 
L 196.34186 100.852129 
L 196.350329 60.019229 
L 196.354562 58.010593 
L 196.379936 88.496161 
L 196.40949 75.266007 
L 196.472637 92.459897 
L 196.481038 60.745347 
L 196.510407 61.759173 
L 196.518789 58.575075 
L 196.527166 62.757056 
L 196.531353 62.076364 
L 196.610698 84.043118 
L 196.573162 59.360138 
L 196.643991 82.024069 
L 196.722787 58.679869 
L 196.693801 85.418037 
L 196.75585 68.9964 
L 196.834103 97.273513 
L 196.805317 60.113369 
L 196.862838 85.274551 
L 196.924242 58.176136 
L 196.916068 90.889849 
L 196.97727 66.043512 
L 197.082808 59.476825 
L 197.046354 90.384 
L 197.086853 62.112138 
L 197.147413 79.967188 
L 197.175597 59.399023 
L 197.195698 68.390956 
L 197.227808 58.848847 
L 197.215774 91.09297 
L 197.295831 72.440954 
L 197.387408 87.447926 
L 197.351635 58.641684 
L 197.403282 60.111287 
L 197.41914 59.590419 
L 197.423102 63.701508 
L 197.521839 92.772848 
L 197.470571 58.840842 
L 197.533647 68.069657 
L 197.572946 59.146483 
L 197.608232 86.112284 
L 197.64735 61.519405 
L 197.670775 96.141257 
L 197.740847 59.120054 
L 197.752496 60.771652 
L 197.756377 59.092964 
L 197.771892 82.782525 
L 197.829943 71.904742 
L 197.918551 60.78356 
L 197.93775 91.449565 
L 197.953092 60.457894 
L 198.048653 63.743407 
L 198.151229 98.511527 
L 198.090522 59.227989 
L 198.158801 63.782696 
L 198.181497 100.773077 
L 198.241863 60.308483 
L 198.268203 71.613425 
L 198.365662 60.133977 
L 198.317006 94.734487 
L 198.369398 62.949681 
L 198.40299 89.367379 
L 198.395531 62.719599 
L 198.481099 79.00273 
L 198.588348 61.150042 
L 198.558833 87.945916 
L 198.592034 61.43924 
L 198.676571 98.440462 
L 198.610449 60.18465 
L 198.705871 79.305231 
L 198.808008 93.279707 
L 198.818912 59.561931 
L 198.884188 95.102987 
L 198.862459 59.320337 
L 198.934777 66.006428 
L 199.035481 59.688639 
L 198.952806 90.8064 
L 199.039066 62.873293 
L 199.056979 84.867612 
L 199.146247 60.901189 
L 199.153368 80.736736 
L 199.249185 61.366807 
L 199.231484 100.124945 
L 199.266867 61.659608 
L 199.270401 61.803987 
L 199.273934 61.738084 
L 199.383084 84.175561 
L 199.376064 60.31022 
L 199.386592 71.080027 
L 199.411132 60.319043 
L 199.428637 89.357935 
L 199.498471 67.206037 
L 199.588805 89.220796 
L 199.533274 60.209434 
L 199.599196 73.157022 
L 199.606119 59.824744 
L 199.626872 88.276764 
L 199.713055 61.927623 
L 199.726802 83.704862 
L 199.788518 61.81714 
L 199.829532 65.382245 
L 199.839769 62.074866 
L 199.84318 67.185509 
L 199.85 90.741466 
L 199.904454 60.819472 
L 199.951952 67.905306 
L 199.962112 81.674259 
L 200.002688 62.23589 
L 200.019564 68.786173 
L 200.02631 60.907385 
L 200.083535 84.746109 
L 200.13051 67.139487 
L 200.217389 119.624076 
L 200.194044 61.475728 
L 200.237371 61.499192 
L 200.240699 60.633874 
L 200.283902 75.352799 
L 200.290538 66.476271 
L 200.356751 93.548586 
L 200.379862 61.832265 
L 200.399645 74.40527 
L 200.494923 61.471426 
L 200.409528 83.048799 
L 200.511293 68.107441 
L 200.524378 92.351589 
L 200.537452 61.115137 
L 200.628674 77.098178 
L 200.693519 61.114255 
L 200.657887 80.905566 
L 200.741983 65.329053 
L 200.761328 89.046325 
L 200.816012 60.915727 
L 200.851298 63.442123 
L 200.953512 97.957653 
L 200.889704 61.148341 
L 200.959879 62.409398 
L 201.074058 105.211161 
L 201.036088 60.97972 
L 201.080378 67.962713 
L 201.121395 61.269075 
L 201.149731 90.141054 
L 201.168594 65.914544 
L 201.256332 93.06204 
L 201.209389 61.279447 
L 201.278192 66.574237 
L 201.312484 92.406356 
L 201.300023 61.567496 
L 201.387052 64.410183 
L 201.427299 62.757935 
L 201.414926 79.343287 
L 201.433482 75.203791 
L 201.436573 97.407035 
L 201.53209 60.866257 
L 201.541304 92.127246 
L 201.65451 60.990579 
L 201.77601 114.543041 
L 201.779036 79.893885 
L 201.851486 61.595944 
L 201.857509 93.35967 
L 201.890594 70.175798 
L 201.944589 101.05633 
L 201.983473 62.087811 
L 201.992433 77.263821 
L 202.08473 63.039167 
L 202.055014 82.881309 
L 202.102533 71.455369 
L 202.105498 71.724978 
L 202.111427 62.572224 
L 202.114391 62.056776 
L 202.123279 71.765269 
L 202.132162 118.93446 
L 202.197154 63.011238 
L 202.232494 63.498398 
L 202.340976 97.695999 
L 202.282428 61.543854 
L 202.346819 64.609117 
L 202.396401 89.821187 
L 202.431309 63.974773 
L 202.451637 64.749006 
L 202.460341 62.340694 
L 202.495111 82.828688 
L 202.512468 67.925519 
L 202.564428 98.045629 
L 202.621965 63.19917 
L 202.642055 62.190607 
L 202.633448 71.090913 
L 202.644923 65.444136 
L 202.725019 101.246248 
L 202.670711 62.845398 
L 202.756377 86.029475 
L 202.79904 61.976112 
L 202.841591 95.789046 
L 202.86141 81.681648 
L 202.864239 113.924194 
L 202.968575 63.146565 
L 202.971386 62.738132 
L 202.977005 74.799106 
L 203.066655 91.504155 
L 203.010682 62.914057 
L 203.083409 62.950151 
L 203.0862 63.015701 
L 203.158589 123.553286 
L 203.175248 62.673168 
L 203.200204 94.722792 
L 203.208515 62.74795 
L 203.296893 103.096128 
L 203.310658 75.905661 
L 203.343648 116.234046 
L 203.387529 63.001993 
L 203.417629 80.457962 
L 203.450401 62.79464 
L 203.515747 86.917181 
L 203.532042 64.975756 
L 203.564583 89.920655 
L 203.575415 62.988447 
L 203.642954 73.686638 
L 203.710212 62.995305 
L 203.667199 96.123116 
L 203.750433 66.206733 
L 203.822579 91.880458 
L 203.777191 63.418342 
L 203.862521 72.066706 
L 203.947403 63.188285 
L 203.918275 118.795852 
L 203.973838 65.477758 
L 204.002866 107.465575 
L 203.992316 63.17728 
L 204.087016 73.067365 
L 204.123694 63.502826 
L 204.09226 85.219385 
L 204.186378 68.692434 
L 204.282541 87.428901 
L 204.264392 63.181707 
L 204.295493 69.393983 
L 204.393585 63.982555 
L 204.305846 93.928639 
L 204.396158 67.514659 
L 204.503871 95.897465 
L 204.409019 63.411084 
L 204.506427 72.790863 
L 204.5192 63.009355 
L 204.590544 106.006232 
L 204.618486 64.699369 
L 204.621023 63.845968 
L 204.638777 93.309225 
L 204.641311 97.000818 
L 204.69192 63.383757 
L 204.732293 70.659458 
L 204.777593 63.390122 
L 204.810231 87.816858 
L 204.817753 69.275851 
L 204.912735 98.723693 
L 204.9227 63.424348 
L 204.927681 68.093339 
L 205.024496 89.690832 
L 204.979884 63.251047 
L 205.036866 84.385558 
L 205.088718 64.33864 
L 205.096112 98.825363 
L 205.147775 70.746823 
L 205.211511 113.448043 
L 205.155142 63.746709 
L 205.257928 91.87939 
L 205.32852 64.601948 
L 205.299347 102.66499 
L 205.37218 65.457234 
L 205.377024 104.539725 
L 205.418139 63.377773 
L 205.490441 70.268854 
L 205.495249 66.373522 
L 205.497653 71.044981 
L 205.51447 110.21955 
L 205.552841 64.725592 
L 205.607842 96.334013 
L 205.63408 64.119404 
L 205.615002 105.412225 
L 205.719655 69.884701 
L 205.807138 104.29283 
L 205.797703 64.395461 
L 205.828346 70.702964 
L 205.922268 64.672687 
L 205.882418 98.19532 
L 205.929291 72.70709 
L 205.973694 97.249617 
L 206.001676 64.330126 
L 206.036585 68.764331 
L 206.085331 65.09173 
L 206.055172 84.579858 
L 206.108492 68.888392 
L 206.166249 100.243542 
L 206.124685 65.03123 
L 206.219204 69.027144 
L 206.297169 102.901687 
L 206.23299 64.259297 
L 206.31546 92.542631 
L 206.381589 64.223755 
L 206.427037 66.937066 
L 206.431575 76.23519 
L 206.436112 64.604874 
L 206.43838 68.069395 
L 206.440647 94.203618 
L 206.497232 65.730921 
L 206.549115 66.390687 
L 206.551367 65.120829 
L 206.560372 96.455544 
L 206.625508 83.702323 
L 206.679216 104.316614 
L 206.66357 64.724336 
L 206.730519 70.609391 
L 206.841489 64.660743 
L 206.817141 102.489867 
L 206.843701 65.225777 
L 206.947308 106.293144 
L 206.958291 72.365549 
L 206.967072 65.009706 
L 206.995577 110.014187 
L 207.06335 69.59515 
L 207.078614 112.082859 
L 207.130839 64.852455 
L 207.174232 67.716164 
L 207.282206 92.311003 
L 207.247733 65.699037 
L 207.284358 84.021833 
L 207.297265 65.775857 
L 207.323048 93.834055 
L 207.395877 67.704497 
L 207.498138 96.181668 
L 207.42577 65.446197 
L 207.506631 88.288361 
L 207.582864 65.563254 
L 207.563839 102.113263 
L 207.618739 69.60902 
L 207.648223 99.338736 
L 207.644014 65.869823 
L 207.730074 71.991178 
L 207.734261 66.249681 
L 207.740538 89.565382 
L 207.750995 70.765259 
L 207.851041 102.834998 
L 207.815679 65.392253 
L 207.861426 73.594122 
L 207.929806 65.315846 
L 207.867655 93.006709 
L 207.969046 67.456227 
L 207.997898 101.082863 
L 207.981417 65.479696 
L 208.08005 67.631025 
L 208.174012 106.504759 
L 208.096431 65.67764 
L 208.192332 70.020693 
L 208.27148 65.510481 
L 208.23297 95.613528 
L 208.285646 84.690648 
L 208.287668 100.622438 
L 208.364339 66.231077 
L 208.394504 83.633742 
L 208.418595 65.378029 
L 208.484662 100.970385 
L 208.506625 69.397175 
L 208.566371 103.548906 
L 208.520585 65.552497 
L 208.615991 87.174038 
L 208.619955 66.593936 
L 208.653601 109.034373 
L 208.689151 67.447958 
" style="fill:none;stroke:#000000;stroke-linecap:square;stroke-width:0.5;"/>
   </g>
   <g id="line2d_55">
    <path clip-path="url(#p7860128c7a)" d="M 63.08053 26.32825 
L 100.288832 26.443732 
L 109.787088 26.695865 
L 115.729285 27.068761 
L 120.53268 27.601404 
L 124.59376 28.290742 
L 128.127637 29.117106 
L 131.500982 30.128228 
L 135.059932 31.436556 
L 138.740775 33.033877 
L 142.934309 35.109352 
L 147.869081 37.813144 
L 154.307339 41.611416 
L 164.013619 47.623691 
L 184.221636 60.460392 
L 208.691124 76.090984 
L 208.691124 76.090984 
" style="fill:none;stroke:#ff0000;stroke-linecap:square;stroke-width:2;"/>
   </g>
   <g id="patch_3">
    <path d="M 55.8 128.92249 
L 55.8 10.8 
" style="fill:none;stroke:#000000;stroke-linecap:square;stroke-linejoin:miter;stroke-width:0.8;"/>
   </g>
   <g id="patch_4">
    <path d="M 215.971654 128.92249 
L 215.971654 10.8 
" style="fill:none;stroke:#000000;stroke-linecap:square;stroke-linejoin:miter;stroke-width:0.8;"/>
   </g>
   <g id="patch_5">
    <path d="M 55.8 128.92249 
L 215.971654 128.92249 
" style="fill:none;stroke:#000000;stroke-linecap:square;stroke-linejoin:miter;stroke-width:0.8;"/>
   </g>
   <g id="patch_6">
    <path d="M 55.8 10.8 
L 215.971654 10.8 
" style="fill:none;stroke:#000000;stroke-linecap:square;stroke-linejoin:miter;stroke-width:0.8;"/>
   </g>
   <g id="legend_1">
    <g id="patch_7">
     <path d="M 62.8 123.92249 
L 144.19375 123.92249 
Q 146.19375 123.92249 146.19375 121.92249 
L 146.19375 93.56624 
Q 146.19375 91.56624 144.19375 91.56624 
L 62.8 91.56624 
Q 60.8 91.56624 60.8 93.56624 
L 60.8 121.92249 
Q 60.8 123.92249 62.8 123.92249 
z
" style="fill:#ffffff;opacity:0.8;stroke:#cccccc;stroke-linejoin:miter;"/>
    </g>
    <g id="line2d_56">
     <path d="M 64.8 99.664678 
L 84.8 99.664678 
" style="fill:none;stroke:#000000;stroke-linecap:square;stroke-width:0.5;"/>
    </g>
    <g id="line2d_57"/>
    <g id="text_11">
     <!-- simulated -->
     <defs>
      <path d="M 44.28125 53.078125 
L 44.28125 44.578125 
Q 40.484375 46.53125 36.375 47.5 
Q 32.28125 48.484375 27.875 48.484375 
Q 21.1875 48.484375 17.84375 46.4375 
Q 14.5 44.390625 14.5 40.28125 
Q 14.5 37.15625 16.890625 35.375 
Q 19.28125 33.59375 26.515625 31.984375 
L 29.59375 31.296875 
Q 39.15625 29.25 43.1875 25.515625 
Q 47.21875 21.78125 47.21875 15.09375 
Q 47.21875 7.46875 41.1875 3.015625 
Q 35.15625 -1.421875 24.609375 -1.421875 
Q 20.21875 -1.421875 15.453125 -0.5625 
Q 10.6875 0.296875 5.421875 2 
L 5.421875 11.28125 
Q 10.40625 8.6875 15.234375 7.390625 
Q 20.0625 6.109375 24.8125 6.109375 
Q 31.15625 6.109375 34.5625 8.28125 
Q 37.984375 10.453125 37.984375 14.40625 
Q 37.984375 18.0625 35.515625 20.015625 
Q 33.0625 21.96875 24.703125 23.78125 
L 21.578125 24.515625 
Q 13.234375 26.265625 9.515625 29.90625 
Q 5.8125 33.546875 5.8125 39.890625 
Q 5.8125 47.609375 11.28125 51.796875 
Q 16.75 56 26.8125 56 
Q 31.78125 56 36.171875 55.265625 
Q 40.578125 54.546875 44.28125 53.078125 
z
" id="DejaVuSans-115"/>
      <path d="M 9.421875 54.6875 
L 18.40625 54.6875 
L 18.40625 0 
L 9.421875 0 
z
M 9.421875 75.984375 
L 18.40625 75.984375 
L 18.40625 64.59375 
L 9.421875 64.59375 
z
" id="DejaVuSans-105"/>
      <path d="M 52 44.1875 
Q 55.375 50.25 60.0625 53.125 
Q 64.75 56 71.09375 56 
Q 79.640625 56 84.28125 50.015625 
Q 88.921875 44.046875 88.921875 33.015625 
L 88.921875 0 
L 79.890625 0 
L 79.890625 32.71875 
Q 79.890625 40.578125 77.09375 44.375 
Q 74.3125 48.1875 68.609375 48.1875 
Q 61.625 48.1875 57.5625 43.546875 
Q 53.515625 38.921875 53.515625 30.90625 
L 53.515625 0 
L 44.484375 0 
L 44.484375 32.71875 
Q 44.484375 40.625 41.703125 44.40625 
Q 38.921875 48.1875 33.109375 48.1875 
Q 26.21875 48.1875 22.15625 43.53125 
Q 18.109375 38.875 18.109375 30.90625 
L 18.109375 0 
L 9.078125 0 
L 9.078125 54.6875 
L 18.109375 54.6875 
L 18.109375 46.1875 
Q 21.1875 51.21875 25.484375 53.609375 
Q 29.78125 56 35.6875 56 
Q 41.65625 56 45.828125 52.96875 
Q 50 49.953125 52 44.1875 
z
" id="DejaVuSans-109"/>
      <path d="M 8.5 21.578125 
L 8.5 54.6875 
L 17.484375 54.6875 
L 17.484375 21.921875 
Q 17.484375 14.15625 20.5 10.265625 
Q 23.53125 6.390625 29.59375 6.390625 
Q 36.859375 6.390625 41.078125 11.03125 
Q 45.3125 15.671875 45.3125 23.6875 
L 45.3125 54.6875 
L 54.296875 54.6875 
L 54.296875 0 
L 45.3125 0 
L 45.3125 8.40625 
Q 42.046875 3.421875 37.71875 1 
Q 33.40625 -1.421875 27.6875 -1.421875 
Q 18.265625 -1.421875 13.375 4.4375 
Q 8.5 10.296875 8.5 21.578125 
z
M 31.109375 56 
z
" id="DejaVuSans-117"/>
      <path d="M 9.421875 75.984375 
L 18.40625 75.984375 
L 18.40625 0 
L 9.421875 0 
z
" id="DejaVuSans-108"/>
      <path d="M 34.28125 27.484375 
Q 23.390625 27.484375 19.1875 25 
Q 14.984375 22.515625 14.984375 16.5 
Q 14.984375 11.71875 18.140625 8.90625 
Q 21.296875 6.109375 26.703125 6.109375 
Q 34.1875 6.109375 38.703125 11.40625 
Q 43.21875 16.703125 43.21875 25.484375 
L 43.21875 27.484375 
z
M 52.203125 31.203125 
L 52.203125 0 
L 43.21875 0 
L 43.21875 8.296875 
Q 40.140625 3.328125 35.546875 0.953125 
Q 30.953125 -1.421875 24.3125 -1.421875 
Q 15.921875 -1.421875 10.953125 3.296875 
Q 6 8.015625 6 15.921875 
Q 6 25.140625 12.171875 29.828125 
Q 18.359375 34.515625 30.609375 34.515625 
L 43.21875 34.515625 
L 43.21875 35.40625 
Q 43.21875 41.609375 39.140625 45 
Q 35.0625 48.390625 27.6875 48.390625 
Q 23 48.390625 18.546875 47.265625 
Q 14.109375 46.140625 10.015625 43.890625 
L 10.015625 52.203125 
Q 14.9375 54.109375 19.578125 55.046875 
Q 24.21875 56 28.609375 56 
Q 40.484375 56 46.34375 49.84375 
Q 52.203125 43.703125 52.203125 31.203125 
z
" id="DejaVuSans-97"/>
      <path d="M 18.3125 70.21875 
L 18.3125 54.6875 
L 36.8125 54.6875 
L 36.8125 47.703125 
L 18.3125 47.703125 
L 18.3125 18.015625 
Q 18.3125 11.328125 20.140625 9.421875 
Q 21.96875 7.515625 27.59375 7.515625 
L 36.8125 7.515625 
L 36.8125 0 
L 27.59375 0 
Q 17.1875 0 13.234375 3.875 
Q 9.28125 7.765625 9.28125 18.015625 
L 9.28125 47.703125 
L 2.6875 47.703125 
L 2.6875 54.6875 
L 9.28125 54.6875 
L 9.28125 70.21875 
z
" id="DejaVuSans-116"/>
      <path d="M 56.203125 29.59375 
L 56.203125 25.203125 
L 14.890625 25.203125 
Q 15.484375 15.921875 20.484375 11.0625 
Q 25.484375 6.203125 34.421875 6.203125 
Q 39.59375 6.203125 44.453125 7.46875 
Q 49.3125 8.734375 54.109375 11.28125 
L 54.109375 2.78125 
Q 49.265625 0.734375 44.1875 -0.34375 
Q 39.109375 -1.421875 33.890625 -1.421875 
Q 20.796875 -1.421875 13.15625 6.1875 
Q 5.515625 13.8125 5.515625 26.8125 
Q 5.515625 40.234375 12.765625 48.109375 
Q 20.015625 56 32.328125 56 
Q 43.359375 56 49.78125 48.890625 
Q 56.203125 41.796875 56.203125 29.59375 
z
M 47.21875 32.234375 
Q 47.125 39.59375 43.09375 43.984375 
Q 39.0625 48.390625 32.421875 48.390625 
Q 24.90625 48.390625 20.390625 44.140625 
Q 15.875 39.890625 15.1875 32.171875 
z
" id="DejaVuSans-101"/>
      <path d="M 45.40625 46.390625 
L 45.40625 75.984375 
L 54.390625 75.984375 
L 54.390625 0 
L 45.40625 0 
L 45.40625 8.203125 
Q 42.578125 3.328125 38.25 0.953125 
Q 33.9375 -1.421875 27.875 -1.421875 
Q 17.96875 -1.421875 11.734375 6.484375 
Q 5.515625 14.40625 5.515625 27.296875 
Q 5.515625 40.1875 11.734375 48.09375 
Q 17.96875 56 27.875 56 
Q 33.9375 56 38.25 53.625 
Q 42.578125 51.265625 45.40625 46.390625 
z
M 14.796875 27.296875 
Q 14.796875 17.390625 18.875 11.75 
Q 22.953125 6.109375 30.078125 6.109375 
Q 37.203125 6.109375 41.296875 11.75 
Q 45.40625 17.390625 45.40625 27.296875 
Q 45.40625 37.203125 41.296875 42.84375 
Q 37.203125 48.484375 30.078125 48.484375 
Q 22.953125 48.484375 18.875 42.84375 
Q 14.796875 37.203125 14.796875 27.296875 
z
" id="DejaVuSans-100"/>
     </defs>
     <g transform="translate(92.8 103.164678)scale(0.1 -0.1)">
      <use xlink:href="#DejaVuSans-115"/>
      <use x="52.099609" xlink:href="#DejaVuSans-105"/>
      <use x="79.882812" xlink:href="#DejaVuSans-109"/>
      <use x="177.294922" xlink:href="#DejaVuSans-117"/>
      <use x="240.673828" xlink:href="#DejaVuSans-108"/>
      <use x="268.457031" xlink:href="#DejaVuSans-97"/>
      <use x="329.736328" xlink:href="#DejaVuSans-116"/>
      <use x="368.945312" xlink:href="#DejaVuSans-101"/>
      <use x="430.46875" xlink:href="#DejaVuSans-100"/>
     </g>
    </g>
    <g id="line2d_58">
     <path d="M 64.8 114.342803 
L 84.8 114.342803 
" style="fill:none;stroke:#ff0000;stroke-linecap:square;stroke-width:2;"/>
    </g>
    <g id="line2d_59"/>
    <g id="text_12">
     <!-- target -->
     <defs>
      <path d="M 41.109375 46.296875 
Q 39.59375 47.171875 37.8125 47.578125 
Q 36.03125 48 33.890625 48 
Q 26.265625 48 22.1875 43.046875 
Q 18.109375 38.09375 18.109375 28.8125 
L 18.109375 0 
L 9.078125 0 
L 9.078125 54.6875 
L 18.109375 54.6875 
L 18.109375 46.1875 
Q 20.953125 51.171875 25.484375 53.578125 
Q 30.03125 56 36.53125 56 
Q 37.453125 56 38.578125 55.875 
Q 39.703125 55.765625 41.0625 55.515625 
z
" id="DejaVuSans-114"/>
      <path d="M 45.40625 27.984375 
Q 45.40625 37.75 41.375 43.109375 
Q 37.359375 48.484375 30.078125 48.484375 
Q 22.859375 48.484375 18.828125 43.109375 
Q 14.796875 37.75 14.796875 27.984375 
Q 14.796875 18.265625 18.828125 12.890625 
Q 22.859375 7.515625 30.078125 7.515625 
Q 37.359375 7.515625 41.375 12.890625 
Q 45.40625 18.265625 45.40625 27.984375 
z
M 54.390625 6.78125 
Q 54.390625 -7.171875 48.1875 -13.984375 
Q 42 -20.796875 29.203125 -20.796875 
Q 24.46875 -20.796875 20.265625 -20.09375 
Q 16.0625 -19.390625 12.109375 -17.921875 
L 12.109375 -9.1875 
Q 16.0625 -11.328125 19.921875 -12.34375 
Q 23.78125 -13.375 27.78125 -13.375 
Q 36.625 -13.375 41.015625 -8.765625 
Q 45.40625 -4.15625 45.40625 5.171875 
L 45.40625 9.625 
Q 42.625 4.78125 38.28125 2.390625 
Q 33.9375 0 27.875 0 
Q 17.828125 0 11.671875 7.65625 
Q 5.515625 15.328125 5.515625 27.984375 
Q 5.515625 40.671875 11.671875 48.328125 
Q 17.828125 56 27.875 56 
Q 33.9375 56 38.28125 53.609375 
Q 42.625 51.21875 45.40625 46.390625 
L 45.40625 54.6875 
L 54.390625 54.6875 
z
" id="DejaVuSans-103"/>
     </defs>
     <g transform="translate(92.8 117.842803)scale(0.1 -0.1)">
      <use xlink:href="#DejaVuSans-116"/>
      <use x="39.208984" xlink:href="#DejaVuSans-97"/>
      <use x="100.488281" xlink:href="#DejaVuSans-114"/>
      <use x="141.585938" xlink:href="#DejaVuSans-103"/>
      <use x="205.0625" xlink:href="#DejaVuSans-101"/>
      <use x="266.585938" xlink:href="#DejaVuSans-116"/>
     </g>
    </g>
   </g>
  </g>
 </g>
 <defs>
  <clipPath id="p7860128c7a">
   <rect height="118.12249" width="160.171654" x="55.8" y="10.8"/>
  </clipPath>
 </defs>
</svg>
