<?xml version="1.0" encoding="utf-8" standalone="no"?>
<!DOCTYPE svg PUBLIC "-//W3C//DTD SVG 1.1//EN"
  "http://www.w3.org/Graphics/SVG/1.1/DTD/svg11.dtd">
<!-- Created with matplotlib (https://matplotlib.org/) -->
<svg height="170.07874pt" version="1.1" viewBox="0 0 226.771654 170.07874" width="226.771654pt" xmlns="http://www.w3.org/2000/svg" xmlns:xlink="http://www.w3.org/1999/xlink">
 <defs>
  <style type="text/css">
*{stroke-linecap:butt;stroke-linejoin:round;}
  </style>
 </defs>
 <g id="figure_1">
  <g id="patch_1">
   <path d="M 0 170.07874 
L 226.771654 170.07874 
L 226.771654 0 
L 0 0 
z
" style="fill:#ffffff;"/>
  </g>
  <g id="axes_1">
   <g id="patch_2">
    <path d="M 55.8 128.92249 
L 215.971654 128.92249 
L 215.971654 10.8 
L 55.8 10.8 
z
" style="fill:#ffffff;"/>
   </g>
   <g id="matplotlib.axis_1">
    <g id="xtick_1">
     <g id="line2d_1">
      <path clip-path="url(#pb9ed711e9d)" d="M 86.718933 128.92249 
L 86.718933 10.8 
" style="fill:none;stroke:#b0b0b0;stroke-linecap:square;stroke-width:0.8;"/>
     </g>
     <g id="line2d_2">
      <defs>
       <path d="M 0 0 
L 0 3.5 
" id="mf2d5191d57" style="stroke:#000000;stroke-width:0.8;"/>
      </defs>
      <g>
       <use style="stroke:#000000;stroke-width:0.8;" x="86.718933" xlink:href="#mf2d5191d57" y="128.92249"/>
      </g>
     </g>
     <g id="text_1">
      <!-- $\mathdefault{10^{-4}}$ -->
      <defs>
       <path d="M 12.40625 8.296875 
L 28.515625 8.296875 
L 28.515625 63.921875 
L 10.984375 60.40625 
L 10.984375 69.390625 
L 28.421875 72.90625 
L 38.28125 72.90625 
L 38.28125 8.296875 
L 54.390625 8.296875 
L 54.390625 0 
L 12.40625 0 
z
" id="DejaVuSans-49"/>
       <path d="M 31.78125 66.40625 
Q 24.171875 66.40625 20.328125 58.90625 
Q 16.5 51.421875 16.5 36.375 
Q 16.5 21.390625 20.328125 13.890625 
Q 24.171875 6.390625 31.78125 6.390625 
Q 39.453125 6.390625 43.28125 13.890625 
Q 47.125 21.390625 47.125 36.375 
Q 47.125 51.421875 43.28125 58.90625 
Q 39.453125 66.40625 31.78125 66.40625 
z
M 31.78125 74.21875 
Q 44.046875 74.21875 50.515625 64.515625 
Q 56.984375 54.828125 56.984375 36.375 
Q 56.984375 17.96875 50.515625 8.265625 
Q 44.046875 -1.421875 31.78125 -1.421875 
Q 19.53125 -1.421875 13.0625 8.265625 
Q 6.59375 17.96875 6.59375 36.375 
Q 6.59375 54.828125 13.0625 64.515625 
Q 19.53125 74.21875 31.78125 74.21875 
z
" id="DejaVuSans-48"/>
       <path d="M 10.59375 35.5 
L 73.1875 35.5 
L 73.1875 27.203125 
L 10.59375 27.203125 
z
" id="DejaVuSans-8722"/>
       <path d="M 37.796875 64.3125 
L 12.890625 25.390625 
L 37.796875 25.390625 
z
M 35.203125 72.90625 
L 47.609375 72.90625 
L 47.609375 25.390625 
L 58.015625 25.390625 
L 58.015625 17.1875 
L 47.609375 17.1875 
L 47.609375 0 
L 37.796875 0 
L 37.796875 17.1875 
L 4.890625 17.1875 
L 4.890625 26.703125 
z
" id="DejaVuSans-52"/>
      </defs>
      <g transform="translate(74.968933 143.520928)scale(0.1 -0.1)">
       <use transform="translate(0 0.684375)" xlink:href="#DejaVuSans-49"/>
       <use transform="translate(63.623047 0.684375)" xlink:href="#DejaVuSans-48"/>
       <use transform="translate(128.203125 38.965625)scale(0.7)" xlink:href="#DejaVuSans-8722"/>
       <use transform="translate(186.855469 38.965625)scale(0.7)" xlink:href="#DejaVuSans-52"/>
      </g>
     </g>
    </g>
    <g id="xtick_2">
     <g id="line2d_3">
      <path clip-path="url(#pb9ed711e9d)" d="M 141.208374 128.92249 
L 141.208374 10.8 
" style="fill:none;stroke:#b0b0b0;stroke-linecap:square;stroke-width:0.8;"/>
     </g>
     <g id="line2d_4">
      <g>
       <use style="stroke:#000000;stroke-width:0.8;" x="141.208374" xlink:href="#mf2d5191d57" y="128.92249"/>
      </g>
     </g>
     <g id="text_2">
      <!-- $\mathdefault{10^{-2}}$ -->
      <defs>
       <path d="M 19.1875 8.296875 
L 53.609375 8.296875 
L 53.609375 0 
L 7.328125 0 
L 7.328125 8.296875 
Q 12.9375 14.109375 22.625 23.890625 
Q 32.328125 33.6875 34.8125 36.53125 
Q 39.546875 41.84375 41.421875 45.53125 
Q 43.3125 49.21875 43.3125 52.78125 
Q 43.3125 58.59375 39.234375 62.25 
Q 35.15625 65.921875 28.609375 65.921875 
Q 23.96875 65.921875 18.8125 64.3125 
Q 13.671875 62.703125 7.8125 59.421875 
L 7.8125 69.390625 
Q 13.765625 71.78125 18.9375 73 
Q 24.125 74.21875 28.421875 74.21875 
Q 39.75 74.21875 46.484375 68.546875 
Q 53.21875 62.890625 53.21875 53.421875 
Q 53.21875 48.921875 51.53125 44.890625 
Q 49.859375 40.875 45.40625 35.40625 
Q 44.1875 33.984375 37.640625 27.21875 
Q 31.109375 20.453125 19.1875 8.296875 
z
" id="DejaVuSans-50"/>
      </defs>
      <g transform="translate(129.458374 143.520928)scale(0.1 -0.1)">
       <use transform="translate(0 0.765625)" xlink:href="#DejaVuSans-49"/>
       <use transform="translate(63.623047 0.765625)" xlink:href="#DejaVuSans-48"/>
       <use transform="translate(128.203125 39.046875)scale(0.7)" xlink:href="#DejaVuSans-8722"/>
       <use transform="translate(186.855469 39.046875)scale(0.7)" xlink:href="#DejaVuSans-50"/>
      </g>
     </g>
    </g>
    <g id="xtick_3">
     <g id="line2d_5">
      <path clip-path="url(#pb9ed711e9d)" d="M 195.697814 128.92249 
L 195.697814 10.8 
" style="fill:none;stroke:#b0b0b0;stroke-linecap:square;stroke-width:0.8;"/>
     </g>
     <g id="line2d_6">
      <g>
       <use style="stroke:#000000;stroke-width:0.8;" x="195.697814" xlink:href="#mf2d5191d57" y="128.92249"/>
      </g>
     </g>
     <g id="text_3">
      <!-- $\mathdefault{10^{0}}$ -->
      <g transform="translate(186.897814 143.520928)scale(0.1 -0.1)">
       <use transform="translate(0 0.765625)" xlink:href="#DejaVuSans-49"/>
       <use transform="translate(63.623047 0.765625)" xlink:href="#DejaVuSans-48"/>
       <use transform="translate(128.203125 39.046875)scale(0.7)" xlink:href="#DejaVuSans-48"/>
      </g>
     </g>
    </g>
    <g id="text_4">
     <!-- f (Hz) -->
     <defs>
      <path d="M 37.109375 75.984375 
L 37.109375 68.5 
L 28.515625 68.5 
Q 23.6875 68.5 21.796875 66.546875 
Q 19.921875 64.59375 19.921875 59.515625 
L 19.921875 54.6875 
L 34.71875 54.6875 
L 34.71875 47.703125 
L 19.921875 47.703125 
L 19.921875 0 
L 10.890625 0 
L 10.890625 47.703125 
L 2.296875 47.703125 
L 2.296875 54.6875 
L 10.890625 54.6875 
L 10.890625 58.5 
Q 10.890625 67.625 15.140625 71.796875 
Q 19.390625 75.984375 28.609375 75.984375 
z
" id="DejaVuSans-102"/>
      <path id="DejaVuSans-32"/>
      <path d="M 31 75.875 
Q 24.46875 64.65625 21.28125 53.65625 
Q 18.109375 42.671875 18.109375 31.390625 
Q 18.109375 20.125 21.3125 9.0625 
Q 24.515625 -2 31 -13.1875 
L 23.1875 -13.1875 
Q 15.875 -1.703125 12.234375 9.375 
Q 8.59375 20.453125 8.59375 31.390625 
Q 8.59375 42.28125 12.203125 53.3125 
Q 15.828125 64.359375 23.1875 75.875 
z
" id="DejaVuSans-40"/>
      <path d="M 9.8125 72.90625 
L 19.671875 72.90625 
L 19.671875 43.015625 
L 55.515625 43.015625 
L 55.515625 72.90625 
L 65.375 72.90625 
L 65.375 0 
L 55.515625 0 
L 55.515625 34.71875 
L 19.671875 34.71875 
L 19.671875 0 
L 9.8125 0 
z
" id="DejaVuSans-72"/>
      <path d="M 5.515625 54.6875 
L 48.1875 54.6875 
L 48.1875 46.484375 
L 14.40625 7.171875 
L 48.1875 7.171875 
L 48.1875 0 
L 4.296875 0 
L 4.296875 8.203125 
L 38.09375 47.515625 
L 5.515625 47.515625 
z
" id="DejaVuSans-122"/>
      <path d="M 8.015625 75.875 
L 15.828125 75.875 
Q 23.140625 64.359375 26.78125 53.3125 
Q 30.421875 42.28125 30.421875 31.390625 
Q 30.421875 20.453125 26.78125 9.375 
Q 23.140625 -1.703125 15.828125 -13.1875 
L 8.015625 -13.1875 
Q 14.5 -2 17.703125 9.0625 
Q 20.90625 20.125 20.90625 31.390625 
Q 20.90625 42.671875 17.703125 53.65625 
Q 14.5 64.65625 8.015625 75.875 
z
" id="DejaVuSans-41"/>
     </defs>
     <g transform="translate(122.250671 157.199053)scale(0.1 -0.1)">
      <use xlink:href="#DejaVuSans-102"/>
      <use x="35.205078" xlink:href="#DejaVuSans-32"/>
      <use x="66.992188" xlink:href="#DejaVuSans-40"/>
      <use x="106.005859" xlink:href="#DejaVuSans-72"/>
      <use x="181.201172" xlink:href="#DejaVuSans-122"/>
      <use x="233.691406" xlink:href="#DejaVuSans-41"/>
     </g>
    </g>
   </g>
   <g id="matplotlib.axis_2">
    <g id="ytick_1">
     <g id="line2d_7">
      <path clip-path="url(#pb9ed711e9d)" d="M 55.8 98.084971 
L 215.971654 98.084971 
" style="fill:none;stroke:#b0b0b0;stroke-linecap:square;stroke-width:0.8;"/>
     </g>
     <g id="line2d_8">
      <defs>
       <path d="M 0 0 
L -3.5 0 
" id="mb6f7dc9973" style="stroke:#000000;stroke-width:0.8;"/>
      </defs>
      <g>
       <use style="stroke:#000000;stroke-width:0.8;" x="55.8" xlink:href="#mb6f7dc9973" y="98.084971"/>
      </g>
     </g>
     <g id="text_5">
      <!-- $\mathdefault{10^{-2}}$ -->
      <g transform="translate(25.3 101.88419)scale(0.1 -0.1)">
       <use transform="translate(0 0.765625)" xlink:href="#DejaVuSans-49"/>
       <use transform="translate(63.623047 0.765625)" xlink:href="#DejaVuSans-48"/>
       <use transform="translate(128.203125 39.046875)scale(0.7)" xlink:href="#DejaVuSans-8722"/>
       <use transform="translate(186.855469 39.046875)scale(0.7)" xlink:href="#DejaVuSans-50"/>
      </g>
     </g>
    </g>
    <g id="ytick_2">
     <g id="line2d_9">
      <path clip-path="url(#pb9ed711e9d)" d="M 55.8 62.509384 
L 215.971654 62.509384 
" style="fill:none;stroke:#b0b0b0;stroke-linecap:square;stroke-width:0.8;"/>
     </g>
     <g id="line2d_10">
      <g>
       <use style="stroke:#000000;stroke-width:0.8;" x="55.8" xlink:href="#mb6f7dc9973" y="62.509384"/>
      </g>
     </g>
     <g id="text_6">
      <!-- $\mathdefault{10^{0}}$ -->
      <g transform="translate(31.2 66.308603)scale(0.1 -0.1)">
       <use transform="translate(0 0.765625)" xlink:href="#DejaVuSans-49"/>
       <use transform="translate(63.623047 0.765625)" xlink:href="#DejaVuSans-48"/>
       <use transform="translate(128.203125 39.046875)scale(0.7)" xlink:href="#DejaVuSans-48"/>
      </g>
     </g>
    </g>
    <g id="ytick_3">
     <g id="line2d_11">
      <path clip-path="url(#pb9ed711e9d)" d="M 55.8 26.933797 
L 215.971654 26.933797 
" style="fill:none;stroke:#b0b0b0;stroke-linecap:square;stroke-width:0.8;"/>
     </g>
     <g id="line2d_12">
      <g>
       <use style="stroke:#000000;stroke-width:0.8;" x="55.8" xlink:href="#mb6f7dc9973" y="26.933797"/>
      </g>
     </g>
     <g id="text_7">
      <!-- $\mathdefault{10^{2}}$ -->
      <g transform="translate(31.2 30.733016)scale(0.1 -0.1)">
       <use transform="translate(0 0.765625)" xlink:href="#DejaVuSans-49"/>
       <use transform="translate(63.623047 0.765625)" xlink:href="#DejaVuSans-48"/>
       <use transform="translate(128.203125 39.046875)scale(0.7)" xlink:href="#DejaVuSans-50"/>
      </g>
     </g>
    </g>
    <g id="text_8">
     <!-- $S(f) (m^2/s)$ -->
     <defs>
      <path d="M 60.296875 70.515625 
L 58.40625 60.890625 
Q 53.46875 63.53125 48.609375 64.875 
Q 43.75 66.21875 39.203125 66.21875 
Q 30.375 66.21875 25.140625 62.359375 
Q 19.921875 58.5 19.921875 52.09375 
Q 19.921875 48.578125 21.84375 46.703125 
Q 23.78125 44.828125 31.78125 42.671875 
L 37.703125 41.21875 
Q 47.703125 38.625 51.609375 34.640625 
Q 55.515625 30.671875 55.515625 23.484375 
Q 55.515625 12.453125 46.84375 5.515625 
Q 38.1875 -1.421875 24.03125 -1.421875 
Q 18.21875 -1.421875 12.359375 -0.265625 
Q 6.5 0.875 0.59375 3.21875 
L 2.59375 13.375 
Q 8.015625 10.015625 13.453125 8.296875 
Q 18.890625 6.59375 24.3125 6.59375 
Q 33.546875 6.59375 39.109375 10.6875 
Q 44.671875 14.796875 44.671875 21.390625 
Q 44.671875 25.78125 42.453125 28.046875 
Q 40.234375 30.328125 32.90625 32.171875 
L 27 33.6875 
Q 16.890625 36.328125 13.203125 39.765625 
Q 9.515625 43.21875 9.515625 49.421875 
Q 9.515625 60.296875 17.890625 67.25 
Q 26.265625 74.21875 39.703125 74.21875 
Q 44.921875 74.21875 50.046875 73.28125 
Q 55.171875 72.359375 60.296875 70.515625 
z
" id="DejaVuSans-Oblique-83"/>
      <path d="M 47.796875 75.984375 
L 46.390625 68.5 
L 37.796875 68.5 
Q 32.90625 68.5 30.6875 66.578125 
Q 28.46875 64.65625 27.390625 59.515625 
L 26.421875 54.6875 
L 41.21875 54.6875 
L 39.890625 47.703125 
L 25.09375 47.703125 
L 15.828125 0 
L 6.78125 0 
L 16.109375 47.703125 
L 7.515625 47.703125 
L 8.796875 54.6875 
L 17.390625 54.6875 
L 18.109375 58.5 
Q 19.96875 68.171875 24.625 72.078125 
Q 29.296875 75.984375 39.3125 75.984375 
z
" id="DejaVuSans-Oblique-102"/>
      <path d="M 89.796875 33.015625 
L 83.40625 0 
L 74.421875 0 
L 80.71875 32.71875 
Q 81.109375 34.8125 81.296875 36.328125 
Q 81.5 37.84375 81.5 38.921875 
Q 81.5 43.3125 79.046875 45.75 
Q 76.609375 48.1875 72.21875 48.1875 
Q 65.671875 48.1875 60.546875 43.28125 
Q 55.421875 38.375 53.90625 30.515625 
L 47.90625 0 
L 38.921875 0 
L 45.3125 32.71875 
Q 45.703125 34.515625 45.890625 36.046875 
Q 46.09375 37.59375 46.09375 38.8125 
Q 46.09375 43.265625 43.65625 45.71875 
Q 41.21875 48.1875 36.921875 48.1875 
Q 30.28125 48.1875 25.140625 43.28125 
Q 20.015625 38.375 18.5 30.515625 
L 12.5 0 
L 3.515625 0 
L 14.203125 54.6875 
L 23.1875 54.6875 
L 21.484375 46.1875 
Q 25.140625 50.984375 30.046875 53.484375 
Q 34.96875 56 40.578125 56 
Q 46.53125 56 50.359375 52.875 
Q 54.203125 49.75 54.984375 44.1875 
Q 59.078125 49.953125 64.46875 52.96875 
Q 69.875 56 75.875 56 
Q 82.90625 56 86.734375 51.953125 
Q 90.578125 47.90625 90.578125 40.484375 
Q 90.578125 38.875 90.375 36.9375 
Q 90.1875 35.015625 89.796875 33.015625 
z
" id="DejaVuSans-Oblique-109"/>
      <path d="M 25.390625 72.90625 
L 33.6875 72.90625 
L 8.296875 -9.28125 
L 0 -9.28125 
z
" id="DejaVuSans-47"/>
      <path d="M 50 53.078125 
L 48.296875 44.578125 
Q 44.734375 46.53125 40.765625 47.5 
Q 36.8125 48.484375 32.625 48.484375 
Q 25.53125 48.484375 21.453125 46.0625 
Q 17.390625 43.65625 17.390625 39.5 
Q 17.390625 34.671875 26.859375 32.078125 
Q 27.59375 31.890625 27.9375 31.78125 
L 30.8125 30.90625 
Q 39.796875 28.421875 42.796875 25.6875 
Q 45.796875 22.953125 45.796875 18.21875 
Q 45.796875 9.515625 38.890625 4.046875 
Q 31.984375 -1.421875 20.796875 -1.421875 
Q 16.453125 -1.421875 11.671875 -0.578125 
Q 6.890625 0.25 1.125 2 
L 2.875 11.28125 
Q 7.8125 8.734375 12.59375 7.421875 
Q 17.390625 6.109375 21.78125 6.109375 
Q 28.375 6.109375 32.5 8.9375 
Q 36.625 11.765625 36.625 16.109375 
Q 36.625 20.796875 25.78125 23.6875 
L 24.859375 23.921875 
L 21.78125 24.703125 
Q 14.9375 26.515625 11.765625 29.46875 
Q 8.59375 32.421875 8.59375 37.015625 
Q 8.59375 45.75 15.15625 50.875 
Q 21.734375 56 33.015625 56 
Q 37.453125 56 41.671875 55.265625 
Q 45.90625 54.546875 50 53.078125 
z
" id="DejaVuSans-Oblique-115"/>
     </defs>
     <g transform="translate(19.220312 94.361245)rotate(-90)scale(0.1 -0.1)">
      <use transform="translate(0 0.765625)" xlink:href="#DejaVuSans-Oblique-83"/>
      <use transform="translate(63.476562 0.765625)" xlink:href="#DejaVuSans-40"/>
      <use transform="translate(102.490234 0.765625)" xlink:href="#DejaVuSans-Oblique-102"/>
      <use transform="translate(137.695312 0.765625)" xlink:href="#DejaVuSans-41"/>
      <use transform="translate(176.708984 0.765625)" xlink:href="#DejaVuSans-40"/>
      <use transform="translate(215.722656 0.765625)" xlink:href="#DejaVuSans-Oblique-109"/>
      <use transform="translate(317.784661 39.046875)scale(0.7)" xlink:href="#DejaVuSans-50"/>
      <use transform="translate(365.055169 0.765625)" xlink:href="#DejaVuSans-47"/>
      <use transform="translate(398.746576 0.765625)" xlink:href="#DejaVuSans-Oblique-115"/>
      <use transform="translate(450.846185 0.765625)" xlink:href="#DejaVuSans-41"/>
     </g>
    </g>
   </g>
   <g id="line2d_13">
    <path clip-path="url(#pb9ed711e9d)" d="M 118.480591 47.642233 
L 126.682069 60.727887 
L 131.479626 53.138407 
L 134.883547 31.900698 
L 137.523833 28.564981 
L 139.681104 22.250773 
L 141.505051 24.852404 
L 143.085025 28.230686 
L 144.478661 18.431091 
L 145.725311 19.276543 
L 146.853043 30.95816 
L 147.882582 24.851243 
L 148.829666 25.496269 
L 149.706529 42.357445 
L 150.522868 47.315731 
L 151.286503 32.001239 
L 152.003828 35.394021 
L 152.680139 34.410545 
L 153.319875 42.54071 
L 153.926789 31.590538 
L 155.054521 16.169204 
L 155.580485 21.355752 
L 156.08406 21.359818 
L 156.567075 19.684328 
L 157.031144 22.937702 
L 157.477696 28.468368 
L 157.908007 25.392492 
L 158.323215 37.233134 
L 159.112323 18.198626 
L 159.487981 23.002236 
L 159.852078 37.264463 
L 160.205306 18.7879 
L 160.548293 25.984691 
L 160.881617 55.905709 
L 161.205808 29.387905 
L 161.521353 20.31901 
L 161.828701 31.498202 
L 162.128267 47.549957 
L 162.420436 32.764544 
L 162.983982 20.726958 
L 163.255999 29.113233 
L 163.521903 27.846641 
L 163.781963 28.903969 
L 164.036429 33.680053 
L 164.285538 35.237625 
L 164.52951 33.008295 
L 164.768553 31.886672 
L 165.002863 45.425113 
L 165.232622 32.127756 
L 165.458005 54.339147 
L 165.679174 52.026591 
L 166.109485 29.432452 
L 166.31891 33.440599 
L 166.524693 29.929321 
L 166.726959 35.045897 
L 166.925824 51.025473 
L 167.313801 26.936722 
L 167.503121 35.611727 
L 167.689459 57.0202 
L 167.872908 32.037834 
L 168.053557 25.022072 
L 168.406784 30.748495 
L 168.57952 43.616424 
L 168.749771 37.451768 
L 168.917607 25.939588 
L 169.083095 26.496985 
L 169.246301 28.969906 
L 169.407286 35.50159 
L 169.566111 48.552209 
L 169.722831 79.167919 
L 170.030179 34.361402 
L 170.18091 29.797973 
L 170.329745 42.437884 
L 170.621914 27.82619 
L 170.907042 37.451387 
L 171.04707 33.000255 
L 171.18546 32.841478 
L 171.32225 27.552527 
L 171.457477 26.705218 
L 171.591176 34.54553 
L 171.723381 35.395023 
L 171.854126 34.957276 
L 172.111358 29.802989 
L 172.363117 43.407479 
L 172.487016 32.665152 
L 172.609631 37.508754 
L 172.730988 35.514578 
L 172.851114 30.965112 
L 172.970032 32.142716 
L 173.087766 30.960819 
L 173.204341 33.643131 
L 173.319778 33.327519 
L 173.4341 32.006852 
L 173.547328 40.390562 
L 173.659483 70.886773 
L 174.097764 36.602256 
L 174.310963 49.876738 
L 174.623727 39.261354 
L 174.726171 37.255439 
L 174.928437 46.852909 
L 175.322881 29.564895 
L 175.610318 43.288298 
L 175.704599 35.305551 
L 175.798135 38.254644 
L 175.983017 31.367594 
L 176.165055 47.156203 
L 176.432966 38.25344 
L 176.694945 61.820933 
L 176.86643 38.957922 
L 177.035464 46.156265 
L 177.202118 53.840865 
L 177.284573 51.889801 
L 177.366458 57.987502 
L 177.447779 54.470947 
L 177.528545 64.77192 
L 177.608764 40.249565 
L 177.688443 42.803049 
L 177.846208 46.025678 
L 178.001898 32.587728 
L 178.078981 33.95169 
L 178.231657 52.883733 
L 178.307263 52.275632 
L 178.382388 49.095719 
L 178.45704 51.008276 
L 178.604945 40.542152 
L 178.751023 49.128925 
L 178.823392 48.584514 
L 178.895321 42.139166 
L 178.966815 45.069544 
L 179.037879 43.487535 
L 179.10852 39.004567 
L 179.178741 39.981003 
L 179.248548 42.483846 
L 179.317945 40.30855 
L 179.455531 56.743345 
L 179.523728 45.493672 
L 179.658955 58.14739 
L 179.725994 57.184764 
L 179.924859 44.368606 
L 179.990412 53.169578 
L 180.120438 41.439355 
L 180.184919 63.072943 
L 180.312836 44.172079 
L 180.37628 55.391703 
L 180.439385 53.292381 
L 180.502156 50.035833 
L 180.564595 63.188677 
L 180.688494 48.704062 
L 180.74996 50.483264 
L 180.811109 62.990651 
L 180.871943 60.482489 
L 181.052592 43.021467 
L 181.1122 78.955188 
L 181.230523 38.261408 
L 181.289244 46.586435 
L 181.347675 80.558513 
L 181.405819 51.909611 
L 181.463678 42.021272 
L 181.521256 46.37214 
L 181.578555 56.237586 
L 181.635578 44.564787 
L 181.692327 45.750052 
L 181.748806 53.698174 
L 181.805016 40.330217 
L 181.860961 42.753795 
L 181.916642 47.340701 
L 181.972062 46.160862 
L 182.08213 41.382597 
L 182.136783 52.621487 
L 182.191184 43.58358 
L 182.245336 39.115919 
L 182.352903 50.005833 
L 182.4595 41.776189 
L 182.669856 68.967787 
L 182.773649 51.644846 
L 182.825205 68.347106 
L 182.927649 40.884227 
L 183.029214 53.523783 
L 183.129915 46.682226 
L 183.179945 48.776972 
L 183.32878 61.157085 
L 183.426974 37.528346 
L 183.475767 39.46491 
L 183.572753 65.443857 
L 183.66895 42.868775 
L 183.716757 66.488654 
L 183.811796 60.006822 
L 183.85903 72.630417 
L 183.952937 69.071412 
L 184.184495 39.678323 
L 184.230268 41.194783 
L 184.366533 70.657609 
L 184.456513 43.362251 
L 184.501247 53.680337 
L 184.545813 60.213786 
L 184.590211 51.346913 
L 184.634444 46.739477 
L 184.678512 46.904592 
L 184.722417 69.035956 
L 184.766159 55.567532 
L 184.80974 48.628208 
L 184.853161 53.654147 
L 184.896423 56.835805 
L 184.939528 51.630591 
L 185.025269 77.65673 
L 185.067908 59.82423 
L 185.110393 59.327009 
L 185.152727 63.493107 
L 185.19491 58.586772 
L 185.236942 44.0014 
L 185.320563 48.801445 
L 185.362152 58.383899 
L 185.403596 45.32177 
L 185.444896 46.269631 
L 185.486051 60.897271 
L 185.527064 53.681924 
L 185.567936 44.749202 
L 185.608666 52.153933 
L 185.649257 60.193121 
L 185.730023 45.973011 
L 185.770201 62.844574 
L 185.850149 57.48418 
L 185.92956 69.809919 
L 186.008442 51.233011 
L 186.086801 53.629935 
L 186.125787 45.916355 
L 186.203376 48.469481 
L 186.24198 48.272228 
L 186.280459 50.63229 
L 186.318813 49.10502 
L 186.357043 45.722839 
L 186.508741 68.194546 
L 186.583866 69.602361 
L 186.658518 46.289293 
L 186.695668 71.80354 
L 186.769619 62.781039 
L 186.806423 66.089527 
L 186.843112 59.876528 
L 186.91615 52.221336 
L 186.952501 67.363225 
L 186.988741 58.171348 
L 187.168293 44.243181 
L 187.203878 45.243752 
L 187.27473 65.935807 
L 187.345161 61.932383 
L 187.415174 49.533524 
L 187.450026 57.564804 
L 187.484776 69.075525 
L 187.55397 57.539445 
L 187.657009 46.217177 
L 187.691157 51.693987 
L 187.725206 79.652021 
L 187.793013 52.582867 
L 187.860433 71.388977 
L 187.894 62.270506 
L 188.027322 52.466537 
L 188.06042 67.029057 
L 188.126337 51.347574 
L 188.19189 49.342561 
L 188.224531 83.107416 
L 188.289543 56.697362 
L 188.321916 53.774495 
L 188.418506 84.55539 
L 188.450529 68.609621 
L 188.482464 56.998021 
L 188.514314 115.015263 
L 188.577758 47.552348 
L 188.640863 59.87814 
L 188.703634 55.105996 
L 188.734895 47.268884 
L 188.79717 52.659614 
L 188.889972 66.582349 
L 188.920745 60.768404 
L 188.982052 51.551298 
L 189.012587 66.447895 
L 189.073421 45.867805 
L 189.103722 45.983915 
L 189.16409 56.503451 
L 189.194159 94.884002 
L 189.25407 49.468192 
L 189.34337 65.382645 
L 189.372988 53.180443 
L 189.402531 48.478686 
L 189.432001 58.816785 
L 189.461398 56.860672 
L 189.490722 46.696446 
L 189.549153 60.234067 
L 189.578261 54.365902 
L 189.607297 49.27678 
L 189.636262 55.511381 
L 189.69398 52.673938 
L 189.808579 90.77359 
L 189.837056 66.927928 
L 189.922078 46.556476 
L 189.950284 50.309869 
L 190.0345 59.843174 
L 190.062439 51.320982 
L 190.090312 46.851398 
L 190.11812 47.686476 
L 190.17354 79.439384 
L 190.228702 60.420065 
L 190.283608 46.493464 
L 190.310966 55.769958 
L 190.365493 55.363641 
L 190.419769 65.547733 
L 190.50072 50.941285 
L 190.527581 61.208363 
L 190.554381 63.550187 
L 190.634419 49.237069 
L 190.660978 51.007685 
L 190.713919 69.71846 
L 190.740301 56.53528 
L 190.766624 47.782894 
L 190.792888 55.294891 
L 190.819095 69.564512 
L 190.845243 51.177571 
L 190.897368 56.687805 
L 190.923344 56.265318 
L 190.949264 57.077546 
L 191.026683 55.898567 
L 191.078016 77.758065 
L 191.129127 49.274575 
L 191.205383 55.852298 
L 191.230692 53.871116 
L 191.28115 74.115112 
L 191.356434 66.346871 
L 191.381423 66.799602 
L 191.480854 51.213359 
L 191.530258 57.816211 
L 191.554883 65.564931 
L 191.60398 55.243623 
L 191.628452 62.42856 
L 191.652873 58.108394 
L 191.677245 78.629005 
L 191.750059 51.424825 
L 191.870428 70.658265 
L 191.989586 51.049652 
L 192.107555 69.220256 
L 192.131008 58.030893 
L 192.154415 54.428171 
L 192.177776 59.125369 
L 192.22436 55.389083 
L 192.36302 100.336805 
L 192.408882 63.833808 
L 192.477342 76.913226 
L 192.59057 55.418864 
L 192.657991 57.853679 
L 192.702725 71.906356 
L 192.79169 65.659499 
L 192.835922 52.310791 
L 192.87999 62.270595 
L 192.923895 84.555247 
L 192.967637 55.381348 
L 192.989447 50.949642 
L 193.011218 56.412486 
L 193.097901 72.66539 
L 193.119473 58.154373 
L 193.141006 56.663477 
L 193.162499 73.825438 
L 193.183954 54.463272 
L 193.248086 73.092319 
L 193.269386 53.692775 
L 193.354205 58.506822 
L 193.417423 63.386582 
L 193.438421 57.647521 
L 193.459381 59.284661 
L 193.501191 60.261718 
L 193.542854 56.232925 
L 193.625742 50.998861 
L 193.646374 55.469786 
L 193.666969 81.514111 
L 193.769414 74.562368 
L 193.850735 54.268754 
L 193.810144 80.993943 
L 193.891187 69.921108 
L 193.991717 53.719303 
L 194.01172 55.013249 
L 194.051627 69.379557 
L 194.131038 60.709859 
L 194.170545 55.889498 
L 194.190249 53.77654 
L 194.20992 60.433867 
L 194.268738 89.985407 
L 194.34671 65.903214 
L 194.366123 62.758541 
L 194.385504 68.952121 
L 194.404854 88.694884 
L 194.443458 58.902235 
L 194.481937 69.265839 
L 194.57759 69.371977 
L 194.615636 56.279969 
L 194.634613 56.190668 
L 194.766608 81.890842 
L 194.785344 66.361492 
L 194.822729 71.499817 
L 194.897146 58.724373 
L 194.971097 91.300688 
L 195.026259 66.602849 
L 195.062892 60.552903 
L 195.081165 67.434921 
L 195.099411 80.35082 
L 195.153979 61.13307 
L 195.190219 66.837237 
L 195.208297 66.404782 
L 195.262367 60.241947 
L 195.298277 68.418373 
L 195.387577 87.577329 
L 195.351938 63.826547 
L 195.405356 79.533491 
L 195.476208 56.790881 
L 195.52907 64.810104 
L 195.546639 55.772271 
L 195.616652 67.188639 
L 195.634091 61.88001 
L 195.651504 61.590237 
L 195.668891 66.285054 
L 195.70359 61.253349 
L 195.755448 61.853904 
L 195.772684 59.90923 
L 195.789894 81.377634 
L 195.875573 59.082133 
L 195.926684 64.080789 
L 195.943673 73.435859 
L 195.960636 61.399466 
L 196.028249 63.501699 
L 196.045092 60.708996 
L 196.078707 71.484964 
L 196.095478 64.53496 
L 196.14565 96.613275 
L 196.17898 55.851719 
L 196.212217 62.990813 
L 196.245361 56.298054 
L 196.327816 79.237785 
L 196.360637 61.114499 
L 196.4097 76.407218 
L 196.426009 89.626128 
L 196.45856 54.187319 
L 196.491021 62.01714 
L 196.507219 57.444735 
L 196.571788 63.543905 
L 196.619984 55.40069 
L 196.699878 73.457657 
L 196.779236 56.460703 
L 196.826597 64.286353 
L 196.905112 105.81988 
L 196.920753 61.189071 
L 196.936373 57.502428 
L 196.967551 73.090553 
L 196.98311 77.060745 
L 197.029663 66.891644 
L 197.060597 57.322909 
L 197.106847 70.716019 
L 197.13758 57.945613 
L 197.198808 65.969593 
L 197.229303 56.782707 
L 197.25972 61.88157 
L 197.290059 64.812188 
L 197.335422 60.156441 
L 197.395637 85.436429 
L 197.440599 61.657925 
L 197.515156 57.105232 
L 197.485389 69.35919 
L 197.530011 63.696096 
L 197.559666 59.278941 
L 197.662876 82.595068 
L 197.765194 57.766438 
L 197.779739 62.093675 
L 197.852196 70.329366 
L 197.823266 60.471846 
L 197.881055 64.30699 
L 197.909844 56.634899 
L 197.924212 64.740434 
L 197.938563 83.186483 
L 198.010057 59.189865 
L 198.024304 61.674067 
L 198.038534 59.719929 
L 198.066943 64.136421 
L 198.095284 61.675867 
L 198.16584 57.983304 
L 198.235978 78.677631 
L 198.29179 56.806379 
L 198.375018 66.756434 
L 198.43018 78.013626 
L 198.402631 61.795994 
L 198.471384 64.585846 
L 198.485086 58.836578 
L 198.526099 82.601101 
L 198.566971 60.016318 
L 198.607701 112.288093 
L 198.688744 73.87656 
L 198.769236 58.426406 
L 198.715636 73.950907 
L 198.809277 67.504858 
L 198.822595 75.562967 
L 198.902184 60.690973 
L 198.915397 65.184145 
L 198.954947 75.38023 
L 198.981241 60.37856 
L 199.007477 67.452807 
L 199.085836 58.498414 
L 199.033654 70.382657 
L 199.098846 60.550135 
L 199.202411 88.303422 
L 199.215293 74.401019 
L 199.266682 57.323373 
L 199.292293 89.256125 
L 199.343349 62.982217 
L 199.381497 57.579167 
L 199.444805 63.632244 
L 199.457426 62.71179 
L 199.470033 63.568349 
L 199.482628 74.000853 
L 199.507776 58.400801 
L 199.570414 63.728211 
L 199.645144 76.093502 
L 199.669949 87.774572 
L 199.694703 61.143906 
L 199.731736 64.893088 
L 199.756361 57.254561 
L 199.793203 77.212743 
L 199.842147 60.319742 
L 199.963629 82.593281 
L 199.878723 58.983978 
L 199.987776 68.611725 
L 200.059924 59.350134 
L 200.035924 70.582809 
L 200.095834 66.860889 
L 200.119713 83.525568 
L 200.143545 58.653239 
L 200.202914 74.203736 
L 200.214752 64.55731 
L 200.297289 66.551088 
L 200.344196 86.7733 
L 200.390917 59.385193 
L 200.402569 65.41438 
L 200.495371 79.756581 
L 200.472239 63.144678 
L 200.50692 69.225916 
L 200.553005 74.076566 
L 200.61036 60.05718 
L 200.712903 90.421788 
L 200.724242 72.431384 
L 200.758193 61.511236 
L 200.780774 73.661278 
L 200.837038 66.830984 
L 200.881857 93.478935 
L 200.926507 71.654752 
L 200.937643 61.155257 
L 200.982083 84.11755 
L 201.026358 63.13015 
L 201.136323 103.776898 
L 201.147264 78.119771 
L 201.190925 61.06003 
L 201.234426 95.264778 
L 201.245276 77.807317 
L 201.256117 82.263578 
L 201.266947 63.483026 
L 201.31017 72.143616 
L 201.320951 61.701279 
L 201.363977 85.931695 
L 201.417541 70.358509 
L 201.470864 62.857868 
L 201.449564 73.792527 
L 201.481499 69.504907 
L 201.492126 87.131404 
L 201.587334 62.865104 
L 201.597866 61.999988 
L 201.629404 67.468848 
L 201.650383 97.513986 
L 201.73393 68.355321 
L 201.754725 60.81145 
L 201.82722 79.277034 
L 201.868447 89.546834 
L 201.847852 66.818421 
L 201.878732 75.027579 
L 201.899274 61.2772 
L 201.981087 66.679672 
L 202.031935 89.929058 
L 202.011622 63.854854 
L 202.092665 73.763861 
L 202.11284 62.134261 
L 202.193195 83.833419 
L 202.203201 69.46387 
L 202.302799 120.24834 
L 202.253105 69.002926 
L 202.322619 90.01025 
L 202.421221 62.421319 
L 202.372023 100.694082 
L 202.440843 72.637181 
L 202.548188 97.018632 
L 202.470216 64.125899 
L 202.557899 94.579916 
L 202.615995 66.663854 
L 202.712192 66.796744 
L 202.759999 84.90474 
L 202.7409 63.426839 
L 202.826606 70.755124 
L 202.836091 78.221264 
L 202.892841 62.557194 
L 202.930523 71.089982 
L 202.939925 70.671367 
L 202.99618 63.040532 
L 202.958706 78.541263 
L 203.042855 73.842137 
L 203.061474 85.027723 
L 203.107893 64.720006 
L 203.135657 68.925967 
L 203.190991 65.20872 
L 203.163357 73.862452 
L 203.209379 68.310375 
L 203.227737 65.702776 
L 203.319106 98.090478 
L 203.391697 64.809401 
L 203.436841 66.176972 
L 203.472833 63.754514 
L 203.490788 69.275758 
L 203.508715 67.604457 
L 203.633454 96.846527 
L 203.562336 65.91978 
L 203.651167 72.477081 
L 203.721754 63.429885 
L 203.756891 71.54004 
L 203.835569 79.495213 
L 203.791923 62.977267 
L 203.852982 66.421356 
L 203.861679 67.001043 
L 203.879054 107.408709 
L 203.931026 64.357288 
L 203.974162 77.179831 
L 204.085585 64.678433 
L 204.042854 84.565186 
L 204.094113 65.362703 
L 204.153636 83.101139 
L 204.119659 63.801257 
L 204.204418 72.682002 
L 204.221297 65.832883 
L 204.296956 74.229679 
L 204.372135 117.429441 
L 204.35547 66.751543 
L 204.405395 73.970292 
L 204.413695 92.104937 
L 204.446839 65.797984 
L 204.512848 74.252128 
L 204.619335 87.454012 
L 204.537508 69.947361 
L 204.627487 78.820058 
L 204.708697 66.168082 
L 204.724872 77.441222 
L 204.732951 94.919007 
L 204.765214 65.08962 
L 204.829476 70.039618 
L 204.909316 67.908871 
L 204.949035 107.365436 
L 205.043819 66.185257 
L 205.012309 113.508053 
L 205.067397 73.340714 
L 205.090929 64.818329 
L 205.10659 75.816503 
L 205.122231 73.886048 
L 205.130043 90.310118 
L 205.145653 66.001007 
L 205.231141 89.281549 
L 205.346729 65.143029 
L 205.285222 95.344761 
L 205.354395 65.645789 
L 205.369711 116.60817 
L 205.476377 81.781851 
L 205.491537 76.29693 
L 205.559517 66.133939 
L 205.521799 95.240892 
L 205.597115 69.366452 
L 205.612121 107.484142 
L 205.657026 65.9519 
L 205.70176 67.4552 
L 205.790725 84.041257 
L 205.834957 77.238293 
L 205.842313 68.357034 
L 205.937528 85.084736 
L 205.944821 73.329756 
L 206.010253 100.174983 
L 205.995744 67.509439 
L 206.039218 78.294411 
L 206.053674 67.939629 
L 206.089737 90.859558 
L 206.154374 70.770768 
L 206.161535 69.548735 
L 206.175842 74.763003 
L 206.211535 105.247557 
L 206.232899 70.865273 
L 206.2826 83.365151 
L 206.360281 66.96343 
L 206.310906 111.862062 
L 206.395423 79.352325 
L 206.472369 66.716929 
L 206.47934 74.932003 
L 206.486306 87.888286 
L 206.534955 66.71751 
L 206.583406 67.083419 
L 206.590311 67.639391 
L 206.645409 96.399921 
L 206.700251 70.953674 
L 206.782041 80.874562 
L 206.734399 66.47952 
L 206.815954 73.825397 
L 206.829492 68.411732 
L 206.890222 86.588119 
L 206.923827 74.191445 
L 206.970714 87.417833 
L 206.957337 68.411764 
L 207.037375 76.837141 
L 207.083815 68.615078 
L 207.0573 96.826351 
L 207.130073 82.315498 
L 207.136667 120.17719 
L 207.235132 67.539745 
L 207.241668 68.115325 
L 207.254728 99.620211 
L 207.358691 83.399686 
L 207.448915 69.489925 
L 207.397443 103.370891 
L 207.46816 77.684153 
L 207.474568 77.520652 
L 207.532083 123.553286 
L 207.493771 69.389632 
L 207.582975 78.794815 
L 207.614671 68.155952 
L 207.652595 96.694422 
L 207.684106 79.149587 
L 207.740614 69.242019 
L 207.803086 101.646534 
L 207.827983 68.826897 
L 207.920883 73.266671 
L 207.933214 102.865542 
L 207.951688 70.433373 
L 208.031408 78.577854 
L 208.037518 68.121308 
L 208.074112 97.108863 
L 208.14091 72.346163 
L 208.207332 87.86512 
L 208.225383 70.626361 
L 208.249408 72.647445 
L 208.255407 71.521696 
L 208.261402 85.58136 
L 208.321191 108.127834 
L 208.285354 71.001253 
L 208.362865 85.604072 
L 208.428056 69.912921 
L 208.45757 94.635527 
L 208.475243 75.815152 
L 208.481129 75.114501 
L 208.487011 77.896366 
L 208.49289 105.985277 
L 208.50464 69.520734 
L 208.598223 79.686844 
L 208.615687 85.220382 
L 208.650539 70.022391 
L 208.69107 80.714123 
L 208.69107 80.714123 
" style="fill:none;stroke:#000000;stroke-linecap:square;stroke-width:0.5;"/>
   </g>
   <g id="line2d_14">
    <path clip-path="url(#pb9ed711e9d)" d="M 63.08053 78.414078 
L 126.736721 36.995396 
L 134.910905 32.070071 
L 139.69935 29.594273 
L 143.098712 28.221229 
L 145.736262 27.493948 
L 147.891708 27.184737 
L 149.714352 27.157366 
L 151.293348 27.322647 
L 153.32564 27.803612 
L 155.0595 28.450832 
L 157.035357 29.439612 
L 159.115857 30.740741 
L 161.524236 32.527762 
L 164.28782 34.868904 
L 167.874594 38.232615 
L 172.610761 43.013738 
L 179.991017 50.821757 
L 196.262051 68.441758 
L 208.691124 81.96131 
L 208.691124 81.96131 
" style="fill:none;stroke:#ff0000;stroke-dasharray:7.4,3.2;stroke-dashoffset:0;stroke-width:2;"/>
   </g>
   <g id="patch_3">
    <path d="M 55.8 128.92249 
L 55.8 10.8 
" style="fill:none;stroke:#000000;stroke-linecap:square;stroke-linejoin:miter;stroke-width:0.8;"/>
   </g>
   <g id="patch_4">
    <path d="M 215.971654 128.92249 
L 215.971654 10.8 
" style="fill:none;stroke:#000000;stroke-linecap:square;stroke-linejoin:miter;stroke-width:0.8;"/>
   </g>
   <g id="patch_5">
    <path d="M 55.8 128.92249 
L 215.971654 128.92249 
" style="fill:none;stroke:#000000;stroke-linecap:square;stroke-linejoin:miter;stroke-width:0.8;"/>
   </g>
   <g id="patch_6">
    <path d="M 55.8 10.8 
L 215.971654 10.8 
" style="fill:none;stroke:#000000;stroke-linecap:square;stroke-linejoin:miter;stroke-width:0.8;"/>
   </g>
   <g id="legend_1">
    <g id="patch_7">
     <path d="M 62.8 123.92249 
L 144.19375 123.92249 
Q 146.19375 123.92249 146.19375 121.92249 
L 146.19375 93.56624 
Q 146.19375 91.56624 144.19375 91.56624 
L 62.8 91.56624 
Q 60.8 91.56624 60.8 93.56624 
L 60.8 121.92249 
Q 60.8 123.92249 62.8 123.92249 
z
" style="fill:#ffffff;opacity:0.8;stroke:#cccccc;stroke-linejoin:miter;"/>
    </g>
    <g id="line2d_15">
     <path d="M 64.8 99.664678 
L 84.8 99.664678 
" style="fill:none;stroke:#000000;stroke-linecap:square;stroke-width:0.5;"/>
    </g>
    <g id="line2d_16"/>
    <g id="text_9">
     <!-- simulated -->
     <defs>
      <path d="M 44.28125 53.078125 
L 44.28125 44.578125 
Q 40.484375 46.53125 36.375 47.5 
Q 32.28125 48.484375 27.875 48.484375 
Q 21.1875 48.484375 17.84375 46.4375 
Q 14.5 44.390625 14.5 40.28125 
Q 14.5 37.15625 16.890625 35.375 
Q 19.28125 33.59375 26.515625 31.984375 
L 29.59375 31.296875 
Q 39.15625 29.25 43.1875 25.515625 
Q 47.21875 21.78125 47.21875 15.09375 
Q 47.21875 7.46875 41.1875 3.015625 
Q 35.15625 -1.421875 24.609375 -1.421875 
Q 20.21875 -1.421875 15.453125 -0.5625 
Q 10.6875 0.296875 5.421875 2 
L 5.421875 11.28125 
Q 10.40625 8.6875 15.234375 7.390625 
Q 20.0625 6.109375 24.8125 6.109375 
Q 31.15625 6.109375 34.5625 8.28125 
Q 37.984375 10.453125 37.984375 14.40625 
Q 37.984375 18.0625 35.515625 20.015625 
Q 33.0625 21.96875 24.703125 23.78125 
L 21.578125 24.515625 
Q 13.234375 26.265625 9.515625 29.90625 
Q 5.8125 33.546875 5.8125 39.890625 
Q 5.8125 47.609375 11.28125 51.796875 
Q 16.75 56 26.8125 56 
Q 31.78125 56 36.171875 55.265625 
Q 40.578125 54.546875 44.28125 53.078125 
z
" id="DejaVuSans-115"/>
      <path d="M 9.421875 54.6875 
L 18.40625 54.6875 
L 18.40625 0 
L 9.421875 0 
z
M 9.421875 75.984375 
L 18.40625 75.984375 
L 18.40625 64.59375 
L 9.421875 64.59375 
z
" id="DejaVuSans-105"/>
      <path d="M 52 44.1875 
Q 55.375 50.25 60.0625 53.125 
Q 64.75 56 71.09375 56 
Q 79.640625 56 84.28125 50.015625 
Q 88.921875 44.046875 88.921875 33.015625 
L 88.921875 0 
L 79.890625 0 
L 79.890625 32.71875 
Q 79.890625 40.578125 77.09375 44.375 
Q 74.3125 48.1875 68.609375 48.1875 
Q 61.625 48.1875 57.5625 43.546875 
Q 53.515625 38.921875 53.515625 30.90625 
L 53.515625 0 
L 44.484375 0 
L 44.484375 32.71875 
Q 44.484375 40.625 41.703125 44.40625 
Q 38.921875 48.1875 33.109375 48.1875 
Q 26.21875 48.1875 22.15625 43.53125 
Q 18.109375 38.875 18.109375 30.90625 
L 18.109375 0 
L 9.078125 0 
L 9.078125 54.6875 
L 18.109375 54.6875 
L 18.109375 46.1875 
Q 21.1875 51.21875 25.484375 53.609375 
Q 29.78125 56 35.6875 56 
Q 41.65625 56 45.828125 52.96875 
Q 50 49.953125 52 44.1875 
z
" id="DejaVuSans-109"/>
      <path d="M 8.5 21.578125 
L 8.5 54.6875 
L 17.484375 54.6875 
L 17.484375 21.921875 
Q 17.484375 14.15625 20.5 10.265625 
Q 23.53125 6.390625 29.59375 6.390625 
Q 36.859375 6.390625 41.078125 11.03125 
Q 45.3125 15.671875 45.3125 23.6875 
L 45.3125 54.6875 
L 54.296875 54.6875 
L 54.296875 0 
L 45.3125 0 
L 45.3125 8.40625 
Q 42.046875 3.421875 37.71875 1 
Q 33.40625 -1.421875 27.6875 -1.421875 
Q 18.265625 -1.421875 13.375 4.4375 
Q 8.5 10.296875 8.5 21.578125 
z
M 31.109375 56 
z
" id="DejaVuSans-117"/>
      <path d="M 9.421875 75.984375 
L 18.40625 75.984375 
L 18.40625 0 
L 9.421875 0 
z
" id="DejaVuSans-108"/>
      <path d="M 34.28125 27.484375 
Q 23.390625 27.484375 19.1875 25 
Q 14.984375 22.515625 14.984375 16.5 
Q 14.984375 11.71875 18.140625 8.90625 
Q 21.296875 6.109375 26.703125 6.109375 
Q 34.1875 6.109375 38.703125 11.40625 
Q 43.21875 16.703125 43.21875 25.484375 
L 43.21875 27.484375 
z
M 52.203125 31.203125 
L 52.203125 0 
L 43.21875 0 
L 43.21875 8.296875 
Q 40.140625 3.328125 35.546875 0.953125 
Q 30.953125 -1.421875 24.3125 -1.421875 
Q 15.921875 -1.421875 10.953125 3.296875 
Q 6 8.015625 6 15.921875 
Q 6 25.140625 12.171875 29.828125 
Q 18.359375 34.515625 30.609375 34.515625 
L 43.21875 34.515625 
L 43.21875 35.40625 
Q 43.21875 41.609375 39.140625 45 
Q 35.0625 48.390625 27.6875 48.390625 
Q 23 48.390625 18.546875 47.265625 
Q 14.109375 46.140625 10.015625 43.890625 
L 10.015625 52.203125 
Q 14.9375 54.109375 19.578125 55.046875 
Q 24.21875 56 28.609375 56 
Q 40.484375 56 46.34375 49.84375 
Q 52.203125 43.703125 52.203125 31.203125 
z
" id="DejaVuSans-97"/>
      <path d="M 18.3125 70.21875 
L 18.3125 54.6875 
L 36.8125 54.6875 
L 36.8125 47.703125 
L 18.3125 47.703125 
L 18.3125 18.015625 
Q 18.3125 11.328125 20.140625 9.421875 
Q 21.96875 7.515625 27.59375 7.515625 
L 36.8125 7.515625 
L 36.8125 0 
L 27.59375 0 
Q 17.1875 0 13.234375 3.875 
Q 9.28125 7.765625 9.28125 18.015625 
L 9.28125 47.703125 
L 2.6875 47.703125 
L 2.6875 54.6875 
L 9.28125 54.6875 
L 9.28125 70.21875 
z
" id="DejaVuSans-116"/>
      <path d="M 56.203125 29.59375 
L 56.203125 25.203125 
L 14.890625 25.203125 
Q 15.484375 15.921875 20.484375 11.0625 
Q 25.484375 6.203125 34.421875 6.203125 
Q 39.59375 6.203125 44.453125 7.46875 
Q 49.3125 8.734375 54.109375 11.28125 
L 54.109375 2.78125 
Q 49.265625 0.734375 44.1875 -0.34375 
Q 39.109375 -1.421875 33.890625 -1.421875 
Q 20.796875 -1.421875 13.15625 6.1875 
Q 5.515625 13.8125 5.515625 26.8125 
Q 5.515625 40.234375 12.765625 48.109375 
Q 20.015625 56 32.328125 56 
Q 43.359375 56 49.78125 48.890625 
Q 56.203125 41.796875 56.203125 29.59375 
z
M 47.21875 32.234375 
Q 47.125 39.59375 43.09375 43.984375 
Q 39.0625 48.390625 32.421875 48.390625 
Q 24.90625 48.390625 20.390625 44.140625 
Q 15.875 39.890625 15.1875 32.171875 
z
" id="DejaVuSans-101"/>
      <path d="M 45.40625 46.390625 
L 45.40625 75.984375 
L 54.390625 75.984375 
L 54.390625 0 
L 45.40625 0 
L 45.40625 8.203125 
Q 42.578125 3.328125 38.25 0.953125 
Q 33.9375 -1.421875 27.875 -1.421875 
Q 17.96875 -1.421875 11.734375 6.484375 
Q 5.515625 14.40625 5.515625 27.296875 
Q 5.515625 40.1875 11.734375 48.09375 
Q 17.96875 56 27.875 56 
Q 33.9375 56 38.25 53.625 
Q 42.578125 51.265625 45.40625 46.390625 
z
M 14.796875 27.296875 
Q 14.796875 17.390625 18.875 11.75 
Q 22.953125 6.109375 30.078125 6.109375 
Q 37.203125 6.109375 41.296875 11.75 
Q 45.40625 17.390625 45.40625 27.296875 
Q 45.40625 37.203125 41.296875 42.84375 
Q 37.203125 48.484375 30.078125 48.484375 
Q 22.953125 48.484375 18.875 42.84375 
Q 14.796875 37.203125 14.796875 27.296875 
z
" id="DejaVuSans-100"/>
     </defs>
     <g transform="translate(92.8 103.164678)scale(0.1 -0.1)">
      <use xlink:href="#DejaVuSans-115"/>
      <use x="52.099609" xlink:href="#DejaVuSans-105"/>
      <use x="79.882812" xlink:href="#DejaVuSans-109"/>
      <use x="177.294922" xlink:href="#DejaVuSans-117"/>
      <use x="240.673828" xlink:href="#DejaVuSans-108"/>
      <use x="268.457031" xlink:href="#DejaVuSans-97"/>
      <use x="329.736328" xlink:href="#DejaVuSans-116"/>
      <use x="368.945312" xlink:href="#DejaVuSans-101"/>
      <use x="430.46875" xlink:href="#DejaVuSans-100"/>
     </g>
    </g>
    <g id="line2d_17">
     <path d="M 64.8 114.342803 
L 84.8 114.342803 
" style="fill:none;stroke:#ff0000;stroke-dasharray:7.4,3.2;stroke-dashoffset:0;stroke-width:2;"/>
    </g>
    <g id="line2d_18"/>
    <g id="text_10">
     <!-- target -->
     <defs>
      <path d="M 41.109375 46.296875 
Q 39.59375 47.171875 37.8125 47.578125 
Q 36.03125 48 33.890625 48 
Q 26.265625 48 22.1875 43.046875 
Q 18.109375 38.09375 18.109375 28.8125 
L 18.109375 0 
L 9.078125 0 
L 9.078125 54.6875 
L 18.109375 54.6875 
L 18.109375 46.1875 
Q 20.953125 51.171875 25.484375 53.578125 
Q 30.03125 56 36.53125 56 
Q 37.453125 56 38.578125 55.875 
Q 39.703125 55.765625 41.0625 55.515625 
z
" id="DejaVuSans-114"/>
      <path d="M 45.40625 27.984375 
Q 45.40625 37.75 41.375 43.109375 
Q 37.359375 48.484375 30.078125 48.484375 
Q 22.859375 48.484375 18.828125 43.109375 
Q 14.796875 37.75 14.796875 27.984375 
Q 14.796875 18.265625 18.828125 12.890625 
Q 22.859375 7.515625 30.078125 7.515625 
Q 37.359375 7.515625 41.375 12.890625 
Q 45.40625 18.265625 45.40625 27.984375 
z
M 54.390625 6.78125 
Q 54.390625 -7.171875 48.1875 -13.984375 
Q 42 -20.796875 29.203125 -20.796875 
Q 24.46875 -20.796875 20.265625 -20.09375 
Q 16.0625 -19.390625 12.109375 -17.921875 
L 12.109375 -9.1875 
Q 16.0625 -11.328125 19.921875 -12.34375 
Q 23.78125 -13.375 27.78125 -13.375 
Q 36.625 -13.375 41.015625 -8.765625 
Q 45.40625 -4.15625 45.40625 5.171875 
L 45.40625 9.625 
Q 42.625 4.78125 38.28125 2.390625 
Q 33.9375 0 27.875 0 
Q 17.828125 0 11.671875 7.65625 
Q 5.515625 15.328125 5.515625 27.984375 
Q 5.515625 40.671875 11.671875 48.328125 
Q 17.828125 56 27.875 56 
Q 33.9375 56 38.28125 53.609375 
Q 42.625 51.21875 45.40625 46.390625 
L 45.40625 54.6875 
L 54.390625 54.6875 
z
" id="DejaVuSans-103"/>
     </defs>
     <g transform="translate(92.8 117.842803)scale(0.1 -0.1)">
      <use xlink:href="#DejaVuSans-116"/>
      <use x="39.208984" xlink:href="#DejaVuSans-97"/>
      <use x="100.488281" xlink:href="#DejaVuSans-114"/>
      <use x="141.585938" xlink:href="#DejaVuSans-103"/>
      <use x="205.0625" xlink:href="#DejaVuSans-101"/>
      <use x="266.585938" xlink:href="#DejaVuSans-116"/>
     </g>
    </g>
   </g>
  </g>
 </g>
 <defs>
  <clipPath id="pb9ed711e9d">
   <rect height="118.12249" width="160.171654" x="55.8" y="10.8"/>
  </clipPath>
 </defs>
</svg>
