<?xml version="1.0" encoding="utf-8" standalone="no"?>
<!DOCTYPE svg PUBLIC "-//W3C//DTD SVG 1.1//EN"
  "http://www.w3.org/Graphics/SVG/1.1/DTD/svg11.dtd">
<!-- Created with matplotlib (https://matplotlib.org/) -->
<svg height="170.07874pt" version="1.1" viewBox="0 0 226.771654 170.07874" width="226.771654pt" xmlns="http://www.w3.org/2000/svg" xmlns:xlink="http://www.w3.org/1999/xlink">
 <defs>
  <style type="text/css">
*{stroke-linecap:butt;stroke-linejoin:round;}
  </style>
 </defs>
 <g id="figure_1">
  <g id="patch_1">
   <path d="M 0 170.07874 
L 226.771654 170.07874 
L 226.771654 0 
L 0 0 
z
" style="fill:#ffffff;"/>
  </g>
  <g id="axes_1">
   <g id="patch_2">
    <path d="M 54.978125 128.92249 
L 215.971654 128.92249 
L 215.971654 10.8 
L 54.978125 10.8 
z
" style="fill:#ffffff;"/>
   </g>
   <g id="matplotlib.axis_1">
    <g id="xtick_1">
     <g id="line2d_1">
      <path clip-path="url(#p2a49cbd399)" d="M 74.909803 128.92249 
L 74.909803 10.8 
" style="fill:none;stroke:#b0b0b0;stroke-linecap:square;stroke-width:0.8;"/>
     </g>
     <g id="line2d_2">
      <defs>
       <path d="M 0 0 
L 0 3.5 
" id="m7dd60d4a66" style="stroke:#000000;stroke-width:0.8;"/>
      </defs>
      <g>
       <use style="stroke:#000000;stroke-width:0.8;" x="74.909803" xlink:href="#m7dd60d4a66" y="128.92249"/>
      </g>
     </g>
     <g id="text_1">
      <!-- $\mathdefault{10^{-3}}$ -->
      <defs>
       <path d="M 12.40625 8.296875 
L 28.515625 8.296875 
L 28.515625 63.921875 
L 10.984375 60.40625 
L 10.984375 69.390625 
L 28.421875 72.90625 
L 38.28125 72.90625 
L 38.28125 8.296875 
L 54.390625 8.296875 
L 54.390625 0 
L 12.40625 0 
z
" id="DejaVuSans-49"/>
       <path d="M 31.78125 66.40625 
Q 24.171875 66.40625 20.328125 58.90625 
Q 16.5 51.421875 16.5 36.375 
Q 16.5 21.390625 20.328125 13.890625 
Q 24.171875 6.390625 31.78125 6.390625 
Q 39.453125 6.390625 43.28125 13.890625 
Q 47.125 21.390625 47.125 36.375 
Q 47.125 51.421875 43.28125 58.90625 
Q 39.453125 66.40625 31.78125 66.40625 
z
M 31.78125 74.21875 
Q 44.046875 74.21875 50.515625 64.515625 
Q 56.984375 54.828125 56.984375 36.375 
Q 56.984375 17.96875 50.515625 8.265625 
Q 44.046875 -1.421875 31.78125 -1.421875 
Q 19.53125 -1.421875 13.0625 8.265625 
Q 6.59375 17.96875 6.59375 36.375 
Q 6.59375 54.828125 13.0625 64.515625 
Q 19.53125 74.21875 31.78125 74.21875 
z
" id="DejaVuSans-48"/>
       <path d="M 10.59375 35.5 
L 73.1875 35.5 
L 73.1875 27.203125 
L 10.59375 27.203125 
z
" id="DejaVuSans-8722"/>
       <path d="M 40.578125 39.3125 
Q 47.65625 37.796875 51.625 33 
Q 55.609375 28.21875 55.609375 21.1875 
Q 55.609375 10.40625 48.1875 4.484375 
Q 40.765625 -1.421875 27.09375 -1.421875 
Q 22.515625 -1.421875 17.65625 -0.515625 
Q 12.796875 0.390625 7.625 2.203125 
L 7.625 11.71875 
Q 11.71875 9.328125 16.59375 8.109375 
Q 21.484375 6.890625 26.8125 6.890625 
Q 36.078125 6.890625 40.9375 10.546875 
Q 45.796875 14.203125 45.796875 21.1875 
Q 45.796875 27.640625 41.28125 31.265625 
Q 36.765625 34.90625 28.71875 34.90625 
L 20.21875 34.90625 
L 20.21875 43.015625 
L 29.109375 43.015625 
Q 36.375 43.015625 40.234375 45.921875 
Q 44.09375 48.828125 44.09375 54.296875 
Q 44.09375 59.90625 40.109375 62.90625 
Q 36.140625 65.921875 28.71875 65.921875 
Q 24.65625 65.921875 20.015625 65.03125 
Q 15.375 64.15625 9.8125 62.3125 
L 9.8125 71.09375 
Q 15.4375 72.65625 20.34375 73.4375 
Q 25.25 74.21875 29.59375 74.21875 
Q 40.828125 74.21875 47.359375 69.109375 
Q 53.90625 64.015625 53.90625 55.328125 
Q 53.90625 49.265625 50.4375 45.09375 
Q 46.96875 40.921875 40.578125 39.3125 
z
" id="DejaVuSans-51"/>
      </defs>
      <g transform="translate(63.159803 143.520928)scale(0.1 -0.1)">
       <use transform="translate(0 0.765625)" xlink:href="#DejaVuSans-49"/>
       <use transform="translate(63.623047 0.765625)" xlink:href="#DejaVuSans-48"/>
       <use transform="translate(128.203125 39.046875)scale(0.7)" xlink:href="#DejaVuSans-8722"/>
       <use transform="translate(186.855469 39.046875)scale(0.7)" xlink:href="#DejaVuSans-51"/>
      </g>
     </g>
    </g>
    <g id="xtick_2">
     <g id="line2d_3">
      <path clip-path="url(#p2a49cbd399)" d="M 115.425631 128.92249 
L 115.425631 10.8 
" style="fill:none;stroke:#b0b0b0;stroke-linecap:square;stroke-width:0.8;"/>
     </g>
     <g id="line2d_4">
      <g>
       <use style="stroke:#000000;stroke-width:0.8;" x="115.425631" xlink:href="#m7dd60d4a66" y="128.92249"/>
      </g>
     </g>
     <g id="text_2">
      <!-- $\mathdefault{10^{-2}}$ -->
      <defs>
       <path d="M 19.1875 8.296875 
L 53.609375 8.296875 
L 53.609375 0 
L 7.328125 0 
L 7.328125 8.296875 
Q 12.9375 14.109375 22.625 23.890625 
Q 32.328125 33.6875 34.8125 36.53125 
Q 39.546875 41.84375 41.421875 45.53125 
Q 43.3125 49.21875 43.3125 52.78125 
Q 43.3125 58.59375 39.234375 62.25 
Q 35.15625 65.921875 28.609375 65.921875 
Q 23.96875 65.921875 18.8125 64.3125 
Q 13.671875 62.703125 7.8125 59.421875 
L 7.8125 69.390625 
Q 13.765625 71.78125 18.9375 73 
Q 24.125 74.21875 28.421875 74.21875 
Q 39.75 74.21875 46.484375 68.546875 
Q 53.21875 62.890625 53.21875 53.421875 
Q 53.21875 48.921875 51.53125 44.890625 
Q 49.859375 40.875 45.40625 35.40625 
Q 44.1875 33.984375 37.640625 27.21875 
Q 31.109375 20.453125 19.1875 8.296875 
z
" id="DejaVuSans-50"/>
      </defs>
      <g transform="translate(103.675631 143.520928)scale(0.1 -0.1)">
       <use transform="translate(0 0.765625)" xlink:href="#DejaVuSans-49"/>
       <use transform="translate(63.623047 0.765625)" xlink:href="#DejaVuSans-48"/>
       <use transform="translate(128.203125 39.046875)scale(0.7)" xlink:href="#DejaVuSans-8722"/>
       <use transform="translate(186.855469 39.046875)scale(0.7)" xlink:href="#DejaVuSans-50"/>
      </g>
     </g>
    </g>
    <g id="xtick_3">
     <g id="line2d_5">
      <path clip-path="url(#p2a49cbd399)" d="M 155.941459 128.92249 
L 155.941459 10.8 
" style="fill:none;stroke:#b0b0b0;stroke-linecap:square;stroke-width:0.8;"/>
     </g>
     <g id="line2d_6">
      <g>
       <use style="stroke:#000000;stroke-width:0.8;" x="155.941459" xlink:href="#m7dd60d4a66" y="128.92249"/>
      </g>
     </g>
     <g id="text_3">
      <!-- $\mathdefault{10^{-1}}$ -->
      <g transform="translate(144.191459 143.520928)scale(0.1 -0.1)">
       <use transform="translate(0 0.684375)" xlink:href="#DejaVuSans-49"/>
       <use transform="translate(63.623047 0.684375)" xlink:href="#DejaVuSans-48"/>
       <use transform="translate(128.203125 38.965625)scale(0.7)" xlink:href="#DejaVuSans-8722"/>
       <use transform="translate(186.855469 38.965625)scale(0.7)" xlink:href="#DejaVuSans-49"/>
      </g>
     </g>
    </g>
    <g id="xtick_4">
     <g id="line2d_7">
      <path clip-path="url(#p2a49cbd399)" d="M 196.457286 128.92249 
L 196.457286 10.8 
" style="fill:none;stroke:#b0b0b0;stroke-linecap:square;stroke-width:0.8;"/>
     </g>
     <g id="line2d_8">
      <g>
       <use style="stroke:#000000;stroke-width:0.8;" x="196.457286" xlink:href="#m7dd60d4a66" y="128.92249"/>
      </g>
     </g>
     <g id="text_4">
      <!-- $\mathdefault{10^{0}}$ -->
      <g transform="translate(187.657286 143.520928)scale(0.1 -0.1)">
       <use transform="translate(0 0.765625)" xlink:href="#DejaVuSans-49"/>
       <use transform="translate(63.623047 0.765625)" xlink:href="#DejaVuSans-48"/>
       <use transform="translate(128.203125 39.046875)scale(0.7)" xlink:href="#DejaVuSans-48"/>
      </g>
     </g>
    </g>
    <g id="xtick_5">
     <g id="line2d_9">
      <defs>
       <path d="M 0 0 
L 0 2 
" id="mf8bf8f42d6" style="stroke:#000000;stroke-width:0.6;"/>
      </defs>
      <g>
       <use style="stroke:#000000;stroke-width:0.6;" x="58.786935" xlink:href="#mf8bf8f42d6" y="128.92249"/>
      </g>
     </g>
    </g>
    <g id="xtick_6">
     <g id="line2d_10">
      <g>
       <use style="stroke:#000000;stroke-width:0.6;" x="62.713324" xlink:href="#mf8bf8f42d6" y="128.92249"/>
      </g>
     </g>
    </g>
    <g id="xtick_7">
     <g id="line2d_11">
      <g>
       <use style="stroke:#000000;stroke-width:0.6;" x="65.921418" xlink:href="#mf8bf8f42d6" y="128.92249"/>
      </g>
     </g>
    </g>
    <g id="xtick_8">
     <g id="line2d_12">
      <g>
       <use style="stroke:#000000;stroke-width:0.6;" x="68.633822" xlink:href="#mf8bf8f42d6" y="128.92249"/>
      </g>
     </g>
    </g>
    <g id="xtick_9">
     <g id="line2d_13">
      <g>
       <use style="stroke:#000000;stroke-width:0.6;" x="70.983414" xlink:href="#mf8bf8f42d6" y="128.92249"/>
      </g>
     </g>
    </g>
    <g id="xtick_10">
     <g id="line2d_14">
      <g>
       <use style="stroke:#000000;stroke-width:0.6;" x="73.055901" xlink:href="#mf8bf8f42d6" y="128.92249"/>
      </g>
     </g>
    </g>
    <g id="xtick_11">
     <g id="line2d_15">
      <g>
       <use style="stroke:#000000;stroke-width:0.6;" x="87.106283" xlink:href="#mf8bf8f42d6" y="128.92249"/>
      </g>
     </g>
    </g>
    <g id="xtick_12">
     <g id="line2d_16">
      <g>
       <use style="stroke:#000000;stroke-width:0.6;" x="94.240766" xlink:href="#mf8bf8f42d6" y="128.92249"/>
      </g>
     </g>
    </g>
    <g id="xtick_13">
     <g id="line2d_17">
      <g>
       <use style="stroke:#000000;stroke-width:0.6;" x="99.302762" xlink:href="#mf8bf8f42d6" y="128.92249"/>
      </g>
     </g>
    </g>
    <g id="xtick_14">
     <g id="line2d_18">
      <g>
       <use style="stroke:#000000;stroke-width:0.6;" x="103.229152" xlink:href="#mf8bf8f42d6" y="128.92249"/>
      </g>
     </g>
    </g>
    <g id="xtick_15">
     <g id="line2d_19">
      <g>
       <use style="stroke:#000000;stroke-width:0.6;" x="106.437245" xlink:href="#mf8bf8f42d6" y="128.92249"/>
      </g>
     </g>
    </g>
    <g id="xtick_16">
     <g id="line2d_20">
      <g>
       <use style="stroke:#000000;stroke-width:0.6;" x="109.14965" xlink:href="#mf8bf8f42d6" y="128.92249"/>
      </g>
     </g>
    </g>
    <g id="xtick_17">
     <g id="line2d_21">
      <g>
       <use style="stroke:#000000;stroke-width:0.6;" x="111.499242" xlink:href="#mf8bf8f42d6" y="128.92249"/>
      </g>
     </g>
    </g>
    <g id="xtick_18">
     <g id="line2d_22">
      <g>
       <use style="stroke:#000000;stroke-width:0.6;" x="113.571728" xlink:href="#mf8bf8f42d6" y="128.92249"/>
      </g>
     </g>
    </g>
    <g id="xtick_19">
     <g id="line2d_23">
      <g>
       <use style="stroke:#000000;stroke-width:0.6;" x="127.62211" xlink:href="#mf8bf8f42d6" y="128.92249"/>
      </g>
     </g>
    </g>
    <g id="xtick_20">
     <g id="line2d_24">
      <g>
       <use style="stroke:#000000;stroke-width:0.6;" x="134.756594" xlink:href="#mf8bf8f42d6" y="128.92249"/>
      </g>
     </g>
    </g>
    <g id="xtick_21">
     <g id="line2d_25">
      <g>
       <use style="stroke:#000000;stroke-width:0.6;" x="139.81859" xlink:href="#mf8bf8f42d6" y="128.92249"/>
      </g>
     </g>
    </g>
    <g id="xtick_22">
     <g id="line2d_26">
      <g>
       <use style="stroke:#000000;stroke-width:0.6;" x="143.744979" xlink:href="#mf8bf8f42d6" y="128.92249"/>
      </g>
     </g>
    </g>
    <g id="xtick_23">
     <g id="line2d_27">
      <g>
       <use style="stroke:#000000;stroke-width:0.6;" x="146.953073" xlink:href="#mf8bf8f42d6" y="128.92249"/>
      </g>
     </g>
    </g>
    <g id="xtick_24">
     <g id="line2d_28">
      <g>
       <use style="stroke:#000000;stroke-width:0.6;" x="149.665478" xlink:href="#mf8bf8f42d6" y="128.92249"/>
      </g>
     </g>
    </g>
    <g id="xtick_25">
     <g id="line2d_29">
      <g>
       <use style="stroke:#000000;stroke-width:0.6;" x="152.015069" xlink:href="#mf8bf8f42d6" y="128.92249"/>
      </g>
     </g>
    </g>
    <g id="xtick_26">
     <g id="line2d_30">
      <g>
       <use style="stroke:#000000;stroke-width:0.6;" x="154.087556" xlink:href="#mf8bf8f42d6" y="128.92249"/>
      </g>
     </g>
    </g>
    <g id="xtick_27">
     <g id="line2d_31">
      <g>
       <use style="stroke:#000000;stroke-width:0.6;" x="168.137938" xlink:href="#mf8bf8f42d6" y="128.92249"/>
      </g>
     </g>
    </g>
    <g id="xtick_28">
     <g id="line2d_32">
      <g>
       <use style="stroke:#000000;stroke-width:0.6;" x="175.272421" xlink:href="#mf8bf8f42d6" y="128.92249"/>
      </g>
     </g>
    </g>
    <g id="xtick_29">
     <g id="line2d_33">
      <g>
       <use style="stroke:#000000;stroke-width:0.6;" x="180.334418" xlink:href="#mf8bf8f42d6" y="128.92249"/>
      </g>
     </g>
    </g>
    <g id="xtick_30">
     <g id="line2d_34">
      <g>
       <use style="stroke:#000000;stroke-width:0.6;" x="184.260807" xlink:href="#mf8bf8f42d6" y="128.92249"/>
      </g>
     </g>
    </g>
    <g id="xtick_31">
     <g id="line2d_35">
      <g>
       <use style="stroke:#000000;stroke-width:0.6;" x="187.468901" xlink:href="#mf8bf8f42d6" y="128.92249"/>
      </g>
     </g>
    </g>
    <g id="xtick_32">
     <g id="line2d_36">
      <g>
       <use style="stroke:#000000;stroke-width:0.6;" x="190.181305" xlink:href="#mf8bf8f42d6" y="128.92249"/>
      </g>
     </g>
    </g>
    <g id="xtick_33">
     <g id="line2d_37">
      <g>
       <use style="stroke:#000000;stroke-width:0.6;" x="192.530897" xlink:href="#mf8bf8f42d6" y="128.92249"/>
      </g>
     </g>
    </g>
    <g id="xtick_34">
     <g id="line2d_38">
      <g>
       <use style="stroke:#000000;stroke-width:0.6;" x="194.603384" xlink:href="#mf8bf8f42d6" y="128.92249"/>
      </g>
     </g>
    </g>
    <g id="xtick_35">
     <g id="line2d_39">
      <g>
       <use style="stroke:#000000;stroke-width:0.6;" x="208.653766" xlink:href="#mf8bf8f42d6" y="128.92249"/>
      </g>
     </g>
    </g>
    <g id="xtick_36">
     <g id="line2d_40">
      <g>
       <use style="stroke:#000000;stroke-width:0.6;" x="215.788249" xlink:href="#mf8bf8f42d6" y="128.92249"/>
      </g>
     </g>
    </g>
    <g id="text_5">
     <!-- f (Hz) -->
     <defs>
      <path d="M 37.109375 75.984375 
L 37.109375 68.5 
L 28.515625 68.5 
Q 23.6875 68.5 21.796875 66.546875 
Q 19.921875 64.59375 19.921875 59.515625 
L 19.921875 54.6875 
L 34.71875 54.6875 
L 34.71875 47.703125 
L 19.921875 47.703125 
L 19.921875 0 
L 10.890625 0 
L 10.890625 47.703125 
L 2.296875 47.703125 
L 2.296875 54.6875 
L 10.890625 54.6875 
L 10.890625 58.5 
Q 10.890625 67.625 15.140625 71.796875 
Q 19.390625 75.984375 28.609375 75.984375 
z
" id="DejaVuSans-102"/>
      <path id="DejaVuSans-32"/>
      <path d="M 31 75.875 
Q 24.46875 64.65625 21.28125 53.65625 
Q 18.109375 42.671875 18.109375 31.390625 
Q 18.109375 20.125 21.3125 9.0625 
Q 24.515625 -2 31 -13.1875 
L 23.1875 -13.1875 
Q 15.875 -1.703125 12.234375 9.375 
Q 8.59375 20.453125 8.59375 31.390625 
Q 8.59375 42.28125 12.203125 53.3125 
Q 15.828125 64.359375 23.1875 75.875 
z
" id="DejaVuSans-40"/>
      <path d="M 9.8125 72.90625 
L 19.671875 72.90625 
L 19.671875 43.015625 
L 55.515625 43.015625 
L 55.515625 72.90625 
L 65.375 72.90625 
L 65.375 0 
L 55.515625 0 
L 55.515625 34.71875 
L 19.671875 34.71875 
L 19.671875 0 
L 9.8125 0 
z
" id="DejaVuSans-72"/>
      <path d="M 5.515625 54.6875 
L 48.1875 54.6875 
L 48.1875 46.484375 
L 14.40625 7.171875 
L 48.1875 7.171875 
L 48.1875 0 
L 4.296875 0 
L 4.296875 8.203125 
L 38.09375 47.515625 
L 5.515625 47.515625 
z
" id="DejaVuSans-122"/>
      <path d="M 8.015625 75.875 
L 15.828125 75.875 
Q 23.140625 64.359375 26.78125 53.3125 
Q 30.421875 42.28125 30.421875 31.390625 
Q 30.421875 20.453125 26.78125 9.375 
Q 23.140625 -1.703125 15.828125 -13.1875 
L 8.015625 -13.1875 
Q 14.5 -2 17.703125 9.0625 
Q 20.90625 20.125 20.90625 31.390625 
Q 20.90625 42.671875 17.703125 53.65625 
Q 14.5 64.65625 8.015625 75.875 
z
" id="DejaVuSans-41"/>
     </defs>
     <g transform="translate(121.839733 157.199053)scale(0.1 -0.1)">
      <use xlink:href="#DejaVuSans-102"/>
      <use x="35.205078" xlink:href="#DejaVuSans-32"/>
      <use x="66.992188" xlink:href="#DejaVuSans-40"/>
      <use x="106.005859" xlink:href="#DejaVuSans-72"/>
      <use x="181.201172" xlink:href="#DejaVuSans-122"/>
      <use x="233.691406" xlink:href="#DejaVuSans-41"/>
     </g>
    </g>
   </g>
   <g id="matplotlib.axis_2">
    <g id="ytick_1">
     <g id="line2d_41">
      <path clip-path="url(#p2a49cbd399)" d="M 54.978125 103.130534 
L 215.971654 103.130534 
" style="fill:none;stroke:#b0b0b0;stroke-linecap:square;stroke-width:0.8;"/>
     </g>
     <g id="line2d_42">
      <defs>
       <path d="M 0 0 
L -3.5 0 
" id="m23515b1cb3" style="stroke:#000000;stroke-width:0.8;"/>
      </defs>
      <g>
       <use style="stroke:#000000;stroke-width:0.8;" x="54.978125" xlink:href="#m23515b1cb3" y="103.130534"/>
      </g>
     </g>
     <g id="text_6">
      <!-- $\mathdefault{10^{-3}}$ -->
      <g transform="translate(24.478125 106.929753)scale(0.1 -0.1)">
       <use transform="translate(0 0.765625)" xlink:href="#DejaVuSans-49"/>
       <use transform="translate(63.623047 0.765625)" xlink:href="#DejaVuSans-48"/>
       <use transform="translate(128.203125 39.046875)scale(0.7)" xlink:href="#DejaVuSans-8722"/>
       <use transform="translate(186.855469 39.046875)scale(0.7)" xlink:href="#DejaVuSans-51"/>
      </g>
     </g>
    </g>
    <g id="ytick_2">
     <g id="line2d_43">
      <path clip-path="url(#p2a49cbd399)" d="M 54.978125 76.163015 
L 215.971654 76.163015 
" style="fill:none;stroke:#b0b0b0;stroke-linecap:square;stroke-width:0.8;"/>
     </g>
     <g id="line2d_44">
      <g>
       <use style="stroke:#000000;stroke-width:0.8;" x="54.978125" xlink:href="#m23515b1cb3" y="76.163015"/>
      </g>
     </g>
     <g id="text_7">
      <!-- $\mathdefault{10^{-1}}$ -->
      <g transform="translate(24.478125 79.962234)scale(0.1 -0.1)">
       <use transform="translate(0 0.684375)" xlink:href="#DejaVuSans-49"/>
       <use transform="translate(63.623047 0.684375)" xlink:href="#DejaVuSans-48"/>
       <use transform="translate(128.203125 38.965625)scale(0.7)" xlink:href="#DejaVuSans-8722"/>
       <use transform="translate(186.855469 38.965625)scale(0.7)" xlink:href="#DejaVuSans-49"/>
      </g>
     </g>
    </g>
    <g id="ytick_3">
     <g id="line2d_45">
      <path clip-path="url(#p2a49cbd399)" d="M 54.978125 49.195496 
L 215.971654 49.195496 
" style="fill:none;stroke:#b0b0b0;stroke-linecap:square;stroke-width:0.8;"/>
     </g>
     <g id="line2d_46">
      <g>
       <use style="stroke:#000000;stroke-width:0.8;" x="54.978125" xlink:href="#m23515b1cb3" y="49.195496"/>
      </g>
     </g>
     <g id="text_8">
      <!-- $\mathdefault{10^{1}}$ -->
      <g transform="translate(30.378125 52.994715)scale(0.1 -0.1)">
       <use transform="translate(0 0.684375)" xlink:href="#DejaVuSans-49"/>
       <use transform="translate(63.623047 0.684375)" xlink:href="#DejaVuSans-48"/>
       <use transform="translate(128.203125 38.965625)scale(0.7)" xlink:href="#DejaVuSans-49"/>
      </g>
     </g>
    </g>
    <g id="ytick_4">
     <g id="line2d_47">
      <path clip-path="url(#p2a49cbd399)" d="M 54.978125 22.227978 
L 215.971654 22.227978 
" style="fill:none;stroke:#b0b0b0;stroke-linecap:square;stroke-width:0.8;"/>
     </g>
     <g id="line2d_48">
      <g>
       <use style="stroke:#000000;stroke-width:0.8;" x="54.978125" xlink:href="#m23515b1cb3" y="22.227978"/>
      </g>
     </g>
     <g id="text_9">
      <!-- $\mathdefault{10^{3}}$ -->
      <g transform="translate(30.378125 26.027196)scale(0.1 -0.1)">
       <use transform="translate(0 0.765625)" xlink:href="#DejaVuSans-49"/>
       <use transform="translate(63.623047 0.765625)" xlink:href="#DejaVuSans-48"/>
       <use transform="translate(128.203125 39.046875)scale(0.7)" xlink:href="#DejaVuSans-51"/>
      </g>
     </g>
    </g>
    <g id="text_10">
     <!-- S(f) (m^2/s) -->
     <defs>
      <path d="M 53.515625 70.515625 
L 53.515625 60.890625 
Q 47.90625 63.578125 42.921875 64.890625 
Q 37.9375 66.21875 33.296875 66.21875 
Q 25.25 66.21875 20.875 63.09375 
Q 16.5 59.96875 16.5 54.203125 
Q 16.5 49.359375 19.40625 46.890625 
Q 22.3125 44.4375 30.421875 42.921875 
L 36.375 41.703125 
Q 47.40625 39.59375 52.65625 34.296875 
Q 57.90625 29 57.90625 20.125 
Q 57.90625 9.515625 50.796875 4.046875 
Q 43.703125 -1.421875 29.984375 -1.421875 
Q 24.8125 -1.421875 18.96875 -0.25 
Q 13.140625 0.921875 6.890625 3.21875 
L 6.890625 13.375 
Q 12.890625 10.015625 18.65625 8.296875 
Q 24.421875 6.59375 29.984375 6.59375 
Q 38.421875 6.59375 43.015625 9.90625 
Q 47.609375 13.234375 47.609375 19.390625 
Q 47.609375 24.75 44.3125 27.78125 
Q 41.015625 30.8125 33.5 32.328125 
L 27.484375 33.5 
Q 16.453125 35.6875 11.515625 40.375 
Q 6.59375 45.0625 6.59375 53.421875 
Q 6.59375 63.09375 13.40625 68.65625 
Q 20.21875 74.21875 32.171875 74.21875 
Q 37.3125 74.21875 42.625 73.28125 
Q 47.953125 72.359375 53.515625 70.515625 
z
" id="DejaVuSans-83"/>
      <path d="M 52 44.1875 
Q 55.375 50.25 60.0625 53.125 
Q 64.75 56 71.09375 56 
Q 79.640625 56 84.28125 50.015625 
Q 88.921875 44.046875 88.921875 33.015625 
L 88.921875 0 
L 79.890625 0 
L 79.890625 32.71875 
Q 79.890625 40.578125 77.09375 44.375 
Q 74.3125 48.1875 68.609375 48.1875 
Q 61.625 48.1875 57.5625 43.546875 
Q 53.515625 38.921875 53.515625 30.90625 
L 53.515625 0 
L 44.484375 0 
L 44.484375 32.71875 
Q 44.484375 40.625 41.703125 44.40625 
Q 38.921875 48.1875 33.109375 48.1875 
Q 26.21875 48.1875 22.15625 43.53125 
Q 18.109375 38.875 18.109375 30.90625 
L 18.109375 0 
L 9.078125 0 
L 9.078125 54.6875 
L 18.109375 54.6875 
L 18.109375 46.1875 
Q 21.1875 51.21875 25.484375 53.609375 
Q 29.78125 56 35.6875 56 
Q 41.65625 56 45.828125 52.96875 
Q 50 49.953125 52 44.1875 
z
" id="DejaVuSans-109"/>
      <path d="M 46.6875 72.90625 
L 73.1875 45.703125 
L 63.375 45.703125 
L 41.890625 64.984375 
L 20.40625 45.703125 
L 10.59375 45.703125 
L 37.109375 72.90625 
z
" id="DejaVuSans-94"/>
      <path d="M 25.390625 72.90625 
L 33.6875 72.90625 
L 8.296875 -9.28125 
L 0 -9.28125 
z
" id="DejaVuSans-47"/>
      <path d="M 44.28125 53.078125 
L 44.28125 44.578125 
Q 40.484375 46.53125 36.375 47.5 
Q 32.28125 48.484375 27.875 48.484375 
Q 21.1875 48.484375 17.84375 46.4375 
Q 14.5 44.390625 14.5 40.28125 
Q 14.5 37.15625 16.890625 35.375 
Q 19.28125 33.59375 26.515625 31.984375 
L 29.59375 31.296875 
Q 39.15625 29.25 43.1875 25.515625 
Q 47.21875 21.78125 47.21875 15.09375 
Q 47.21875 7.46875 41.1875 3.015625 
Q 35.15625 -1.421875 24.609375 -1.421875 
Q 20.21875 -1.421875 15.453125 -0.5625 
Q 10.6875 0.296875 5.421875 2 
L 5.421875 11.28125 
Q 10.40625 8.6875 15.234375 7.390625 
Q 20.0625 6.109375 24.8125 6.109375 
Q 31.15625 6.109375 34.5625 8.28125 
Q 37.984375 10.453125 37.984375 14.40625 
Q 37.984375 18.0625 35.515625 20.015625 
Q 33.0625 21.96875 24.703125 23.78125 
L 21.578125 24.515625 
Q 13.234375 26.265625 9.515625 29.90625 
Q 5.8125 33.546875 5.8125 39.890625 
Q 5.8125 47.609375 11.28125 51.796875 
Q 16.75 56 26.8125 56 
Q 31.78125 56 36.171875 55.265625 
Q 40.578125 54.546875 44.28125 53.078125 
z
" id="DejaVuSans-115"/>
     </defs>
     <g transform="translate(18.398437 100.718276)rotate(-90)scale(0.1 -0.1)">
      <use xlink:href="#DejaVuSans-83"/>
      <use x="63.476562" xlink:href="#DejaVuSans-40"/>
      <use x="102.490234" xlink:href="#DejaVuSans-102"/>
      <use x="137.695312" xlink:href="#DejaVuSans-41"/>
      <use x="176.708984" xlink:href="#DejaVuSans-32"/>
      <use x="208.496094" xlink:href="#DejaVuSans-40"/>
      <use x="247.509766" xlink:href="#DejaVuSans-109"/>
      <use x="344.921875" xlink:href="#DejaVuSans-94"/>
      <use x="428.710938" xlink:href="#DejaVuSans-50"/>
      <use x="492.333984" xlink:href="#DejaVuSans-47"/>
      <use x="526.025391" xlink:href="#DejaVuSans-115"/>
      <use x="578.125" xlink:href="#DejaVuSans-41"/>
     </g>
    </g>
   </g>
   <g id="line2d_49">
    <path clip-path="url(#p2a49cbd399)" d="M 62.296013 30.303587 
L 74.492492 35.186915 
L 81.626975 66.050154 
L 86.688972 24.558623 
L 90.615361 19.693219 
L 96.535859 22.150104 
L 98.885451 30.402186 
L 100.957938 16.169204 
L 102.81184 16.698009 
L 104.488899 26.447447 
L 106.019934 27.729413 
L 107.42835 24.322321 
L 108.732339 34.504122 
L 109.946323 32.0202 
L 111.08193 42.905012 
L 112.148669 32.322957 
L 113.154417 33.292185 
L 114.105773 42.418497 
L 115.00832 28.761982 
L 115.866822 27.854891 
L 116.685379 23.666983 
L 117.467543 24.829605 
L 118.216414 23.799096 
L 118.934709 21.269562 
L 119.624829 23.378263 
L 120.2889 31.399458 
L 120.928818 31.949131 
L 121.546278 38.301171 
L 122.142803 43.191355 
L 122.719766 28.513553 
L 123.27841 26.460206 
L 123.819862 29.081185 
L 124.345149 27.213081 
L 124.855207 32.237438 
L 125.833004 45.209181 
L 126.759312 29.104157 
L 127.204799 26.429966 
L 127.639286 40.891187 
L 128.477339 30.001915 
L 128.881858 30.552375 
L 129.277286 49.927774 
L 129.664022 31.676496 
L 130.042441 35.722331 
L 130.412893 36.675681 
L 130.775706 40.723171 
L 131.131189 34.729143 
L 131.479632 39.588731 
L 131.821308 34.930053 
L 132.156477 43.086931 
L 132.48538 44.719552 
L 132.808248 32.977952 
L 133.125298 30.071123 
L 133.742757 31.435822 
L 134.043548 40.037812 
L 134.339282 55.024902 
L 134.630129 37.312518 
L 134.916246 32.502272 
L 135.197784 37.640886 
L 135.474889 37.872667 
L 136.016341 42.352739 
L 136.280945 45.818609 
L 136.541628 46.972078 
L 137.051687 32.741054 
L 137.301277 29.457827 
L 137.547376 33.483066 
L 137.790081 43.009614 
L 138.265672 33.379856 
L 138.498732 40.110488 
L 138.728746 42.589789 
L 139.179945 41.691166 
L 139.401279 43.969505 
L 139.619863 38.840128 
L 139.835765 42.365247 
L 140.259781 43.151957 
L 140.468017 37.411613 
L 140.673819 39.613615 
L 140.877241 39.935681 
L 141.277162 34.724515 
L 141.473765 41.170239 
L 141.668196 52.957102 
L 141.860502 40.492898 
L 142.050729 38.161259 
L 142.238921 40.464364 
L 142.425121 51.600622 
L 142.609372 38.760324 
L 142.972185 48.316703 
L 143.150824 49.565123 
L 143.327668 78.692281 
L 143.502752 50.056296 
L 143.676111 43.22609 
L 143.847779 44.018792 
L 144.017788 74.909812 
L 144.18617 47.08838 
L 144.352956 57.080708 
L 144.518176 39.183899 
L 144.681859 34.334866 
L 144.844034 34.204139 
L 145.004727 37.619739 
L 145.163966 44.710726 
L 145.321777 43.037581 
L 145.478185 33.496487 
L 145.633215 33.226723 
L 145.939237 39.654235 
L 146.090275 40.697146 
L 146.240027 43.021641 
L 146.388516 49.477457 
L 146.535762 48.234072 
L 146.681786 50.734553 
L 146.826608 42.882709 
L 146.970248 44.367095 
L 147.112725 48.639823 
L 147.254057 62.895112 
L 147.533362 40.818234 
L 147.671369 45.204743 
L 147.808302 61.699818 
L 147.944177 46.491381 
L 148.079012 51.492845 
L 148.34562 39.089497 
L 148.477424 40.664803 
L 148.738107 55.953626 
L 148.994985 48.617833 
L 149.248166 35.120361 
L 149.373404 37.846605 
L 149.497756 45.748437 
L 149.621236 40.479891 
L 149.743855 53.017273 
L 149.865626 41.302625 
L 150.106668 57.981096 
L 150.225962 55.378632 
L 150.344453 43.978003 
L 150.462151 55.456596 
L 150.695212 37.338686 
L 150.810594 35.298554 
L 150.925225 35.384961 
L 151.039114 41.089755 
L 151.152271 53.152052 
L 151.264705 52.58082 
L 151.376424 46.296999 
L 151.487439 52.118183 
L 151.70739 39.105404 
L 151.924624 52.070017 
L 152.032244 66.127951 
L 152.13921 63.891555 
L 152.245529 64.64404 
L 152.45626 50.544681 
L 152.560687 46.793291 
L 152.664497 38.085694 
L 152.767698 39.231048 
L 152.870298 46.730667 
L 152.972303 45.689988 
L 153.07372 50.607826 
L 153.174556 40.968183 
L 153.274817 43.903755 
L 153.473642 38.514404 
L 153.767729 46.12736 
L 153.864676 45.914509 
L 153.961091 42.265509 
L 154.341556 58.558555 
L 154.4354 49.9653 
L 154.528747 51.856467 
L 154.621601 63.637424 
L 154.805852 46.842501 
L 154.897259 51.75434 
L 154.988193 42.483226 
L 155.07866 43.364398 
L 155.168665 41.024352 
L 155.258211 42.147931 
L 155.347304 40.596124 
L 155.435948 42.384737 
L 155.524147 64.925387 
L 155.611907 46.445877 
L 155.699232 48.635486 
L 155.786125 54.019933 
L 155.872591 43.383064 
L 155.958634 43.547978 
L 156.044258 54.617991 
L 156.129468 54.494857 
L 156.29866 44.599978 
L 156.382649 45.905863 
L 156.46624 57.740929 
L 156.549436 45.052966 
L 156.632239 55.735131 
L 156.714656 44.610776 
L 156.796687 47.442265 
L 156.878339 44.666835 
L 156.959613 46.313109 
L 157.121043 55.994447 
L 157.201206 59.676617 
L 157.674665 42.047586 
L 157.75235 45.260715 
L 157.829695 42.296478 
L 157.9067 42.920172 
L 158.135716 53.052846 
L 158.211397 50.894028 
L 158.286754 43.025196 
L 158.36179 43.759864 
L 158.510907 47.009285 
L 158.584995 65.63169 
L 158.805405 42.657654 
L 158.878265 40.67837 
L 159.095054 55.90775 
L 159.23811 42.059471 
L 159.380013 58.729835 
L 159.450537 47.783852 
L 159.52078 49.102881 
L 159.590743 55.830139 
L 159.66043 54.180024 
L 159.729841 45.978144 
L 159.867848 55.11923 
L 159.936448 49.175407 
L 160.004781 49.944681 
L 160.07285 49.459446 
L 160.140657 48.169396 
L 160.342523 58.907713 
L 160.4093 63.372125 
L 160.673904 45.885565 
L 160.739437 58.430943 
L 160.804728 53.503599 
L 160.934587 45.057634 
L 160.999159 45.430911 
L 161.127596 56.889537 
L 161.255102 45.3854 
L 161.444646 50.179948 
L 161.507376 58.548916 
L 161.569883 56.918195 
L 161.632169 58.224699 
L 161.694236 54.580548 
L 161.756084 71.011428 
L 161.817716 55.822133 
L 161.879132 58.975735 
L 161.940335 61.570049 
L 162.062106 50.994335 
L 162.122676 53.241617 
L 162.183039 60.535985 
L 162.243196 49.729896 
L 162.303148 52.260591 
L 162.422442 70.652451 
L 162.540932 46.084004 
L 162.59988 50.160585 
L 162.658631 63.07137 
L 162.717186 59.117035 
L 162.833715 47.788775 
L 162.891691 47.477353 
L 162.949477 50.609612 
L 163.007074 47.52309 
L 163.064483 48.146467 
L 163.121705 56.309266 
L 163.178741 54.308036 
L 163.235594 46.847798 
L 163.292263 62.571283 
L 163.34875 50.886201 
L 163.405057 59.630412 
L 163.461184 48.573916 
L 163.517133 51.236082 
L 163.572904 52.781292 
L 163.628499 64.723999 
L 163.683919 48.020392 
L 163.739165 51.802088 
L 163.849139 47.912713 
L 163.903869 50.754814 
L 164.012822 80.52094 
L 164.067046 63.403178 
L 164.121104 47.340926 
L 164.174996 53.619987 
L 164.228724 60.264495 
L 164.388929 46.774586 
L 164.54769 57.422791 
L 164.65274 48.119899 
L 164.809148 60.082971 
L 164.964178 47.148281 
L 165.117854 49.835132 
L 165.168782 61.111559 
L 165.219564 55.781351 
L 165.270199 49.89967 
L 165.371035 58.990752 
L 165.421237 49.182325 
L 165.471296 61.695245 
L 165.521214 54.376164 
L 165.57099 55.198987 
L 165.620625 54.217196 
L 165.719478 50.575986 
L 165.817779 52.629036 
L 165.866724 67.074008 
L 165.915534 58.63015 
L 165.964208 57.794744 
L 166.012748 52.496592 
L 166.061155 60.978508 
L 166.109429 58.139213 
L 166.205581 45.901059 
L 166.301211 61.32087 
L 166.348831 55.221594 
L 166.443687 53.323765 
L 166.490925 52.280367 
L 166.538035 57.028856 
L 166.58502 47.916217 
L 166.63188 48.373969 
L 166.678615 59.425981 
L 166.725226 49.895979 
L 166.81808 54.794338 
L 166.864324 52.057564 
L 166.910447 48.061092 
L 166.956449 51.750606 
L 167.002331 57.082446 
L 167.048094 50.804303 
L 167.139264 48.479982 
L 167.229964 54.231893 
L 167.365144 63.442586 
L 167.409974 60.862456 
L 167.543783 49.303027 
L 167.676582 69.042966 
L 167.808387 49.57362 
L 167.895711 73.911449 
L 167.939211 54.904164 
L 167.982604 50.288283 
L 168.02589 52.59441 
L 168.06907 68.042712 
L 168.155113 66.127187 
L 168.240738 50.145093 
L 168.325948 53.565704 
L 168.368398 62.832017 
L 168.410747 51.389784 
L 168.537184 46.804377 
L 168.620974 52.998221 
L 168.66272 51.305664 
L 168.704366 47.749228 
L 168.745915 48.002064 
L 168.828719 56.162733 
L 168.869975 49.209387 
L 168.911135 49.457849 
L 168.993167 85.788876 
L 169.03404 57.362043 
L 169.074818 51.879675 
L 169.115502 58.541441 
L 169.196589 57.367623 
L 169.236992 68.181596 
L 169.277304 51.752616 
L 169.35765 57.902221 
L 169.397686 51.997042 
L 169.437631 53.691857 
L 169.51725 51.403853 
L 169.596511 63.662044 
L 169.714736 50.071657 
L 169.793114 57.10382 
L 169.832172 93.867995 
L 169.871144 53.681782 
L 169.91003 53.586956 
L 169.987544 55.80301 
L 170.064719 75.151978 
L 170.10318 70.947839 
L 170.141557 53.258833 
L 170.21806 53.397863 
L 170.256188 68.109769 
L 170.294233 51.651401 
L 170.332196 54.815243 
L 170.370077 57.816286 
L 170.407877 72.230876 
L 170.445595 59.82618 
L 170.483234 55.247424 
L 170.558269 59.366132 
L 170.632986 66.209531 
L 170.670226 53.866035 
L 170.74447 61.651603 
L 170.892024 73.207164 
L 171.038352 48.714995 
L 171.147305 58.09418 
L 171.183473 51.653535 
L 171.327407 82.763268 
L 171.398934 51.849592 
L 171.470173 54.388782 
L 171.505684 52.150944 
L 171.541124 52.942827 
L 171.647016 68.760083 
L 171.717259 51.340153 
L 171.752276 55.714815 
L 171.8221 53.975129 
L 171.856909 62.032286 
L 171.891649 74.040296 
L 171.960924 60.158077 
L 171.995459 53.506943 
L 172.029927 67.751846 
L 172.098661 56.385038 
L 172.132927 70.028942 
L 172.167127 65.484934 
L 172.26933 51.85957 
L 172.303265 57.349332 
L 172.370942 52.187481 
L 172.404682 54.333474 
L 172.539002 77.488672 
L 172.60578 56.331299 
L 172.672304 62.246741 
L 172.705473 53.591153 
L 172.738579 64.40023 
L 172.771622 55.971866 
L 172.837524 67.310941 
L 172.870383 53.666055 
L 172.935917 55.119394 
L 172.968592 66.565221 
L 173.033762 54.807574 
L 173.066257 53.796921 
L 173.163382 64.630694 
L 173.195638 51.911857 
L 173.259974 59.971919 
L 173.324075 58.14136 
L 173.419791 72.299063 
L 173.546609 53.276507 
L 173.703855 93.429831 
L 173.735137 67.651225 
L 173.797533 83.934173 
L 173.828649 72.054535 
L 173.921667 56.057928 
L 173.952563 61.716927 
L 174.014195 58.176775 
L 174.04493 67.915388 
L 174.075612 54.215911 
L 174.10624 55.380225 
L 174.136814 55.051024 
L 174.258585 51.299431 
L 174.409623 73.763828 
L 174.469677 52.338926 
L 174.499627 55.059535 
L 174.529527 76.79517 
L 174.589173 52.575651 
L 174.618921 52.558816 
L 174.678266 53.816696 
L 174.707864 70.206302 
L 174.76691 52.782834 
L 174.825759 62.146082 
L 174.913665 56.104867 
L 174.972026 51.754363 
L 175.001134 53.56873 
L 175.059206 57.028707 
L 175.08817 52.470948 
L 175.145956 55.098359 
L 175.203553 54.907828 
L 175.232281 52.488039 
L 175.260962 56.919959 
L 175.289596 77.605984 
L 175.375221 68.645386 
L 175.517009 53.007588 
L 175.54523 53.289646 
L 175.601536 56.764753 
L 175.657663 56.565541 
L 175.68566 55.340056 
L 175.74152 59.983341 
L 175.769383 58.825183 
L 175.85271 54.742361 
L 175.880398 56.9179 
L 175.908043 73.130823 
L 175.963202 54.268596 
L 175.990717 56.657751 
L 176.073005 55.339837 
L 176.154909 75.00493 
L 176.290575 60.071445 
L 176.34455 57.725412 
L 176.39836 71.591666 
L 176.452006 58.121386 
L 176.478767 60.030297 
L 176.505488 77.487943 
L 176.558809 53.677425 
L 176.585409 53.417042 
L 176.638488 59.060125 
L 176.744169 57.551786 
L 176.77049 57.19841 
L 176.875384 82.987908 
L 176.90151 60.086025 
L 176.979655 74.482477 
L 177.005627 81.753709 
L 177.03156 67.38143 
L 177.109132 57.483224 
L 177.134914 70.01393 
L 177.160657 71.458321 
L 177.237663 78.855246 
L 177.288814 56.176263 
L 177.339816 69.536235 
L 177.441379 62.926989 
L 177.466679 58.099787 
L 177.491942 71.153772 
L 177.517169 58.488657 
L 177.617717 79.663482 
L 177.692752 54.864918 
L 177.742599 67.61182 
L 177.792304 70.817356 
L 177.866601 56.775972 
L 177.891296 69.769234 
L 177.940584 55.291924 
L 177.965177 60.694127 
L 177.989735 57.365367 
L 178.014259 61.847443 
L 178.063204 59.713105 
L 178.087625 64.796215 
L 178.160688 64.034052 
L 178.184974 60.158497 
L 178.209228 80.645345 
L 178.281788 62.127018 
L 178.35405 55.75471 
L 178.378072 56.618174 
L 178.49769 82.750487 
L 178.44994 55.493678 
L 178.521516 62.408251 
L 178.545311 59.131219 
L 178.569073 66.157781 
L 178.592803 64.211889 
L 178.616501 67.457441 
L 178.640167 65.621016 
L 178.687404 54.736572 
L 178.758023 57.656739 
L 178.804945 74.980438 
L 178.851742 67.159453 
L 178.991392 54.760359 
L 179.01456 54.615587 
L 179.08388 60.388655 
L 179.129942 91.262812 
L 179.175885 58.851134 
L 179.198811 77.717193 
L 179.244574 57.644952 
L 179.335744 63.62245 
L 179.358463 75.508563 
L 179.426444 57.436806 
L 179.449046 57.668421 
L 179.516679 86.34918 
L 179.561624 58.666213 
L 179.584053 62.538187 
L 179.65117 57.175644 
L 179.673485 57.640502 
L 179.695773 57.451305 
L 179.740263 56.363524 
L 179.78464 77.3449 
L 179.828907 56.549146 
L 179.895098 61.136672 
L 179.982967 68.609429 
L 180.004866 59.394138 
L 180.0704 74.313295 
L 180.09219 65.024584 
L 180.113954 73.819778 
L 180.1574 59.452632 
L 180.179083 59.98614 
L 180.20074 61.363045 
L 180.22237 70.487498 
L 180.2871 56.118665 
L 180.330121 66.564223 
L 180.351593 86.293506 
L 180.41585 57.264077 
L 180.437217 57.529933 
L 180.458558 56.895195 
L 180.501163 55.192894 
L 180.522427 56.658866 
L 180.607226 56.286607 
L 180.649473 72.242293 
L 180.691619 58.296522 
L 180.754648 73.265338 
L 180.775608 72.922572 
L 180.817453 56.820728 
L 180.880035 66.663658 
L 180.921632 68.320971 
L 180.963132 58.075671 
L 181.004534 73.544964 
L 181.066455 56.97032 
L 181.107614 56.081684 
L 181.148678 59.670568 
L 181.25092 85.215495 
L 181.271297 65.042892 
L 181.311981 67.60531 
L 181.332288 59.07414 
L 181.372832 69.401791 
L 181.433472 59.346533 
L 181.473783 59.086302 
L 181.534077 75.063203 
L 181.594165 57.444147 
L 181.654049 59.120513 
L 181.673965 66.858331 
L 181.733578 56.750767 
L 181.753404 57.279987 
L 181.79299 60.050088 
L 181.812749 59.434246 
L 181.911215 95.901086 
L 181.930843 70.824635 
L 181.989593 76.637645 
L 182.048148 56.790882 
L 182.067623 58.658061 
L 182.087077 82.192137 
L 182.164677 57.770123 
L 182.184024 60.89247 
L 182.261199 60.610302 
L 182.280439 92.921665 
L 182.395445 59.644395 
L 182.433614 58.739703 
L 182.528675 78.870166 
L 182.547626 58.701269 
L 182.642075 73.520616 
L 182.660904 70.382503 
L 182.679713 76.820129 
L 182.698502 86.973326 
L 182.754748 60.878361 
L 182.773457 76.350261 
L 182.810816 56.015802 
L 182.866705 61.15726 
L 182.885296 89.57943 
L 182.977954 64.244855 
L 183.014881 57.463897 
L 183.088504 59.050249 
L 183.106862 61.401662 
L 183.1252 86.501349 
L 183.16182 59.602587 
L 183.216607 62.445662 
L 183.234832 58.865777 
L 183.271224 67.420115 
L 183.307542 61.015394 
L 183.343784 88.529796 
L 183.398009 60.011583 
L 183.416046 66.90157 
L 183.488013 71.538327 
L 183.523886 58.344926 
L 183.559686 79.365428 
L 183.666652 64.864831 
L 183.702163 57.330914 
L 183.737603 73.973914 
L 183.755296 64.030389 
L 183.843496 71.907388 
L 183.861083 71.196246 
L 183.913739 58.386441 
L 183.983702 62.406911 
L 184.00115 64.096812 
L 184.035993 59.165345 
L 184.053388 61.628242 
L 184.070767 58.556929 
L 184.1228 60.370192 
L 184.209181 73.810308 
L 184.226407 64.065253 
L 184.312282 58.194612 
L 184.329407 59.566217 
L 184.346515 72.908969 
L 184.431807 67.196357 
L 184.465809 67.639586 
L 184.550526 57.662193 
L 184.5843 82.295179 
L 184.66845 67.512156 
L 184.718748 58.337493 
L 184.735482 60.938161 
L 184.7522 80.233283 
L 184.785588 58.443147 
L 184.852176 67.887248 
L 184.868784 62.704556 
L 184.918513 77.982642 
L 184.935058 83.453262 
L 184.968102 60.838198 
L 184.984601 64.072347 
L 185.001084 61.138064 
L 185.034004 70.350651 
L 185.066862 64.442303 
L 185.083269 79.412683 
L 185.116036 58.075419 
L 185.165072 68.639128 
L 185.262736 60.404693 
L 185.295171 62.884726 
L 185.343711 76.295972 
L 185.408224 73.126124 
L 185.456453 60.137641 
L 185.488533 80.405304 
L 185.520555 63.135357 
L 185.616271 77.897957 
L 185.584423 59.643568 
L 185.632173 69.431195 
L 185.727286 59.589425 
L 185.663935 71.973283 
L 185.743088 65.361881 
L 185.77465 61.443866 
L 185.837605 75.355142 
L 185.915983 88.011575 
L 185.962842 59.232042 
L 185.978434 59.475357 
L 185.994013 61.886895 
L 186.009577 85.51824 
L 186.040665 61.618879 
L 186.102677 64.099001 
L 186.118146 79.770117 
L 186.195287 59.613049 
L 186.210674 57.966264 
L 186.226049 60.199148 
L 186.272091 60.19448 
L 186.348561 80.669073 
L 186.470227 60.565296 
L 186.515635 64.452553 
L 186.575998 77.276999 
L 186.591057 61.539973 
L 186.651162 74.210164 
L 186.711063 60.765487 
L 186.740937 81.690335 
L 186.77076 67.384291 
L 186.859928 85.564805 
L 186.830256 59.897156 
L 186.874746 63.493599 
L 186.889551 72.073131 
L 186.933891 60.197986 
L 186.97812 62.607238 
L 186.992839 62.58079 
L 187.03692 76.262203 
L 187.095524 65.772864 
L 187.124753 62.104704 
L 187.139349 83.244477 
L 187.197614 61.376944 
L 187.241186 72.40652 
L 187.328007 59.245152 
L 187.356853 60.405212 
L 187.514664 76.038958 
L 187.614357 80.275249 
L 187.642737 61.507093 
L 187.685222 65.23588 
L 187.699361 84.192487 
L 187.769885 59.381742 
L 187.798016 69.069642 
L 187.812064 71.561641 
L 187.854143 59.600952 
L 187.882139 70.865031 
L 187.965863 60.623124 
L 187.937999 82.291007 
L 187.979778 63.177428 
L 187.993682 91.370055 
L 188.090705 64.809701 
L 188.104522 64.370289 
L 188.200938 78.623013 
L 188.132123 64.274541 
L 188.228388 73.18696 
L 188.310484 60.824435 
L 188.337764 62.779403 
L 188.351389 78.052134 
L 188.392198 59.997761 
L 188.446465 66.276854 
L 188.487055 72.364543 
L 188.54103 62.073901 
L 188.635089 61.537976 
L 188.661871 78.595539 
L 188.715313 60.490366 
L 188.755288 78.746261 
L 188.768593 67.134691 
L 188.834968 62.622671 
L 188.887887 87.216681 
L 189.006378 61.941712 
L 188.914288 93.250497 
L 189.019495 62.442332 
L 189.045698 72.738797 
L 189.058786 80.407959 
L 189.084931 60.279357 
L 189.137105 64.980787 
L 189.150125 61.796803 
L 189.189125 76.714658 
L 189.22804 68.975505 
L 189.292707 60.316272 
L 189.369994 63.420985 
L 189.382843 123.553286 
L 189.472519 66.380995 
L 189.561741 90.087466 
L 189.549023 64.530316 
L 189.57445 69.424048 
L 189.58715 67.736434 
L 189.599841 90.877912 
L 189.625195 64.471066 
L 189.701039 81.678507 
L 189.801659 62.417094 
L 189.826724 64.762787 
L 189.876748 75.429206 
L 189.901706 60.600598 
L 189.92663 70.964486 
L 190.025971 62.339015 
L 189.976371 73.751739 
L 190.038349 65.785994 
L 190.050719 92.159659 
L 190.075432 63.351629 
L 190.137064 66.460339 
L 190.149364 65.073285 
L 190.173939 71.07536 
L 190.186214 98.292657 
L 190.24746 63.801654 
L 190.271898 73.366145 
L 190.320674 62.852005 
L 190.369315 64.505539 
L 190.454114 88.897447 
L 190.405707 62.240167 
L 190.490332 75.030624 
L 190.502388 64.430536 
L 190.538506 85.139574 
L 190.59854 65.258905 
L 190.682244 70.373399 
L 190.658369 62.58334 
L 190.694169 63.223654 
L 190.717996 65.352093 
L 190.801135 63.288997 
L 190.824817 97.57752 
L 190.942752 61.704157 
L 190.954502 61.65789 
L 191.071574 88.565297 
L 191.083238 69.237859 
L 191.164673 63.728084 
L 191.118185 87.36706 
L 191.176276 69.069639 
L 191.257283 62.474194 
L 191.28036 83.11871 
L 191.372364 61.236331 
L 191.39529 68.766358 
L 191.406742 68.178295 
L 191.418186 98.41558 
L 191.452475 66.095246 
L 191.520853 76.272169 
L 191.566291 66.071844 
L 191.543586 87.934039 
L 191.622923 68.650821 
L 191.668099 87.078877 
L 191.701904 65.397774 
L 191.724405 75.371967 
L 191.746878 61.762714 
L 191.791736 86.123666 
L 191.836481 68.527119 
L 191.903385 62.206118 
L 191.869965 78.496584 
L 191.914511 64.384043 
L 191.936742 97.205841 
L 192.025386 65.833086 
L 192.12458 81.317305 
L 192.069541 65.005106 
L 192.135567 68.79016 
L 192.201346 63.739941 
L 192.179447 79.805446 
L 192.234143 66.207704 
L 192.321305 62.061343 
L 192.35388 93.481587 
L 192.397219 62.040835 
L 192.472807 72.159861 
L 192.548072 62.511739 
L 192.494344 83.513725 
L 192.590936 63.549384 
L 192.676353 86.120919 
L 192.697643 63.406403 
L 192.718906 70.817997 
L 192.729529 87.936578 
L 192.750754 62.955155 
L 192.824842 68.03431 
L 192.8354 65.677938 
L 192.867038 68.879046 
L 192.877571 66.106413 
L 192.888098 96.264162 
L 192.961611 63.700776 
L 192.982558 72.604525 
L 193.024378 63.378475 
L 193.076514 75.5523 
L 193.097325 68.48643 
L 193.118112 64.658601 
L 193.180325 74.517548 
L 193.190672 73.784098 
L 193.232001 94.426943 
L 193.273233 62.672992 
L 193.293813 79.087101 
L 193.314369 83.793835 
L 193.416789 62.957905 
L 193.426999 62.810026 
L 193.437202 63.834973 
L 193.518617 79.766763 
L 193.559184 73.020803 
L 193.579432 65.814796 
L 193.599657 88.931718 
L 193.609761 69.686636 
L 193.619859 95.626063 
L 193.660193 63.675036 
L 193.710481 71.457748 
L 193.750609 65.205189 
L 193.770638 92.302437 
L 193.820612 66.756262 
L 193.870444 87.326924 
L 193.890338 64.375379 
L 193.949884 77.476428 
L 194.048681 63.761793 
L 193.969688 87.661514 
L 194.068374 64.891995 
L 194.117511 69.274761 
L 194.166511 62.768241 
L 194.225131 84.814517 
L 194.283556 65.500641 
L 194.399829 77.464656 
L 194.302989 64.121963 
L 194.409483 68.181775 
L 194.476919 62.73348 
L 194.486531 65.405064 
L 194.505741 98.550739 
L 194.601474 78.017345 
L 194.620559 64.454269 
L 194.639623 83.197582 
L 194.706183 67.507332 
L 194.791393 91.267372 
L 194.763036 66.092459 
L 194.810273 68.400115 
L 194.819705 65.986227 
L 194.847971 86.679445 
L 194.885589 68.570292 
L 194.894981 90.062014 
L 194.951228 64.972435 
L 194.997963 73.577449 
L 195.007295 72.984583 
L 195.063185 91.43915 
L 195.100346 67.367023 
L 195.118897 75.329697 
L 195.146687 66.637994 
L 195.174433 92.93121 
L 195.22058 77.118554 
L 195.239005 86.562756 
L 195.266607 64.767341 
L 195.32168 71.023314 
L 195.330842 65.087534 
L 195.367442 86.266792 
L 195.431311 71.39706 
L 195.440416 89.497491 
L 195.540264 68.478799 
L 195.567397 64.899207 
L 195.558357 73.181797 
L 195.612526 67.651788 
L 195.621538 89.120185 
L 195.657539 64.270025 
L 195.720366 68.584868 
L 195.774039 63.717713 
L 195.791893 81.919493 
L 195.800814 71.609983 
L 195.880896 66.749792 
L 195.916371 81.069098 
L 195.942931 65.508909 
L 195.969451 96.622459 
L 196.022371 67.934377 
L 196.039975 65.451074 
L 196.145235 84.770685 
L 196.223768 65.099184 
L 196.241172 85.580631 
L 196.258559 69.965636 
L 196.319279 94.404541 
L 196.301952 65.395768 
L 196.362523 77.362251 
L 196.448693 66.706791 
L 196.431492 88.380922 
L 196.465876 70.563963 
L 196.517326 82.885707 
L 196.534442 64.850078 
L 196.577161 71.490724 
L 196.679265 65.734953 
L 196.628287 79.761972 
L 196.687747 70.324743 
L 196.696224 70.335534 
L 196.789212 65.482665 
L 196.738553 89.321081 
L 196.797641 65.933744 
L 196.839727 89.060654 
L 196.822905 65.354454 
L 196.906854 65.493791 
L 196.965381 77.511743 
L 196.990405 64.907822 
L 197.015393 67.121482 
L 197.065263 64.85162 
L 197.048656 72.853149 
L 197.073561 67.88585 
L 197.18108 66.100329 
L 197.197563 93.54138 
L 197.24692 65.665789 
L 197.214031 98.896529 
L 197.312515 78.939785 
L 197.426721 66.519767 
L 197.377866 88.525475 
L 197.43485 68.760036 
L 197.49975 91.350129 
L 197.54019 67.318432 
L 197.652933 86.290932 
L 197.660958 73.043433 
L 197.66898 66.447442 
L 197.693023 91.914696 
L 197.764957 77.705442 
L 197.780903 82.719426 
L 197.84454 69.998363 
L 197.852479 84.855113 
L 197.947463 65.996108 
L 197.955356 67.460365 
L 198.002635 67.248427 
L 198.065477 92.18523 
L 198.112462 67.190929 
L 198.182705 70.53809 
L 198.229378 81.163315 
L 198.252668 66.469152 
L 198.283674 67.484441 
L 198.291417 67.65002 
L 198.306893 94.201577 
L 198.337803 65.453711 
L 198.399462 67.794954 
L 198.407154 67.505245 
L 198.414843 70.694798 
L 198.476232 93.965142 
L 198.445564 65.401766 
L 198.529773 79.938247 
L 198.636369 68.940197 
L 198.545041 93.03877 
L 198.643958 71.280348 
L 198.659127 72.325035 
L 198.696992 104.739909 
L 198.719671 68.948012 
L 198.764944 72.114586 
L 198.795061 85.727514 
L 198.825126 69.237318 
L 198.847641 87.838019 
L 198.85514 66.656656 
L 198.929952 67.404995 
L 198.937416 67.007803 
L 198.952334 70.603246 
L 198.96724 70.14203 
L 199.056408 91.948939 
L 199.004448 67.865949 
L 199.08603 86.295649 
L 199.196673 66.179947 
L 199.115603 117.703368 
L 199.204024 68.808865 
L 199.299315 66.54039 
L 199.321232 81.310033 
L 199.394093 69.163664 
L 199.415892 95.746818 
L 199.43041 80.63271 
L 199.510046 66.456745 
L 199.466653 96.647474 
L 199.553332 69.053825 
L 199.589323 66.288815 
L 199.668244 97.037296 
L 199.732553 65.918374 
L 199.689706 111.861274 
L 199.78241 66.894651 
L 199.810836 83.16904 
L 199.832126 66.651917 
L 199.902905 71.727239 
L 199.909968 71.397829 
L 199.917027 87.808376 
L 199.959325 66.154289 
L 200.015564 69.291191 
L 200.078619 87.04696 
L 200.12053 70.451537 
L 200.141449 68.787332 
L 200.162342 82.606662 
L 200.183211 69.386823 
L 200.204055 94.393529 
L 200.217937 66.293865 
L 200.294095 80.187516 
L 200.307906 68.473108 
L 200.349275 97.014342 
L 200.404284 77.120002 
L 200.418009 68.450619 
L 200.431724 94.136557 
L 200.486475 69.71758 
L 200.527428 97.532318 
L 200.547868 67.033832 
L 200.59547 70.038393 
L 200.642944 87.817784 
L 200.69029 67.079244 
L 200.710542 84.212557 
L 200.750977 67.476879 
L 200.804746 108.207963 
L 200.824867 75.810678 
L 200.851659 122.31501 
L 200.891771 66.902618 
L 200.938453 81.403546 
L 200.951768 96.982589 
L 200.978368 67.882154 
L 200.985011 69.331818 
L 200.991653 68.654719 
L 200.998291 73.426205 
L 201.004927 86.58502 
L 201.031447 68.774248 
L 201.110767 78.375643 
L 201.150294 94.199365 
L 201.202858 71.632946 
L 201.209417 105.86475 
L 201.268343 68.847562 
L 201.307517 72.511479 
L 201.366115 67.219119 
L 201.340096 79.699448 
L 201.41804 71.204725 
L 201.430997 68.736204 
L 201.450415 89.988272 
L 201.502091 75.678919 
L 201.514986 96.31768 
L 201.540749 69.252556 
L 201.592161 88.108541 
L 201.630622 67.038628 
L 201.707292 73.310856 
L 201.732775 86.532607 
L 201.809002 69.633085 
L 201.81534 70.65059 
L 201.821675 95.267322 
L 201.853316 68.223583 
L 201.922728 88.878147 
L 202.010676 67.438957 
L 201.954188 98.941288 
L 202.035723 70.277172 
L 202.10442 89.371879 
L 202.09195 67.436233 
L 202.147997 70.918407 
L 202.203867 68.285338 
L 202.185263 84.574221 
L 202.247199 73.319136 
L 202.278085 93.662828 
L 202.29659 68.58304 
L 202.358136 74.449326 
L 202.462271 99.634916 
L 202.425588 68.930604 
L 202.468378 79.087747 
L 202.517153 70.812986 
L 202.492782 83.068721 
L 202.523241 75.596082 
L 202.529326 110.204315 
L 202.553647 69.548518 
L 202.632456 82.109371 
L 202.710915 68.116814 
L 202.64455 90.102368 
L 202.747009 72.475429 
L 202.759024 67.675129 
L 202.77103 86.318625 
L 202.812989 72.555785 
L 202.818975 94.680772 
L 202.848875 68.774397 
L 202.920427 74.195562 
L 202.944213 67.538748 
L 202.962032 88.835217 
L 203.033126 72.517774 
L 203.086259 97.389416 
L 203.103934 69.86622 
L 203.139231 69.969026 
L 203.162724 67.982857 
L 203.174458 80.799933 
L 203.180323 74.518392 
L 203.186185 90.690135 
L 203.238858 68.472644 
L 203.285547 73.39373 
L 203.2972 69.182267 
L 203.326298 91.056386 
L 203.390146 74.409401 
L 203.465305 98.416436 
L 203.407519 69.372203 
L 203.482603 76.739836 
L 203.488366 70.02627 
L 203.505642 85.59893 
L 203.586041 85.523176 
L 203.620385 100.81104 
L 203.637532 72.982666 
L 203.648955 81.257957 
L 203.717332 68.069961 
L 203.740066 97.257732 
L 203.757097 80.377951 
L 203.825056 70.720653 
L 203.819403 96.254292 
L 203.847651 81.898972 
L 203.932124 98.804956 
L 203.904012 68.983886 
L 203.954582 76.485061 
L 204.060868 69.720366 
L 203.988216 91.522495 
L 204.066444 72.397924 
L 204.094299 68.753938 
L 204.116551 78.551853 
L 204.12211 102.561801 
L 204.183139 71.536172 
L 204.227391 99.20292 
L 204.243957 68.060884 
L 204.271532 99.342455 
L 204.343026 70.414272 
L 204.414231 103.085724 
L 204.364966 69.732769 
L 204.463359 80.331062 
L 204.468809 72.651952 
L 204.501474 89.741352 
L 204.550359 74.641627 
L 204.555782 107.741801 
L 204.653117 71.581828 
L 204.658508 75.094304 
L 204.744552 105.424246 
L 204.760638 68.761343 
L 204.771354 93.667911 
L 204.856848 70.512119 
L 204.883481 81.877551 
L 204.904757 89.733903 
L 204.920698 69.821382 
L 204.984316 87.439962 
L 204.994897 69.475078 
L 205.026601 99.061241 
L 205.095098 82.185629 
L 205.147607 69.423552 
L 205.194732 88.471148 
L 205.19996 88.785717 
L 205.205187 85.312927 
L 205.252158 69.239702 
L 205.236515 100.7298 
L 205.319784 74.942125 
L 205.356091 69.497725 
L 205.376804 93.244119 
L 205.381978 74.38724 
L 205.387151 100.157529 
L 205.469712 70.429681 
L 205.490292 83.778671 
L 205.557011 69.069013 
L 205.541637 94.348464 
L 205.603053 72.263051 
L 205.633682 80.930249 
L 205.68461 69.559178 
L 205.715097 75.881078 
L 205.760728 70.634946 
L 205.735392 93.7419 
L 205.806241 80.532949 
L 205.871774 94.387872 
L 205.821385 69.71975 
L 205.906961 73.686881 
L 205.967118 69.442532 
L 205.932051 98.767325 
L 205.987124 74.403419 
L 206.017091 113.20944 
L 206.042025 69.558928 
L 206.096756 97.323516 
L 206.21558 69.415213 
L 206.235306 77.605836 
L 206.240234 104.175073 
L 206.323801 70.188056 
L 206.343407 80.224698 
L 206.348305 72.539987 
L 206.367883 103.185204 
L 206.445978 77.746136 
L 206.450847 95.17992 
L 206.547955 71.009817 
L 206.552796 71.197444 
L 206.634895 106.952951 
L 206.644529 70.928541 
L 206.66378 95.136768 
L 206.730995 70.074234 
L 206.69742 115.095289 
L 206.778849 72.272807 
L 206.883671 102.366101 
L 206.788404 71.028434 
L 206.888421 83.015724 
L 206.931112 69.858178 
L 206.968973 89.200154 
L 206.997315 75.142961 
L 207.096155 108.062325 
L 207.030323 70.507869 
L 207.114919 87.156406 
L 207.143027 73.444023 
L 207.199109 118.267343 
L 207.222424 75.877637 
L 207.301465 95.161385 
L 207.278254 71.969685 
L 207.329277 90.523088 
L 207.426275 97.185462 
L 207.44469 70.998429 
L 207.449291 70.326875 
L 207.45389 73.256146 
L 207.554779 91.705509 
L 207.47687 70.014968 
L 207.563922 73.893547 
L 207.641446 96.115408 
L 207.659638 71.850824 
L 207.673269 73.287198 
L 207.68689 70.964036 
L 207.695965 80.322759 
L 207.7005 74.528066 
L 207.790968 98.846931 
L 207.777427 70.196197 
L 207.813512 85.84755 
L 207.858514 70.992338 
L 207.836027 103.768922 
L 207.916845 78.524671 
L 207.921324 100.020209 
L 207.952645 71.205272 
L 208.02848 81.136055 
L 208.099556 72.640748 
L 208.050722 105.58536 
L 208.103989 74.489691 
L 208.10842 100.122559 
L 208.161513 71.497457 
L 208.214446 74.598268 
L 208.258436 71.788638 
L 208.324214 100.396058 
L 208.341714 71.316161 
L 208.433302 80.453543 
L 208.515759 102.959033 
L 208.537394 70.8608 
L 208.541718 73.652692 
L 208.563321 116.707174 
L 208.554683 71.227577 
L 208.64947 103.956036 
" style="fill:none;stroke:#000000;stroke-linecap:square;stroke-width:0.8;"/>
   </g>
   <g id="line2d_50">
    <path clip-path="url(#p2a49cbd399)" d="M 62.296013 32.342529 
L 74.492492 28.623524 
L 81.626975 26.784869 
L 86.688972 25.79338 
L 90.615361 25.296018 
L 93.823455 25.115639 
L 96.535859 25.14611 
L 98.885451 25.318289 
L 102.81184 25.915024 
L 106.019934 26.679202 
L 109.946323 27.915398 
L 114.105773 29.521715 
L 118.934709 31.670205 
L 124.855207 34.57793 
L 133.125298 38.916544 
L 147.254057 46.622862 
L 190.112437 70.362282 
L 208.653766 80.646386 
L 208.653766 80.646386 
" style="fill:none;stroke:#ff0000;stroke-linecap:square;stroke-width:2;"/>
   </g>
   <g id="patch_3">
    <path d="M 54.978125 128.92249 
L 54.978125 10.8 
" style="fill:none;stroke:#000000;stroke-linecap:square;stroke-linejoin:miter;stroke-width:0.8;"/>
   </g>
   <g id="patch_4">
    <path d="M 215.971654 128.92249 
L 215.971654 10.8 
" style="fill:none;stroke:#000000;stroke-linecap:square;stroke-linejoin:miter;stroke-width:0.8;"/>
   </g>
   <g id="patch_5">
    <path d="M 54.978125 128.92249 
L 215.971654 128.92249 
" style="fill:none;stroke:#000000;stroke-linecap:square;stroke-linejoin:miter;stroke-width:0.8;"/>
   </g>
   <g id="patch_6">
    <path d="M 54.978125 10.8 
L 215.971654 10.8 
" style="fill:none;stroke:#000000;stroke-linecap:square;stroke-linejoin:miter;stroke-width:0.8;"/>
   </g>
   <g id="legend_1">
    <g id="patch_7">
     <path d="M 61.978125 123.92249 
L 143.371875 123.92249 
Q 145.371875 123.92249 145.371875 121.92249 
L 145.371875 93.56624 
Q 145.371875 91.56624 143.371875 91.56624 
L 61.978125 91.56624 
Q 59.978125 91.56624 59.978125 93.56624 
L 59.978125 121.92249 
Q 59.978125 123.92249 61.978125 123.92249 
z
" style="fill:#ffffff;opacity:0.8;stroke:#cccccc;stroke-linejoin:miter;"/>
    </g>
    <g id="line2d_51">
     <path d="M 63.978125 99.664678 
L 83.978125 99.664678 
" style="fill:none;stroke:#000000;stroke-linecap:square;stroke-width:0.8;"/>
    </g>
    <g id="line2d_52"/>
    <g id="text_11">
     <!-- simulated -->
     <defs>
      <path d="M 9.421875 54.6875 
L 18.40625 54.6875 
L 18.40625 0 
L 9.421875 0 
z
M 9.421875 75.984375 
L 18.40625 75.984375 
L 18.40625 64.59375 
L 9.421875 64.59375 
z
" id="DejaVuSans-105"/>
      <path d="M 8.5 21.578125 
L 8.5 54.6875 
L 17.484375 54.6875 
L 17.484375 21.921875 
Q 17.484375 14.15625 20.5 10.265625 
Q 23.53125 6.390625 29.59375 6.390625 
Q 36.859375 6.390625 41.078125 11.03125 
Q 45.3125 15.671875 45.3125 23.6875 
L 45.3125 54.6875 
L 54.296875 54.6875 
L 54.296875 0 
L 45.3125 0 
L 45.3125 8.40625 
Q 42.046875 3.421875 37.71875 1 
Q 33.40625 -1.421875 27.6875 -1.421875 
Q 18.265625 -1.421875 13.375 4.4375 
Q 8.5 10.296875 8.5 21.578125 
z
M 31.109375 56 
z
" id="DejaVuSans-117"/>
      <path d="M 9.421875 75.984375 
L 18.40625 75.984375 
L 18.40625 0 
L 9.421875 0 
z
" id="DejaVuSans-108"/>
      <path d="M 34.28125 27.484375 
Q 23.390625 27.484375 19.1875 25 
Q 14.984375 22.515625 14.984375 16.5 
Q 14.984375 11.71875 18.140625 8.90625 
Q 21.296875 6.109375 26.703125 6.109375 
Q 34.1875 6.109375 38.703125 11.40625 
Q 43.21875 16.703125 43.21875 25.484375 
L 43.21875 27.484375 
z
M 52.203125 31.203125 
L 52.203125 0 
L 43.21875 0 
L 43.21875 8.296875 
Q 40.140625 3.328125 35.546875 0.953125 
Q 30.953125 -1.421875 24.3125 -1.421875 
Q 15.921875 -1.421875 10.953125 3.296875 
Q 6 8.015625 6 15.921875 
Q 6 25.140625 12.171875 29.828125 
Q 18.359375 34.515625 30.609375 34.515625 
L 43.21875 34.515625 
L 43.21875 35.40625 
Q 43.21875 41.609375 39.140625 45 
Q 35.0625 48.390625 27.6875 48.390625 
Q 23 48.390625 18.546875 47.265625 
Q 14.109375 46.140625 10.015625 43.890625 
L 10.015625 52.203125 
Q 14.9375 54.109375 19.578125 55.046875 
Q 24.21875 56 28.609375 56 
Q 40.484375 56 46.34375 49.84375 
Q 52.203125 43.703125 52.203125 31.203125 
z
" id="DejaVuSans-97"/>
      <path d="M 18.3125 70.21875 
L 18.3125 54.6875 
L 36.8125 54.6875 
L 36.8125 47.703125 
L 18.3125 47.703125 
L 18.3125 18.015625 
Q 18.3125 11.328125 20.140625 9.421875 
Q 21.96875 7.515625 27.59375 7.515625 
L 36.8125 7.515625 
L 36.8125 0 
L 27.59375 0 
Q 17.1875 0 13.234375 3.875 
Q 9.28125 7.765625 9.28125 18.015625 
L 9.28125 47.703125 
L 2.6875 47.703125 
L 2.6875 54.6875 
L 9.28125 54.6875 
L 9.28125 70.21875 
z
" id="DejaVuSans-116"/>
      <path d="M 56.203125 29.59375 
L 56.203125 25.203125 
L 14.890625 25.203125 
Q 15.484375 15.921875 20.484375 11.0625 
Q 25.484375 6.203125 34.421875 6.203125 
Q 39.59375 6.203125 44.453125 7.46875 
Q 49.3125 8.734375 54.109375 11.28125 
L 54.109375 2.78125 
Q 49.265625 0.734375 44.1875 -0.34375 
Q 39.109375 -1.421875 33.890625 -1.421875 
Q 20.796875 -1.421875 13.15625 6.1875 
Q 5.515625 13.8125 5.515625 26.8125 
Q 5.515625 40.234375 12.765625 48.109375 
Q 20.015625 56 32.328125 56 
Q 43.359375 56 49.78125 48.890625 
Q 56.203125 41.796875 56.203125 29.59375 
z
M 47.21875 32.234375 
Q 47.125 39.59375 43.09375 43.984375 
Q 39.0625 48.390625 32.421875 48.390625 
Q 24.90625 48.390625 20.390625 44.140625 
Q 15.875 39.890625 15.1875 32.171875 
z
" id="DejaVuSans-101"/>
      <path d="M 45.40625 46.390625 
L 45.40625 75.984375 
L 54.390625 75.984375 
L 54.390625 0 
L 45.40625 0 
L 45.40625 8.203125 
Q 42.578125 3.328125 38.25 0.953125 
Q 33.9375 -1.421875 27.875 -1.421875 
Q 17.96875 -1.421875 11.734375 6.484375 
Q 5.515625 14.40625 5.515625 27.296875 
Q 5.515625 40.1875 11.734375 48.09375 
Q 17.96875 56 27.875 56 
Q 33.9375 56 38.25 53.625 
Q 42.578125 51.265625 45.40625 46.390625 
z
M 14.796875 27.296875 
Q 14.796875 17.390625 18.875 11.75 
Q 22.953125 6.109375 30.078125 6.109375 
Q 37.203125 6.109375 41.296875 11.75 
Q 45.40625 17.390625 45.40625 27.296875 
Q 45.40625 37.203125 41.296875 42.84375 
Q 37.203125 48.484375 30.078125 48.484375 
Q 22.953125 48.484375 18.875 42.84375 
Q 14.796875 37.203125 14.796875 27.296875 
z
" id="DejaVuSans-100"/>
     </defs>
     <g transform="translate(91.978125 103.164678)scale(0.1 -0.1)">
      <use xlink:href="#DejaVuSans-115"/>
      <use x="52.099609" xlink:href="#DejaVuSans-105"/>
      <use x="79.882812" xlink:href="#DejaVuSans-109"/>
      <use x="177.294922" xlink:href="#DejaVuSans-117"/>
      <use x="240.673828" xlink:href="#DejaVuSans-108"/>
      <use x="268.457031" xlink:href="#DejaVuSans-97"/>
      <use x="329.736328" xlink:href="#DejaVuSans-116"/>
      <use x="368.945312" xlink:href="#DejaVuSans-101"/>
      <use x="430.46875" xlink:href="#DejaVuSans-100"/>
     </g>
    </g>
    <g id="line2d_53">
     <path d="M 63.978125 114.342803 
L 83.978125 114.342803 
" style="fill:none;stroke:#ff0000;stroke-linecap:square;stroke-width:2;"/>
    </g>
    <g id="line2d_54"/>
    <g id="text_12">
     <!-- target -->
     <defs>
      <path d="M 41.109375 46.296875 
Q 39.59375 47.171875 37.8125 47.578125 
Q 36.03125 48 33.890625 48 
Q 26.265625 48 22.1875 43.046875 
Q 18.109375 38.09375 18.109375 28.8125 
L 18.109375 0 
L 9.078125 0 
L 9.078125 54.6875 
L 18.109375 54.6875 
L 18.109375 46.1875 
Q 20.953125 51.171875 25.484375 53.578125 
Q 30.03125 56 36.53125 56 
Q 37.453125 56 38.578125 55.875 
Q 39.703125 55.765625 41.0625 55.515625 
z
" id="DejaVuSans-114"/>
      <path d="M 45.40625 27.984375 
Q 45.40625 37.75 41.375 43.109375 
Q 37.359375 48.484375 30.078125 48.484375 
Q 22.859375 48.484375 18.828125 43.109375 
Q 14.796875 37.75 14.796875 27.984375 
Q 14.796875 18.265625 18.828125 12.890625 
Q 22.859375 7.515625 30.078125 7.515625 
Q 37.359375 7.515625 41.375 12.890625 
Q 45.40625 18.265625 45.40625 27.984375 
z
M 54.390625 6.78125 
Q 54.390625 -7.171875 48.1875 -13.984375 
Q 42 -20.796875 29.203125 -20.796875 
Q 24.46875 -20.796875 20.265625 -20.09375 
Q 16.0625 -19.390625 12.109375 -17.921875 
L 12.109375 -9.1875 
Q 16.0625 -11.328125 19.921875 -12.34375 
Q 23.78125 -13.375 27.78125 -13.375 
Q 36.625 -13.375 41.015625 -8.765625 
Q 45.40625 -4.15625 45.40625 5.171875 
L 45.40625 9.625 
Q 42.625 4.78125 38.28125 2.390625 
Q 33.9375 0 27.875 0 
Q 17.828125 0 11.671875 7.65625 
Q 5.515625 15.328125 5.515625 27.984375 
Q 5.515625 40.671875 11.671875 48.328125 
Q 17.828125 56 27.875 56 
Q 33.9375 56 38.28125 53.609375 
Q 42.625 51.21875 45.40625 46.390625 
L 45.40625 54.6875 
L 54.390625 54.6875 
z
" id="DejaVuSans-103"/>
     </defs>
     <g transform="translate(91.978125 117.842803)scale(0.1 -0.1)">
      <use xlink:href="#DejaVuSans-116"/>
      <use x="39.208984" xlink:href="#DejaVuSans-97"/>
      <use x="100.488281" xlink:href="#DejaVuSans-114"/>
      <use x="141.585938" xlink:href="#DejaVuSans-103"/>
      <use x="205.0625" xlink:href="#DejaVuSans-101"/>
      <use x="266.585938" xlink:href="#DejaVuSans-116"/>
     </g>
    </g>
   </g>
  </g>
 </g>
 <defs>
  <clipPath id="p2a49cbd399">
   <rect height="118.12249" width="160.993529" x="54.978125" y="10.8"/>
  </clipPath>
 </defs>
</svg>
