<?xml version="1.0" encoding="utf-8" standalone="no"?>
<!DOCTYPE svg PUBLIC "-//W3C//DTD SVG 1.1//EN"
  "http://www.w3.org/Graphics/SVG/1.1/DTD/svg11.dtd">
<!-- Created with matplotlib (https://matplotlib.org/) -->
<svg height="170.07874pt" version="1.1" viewBox="0 0 226.771654 170.07874" width="226.771654pt" xmlns="http://www.w3.org/2000/svg" xmlns:xlink="http://www.w3.org/1999/xlink">
 <defs>
  <style type="text/css">
*{stroke-linecap:butt;stroke-linejoin:round;}
  </style>
 </defs>
 <g id="figure_1">
  <g id="patch_1">
   <path d="M 0 170.07874 
L 226.771654 170.07874 
L 226.771654 0 
L 0 0 
z
" style="fill:#ffffff;"/>
  </g>
  <g id="axes_1">
   <g id="patch_2">
    <path d="M 54.978125 128.92249 
L 215.971654 128.92249 
L 215.971654 10.8 
L 54.978125 10.8 
z
" style="fill:#ffffff;"/>
   </g>
   <g id="matplotlib.axis_1">
    <g id="xtick_1">
     <g id="line2d_1">
      <path clip-path="url(#p634c7ba2e1)" d="M 74.909803 128.92249 
L 74.909803 10.8 
" style="fill:none;stroke:#b0b0b0;stroke-linecap:square;stroke-width:0.8;"/>
     </g>
     <g id="line2d_2">
      <defs>
       <path d="M 0 0 
L 0 3.5 
" id="m29a3772655" style="stroke:#000000;stroke-width:0.8;"/>
      </defs>
      <g>
       <use style="stroke:#000000;stroke-width:0.8;" x="74.909803" xlink:href="#m29a3772655" y="128.92249"/>
      </g>
     </g>
     <g id="text_1">
      <!-- $\mathdefault{10^{-3}}$ -->
      <defs>
       <path d="M 12.40625 8.296875 
L 28.515625 8.296875 
L 28.515625 63.921875 
L 10.984375 60.40625 
L 10.984375 69.390625 
L 28.421875 72.90625 
L 38.28125 72.90625 
L 38.28125 8.296875 
L 54.390625 8.296875 
L 54.390625 0 
L 12.40625 0 
z
" id="DejaVuSans-49"/>
       <path d="M 31.78125 66.40625 
Q 24.171875 66.40625 20.328125 58.90625 
Q 16.5 51.421875 16.5 36.375 
Q 16.5 21.390625 20.328125 13.890625 
Q 24.171875 6.390625 31.78125 6.390625 
Q 39.453125 6.390625 43.28125 13.890625 
Q 47.125 21.390625 47.125 36.375 
Q 47.125 51.421875 43.28125 58.90625 
Q 39.453125 66.40625 31.78125 66.40625 
z
M 31.78125 74.21875 
Q 44.046875 74.21875 50.515625 64.515625 
Q 56.984375 54.828125 56.984375 36.375 
Q 56.984375 17.96875 50.515625 8.265625 
Q 44.046875 -1.421875 31.78125 -1.421875 
Q 19.53125 -1.421875 13.0625 8.265625 
Q 6.59375 17.96875 6.59375 36.375 
Q 6.59375 54.828125 13.0625 64.515625 
Q 19.53125 74.21875 31.78125 74.21875 
z
" id="DejaVuSans-48"/>
       <path d="M 10.59375 35.5 
L 73.1875 35.5 
L 73.1875 27.203125 
L 10.59375 27.203125 
z
" id="DejaVuSans-8722"/>
       <path d="M 40.578125 39.3125 
Q 47.65625 37.796875 51.625 33 
Q 55.609375 28.21875 55.609375 21.1875 
Q 55.609375 10.40625 48.1875 4.484375 
Q 40.765625 -1.421875 27.09375 -1.421875 
Q 22.515625 -1.421875 17.65625 -0.515625 
Q 12.796875 0.390625 7.625 2.203125 
L 7.625 11.71875 
Q 11.71875 9.328125 16.59375 8.109375 
Q 21.484375 6.890625 26.8125 6.890625 
Q 36.078125 6.890625 40.9375 10.546875 
Q 45.796875 14.203125 45.796875 21.1875 
Q 45.796875 27.640625 41.28125 31.265625 
Q 36.765625 34.90625 28.71875 34.90625 
L 20.21875 34.90625 
L 20.21875 43.015625 
L 29.109375 43.015625 
Q 36.375 43.015625 40.234375 45.921875 
Q 44.09375 48.828125 44.09375 54.296875 
Q 44.09375 59.90625 40.109375 62.90625 
Q 36.140625 65.921875 28.71875 65.921875 
Q 24.65625 65.921875 20.015625 65.03125 
Q 15.375 64.15625 9.8125 62.3125 
L 9.8125 71.09375 
Q 15.4375 72.65625 20.34375 73.4375 
Q 25.25 74.21875 29.59375 74.21875 
Q 40.828125 74.21875 47.359375 69.109375 
Q 53.90625 64.015625 53.90625 55.328125 
Q 53.90625 49.265625 50.4375 45.09375 
Q 46.96875 40.921875 40.578125 39.3125 
z
" id="DejaVuSans-51"/>
      </defs>
      <g transform="translate(63.159803 143.520928)scale(0.1 -0.1)">
       <use transform="translate(0 0.765625)" xlink:href="#DejaVuSans-49"/>
       <use transform="translate(63.623047 0.765625)" xlink:href="#DejaVuSans-48"/>
       <use transform="translate(128.203125 39.046875)scale(0.7)" xlink:href="#DejaVuSans-8722"/>
       <use transform="translate(186.855469 39.046875)scale(0.7)" xlink:href="#DejaVuSans-51"/>
      </g>
     </g>
    </g>
    <g id="xtick_2">
     <g id="line2d_3">
      <path clip-path="url(#p634c7ba2e1)" d="M 115.425631 128.92249 
L 115.425631 10.8 
" style="fill:none;stroke:#b0b0b0;stroke-linecap:square;stroke-width:0.8;"/>
     </g>
     <g id="line2d_4">
      <g>
       <use style="stroke:#000000;stroke-width:0.8;" x="115.425631" xlink:href="#m29a3772655" y="128.92249"/>
      </g>
     </g>
     <g id="text_2">
      <!-- $\mathdefault{10^{-2}}$ -->
      <defs>
       <path d="M 19.1875 8.296875 
L 53.609375 8.296875 
L 53.609375 0 
L 7.328125 0 
L 7.328125 8.296875 
Q 12.9375 14.109375 22.625 23.890625 
Q 32.328125 33.6875 34.8125 36.53125 
Q 39.546875 41.84375 41.421875 45.53125 
Q 43.3125 49.21875 43.3125 52.78125 
Q 43.3125 58.59375 39.234375 62.25 
Q 35.15625 65.921875 28.609375 65.921875 
Q 23.96875 65.921875 18.8125 64.3125 
Q 13.671875 62.703125 7.8125 59.421875 
L 7.8125 69.390625 
Q 13.765625 71.78125 18.9375 73 
Q 24.125 74.21875 28.421875 74.21875 
Q 39.75 74.21875 46.484375 68.546875 
Q 53.21875 62.890625 53.21875 53.421875 
Q 53.21875 48.921875 51.53125 44.890625 
Q 49.859375 40.875 45.40625 35.40625 
Q 44.1875 33.984375 37.640625 27.21875 
Q 31.109375 20.453125 19.1875 8.296875 
z
" id="DejaVuSans-50"/>
      </defs>
      <g transform="translate(103.675631 143.520928)scale(0.1 -0.1)">
       <use transform="translate(0 0.765625)" xlink:href="#DejaVuSans-49"/>
       <use transform="translate(63.623047 0.765625)" xlink:href="#DejaVuSans-48"/>
       <use transform="translate(128.203125 39.046875)scale(0.7)" xlink:href="#DejaVuSans-8722"/>
       <use transform="translate(186.855469 39.046875)scale(0.7)" xlink:href="#DejaVuSans-50"/>
      </g>
     </g>
    </g>
    <g id="xtick_3">
     <g id="line2d_5">
      <path clip-path="url(#p634c7ba2e1)" d="M 155.941459 128.92249 
L 155.941459 10.8 
" style="fill:none;stroke:#b0b0b0;stroke-linecap:square;stroke-width:0.8;"/>
     </g>
     <g id="line2d_6">
      <g>
       <use style="stroke:#000000;stroke-width:0.8;" x="155.941459" xlink:href="#m29a3772655" y="128.92249"/>
      </g>
     </g>
     <g id="text_3">
      <!-- $\mathdefault{10^{-1}}$ -->
      <g transform="translate(144.191459 143.520928)scale(0.1 -0.1)">
       <use transform="translate(0 0.684375)" xlink:href="#DejaVuSans-49"/>
       <use transform="translate(63.623047 0.684375)" xlink:href="#DejaVuSans-48"/>
       <use transform="translate(128.203125 38.965625)scale(0.7)" xlink:href="#DejaVuSans-8722"/>
       <use transform="translate(186.855469 38.965625)scale(0.7)" xlink:href="#DejaVuSans-49"/>
      </g>
     </g>
    </g>
    <g id="xtick_4">
     <g id="line2d_7">
      <path clip-path="url(#p634c7ba2e1)" d="M 196.457286 128.92249 
L 196.457286 10.8 
" style="fill:none;stroke:#b0b0b0;stroke-linecap:square;stroke-width:0.8;"/>
     </g>
     <g id="line2d_8">
      <g>
       <use style="stroke:#000000;stroke-width:0.8;" x="196.457286" xlink:href="#m29a3772655" y="128.92249"/>
      </g>
     </g>
     <g id="text_4">
      <!-- $\mathdefault{10^{0}}$ -->
      <g transform="translate(187.657286 143.520928)scale(0.1 -0.1)">
       <use transform="translate(0 0.765625)" xlink:href="#DejaVuSans-49"/>
       <use transform="translate(63.623047 0.765625)" xlink:href="#DejaVuSans-48"/>
       <use transform="translate(128.203125 39.046875)scale(0.7)" xlink:href="#DejaVuSans-48"/>
      </g>
     </g>
    </g>
    <g id="xtick_5">
     <g id="line2d_9">
      <defs>
       <path d="M 0 0 
L 0 2 
" id="m6c71928cff" style="stroke:#000000;stroke-width:0.6;"/>
      </defs>
      <g>
       <use style="stroke:#000000;stroke-width:0.6;" x="58.786935" xlink:href="#m6c71928cff" y="128.92249"/>
      </g>
     </g>
    </g>
    <g id="xtick_6">
     <g id="line2d_10">
      <g>
       <use style="stroke:#000000;stroke-width:0.6;" x="62.713324" xlink:href="#m6c71928cff" y="128.92249"/>
      </g>
     </g>
    </g>
    <g id="xtick_7">
     <g id="line2d_11">
      <g>
       <use style="stroke:#000000;stroke-width:0.6;" x="65.921418" xlink:href="#m6c71928cff" y="128.92249"/>
      </g>
     </g>
    </g>
    <g id="xtick_8">
     <g id="line2d_12">
      <g>
       <use style="stroke:#000000;stroke-width:0.6;" x="68.633822" xlink:href="#m6c71928cff" y="128.92249"/>
      </g>
     </g>
    </g>
    <g id="xtick_9">
     <g id="line2d_13">
      <g>
       <use style="stroke:#000000;stroke-width:0.6;" x="70.983414" xlink:href="#m6c71928cff" y="128.92249"/>
      </g>
     </g>
    </g>
    <g id="xtick_10">
     <g id="line2d_14">
      <g>
       <use style="stroke:#000000;stroke-width:0.6;" x="73.055901" xlink:href="#m6c71928cff" y="128.92249"/>
      </g>
     </g>
    </g>
    <g id="xtick_11">
     <g id="line2d_15">
      <g>
       <use style="stroke:#000000;stroke-width:0.6;" x="87.106283" xlink:href="#m6c71928cff" y="128.92249"/>
      </g>
     </g>
    </g>
    <g id="xtick_12">
     <g id="line2d_16">
      <g>
       <use style="stroke:#000000;stroke-width:0.6;" x="94.240766" xlink:href="#m6c71928cff" y="128.92249"/>
      </g>
     </g>
    </g>
    <g id="xtick_13">
     <g id="line2d_17">
      <g>
       <use style="stroke:#000000;stroke-width:0.6;" x="99.302762" xlink:href="#m6c71928cff" y="128.92249"/>
      </g>
     </g>
    </g>
    <g id="xtick_14">
     <g id="line2d_18">
      <g>
       <use style="stroke:#000000;stroke-width:0.6;" x="103.229152" xlink:href="#m6c71928cff" y="128.92249"/>
      </g>
     </g>
    </g>
    <g id="xtick_15">
     <g id="line2d_19">
      <g>
       <use style="stroke:#000000;stroke-width:0.6;" x="106.437245" xlink:href="#m6c71928cff" y="128.92249"/>
      </g>
     </g>
    </g>
    <g id="xtick_16">
     <g id="line2d_20">
      <g>
       <use style="stroke:#000000;stroke-width:0.6;" x="109.14965" xlink:href="#m6c71928cff" y="128.92249"/>
      </g>
     </g>
    </g>
    <g id="xtick_17">
     <g id="line2d_21">
      <g>
       <use style="stroke:#000000;stroke-width:0.6;" x="111.499242" xlink:href="#m6c71928cff" y="128.92249"/>
      </g>
     </g>
    </g>
    <g id="xtick_18">
     <g id="line2d_22">
      <g>
       <use style="stroke:#000000;stroke-width:0.6;" x="113.571728" xlink:href="#m6c71928cff" y="128.92249"/>
      </g>
     </g>
    </g>
    <g id="xtick_19">
     <g id="line2d_23">
      <g>
       <use style="stroke:#000000;stroke-width:0.6;" x="127.62211" xlink:href="#m6c71928cff" y="128.92249"/>
      </g>
     </g>
    </g>
    <g id="xtick_20">
     <g id="line2d_24">
      <g>
       <use style="stroke:#000000;stroke-width:0.6;" x="134.756594" xlink:href="#m6c71928cff" y="128.92249"/>
      </g>
     </g>
    </g>
    <g id="xtick_21">
     <g id="line2d_25">
      <g>
       <use style="stroke:#000000;stroke-width:0.6;" x="139.81859" xlink:href="#m6c71928cff" y="128.92249"/>
      </g>
     </g>
    </g>
    <g id="xtick_22">
     <g id="line2d_26">
      <g>
       <use style="stroke:#000000;stroke-width:0.6;" x="143.744979" xlink:href="#m6c71928cff" y="128.92249"/>
      </g>
     </g>
    </g>
    <g id="xtick_23">
     <g id="line2d_27">
      <g>
       <use style="stroke:#000000;stroke-width:0.6;" x="146.953073" xlink:href="#m6c71928cff" y="128.92249"/>
      </g>
     </g>
    </g>
    <g id="xtick_24">
     <g id="line2d_28">
      <g>
       <use style="stroke:#000000;stroke-width:0.6;" x="149.665478" xlink:href="#m6c71928cff" y="128.92249"/>
      </g>
     </g>
    </g>
    <g id="xtick_25">
     <g id="line2d_29">
      <g>
       <use style="stroke:#000000;stroke-width:0.6;" x="152.015069" xlink:href="#m6c71928cff" y="128.92249"/>
      </g>
     </g>
    </g>
    <g id="xtick_26">
     <g id="line2d_30">
      <g>
       <use style="stroke:#000000;stroke-width:0.6;" x="154.087556" xlink:href="#m6c71928cff" y="128.92249"/>
      </g>
     </g>
    </g>
    <g id="xtick_27">
     <g id="line2d_31">
      <g>
       <use style="stroke:#000000;stroke-width:0.6;" x="168.137938" xlink:href="#m6c71928cff" y="128.92249"/>
      </g>
     </g>
    </g>
    <g id="xtick_28">
     <g id="line2d_32">
      <g>
       <use style="stroke:#000000;stroke-width:0.6;" x="175.272421" xlink:href="#m6c71928cff" y="128.92249"/>
      </g>
     </g>
    </g>
    <g id="xtick_29">
     <g id="line2d_33">
      <g>
       <use style="stroke:#000000;stroke-width:0.6;" x="180.334418" xlink:href="#m6c71928cff" y="128.92249"/>
      </g>
     </g>
    </g>
    <g id="xtick_30">
     <g id="line2d_34">
      <g>
       <use style="stroke:#000000;stroke-width:0.6;" x="184.260807" xlink:href="#m6c71928cff" y="128.92249"/>
      </g>
     </g>
    </g>
    <g id="xtick_31">
     <g id="line2d_35">
      <g>
       <use style="stroke:#000000;stroke-width:0.6;" x="187.468901" xlink:href="#m6c71928cff" y="128.92249"/>
      </g>
     </g>
    </g>
    <g id="xtick_32">
     <g id="line2d_36">
      <g>
       <use style="stroke:#000000;stroke-width:0.6;" x="190.181305" xlink:href="#m6c71928cff" y="128.92249"/>
      </g>
     </g>
    </g>
    <g id="xtick_33">
     <g id="line2d_37">
      <g>
       <use style="stroke:#000000;stroke-width:0.6;" x="192.530897" xlink:href="#m6c71928cff" y="128.92249"/>
      </g>
     </g>
    </g>
    <g id="xtick_34">
     <g id="line2d_38">
      <g>
       <use style="stroke:#000000;stroke-width:0.6;" x="194.603384" xlink:href="#m6c71928cff" y="128.92249"/>
      </g>
     </g>
    </g>
    <g id="xtick_35">
     <g id="line2d_39">
      <g>
       <use style="stroke:#000000;stroke-width:0.6;" x="208.653766" xlink:href="#m6c71928cff" y="128.92249"/>
      </g>
     </g>
    </g>
    <g id="xtick_36">
     <g id="line2d_40">
      <g>
       <use style="stroke:#000000;stroke-width:0.6;" x="215.788249" xlink:href="#m6c71928cff" y="128.92249"/>
      </g>
     </g>
    </g>
    <g id="text_5">
     <!-- f (Hz) -->
     <defs>
      <path d="M 37.109375 75.984375 
L 37.109375 68.5 
L 28.515625 68.5 
Q 23.6875 68.5 21.796875 66.546875 
Q 19.921875 64.59375 19.921875 59.515625 
L 19.921875 54.6875 
L 34.71875 54.6875 
L 34.71875 47.703125 
L 19.921875 47.703125 
L 19.921875 0 
L 10.890625 0 
L 10.890625 47.703125 
L 2.296875 47.703125 
L 2.296875 54.6875 
L 10.890625 54.6875 
L 10.890625 58.5 
Q 10.890625 67.625 15.140625 71.796875 
Q 19.390625 75.984375 28.609375 75.984375 
z
" id="DejaVuSans-102"/>
      <path id="DejaVuSans-32"/>
      <path d="M 31 75.875 
Q 24.46875 64.65625 21.28125 53.65625 
Q 18.109375 42.671875 18.109375 31.390625 
Q 18.109375 20.125 21.3125 9.0625 
Q 24.515625 -2 31 -13.1875 
L 23.1875 -13.1875 
Q 15.875 -1.703125 12.234375 9.375 
Q 8.59375 20.453125 8.59375 31.390625 
Q 8.59375 42.28125 12.203125 53.3125 
Q 15.828125 64.359375 23.1875 75.875 
z
" id="DejaVuSans-40"/>
      <path d="M 9.8125 72.90625 
L 19.671875 72.90625 
L 19.671875 43.015625 
L 55.515625 43.015625 
L 55.515625 72.90625 
L 65.375 72.90625 
L 65.375 0 
L 55.515625 0 
L 55.515625 34.71875 
L 19.671875 34.71875 
L 19.671875 0 
L 9.8125 0 
z
" id="DejaVuSans-72"/>
      <path d="M 5.515625 54.6875 
L 48.1875 54.6875 
L 48.1875 46.484375 
L 14.40625 7.171875 
L 48.1875 7.171875 
L 48.1875 0 
L 4.296875 0 
L 4.296875 8.203125 
L 38.09375 47.515625 
L 5.515625 47.515625 
z
" id="DejaVuSans-122"/>
      <path d="M 8.015625 75.875 
L 15.828125 75.875 
Q 23.140625 64.359375 26.78125 53.3125 
Q 30.421875 42.28125 30.421875 31.390625 
Q 30.421875 20.453125 26.78125 9.375 
Q 23.140625 -1.703125 15.828125 -13.1875 
L 8.015625 -13.1875 
Q 14.5 -2 17.703125 9.0625 
Q 20.90625 20.125 20.90625 31.390625 
Q 20.90625 42.671875 17.703125 53.65625 
Q 14.5 64.65625 8.015625 75.875 
z
" id="DejaVuSans-41"/>
     </defs>
     <g transform="translate(121.839733 157.199053)scale(0.1 -0.1)">
      <use xlink:href="#DejaVuSans-102"/>
      <use x="35.205078" xlink:href="#DejaVuSans-32"/>
      <use x="66.992188" xlink:href="#DejaVuSans-40"/>
      <use x="106.005859" xlink:href="#DejaVuSans-72"/>
      <use x="181.201172" xlink:href="#DejaVuSans-122"/>
      <use x="233.691406" xlink:href="#DejaVuSans-41"/>
     </g>
    </g>
   </g>
   <g id="matplotlib.axis_2">
    <g id="ytick_1">
     <g id="line2d_41">
      <path clip-path="url(#p634c7ba2e1)" d="M 54.978125 103.212879 
L 215.971654 103.212879 
" style="fill:none;stroke:#b0b0b0;stroke-linecap:square;stroke-width:0.8;"/>
     </g>
     <g id="line2d_42">
      <defs>
       <path d="M 0 0 
L -3.5 0 
" id="ma5c2996168" style="stroke:#000000;stroke-width:0.8;"/>
      </defs>
      <g>
       <use style="stroke:#000000;stroke-width:0.8;" x="54.978125" xlink:href="#ma5c2996168" y="103.212879"/>
      </g>
     </g>
     <g id="text_6">
      <!-- $\mathdefault{10^{-3}}$ -->
      <g transform="translate(24.478125 107.012098)scale(0.1 -0.1)">
       <use transform="translate(0 0.765625)" xlink:href="#DejaVuSans-49"/>
       <use transform="translate(63.623047 0.765625)" xlink:href="#DejaVuSans-48"/>
       <use transform="translate(128.203125 39.046875)scale(0.7)" xlink:href="#DejaVuSans-8722"/>
       <use transform="translate(186.855469 39.046875)scale(0.7)" xlink:href="#DejaVuSans-51"/>
      </g>
     </g>
    </g>
    <g id="ytick_2">
     <g id="line2d_43">
      <path clip-path="url(#p634c7ba2e1)" d="M 54.978125 75.867081 
L 215.971654 75.867081 
" style="fill:none;stroke:#b0b0b0;stroke-linecap:square;stroke-width:0.8;"/>
     </g>
     <g id="line2d_44">
      <g>
       <use style="stroke:#000000;stroke-width:0.8;" x="54.978125" xlink:href="#ma5c2996168" y="75.867081"/>
      </g>
     </g>
     <g id="text_7">
      <!-- $\mathdefault{10^{-1}}$ -->
      <g transform="translate(24.478125 79.6663)scale(0.1 -0.1)">
       <use transform="translate(0 0.684375)" xlink:href="#DejaVuSans-49"/>
       <use transform="translate(63.623047 0.684375)" xlink:href="#DejaVuSans-48"/>
       <use transform="translate(128.203125 38.965625)scale(0.7)" xlink:href="#DejaVuSans-8722"/>
       <use transform="translate(186.855469 38.965625)scale(0.7)" xlink:href="#DejaVuSans-49"/>
      </g>
     </g>
    </g>
    <g id="ytick_3">
     <g id="line2d_45">
      <path clip-path="url(#p634c7ba2e1)" d="M 54.978125 48.521283 
L 215.971654 48.521283 
" style="fill:none;stroke:#b0b0b0;stroke-linecap:square;stroke-width:0.8;"/>
     </g>
     <g id="line2d_46">
      <g>
       <use style="stroke:#000000;stroke-width:0.8;" x="54.978125" xlink:href="#ma5c2996168" y="48.521283"/>
      </g>
     </g>
     <g id="text_8">
      <!-- $\mathdefault{10^{1}}$ -->
      <g transform="translate(30.378125 52.320501)scale(0.1 -0.1)">
       <use transform="translate(0 0.684375)" xlink:href="#DejaVuSans-49"/>
       <use transform="translate(63.623047 0.684375)" xlink:href="#DejaVuSans-48"/>
       <use transform="translate(128.203125 38.965625)scale(0.7)" xlink:href="#DejaVuSans-49"/>
      </g>
     </g>
    </g>
    <g id="ytick_4">
     <g id="line2d_47">
      <path clip-path="url(#p634c7ba2e1)" d="M 54.978125 21.175484 
L 215.971654 21.175484 
" style="fill:none;stroke:#b0b0b0;stroke-linecap:square;stroke-width:0.8;"/>
     </g>
     <g id="line2d_48">
      <g>
       <use style="stroke:#000000;stroke-width:0.8;" x="54.978125" xlink:href="#ma5c2996168" y="21.175484"/>
      </g>
     </g>
     <g id="text_9">
      <!-- $\mathdefault{10^{3}}$ -->
      <g transform="translate(30.378125 24.974703)scale(0.1 -0.1)">
       <use transform="translate(0 0.765625)" xlink:href="#DejaVuSans-49"/>
       <use transform="translate(63.623047 0.765625)" xlink:href="#DejaVuSans-48"/>
       <use transform="translate(128.203125 39.046875)scale(0.7)" xlink:href="#DejaVuSans-51"/>
      </g>
     </g>
    </g>
    <g id="text_10">
     <!-- S(f) (m^2/s) -->
     <defs>
      <path d="M 53.515625 70.515625 
L 53.515625 60.890625 
Q 47.90625 63.578125 42.921875 64.890625 
Q 37.9375 66.21875 33.296875 66.21875 
Q 25.25 66.21875 20.875 63.09375 
Q 16.5 59.96875 16.5 54.203125 
Q 16.5 49.359375 19.40625 46.890625 
Q 22.3125 44.4375 30.421875 42.921875 
L 36.375 41.703125 
Q 47.40625 39.59375 52.65625 34.296875 
Q 57.90625 29 57.90625 20.125 
Q 57.90625 9.515625 50.796875 4.046875 
Q 43.703125 -1.421875 29.984375 -1.421875 
Q 24.8125 -1.421875 18.96875 -0.25 
Q 13.140625 0.921875 6.890625 3.21875 
L 6.890625 13.375 
Q 12.890625 10.015625 18.65625 8.296875 
Q 24.421875 6.59375 29.984375 6.59375 
Q 38.421875 6.59375 43.015625 9.90625 
Q 47.609375 13.234375 47.609375 19.390625 
Q 47.609375 24.75 44.3125 27.78125 
Q 41.015625 30.8125 33.5 32.328125 
L 27.484375 33.5 
Q 16.453125 35.6875 11.515625 40.375 
Q 6.59375 45.0625 6.59375 53.421875 
Q 6.59375 63.09375 13.40625 68.65625 
Q 20.21875 74.21875 32.171875 74.21875 
Q 37.3125 74.21875 42.625 73.28125 
Q 47.953125 72.359375 53.515625 70.515625 
z
" id="DejaVuSans-83"/>
      <path d="M 52 44.1875 
Q 55.375 50.25 60.0625 53.125 
Q 64.75 56 71.09375 56 
Q 79.640625 56 84.28125 50.015625 
Q 88.921875 44.046875 88.921875 33.015625 
L 88.921875 0 
L 79.890625 0 
L 79.890625 32.71875 
Q 79.890625 40.578125 77.09375 44.375 
Q 74.3125 48.1875 68.609375 48.1875 
Q 61.625 48.1875 57.5625 43.546875 
Q 53.515625 38.921875 53.515625 30.90625 
L 53.515625 0 
L 44.484375 0 
L 44.484375 32.71875 
Q 44.484375 40.625 41.703125 44.40625 
Q 38.921875 48.1875 33.109375 48.1875 
Q 26.21875 48.1875 22.15625 43.53125 
Q 18.109375 38.875 18.109375 30.90625 
L 18.109375 0 
L 9.078125 0 
L 9.078125 54.6875 
L 18.109375 54.6875 
L 18.109375 46.1875 
Q 21.1875 51.21875 25.484375 53.609375 
Q 29.78125 56 35.6875 56 
Q 41.65625 56 45.828125 52.96875 
Q 50 49.953125 52 44.1875 
z
" id="DejaVuSans-109"/>
      <path d="M 46.6875 72.90625 
L 73.1875 45.703125 
L 63.375 45.703125 
L 41.890625 64.984375 
L 20.40625 45.703125 
L 10.59375 45.703125 
L 37.109375 72.90625 
z
" id="DejaVuSans-94"/>
      <path d="M 25.390625 72.90625 
L 33.6875 72.90625 
L 8.296875 -9.28125 
L 0 -9.28125 
z
" id="DejaVuSans-47"/>
      <path d="M 44.28125 53.078125 
L 44.28125 44.578125 
Q 40.484375 46.53125 36.375 47.5 
Q 32.28125 48.484375 27.875 48.484375 
Q 21.1875 48.484375 17.84375 46.4375 
Q 14.5 44.390625 14.5 40.28125 
Q 14.5 37.15625 16.890625 35.375 
Q 19.28125 33.59375 26.515625 31.984375 
L 29.59375 31.296875 
Q 39.15625 29.25 43.1875 25.515625 
Q 47.21875 21.78125 47.21875 15.09375 
Q 47.21875 7.46875 41.1875 3.015625 
Q 35.15625 -1.421875 24.609375 -1.421875 
Q 20.21875 -1.421875 15.453125 -0.5625 
Q 10.6875 0.296875 5.421875 2 
L 5.421875 11.28125 
Q 10.40625 8.6875 15.234375 7.390625 
Q 20.0625 6.109375 24.8125 6.109375 
Q 31.15625 6.109375 34.5625 8.28125 
Q 37.984375 10.453125 37.984375 14.40625 
Q 37.984375 18.0625 35.515625 20.015625 
Q 33.0625 21.96875 24.703125 23.78125 
L 21.578125 24.515625 
Q 13.234375 26.265625 9.515625 29.90625 
Q 5.8125 33.546875 5.8125 39.890625 
Q 5.8125 47.609375 11.28125 51.796875 
Q 16.75 56 26.8125 56 
Q 31.78125 56 36.171875 55.265625 
Q 40.578125 54.546875 44.28125 53.078125 
z
" id="DejaVuSans-115"/>
     </defs>
     <g transform="translate(18.398437 100.718276)rotate(-90)scale(0.1 -0.1)">
      <use xlink:href="#DejaVuSans-83"/>
      <use x="63.476562" xlink:href="#DejaVuSans-40"/>
      <use x="102.490234" xlink:href="#DejaVuSans-102"/>
      <use x="137.695312" xlink:href="#DejaVuSans-41"/>
      <use x="176.708984" xlink:href="#DejaVuSans-32"/>
      <use x="208.496094" xlink:href="#DejaVuSans-40"/>
      <use x="247.509766" xlink:href="#DejaVuSans-109"/>
      <use x="344.921875" xlink:href="#DejaVuSans-94"/>
      <use x="428.710938" xlink:href="#DejaVuSans-50"/>
      <use x="492.333984" xlink:href="#DejaVuSans-47"/>
      <use x="526.025391" xlink:href="#DejaVuSans-115"/>
      <use x="578.125" xlink:href="#DejaVuSans-41"/>
     </g>
    </g>
   </g>
   <g id="line2d_49">
    <path clip-path="url(#p634c7ba2e1)" d="M 62.296013 31.575917 
L 74.492492 37.491117 
L 81.626975 43.745334 
L 86.688972 21.680238 
L 90.615361 16.736268 
L 93.823455 17.2918 
L 96.535859 17.976818 
L 98.885451 39.153123 
L 100.957938 17.678637 
L 102.81184 16.169204 
L 106.019934 26.831252 
L 107.42835 21.844902 
L 108.732339 34.079557 
L 109.946323 32.062497 
L 111.08193 49.922726 
L 112.148669 25.415025 
L 113.154417 30.448639 
L 114.105773 33.837991 
L 115.00832 31.490178 
L 115.866822 30.026254 
L 116.685379 23.362034 
L 117.467543 23.902688 
L 118.216414 21.142005 
L 118.934709 19.780665 
L 119.624829 24.0033 
L 120.2889 38.064589 
L 120.928818 43.128974 
L 121.546278 39.73014 
L 122.142803 39.304809 
L 122.719766 26.478256 
L 123.27841 29.158132 
L 123.819862 34.979494 
L 124.345149 27.481258 
L 124.855207 28.280433 
L 126.302253 41.913396 
L 126.759312 25.898144 
L 127.204799 25.40457 
L 127.639286 41.914193 
L 128.063301 32.717002 
L 128.477339 28.379727 
L 128.881858 28.135242 
L 129.277286 38.162672 
L 129.664022 41.885864 
L 130.042441 35.089139 
L 130.412893 38.973183 
L 130.775706 38.601852 
L 131.131189 36.656653 
L 131.479632 43.359341 
L 131.821308 32.077993 
L 132.156477 32.512405 
L 132.48538 41.03374 
L 132.808248 38.069163 
L 133.125298 27.707632 
L 133.436736 27.568484 
L 133.742757 32.044545 
L 134.339282 64.051851 
L 134.630129 33.818341 
L 134.916246 28.602912 
L 135.474889 41.116767 
L 136.016341 35.451322 
L 136.280945 42.916391 
L 136.541628 46.164932 
L 136.798506 59.230274 
L 137.051687 35.914651 
L 137.301277 31.028997 
L 137.547376 32.728378 
L 137.790081 42.627034 
L 138.029483 33.849944 
L 138.265672 29.464913 
L 138.498732 33.295631 
L 138.728746 33.924476 
L 138.955792 32.685291 
L 139.179945 38.124968 
L 139.401279 48.599735 
L 139.619863 37.410958 
L 139.835765 35.72189 
L 140.04905 35.412575 
L 140.259781 50.257907 
L 140.468017 38.055687 
L 140.673819 34.487197 
L 140.877241 35.95982 
L 141.078338 39.654136 
L 141.277162 39.159268 
L 141.473765 44.996268 
L 141.668196 36.616058 
L 142.050729 32.405125 
L 142.238921 36.153845 
L 142.425121 50.319847 
L 142.609372 39.366805 
L 142.791714 51.094338 
L 142.972185 41.027436 
L 143.150824 40.542125 
L 143.327668 48.256891 
L 143.676111 36.751396 
L 143.847779 36.419837 
L 144.017788 43.671735 
L 144.18617 41.924969 
L 144.352956 53.578893 
L 144.681859 39.439469 
L 144.844034 41.137236 
L 145.004727 38.522885 
L 145.163966 54.021037 
L 145.633215 31.828132 
L 145.939237 35.337478 
L 146.240027 48.054506 
L 146.388516 38.217126 
L 146.681786 47.460507 
L 146.970248 37.168967 
L 147.112725 47.572612 
L 147.254057 46.999143 
L 147.394264 45.90362 
L 147.533362 42.041726 
L 147.671369 46.429421 
L 147.808302 45.233334 
L 147.944177 41.000805 
L 148.079012 49.386291 
L 148.212821 47.693185 
L 148.477424 41.198378 
L 148.608249 41.979239 
L 148.738107 39.871046 
L 148.867015 41.323094 
L 148.994985 41.05667 
L 149.122031 45.897646 
L 149.248166 44.435436 
L 149.497756 51.077442 
L 149.621236 43.723416 
L 149.743855 55.682619 
L 149.865626 45.779426 
L 149.98656 54.879102 
L 150.106668 44.806106 
L 150.344453 46.320936 
L 150.462151 49.857567 
L 150.579067 45.243348 
L 150.695212 35.851321 
L 150.810594 36.30182 
L 151.264705 58.927757 
L 151.70739 39.529242 
L 151.816342 50.559215 
L 151.924624 44.443732 
L 152.032244 44.513651 
L 152.13921 48.262193 
L 152.245529 62.421975 
L 152.45626 45.513967 
L 152.560687 49.302815 
L 152.767698 37.577225 
L 152.972303 59.623644 
L 153.174556 52.390642 
L 153.274817 55.830145 
L 153.37451 50.677518 
L 153.473642 37.391961 
L 153.572218 38.521198 
L 153.767729 47.488567 
L 153.961091 37.621157 
L 154.247208 57.569223 
L 154.528747 41.224761 
L 154.621601 45.334965 
L 154.713968 75.587868 
L 154.897259 57.435006 
L 154.988193 49.973494 
L 155.07866 60.124715 
L 155.258211 42.213679 
L 155.347304 41.228313 
L 155.435948 45.807583 
L 155.524147 57.329323 
L 155.611907 44.570574 
L 155.699232 49.685565 
L 155.872591 41.011581 
L 156.044258 53.709597 
L 156.214267 43.612824 
L 156.29866 44.001973 
L 156.382649 49.361648 
L 156.549436 40.582626 
L 156.632239 47.205637 
L 156.714656 65.952589 
L 156.878339 42.871807 
L 156.959613 43.347214 
L 157.040513 45.087112 
L 157.121043 67.302248 
L 157.281006 44.69265 
L 157.439528 48.052321 
L 157.518256 46.764045 
L 157.596634 56.757455 
L 157.674665 44.526586 
L 157.9067 59.401263 
L 158.135716 42.636232 
L 158.36179 55.716631 
L 158.436507 49.343684 
L 158.510907 53.111246 
L 158.584995 48.452357 
L 158.658772 59.335546 
L 158.732241 55.073504 
L 158.950825 42.137255 
L 159.023088 45.731376 
L 159.166727 50.980281 
L 159.309204 42.146744 
L 159.380013 45.690132 
L 159.450537 57.44844 
L 159.52078 55.552637 
L 159.590743 45.265426 
L 159.66043 47.750799 
L 159.867848 56.102127 
L 160.004781 48.138006 
L 160.07285 61.189122 
L 160.208203 44.075857 
L 160.275491 47.943958 
L 160.4093 48.75958 
L 160.475825 48.216912 
L 160.542099 78.272748 
L 160.608125 47.538153 
L 160.673904 52.131127 
L 160.739437 73.978214 
L 160.869777 48.076764 
L 160.934587 43.977267 
L 160.999159 46.472587 
L 161.063494 46.802205 
L 161.127596 58.606405 
L 161.191464 45.784307 
L 161.255102 48.370647 
L 161.31851 53.908088 
L 161.444646 44.586473 
L 161.569883 50.330857 
L 161.632169 45.940014 
L 161.694236 46.444958 
L 161.756084 48.720082 
L 161.817716 55.789453 
L 161.879132 48.093543 
L 161.940335 60.979772 
L 162.001326 53.248919 
L 162.062106 55.10236 
L 162.122676 61.107024 
L 162.183039 49.490606 
L 162.243196 52.459893 
L 162.303148 59.637223 
L 162.362896 50.617364 
L 162.422442 52.569566 
L 162.481787 53.679925 
L 162.540932 51.485642 
L 162.59988 61.661407 
L 162.658631 58.876819 
L 162.775547 47.268364 
L 162.891691 43.059897 
L 162.949477 48.294946 
L 163.007074 48.229441 
L 163.064483 47.459762 
L 163.121705 53.020244 
L 163.178741 71.418325 
L 163.235594 69.008486 
L 163.34875 50.075234 
L 163.405057 52.54918 
L 163.461184 50.640404 
L 163.517133 57.576632 
L 163.683919 47.181691 
L 163.849139 54.206577 
L 163.903869 51.076453 
L 163.95843 51.635573 
L 164.012822 64.979642 
L 164.067046 49.090661 
L 164.121104 53.762529 
L 164.174996 53.128996 
L 164.228724 49.64516 
L 164.335689 59.540546 
L 164.54769 46.83648 
L 164.600293 47.351295 
L 164.65274 46.149332 
L 164.809148 55.366773 
L 164.912653 47.35013 
L 164.964178 48.776597 
L 165.066777 58.334896 
L 165.168782 48.59565 
L 165.219564 56.338535 
L 165.270199 51.278434 
L 165.371035 53.718589 
L 165.471296 69.902324 
L 165.57099 51.287045 
L 165.620625 51.355597 
L 165.719478 46.351572 
L 165.866724 75.267842 
L 165.964208 75.291818 
L 166.012748 48.469459 
L 166.061155 48.379253 
L 166.109429 52.117642 
L 166.157571 45.874734 
L 166.205581 53.471687 
L 166.348831 64.620718 
L 166.396323 54.804759 
L 166.490925 55.374396 
L 166.538035 50.131432 
L 166.58502 51.304524 
L 166.63188 52.649442 
L 166.771715 49.307099 
L 166.81808 51.430775 
L 166.864324 68.190109 
L 166.910447 48.999988 
L 167.093738 83.262525 
L 167.139264 55.916476 
L 167.184673 61.552962 
L 167.229964 69.374942 
L 167.27514 63.043656 
L 167.3202 60.593389 
L 167.365144 79.201774 
L 167.409974 55.599148 
L 167.45469 61.079393 
L 167.499293 50.883838 
L 167.543783 55.28163 
L 167.588161 74.60392 
L 167.632427 61.639486 
L 167.676582 53.792875 
L 167.720627 68.844 
L 167.764562 51.417488 
L 167.808387 51.925346 
L 167.852103 50.6395 
L 167.939211 58.23905 
L 168.02589 46.158557 
L 168.06907 49.078176 
L 168.155113 55.15616 
L 168.197978 51.113862 
L 168.240738 53.531197 
L 168.283394 51.486681 
L 168.325948 50.345761 
L 168.368398 62.093845 
L 168.410747 54.356451 
L 168.452994 47.982549 
L 168.495139 58.369133 
L 168.537184 59.072556 
L 168.620974 47.991976 
L 168.704366 51.350384 
L 168.745915 52.134811 
L 168.787366 65.34199 
L 168.869975 61.323265 
L 168.911135 52.06455 
L 168.952199 54.080567 
L 168.993167 66.359134 
L 169.03404 53.728517 
L 169.074818 61.542025 
L 169.156092 52.096359 
L 169.196589 53.161657 
L 169.236992 68.847716 
L 169.317523 60.305758 
L 169.35765 60.978562 
L 169.397686 57.03453 
L 169.437631 75.424334 
L 169.477486 50.992797 
L 169.51725 52.687523 
L 169.596511 59.822206 
L 169.636007 58.553366 
L 169.675416 48.889445 
L 169.714736 54.772208 
L 169.753968 67.545735 
L 169.793114 55.404638 
L 169.832172 55.068404 
L 169.91003 50.536529 
L 170.026174 70.428178 
L 170.10318 50.967737 
L 170.17985 54.119593 
L 170.21806 50.299962 
L 170.294233 69.380919 
L 170.332196 53.087756 
L 170.370077 47.998742 
L 170.407877 51.13183 
L 170.445595 56.288891 
L 170.520791 52.70484 
L 170.558269 51.729474 
L 170.595667 54.039521 
L 170.632986 52.659618 
L 170.670226 50.466905 
L 170.855252 73.639914 
L 171.001884 48.47223 
L 171.038352 48.54956 
L 171.183473 68.462612 
L 171.255587 55.260549 
L 171.291534 60.442829 
L 171.327407 62.080903 
L 171.398934 50.235824 
L 171.43459 60.521917 
L 171.470173 69.068426 
L 171.505684 60.799198 
L 171.541124 51.662889 
L 171.611789 53.163476 
L 171.647016 53.086597 
L 171.682173 74.202021 
L 171.752276 51.597999 
L 171.787223 50.510998 
L 171.8221 50.670677 
L 171.891649 57.175673 
L 171.926321 76.292343 
L 171.995459 60.351289 
L 172.132927 54.229568 
L 172.201261 63.635148 
L 172.26933 62.041071 
L 172.337136 67.858387 
L 172.370942 54.409732 
L 172.404682 69.342452 
L 172.471971 52.174124 
L 172.505518 50.145785 
L 172.539002 51.982482 
L 172.572423 53.057288 
L 172.60578 49.881914 
L 172.705473 50.784351 
L 172.90318 67.105627 
L 173.001207 52.72684 
L 173.033762 52.764427 
L 173.066257 56.284946 
L 173.098691 91.441355 
L 173.131066 54.680534 
L 173.163382 54.712768 
L 173.227835 68.809569 
L 173.259974 61.889278 
L 173.324075 52.027023 
L 173.356039 52.412325 
L 173.483314 66.577188 
L 173.546609 54.442169 
L 173.609676 56.999421 
L 173.672518 52.796529 
L 173.735137 54.426976 
L 173.828649 52.014283 
L 173.890715 72.428836 
L 173.952563 56.522733 
L 174.014195 58.165098 
L 174.10624 68.878162 
L 174.136814 56.396797 
L 174.197805 72.853448 
L 174.228221 71.028499 
L 174.288897 53.478161 
L 174.349363 55.128304 
L 174.379519 63.942745 
L 174.439676 50.508455 
L 174.499627 70.482796 
L 174.559375 53.323075 
L 174.618921 53.919897 
L 174.648619 55.856815 
L 174.678266 65.886467 
L 174.737412 63.478699 
L 174.76691 53.269969 
L 174.796359 65.174833 
L 174.85511 55.913965 
L 174.913665 59.903005 
L 174.972026 51.89763 
L 175.030194 67.970649 
L 175.059206 54.298003 
L 175.08817 50.31345 
L 175.117087 51.415134 
L 175.203553 61.41432 
L 175.232281 60.888197 
L 175.289596 52.928075 
L 175.318184 55.369716 
L 175.346726 62.092844 
L 175.40367 53.494331 
L 175.432073 61.726032 
L 175.517009 50.823362 
L 175.54523 51.970461 
L 175.601536 78.309438 
L 175.657663 61.034533 
L 175.769383 51.668895 
L 175.713612 64.285447 
L 175.797203 52.54103 
L 175.935644 82.608885 
L 176.073005 53.355105 
L 176.182126 73.982924 
L 176.236434 54.616683 
L 176.290575 58.893833 
L 176.317583 68.324993 
L 176.371476 56.7351 
L 176.39836 61.06718 
L 176.425203 60.45293 
L 176.452006 66.519117 
L 176.505488 62.854056 
L 176.532169 55.672322 
L 176.585409 59.491677 
L 176.611969 89.501976 
L 176.691408 57.951908 
L 176.717808 57.267324 
L 176.744169 70.753975 
L 176.849219 69.177034 
L 176.875384 75.079929 
L 176.90151 70.092488 
L 176.953645 53.296705 
L 177.03156 60.567536 
L 177.134914 53.096134 
L 177.160657 54.007679 
L 177.212032 67.85506 
L 177.263257 57.570235 
L 177.288814 57.892076 
L 177.314333 55.845937 
L 177.416043 90.142104 
L 177.466679 73.03816 
L 177.491942 58.578837 
L 177.567515 69.347393 
L 177.592634 78.47153 
L 177.617717 62.749781 
L 177.742599 54.114212 
L 177.891296 76.085163 
L 178.014259 55.698749 
L 178.038748 55.474693 
L 178.087625 65.900445 
L 178.112013 55.115391 
L 178.136367 56.240686 
L 178.184974 53.8616 
L 178.209228 57.286186 
L 178.233448 78.456925 
L 178.305908 58.81875 
L 178.329996 56.756063 
L 178.35405 66.107451 
L 178.40206 55.3096 
L 178.44994 61.22565 
L 178.521516 53.812566 
L 178.592803 57.112637 
L 178.663801 78.148064 
L 178.734515 63.546892 
L 178.758023 57.985918 
L 178.781499 70.091614 
L 178.828359 64.529313 
L 178.851742 96.512335 
L 178.944965 54.491253 
L 178.968194 57.626245 
L 179.037697 56.183759 
L 179.08388 68.719538 
L 179.106926 58.151101 
L 179.152929 78.628162 
L 179.198811 64.300031 
L 179.221707 58.9498 
L 179.244574 62.317882 
L 179.26741 77.477144 
L 179.335744 56.561984 
L 179.381152 56.642325 
L 179.494164 70.38673 
L 179.516679 58.856608 
L 179.606454 61.105192 
L 179.628826 81.724622 
L 179.673485 60.971395 
L 179.695773 66.971287 
L 179.78464 72.976753 
L 179.828907 55.725068 
L 179.917106 71.449566 
L 179.939087 58.440002 
L 179.961041 56.459639 
L 180.026738 75.441669 
L 180.0704 60.087147 
L 180.09219 57.65097 
L 180.135691 62.088934 
L 180.1574 58.755043 
L 180.179083 70.56489 
L 180.243973 56.219791 
L 180.265549 54.222009 
L 180.2871 57.5679 
L 180.351593 80.542725 
L 180.394457 67.304819 
L 180.437217 69.777169 
L 180.543665 56.205437 
L 180.564878 56.693893 
L 180.628362 74.550398 
L 180.691619 62.27331 
L 180.733664 56.309771 
L 180.754648 68.530996 
L 180.775608 60.208558 
L 180.796543 72.020377 
L 180.859199 55.868918 
L 180.880035 55.710588 
L 180.942394 55.083334 
L 181.004534 73.449065 
L 181.128158 55.45365 
L 181.148678 58.040468 
L 181.25092 76.066856 
L 181.332288 58.10797 
L 181.352572 61.573882 
L 181.372832 82.443157 
L 181.433472 57.554269 
L 181.473783 72.130408 
L 181.493904 59.13375 
L 181.574159 70.195727 
L 181.63411 58.342188 
L 181.673965 85.827043 
L 181.713729 56.740073 
L 181.79299 65.176816 
L 181.812749 75.479228 
L 181.852202 58.852073 
L 181.911215 72.142155 
L 182.028652 58.248618 
L 182.048148 58.673305 
L 182.106509 79.944178 
L 182.145309 57.868992 
L 182.184024 76.221536 
L 182.241937 91.476149 
L 182.299659 58.90235 
L 182.433614 91.546518 
L 182.509704 57.008157 
L 182.566556 57.884651 
L 182.585466 57.593993 
L 182.623226 57.921066 
L 182.698502 74.420845 
L 182.754748 71.887086 
L 182.848095 58.625614 
L 182.885296 62.198732 
L 182.940949 58.253295 
L 182.977954 78.568067 
L 182.996427 59.570179 
L 183.088504 62.206245 
L 183.16182 57.210901 
L 183.180101 66.059288 
L 183.253037 56.395116 
L 183.271224 57.043873 
L 183.361878 73.894239 
L 183.416046 63.663494 
L 183.434066 61.712376 
L 183.470049 93.177414 
L 183.505959 57.760849 
L 183.541795 64.461977 
L 183.631069 57.830428 
L 183.64887 58.127907 
L 183.702163 56.441097 
L 183.772971 73.877058 
L 183.808269 58.368593 
L 183.843496 86.041595 
L 183.878652 60.551102 
L 183.931256 82.036238 
L 183.948755 60.436356 
L 183.983702 68.956421 
L 184.035993 83.381745 
L 184.088128 60.473247 
L 184.157403 57.1716 
L 184.226407 79.706757 
L 184.260807 60.504626 
L 184.346515 62.623438 
L 184.380682 78.827547 
L 184.448816 60.484394 
L 184.465809 61.319787 
L 184.499745 80.612054 
L 184.550526 60.871202 
L 184.567421 62.72686 
L 184.5843 61.595502 
L 184.601162 76.505189 
L 184.651652 60.582605 
L 184.685232 69.865773 
L 184.768902 58.334788 
L 184.735482 87.543741 
L 184.802259 59.597024 
L 184.835553 61.497522 
L 184.885376 71.858095 
L 184.935058 58.870255 
L 184.951588 57.893393 
L 184.984601 60.204411 
L 185.001084 80.862986 
L 185.066862 58.101231 
L 185.09966 69.94894 
L 185.132396 74.007945 
L 185.197687 60.275274 
L 185.213972 75.755349 
L 185.295171 59.959664 
L 185.311366 62.756805 
L 185.343711 57.645393 
L 185.375997 63.684136 
L 185.392118 61.465307 
L 185.456453 83.496446 
L 185.504551 63.498368 
L 185.520555 59.970013 
L 185.536544 67.544956 
L 185.552518 61.699852 
L 185.600354 87.614818 
L 185.663935 62.269688 
L 185.679794 57.926561 
L 185.743088 64.876116 
L 185.758876 84.588113 
L 185.837605 59.53303 
L 185.853308 72.936198 
L 185.915983 82.009552 
L 185.994013 58.452973 
L 186.025128 77.257945 
L 186.179886 58.170945 
L 186.056189 81.609699 
L 186.195287 59.433809 
L 186.318013 79.76234 
L 186.379057 64.999863 
L 186.424701 70.186533 
L 186.439889 73.21069 
L 186.485376 61.455185 
L 186.500512 60.23827 
L 186.530746 65.144645 
L 186.545843 62.787098 
L 186.575998 76.705695 
L 186.606102 60.907429 
L 186.651162 64.980791 
L 186.681138 67.848835 
L 186.696107 94.916313 
L 186.785653 60.289711 
L 186.815401 74.914946 
L 186.874746 59.693423 
L 186.889551 61.358457 
L 186.919124 58.493123 
L 186.933891 61.21971 
L 186.948647 80.045074 
L 187.03692 59.534051 
L 187.051589 59.743786 
L 187.168506 81.099263 
L 187.21215 62.217053 
L 187.255686 82.197273 
L 187.28465 62.708543 
L 187.356853 86.474666 
L 187.371258 62.175296 
L 187.42876 59.540066 
L 187.457441 65.926413 
L 187.471764 62.362867 
L 187.52894 92.342574 
L 187.600149 76.343314 
L 187.614357 78.752229 
L 187.628553 63.492648 
L 187.642737 66.7004 
L 187.713488 62.366764 
L 187.727604 64.750805 
L 187.812064 89.949115 
L 187.769885 61.960468 
L 187.826102 64.85242 
L 187.840128 62.391373 
L 187.937999 85.360675 
L 187.910091 61.306009 
L 187.965863 83.943744 
L 188.021458 60.278636 
L 187.993682 84.152421 
L 188.076878 67.418842 
L 188.145908 81.124734 
L 188.104522 63.086319 
L 188.173444 68.595447 
L 188.255796 60.190441 
L 188.200938 78.751381 
L 188.283161 62.987736 
L 188.351389 74.807444 
L 188.324129 61.189854 
L 188.405781 70.982195 
L 188.432914 60.396275 
L 188.446465 74.750705 
L 188.527551 61.790105 
L 188.54103 61.10887 
L 188.554497 63.766047 
L 188.581402 82.378772 
L 188.621683 60.2528 
L 188.661871 67.632048 
L 188.701968 61.16777 
L 188.728648 77.154584 
L 188.768593 63.486988 
L 188.861447 80.635767 
L 188.821713 61.388704 
L 188.874672 66.166787 
L 188.901093 60.971302 
L 188.927473 77.489978 
L 188.953814 64.115897 
L 189.045698 60.77338 
L 189.071863 82.015923 
L 189.124076 62.758259 
L 189.202107 65.392942 
L 189.279792 61.025842 
L 189.305612 83.674711 
L 189.331393 61.310761 
L 189.408511 65.737922 
L 189.421332 80.194867 
L 189.472519 64.179908 
L 189.523559 73.452749 
L 189.549023 79.262122 
L 189.57445 60.285628 
L 189.599841 72.095665 
L 189.625195 59.964287 
L 189.713648 60.60659 
L 189.826724 84.271371 
L 189.876748 61.256509 
L 189.939078 61.687982 
L 189.951518 82.36225 
L 190.038349 63.644045 
L 190.050719 61.040651 
L 190.100111 69.655476 
L 190.112437 76.987984 
L 190.137064 60.765772 
L 190.19848 64.934474 
L 190.210738 62.99093 
L 190.235228 73.018398 
L 190.271898 67.490105 
L 190.345011 65.699014 
L 190.381454 85.462199 
L 190.405707 63.624394 
L 190.490332 65.440858 
L 190.502388 88.372905 
L 190.58655 63.653732 
L 190.59854 74.202497 
L 190.634462 62.276254 
L 190.717996 62.302381 
L 190.789282 81.754724 
L 190.765552 61.587165 
L 190.872086 77.564863 
L 190.895673 61.713084 
L 190.954502 91.987422 
L 190.977979 84.020933 
L 191.024839 61.788364 
L 191.071574 100.433362 
L 191.094895 62.317353 
L 191.176276 84.870884 
L 191.211039 74.197028 
L 191.257283 61.127301 
L 191.303406 78.12792 
L 191.326422 63.482981 
L 191.406742 86.226048 
L 191.372364 62.015384 
L 191.429623 65.876214 
L 191.452475 61.860661 
L 191.486697 64.758418 
L 191.543586 84.43957 
L 191.577632 61.57067 
L 191.600292 69.5556 
L 191.645526 61.703729 
L 191.622923 76.001591 
L 191.690643 65.028583 
L 191.758103 62.419979 
L 191.814123 88.718822 
L 191.98112 61.380089 
L 191.992197 62.22559 
L 192.025386 100.312751 
L 192.102585 67.612471 
L 192.135567 83.138526 
L 192.15752 62.381618 
L 192.201346 82.000416 
L 192.28867 61.284989 
L 192.321305 61.984579 
L 192.33217 63.512797 
L 192.418849 99.026934 
L 192.364725 62.249107 
L 192.451244 84.982305 
L 192.494344 90.629607 
L 192.569517 62.550209 
L 192.601636 61.419403 
L 192.623016 68.359665 
L 192.633697 81.175436 
L 192.655038 61.970208 
L 192.740145 79.330551 
L 192.750754 79.023843 
L 192.814277 87.751636 
L 192.867038 65.53851 
L 192.877571 65.996153 
L 192.898619 102.427942 
L 192.930143 61.384546 
L 192.982558 64.267739 
L 193.024378 83.642749 
L 193.055678 63.21008 
L 193.086923 66.053986 
L 193.107722 62.1205 
L 193.128496 76.443386 
L 193.169971 94.501609 
L 193.190672 62.102426 
L 193.242318 81.282922 
L 193.293813 63.290321 
L 193.355409 73.490488 
L 193.396353 63.424724 
L 193.416789 90.450017 
L 193.477957 65.728277 
L 193.498299 68.594305 
L 193.508461 64.577626 
L 193.599657 97.213764 
L 193.559184 63.924664 
L 193.619859 71.784472 
L 193.629951 66.905114 
L 193.660193 98.47523 
L 193.710481 66.970698 
L 193.750609 82.680214 
L 193.810629 64.562069 
L 193.820612 66.658085 
L 193.890338 65.290588 
L 193.939973 81.093063 
L 193.979581 63.795208 
L 194.048681 68.858599 
L 194.107695 75.343969 
L 194.127322 63.359183 
L 194.146927 69.767902 
L 194.156722 63.841067 
L 194.186073 74.971242 
L 194.254368 68.978335 
L 194.264103 89.437992 
L 194.293275 66.207474 
L 194.361157 75.029172 
L 194.44805 64.764011 
L 194.419133 76.151229 
L 194.476919 67.845545 
L 194.505741 63.9276 
L 194.515338 75.460165 
L 194.534516 65.934057 
L 194.544097 84.646281 
L 194.601474 63.776981 
L 194.649147 82.86765 
L 194.772493 62.303812 
L 194.810273 80.177499 
L 194.838554 98.418396 
L 194.876192 63.121099 
L 194.904368 72.15074 
L 194.960585 65.73744 
L 194.932499 88.731529 
L 195.007295 72.097956 
L 195.016623 83.188871 
L 195.091063 62.61657 
L 195.118897 76.663113 
L 195.155941 64.900363 
L 195.22058 82.923866 
L 195.229795 91.465978 
L 195.266607 63.255617 
L 195.312513 65.82677 
L 195.32168 63.499703 
L 195.330842 69.387785 
L 195.339999 90.879709 
L 195.431311 64.915242 
L 195.440416 65.483158 
L 195.522152 82.059717 
L 195.47679 63.795305 
L 195.558357 79.713197 
L 195.621538 64.393139 
L 195.603509 89.037481 
L 195.675513 64.53207 
L 195.729322 93.760649 
L 195.782968 80.957062 
L 195.872016 66.702354 
L 195.827548 86.383329 
L 195.889772 68.107629 
L 195.898643 82.767451 
L 195.925229 63.648573 
L 195.995931 66.237045 
L 196.013562 108.928482 
L 196.110218 80.039936 
L 196.188907 66.061269 
L 196.136487 84.515061 
L 196.232472 66.617207 
L 196.241172 63.437037 
L 196.267247 93.183659 
L 196.319279 68.748538 
L 196.422886 67.859197 
L 196.440095 102.293499 
L 196.534442 64.361001 
L 196.551542 71.286083 
L 196.628287 86.693218 
L 196.611261 64.199655 
L 196.662288 73.488918 
L 196.696224 64.07516 
L 196.738553 79.236205 
L 196.831318 96.582181 
L 196.780779 68.555063 
L 196.839727 86.398842 
L 196.856532 63.699929 
L 196.940322 73.276494 
L 196.948679 100.36224 
L 196.973727 64.084554 
L 197.048656 74.205329 
L 197.156326 65.526282 
L 197.098432 82.56852 
L 197.164581 68.185137 
L 197.172833 88.93498 
L 197.205799 64.954927 
L 197.271547 73.456896 
L 197.279748 66.121425 
L 197.304329 90.248854 
L 197.377866 75.100945 
L 197.386018 86.227738 
L 197.418588 64.239588 
L 197.483547 78.138051 
L 197.49165 78.564577 
L 197.49975 87.887445 
L 197.515937 69.415028 
L 197.588597 86.058935 
L 197.693023 65.372168 
L 197.701031 69.485938 
L 197.796834 115.173141 
L 197.804794 67.165724 
L 197.81275 66.608373 
L 197.84454 90.777086 
L 197.900035 64.893687 
L 197.923765 72.938218 
L 197.931668 73.747095 
L 197.939567 103.369093 
L 197.955356 64.89636 
L 198.034084 70.629285 
L 198.10464 64.501944 
L 198.088985 83.152146 
L 198.15152 67.710939 
L 198.174914 73.677754 
L 198.190492 65.33868 
L 198.198276 67.738398 
L 198.252668 102.663979 
L 198.283674 66.731819 
L 198.306893 67.563344 
L 198.314625 65.395696 
L 198.330081 84.564629 
L 198.384067 70.704962 
L 198.407154 94.267914 
L 198.422528 65.345088 
L 198.483891 66.628013 
L 198.491546 66.108346 
L 198.506847 105.191756 
L 198.598373 72.635425 
L 198.659127 65.612779 
L 198.643958 82.543545 
L 198.712115 68.996739 
L 198.719671 69.123421 
L 198.727225 91.980953 
L 198.825126 67.314109 
L 198.832634 88.979071 
L 198.915015 65.727063 
L 198.847641 91.208108 
L 198.937416 77.717034 
L 198.944877 91.030538 
L 198.989574 67.516607 
L 199.041578 76.048108 
L 199.13775 65.015928 
L 199.063818 101.612393 
L 199.145126 66.852538 
L 199.22606 98.023342 
L 199.204024 65.533294 
L 199.255399 80.745861 
L 199.306624 65.468333 
L 199.343122 90.832279 
L 199.372266 68.017463 
L 199.379545 67.835403 
L 199.394093 98.235076 
L 199.423153 66.46242 
L 199.488363 68.168606 
L 199.495594 65.562323 
L 199.510046 84.165728 
L 199.538915 70.104407 
L 199.603698 93.193523 
L 199.646755 67.057922 
L 199.653921 83.516355 
L 199.668244 98.257094 
L 199.746813 66.397065 
L 199.753938 66.251277 
L 199.867551 95.760223 
L 199.888772 77.685941 
L 199.917027 66.577903 
L 199.994495 68.753585 
L 200.036607 96.289972 
L 200.015564 66.219534 
L 200.099587 76.204668 
L 200.127506 65.905317 
L 200.190162 88.131832 
L 200.217937 67.121814 
L 200.287185 95.774428 
L 200.23874 66.62414 
L 200.328603 80.99079 
L 200.376801 67.832038 
L 200.418009 87.69549 
L 200.452276 70.95029 
L 200.520609 94.253632 
L 200.547868 67.638785 
L 200.561482 82.45372 
L 200.629393 67.897104 
L 200.581883 107.594586 
L 200.670014 75.886827 
L 200.730771 91.81934 
L 200.717288 67.156217 
L 200.777882 69.425932 
L 200.831568 83.224473 
L 200.798033 67.699454 
L 200.885092 71.735232 
L 200.918461 66.278466 
L 200.965073 77.518928 
L 200.971722 104.148908 
L 201.024821 67.170271 
L 201.071152 68.827425 
L 201.077761 83.729569 
L 201.130541 66.139435 
L 201.176595 67.20115 
L 201.189731 93.887772 
L 201.202858 66.35608 
L 201.307517 75.322464 
L 201.372614 68.160631 
L 201.340096 94.233837 
L 201.405073 83.932732 
L 201.411557 83.534198 
L 201.489186 68.628773 
L 201.50854 94.645618 
L 201.527872 71.10438 
L 201.624218 92.298161 
L 201.585743 68.18025 
L 201.637024 68.990081 
L 201.649821 66.793754 
L 201.662608 69.524612 
L 201.668999 69.488437 
L 201.77093 92.831287 
L 201.688156 67.284587 
L 201.789976 89.49636 
L 201.884901 67.93534 
L 201.903824 68.409303 
L 201.985592 103.741961 
L 201.922728 67.656084 
L 202.029464 76.182751 
L 202.123109 68.163019 
L 202.09195 96.352599 
L 202.141778 70.405741 
L 202.17285 92.87055 
L 202.210063 67.579618 
L 202.259559 78.607086 
L 202.284255 67.441431 
L 202.271912 89.789344 
L 202.364278 73.376115 
L 202.376557 92.927852 
L 202.407217 67.892057 
L 202.468378 69.855555 
L 202.474482 68.960435 
L 202.565794 107.157194 
L 202.535409 67.872634 
L 202.584 72.658744 
L 202.620355 87.903382 
L 202.686811 68.054513 
L 202.69284 75.222731 
L 202.698867 75.197674 
L 202.716936 68.506496 
L 202.807001 99.120876 
L 202.872758 68.202797 
L 202.836921 101.136168 
L 202.914475 75.808747 
L 202.920427 93.692725 
L 202.991689 67.597996 
L 203.021297 84.209752 
L 203.074465 67.238406 
L 203.05676 84.74252 
L 203.139231 69.284535 
L 203.186185 106.062013 
L 203.221318 67.364728 
L 203.244701 69.866191 
L 203.250542 68.286588 
L 203.285547 78.964597 
L 203.308845 100.660568 
L 203.390146 70.453093 
L 203.395939 70.020687 
L 203.494127 92.250005 
L 203.419091 68.375847 
L 203.505642 88.97623 
L 203.545887 68.389817 
L 203.620385 79.841312 
L 203.705954 68.656086 
L 203.637532 85.046933 
L 203.728703 69.893417 
L 203.802432 92.197766 
L 203.768441 67.955608 
L 203.842005 83.347957 
L 203.881489 69.134974 
L 203.932124 94.772935 
L 203.960192 70.75907 
L 204.016194 106.471318 
L 204.072019 78.252602 
L 204.105428 69.681404 
L 204.127666 86.041726 
L 204.183139 77.044523 
L 204.199746 94.065894 
L 204.210809 67.911105 
L 204.288057 84.021812 
L 204.375926 68.022467 
L 204.332046 92.177915 
L 204.403295 71.540296 
L 204.408764 69.524978 
L 204.42516 85.255251 
L 204.474257 72.26321 
L 204.577459 90.970344 
L 204.528649 69.981228 
L 204.582874 72.236988 
L 204.636932 69.866697 
L 204.609923 88.490205 
L 204.669287 71.977163 
L 204.755277 123.553286 
L 204.685442 70.245949 
L 204.77671 80.389126 
L 204.84085 70.555703 
L 204.819496 104.324615 
L 204.883481 81.85336 
L 204.973729 109.933897 
L 204.910072 68.937272 
L 204.989607 69.984685 
L 205.058248 107.172796 
L 205.079315 69.707819 
L 205.110867 86.182382 
L 205.189502 68.878129 
L 205.19996 89.837307 
L 205.220858 81.429651 
L 205.293805 99.180214 
L 205.257369 71.032743 
L 205.330165 95.237137 
L 205.356091 69.059126 
L 205.449109 74.997313 
L 205.490292 68.532335 
L 205.459414 87.968952 
L 205.541637 77.123522 
L 205.577489 102.700733 
L 205.608162 69.274474 
L 205.648976 70.942421 
L 205.654071 70.443816 
L 205.669347 75.671008 
L 205.674436 73.733524 
L 205.70494 108.664247 
L 205.78097 71.499979 
L 205.786027 84.111877 
L 205.841558 70.273292 
L 205.816339 99.123223 
L 205.886863 77.486911 
L 205.89189 103.272657 
L 205.957106 68.494931 
L 205.997119 83.357188 
L 206.066924 69.198729 
L 206.056969 101.011295 
L 206.106688 76.346231 
L 206.166167 94.307424 
L 206.190891 71.103301 
L 206.220513 81.577719 
L 206.294352 70.516337 
L 206.230376 94.037602 
L 206.333607 74.881726 
L 206.416733 69.470924 
L 206.441107 92.003408 
L 206.450847 70.354402 
L 206.552796 73.363074 
L 206.634895 114.53777 
L 206.591479 69.799247 
L 206.66378 74.209051 
L 206.745365 69.529819 
L 206.716614 87.853473 
L 206.759723 74.09916 
L 206.855145 90.239364 
L 206.826573 69.535931 
L 206.874168 90.004855 
L 206.940585 69.341391 
L 206.992594 71.625643 
L 207.058567 107.085049 
L 207.096155 70.677887 
L 207.105539 79.349226 
L 207.208439 69.991375 
L 207.128978 90.286351 
L 207.217764 70.857522 
L 207.320011 92.642127 
L 207.278254 70.303698 
L 207.329277 80.302803 
L 207.41706 70.336193 
L 207.426275 92.918652 
L 207.440088 77.911973 
L 207.545631 104.624306 
L 207.49982 72.657072 
L 207.550205 83.986873 
L 207.600447 70.558652 
L 207.577627 108.481488 
L 207.659638 71.253339 
L 207.732217 118.864364 
L 207.750315 70.995226 
L 207.772911 75.543828 
L 207.818017 70.504495 
L 207.786455 91.943985 
L 207.840527 78.834197 
L 207.939229 113.358925 
L 207.907884 71.486297 
L 207.948174 78.752023 
L 207.957115 74.930964 
L 207.966052 95.99834 
L 207.970518 105.047903 
L 208.03738 70.220591 
L 208.064054 73.370299 
L 208.068495 70.976109 
L 208.10842 92.074629 
L 208.161513 80.198147 
L 208.170346 100.781089 
L 208.210041 72.088461 
L 208.26722 93.092566 
L 208.367931 71.024012 
L 208.280389 94.152111 
L 208.381024 74.144962 
L 208.385387 71.053743 
L 208.446347 105.101437 
L 208.476749 74.857119 
L 208.520088 98.674578 
L 208.502765 70.404863 
L 208.584898 84.649409 
L 208.632274 70.787374 
L 208.606448 106.722009 
L 208.64947 81.866917 
" style="fill:none;stroke:#000000;stroke-linecap:square;stroke-width:0.8;"/>
   </g>
   <g id="line2d_50">
    <path clip-path="url(#p634c7ba2e1)" d="M 62.296013 31.431915 
L 74.492492 27.660742 
L 81.626975 25.796296 
L 86.688972 24.790899 
L 90.615361 24.286561 
L 93.823455 24.103652 
L 96.535859 24.13455 
L 98.885451 24.309144 
L 102.81184 24.91425 
L 106.019934 25.689148 
L 109.946323 26.942683 
L 114.105773 28.571533 
L 118.934709 30.75016 
L 124.855207 33.698673 
L 133.125298 38.098146 
L 147.112725 45.833612 
L 189.071863 69.39974 
L 208.653766 80.413341 
L 208.653766 80.413341 
" style="fill:none;stroke:#ff0000;stroke-linecap:square;stroke-width:2;"/>
   </g>
   <g id="patch_3">
    <path d="M 54.978125 128.92249 
L 54.978125 10.8 
" style="fill:none;stroke:#000000;stroke-linecap:square;stroke-linejoin:miter;stroke-width:0.8;"/>
   </g>
   <g id="patch_4">
    <path d="M 215.971654 128.92249 
L 215.971654 10.8 
" style="fill:none;stroke:#000000;stroke-linecap:square;stroke-linejoin:miter;stroke-width:0.8;"/>
   </g>
   <g id="patch_5">
    <path d="M 54.978125 128.92249 
L 215.971654 128.92249 
" style="fill:none;stroke:#000000;stroke-linecap:square;stroke-linejoin:miter;stroke-width:0.8;"/>
   </g>
   <g id="patch_6">
    <path d="M 54.978125 10.8 
L 215.971654 10.8 
" style="fill:none;stroke:#000000;stroke-linecap:square;stroke-linejoin:miter;stroke-width:0.8;"/>
   </g>
   <g id="legend_1">
    <g id="patch_7">
     <path d="M 61.978125 123.92249 
L 143.371875 123.92249 
Q 145.371875 123.92249 145.371875 121.92249 
L 145.371875 93.56624 
Q 145.371875 91.56624 143.371875 91.56624 
L 61.978125 91.56624 
Q 59.978125 91.56624 59.978125 93.56624 
L 59.978125 121.92249 
Q 59.978125 123.92249 61.978125 123.92249 
z
" style="fill:#ffffff;opacity:0.8;stroke:#cccccc;stroke-linejoin:miter;"/>
    </g>
    <g id="line2d_51">
     <path d="M 63.978125 99.664678 
L 83.978125 99.664678 
" style="fill:none;stroke:#000000;stroke-linecap:square;stroke-width:0.8;"/>
    </g>
    <g id="line2d_52"/>
    <g id="text_11">
     <!-- simulated -->
     <defs>
      <path d="M 9.421875 54.6875 
L 18.40625 54.6875 
L 18.40625 0 
L 9.421875 0 
z
M 9.421875 75.984375 
L 18.40625 75.984375 
L 18.40625 64.59375 
L 9.421875 64.59375 
z
" id="DejaVuSans-105"/>
      <path d="M 8.5 21.578125 
L 8.5 54.6875 
L 17.484375 54.6875 
L 17.484375 21.921875 
Q 17.484375 14.15625 20.5 10.265625 
Q 23.53125 6.390625 29.59375 6.390625 
Q 36.859375 6.390625 41.078125 11.03125 
Q 45.3125 15.671875 45.3125 23.6875 
L 45.3125 54.6875 
L 54.296875 54.6875 
L 54.296875 0 
L 45.3125 0 
L 45.3125 8.40625 
Q 42.046875 3.421875 37.71875 1 
Q 33.40625 -1.421875 27.6875 -1.421875 
Q 18.265625 -1.421875 13.375 4.4375 
Q 8.5 10.296875 8.5 21.578125 
z
M 31.109375 56 
z
" id="DejaVuSans-117"/>
      <path d="M 9.421875 75.984375 
L 18.40625 75.984375 
L 18.40625 0 
L 9.421875 0 
z
" id="DejaVuSans-108"/>
      <path d="M 34.28125 27.484375 
Q 23.390625 27.484375 19.1875 25 
Q 14.984375 22.515625 14.984375 16.5 
Q 14.984375 11.71875 18.140625 8.90625 
Q 21.296875 6.109375 26.703125 6.109375 
Q 34.1875 6.109375 38.703125 11.40625 
Q 43.21875 16.703125 43.21875 25.484375 
L 43.21875 27.484375 
z
M 52.203125 31.203125 
L 52.203125 0 
L 43.21875 0 
L 43.21875 8.296875 
Q 40.140625 3.328125 35.546875 0.953125 
Q 30.953125 -1.421875 24.3125 -1.421875 
Q 15.921875 -1.421875 10.953125 3.296875 
Q 6 8.015625 6 15.921875 
Q 6 25.140625 12.171875 29.828125 
Q 18.359375 34.515625 30.609375 34.515625 
L 43.21875 34.515625 
L 43.21875 35.40625 
Q 43.21875 41.609375 39.140625 45 
Q 35.0625 48.390625 27.6875 48.390625 
Q 23 48.390625 18.546875 47.265625 
Q 14.109375 46.140625 10.015625 43.890625 
L 10.015625 52.203125 
Q 14.9375 54.109375 19.578125 55.046875 
Q 24.21875 56 28.609375 56 
Q 40.484375 56 46.34375 49.84375 
Q 52.203125 43.703125 52.203125 31.203125 
z
" id="DejaVuSans-97"/>
      <path d="M 18.3125 70.21875 
L 18.3125 54.6875 
L 36.8125 54.6875 
L 36.8125 47.703125 
L 18.3125 47.703125 
L 18.3125 18.015625 
Q 18.3125 11.328125 20.140625 9.421875 
Q 21.96875 7.515625 27.59375 7.515625 
L 36.8125 7.515625 
L 36.8125 0 
L 27.59375 0 
Q 17.1875 0 13.234375 3.875 
Q 9.28125 7.765625 9.28125 18.015625 
L 9.28125 47.703125 
L 2.6875 47.703125 
L 2.6875 54.6875 
L 9.28125 54.6875 
L 9.28125 70.21875 
z
" id="DejaVuSans-116"/>
      <path d="M 56.203125 29.59375 
L 56.203125 25.203125 
L 14.890625 25.203125 
Q 15.484375 15.921875 20.484375 11.0625 
Q 25.484375 6.203125 34.421875 6.203125 
Q 39.59375 6.203125 44.453125 7.46875 
Q 49.3125 8.734375 54.109375 11.28125 
L 54.109375 2.78125 
Q 49.265625 0.734375 44.1875 -0.34375 
Q 39.109375 -1.421875 33.890625 -1.421875 
Q 20.796875 -1.421875 13.15625 6.1875 
Q 5.515625 13.8125 5.515625 26.8125 
Q 5.515625 40.234375 12.765625 48.109375 
Q 20.015625 56 32.328125 56 
Q 43.359375 56 49.78125 48.890625 
Q 56.203125 41.796875 56.203125 29.59375 
z
M 47.21875 32.234375 
Q 47.125 39.59375 43.09375 43.984375 
Q 39.0625 48.390625 32.421875 48.390625 
Q 24.90625 48.390625 20.390625 44.140625 
Q 15.875 39.890625 15.1875 32.171875 
z
" id="DejaVuSans-101"/>
      <path d="M 45.40625 46.390625 
L 45.40625 75.984375 
L 54.390625 75.984375 
L 54.390625 0 
L 45.40625 0 
L 45.40625 8.203125 
Q 42.578125 3.328125 38.25 0.953125 
Q 33.9375 -1.421875 27.875 -1.421875 
Q 17.96875 -1.421875 11.734375 6.484375 
Q 5.515625 14.40625 5.515625 27.296875 
Q 5.515625 40.1875 11.734375 48.09375 
Q 17.96875 56 27.875 56 
Q 33.9375 56 38.25 53.625 
Q 42.578125 51.265625 45.40625 46.390625 
z
M 14.796875 27.296875 
Q 14.796875 17.390625 18.875 11.75 
Q 22.953125 6.109375 30.078125 6.109375 
Q 37.203125 6.109375 41.296875 11.75 
Q 45.40625 17.390625 45.40625 27.296875 
Q 45.40625 37.203125 41.296875 42.84375 
Q 37.203125 48.484375 30.078125 48.484375 
Q 22.953125 48.484375 18.875 42.84375 
Q 14.796875 37.203125 14.796875 27.296875 
z
" id="DejaVuSans-100"/>
     </defs>
     <g transform="translate(91.978125 103.164678)scale(0.1 -0.1)">
      <use xlink:href="#DejaVuSans-115"/>
      <use x="52.099609" xlink:href="#DejaVuSans-105"/>
      <use x="79.882812" xlink:href="#DejaVuSans-109"/>
      <use x="177.294922" xlink:href="#DejaVuSans-117"/>
      <use x="240.673828" xlink:href="#DejaVuSans-108"/>
      <use x="268.457031" xlink:href="#DejaVuSans-97"/>
      <use x="329.736328" xlink:href="#DejaVuSans-116"/>
      <use x="368.945312" xlink:href="#DejaVuSans-101"/>
      <use x="430.46875" xlink:href="#DejaVuSans-100"/>
     </g>
    </g>
    <g id="line2d_53">
     <path d="M 63.978125 114.342803 
L 83.978125 114.342803 
" style="fill:none;stroke:#ff0000;stroke-linecap:square;stroke-width:2;"/>
    </g>
    <g id="line2d_54"/>
    <g id="text_12">
     <!-- target -->
     <defs>
      <path d="M 41.109375 46.296875 
Q 39.59375 47.171875 37.8125 47.578125 
Q 36.03125 48 33.890625 48 
Q 26.265625 48 22.1875 43.046875 
Q 18.109375 38.09375 18.109375 28.8125 
L 18.109375 0 
L 9.078125 0 
L 9.078125 54.6875 
L 18.109375 54.6875 
L 18.109375 46.1875 
Q 20.953125 51.171875 25.484375 53.578125 
Q 30.03125 56 36.53125 56 
Q 37.453125 56 38.578125 55.875 
Q 39.703125 55.765625 41.0625 55.515625 
z
" id="DejaVuSans-114"/>
      <path d="M 45.40625 27.984375 
Q 45.40625 37.75 41.375 43.109375 
Q 37.359375 48.484375 30.078125 48.484375 
Q 22.859375 48.484375 18.828125 43.109375 
Q 14.796875 37.75 14.796875 27.984375 
Q 14.796875 18.265625 18.828125 12.890625 
Q 22.859375 7.515625 30.078125 7.515625 
Q 37.359375 7.515625 41.375 12.890625 
Q 45.40625 18.265625 45.40625 27.984375 
z
M 54.390625 6.78125 
Q 54.390625 -7.171875 48.1875 -13.984375 
Q 42 -20.796875 29.203125 -20.796875 
Q 24.46875 -20.796875 20.265625 -20.09375 
Q 16.0625 -19.390625 12.109375 -17.921875 
L 12.109375 -9.1875 
Q 16.0625 -11.328125 19.921875 -12.34375 
Q 23.78125 -13.375 27.78125 -13.375 
Q 36.625 -13.375 41.015625 -8.765625 
Q 45.40625 -4.15625 45.40625 5.171875 
L 45.40625 9.625 
Q 42.625 4.78125 38.28125 2.390625 
Q 33.9375 0 27.875 0 
Q 17.828125 0 11.671875 7.65625 
Q 5.515625 15.328125 5.515625 27.984375 
Q 5.515625 40.671875 11.671875 48.328125 
Q 17.828125 56 27.875 56 
Q 33.9375 56 38.28125 53.609375 
Q 42.625 51.21875 45.40625 46.390625 
L 45.40625 54.6875 
L 54.390625 54.6875 
z
" id="DejaVuSans-103"/>
     </defs>
     <g transform="translate(91.978125 117.842803)scale(0.1 -0.1)">
      <use xlink:href="#DejaVuSans-116"/>
      <use x="39.208984" xlink:href="#DejaVuSans-97"/>
      <use x="100.488281" xlink:href="#DejaVuSans-114"/>
      <use x="141.585938" xlink:href="#DejaVuSans-103"/>
      <use x="205.0625" xlink:href="#DejaVuSans-101"/>
      <use x="266.585938" xlink:href="#DejaVuSans-116"/>
     </g>
    </g>
   </g>
  </g>
 </g>
 <defs>
  <clipPath id="p634c7ba2e1">
   <rect height="118.12249" width="160.993529" x="54.978125" y="10.8"/>
  </clipPath>
 </defs>
</svg>
